<svg version="1.1" xmlns="http://www.w3.org/2000/svg" xmlns:xlink="http://www.w3.org/1999/xlink" width="115.18229" height="157.88702" viewBox="0,0,115.18229,157.88702"><defs><linearGradient x1="222.80689" y1="173.38597" x2="184.58589" y2="144.72797" gradientUnits="userSpaceOnUse" id="color-1"><stop offset="0" stop-color="#a60019"/><stop offset="1" stop-color="#38080c"/></linearGradient><linearGradient x1="269.19489" y1="171.19297" x2="298.39489" y2="133.38297" gradientUnits="userSpaceOnUse" id="color-2"><stop offset="0" stop-color="#a60019"/><stop offset="1" stop-color="#38080c"/></linearGradient><linearGradient x1="278.01989" y1="186.40797" x2="291.92489" y2="234.68897" gradientUnits="userSpaceOnUse" id="color-3"><stop offset="0" stop-color="#a60019"/><stop offset="1" stop-color="#38080c"/></linearGradient><linearGradient x1="229.21789" y1="187.52997" x2="225.12389" y2="237.60597" gradientUnits="userSpaceOnUse" id="color-4"><stop offset="0" stop-color="#a60019"/><stop offset="1" stop-color="#38080c"/></linearGradient></defs><g transform="translate(-182.8494,-84.02337)"><g data-paper-data="{&quot;isPaintingLayer&quot;:true}" stroke-linejoin="miter" stroke-miterlimit="10" stroke-dasharray="" stroke-dashoffset="0" style="mix-blend-mode: normal"><path d="M219.51889,177.37697c-0.45068,2.25454 2.00335,8.24685 -0.10145,7.07331c-2.9605,-1.65023 -20.1424,-10.047 -23.8953,-12.666c-6.92073,-4.82976 -12.2338,-20.2998 -12.1722,-23.018c0.0434,-1.82422 0.95245,-4.05827 2.51329,-5.59399c1.56085,-1.53573 10.6459,-8.64819 12.4081,-8.62179c2.45081,0.03759 3.55354,-0.87645 5.15209,0.77649c0.62906,0.67929 1.54876,4.75923 -0.42411,7.17877c-2.51752,3.08751 -8.11385,4.74009 -7.42196,6.87135c2.39843,7.38802 16.3183,11.4845 18.3693,15.2049c2.03852,3.69554 5.96945,10.8079 5.57224,12.795z" data-paper-data="{&quot;origRot&quot;:0,&quot;index&quot;:null}" fill="url(#color-1)" fill-rule="nonzero" stroke="#000000" stroke-width="1" stroke-linecap="butt"/><path d="M273.42787,174.16297c-0.91251,-1.80931 -0.46196,-10.5775 0.51775,-14.6827c0.60913,-2.55506 7.57352,-8.80036 10.9545,-15.7183c2.08864,-4.27364 1.56108,-8.80397 1.06474,-12.8795c-0.34016,-2.7931 -9.34628,-4.338 -12.882,-6.27828c-3.41095,-1.8718 -1.3708,-4.17156 -0.89579,-5.09022c1.10014,-2.01924 10.5469,-1.46558 12.899,-2.15509c1.69141,-0.49516 2.82555,2.55176 4.73927,3.61586c1.91374,1.0641 7.13539,9.0327 7.66347,10.7794c0.78395,2.60343 -1.36394,13.981 -2.65218,16.1096c-4.88512,8.02198 -6.78505,23.034 -13.6494,29.8021c-1.71584,1.69213 -6.72397,-1.45004 -7.7593,-3.50289z" data-paper-data="{&quot;origRot&quot;:0,&quot;index&quot;:null}" fill="url(#color-2)" fill-rule="nonzero" stroke="#000000" stroke-width="1" stroke-linecap="butt"/><path d="M274.85289,187.57397c1.96027,0.38114 5.77819,-13.4345 8.36301,-9.97531c3.94174,5.2726 11.7836,38.637 14.3158,44.5844c0.8938,2.22736 0.66501,5.06608 -0.23692,7.50781c-0.6491,1.75541 -2.17235,3.59774 -4.16628,4.54487c-1.99393,0.94715 -4.37445,0.97663 -6.05134,0.30856c-2.4975,-0.99845 -4.93078,-2.7893 -5.79447,-5.24661c-3.23659,-9.28648 -12.505,-28.0971 -13.5605,-38.2651c-0.26413,-2.54182 4.90665,-3.89119 7.13075,-3.45874z" data-paper-data="{&quot;origRot&quot;:0,&quot;index&quot;:null}" fill="url(#color-3)" fill-rule="nonzero" stroke="#000000" stroke-width="1" stroke-linecap="butt"/><path d="M232.55489,188.04697c2.09486,-0.86325 10.9336,1.5949 11.1767,4.13882c0.97371,10.1761 -7.89983,28.2903 -9.23834,38.033c-0.36129,2.5795 -0.95059,9.71956 -3.20166,11.1916c-1.51188,0.98613 -13.0821,-0.01486 -15.2238,-0.5495c-2.14174,-0.53463 -1.97964,-2.32823 -2.9627,-3.92085c-1.36646,-2.21546 3.61777,-8.12615 4.054,-10.4862c1.30753,-6.33045 2.72279,-30.6659 5.54541,-36.6132c1.85061,-3.90162 8.00405,-1.03284 9.85041,-1.79368z" data-paper-data="{&quot;origRot&quot;:0,&quot;index&quot;:null}" fill="url(#color-4)" fill-rule="nonzero" stroke="#000000" stroke-width="1" stroke-linecap="butt"/><path d="M213.01989,136.24397c0,-1.37855 13.2329,-7.1115 14.6115,-7.1115l22.7626,1.73077c1.37855,0 29.323,24.1945 29.323,25.573c0,0 2.49005,21.4095 0.57656,27.6625c-1.5799,5.16288 -11.2496,7.21545 -11.2496,7.21545c0,0.66202 -0.26298,1.29692 -0.73109,1.76503c-0.46812,0.46812 -1.39147,2.17342 -2.05349,2.17342l-43.2433,-3.75c-1.37858,0 -4.51535,-8.61754 -4.51535,-9.99612l-2.30769,-0.28846c0,0 0.83302,-11.4333 -0.82407,-21.454c-0.51372,-3.1065 -2.66206,-4.52895 -3.78745,-6.97437c-1.00211,-2.17753 -1.01389,-5.46488 -1.11176,-6.85206c-0.2779,-3.93892 2.55021,-9.69373 2.55021,-9.69373z" data-paper-data="{&quot;index&quot;:null}" fill="#cd001f" fill-rule="evenodd" stroke="#000000" stroke-width="1" stroke-linecap="square"/><path d="M232.51689,112.39067v-25.6173" data-paper-data="{&quot;index&quot;:null}" fill="none" fill-rule="nonzero" stroke="#000000" stroke-width="5.5" stroke-linecap="round"/><g fill-rule="nonzero" stroke="#000000" stroke-width="1" stroke-linecap="butt"><path d="M226.82229,133.0147c3.39809,0 6.47679,1.43487 8.70645,3.75283c2.22933,2.31832 3.60969,5.51941 3.60969,9.05225c0,3.53283 -1.38036,6.73395 -3.60969,9.05225c-2.22969,2.31798 -5.30839,3.75284 -8.70645,3.75284c-3.39772,0 -6.4766,-1.43488 -8.70632,-3.75284c-2.22931,-2.31832 -3.60942,-5.51941 -3.60942,-9.05225c0,-3.53283 1.38013,-6.73394 3.60942,-9.05225c2.22966,-2.31797 5.30858,-3.75283 8.70632,-3.75283z" data-paper-data="{&quot;origPos&quot;:null}" fill="#830516"/><path d="M226.70267,136.10344c2.51282,0 4.78943,1.06106 6.43826,2.77514c1.64855,1.71435 2.6693,4.08149 2.6693,6.69395c0,2.61246 -1.02076,4.97959 -2.6693,6.69394c-1.64881,1.71409 -3.92544,2.77515 -6.43826,2.77515c-2.51255,0 -4.78933,-1.06107 -6.43813,-2.77515c-1.64852,-1.71435 -2.66909,-4.08149 -2.66909,-6.69394c0,-2.61246 1.02058,-4.9796 2.66909,-6.69395c1.64879,-1.71409 3.92558,-2.77514 6.43813,-2.77514z" data-paper-data="{&quot;origPos&quot;:null}" fill="#ffffff"/></g><g data-paper-data="{&quot;index&quot;:null}" fill-rule="nonzero" stroke="none" stroke-width="0" stroke-linecap="butt"><path d="M223.86251,139.61065c0.92371,0 1.76075,0.40324 2.36692,1.05465c0.60607,0.65151 0.98127,1.55111 0.98127,2.54394c0,0.99283 -0.3752,1.89243 -0.98127,2.54394c-0.60617,0.65141 -1.4432,1.05465 -2.36691,1.05465c-0.9238,0 -1.76079,-0.40324 -2.36695,-1.05465c-0.60607,-0.65151 -0.98135,-1.55111 -0.98135,-2.54394c0,-0.99283 0.37527,-1.89243 0.98135,-2.54394c0.60618,-0.65141 1.44313,-1.05465 2.36695,-1.05465z" data-paper-data="{&quot;origPos&quot;:null,&quot;index&quot;:null}" fill="#000000"/><path d="M225.60413,141.13337c0.11705,0.13422 0.18951,0.31957 0.18951,0.52411c0,0.20454 -0.07246,0.38989 -0.18951,0.52411c-0.11706,0.1342 -0.27872,0.21729 -0.4571,0.21729c-0.17841,0 -0.34006,-0.08307 -0.45712,-0.21729c-0.11705,-0.13422 -0.18952,-0.31957 -0.18952,-0.52411c0,-0.20454 0.07247,-0.38989 0.18952,-0.52411c0.11706,-0.1342 0.27871,-0.21729 0.45712,-0.21729c0.17838,0 0.34004,0.08307 0.4571,0.21729z" data-paper-data="{&quot;origPos&quot;:null,&quot;index&quot;:null}" fill="#ffffff"/></g><g data-paper-data="{&quot;index&quot;:null}" fill-rule="nonzero" stroke="#000000" stroke-width="1" stroke-linecap="round"><path d="M239.46803,163.44727c0.60112,-0.10846 1.51748,0.08617 1.71122,0.66589c0.51257,1.53829 0.61568,3.36629 0.07162,4.90546c-0.72531,2.11176 -1.77361,4.42885 -3.71422,5.57134c-2.7307,1.60721 -6.17512,2.59936 -9.28556,2.07996c-2.70306,-0.42698 -5.10691,-2.47069 -6.68561,-4.67992c-1.07355,-1.50322 -1.68744,-3.93974 -0.66855,-5.42276c0.821,-1.23966 2.94672,-0.04339 4.38279,-0.07429c1.78431,-0.03833 3.58882,0.01783 5.34848,-0.22285c1.67645,-0.22791 3.39212,-0.60765 5.05134,-1.11427c1.29849,-0.43798 2.39731,-1.47053 3.78851,-1.70854z" fill="#7d191d"/><path d="M224.95274,169.65695c0.21691,0.03595 1.15081,0.11886 1.73826,0.104c2.20566,-0.05616 4.44399,-0.05526 6.61132,-0.37142c1.24352,-0.15689 2.39166,-0.6555 3.56565,-1.03999l1.26284,-0.51998l-0.07429,1.26283c-0.02465,0.42045 -0.09716,0.88013 -0.29713,1.26284c-0.32864,0.62755 -0.79901,1.21707 -1.33712,1.70854c-0.43857,0.45998 -0.95915,0.84358 -1.55997,1.11427c-0.67895,0.30456 -1.4322,0.55416 -2.15425,0.59427c-1.70586,0.0933 -3.51721,0.35984 -5.12562,-0.22285c-1.19805,-0.43412 -1.9724,-1.66516 -2.77824,-2.65939l-0.49028,-1.38169z" fill="#000000"/><path d="M231.44593,169.70152c1.22748,-0.123 2.43029,-0.42193 3.63994,-0.68341c0.54258,-0.11707 1.25392,-0.66499 1.60455,-0.4457c0.28317,0.1771 0.04041,0.88903 -0.19314,1.23312c-0.27872,0.41065 -0.73096,0.69383 -1.18855,0.81714c-1.18469,0.3417 -2.42969,0.46651 -3.63994,0.5497c-1.65387,0.11351 -3.35528,0.41362 -4.97706,0.07429c-0.50246,-0.10578 -0.95649,-0.89766 -0.84685,-1.29255c0.08973,-0.31704 0.80049,-0.12836 1.18855,-0.14857c1.47856,-0.06388 2.9693,0.0416 4.41251,-0.10399z" fill="#ffffff"/><path d="M232.11446,173.84705c-1.14488,0.13282 -2.26597,0.15095 -3.38737,0.02972c-0.60705,-0.06567 -1.26284,-0.27576 -1.81254,-0.59428c-0.24396,-0.14173 -0.58774,-0.4763 -0.44571,-0.71312c0.26891,-0.47839 0.8415,-0.75057 1.36684,-0.89141c1.29285,-0.34646 2.64602,-0.4778 3.98165,-0.5497c1.62831,-0.0731 3.26762,-0.15927 4.87306,0.07428c0.40588,0.06001 0.04486,0.4457 -0.08915,0.59427c-0.48879,0.5405 -1.06792,1.04919 -1.73826,1.33712c-0.85606,0.40946 -1.80927,0.60407 -2.74853,0.71313z" fill="#ffffff"/></g><g fill-rule="nonzero" stroke="#000000" stroke-width="1" stroke-linecap="butt"><path d="M253.25592,137.27561c3.39809,0 6.47678,1.43487 8.70645,3.75283c2.22933,2.31832 3.60969,5.51941 3.60969,9.05225c0,3.53283 -1.38036,6.73395 -3.60969,9.05225c-2.22969,2.31798 -5.30839,3.75284 -8.70645,3.75284c-3.39772,0 -6.4766,-1.43488 -8.70632,-3.75284c-2.22931,-2.31832 -3.60942,-5.51941 -3.60942,-9.05225c0,-3.53283 1.38013,-6.73394 3.60942,-9.05225c2.22966,-2.31797 5.30858,-3.75283 8.70632,-3.75283z" data-paper-data="{&quot;origPos&quot;:null}" fill="#830516"/><path d="M253.13629,140.36435c2.51282,0 4.78943,1.06106 6.43826,2.77514c1.64855,1.71435 2.66929,4.08149 2.66929,6.69395c0,2.61246 -1.02075,4.97959 -2.66929,6.69394c-1.64881,1.71409 -3.92544,2.77515 -6.43826,2.77515c-2.51255,0 -4.78933,-1.06107 -6.43813,-2.77515c-1.64852,-1.71435 -2.66909,-4.08149 -2.66909,-6.69394c0,-2.61246 1.02058,-4.9796 2.66909,-6.69395c1.64879,-1.71409 3.92558,-2.77514 6.43813,-2.77514z" data-paper-data="{&quot;origPos&quot;:null}" fill="#ffffff"/></g><g data-paper-data="{&quot;index&quot;:null}" fill-rule="nonzero" stroke="none" stroke-width="0" stroke-linecap="butt"><path d="M254.54591,148.86041c0.92371,0 1.76076,0.40324 2.36692,1.05465c0.60607,0.65151 0.98126,1.55111 0.98126,2.54394c0,0.99283 -0.37519,1.89243 -0.98126,2.54394c-0.60616,0.65141 -1.4432,1.05465 -2.36691,1.05465c-0.9238,0 -1.76079,-0.40323 -2.36696,-1.05465c-0.60607,-0.65151 -0.98134,-1.55111 -0.98134,-2.54394c0,-0.99283 0.37526,-1.89243 0.98134,-2.54394c0.60618,-0.65141 1.44314,-1.05465 2.36696,-1.05465z" data-paper-data="{&quot;origPos&quot;:null,&quot;index&quot;:null}" fill="#000000"/><path d="M256.28752,150.38314c0.11705,0.13422 0.18951,0.31957 0.18951,0.52411c0,0.20454 -0.07246,0.38989 -0.18951,0.52411c-0.11706,0.1342 -0.27871,0.21729 -0.4571,0.21729c-0.17841,0 -0.34005,-0.08307 -0.45711,-0.21729c-0.11705,-0.13422 -0.18952,-0.31957 -0.18952,-0.52411c0,-0.20454 0.07247,-0.38989 0.18952,-0.52411c0.11706,-0.1342 0.2787,-0.21729 0.45711,-0.21729c0.17839,0 0.34004,0.08307 0.4571,0.21729z" data-paper-data="{&quot;origPos&quot;:null,&quot;index&quot;:null}" fill="#ffffff"/></g></g></g></svg>