<svg version="1.1" xmlns="http://www.w3.org/2000/svg" xmlns:xlink="http://www.w3.org/1999/xlink" width="461.8251" height="339.00624" viewBox="0,0,461.8251,339.00624"><defs><linearGradient x1="431.18423" y1="266.58277" x2="431.18423" y2="273.58277" gradientUnits="userSpaceOnUse" id="color-1"><stop offset="0" stop-color="#ffffff" stop-opacity="0"/><stop offset="1" stop-color="#ffffff"/></linearGradient><linearGradient x1="430.93423" y1="273.08277" x2="430.93423" y2="276.58277" gradientUnits="userSpaceOnUse" id="color-2"><stop offset="0" stop-color="#ffffff"/><stop offset="1" stop-color="#ffffff" stop-opacity="0"/></linearGradient><linearGradient x1="394.01757" y1="304.83277" x2="398.8509" y2="304.83277" gradientUnits="userSpaceOnUse" id="color-3"><stop offset="0" stop-color="#5f5f5f"/><stop offset="1" stop-color="#5f5f5f" stop-opacity="0"/></linearGradient><linearGradient x1="462.76757" y1="305.33278" x2="468.43424" y2="305.33278" gradientUnits="userSpaceOnUse" id="color-4"><stop offset="0" stop-color="#383838" stop-opacity="0"/><stop offset="1" stop-color="#383838"/></linearGradient><linearGradient x1="431.1009" y1="338.29752" x2="431.1009" y2="342.6661" gradientUnits="userSpaceOnUse" id="color-5"><stop offset="0" stop-color="#5f5f5f" stop-opacity="0"/><stop offset="1" stop-color="#5f5f5f"/></linearGradient></defs><g transform="translate(-6.85913,-16.20541)"><g data-paper-data="{&quot;isPaintingLayer&quot;:true}" fill-rule="nonzero" stroke-linejoin="miter" stroke-miterlimit="10" stroke-dasharray="" stroke-dashoffset="0" style="mix-blend-mode: normal"><path d="M13.6281,19.4657c0.14207,-0.60595 0.44521,-1.29476 0.93192,-1.55328c0.77253,-0.40386 1.5864,-0.39181 2.5888,-0.41416c3.72209,-0.11477 7.4326,0.09482 11.1837,0.10352c9.58601,0.02283 19.1415,-0.10727 28.7876,-0.10352c4.62128,0.0016 9.26835,-0.10152 13.876,0.20712c1.15772,0.0795 1.69822,0.27911 2.17464,0.93192c0.66598,0.985 0.81762,2.28973 0.93192,3.5208c0.21789,2.4749 -0.02778,3.86999 0,7.45575c0.10855,14.3449 0.14,28.5867 0.20712,43.0778c0.0166,3.62264 0.04142,2.07104 -0.10352,3.10656c-0.08285,0.47634 -0.18397,1.08149 -0.57994,1.38758c-0.70708,0.54099 -1.18836,0.85123 -2.63022,0.89057c-5.66965,0.31894 -11.3965,0.07535 -17.0861,0.10352c-8.94526,0.0439 -17.7853,0.15117 -26.6129,0.1036c-4.13258,-0.02115 -8.2962,-0.0427 -12.302,-0.31072c-1.00192,-0.06704 -1.01477,-0.22779 -1.38758,-0.57986c-0.35206,-0.37282 -0.49701,-0.91125 -0.57986,-1.38758c-0.14502,-1.03552 -0.1301,0.97917 -0.1036,-3.10664c0.10607,-16.3439 0.26347,-32.8778 0.49709,-49.2908c0.05834,-4.1032 -0.03975,-2.80462 0.20712,-4.14215z" data-paper-data="{&quot;origPos&quot;:null}" fill="#8f8f8f" stroke="#000000" stroke-width="1.25" stroke-linecap="round"/><path d="M172.46,47.25304c0.14207,-0.31973 0.44521,-0.68318 0.93192,-0.8196c0.77253,-0.2131 1.5864,-0.20674 2.5888,-0.21853c3.72209,-0.06056 7.4326,0.05004 11.1837,0.05463c9.58601,0.01204 19.1415,-0.0566 28.7876,-0.05463c4.62128,0.00084 9.26835,-0.05357 13.876,0.10929c1.15772,0.04194 1.69822,0.14727 2.17464,0.49173c0.66598,0.51974 0.81762,1.20819 0.93192,1.85777c0.21789,1.3059 -0.02778,2.04202 0,3.93407c0.10855,7.56917 0.14,15.0839 0.20712,22.7302c0.0166,1.91151 0.04142,1.09279 -0.10352,1.63919c-0.08285,0.25135 -0.18397,0.57065 -0.57994,0.73217c-0.70708,0.28545 -1.18836,0.44915 -2.63022,0.46991c-5.66965,0.16829 -11.3965,0.03976 -17.0861,0.05463c-8.94526,0.02316 -17.7853,0.07977 -26.6129,0.05467c-4.13258,-0.01116 -8.2962,-0.02253 -12.302,-0.16396c-1.00192,-0.03537 -1.01477,-0.12019 -1.38758,-0.30596c-0.35206,-0.19672 -0.49701,-0.48082 -0.57986,-0.73217c-0.14502,-0.5464 -0.1301,0.51666 -0.1036,-1.63924c0.10607,-8.62392 0.26347,-17.3482 0.49709,-26.0086c0.05834,-2.16508 -0.03975,-1.47987 0.20712,-2.18564z" data-paper-data="{&quot;origPos&quot;:null}" fill="#8f8f8f" stroke="#000000" stroke-width="1.25" stroke-linecap="round"/><path d="M251.943,46.48154c0.07683,-0.32769 0.24076,-0.70018 0.50396,-0.83997c0.41777,-0.2184 0.85789,-0.21188 1.39996,-0.22396c2.01282,-0.06206 4.01938,0.05127 6.04786,0.05597c5.18389,0.01235 10.3513,-0.058 15.5677,-0.05597c2.49908,0.00086 5.0121,-0.0549 7.5038,0.112c0.62607,0.04299 0.91836,0.15094 1.17599,0.50396c0.36015,0.53266 0.44215,1.23822 0.50396,1.90396c0.11783,1.33837 -0.01502,2.0928 0,4.0319c0.0587,7.75738 0.0757,15.459 0.112,23.2954c0.00898,1.95904 0.0224,1.11996 -0.05598,1.67995c-0.0448,0.25759 -0.09949,0.58484 -0.31362,0.75036c-0.38238,0.29255 -0.64264,0.46032 -1.42236,0.4816c-3.06602,0.17247 -6.16297,0.04075 -9.23977,0.05598c-4.83738,0.02374 -9.61786,0.08175 -14.3917,0.05602c-2.2348,-0.01144 -4.48639,-0.02309 -6.65264,-0.16803c-0.54181,-0.03625 -0.54877,-0.12319 -0.75037,-0.31357c-0.19039,-0.20161 -0.26877,-0.49279 -0.31358,-0.75037c-0.07843,-0.55999 -0.07035,0.52952 -0.05602,-1.67999c0.05736,-8.83838 0.14248,-17.7796 0.26881,-26.6553c0.03155,-2.21891 -0.02149,-1.51667 0.112,-2.23998z" data-paper-data="{&quot;origPos&quot;:null}" fill="#8f8f8f" stroke="#000000" stroke-width="1.25" stroke-linecap="round"/><path d="M54.9913,95.16603c4.56787,0.00164 9.16147,-0.10109 13.7165,0.20632c1.14416,0.07922 1.67853,0.27812 2.14918,0.92842c0.65831,0.98128 0.80857,2.28107 0.92141,3.50743c0.21515,2.46553 -0.02748,3.8553 0,7.4275c0.10699,14.2904 0.13856,28.478 0.20463,42.9142c0.01637,3.60905 0.04093,2.06323 -0.10231,3.09455c-0.08185,0.47474 -0.18183,1.07751 -0.57296,1.3827c-0.69924,0.53905 -1.17515,0.84775 -2.59994,0.88691c-5.60445,0.31805 -11.2656,0.07542 -16.8899,0.10348c-8.84237,0.04385 -17.5807,0.15025 -26.3068,0.1029c-4.08506,-0.02105 -8.20082,-0.04268 -12.1605,-0.30928c-0.99046,-0.06724 -1.00315,-0.22684 -1.37164,-0.57764c-0.34804,-0.37125 -0.49134,-0.90796 -0.57325,-1.3827c-0.1433,-1.03132 -0.12857,0.97578 -0.10231,-3.09455c0,0 0.86275,-27.5495 7.97778,-37.1662c9.74596,-13.1726 26.1749,-18.0277 35.7102,-18.024z" data-paper-data="{&quot;origPos&quot;:null}" fill="#8f8f8f" stroke="#000000" stroke-width="1.25" stroke-linecap="round"/><path d="M119.002,86.57201l29.7485,69.1306l-61.4372,0.19759z" data-paper-data="{&quot;origPos&quot;:null}" fill="#8f8f8f" stroke="#000000" stroke-width="1.25" stroke-linecap="round"/><path d="M228.154,126.96704c0,16.7506 -12.84347,30.3297 -30.3297,30.3297c-17.48623,0 -30.3297,-13.5791 -30.3297,-30.3297c0,-16.7506 13.5791,-30.3297 30.3297,-30.3297c16.7506,0 30.3297,13.5791 30.3297,30.3297z" data-paper-data="{&quot;origPos&quot;:null}" fill="#8f8f8f" stroke="#000000" stroke-width="1.25" stroke-linecap="butt"/><path d="M301.15398,125.96705c0,9.53744 -0.23493,30.88012 -0.23493,30.88012l-60.59477,-1.55042c0,0 0.1703,-12.5791 0.1703,-29.3297c0,-16.7506 13.5791,-30.3297 30.3297,-30.3297c16.7506,0 30.3297,13.5791 30.3297,30.3297z" data-paper-data="{&quot;origPos&quot;:null}" fill="#8f8f8f" stroke="#000000" stroke-width="1.25" stroke-linecap="butt"/><g data-paper-data="{&quot;origPos&quot;:null}" stroke="#000000" stroke-width="1.25" stroke-linecap="round"><path d="M106.35356,179.51647c-0.34034,-0.1599 -0.62944,-0.37311 -0.4805,-0.53593c0.24109,-0.25707 0.81163,-0.4352 1.48744,-0.66249c2.48637,-0.85068 5.19942,-1.63008 7.79514,-2.46105c6.63386,-2.12342 13.13601,-4.27247 19.79755,-6.41328c3.19128,-1.02567 6.32461,-2.07923 9.72863,-3.03683c0.85671,-0.24019 1.37424,-0.31791 2.17544,-0.2854c1.17239,0.0608 2.22106,0.30351 3.19065,0.53891c1.94103,0.47589 2.7808,0.82594 5.39432,1.57935c10.45363,3.01458 20.77944,6.02444 31.31025,9.07919c2.63248,0.7637 1.52702,0.42951 2.17617,0.68105c0.28744,0.11929 0.65548,0.26994 0.60359,0.42269c-0.0967,0.27158 -0.20447,0.44416 -1.17133,0.7726c-3.68307,1.32632 -7.81264,2.54618 -11.71986,3.81534c-6.14326,1.99531 -12.16804,3.98067 -18.29626,5.93047c-2.86807,0.91303 -5.75787,1.83285 -8.71704,2.66544c-0.74014,0.20824 -0.86532,0.17705 -1.3774,0.18524c-0.51277,-0.00081 -1.00239,-0.08269 -1.40421,-0.1652c-0.84932,-0.18716 0.61863,0.23631 -2.31921,-0.63507c-11.75177,-3.48568 -23.60558,-7.02301 -35.3193,-10.55164c-2.92844,-0.88214 -2.05661,-0.58527 -2.85392,-0.92342z" data-paper-data="{&quot;origPos&quot;:null,&quot;origRot&quot;:0}" fill="#c0c0c0"/><path d="M105.12741,180.41163c0.10514,-0.54498 0.32706,-1.13685 0.67995,-1.2862c0.5601,-0.23093 1.14841,-0.06068 1.87315,0.11384c2.69121,0.61801 5.37274,1.54033 8.08442,2.2807c6.92976,1.8926 13.83808,3.63468 20.81136,5.52098c3.34078,0.9035 6.70062,1.71306 10.03031,2.9041c0.83661,0.30111 1.22654,0.59527 1.56833,1.30526c0.47748,1.06097 0.58185,2.32373 0.65952,3.50959c0.14756,2.38169 -0.03566,3.65231 -0.03001,7.04683c0.02073,13.57933 -0.01386,27.04616 -0.02366,40.75558c-0.00258,3.42719 0.02161,1.96553 -0.08734,2.91597c-0.06181,0.43405 -0.13735,0.98627 -0.42483,1.19828c-0.51333,0.37331 -0.86251,0.5726 -1.90501,0.32835c-4.09995,-0.80516 -8.23898,-2.15317 -12.35218,-3.23705c-6.46683,-1.70446 -12.85783,-3.32849 -19.23923,-5.09643c-2.98741,-0.82659 -5.99726,-1.65963 -8.89203,-2.69481c-0.72403,-0.25892 -0.73268,-0.41336 -1.00077,-0.81889c-0.25301,-0.42109 -0.35563,-0.95828 -0.4136,-1.42465c-0.10067,-1.00703 -0.09799,0.90008 -0.06239,-2.95648c0.14246,-15.4268 0.3228,-31.02317 0.55775,-46.49038c0.05869,-3.86677 -0.01745,-2.65856 0.1664,-3.87455z" data-paper-data="{&quot;origPos&quot;:null,&quot;origRot&quot;:0}" fill="#8f8f8f"/><path d="M190.0179,180.4117c0.17422,1.21599 0.10207,0.00778 0.15768,3.87455c0.22264,15.46722 0.39352,31.06358 0.52851,46.49038c0.03374,3.85655 0.03627,1.94944 -0.05912,2.95647c-0.05494,0.46638 -0.15217,1.00356 -0.39192,1.42466c-0.25404,0.40553 -0.26223,0.55997 -0.94831,0.81889c-2.74302,1.03518 -5.59509,1.86821 -8.4259,2.69481c-6.04688,1.76795 -12.10287,3.39198 -18.23069,5.09644c-3.89758,1.08388 -7.81965,2.43189 -11.70467,3.23705c-0.98785,0.24424 -1.31871,0.04496 -1.80514,-0.32835c-0.27242,-0.21201 -0.34399,-0.76424 -0.40256,-1.19828c-0.10323,-0.95044 -0.08032,0.51122 -0.08276,-2.91597c-0.00929,-13.70943 -0.04207,-27.17625 -0.02242,-40.75559c0.00535,-3.39452 -0.16826,-4.66514 -0.02844,-7.04683c0.0736,-1.18586 0.1725,-2.44862 0.62495,-3.50959c0.32387,-0.70999 0.69335,-1.00416 1.48611,-1.30526c3.15515,-1.19104 6.33886,-2.0006 9.50451,-2.9041c6.60773,-1.88629 13.1539,-3.62838 19.72039,-5.52098c2.56953,-0.74037 5.1105,-1.66269 7.66064,-2.2807c0.68674,-0.17452 1.24421,-0.34477 1.77495,-0.11384c0.33439,0.14935 0.54468,0.74121 0.64431,1.2862z" data-paper-data="{&quot;origPos&quot;:null,&quot;origRot&quot;:0,&quot;index&quot;:null}" fill="#5f5f5f"/></g><g data-paper-data="{&quot;origPos&quot;:null}" stroke="#000000" stroke-width="1.25" stroke-linecap="round"><path d="M211.454,173.21765c0.07091,-0.59057 0.21522,-1.24755 0.43701,-1.45688c0.35195,-0.3257 0.71766,-0.23236 1.16848,-0.15449c1.67441,0.25759 3.33981,0.83766 5.02583,1.2213c4.3086,0.98096 8.60525,1.80645 12.94108,2.77442c2.07724,0.4636 4.16726,0.82526 6.23481,1.59376c0.51946,0.19509 0.76008,0.44837 0.96659,1.14734c0.28792,1.04951 0.34085,2.36663 0.37788,3.60645c0.06909,2.49143 -0.05758,3.85893 -0.08693,7.43991c-0.11846,14.32511 -0.27035,28.53963 -0.40913,43.00653c-0.03478,3.61662 -0.00553,2.07078 -0.08279,3.08957c-0.04278,0.46706 -0.09526,1.06083 -0.27683,1.3267c-0.32413,0.46914 -0.54408,0.73063 -1.19265,0.62569c-2.55224,-0.24845 -5.12359,-1.06397 -7.68138,-1.60462c-4.02136,-0.85043 -7.99618,-1.6271 -11.96363,-2.55704c-1.8573,-0.43419 -3.72859,-0.87192 -5.52607,-1.5398c-0.44961,-0.16709 -0.4535,-0.32872 -0.61694,-0.71736c-0.15393,-0.40714 -0.2128,-0.95901 -0.24451,-1.44257c-0.05307,-1.04785 -0.06986,0.96408 -0.01031,-3.11034c0.23822,-16.2984 0.50173,-32.78139 0.79809,-49.13605c0.0741,-4.08853 0.0148,-2.80259 0.14139,-4.1125z" data-paper-data="{&quot;origPos&quot;:null,&quot;origRot&quot;:0}" fill="#5f5f5f"/><path d="M237.43572,178.91492c0.14022,-0.60973 0.42972,-1.30641 0.88073,-1.57775c0.71574,-0.42412 1.46275,-0.43359 2.38331,-0.48242c3.41887,-0.21292 6.82179,-0.10124 10.26531,-0.19153c8.79986,-0.23017 17.57415,-0.61226 26.42948,-0.86305c4.24248,-0.12029 8.51025,-0.34598 12.73526,-0.15904c1.06153,0.04898 1.55448,0.23437 1.98119,0.87447c0.59552,0.96733 0.71352,2.26792 0.7985,3.49578c0.1599,2.46888 -0.08822,3.87022 -0.12092,7.45492c-0.13303,14.34026 -0.3351,28.57946 -0.50852,43.06703c-0.04354,3.62182 0.00442,2.06972 -0.14549,3.10891c-0.08376,0.47848 -0.18635,1.08624 -0.55484,1.40275c-0.65789,0.55957 -1.10474,0.88249 -2.42905,0.95981c-5.21015,0.46855 -10.46361,0.37612 -15.68731,0.5544c-8.21271,0.27988 -16.32988,0.62035 -24.43318,0.80568c-3.79343,0.08791 -7.61543,0.1762 -11.28855,0.01391c-0.91878,-0.04063 -0.92794,-0.20096 -1.26442,-0.54321c-0.31722,-0.3634 -0.44153,-0.89804 -0.50991,-1.37208c-0.11626,-1.03162 -0.13524,0.98248 -0.04465,-3.10351c0.36244,-16.34469 0.77508,-32.88083 1.25574,-49.29803c0.12018,-4.10417 0.00893,-2.80321 0.25732,-4.147z" data-paper-data="{&quot;origPos&quot;:null,&quot;origRot&quot;:0}" fill="#8f8f8f"/><path d="M214.13106,171.37021c-0.05818,-0.06629 0.01824,-0.14659 0.42185,-0.18978c0.6428,-0.06788 1.46511,-0.09514 2.46548,-0.13247c3.70423,-0.14182 7.5043,-0.25041 11.27865,-0.38076c9.64548,-0.33305 19.20958,-0.68048 28.90915,-1.01755c4.64689,-0.1615 9.2849,-0.3345 14.01989,-0.46447c1.19036,-0.03245 1.8,-0.03116 2.49539,0.01823c0.99636,0.07637 1.58146,0.20309 2.10462,0.32365c1.03982,0.24281 1.25549,0.39256 2.47253,0.75443c4.86621,1.44771 9.62078,2.88767 14.49385,4.35163c1.21804,0.36599 -0.10928,0.60636 -1.54592,0.66077c-5.59465,0.23062 -11.43328,0.40632 -17.1444,0.60821c-8.97915,0.31737 -17.83153,0.63748 -26.72281,0.94148c-4.16191,0.14243 -8.35526,0.28591 -12.47167,0.39892c-1.02967,0.02827 -1.09584,0.01246 -1.58739,-0.01014c-0.47764,-0.0254 -0.80194,-0.07482 -1.04324,-0.12011c-0.48914,-0.09972 0.19399,0.10363 -1.13431,-0.31073c-5.31338,-1.65749 -10.63822,-3.336 -15.8463,-5.00495c-1.30196,-0.41722 -0.97011,-0.28239 -1.16536,-0.42636z" data-paper-data="{&quot;origPos&quot;:null,&quot;origRot&quot;:0}" fill="#c0c0c0"/></g><g data-paper-data="{&quot;origPos&quot;:null}" stroke="#000000" stroke-width="1.25" stroke-linecap="round"><path d="M8.12899,168.7297c0.15397,-0.65674 0.48257,-1.40326 1.01002,-1.68337c0.8372,-0.43768 1.71928,-0.42466 2.80561,-0.4489c4.0338,-0.12434 8.05503,0.1028 12.12025,0.11222c10.38885,0.02469 20.74449,-0.11626 31.19843,-0.11222c5.00836,0.0018 10.04455,-0.10998 15.03809,0.22445c1.25467,0.08619 1.84048,0.30256 2.35672,1.01002c0.72183,1.06748 0.88613,2.48151 1.01002,3.81564c0.23612,2.68217 -0.03008,4.19406 0,8.08017c0.11761,15.54625 0.15173,30.98072 0.22445,46.68542c0.01796,3.92606 0.04489,2.24449 -0.11222,3.36674c-0.08978,0.51623 -0.19931,1.17207 -0.62846,1.50381c-0.76627,0.58626 -1.28789,0.92249 -2.8505,0.96513c-6.14452,0.34565 -12.35099,0.0817 -18.51705,0.11222c-9.69441,0.04758 -19.27479,0.16385 -28.84171,0.11222c-4.47866,-0.02289 -8.99098,-0.04624 -13.33228,-0.33667c-1.08588,-0.07272 -1.0998,-0.24689 -1.50381,-0.62846c-0.38156,-0.40401 -0.53868,-0.98758 -0.62846,-1.50381c-0.15711,-1.12225 -0.14095,1.0612 -0.11222,-3.36674c0.11492,-17.71263 0.2855,-35.6313 0.53868,-53.4189c0.06329,-4.44679 -0.04309,-3.03949 0.22445,-4.48898z" fill="#5f5f5f"/><path d="M24.91361,168.86437c0.13552,-0.65674 0.42479,-1.40326 0.88909,-1.68337c0.73691,-0.43768 1.51337,-0.42466 2.46961,-0.4489c3.5507,-0.12434 7.09035,0.1028 10.6687,0.11222c9.14469,0.02469 18.26015,-0.11626 27.46212,-0.11222c4.40854,0.0018 8.84159,-0.10998 13.23711,0.22445c1.10442,0.08619 1.62007,0.30256 2.07449,1.01002c0.63537,1.06748 0.78001,2.48151 0.88904,3.81564c0.20784,2.68217 -0.02648,4.19406 0,8.08017c0.10352,15.54625 0.13355,30.98072 0.19756,46.68542c0.0158,3.92606 0.0395,2.24449 -0.09876,3.36674c-0.07905,0.51623 -0.17547,1.17207 -0.55322,1.50381c-0.67447,0.58626 -1.13365,0.92249 -2.50912,0.96513c-5.40864,0.34565 -10.87182,0.0817 -16.29945,0.11222c-8.53338,0.04758 -16.96642,0.16385 -25.38762,0.11222c-3.94227,-0.02289 -7.91421,-0.04624 -11.73559,-0.33667c-0.95584,-0.07272 -0.96809,-0.24689 -1.32371,-0.62846c-0.33587,-0.40401 -0.47417,-0.98758 -0.55318,-1.50381c-0.13831,-1.12225 -0.12408,1.0612 -0.0988,-3.36674c0.10118,-17.71263 0.25129,-35.6313 0.47417,-53.4189c0.05571,-4.44679 -0.03793,-3.03949 0.19756,-4.48898z" fill="#8f8f8f"/></g><path d="M394.46,168.18724c0.14207,-0.29981 0.44521,-0.64061 0.93192,-0.76853c0.77253,-0.19982 1.5864,-0.19386 2.5888,-0.20491c3.72209,-0.05678 7.4326,0.04692 11.1837,0.05122c9.58601,0.01129 19.1415,-0.05307 28.7876,-0.05122c4.62128,0.00079 9.26835,-0.05023 13.876,0.10248c1.15772,0.03932 1.69822,0.1381 2.17464,0.46109c0.66598,0.48736 0.81762,1.13291 0.93192,1.74202c0.21789,1.22453 -0.02778,1.91478 0,3.68894c0.10855,7.09754 0.14,14.14404 0.20712,21.3139c0.0166,1.79241 0.04142,1.0247 -0.10352,1.53706c-0.08285,0.23569 -0.18397,0.53509 -0.57994,0.68654c-0.70708,0.26766 -1.18836,0.42117 -2.63022,0.44063c-5.66965,0.1578 -11.3965,0.03728 -17.0861,0.05123c-8.94526,0.02172 -17.7853,0.07479 -26.6129,0.05126c-4.13258,-0.01047 -8.2962,-0.02112 -12.302,-0.15374c-1.00192,-0.03316 -1.01477,-0.11271 -1.38758,-0.2869c-0.35206,-0.18446 -0.49701,-0.45085 -0.57986,-0.68654c-0.14502,-0.51236 -0.1301,0.48447 -0.1036,-1.5371c0.10607,-8.08657 0.26347,-16.26725 0.49709,-24.38803c0.05834,-2.03018 -0.03975,-1.38765 0.20712,-2.04945z" data-paper-data="{&quot;origPos&quot;:null}" fill="#23b0dc" stroke="#f0f0f0" stroke-width="1.25" stroke-linecap="round"/><g data-paper-data="{&quot;origPos&quot;:null}" stroke-width="1.25" stroke-linecap="round"><path d="M394.943,206.48154c0.07683,-0.32769 0.24076,-0.70018 0.50396,-0.83997c0.41777,-0.2184 0.85789,-0.21188 1.39996,-0.22396c2.01282,-0.06206 4.01938,0.05127 6.04786,0.05597c5.18389,0.01235 10.3513,-0.058 15.5677,-0.05597c2.49908,0.00086 5.0121,-0.0549 7.5038,0.112c0.62607,0.04299 0.91836,0.15094 1.17599,0.50396c0.36015,0.53266 0.44215,1.23822 0.50396,1.90396c0.11783,1.33837 -0.01502,2.0928 0,4.0319c0.0587,7.75738 0.0757,15.459 0.112,23.2954c0.00898,1.95904 0.0224,1.11996 -0.05598,1.67995c-0.0448,0.25759 -0.09949,0.58484 -0.31362,0.75036c-0.38238,0.29255 -0.64264,0.46032 -1.42236,0.4816c-3.06602,0.17247 -6.16297,0.04075 -9.23977,0.05598c-4.83738,0.02374 -9.61786,0.08175 -14.3917,0.05602c-2.2348,-0.01144 -4.48639,-0.02309 -6.65264,-0.16803c-0.54181,-0.03625 -0.54877,-0.12319 -0.75037,-0.31357c-0.19039,-0.20161 -0.26877,-0.49279 -0.31358,-0.75037c-0.07843,-0.55999 -0.07035,0.52952 -0.05602,-1.67999c0.05736,-8.83838 0.14248,-17.7796 0.26881,-26.6553c0.03155,-2.21891 -0.02149,-1.51667 0.112,-2.23998z" data-paper-data="{&quot;origPos&quot;:null}" fill="#e89223" stroke="#f0f0f0"/><path d="M397.5463,208.98368c0.06435,-0.27788 0.20166,-0.59376 0.42211,-0.7123c0.34992,-0.1852 0.71856,-0.17967 1.17259,-0.18991c1.6859,-0.05263 3.36657,0.04347 5.06559,0.04745c4.34195,0.01047 8.67008,-0.04917 13.03926,-0.04745c2.09319,0.00073 4.19805,-0.04657 6.28506,0.09497c0.52438,0.03646 0.76921,0.128 0.98499,0.42737c0.30165,0.4517 0.37034,1.05001 0.42211,1.61457c0.0987,1.13495 -0.01258,1.77471 0,3.41908c0.04917,6.57831 0.06341,13.10933 0.09381,19.75464c0.00752,1.66128 0.01876,0.94974 -0.04689,1.42461c-0.03753,0.21843 -0.08333,0.49595 -0.26268,0.63631c-0.32027,0.24808 -0.53827,0.39035 -1.19135,0.4084c-2.56805,0.14625 -5.162,0.03456 -7.73908,0.04747c-4.05171,0.02013 -8.05577,0.06932 -12.05426,0.04751c-1.87183,-0.0097 -3.75773,-0.01958 -5.57215,-0.14249c-0.45381,-0.03074 -0.45964,-0.10447 -0.6285,-0.26591c-0.15947,-0.17097 -0.22512,-0.41789 -0.26265,-0.63632c-0.06569,-0.47487 -0.05892,0.44903 -0.04692,-1.42464c0.04805,-7.495 0.11934,-15.07721 0.22515,-22.60386c0.02643,-1.88165 -0.018,-1.28615 0.09381,-1.89952z" data-paper-data="{&quot;origPos&quot;:null}" fill="#23b0dc" stroke="none"/></g><g data-paper-data="{&quot;origPos&quot;:null}" stroke-width="1.25" stroke-linecap="round"><path d="M395.93125,245.84535c0.07452,-0.13511 0.23351,-0.28868 0.48879,-0.34632c0.40519,-0.09004 0.83206,-0.08736 1.35781,-0.09233c1.95222,-0.02558 3.89836,0.02114 5.86576,0.02308c5.02781,0.00509 10.03963,-0.02391 15.09897,-0.02308c2.42383,0.00036 4.86119,-0.02263 7.27786,0.04618c0.60722,0.01772 0.89071,0.06223 1.14058,0.20778c0.34931,0.21961 0.42883,0.51051 0.48879,0.78499c0.11428,0.5518 -0.01457,0.86284 0,1.66231c0.05694,3.1983 0.07342,6.37361 0.10863,9.60449c0.00871,0.8077 0.02173,0.46175 -0.05429,0.69263c-0.04345,0.1062 -0.0965,0.24113 -0.30418,0.30937c-0.37086,0.12061 -0.62329,0.18978 -1.37953,0.19856c-2.9737,0.07111 -5.97741,0.0168 -8.96157,0.02308c-4.69173,0.00979 -9.32827,0.0337 -13.95837,0.0231c-2.16751,-0.00471 -4.35131,-0.00952 -6.45233,-0.06928c-0.52549,-0.01495 -0.53225,-0.05079 -0.72778,-0.12928c-0.18466,-0.08312 -0.26068,-0.20317 -0.30414,-0.30937c-0.07607,-0.23088 -0.06823,0.21831 -0.05433,-0.69265c0.05563,-3.64398 0.13819,-7.33037 0.26072,-10.98974c0.0306,-0.91483 -0.02084,-0.62531 0.10863,-0.92353z" data-paper-data="{&quot;origPos&quot;:null}" fill="#df141d" stroke="#f0f0f0"/><path d="M399.03223,248.28328c0.33938,-0.07635 0.69693,-0.07408 1.13729,-0.0783c1.63514,-0.0217 3.2652,0.01792 4.91306,0.01956c4.21121,0.00432 8.40904,-0.02027 12.64666,-0.01956c2.03017,0.0003 4.07165,-0.0192 6.09582,0.03915c0.50859,0.01503 1.31452,0.60911 1.36473,0.84188c0.09573,0.46793 -0.0122,1.7317 0,2.40965c0.04769,2.71218 0.0615,1.20486 0.09099,3.94466c0.00729,0.68493 0.01819,0.39157 -0.04548,0.58735c-0.0364,0.09006 -0.08082,0.20448 -0.25477,0.26234c-0.31063,0.10228 -0.52206,0.16094 -1.15548,0.16838c-2.49073,0.0603 -5.00657,0.01425 -7.50606,0.01958c-3.92971,0.0083 -7.81322,0.02857 -11.69132,0.01959c-1.81547,-0.004 -3.64459,-0.00807 -5.40438,-0.05875c-0.44014,-0.01268 -0.4458,-0.04307 -0.60958,-0.10963c-0.15467,-0.07049 -0.21834,-0.1723 -0.25474,-0.26235c-0.06371,-0.19579 -0.05715,0.18514 -0.04551,-0.58736c0.0466,-3.09012 0.11575,-3.0162 0.21838,-6.11937c0.02564,-0.77579 -0.01746,-0.53027 0.09098,-0.78316c0,0 0.1956,-0.24478 0.40941,-0.29366z" data-paper-data="{&quot;origPos&quot;:null}" fill="#23b0dc" stroke="#e89223"/></g><g data-paper-data="{&quot;origPos&quot;:null}" stroke="#000000" stroke-width="1.25" stroke-linecap="round"><path d="M8.12899,247.646c0.15397,-0.32867 0.48257,-0.70227 1.01002,-0.84246c0.8372,-0.21904 1.71928,-0.21252 2.80561,-0.22465c4.0338,-0.06223 8.05503,0.05144 12.12025,0.05616c10.38885,0.01236 20.74449,-0.05818 31.19843,-0.05616c5.00836,0.0009 10.04455,-0.05505 15.03809,0.11232c1.25467,0.04314 1.84048,0.15142 2.35672,0.50547c0.72183,0.53423 0.88613,1.24189 1.01002,1.90957c0.23612,1.34232 -0.03008,2.09895 0,4.04378c0.11761,7.78025 0.15173,15.50456 0.22445,23.36411c0.01796,1.96483 0.04489,1.12327 -0.11222,1.68491c-0.08978,0.25835 -0.19931,0.58657 -0.62846,0.75259c-0.76627,0.2934 -1.28789,0.46167 -2.8505,0.48301c-6.14452,0.17298 -12.35099,0.04089 -18.51705,0.05616c-9.69441,0.02381 -19.27479,0.082 -28.84171,0.05616c-4.47866,-0.01146 -8.99098,-0.02314 -13.33228,-0.16849c-1.08588,-0.0364 -1.0998,-0.12356 -1.50381,-0.31452c-0.38156,-0.20219 -0.53868,-0.49424 -0.62846,-0.75259c-0.15711,-0.56164 -0.14095,0.53109 -0.11222,-1.68491c0.11492,-8.86444 0.2855,-17.83198 0.53868,-26.73393c0.06329,-2.22544 -0.04309,-1.52114 0.22445,-2.24655z" fill="#5f5f5f"/><path d="M24.91361,247.7134c0.13552,-0.32867 0.42479,-0.70227 0.88909,-0.84246c0.73691,-0.21904 1.51337,-0.21252 2.46961,-0.22466c3.5507,-0.06223 7.09035,0.05145 10.6687,0.05616c9.14469,0.01236 18.26015,-0.05818 27.46212,-0.05616c4.40854,0.0009 8.84159,-0.05504 13.23711,0.11233c1.10442,0.04314 1.62007,0.15142 2.07449,0.50547c0.63537,0.53423 0.78001,1.24189 0.88904,1.90957c0.20784,1.34232 -0.02648,2.09895 0,4.04379c0.10352,7.78025 0.13355,15.50455 0.19756,23.3641c0.0158,1.96483 0.0395,1.12328 -0.09876,1.68492c-0.07905,0.25835 -0.17547,0.58657 -0.55322,0.75259c-0.67447,0.2934 -1.13365,0.46166 -2.50912,0.483c-5.40864,0.17298 -10.87182,0.04089 -16.29945,0.05616c-8.53338,0.02381 -16.96642,0.08201 -25.38762,0.05617c-3.94227,-0.01146 -7.91421,-0.02314 -11.73559,-0.16849c-0.95584,-0.0364 -0.96809,-0.12356 -1.32371,-0.31452c-0.33587,-0.20219 -0.47417,-0.49425 -0.55318,-0.7526c-0.13831,-0.56164 -0.12408,0.53109 -0.0988,-1.68491c0.10118,-8.86444 0.25129,-17.83198 0.47417,-26.73393c0.05571,-2.22544 -0.03793,-1.52113 0.19756,-2.24654z" fill="#8f8f8f"/></g><g data-paper-data="{&quot;origPos&quot;:null}" stroke="#000000" stroke-width="1.25" stroke-linecap="round"><path d="M10.76642,295.646c0.08256,-0.32867 0.25876,-0.70227 0.54159,-0.84245c0.44892,-0.21904 0.92191,-0.21253 1.50441,-0.22466c2.16299,-0.06223 4.31925,0.05145 6.49909,0.05616c5.57068,0.01236 11.12355,-0.05818 16.72913,-0.05616c2.68557,0.0009 5.38606,-0.05505 8.06368,0.11232c0.67278,0.04314 0.9869,0.15142 1.26371,0.50548c0.38706,0.53423 0.47516,1.24189 0.54159,1.90957c0.12661,1.34231 -0.01613,2.09895 0,4.04379c0.06307,7.78025 0.08136,15.50456 0.12035,23.36411c0.00963,1.96483 0.02407,1.12327 -0.06018,1.68491c-0.04814,0.25835 -0.10687,0.58657 -0.33699,0.75259c-0.41089,0.2934 -0.69058,0.46167 -1.52848,0.48301c-3.2948,0.17298 -6.62282,0.04089 -9.92916,0.05616c-5.19831,0.02381 -10.33547,0.082 -15.46541,0.05616c-2.40153,-0.01146 -4.82112,-0.02314 -7.149,-0.16849c-0.58226,-0.0364 -0.58974,-0.12356 -0.80637,-0.31452c-0.2046,-0.20219 -0.28885,-0.49424 -0.33699,-0.75259c-0.08424,-0.56164 -0.07558,0.53109 -0.06017,-1.68491c0.06162,-8.86444 0.15309,-17.83198 0.28885,-26.73393c0.03393,-2.22544 -0.0231,-1.52114 0.12035,-2.24655z" fill="#5f5f5f"/><path d="M29.76662,295.7134c0.07267,-0.32867 0.22778,-0.70228 0.47674,-0.84246c0.39514,-0.21904 0.8115,-0.21252 1.32425,-0.22465c1.90395,-0.06223 3.80197,0.05145 5.72074,0.05616c4.90354,0.01236 9.7914,-0.05818 14.72566,-0.05616c2.36393,0.0009 4.74101,-0.05504 7.09796,0.11233c0.59221,0.04314 0.8687,0.15141 1.11238,0.50547c0.34069,0.53423 0.41826,1.24189 0.47672,1.90957c0.11145,1.34231 -0.0142,2.09895 0,4.04379c0.05551,7.78025 0.07161,15.50455 0.10594,23.3641c0.00847,1.96483 0.02118,1.12328 -0.05295,1.68492c-0.04239,0.25835 -0.0941,0.58657 -0.29665,0.75259c-0.36166,0.2934 -0.60788,0.46166 -1.34543,0.483c-2.9002,0.17298 -5.82966,0.04089 -8.74005,0.05616c-4.57574,0.02381 -9.09768,0.08201 -13.61327,0.05617c-2.11391,-0.01146 -4.24374,-0.02314 -6.29282,-0.16849c-0.51254,-0.0364 -0.5191,-0.12356 -0.70979,-0.31452c-0.1801,-0.20219 -0.25426,-0.49425 -0.29663,-0.7526c-0.07417,-0.56164 -0.06653,0.53109 -0.05298,-1.68491c0.05426,-8.86444 0.13475,-17.83198 0.25426,-26.73393c0.02988,-2.22544 -0.02034,-1.52114 0.10594,-2.24655z" data-paper-data="{&quot;origPos&quot;:null}" fill="#8f8f8f"/></g><g data-paper-data="{&quot;origPos&quot;:null}" stroke="#000000" stroke-width="1.25" stroke-linecap="round"><path d="M310.30415,168.64513c0.146,-0.3345 0.45764,-0.71466 0.95793,-0.85735c0.79407,-0.22287 1.6307,-0.21624 2.66103,-0.22858c3.82597,-0.06333 7.63996,0.05236 11.49577,0.05714c9.85347,0.01255 19.67553,-0.0592 29.59076,-0.05714c4.75026,0.00091 9.52694,-0.05599 14.26321,0.11431c1.19002,0.04389 1.74559,0.15408 2.23523,0.51438c0.68468,0.54367 0.8405,1.2638 0.958,1.94322c0.22398,1.36599 -0.0285,2.13594 0,4.11508c0.11155,7.91734 0.14392,15.77777 0.2129,23.77585c0.01704,1.99948 0.04256,1.14307 -0.10649,1.71459c-0.08513,0.26292 -0.18901,0.59691 -0.59605,0.76587c-0.7268,0.29859 -1.2215,0.46982 -2.70359,0.4915c-5.82792,0.17606 -11.71455,0.04165 -17.56293,0.05719c-9.19483,0.02421 -18.28154,0.08342 -27.35553,0.05714c-4.24782,-0.01167 -8.52764,-0.02355 -12.64524,-0.17149c-1.02996,-0.037 -1.04313,-0.12571 -1.42628,-0.32006c-0.36195,-0.20573 -0.51092,-0.50295 -0.59613,-0.76582c-0.14898,-0.57157 -0.13365,0.54044 -0.10641,-1.71464c0.10902,-9.02065 0.27079,-18.14625 0.51092,-27.20508c0.06005,-2.26464 -0.04093,-1.54795 0.2129,-2.28611z" data-paper-data="{&quot;origPos&quot;:null}" fill="#c0c0c0"/><path d="M310.13749,183.67164c0.146,-0.49391 0.45764,-1.05522 0.95793,-1.26591c0.79407,-0.32907 1.6307,-0.31928 2.66103,-0.33752c3.82597,-0.0935 7.63996,0.07731 11.49577,0.08438c9.85347,0.01854 19.67553,-0.0874 29.59076,-0.08438c4.75026,0.00133 9.52694,-0.08269 14.26321,0.16876c1.19002,0.06481 1.74559,0.22754 2.23523,0.7595c0.68468,0.80275 0.8405,1.86605 0.958,2.86927c0.22398,2.01695 -0.0285,3.15383 0,6.07613c0.11155,11.69037 0.14392,23.2967 0.2129,35.10624c0.01704,2.95232 0.04256,1.68782 -0.10649,2.53169c-0.08513,0.3882 -0.18901,0.88138 -0.59605,1.13084c-0.7268,0.44087 -1.2215,0.69372 -2.70359,0.72573c-5.82792,0.25997 -11.71455,0.06149 -17.56293,0.08445c-9.19483,0.03576 -18.28154,0.12316 -27.35553,0.08438c-4.24782,-0.01722 -8.52764,-0.03479 -12.64524,-0.25321c-1.02996,-0.05466 -1.04313,-0.18561 -1.42628,-0.47258c-0.36195,-0.30376 -0.51092,-0.74264 -0.59613,-1.13079c-0.14898,-0.84394 -0.13365,0.79797 -0.10641,-2.53174c0.10902,-13.31946 0.27079,-26.79385 0.51092,-40.16967c0.06005,-3.34384 -0.04093,-2.28561 0.2129,-3.37556z" data-paper-data="{&quot;origPos&quot;:null}" fill="#8f8f8f"/></g><g data-paper-data="{&quot;origPos&quot;:null}" stroke="#000000" stroke-width="1.25" stroke-linecap="round"><path d="M11.76642,337.15341c0.08256,-0.17955 0.25876,-0.38364 0.54159,-0.46022c0.44892,-0.11966 0.92191,-0.1161 1.50441,-0.12273c2.16299,-0.034 4.31925,0.0281 6.49909,0.03068c5.57068,0.00675 11.12355,-0.03178 16.72913,-0.03068c2.68557,0.00049 5.38606,-0.03007 8.06368,0.06136c0.67278,0.02357 0.9869,0.08272 1.26371,0.27614c0.38706,0.29185 0.47516,0.67843 0.54159,1.04317c0.12661,0.73329 -0.01613,1.14663 0,2.20907c0.06307,4.25025 0.08136,8.46994 0.12035,12.76351c0.00963,1.07336 0.02407,0.61363 -0.06018,0.92044c-0.04814,0.14114 -0.10687,0.32044 -0.33699,0.41114c-0.41089,0.16028 -0.69058,0.2522 -1.52848,0.26386c-3.2948,0.0945 -6.62282,0.02233 -9.92916,0.03068c-5.19831,0.01301 -10.33547,0.04479 -15.46541,0.03068c-2.40153,-0.00626 -4.82112,-0.01264 -7.149,-0.09204c-0.58226,-0.01988 -0.58974,-0.0675 -0.80637,-0.17181c-0.2046,-0.11046 -0.28885,-0.26999 -0.33699,-0.41113c-0.08424,-0.30681 -0.07558,0.29012 -0.06017,-0.92045c0.06162,-4.84253 0.15309,-9.74138 0.28885,-14.6044c0.03393,-1.21573 -0.0231,-0.83098 0.12035,-1.22726z" data-paper-data="{&quot;origPos&quot;:null}" fill="#5f5f5f"/><path d="M30.76662,337.19023c0.07267,-0.17955 0.22778,-0.38365 0.47674,-0.46023c0.39514,-0.11966 0.8115,-0.1161 1.32425,-0.12273c1.90395,-0.034 3.80197,0.02811 5.72074,0.03068c4.90354,0.00675 9.7914,-0.03179 14.72566,-0.03068c2.36393,0.00049 4.74101,-0.03006 7.09796,0.06137c0.59221,0.02357 0.8687,0.08271 1.11238,0.27613c0.34069,0.29185 0.41826,0.67844 0.47672,1.04318c0.11145,0.73329 -0.0142,1.14663 0,2.20907c0.05551,4.25025 0.07161,8.46994 0.10594,12.76351c0.00847,1.07336 0.02118,0.61363 -0.05295,0.92045c-0.04239,0.14114 -0.0941,0.32044 -0.29665,0.41114c-0.36166,0.16028 -0.60788,0.2522 -1.34543,0.26386c-2.9002,0.0945 -5.82966,0.02233 -8.74005,0.03068c-4.57574,0.01301 -9.09768,0.0448 -13.61327,0.03068c-2.11391,-0.00626 -4.24374,-0.01264 -6.29282,-0.09205c-0.51254,-0.01988 -0.5191,-0.0675 -0.70979,-0.17181c-0.1801,-0.11046 -0.25426,-0.27 -0.29663,-0.41114c-0.07417,-0.30681 -0.06653,0.29013 -0.05298,-0.92044c0.05426,-4.84253 0.13475,-9.74139 0.25426,-14.60441c0.02988,-1.21573 -0.02034,-0.83097 0.10594,-1.22725z" data-paper-data="{&quot;origPos&quot;:null}" fill="#8f8f8f"/></g><g data-paper-data="{&quot;origPos&quot;:null}" stroke="#000000" stroke-width="1.25" stroke-linecap="round"><path d="M158.06683,255.38328c0.14173,-0.24914 0.4442,-0.53233 0.92972,-0.6386c0.77064,-0.16604 1.58259,-0.1611 2.58255,-0.17029c3.71309,-0.04717 7.41461,0.039 11.15662,0.04257c9.56288,0.00937 19.09519,-0.0441 28.71798,-0.04257c4.61017,0.00068 9.24595,-0.04173 13.84248,0.08514c1.15492,0.0327 1.69415,0.11478 2.16935,0.38316c0.66444,0.40496 0.81568,0.94138 0.92972,1.44749c0.21735,1.0175 -0.02769,1.59105 0,3.06527c0.10826,5.89758 0.13967,11.75276 0.2066,17.71046c0.01653,1.48938 0.04132,0.85146 -0.1033,1.2772c-0.08264,0.19583 -0.18346,0.44464 -0.57849,0.57048c-0.70535,0.2224 -1.1855,0.34995 -2.62387,0.36613c-5.656,0.13113 -11.36902,0.03099 -17.04484,0.04257c-8.92365,0.01805 -17.74234,0.06216 -26.54863,0.04257c-4.12258,-0.00868 -8.27615,-0.01754 -12.27229,-0.12772c-0.99955,-0.02759 -1.01236,-0.09366 -1.38425,-0.23841c-0.35122,-0.15326 -0.49585,-0.37465 -0.57849,-0.57048c-0.14462,-0.42573 -0.12974,0.40257 -0.1033,-1.2772c0.10578,-6.71942 0.2628,-13.51699 0.49585,-20.26485c0.05826,-1.68692 -0.03966,-1.15305 0.2066,-1.70293z" fill="#5f5f5f"/><path d="M173.51698,255.43437c0.12475,-0.24914 0.39102,-0.53234 0.8184,-0.6386c0.67832,-0.16604 1.39305,-0.1611 2.27326,-0.17029c3.2684,-0.04717 6.52663,0.039 9.82048,0.04257c8.41764,0.00937 16.80836,-0.0441 25.27873,-0.04257c4.05804,0.00068 8.13863,-0.04172 12.18468,0.08515c1.01661,0.0327 1.49127,0.11478 1.90956,0.38316c0.58485,0.40496 0.71799,0.94138 0.81836,1.44749c0.19132,1.0175 -0.02437,1.59105 0,3.06527c0.09529,5.89758 0.12293,11.75276 0.18185,17.71045c0.01454,1.48938 0.03636,0.85146 -0.09091,1.2772c-0.07277,0.19583 -0.16152,0.44464 -0.50924,0.57048c-0.62085,0.2224 -1.04352,0.34995 -2.30963,0.36613c-4.97862,0.13113 -10.00745,0.03099 -15.00355,0.04257c-7.85493,0.01805 -15.61749,0.06216 -23.36916,0.04257c-3.62884,-0.00868 -7.28499,-0.01754 -10.80254,-0.12772c-0.87985,-0.02759 -0.89112,-0.09366 -1.21847,-0.23841c-0.30917,-0.15326 -0.43647,-0.37465 -0.5092,-0.57048c-0.12731,-0.42573 -0.11421,0.40258 -0.09094,-1.2772c0.09314,-6.71942 0.23131,-13.517 0.43647,-20.26485c0.05128,-1.68692 -0.03491,-1.15305 0.18185,-1.70293z" fill="#8f8f8f"/></g><g data-paper-data="{&quot;origPos&quot;:null}" stroke="#000000" stroke-width="1.25" stroke-linecap="round"><path d="M241.06683,251.10574c0.14173,-0.46785 0.4442,-0.99965 0.92972,-1.1992c0.77064,-0.31179 1.58259,-0.30253 2.58255,-0.31979c3.71309,-0.08858 7.41461,0.07323 11.15662,0.07994c9.56288,0.01759 19.09519,-0.08281 28.71798,-0.07994c4.61016,0.00128 9.24595,-0.07835 13.84247,0.15989c1.15492,0.0614 1.69415,0.21554 2.16935,0.71953c0.66444,0.76045 0.81567,1.76779 0.92971,2.7182c0.21734,1.91074 -0.02769,2.98778 0,5.75619c0.10826,11.07492 0.13966,22.07021 0.20661,33.258c0.01653,2.79687 0.04132,1.59893 -0.1033,2.39841c-0.08264,0.36775 -0.18347,0.83497 -0.5785,1.07129c-0.70535,0.41765 -1.1855,0.65717 -2.62387,0.68755c-5.656,0.24624 -11.36902,0.0582 -17.04484,0.07994c-8.92365,0.0339 -17.74234,0.11672 -26.54863,0.07994c-4.12258,-0.01631 -8.27615,-0.03293 -12.27229,-0.23983c-0.99955,-0.05181 -1.01236,-0.17588 -1.38425,-0.4477c-0.35122,-0.28781 -0.49586,-0.70354 -0.5785,-1.07129c-0.14462,-0.79948 -0.12974,0.75598 -0.1033,-2.39842c0.10579,-12.61821 0.26281,-25.38321 0.49586,-38.05483c0.05826,-3.16783 -0.03967,-2.16529 0.20661,-3.19789z" fill="#5f5f5f"/><path d="M256.51698,251.20168c0.12474,-0.46785 0.39102,-0.99966 0.8184,-1.19921c0.67832,-0.31179 1.39305,-0.30253 2.27326,-0.31979c3.2684,-0.08858 6.52663,0.07324 9.82048,0.07995c8.41764,0.01759 16.80836,-0.08282 25.27873,-0.07995c4.05804,0.00128 8.13864,-0.07834 12.18469,0.1599c1.01661,0.0614 1.49126,0.21553 1.90956,0.71952c0.58486,0.76045 0.718,1.7678 0.81836,2.71821c0.19131,1.91074 -0.02438,2.98778 0,5.75619c0.09529,11.07492 0.12293,22.0702 0.18185,33.25799c0.01454,2.79687 0.03636,1.59894 -0.09091,2.39842c-0.07277,0.36775 -0.16152,0.83497 -0.50924,1.07129c-0.62084,0.41765 -1.04352,0.65717 -2.30963,0.68755c-4.97862,0.24624 -10.00744,0.0582 -15.00355,0.07994c-7.85493,0.0339 -15.61749,0.11673 -23.36916,0.07995c-3.62883,-0.01631 -7.28499,-0.03294 -10.80255,-0.23984c-0.87984,-0.05181 -0.89112,-0.17589 -1.21847,-0.44771c-0.30917,-0.28781 -0.43646,-0.70354 -0.50919,-1.07129c-0.12731,-0.79948 -0.11421,0.75598 -0.09094,-2.39841c0.09314,-12.61821 0.23131,-25.38321 0.43647,-38.05483c0.05128,-3.16783 -0.03492,-2.16528 0.18185,-3.19788z" fill="#8f8f8f"/></g><path d="M84.46,328.02269c0.14207,-0.25 0.44521,-0.53419 0.93192,-0.64086c0.77253,-0.16663 1.5864,-0.16165 2.5888,-0.17087c3.72209,-0.04735 7.4326,0.03913 11.1837,0.04272c9.58601,0.00941 19.1415,-0.04426 28.7876,-0.04272c4.62128,0.00066 9.26835,-0.04189 13.876,0.08546c1.15772,0.03279 1.69822,0.11515 2.17464,0.38449c0.66598,0.40639 0.81762,0.94471 0.93192,1.45262c0.21789,1.02111 -0.02778,1.59669 0,3.07612c0.10855,5.91847 0.14,11.79437 0.20712,17.77315c0.0166,1.49464 0.04142,0.85447 -0.10352,1.28171c-0.08285,0.19654 -0.18397,0.4462 -0.57994,0.5725c-0.70708,0.2232 -1.18836,0.3512 -2.63022,0.36743c-5.66965,0.13159 -11.3965,0.03109 -17.0861,0.04272c-8.94526,0.01811 -17.7853,0.06237 -26.6129,0.04275c-4.13258,-0.00873 -8.2962,-0.01762 -12.302,-0.1282c-1.00192,-0.02766 -1.01477,-0.09398 -1.38758,-0.23924c-0.35206,-0.15382 -0.49701,-0.37596 -0.57986,-0.5725c-0.14502,-0.42724 -0.1301,0.40399 -0.1036,-1.28175c0.10607,-6.7432 0.26347,-13.56487 0.49709,-20.33659c0.05834,-1.69291 -0.03975,-1.15714 0.20712,-1.70899z" data-paper-data="{&quot;origPos&quot;:null}" fill="#8f8f8f" stroke="#000000" stroke-width="1.25" stroke-linecap="round"/><path d="M173.46,311.6479c0.14207,-0.43927 0.44521,-0.93859 0.93192,-1.12601c0.77253,-0.29277 1.5864,-0.28403 2.5888,-0.30023c3.72209,-0.0832 7.4326,0.06875 11.1837,0.07506c9.58601,0.01654 19.1415,-0.07777 28.7876,-0.07506c4.62128,0.00115 9.26835,-0.07359 13.876,0.15016c1.15772,0.05762 1.69822,0.20232 2.17464,0.67556c0.66598,0.71405 0.81762,1.65988 0.93192,2.55231c0.21789,1.79411 -0.02778,2.80544 0,5.40484c0.10855,10.39894 0.14,20.72309 0.20712,31.228c0.0166,2.62614 0.04142,1.50133 -0.10352,2.25201c-0.08285,0.34532 -0.18397,0.78399 -0.57994,1.00589c-0.70708,0.39217 -1.18836,0.61707 -2.63022,0.6456c-5.66965,0.23121 -11.3965,0.05463 -17.0861,0.07505c-8.94526,0.03182 -17.7853,0.10959 -26.6129,0.0751c-4.13258,-0.01533 -8.2962,-0.03095 -12.302,-0.22525c-1.00192,-0.04859 -1.01477,-0.16513 -1.38758,-0.42035c-0.35206,-0.27027 -0.49701,-0.66057 -0.57986,-1.00589c-0.14502,-0.75067 -0.1301,0.70981 -0.1036,-2.25208c0.10607,-11.84801 0.26347,-23.83392 0.49709,-35.73205c0.05834,-2.97451 -0.03975,-2.03312 0.20712,-3.00275z" data-paper-data="{&quot;origPos&quot;:null}" fill="#8f8f8f" stroke="#000000" stroke-width="1.25" stroke-linecap="round"/><path d="M250.51341,316.69813c0.11948,-0.09911 0.37441,-0.21178 0.78373,-0.25407c0.64968,-0.06606 1.33413,-0.06409 2.17713,-0.06774c3.13021,-0.01877 6.25068,0.01551 9.40529,0.01693c8.06166,0.00373 16.09766,-0.01754 24.20986,-0.01693c3.88641,0.00026 7.79452,-0.01661 11.66947,0.03387c0.97362,0.013 1.42817,0.04566 1.82883,0.15243c0.56008,0.16112 0.6876,0.37452 0.78373,0.57589c0.18324,0.40482 -0.02336,0.633 0,1.21952c0.09129,2.34635 0.11774,4.67584 0.17418,7.0461c0.01396,0.59255 0.03483,0.33876 -0.08706,0.50813c-0.06968,0.07792 -0.15472,0.17689 -0.48772,0.22696c-0.59464,0.08849 -0.99939,0.13923 -2.21197,0.14567c-4.76807,0.05217 -9.58425,0.01233 -14.3691,0.01693c-7.5228,0.00718 -14.95712,0.02472 -22.38097,0.01695c-3.47543,-0.00346 -6.97696,-0.00698 -10.34576,-0.05082c-0.8426,-0.01097 -0.8534,-0.03726 -1.16693,-0.09485c-0.29608,-0.06098 -0.41798,-0.14905 -0.48765,-0.22696c-0.12196,-0.16937 -0.10941,0.16016 -0.08713,-0.50815c0.0892,-2.67332 0.22157,-5.37772 0.41804,-8.06234c0.04906,-0.67115 -0.03343,-0.45874 0.17418,-0.67752z" data-paper-data="{&quot;origPos&quot;:null}" fill="#8f8f8f" stroke="#000000" stroke-width="1.25" stroke-linecap="round"/><g data-paper-data="{&quot;origPos&quot;:null}" stroke="#000000" stroke-width="1.25" stroke-linecap="round"><path d="M250.27071,338.11745c0.103,-0.0913 0.32275,-0.19507 0.67559,-0.23404c0.56004,-0.06085 1.15005,-0.05904 1.87674,-0.0624c2.69831,-0.01729 5.38822,0.01428 8.10756,0.01559c6.94933,0.00344 13.87653,-0.01616 20.86942,-0.01559c3.35017,0.00024 6.71903,-0.0153 10.05933,0.03121c0.83928,0.01198 1.23112,0.04205 1.5765,0.14041c0.4828,0.14842 0.59272,0.345 0.67559,0.53048c0.15796,0.37289 -0.02014,0.58309 0,1.12336c0.07869,2.16135 0.1015,4.30717 0.15016,6.49056c0.01203,0.54582 0.03002,0.31205 -0.07505,0.46807c-0.06006,0.07177 -0.13337,0.16295 -0.42042,0.20907c-0.5126,0.08151 -0.8615,0.12826 -1.90677,0.13418c-4.11018,0.04805 -8.26183,0.01135 -12.38647,0.01559c-6.48482,0.00662 -12.89336,0.02277 -19.29289,0.01561c-2.99589,-0.00319 -6.01428,-0.00643 -8.91827,-0.04682c-0.72633,-0.0101 -0.73566,-0.03431 -1.00592,-0.08736c-0.25523,-0.05617 -0.3603,-0.13729 -0.42036,-0.20907c-0.10513,-0.15602 -0.09432,0.14753 -0.0751,-0.46808c0.0769,-2.46255 0.191,-4.95371 0.36036,-7.42666c0.04229,-0.61823 -0.02882,-0.42257 0.15015,-0.6241z" data-paper-data="{&quot;origPos&quot;:null}" fill="#5f5f5f"/><path d="M257.39723,338.11745c0.103,-0.0913 0.32275,-0.19507 0.67559,-0.23404c0.56004,-0.06085 1.15004,-0.05904 1.87674,-0.0624c2.69831,-0.01729 5.38822,0.01428 8.10756,0.01559c6.94933,0.00344 13.87653,-0.01616 20.86942,-0.01559c3.35017,0.00024 6.71903,-0.0153 10.05933,0.03121c0.83928,0.01198 1.23112,0.04205 1.5765,0.14041c0.4828,0.14842 0.59273,0.345 0.67559,0.53048c0.15795,0.37289 -0.02013,0.58309 0,1.12336c0.0787,2.16135 0.10149,4.30717 0.15015,6.49056c0.01203,0.54582 0.03002,0.31205 -0.07505,0.46807c-0.06006,0.07177 -0.13337,0.16295 -0.42042,0.20907c-0.5126,0.08151 -0.86149,0.12826 -1.90677,0.13418c-4.11018,0.04805 -8.26183,0.01135 -12.38648,0.01559c-6.48481,0.00662 -12.89336,0.02277 -19.29289,0.01561c-2.99589,-0.00319 -6.01428,-0.00643 -8.91827,-0.04682c-0.72633,-0.0101 -0.73566,-0.03431 -1.00592,-0.08736c-0.25522,-0.05617 -0.3603,-0.13729 -0.42036,-0.20907c-0.10513,-0.15602 -0.09432,0.14753 -0.0751,-0.46808c0.07689,-2.46255 0.191,-4.95371 0.36036,-7.42666c0.04229,-0.61823 -0.02881,-0.42257 0.15016,-0.6241z" data-paper-data="{&quot;origPos&quot;:null}" fill="#8f8f8f"/></g><path d="M320.09542,320.65884c0.13727,-0.12902 0.43015,-0.27569 0.90039,-0.33073c0.7464,-0.08599 1.53274,-0.08343 2.50123,-0.08818c3.59619,-0.02443 7.18119,0.02018 10.80537,0.02204c9.26176,0.00486 18.49408,-0.02284 27.81393,-0.02204c4.46496,0.00034 8.95483,-0.02162 13.40661,0.0441c1.11857,0.01693 1.64078,0.05943 2.10107,0.19843c0.64346,0.20973 0.78997,0.48753 0.90039,0.74965c0.21052,0.52696 -0.02684,0.824 0,1.58749c0.10488,3.05433 0.13525,6.08671 0.20011,9.17216c0.01605,0.77134 0.04002,0.44096 -0.10002,0.66145c-0.08004,0.10143 -0.17776,0.23027 -0.56032,0.29545c-0.68318,0.11518 -1.14816,0.18124 -2.54125,0.18963c-5.47788,0.06791 -11.01102,0.01605 -16.50817,0.02205c-8.64267,0.00934 -17.18369,0.03219 -25.71284,0.02205c-3.99279,-0.0045 -8.01558,-0.00909 -11.8859,-0.06615c-0.96802,-0.01427 -0.98046,-0.04851 -1.34064,-0.12346c-0.34016,-0.07938 -0.4802,-0.19403 -0.56025,-0.29545c-0.14013,-0.22049 -0.12569,0.20849 -0.10009,-0.66147c0.10248,-3.47996 0.25456,-7.00041 0.48027,-10.49506c0.05636,-0.87366 -0.0384,-0.59717 0.20011,-0.88195z" data-paper-data="{&quot;origPos&quot;:null}" fill="#e89223" stroke="#f0f0f0" stroke-width="1.25" stroke-linecap="round"/><path d="M320.68836,338.45036c0.13702,-0.06191 0.42937,-0.13228 0.89877,-0.15869c0.74506,-0.04126 1.52998,-0.04003 2.49672,-0.04231c3.58973,-0.01172 7.16826,0.00968 10.78592,0.01057c9.24509,0.00234 18.46079,-0.01096 27.76386,-0.01057c4.45692,0.00016 8.93872,-0.01037 13.38249,0.02116c1.11655,0.00813 1.63783,0.02852 2.09729,0.09521c0.64231,0.10063 0.78854,0.23392 0.89877,0.3597c0.21014,0.25285 -0.02679,0.39538 0,0.76172c0.10469,1.46556 0.13501,2.92057 0.19975,4.40105c0.01603,0.37011 0.03994,0.21158 -0.09984,0.31738c-0.0799,0.04866 -0.17744,0.11049 -0.55931,0.14176c-0.68195,0.05527 -1.1461,0.08696 -2.53668,0.09099c-5.46802,0.03259 -10.99121,0.0077 -16.47845,0.01058c-8.62711,0.00448 -17.15274,0.01544 -25.66655,0.01058c-3.9856,-0.00216 -8.00116,-0.00437 -11.86451,-0.03175c-0.96628,-0.00685 -0.97869,-0.02327 -1.33822,-0.05924c-0.33956,-0.03809 -0.47934,-0.0931 -0.55925,-0.14176c-0.13987,-0.1058 -0.12545,0.10004 -0.0999,-0.31739c0.1023,-1.66978 0.2541,-3.35898 0.47941,-5.03581c0.05627,-0.4192 -0.03833,-0.28654 0.19975,-0.42318z" data-paper-data="{&quot;origPos&quot;:null}" fill="#df141d" stroke="#f0f0f0" stroke-width="1.25" stroke-linecap="round"/><path d="M127.22314,87.91741c0.11948,-0.04466 0.37441,-0.09543 0.78373,-0.11449c0.64968,-0.02977 1.33413,-0.02888 2.17713,-0.03053c3.13021,-0.00846 6.25068,0.00699 9.40529,0.00763c8.06166,0.00168 16.09766,-0.00791 24.20986,-0.00763c3.88641,0.00012 7.79452,-0.00748 11.66947,0.01526c0.97362,0.00586 1.42817,0.02057 1.82883,0.06868c0.56008,0.0726 0.6876,0.16877 0.78373,0.2595c0.18324,0.18242 -0.02336,0.28524 0,0.54953c0.09129,1.0573 0.11774,2.107 0.17418,3.17508c0.01396,0.26701 0.03483,0.15265 -0.08706,0.22897c-0.06968,0.03511 -0.15472,0.07971 -0.48772,0.10227c-0.59464,0.03987 -0.99939,0.06274 -2.21197,0.06564c-4.76807,0.02351 -9.58425,0.00556 -14.3691,0.00763c-7.5228,0.00324 -14.95712,0.01114 -22.38097,0.00764c-3.47543,-0.00156 -6.97696,-0.00315 -10.34576,-0.0229c-0.8426,-0.00494 -0.8534,-0.01679 -1.16693,-0.04274c-0.29608,-0.02747 -0.41798,-0.06716 -0.48765,-0.10227c-0.12196,-0.07632 -0.10941,0.07217 -0.08713,-0.22897c0.0892,-1.20464 0.22157,-2.42328 0.41804,-3.63301c0.04906,-0.30243 -0.03343,-0.20671 0.17418,-0.3053z" data-paper-data="{&quot;origPos&quot;:null}" fill="#8f8f8f" stroke="#000000" stroke-width="1.25" stroke-linecap="round"/><g data-paper-data="{&quot;origPos&quot;:null}" stroke="#000000" stroke-width="1.25" stroke-linecap="round"><path d="M179.63969,295.74772c0.08738,-0.04466 0.27382,-0.09543 0.57317,-0.11448c0.47514,-0.02976 0.97571,-0.02888 1.59222,-0.03052c2.28925,-0.00846 4.57137,0.00699 6.87846,0.00763c5.89581,0.00168 11.77285,-0.00791 17.70562,-0.00763c2.84228,0.00012 5.70044,-0.00748 8.53434,0.01526c0.71205,0.00586 1.04448,0.02057 1.3375,0.06869c0.40961,0.0726 0.50287,0.16877 0.57317,0.2595c0.13401,0.18242 -0.01709,0.28524 0,0.54953c0.06677,1.0573 0.08611,2.107 0.12738,3.17508c0.01021,0.26701 0.02547,0.15265 -0.06367,0.22897c-0.05096,0.03511 -0.11315,0.07971 -0.35669,0.10227c-0.43489,0.03988 -0.73089,0.06275 -1.6177,0.06564c-3.48708,0.02351 -7.00934,0.00556 -10.50869,0.00763c-5.50172,0.00324 -10.93873,0.01114 -16.36808,0.00764c-2.54172,-0.00156 -5.10252,-0.00315 -7.56627,-0.02291c-0.61622,-0.00494 -0.62413,-0.01679 -0.85342,-0.04274c-0.21654,-0.02748 -0.30568,-0.06716 -0.35664,-0.10227c-0.08919,-0.07633 -0.08002,0.07216 -0.06372,-0.22898c0.06523,-1.20464 0.16205,-2.42327 0.30573,-3.633c0.03588,-0.30243 -0.02445,-0.20672 0.12738,-0.3053z" data-paper-data="{&quot;origPos&quot;:null}" fill="#5f5f5f"/><path d="M193.5159,295.74772c0.08738,-0.04466 0.27382,-0.09543 0.57317,-0.11448c0.47514,-0.02976 0.97571,-0.02888 1.59222,-0.03052c2.28925,-0.00846 4.57138,0.00699 6.87846,0.00763c5.89581,0.00168 11.77285,-0.00791 17.70562,-0.00763c2.84229,0.00012 5.70044,-0.00748 8.53434,0.01526c0.71204,0.00586 1.04448,0.02057 1.3375,0.06869c0.4096,0.0726 0.50287,0.16876 0.57317,0.2595c0.13401,0.18242 -0.01709,0.28524 0,0.54953c0.06677,1.0573 0.08611,2.107 0.12739,3.17508c0.01021,0.26701 0.02547,0.15265 -0.06367,0.22897c-0.05096,0.03511 -0.11315,0.07971 -0.35669,0.10227c-0.43488,0.03988 -0.7309,0.06275 -1.6177,0.06564c-3.48708,0.02351 -7.00933,0.00556 -10.50869,0.00763c-5.50172,0.00324 -10.93873,0.01114 -16.36808,0.00764c-2.54172,-0.00156 -5.10252,-0.00315 -7.56627,-0.02291c-0.61622,-0.00494 -0.62413,-0.01679 -0.85342,-0.04274c-0.21653,-0.02748 -0.30568,-0.06716 -0.35664,-0.10227c-0.08919,-0.07633 -0.08002,0.07216 -0.06372,-0.22898c0.06523,-1.20464 0.16205,-2.42327 0.30573,-3.633c0.03588,-0.30243 -0.02445,-0.20671 0.12739,-0.3053z" data-paper-data="{&quot;origPos&quot;:null}" fill="#8f8f8f"/></g><g data-paper-data="{&quot;origPos&quot;:null}" stroke="#000000" stroke-width="1.25" stroke-linecap="round"><path d="M328.44131,250.7779l-13.63371,-9.20275l62.03338,-0.34084l10.90697,9.20275z" data-paper-data="{&quot;origPos&quot;:null}" fill="#c0c0c0"/><path d="M314.00827,243.66714c0.14527,-0.6196 0.45524,-1.32392 0.95292,-1.58827c0.78993,-0.41296 24.04463,13.41114 24.07303,17.07768c0.11099,14.66806 -2.36336,52.54145 -11.38983,52.49281c-4.22568,-0.02163 -14.16534,-9.68181 -14.25006,-10.16886c-0.14829,-1.05885 -0.13303,1.00123 -0.10593,-3.17662c0.10846,-16.7121 0.26941,-33.61848 0.50829,-50.40122c0.05965,-4.19563 -0.04064,-2.8678 0.21178,-4.23546z" data-paper-data="{&quot;origPos&quot;:null}" fill="#5f5f5f"/><path d="M325.93777,251.33611c0.14527,-0.6196 0.45524,-1.32392 0.95292,-1.58827c0.78993,-0.41296 1.62214,-0.40064 2.64712,-0.42349c3.80594,-0.11736 7.60004,0.09696 11.43565,0.10585c9.80197,0.02335 19.57272,-0.10969 29.43613,-0.10585c4.72539,0.00164 9.47714,-0.10381 14.1886,0.21178c1.1838,0.08129 1.73648,0.2854 2.22363,0.95292c0.68099,1.00719 0.83604,2.34131 0.95292,3.60012c0.2228,2.53066 -0.02841,3.95717 0,7.62371c0.11099,14.66806 0.14315,29.2307 0.21178,44.04826c0.01697,3.70425 0.04235,2.11769 -0.10585,3.17655c-0.08472,0.48707 -0.18811,1.10586 -0.593,1.41884c-0.72301,0.55318 -1.21513,0.87041 -2.68948,0.91063c-5.79738,0.32612 -11.65324,0.07705 -17.47102,0.10585c-9.14678,0.04489 -18.18597,0.15457 -27.21244,0.10593c-4.22568,-0.02163 -8.4831,-0.04366 -12.57914,-0.31772c-1.02449,-0.06855 -1.03763,-0.23292 -1.41884,-0.59293c-0.35999,-0.38122 -0.50821,-0.93178 -0.59293,-1.41884c-0.14829,-1.05885 -0.13303,1.00123 -0.10593,-3.17662c0.10846,-16.7121 0.26941,-33.61848 0.50829,-50.40122c0.05965,-4.19563 -0.04064,-2.8678 0.21178,-4.23546z" data-paper-data="{&quot;origPos&quot;:null}" fill="#8f8f8f"/></g><g data-paper-data="{&quot;origPos&quot;:null,&quot;index&quot;:null}" stroke="#000000" stroke-width="1.25" stroke-linecap="round"><path d="M369.82912,150.10582l13.63371,9.20275l-62.03338,0.34084l-10.90697,-9.20275z" data-paper-data="{&quot;origPos&quot;:null}" fill="#5f5f5f"/><path d="M384.26217,157.21658c-0.14527,0.6196 -0.45524,1.32392 -0.95292,1.58827c-0.78993,0.41296 -24.04463,-13.41114 -24.07303,-17.07768c-0.11099,-14.66806 2.36336,-52.54145 11.38983,-52.49281c4.22568,0.02163 14.16534,9.68181 14.25006,10.16886c0.14829,1.05885 0.13303,-1.00123 0.10593,3.17662c-0.10846,16.7121 -0.26941,33.61848 -0.50829,50.40122c-0.05965,4.19563 0.04064,2.8678 -0.21178,4.23546z" data-paper-data="{&quot;origPos&quot;:null}" fill="#c0c0c0"/><path d="M372.33267,149.54761c-0.14527,0.6196 -0.45524,1.32392 -0.95292,1.58827c-0.78993,0.41296 -1.62214,0.40064 -2.64712,0.42349c-3.80594,0.11736 -7.60004,-0.09696 -11.43565,-0.10585c-9.80197,-0.02335 -19.57272,0.10969 -29.43613,0.10585c-4.72539,-0.00164 -9.47714,0.10381 -14.1886,-0.21178c-1.1838,-0.08129 -1.73648,-0.2854 -2.22363,-0.95292c-0.68099,-1.00719 -0.83604,-2.34131 -0.95292,-3.60012c-0.2228,-2.53066 0.02841,-3.95717 0,-7.62371c-0.11099,-14.66806 -0.14315,-29.2307 -0.21178,-44.04826c-0.01697,-3.70425 -0.04235,-2.11769 0.10585,-3.17655c0.08472,-0.48707 0.18811,-1.10586 0.593,-1.41884c0.72301,-0.55318 1.21513,-0.87041 2.68948,-0.91063c5.79738,-0.32612 11.65324,-0.07705 17.47102,-0.10585c9.14678,-0.04489 18.18597,-0.15457 27.21244,-0.10593c4.22568,0.02163 8.4831,0.04366 12.57914,0.31772c1.02449,0.06855 1.03763,0.23292 1.41884,0.59293c0.35999,0.38122 0.50821,0.93178 0.59293,1.41884c0.14829,1.05885 0.13303,-1.00123 0.10593,3.17662c-0.10846,16.7121 -0.26941,33.61848 -0.50829,50.40122c-0.05965,4.19563 0.04064,2.8678 -0.21178,4.23546z" data-paper-data="{&quot;origPos&quot;:null}" fill="#8f8f8f"/></g><path d="M151.21137,47.59071c0.60817,0.07952 1.2987,0.2473 1.55561,0.51393c0.40128,0.42321 0.38449,0.86767 0.40107,1.41517c0.09345,2.03316 -0.13894,4.05894 -0.16969,6.10755c-0.07907,5.23527 -0.00441,8.00614 -0.06473,13.27427c-0.02879,2.52388 0.04762,5.0622 -0.28948,7.57759c-0.08675,0.63202 -0.2905,0.92655 -0.94937,1.18465c-0.99382,0.36059 -2.30601,0.43924 -3.54387,0.49775c-2.48852,0.11109 -3.88905,-0.02747 -7.49299,-0.02375c-14.41706,0.01354 -28.73025,-0.01468 -43.29406,-0.0242c-3.64083,-0.00249 -2.0816,0.01603 -3.12145,-0.06647c-0.47821,-0.04675 -1.08576,-0.10389 -1.39111,-0.32109c-0.53952,-0.38787 -0.84846,-0.65173 -0.87961,-1.43931c-0.28728,-3.09751 -0.00884,-33.98158 -0.00382,-37.08903c0.00829,-4.88553 -0.04761,-9.71381 0.05196,-14.53481c0.04547,-2.2569 0.09153,-4.53076 0.38438,-6.71762c0.07334,-0.54702 0.23487,-0.55353 0.59095,-0.75597c0.37666,-0.19113 0.91873,-0.26857 1.39793,-0.31229c1.04157,-0.07586 -0.98329,-0.07418 3.12269,-0.04668c12.76753,0.08553 22.92132,0.16652 22.92132,0.16652l0.0139,30.19948c0,0 15.65323,0.14857 26.59877,0.26796c4.1233,0.04492 2.81882,-0.01279 4.16158,0.1263z" data-paper-data="{&quot;origPos&quot;:null,&quot;origRot&quot;:0}" fill="#8f8f8f" stroke="#000000" stroke-width="1.25" stroke-linecap="round"/><path d="M346.73129,60.39136c0.07279,-0.16381 0.22809,-0.35001 0.47745,-0.4199c0.39579,-0.10918 0.81276,-0.10592 1.32632,-0.11196c1.90694,-0.03102 3.80795,0.02564 5.72975,0.02799c4.9112,0.00617 9.80677,-0.029 14.74876,-0.02799c2.36762,0.00043 4.74845,-0.02745 7.10909,0.056c0.59314,0.02148 0.87005,0.07545 1.11413,0.25192c0.3412,0.26628 0.41889,0.61899 0.47745,0.95179c0.11163,0.66905 -0.01423,1.04619 0,2.01554c0.05561,3.87791 0.07172,7.72794 0.10611,11.64537c0.00851,0.97933 0.02122,0.55987 -0.05304,0.8398c-0.04244,0.12878 -0.09426,0.29236 -0.29712,0.37511c-0.36226,0.14624 -0.60883,0.23012 -1.34754,0.24075c-2.90474,0.08622 -5.83877,0.02036 -8.75372,0.02799c-4.58292,0.01187 -9.11195,0.04087 -13.6346,0.02801c-2.11725,-0.00572 -4.25039,-0.01154 -6.30269,-0.084c-0.51331,-0.01812 -0.5199,-0.06158 -0.71089,-0.15675c-0.18037,-0.10079 -0.25464,-0.24634 -0.29708,-0.37511c-0.0743,-0.27993 -0.06666,0.2647 -0.05308,-0.83983c0.05435,-4.4183 0.13499,-8.88801 0.25468,-13.32499c0.02989,-1.10923 -0.02037,-0.75819 0.10611,-1.11977z" data-paper-data="{&quot;origPos&quot;:null}" fill="#8f8f8f" stroke="#000000" stroke-width="1.25" stroke-linecap="round"/><path d="M387.45283,59.9961c0.03936,-0.16788 0.12335,-0.35872 0.2582,-0.43035c0.21404,-0.11189 0.43953,-0.10855 0.71724,-0.11474c1.03123,-0.0318 2.05925,0.02627 3.0985,0.02867c2.65587,0.00632 5.30328,-0.02972 7.9758,-0.02867c1.28035,0.00044 2.56785,-0.02813 3.84443,0.05738c0.32076,0.02202 0.47051,0.07733 0.6025,0.2582c0.18451,0.2729 0.22653,0.63437 0.25819,0.97545c0.06037,0.68568 -0.0077,1.07221 0,2.06567c0.03008,3.97434 0.03878,7.92012 0.05738,11.93494c0.0046,1.00368 0.01148,0.57379 -0.02868,0.86069c-0.02295,0.13197 -0.05097,0.29963 -0.16068,0.38443c-0.1959,0.14988 -0.32925,0.23584 -0.72872,0.24674c-1.57081,0.08836 -3.15747,0.02088 -4.73381,0.02868c-2.47834,0.01216 -4.92752,0.04188 -7.37331,0.0287c-1.14495,-0.00586 -2.29852,-0.01184 -3.40835,-0.08609c-0.27758,-0.01857 -0.28115,-0.06312 -0.38443,-0.16065c-0.09755,-0.10329 -0.1377,-0.25247 -0.16066,-0.38443c-0.04018,-0.2869 -0.03605,0.27129 -0.02871,-0.86071c0.02938,-4.52817 0.07299,-9.10903 0.13772,-13.65632c0.01617,-1.13681 -0.01101,-0.77703 0.05738,-1.14761z" data-paper-data="{&quot;origPos&quot;:null}" fill="#8f8f8f" stroke="#000000" stroke-width="1.25" stroke-linecap="round"/><path d="M332.25865,60.56435c0.31158,0.04074 0.66536,0.12669 0.79699,0.2633c0.20559,0.21683 0.19698,0.44454 0.20548,0.72503c0.04787,1.04165 -0.07118,2.07952 -0.08693,3.12908c-0.04051,2.68219 -0.00226,4.10179 -0.03316,6.80081c-0.01475,1.29306 0.02439,2.59351 -0.14831,3.88223c-0.04444,0.3238 -0.14883,0.4747 -0.48639,0.60693c-0.50916,0.18474 -1.18144,0.22504 -1.81563,0.25502c-1.27494,0.05692 -1.99248,-0.01407 -3.83889,-0.01217c-7.3863,0.00693 -14.71938,-0.00752 -22.18086,-0.01239c-1.86531,-0.00128 -1.06647,0.00821 -1.59922,-0.03406c-0.245,-0.02395 -0.55626,-0.05323 -0.7127,-0.16451c-0.27641,-0.19872 -0.4347,-0.33391 -0.45066,-0.7374c-0.14718,-1.58695 -0.00453,-17.40979 -0.00195,-19.00183c0.00425,-2.50301 -0.02439,-4.97668 0.02662,-7.44663c0.0233,-1.15628 0.04689,-2.32125 0.19693,-3.44164c0.03757,-0.28025 0.12033,-0.28359 0.30276,-0.38731c0.19297,-0.09792 0.4707,-0.1376 0.7162,-0.16c0.53363,-0.03887 -0.50377,-0.038 1.59985,-0.02391c6.5412,0.04382 11.74329,0.08531 11.74329,0.08531l0.00712,15.47211c0,0 8.01963,0.07612 13.62736,0.13728c2.11249,0.02302 1.44417,-0.00655 2.1321,0.0647z" data-paper-data="{&quot;origPos&quot;:null,&quot;origRot&quot;:0}" fill="#8f8f8f" stroke="#000000" stroke-width="1.25" stroke-linecap="round"/><path d="M436.94082,67.75719c0.03908,-0.08794 0.12246,-0.18791 0.25632,-0.22543c0.21248,-0.05861 0.43633,-0.05686 0.71204,-0.06011c1.02375,-0.01666 2.04431,0.01377 3.07603,0.01503c2.63659,0.00331 5.26478,-0.01557 7.91789,-0.01503c1.27106,0.00023 2.54922,-0.01473 3.81653,0.03006c0.31842,0.01153 0.46709,0.0405 0.59812,0.13524c0.18318,0.14295 0.22488,0.33231 0.25632,0.51097c0.05993,0.35918 -0.00764,0.56165 0,1.08205c0.02985,2.08186 0.03851,4.14875 0.05697,6.25184c0.00457,0.52575 0.01139,0.30057 -0.02848,0.45085c-0.02279,0.06914 -0.0506,0.15695 -0.15951,0.20138c-0.19448,0.07851 -0.32686,0.12354 -0.72343,0.12924c-1.55941,0.04628 -3.13455,0.01094 -4.69945,0.01503c-2.46035,0.00637 -4.89176,0.02195 -7.31975,0.01504c-1.13664,-0.00307 -2.28184,-0.0062 -3.38361,-0.0451c-0.27558,-0.00973 -0.27911,-0.03305 -0.38164,-0.08415c-0.09683,-0.05411 -0.1367,-0.13224 -0.15949,-0.20138c-0.03989,-0.15028 -0.03578,0.1421 -0.02849,-0.45087c0.02918,-2.37197 0.07247,-4.77154 0.13673,-7.15354c0.01605,-0.59549 -0.01094,-0.40703 0.05696,-0.60115z" data-paper-data="{&quot;origPos&quot;:null}" fill="#8f8f8f" stroke="#000000" stroke-width="1.25" stroke-linecap="round"/><path d="M458.80225,67.545c0.02113,-0.09013 0.06622,-0.19258 0.13861,-0.23103c0.11491,-0.06007 0.23595,-0.05828 0.38505,-0.0616c0.55361,-0.01707 1.10551,0.0141 1.66344,0.0154c1.42581,0.00339 2.84708,-0.01596 4.28182,-0.0154c0.68736,0.00024 1.37856,-0.0151 2.06389,0.03081c0.1722,0.01183 0.25259,0.04152 0.32345,0.13861c0.09906,0.14651 0.12161,0.34057 0.13861,0.52368c0.03241,0.36811 -0.00413,0.57561 0,1.10895c0.01614,2.13363 0.02082,4.25193 0.03081,6.40729c0.00247,0.53883 0.00617,0.30804 -0.0154,0.46206c-0.01232,0.07085 -0.02736,0.16085 -0.08626,0.20638c-0.10517,0.08047 -0.17676,0.12661 -0.39122,0.13247c-0.8433,0.04743 -1.69509,0.01121 -2.54135,0.01539c-1.3305,0.00653 -2.64535,0.02249 -3.95837,0.01541c-0.61467,-0.00315 -1.23396,-0.00635 -1.82978,-0.04622c-0.14902,-0.00997 -0.15094,-0.03389 -0.20639,-0.08625c-0.05237,-0.05545 -0.07392,-0.13554 -0.08625,-0.20638c-0.02157,-0.15403 -0.01935,0.14565 -0.01541,-0.46207c0.01578,-2.43095 0.03919,-4.8902 0.07393,-7.33142c0.00868,-0.6103 -0.0059,-0.41715 0.03081,-0.6161z" data-paper-data="{&quot;origPos&quot;:null}" fill="#8f8f8f" stroke="#000000" stroke-width="1.25" stroke-linecap="round"/><path d="M429.17117,67.85007c0.16728,0.02187 0.3572,0.06802 0.42786,0.14135c0.11037,0.1164 0.10575,0.23865 0.11031,0.38923c0.02571,0.55921 -0.03822,1.11639 -0.04667,1.67986c-0.02175,1.43994 -0.00122,2.20205 -0.01781,3.65102c-0.00792,0.69418 0.0131,1.39234 -0.07962,2.08418c-0.02386,0.17383 -0.0799,0.25485 -0.26112,0.32583c-0.27335,0.09918 -0.63425,0.12081 -0.97472,0.1369c-0.68446,0.03056 -1.06967,-0.00756 -2.06091,-0.00653c-3.96535,0.00373 -7.90212,-0.00404 -11.90783,-0.00665c-1.0014,-0.00069 -0.57254,0.00441 -0.85854,-0.01828c-0.13153,-0.01286 -0.29863,-0.02858 -0.38262,-0.08832c-0.14839,-0.10668 -0.23336,-0.17925 -0.24193,-0.39588c-0.07902,-0.85196 -0.00243,-9.34647 -0.00105,-10.20116c0.00228,-1.34374 -0.0131,-2.67173 0.01429,-3.99773c0.01251,-0.62075 0.02517,-1.24617 0.10572,-1.84765c0.02017,-0.15046 0.0646,-0.15225 0.16254,-0.20793c0.1036,-0.05257 0.2527,-0.07387 0.3845,-0.08589c0.28648,-0.02087 -0.27045,-0.0204 0.85888,-0.01284c3.51165,0.02352 6.3044,0.0458 6.3044,0.0458l0.00383,8.30622c0,0 4.30535,0.04086 7.31587,0.0737c1.1341,0.01235 0.7753,-0.00352 1.14462,0.03474z" data-paper-data="{&quot;origPos&quot;:null,&quot;origRot&quot;:0}" fill="#8f8f8f" stroke="#000000" stroke-width="1.25" stroke-linecap="round"/><g stroke-linecap="round"><path d="M456.92196,127.0556c0.59496,0.07779 1.27049,0.24193 1.52182,0.50277c0.39256,0.41402 0.37614,0.84883 0.39236,1.38443c0.09142,1.989 0.21726,23.91313 -0.11252,26.3739c-0.08486,0.6183 -0.28418,0.90643 -0.92875,1.15893c-0.97224,0.35276 -2.65593,0.42971 -3.86691,0.48694c-2.43447,0.10868 -3.80458,-0.02688 -7.33025,-0.02324c-14.10395,0.01325 -28.10628,-0.01436 -42.35378,-0.02367c-3.56176,-0.00243 -2.03639,0.01568 -3.05365,-0.06503c-0.46783,-0.04574 -1.06218,-0.10164 -1.3609,-0.31412c-0.52781,-0.37945 -0.83003,-0.63759 -0.8605,-1.40805c-0.28104,-3.03024 -0.00865,-33.24355 -0.00374,-36.28351c0.00811,-4.77943 -0.04657,-9.50285 0.05083,-14.21914c0.04449,-2.20789 0.08954,-4.43237 0.37603,-6.57173c0.07174,-0.53513 0.22977,-0.54151 0.57812,-0.73956c0.36848,-0.18699 0.89878,-0.26273 1.36757,-0.3055c1.01896,-0.07421 -0.96194,-0.07257 3.05487,-0.04566c12.49025,0.08367 22.42351,0.1629 22.42351,0.1629l0.0136,29.54359c0,0 15.31327,0.14535 26.02109,0.26214c4.03375,0.04395 2.75761,-0.01251 4.0712,0.12356z" data-paper-data="{&quot;origPos&quot;:null,&quot;origRot&quot;:0}" fill="#ba79dc" stroke="#f0f0f0" stroke-width="1.25"/><path d="M453.72542,130.96776c0.43383,0.05673 0.9264,0.17641 1.10967,0.3666c0.28625,0.30189 0.27427,0.61895 0.28609,1.00949c0.06666,1.45031 -0.09911,2.89537 -0.12104,4.35672c-0.0564,3.73449 -0.00315,5.71105 -0.04618,9.46898c-0.02053,1.80036 0.03396,3.61102 -0.2065,5.40534c-0.06188,0.45084 -0.20721,0.66095 -0.67721,0.84506c-0.70893,0.25722 -1.64495,0.31333 -2.52796,0.35506c-1.77514,0.07924 -2.77419,-0.01959 -5.34499,-0.01694c-10.28416,0.00966 -29.49423,-0.01048 -39.88308,-0.01726c-2.59713,-0.00178 -1.48487,0.01144 -2.22663,-0.04742c-0.34112,-0.03334 -0.7745,-0.07412 -0.99232,-0.22905c-0.38486,-0.27668 -0.60524,-0.4649 -0.62746,-1.0267c-0.20493,-2.20955 -0.0063,-24.24018 -0.00272,-26.45682c0.00591,-3.48501 -0.03396,-6.92918 0.03706,-10.36816c0.03244,-1.60993 0.06528,-11.43194 0.27419,-12.9919c0.05231,-0.3902 0.16754,-0.39485 0.42155,-0.53926c0.26869,-0.13635 0.65537,-0.19159 0.99719,-0.22277c0.74299,-0.05411 -0.70141,-0.05291 2.22752,-0.03329c9.10751,0.06101 16.35053,0.11878 16.35053,0.11878l0.00993,29.74228c0,0 20.16596,0.10598 27.97377,0.19115c2.94128,0.03205 2.01076,-0.00912 2.96859,0.09009z" data-paper-data="{&quot;origPos&quot;:null,&quot;origRot&quot;:0}" fill="#23b0dc" stroke="none" stroke-width="0"/></g><g data-paper-data="{&quot;origPos&quot;:null}" stroke="#000000" stroke-width="1.25" stroke-linecap="round"><path d="M149.21137,287.59071c0.60817,0.07952 1.2987,0.2473 1.55561,0.51392c0.40128,0.42321 0.38449,0.86768 0.40107,1.41517c0.09345,2.03316 -0.13894,4.05894 -0.16969,6.10756c-0.07907,5.23527 -0.00441,8.00614 -0.06473,13.27427c-0.02879,2.52388 0.04762,5.06219 -0.28948,7.57759c-0.08675,0.63202 -0.29049,0.92656 -0.94937,1.18466c-0.99383,0.36058 -2.30601,0.43924 -3.54388,0.49775c-2.48852,0.11109 -3.88905,-0.02748 -7.49298,-0.02376c-14.41707,0.01354 -28.73025,-0.01468 -43.29406,-0.02419c-3.64084,-0.00249 -2.0816,0.01603 -3.12145,-0.06648c-0.47821,-0.04675 -1.08576,-0.10389 -1.39111,-0.32109c-0.53952,-0.38787 -0.84846,-0.65174 -0.87961,-1.43931c-0.28728,-3.09751 -0.00885,-33.98158 -0.00382,-37.08902c0.00829,-4.88553 -0.04761,-9.71382 0.05196,-14.53481c0.04548,-2.25691 0.09152,-4.53077 0.38438,-6.71762c0.07333,-0.54702 0.23487,-0.55353 0.59096,-0.75597c0.37666,-0.19114 0.91873,-0.26857 1.39793,-0.31229c1.04157,-0.07585 -0.98329,-0.07418 3.12268,-0.04667c12.76754,0.08553 22.92132,0.16652 22.92132,0.16652l0.01391,30.19948c0,0 15.65323,0.14857 26.59877,0.26796c4.1233,0.04493 2.81883,-0.01279 4.16158,0.1263z" data-paper-data="{&quot;origPos&quot;:null,&quot;origRot&quot;:0}" fill="#5f5f5f"/><path d="M165.21137,287.59071c0.60817,0.07952 1.2987,0.2473 1.55561,0.51392c0.40128,0.42321 0.38449,0.86768 0.40107,1.41517c0.09345,2.03316 -0.13894,4.05894 -0.16969,6.10756c-0.07907,5.23527 -0.00441,8.00614 -0.06473,13.27427c-0.02879,2.52388 0.04762,5.06219 -0.28948,7.57759c-0.08675,0.63202 -0.29049,0.92656 -0.94937,1.18466c-0.99383,0.36058 -2.30601,0.43924 -3.54388,0.49775c-2.48852,0.11109 -3.88905,-0.02748 -7.49298,-0.02376c-14.41707,0.01354 -28.73025,-0.01468 -43.29406,-0.02419c-3.64084,-0.00249 -2.0816,0.01603 -3.12145,-0.06648c-0.47821,-0.04675 -1.08576,-0.10389 -1.39111,-0.32109c-0.53952,-0.38787 -0.84846,-0.65174 -0.87961,-1.43931c-0.28728,-3.09751 -0.00885,-33.98158 -0.00382,-37.08902c0.00829,-4.88553 -0.04761,-9.71382 0.05196,-14.53481c0.04548,-2.25691 0.09152,-4.53077 0.38438,-6.71762c0.07333,-0.54702 0.23487,-0.55353 0.59096,-0.75597c0.37666,-0.19114 0.91873,-0.26857 1.39793,-0.31229c1.04157,-0.07585 -0.98329,-0.07418 3.12268,-0.04667c12.76754,0.08553 22.92132,0.16652 22.92132,0.16652l0.01391,30.19948c0,0 15.65323,0.14857 26.59877,0.26796c4.1233,0.04493 2.81883,-0.01279 4.16158,0.1263z" data-paper-data="{&quot;origPos&quot;:null,&quot;origRot&quot;:0}" fill="#8f8f8f"/></g><g data-paper-data="{&quot;origPos&quot;:null}" stroke-width="0" stroke-linecap="butt"><path d="M393.68423,342.58277v-76h75v76z" data-paper-data="{&quot;origPos&quot;:null}" fill="#8f8f8f" stroke="#000000"/><path d="M399.18423,273.58277l-5,-6l74,-1l-5.5,7z" data-paper-data="{&quot;origPos&quot;:null}" fill="url(#color-1)" stroke="#000000"/><path d="M462.68423,273.08277v3.5h-63.5v-3.5z" data-paper-data="{&quot;index&quot;:null,&quot;origPos&quot;:null}" fill="url(#color-2)" stroke="none"/><path d="M394.01757,342.08277v-74.5l4.83333,6.33334v64.83333z" data-paper-data="{&quot;origPos&quot;:null}" fill="url(#color-3)" stroke="none"/><path d="M462.76757,338.99944v-65l5.33333,-5.66666l0.33334,74z" data-paper-data="{&quot;origPos&quot;:null}" fill="url(#color-4)" stroke="none"/><path d="M394.1009,342.6661l3.66667,-4.33333l65.37658,-0.03525l4.95675,4.36858z" data-paper-data="{&quot;origPos&quot;:null}" fill="url(#color-5)" stroke="none"/></g></g></g></svg>