<svg version="1.1" xmlns="http://www.w3.org/2000/svg" xmlns:xlink="http://www.w3.org/1999/xlink" width="86.06476" height="84.4293" viewBox="0,0,86.06476,84.4293"><g transform="translate(-198.34214,-136.89994)"><g data-paper-data="{&quot;isPaintingLayer&quot;:true}" fill-rule="nonzero" stroke-linecap="butt" stroke-linejoin="miter" stroke-dasharray="" stroke-dashoffset="0" style="mix-blend-mode: normal"><g><g stroke-miterlimit="4"><path d="M239.84282,143.71201c-0.48373,-2.39479 -2.53816,-4.262 -4.54077,-6.14665c4.069,0.45953 8.13801,0.32206 12.20701,0c-1.83779,1.96491 -4.46285,3.70061 -4.64789,6.14665c2.36963,-1.07687 3.89659,-3.25764 5.72062,-5.04926c-0.43192,3.60605 -0.13412,7.21205 0,10.8181c-1.81249,-1.52498 -3.35794,-3.45794 -5.72062,-4.142c0.70256,2.23722 2.43256,3.95671 4.69294,5.40901h-12.38718c2.04994,-1.50304 3.9101,-3.13947 4.67589,-5.40901c-2.25079,0.76049 -3.86884,2.7299 -5.67557,4.33868c0.31834,-3.63878 0.28177,-7.2776 0,-10.91642c1.74022,1.98138 3.36285,4.21951 5.67557,4.9509z" fill="#ffe116" stroke="#1a1a1a" stroke-width="1"/><g stroke-width="1"><path d="M241.37452,146.98804c-1.49152,0 -2.70065,-1.26767 -2.70065,-2.83147c0,-1.56375 1.20913,-2.83147 2.70065,-2.83147c1.49152,0 2.70065,1.26767 2.70065,2.83147c0,1.56375 -1.20913,2.83147 -2.70065,2.83147z" fill="#cccccc" stroke="none"/><path d="M241.17509,145.93076c-1.15735,0 -2.0956,-0.95704 -2.0956,-2.13769c0,-1.18061 0.93822,-2.13769 2.0956,-2.13769c1.15735,0 2.0956,0.95704 2.0956,2.13769c0,1.18061 -0.93822,2.13769 -2.0956,2.13769z" fill="#e6e6e6" stroke="none"/><path d="M240.80985,145.05194c-0.85608,0 -1.55007,-0.73072 -1.55007,-1.63213c0,-0.90142 0.69399,-1.63218 1.55007,-1.63218c0.85608,0 1.55007,0.73076 1.55007,1.63218c0,0.90142 -0.69399,1.63213 -1.55007,1.63213z" fill="#ffffff" stroke="none"/><path d="M241.37452,146.98804c-1.49152,0 -2.70065,-1.26767 -2.70065,-2.83143c0,-1.56375 1.20913,-2.83147 2.70065,-2.83147c1.49152,0 2.70065,1.26767 2.70065,2.83147c0,1.56375 -1.20913,2.83143 -2.70065,2.83143z" fill="none" stroke="#1a1a1a"/></g><g><g><path d="M234.04096,158.61074c0,-4.24628 3.28334,-7.68855 7.33353,-7.68855c4.05021,0 7.33355,3.44227 7.33355,7.68855c0,4.24628 -3.28334,7.68855 -7.33355,7.68855c-4.05021,0 -7.33353,-3.44227 -7.33353,-7.68855z" fill="#ffe116" stroke="#1a1a1a" stroke-width="1.01815"/><path d="M235.88992,156.35429c0,-2.35805 1.87768,-4.26959 4.19393,-4.26959c2.31623,0 4.19393,1.91154 4.19393,4.26959c0,2.35805 -1.87768,4.26959 -4.19393,4.26959c-2.31623,0 -4.19393,-1.91158 -4.19393,-4.26959z" fill="#ffea5c" stroke="none" stroke-width="1"/></g><path d="M241.6948,150.13885c0.67603,0 1.21795,0.56814 1.21795,1.27697v5.10409h4.88979c0.67603,0 1.21793,0.56814 1.21793,1.27697v0.57106c0,0.70878 -0.54192,1.27697 -1.21793,1.27697h-12.83345c-0.67603,0 -1.24048,-0.56814 -1.24048,-1.27697v-0.57106c0,-0.70878 0.56447,-1.27697 1.24048,-1.27697h4.88979v-5.10409c0,-0.70878 0.54192,-1.27697 1.21795,-1.27697z" fill="#ffe116" stroke="none" stroke-width="1"/><path d="M241.10086,158.01816l-7.30764,0.05908v-0.40199l1.01496,-1.12324l5.086,0.05908l0.12405,-6.05354l1.39837,-0.47295zM247.95739,156.48113l1.02621,0.93407v0.73305l-6.28138,-0.02368l-0.01125,-1.37149l0.19172,-0.34286z" fill="#ffea5c" stroke="none" stroke-width="1"/><path d="M241.6948,150.13885c0.67603,0 1.21795,0.56814 1.21795,1.27697v5.10409h4.88979c0.67603,0 1.21793,0.56814 1.21793,1.27697v0.57106c0,0.70878 -0.54192,1.27697 -1.21793,1.27697h-12.83345c-0.67603,0 -1.24048,-0.56814 -1.24048,-1.27697v-0.57106c0,-0.70878 0.56447,-1.27697 1.24048,-1.27697h4.88979v-5.10409c0,-0.70878 0.54192,-1.27697 1.21795,-1.27697z" fill="none" stroke="#1a1a1a" stroke-width="1"/></g></g><g><path d="M240.73599,202.72976l-18.75945,2.1073l-7.63777,-2.1073l-5.89583,-11.80078l1.60795,-5.90039c0,0 -0.67431,-2.0342 -0.66999,-3.09069c0.00791,-1.82873 0.2037,-3.84179 1.20597,-5.33846c0.79728,-1.19054 2.51382,-2.63875 3.86186,-2.98266c3.85459,-0.98331 6.7727,0.67034 10.07373,2.98266c0,0 2.37123,-1.54111 5.27789,-2.74607c0.99894,-0.41412 2.63615,-0.78855 3.43188,-1.04702c2.11823,-0.68814 7.23579,-1.12386 7.23579,-1.12386h1.81305c0,0 5.11757,0.43572 7.23579,1.12386c0.79571,0.25851 2.43293,0.63294 3.43188,1.04702c2.90664,1.20492 5.27787,2.74607 5.27787,2.74607c3.30105,-2.31231 6.21916,-3.96596 10.07373,-2.98266c1.34804,0.34391 3.06458,1.79212 3.86186,2.98266c1.00226,1.49671 1.19806,3.50977 1.20597,5.33846c0.00432,1.05648 -0.66999,3.09069 -0.66999,3.09069l1.60795,5.90039l-5.89583,11.80078l-7.63777,2.1073l-18.75945,-2.1073z" fill="#d71e1e" stroke="none" stroke-width="1" stroke-miterlimit="10"/><path d="M237.35643,174.86607l-0.10069,-0.10557c0,0 -5.19295,0.60863 -7.30044,1.63639c-2.47833,1.20859 -3.92609,2.51587 -6.19278,4.11732c-1.33961,0.94645 -2.96559,2.2225 -4.53131,2.63933c-1.10911,0.29525 -2.64157,0.11992 -3.72573,-0.26393c-0.87323,-0.30913 -1.57636,-0.95754 -2.11462,-1.74196c-0.50633,-0.73789 -0.6991,-1.62471 -0.70487,-2.53372c-0.007,-1.10527 0.12407,-1.68409 0.65452,-2.63933c0.63916,-1.15088 2.88168,-2.57162 4.17885,-2.48093v0l0.75523,0.05279l1.91322,0.52787l4.27956,2.48093l2.97053,-1.4252l2.46705,-1.37241l3.27261,-1.00295l3.97746,-0.52787h8.43898l3.97746,0.52787l3.27261,1.00295l2.46705,1.37241l2.97053,1.4252l4.27956,-2.48093l1.91322,-0.52787l0.7552,-0.05279v0c1.29722,-0.09069 3.53969,1.33005 4.17885,2.48093c0.53047,0.95516 0.66152,1.53407 0.65452,2.63933c-0.00577,0.90901 -0.19855,1.79579 -0.70487,2.53372c-0.53823,0.78442 -1.24139,1.43279 -2.11462,1.74196c-1.08416,0.38381 -2.61664,0.55918 -3.72573,0.26393c-1.56572,-0.41679 -3.19167,-1.69284 -4.53131,-2.63933c-2.26666,-1.60145 -3.71445,-2.90873 -6.19278,-4.11732c-2.10749,-1.02776 -7.30044,-1.63639 -7.30044,-1.63639l-0.10069,0.10557z" fill="#de4f40" stroke="none" stroke-width="1" stroke-miterlimit="10"/><path d="M218.97499,176.13153c1.01118,0.20798 1.90204,1.27038 2.74037,1.35969l0.78939,0.08277l2.5148,-0.8631l-3.02228,2.54206c-0.78849,0.66133 -1.82464,1.29557 -2.81929,1.4779c-1.17423,0.21523 -2.74734,0.36438 -3.57486,-0.48475c-1.3701,-1.40581 -0.93916,-2.71476 0.20299,-3.64157c0.42016,-0.34095 1.23414,-0.50814 1.98477,-0.54388c0.45039,-0.02143 0.87102,0.0065 1.1841,0.07092zM266.9369,176.60449c1.14215,0.92681 1.57309,2.23576 0.20297,3.64161c-0.82754,0.84913 -2.40063,0.70003 -3.57486,0.48475c-0.99465,-0.18229 -2.0308,-0.81657 -2.81929,-1.47794l-3.02228,-2.54202l2.5148,0.86306l0.78939,-0.08277c0.83832,-0.08931 1.72917,-1.15168 2.74037,-1.35969c0.20872,-0.04295 0.47159,-0.06484 0.75557,-0.07097c0.85193,-0.01839 1.90914,0.13476 2.41333,0.54388z" fill="#97141c" stroke="none" stroke-width="1" stroke-miterlimit="10"/><path d="M239.50099,199.63332l-12.22543,3.25868l-12.22543,-0.10862l-5.07664,-10.75368l-0.39441,-9.1298c2.38248,3.39678 4.16446,5.47622 11.40214,4.72024c2.98092,-0.42013 8.30872,-4.1666 11.04378,-5.47856c2.98755,-1.43308 7.68317,-2.75963 7.68317,-2.75963h3.33259c0,0 4.69564,1.32655 7.68317,2.75963c2.73506,1.31191 8.06287,5.05843 11.04378,5.47856c7.23771,0.75598 9.01969,-1.32346 11.40214,-4.72024l-0.39441,9.1298l-5.07667,10.75368l-12.22543,0.10862l-12.22543,-3.25868z" fill="#ba1b24" stroke="none" stroke-width="1" stroke-miterlimit="10"/><path d="M239.39738,199.74194l-13.57227,3.58457l-10.56772,-0.32585l-5.18025,-10.42783l-0.41441,-1.738c0,0 6.61915,4.76293 9.7897,5.30911c3.74084,0.64445 6.72446,-0.07101 10.37333,-1.14913c4.06048,-1.19975 11.54878,-6.76695 11.54878,-6.76695c0,0 7.4883,5.56716 11.54878,6.76695c3.64887,1.07812 6.63249,1.79358 10.37333,1.14913c3.17055,-0.54621 9.7897,-5.30911 9.7897,-5.30911l-0.41441,1.738l-5.18025,10.42783l-10.56772,0.32585l-13.57227,-3.58457" fill="#97141c" stroke="none" stroke-width="1" stroke-miterlimit="10"/><path d="M240.73599,202.72976l-18.75945,2.1073l-7.63777,-2.1073l-5.89583,-11.80078l1.60795,-5.90039c0,0 -0.67431,-2.0342 -0.66999,-3.09069c0.00793,-1.82873 0.2037,-3.84179 1.20597,-5.33846c0.79728,-1.19054 2.51382,-2.63875 3.86186,-2.98266c3.85459,-0.98331 6.7727,0.67034 10.07373,2.98266c0,0 2.37123,-1.54111 5.27789,-2.74607c0.99894,-0.41412 2.63615,-0.78855 3.43188,-1.04702c2.11823,-0.68814 7.23579,-1.12386 7.23579,-1.12386h1.81305c0,0 5.11757,0.43572 7.23579,1.12386c0.79571,0.25851 2.43293,0.63294 3.43188,1.04702c2.90664,1.20492 5.27787,2.74607 5.27787,2.74607c3.30105,-2.31231 6.21916,-3.96596 10.07373,-2.98266c1.34804,0.34391 3.06458,1.79212 3.86186,2.98266c1.00226,1.49666 1.19806,3.50977 1.20597,5.33846c0.00432,1.05648 -0.66999,3.09069 -0.66999,3.09069l1.60795,5.90039l-5.89583,11.80078l-7.63777,2.1073l-18.75945,-2.1073z" fill="none" stroke="#1a1a1a" stroke-width="2" stroke-miterlimit="4"/></g><g><path d="M240.42504,170.53994c0,0 -1.66302,0.14981 -3.72146,0.21281c-2.05849,0.063 -4.47177,0.08189 -6.428,-0.37835c-5.12292,-1.20525 -8.42073,-5.22834 -12.13425,-5.53334c-9.79041,-0.8041 -13.63056,8.38628 -8.97665,16.57635c0.79183,1.59594 1.51114,2.88488 1.51114,2.88488l-3.47339,2.12819c0,0 -0.78185,-1.37687 -1.62391,-3.07405c-0.84208,-1.69718 -1.76702,-3.5912 -2.16522,-5.29685c-0.55828,-2.39129 -0.78473,-5.35889 0.0451,-8.01624c0.89214,-2.85694 1.74182,-4.54153 4.10491,-6.52653c1.37361,-1.1538 3.33291,-2.34655 5.27772,-2.81395c0.96583,-0.23212 2.02832,-0.33394 3.08995,-0.33106c1.06163,0.003 2.12338,0.11516 3.06741,0.33106c5.13682,1.17448 8.50238,4.67354 12.15683,5.53334c1.13918,0.26802 3.50969,0.3427 5.43561,0.28378c1.92592,-0.05896 3.47339,-0.21281 3.47339,-0.21281h2.6207c0,0 1.54747,0.15386 3.47339,0.21281c1.92592,0.05896 4.29644,-0.01572 5.43561,-0.28378c3.65445,-0.85981 7.02,-4.35886 12.15683,-5.53334c0.944,-0.21582 2.00577,-0.32819 3.06741,-0.33106c1.06163,-0.003 2.12412,0.0989 3.08995,0.33106c1.94483,0.46741 3.90411,1.66015 5.27772,2.81395c2.36307,1.98496 3.21275,3.66955 4.10491,6.52653c0.82983,2.65735 0.60338,5.62495 0.0451,8.01624c-0.3982,1.70569 -1.32313,3.59967 -2.16522,5.29685c-0.84208,1.69718 -1.62394,3.07405 -1.62394,3.07405l-3.47337,-2.12819c0,0 0.71932,-1.28894 1.51114,-2.88488c4.65388,-8.19006 0.81374,-17.38045 -8.97665,-16.57635c-3.71352,0.305 -7.01136,4.32809 -12.13425,5.53334c-1.95623,0.46024 -4.36951,0.44135 -6.428,0.37835c-2.05849,-0.063 -3.72146,-0.21281 -3.72146,-0.21281z" fill="#ffe116" stroke="none" stroke-width="1" stroke-miterlimit="10"/><path d="M240.25885,168.59054c-11.62262,1.88606 -14.2781,-3.77996 -21.57879,-5.66994c-12.00579,-1.99209 -14.06779,8.53447 -13.15882,13.65982c0.82722,4.66462 4.21658,9.2046 3.39326,8.80107l-1.71205,1.04898c0,0 -0.78185,-1.37687 -1.62391,-3.07405c-0.84208,-1.69718 -1.76702,-3.5912 -2.16522,-5.29685c-0.55828,-2.39129 -0.78473,-5.35889 0.0451,-8.01624c0.89214,-2.85694 1.74182,-4.54153 4.10491,-6.52653c1.37361,-1.1538 3.33291,-2.34655 5.27772,-2.81395c0.96583,-0.23212 2.02832,-0.33407 3.08995,-0.33106c1.06163,0.00284 2.12338,0.11516 3.06741,0.33106c5.13682,1.17448 8.50238,4.67354 12.15683,5.53334c1.13918,0.26802 3.50969,0.3427 5.43561,0.28378c1.92592,-0.05896 3.47339,-0.21281 3.47339,-0.21281h2.6207c0,0 1.54747,0.15386 3.47339,0.21281c1.92592,0.05896 4.29644,-0.01576 5.43561,-0.28378c3.65445,-0.85981 7.02,-4.35886 12.15683,-5.53334c0.944,-0.21582 2.00577,-0.32802 3.06741,-0.33106c1.06163,-0.00288 2.12412,0.0989 3.08995,0.33106c1.94483,0.46741 3.90411,1.66015 5.27772,2.81395c2.36307,1.98496 3.21275,3.66955 4.10491,6.52653c0.82983,2.65735 0.60338,5.62495 0.0451,8.01624c-0.3982,1.70569 -1.32313,3.59967 -2.16522,5.29685c-0.84208,1.69718 -1.62394,3.07405 -1.62394,3.07405l-1.71205,-1.04898c-0.82332,0.40353 2.56604,-4.1365 3.39326,-8.80107c0.90894,-5.12539 -1.15303,-15.65187 -13.15884,-13.65982c-7.30069,1.88998 -9.95617,7.556 -21.57879,5.66994z" fill="#ffea5c" stroke="none" stroke-width="1" stroke-miterlimit="10"/><path d="M240.42504,170.53994c0,0 -1.66302,0.14981 -3.72146,0.21281c-2.05849,0.063 -4.47177,0.08189 -6.428,-0.37835c-5.12292,-1.20525 -8.42073,-5.22834 -12.13425,-5.53334c-9.79041,-0.8041 -13.63056,8.38628 -8.97665,16.57635c0.79183,1.59594 1.51114,2.88488 1.51114,2.88488l-3.47339,2.12819c0,0 -0.78185,-1.37687 -1.62391,-3.07405c-0.84208,-1.69718 -1.76702,-3.5912 -2.16522,-5.29685c-0.55828,-2.39129 -0.78473,-5.35889 0.0451,-8.01624c0.89214,-2.85694 1.74182,-4.54153 4.10491,-6.52653c1.37361,-1.1538 3.33291,-2.34655 5.27772,-2.81395c0.96583,-0.23212 2.02832,-0.33394 3.08995,-0.33106c1.06163,0.003 2.12338,0.11516 3.06741,0.33106c5.13682,1.17448 8.50238,4.67354 12.15683,5.53334c1.13918,0.26802 3.50969,0.3427 5.43561,0.28378c1.92592,-0.05896 3.47339,-0.21281 3.47339,-0.21281h2.6207c0,0 1.54747,0.15386 3.47339,0.21281c1.92592,0.05896 4.29644,-0.01572 5.43561,-0.28378c3.65445,-0.85981 7.02,-4.35886 12.15683,-5.53334c0.944,-0.21582 2.00577,-0.32819 3.06741,-0.33106c1.06163,-0.003 2.12412,0.0989 3.08995,0.33106c1.94483,0.46741 3.90411,1.66015 5.27772,2.81395c2.36307,1.98496 3.21275,3.66955 4.10491,6.52653c0.82983,2.65735 0.60338,5.62495 0.0451,8.01624c-0.3982,1.70569 -1.32313,3.59967 -2.16522,5.29685c-0.84208,1.69718 -1.62394,3.07405 -1.62394,3.07405l-3.47337,-2.12819c0,0 0.71932,-1.28898 1.51114,-2.88488c4.65388,-8.19006 0.81374,-17.38045 -8.97665,-16.57635c-3.71352,0.305 -7.01136,4.32809 -12.13425,5.53334c-1.95623,0.46024 -4.36951,0.44135 -6.428,0.37835c-2.05849,-0.063 -3.72146,-0.21281 -3.72146,-0.21281z" fill="none" stroke="#1a1a1a" stroke-width="2" stroke-miterlimit="4"/></g><g><g stroke-width="1"><g><path d="M235.93954,178.34294c0,0 0,-0.88186 0,-1.9697v-10.09089c0,-1.08784 0,-1.9697 0,-1.9697h10.65374c0,0 0,0.88186 0,1.9697v10.09089c0,1.08784 0,1.9697 0,1.9697z" fill="#f3d948" stroke="#333333" stroke-miterlimit="4"/><g fill="#ffe116" stroke="#1a1a1a" stroke-miterlimit="4"><path d="M235.32659,179.68679c0,0 0,-0.68731 0,-1.53519v-13.01454c0,-0.84788 0,-1.53519 0,-1.53519h2.92857c0,0 0,0.68731 0,1.53519v13.01454c0,0.84788 0,1.53519 0,1.53519z"/></g><g fill="none" stroke="none" stroke-miterlimit="10" font-family="sans-serif" font-weight="normal" font-size="12" text-anchor="start"/></g><path d="M244.49387,179.68679c0,0 0,-0.68731 0,-1.53519v-13.01454c0,-0.84788 0,-1.53519 0,-1.53519h2.92857c0,0 0,0.68731 0,1.53519v13.01454c0,0.84788 0,1.53519 0,1.53519z" fill="#ffe116" stroke="#1a1a1a" stroke-miterlimit="4"/></g><g stroke-width="0.78746" stroke-miterlimit="4"><g><path d="M241.37452,169.64311c-1.89411,0 -3.42957,-1.60983 -3.42957,-3.59566c0,-1.9858 1.53546,-3.59566 3.42957,-3.59566c1.89411,0 3.42957,1.60983 3.42957,3.59566c0,1.9858 -1.53546,3.59566 -3.42957,3.59566z" fill="#cccccc" stroke="none"/><path d="M241.12127,168.30051c-1.46975,0 -2.66122,-1.21539 -2.66122,-2.71468c0,-1.49929 1.19147,-2.71468 2.66122,-2.71468c1.46975,0 2.66122,1.21539 2.66122,2.71468c0,1.49929 -1.19147,2.71468 -2.66122,2.71468z" fill="#e6e6e6" stroke="none"/><path d="M240.65746,167.18444c-1.08715,0 -1.96846,-0.92798 -1.96846,-2.07269c0,-1.14471 0.88131,-2.07273 1.96846,-2.07273c1.08715,0 1.96846,0.92802 1.96846,2.07273c0,1.14471 -0.88131,2.07269 -1.96846,2.07269z" fill="#ffffff" stroke="none"/><path d="M241.37452,169.64315c-1.89411,0 -3.42957,-1.60983 -3.42957,-3.59566c0,-1.9858 1.53546,-3.59566 3.42957,-3.59566c1.89411,0 3.42957,1.60983 3.42957,3.59566c0,1.9858 -1.53546,3.59566 -3.42957,3.59566z" fill="none" stroke="#1a1a1a"/></g><g><path d="M241.37452,174.41376c-1.89411,0 -3.42957,-1.60983 -3.42957,-3.59566c0,-1.9858 1.53546,-3.59566 3.42957,-3.59566c1.89411,0 3.42957,1.60983 3.42957,3.59566c0,1.9858 -1.53546,3.59566 -3.42957,3.59566z" fill="#cccccc" stroke="none"/><path d="M241.12127,173.07116c-1.46975,0 -2.66122,-1.21539 -2.66122,-2.71472c0,-1.49929 1.19147,-2.71472 2.66122,-2.71472c1.46975,0 2.66122,1.21539 2.66122,2.71472c0,1.49929 -1.19147,2.71472 -2.66122,2.71472z" fill="#e6e6e6" stroke="none"/><path d="M240.65746,171.95513c-1.08715,0 -1.96846,-0.92802 -1.96846,-2.07273c0,-1.14471 0.88131,-2.07273 1.96846,-2.07273c1.08715,0 1.96846,0.92798 1.96846,2.07273c0,1.14471 -0.88131,2.07273 -1.96846,2.07273z" fill="#ffffff" stroke="none"/><path d="M241.37452,174.41376c-1.89411,0 -3.42957,-1.60983 -3.42957,-3.59566c0,-1.9858 1.53546,-3.59566 3.42957,-3.59566c1.89411,0 3.42957,1.60983 3.42957,3.59566c0,1.9858 -1.53546,3.59566 -3.42957,3.59566z" fill="none" stroke="#1a1a1a"/></g><g><path d="M241.37452,179.61529c-1.89411,0 -3.42957,-1.60983 -3.42957,-3.59566c0,-1.9858 1.53546,-3.59566 3.42957,-3.59566c1.89411,0 3.42957,1.60983 3.42957,3.59566c0,1.9858 -1.53546,3.59566 -3.42957,3.59566z" fill="#cccccc" stroke="none"/><path d="M241.12127,178.27269c-1.46975,0 -2.66122,-1.21539 -2.66122,-2.71472c0,-1.49929 1.19147,-2.71468 2.66122,-2.71468c1.46975,0 2.66122,1.21539 2.66122,2.71468c0,1.49929 -1.19147,2.71472 -2.66122,2.71472z" fill="#e6e6e6" stroke="none"/><path d="M240.65746,177.15662c-1.08715,0 -1.96846,-0.92802 -1.96846,-2.07273c0,-1.14471 0.88131,-2.07273 1.96846,-2.07273c1.08715,0 1.96846,0.92798 1.96846,2.07273c0,1.14471 -0.88131,2.07273 -1.96846,2.07273z" fill="#ffffff" stroke="none"/><path d="M241.37452,179.61529c-1.89411,0 -3.42957,-1.60983 -3.42957,-3.59566c0,-1.9858 1.53546,-3.59566 3.42957,-3.59566c1.89411,0 3.42957,1.60983 3.42957,3.59566c0,1.9858 -1.53546,3.59566 -3.42957,3.59566z" fill="none" stroke="#1a1a1a"/></g></g></g><g><g><g><g stroke-width="1" stroke-miterlimit="4"><path d="M214.65215,212.20143c0,0 -3.54492,-12.13581 -6.08689,-17.87313c-1.23733,-2.79273 -3.80384,-7.98563 -3.80384,-7.98563l5.2073,-3.15081l2.68026,-0.39327c-1.31731,3.68302 -1.22559,6.25801 -1.252,8.92587c2.76026,-0.49855 4.02783,-2.69587 5.50876,-4.20042l1.7528,7.74455c-2.76321,-1.28739 -4.60525,-0.6432 -6.38516,0.13126c0,0 1.14072,2.33771 2.0032,3.15031c0.98649,0.92944 2.07492,1.46102 3.38039,1.70644c1.23507,0.2322 2.62728,0.31213 3.75597,-0.26256c2.37754,-1.21055 3.58921,-3.85047 3.25519,-3.67535c0,0 0.23851,-2.31615 -0.3756,-3.15031c-0.4597,-0.62443 -1.40387,-1.13141 -2.1284,-0.91885c-1.1424,0.33519 -1.7528,3.01906 -1.7528,3.01906c0,0 -1.09808,-2.28488 -1.3772,-3.54409c-0.24578,-1.1089 -0.61217,-2.39525 -0.1252,-3.41287c0.36339,-0.75936 1.20646,-1.28898 2.0032,-1.44388c1.05495,-0.2051 3.00479,0.78755 3.00479,0.78755c0,0 -0.58208,-2.05768 -0.7512,-3.15031c-0.08691,-0.56143 0.04279,-1.3122 0.2504,-1.83769c0.47429,-1.2005 1.878,-2.23147 1.71094,-2.23868c-0.16706,-0.00721 1.43529,0.63031 2.17652,1.67174c0.32446,0.45586 0.6262,1.15013 0.6736,1.71673c0.09228,1.10268 0.01054,3.24721 0.01054,3.24721c0,0 1.65722,-1.46477 2.72789,-1.53782c0.8086,-0.05516 1.75,0.24088 2.2803,0.88328c0.71064,0.86081 0.65707,2.20215 0.67888,3.34036c0.02469,1.29252 -0.50392,3.7903 -0.50392,3.7903c0,0 -1.22097,-2.44416 -2.4069,-2.47464c-0.75213,-0.01935 -1.54845,0.71546 -1.84764,1.43925c-0.39967,0.96684 0.37459,3.15044 0.37459,3.15044c4.68464,3.83425 9.5321,-0.09849 10.52633,-3.93102v-1.44392c-1.96144,0.28324 -2.79613,0.64449 -4.75759,3.01906l-0.62597,-9.58216c1.878,1.78011 3.50559,2.41993 5.38359,2.10021c-0.17632,-2.78402 -1.50748,-4.02409 -3.67552,-6.46015l2.12837,-0.65629h6.36983l2.12837,0.65633c-2.16802,2.43598 -3.66015,3.6761 -3.83646,6.46015c1.878,0.31972 3.50559,-0.3201 5.38356,-2.10021l-0.62597,9.58216c-1.96144,-2.37457 -2.79613,-2.73582 -4.75759,-3.01906v1.44388c0.99423,3.83258 5.8417,7.76527 10.52631,3.93102c0,0 0.77426,-2.1836 0.37462,-3.15044c-0.29918,-0.72375 -1.0955,-1.45855 -1.84764,-1.43925c-1.18592,0.03048 -2.4069,2.47464 -2.4069,2.47464c0,0 -0.5286,-2.49778 -0.50394,-3.7903c0.02181,-1.13821 -0.03176,-2.47956 0.67888,-3.34036c0.53027,-0.6424 1.47167,-0.93844 2.2803,-0.88328c1.07067,0.07305 2.72789,1.53782 2.72789,1.53782c0,0 -0.08175,-2.14457 0.01054,-3.24721c0.04743,-0.5666 0.34914,-1.26088 0.6736,-1.71673c0.74125,-1.04143 2.34357,-1.67896 2.17652,-1.67174c-0.16706,0.00721 1.23662,1.03818 1.71094,2.23868c0.20761,0.52549 0.3373,1.27622 0.2504,1.83769c-0.16912,1.09263 -0.7512,3.15031 -0.7512,3.15031c0,0 1.94982,-0.99269 3.00479,-0.78755c0.79674,0.1549 1.6398,0.68456 2.0032,1.44388c0.48697,1.01754 0.12058,2.30393 -0.1252,3.41287c-0.27911,1.25921 -1.3772,3.54413 -1.3772,3.54413c0,0 -0.6104,-2.68382 -1.7528,-3.01906c-0.72452,-0.21261 -1.66869,0.29445 -2.12837,0.91885c-0.61409,0.83416 -0.3756,3.15031 -0.3756,3.15031c-0.33404,-0.17512 0.87763,2.4648 3.25517,3.67535c1.12871,0.57469 2.52092,0.49472 3.75599,0.26256c1.30547,-0.24542 2.3939,-0.77696 3.38039,-1.70644c0.86247,-0.81261 2.0032,-3.15031 2.0032,-3.15031c-1.77991,-0.77445 -3.62197,-1.41861 -6.38516,-0.13126l1.7528,-7.74451c1.48093,1.5045 2.74852,3.70186 5.50876,4.20042c-0.02641,-2.66785 0.06531,-5.24289 -1.25202,-8.92587l2.43185,0.46995l5.45571,3.07418c0,0 -2.56648,5.1929 -3.80384,7.98559c-2.54197,5.73732 -6.08691,17.87313 -6.08691,17.87313l-0.10985,0.32694c-18.13794,-4.25667 -35.86384,-3.76111 -53.33489,-0.32694z" fill="#ffe116" stroke="none"/><path d="M223.40346,210.73849c-2.92467,0.40057 -5.84152,0.89095 -8.75133,1.46297c0,0 -3.54492,-12.13581 -6.08689,-17.87313c-1.23733,-2.79273 -3.80384,-7.98563 -3.80384,-7.98563l5.2073,-3.15081l2.68026,-0.39327c-1.31731,3.68302 -1.22559,6.25801 -1.252,8.92587c2.76026,-0.49855 4.02783,-2.69587 5.50876,-4.20042l1.7528,7.74455c-2.76321,-1.28739 -4.60525,-0.6432 -6.38516,0.13126c0,0 1.14072,2.33771 2.0032,3.15031c0.98649,0.92944 2.07492,1.46097 3.38039,1.70644c1.23507,0.2322 2.62728,0.31213 3.75597,-0.26256zM261.33612,199.99399c1.12871,0.57469 2.52092,0.49472 3.75599,0.26256c1.30547,-0.24542 2.3939,-0.77696 3.38039,-1.70639c0.86247,-0.81261 2.0032,-3.15031 2.0032,-3.15031c-1.77991,-0.77445 -3.62197,-1.41865 -6.38516,-0.13126l1.7528,-7.74451c1.48093,1.5045 2.74852,3.70186 5.50876,4.20042c-0.02641,-2.66785 0.06531,-5.24289 -1.25202,-8.92587l2.43185,0.46991l5.45571,3.07418c0,0 -2.56648,5.19294 -3.80384,7.98563c-2.54197,5.73732 -6.08691,17.87313 -6.08691,17.87313l-0.10985,0.32694c-3.27175,-0.76778 -6.53011,-1.38104 -9.77597,-1.8502l-0.28577,0.27511z" fill="#f0d100" stroke="none"/><path d="M219.8184,211.27457c-1.72465,0.27932 -3.44669,0.58887 -5.16625,0.92685c0,0 -3.54492,-12.13581 -6.08689,-17.87313c-1.23733,-2.79273 -3.80384,-7.98563 -3.80384,-7.98563l5.2073,-3.15081l2.68026,-0.39327c-1.31731,3.68302 -1.22559,6.25801 -1.252,8.92587c2.76026,-0.49855 4.02783,-2.69587 5.50876,-4.20042l1.7528,7.74455c-2.76321,-1.28739 -4.60525,-0.6432 -6.38516,0.13126c0,0 1.14072,2.33771 2.0032,3.15031c0.98649,0.92944 2.07492,1.46097 3.38039,1.70644zM265.09212,200.2565c1.30547,-0.24542 2.3939,-0.77696 3.38039,-1.70639c0.86247,-0.81261 2.0032,-3.15031 2.0032,-3.15031c-1.77991,-0.77445 -3.62197,-1.41865 -6.38516,-0.13126l1.7528,-7.74451c1.48093,1.5045 2.74852,3.70186 5.50876,4.20042c-0.02641,-2.66785 0.06531,-5.24289 -1.25202,-8.92587l2.43185,0.46991l5.45571,3.07418c0,0 -2.56648,5.19294 -3.80384,7.98563c-2.54197,5.73732 -6.08691,17.87313 -6.08691,17.87313l-0.10985,0.32694c-1.76906,-0.41516 -3.53418,-0.78513 -5.29553,-1.11156l-0.23185,-0.2493z" fill="#e3c500" stroke="none"/><path d="M244.56292,178.75636l2.12012,0.66208c-2.16802,2.43598 -3.57901,3.61238 -3.7553,6.39644c1.878,0.31972 3.51249,-0.31259 5.39049,-2.09275l-0.63153,9.5769c-1.96144,-2.37457 -2.79753,-2.73173 -4.75896,-3.01497v1.44246c0.58451,2.25315 2.50738,4.53753 4.93941,5.26136l-0.6879,12.60371c-3.74165,-0.17341 -7.70852,-0.15344 -11.58167,0l-0.75557,-12.59187c2.45327,-0.70895 4.38513,-3.00626 4.97326,-5.27321v-1.44246c-1.96144,0.28324 -2.79753,0.6404 -4.75896,3.01497l-0.62025,-9.5769c1.878,1.78011 3.50122,2.41243 5.37922,2.09275c-0.17632,-2.78402 -1.58729,-3.96042 -3.7553,-6.39644l2.13139,-0.66208zM259.14435,182.24424l0.51873,1.96266l-0.86834,3.35783l2.65012,-0.81582l1.43219,0.22466l1.17283,1.45426l-0.18044,2.64842l-1.64649,3.90167l-0.43981,-1.85629c0,0 0.5525,-2.04279 0.27066,-3.00313c-0.15411,-0.52507 -0.49775,-1.13383 -1.00369,-1.27693c-1.28118,-0.36229 -3.73275,1.45426 -3.73275,1.45426c0,0 0.6698,-3.2086 0.56388,-4.82393c-0.05031,-0.76682 -0.56388,-2.22279 -0.56388,-2.22279c0,0 -0.7696,0.97201 -0.99239,1.54883c-0.65582,1.69818 -0.91346,5.4151 -0.91346,5.4151c0,0 -1.82243,-2.11389 -3.03356,-2.09275c-0.60175,0.01051 -1.19,0.53333 -1.47732,1.08776c-0.35234,0.67997 -0.09022,2.3174 -0.09022,2.3174l-1.43219,1.91537l-0.30449,-5.60427l0.7443,-1.77348l1.86073,-0.72121l1.30815,0.22466l1.77053,1.32421l0.0451,-3.64161l0.7443,-1.50158l1.90585,-1.67892zM227.19607,181.92497l0.7443,1.50158l0.0451,3.64161l1.77053,-1.31241l1.30815,-0.2365l1.86073,0.73305l0.7443,1.77348l-0.30449,5.59243l-1.43219,-1.91537c0,0 0.26212,-1.63739 -0.09022,-2.3174c-0.28729,-0.55443 -0.87556,-1.07721 -1.47732,-1.08771c-1.21112,-0.02114 -3.03358,2.09275 -3.03358,2.09275c0,0 -0.25765,-3.71692 -0.91344,-5.4151c-0.22277,-0.57686 -0.99239,-1.54887 -0.99239,-1.54887c0,0 -0.51355,1.46781 -0.56385,2.23464c-0.10594,1.61533 0.56385,4.82398 0.56385,4.82398c0,0 -2.4516,-1.82844 -3.73275,-1.4661c-0.50593,0.14306 -0.84957,0.75181 -1.00369,1.27697c-0.28184,0.96038 0.25939,3.00313 0.25939,3.00313l-0.42853,1.86809l-1.64649,-3.91351l-0.18044,-2.63662l1.17283,-1.45426l1.43219,-0.22466l2.65012,0.81582l-0.86834,-3.36963l0.51873,-1.95086l1.69158,-2.18731z" fill="#ffea5c" stroke="none"/><path d="M274.92335,192.14124c-0.60146,1.25963 -0.29921,1.19316 -0.73956,2.1871c-2.54197,5.73732 -6.08691,17.87313 -6.08691,17.87313l-0.10985,0.32694c-0.87399,-0.2051 -1.74705,-0.39919 -2.61915,-0.58245l-0.12353,-0.03557l7.42039,-20.8833c-0.90288,0.01739 2.89234,1.1892 2.25858,1.11419zM217.05244,211.74857c-0.80064,0.14468 -1.60072,0.29566 -2.40029,0.45286c0,0 -3.54492,-12.13581 -6.08689,-17.87313c-0.53209,-1.20096 -0.2689,-0.52628 -0.98278,-2.01115l2.75832,-1.05173z" fill="#c5ab00" stroke="none"/><path d="M213.32956,195.17184l-1.21871,-3.62027l1.5234,-0.6389l3.04677,-3.19434l1.92963,7.66641l-2.74211,-0.85184h-1.42183z" fill="#d2b225" stroke="none"/><path d="M268.15851,194.46648h-1.42183l-2.74211,0.8518l1.92963,-7.66641l3.0468,3.19434l1.52337,0.6389l-1.21871,3.62022z" fill="#d2b225" stroke="none"/><path d="M212.71614,182.92996l-1.24048,4.63472l-5.1424,2.19915l-1.83818,-3.32235l5.8867,-3.51152zM272.27102,182.96541l5.8867,3.51152l-1.83818,3.33419l-5.26645,-2.341l-1.11643,-4.50467zM267.90674,190.04762l-1.42092,4.15001l-2.33438,1.17048l1.72541,-7.76798zM218.7156,195.37991l-2.33436,-1.17048l-1.43219,-4.15001l2.04117,-2.44745z" fill="#f0d100" stroke="none"/><path d="M272.55293,183.28467l5.55966,3.14502l-0.91346,1.06411l-6.81143,-2.87308l-0.40598,-1.70256zM212.71614,182.92996l-0.40598,1.7026l-6.80014,2.87308l-0.91346,-1.06411l5.37922,-3.51156z" fill="#ffea5c" stroke="none"/><path d="M242.58557,179.87171l0.69745,26.42853l-3.18833,-0.10445v-15.66909l-0.09963,-10.44605l-2.71816,0.42613l-1.15735,-1.12036l2.47562,-0.54071l6.08593,-0.21628l2.16617,0.86518l-0.99226,0.67906z" fill="#fff08b" stroke="none"/><path d="M214.65215,212.20143c0,0 -3.54492,-12.13581 -6.08689,-17.87313c-1.23733,-2.79273 -3.80384,-7.98563 -3.80384,-7.98563l5.2073,-3.15081l2.68026,-0.39327c-1.31731,3.68302 -1.22559,6.25801 -1.252,8.92587c2.76026,-0.49855 4.02783,-2.69587 5.50876,-4.20042l1.7528,7.74455c-2.76321,-1.28739 -4.60525,-0.6432 -6.38516,0.13126c0,0 1.14072,2.33771 2.0032,3.15031c0.98649,0.92944 2.07492,1.46097 3.38039,1.70644c1.23507,0.2322 2.62728,0.31213 3.75597,-0.26256c2.37754,-1.21055 3.58921,-3.85047 3.25519,-3.67535c0,0 0.23851,-2.31615 -0.3756,-3.15031c-0.4597,-0.62443 -1.40387,-1.13145 -2.1284,-0.91885c-1.1424,0.33519 -1.7528,3.01906 -1.7528,3.01906c0,0 -1.09808,-2.28488 -1.3772,-3.54413c-0.24578,-1.1089 -0.61217,-2.39525 -0.1252,-3.41287c0.36339,-0.75936 1.20646,-1.28902 2.0032,-1.44392c1.05495,-0.2051 3.00479,0.78759 3.00479,0.78759c0,0 -0.58208,-2.05768 -0.7512,-3.15031c-0.08691,-0.56143 0.04279,-1.3122 0.2504,-1.83769c0.47429,-1.2005 1.22989,-1.83511 1.71094,-2.52179c0.64305,0.6723 1.43529,0.91343 2.17652,1.95486c0.32446,0.45586 0.6262,1.15013 0.6736,1.71673c0.09228,1.10268 0.01054,3.24721 0.01054,3.24721c0,0 1.65722,-1.46481 2.72789,-1.53786c0.8086,-0.05516 1.75,0.24092 2.2803,0.88332c0.71064,0.86081 0.65707,2.20215 0.67888,3.34036c0.02469,1.29252 -0.50392,3.79026 -0.50392,3.79026c0,0 -1.22097,-2.44416 -2.4069,-2.47464c-0.75213,-0.01935 -1.54845,0.71546 -1.84764,1.43921c-0.39967,0.96684 0.37459,3.1504 0.37459,3.1504c4.68464,3.83425 9.5321,-0.09844 10.52633,-3.93098v-1.44392c-1.96144,0.28324 -2.79613,0.64449 -4.75759,3.01906l-0.62597,-9.5822c1.878,1.78011 3.50559,2.41993 5.38359,2.10025c-0.17632,-2.78402 -1.58795,-3.96417 -3.75599,-6.40015l2.12837,-0.65629h6.36983l2.12837,0.65629c-2.16802,2.43598 -3.57968,3.61614 -3.75597,6.40015c1.878,0.31972 3.50559,-0.3201 5.38356,-2.10025l-0.62597,9.5822c-1.96144,-2.37457 -2.79613,-2.73586 -4.75759,-3.01906v1.44392c0.99423,3.83258 5.8417,7.76527 10.52631,3.93098c0,0 0.77426,-2.18356 0.37462,-3.1504c-0.29918,-0.72375 -1.0955,-1.45855 -1.84764,-1.43925c-1.18592,0.03048 -2.4069,2.47464 -2.4069,2.47464c0,0 -0.5286,-2.49778 -0.50394,-3.79026c0.02181,-1.13821 -0.03176,-2.47956 0.67888,-3.34036c0.53027,-0.6424 1.47167,-0.93849 2.2803,-0.88332c1.07067,0.07305 2.72789,1.53786 2.72789,1.53786c0,0 -0.08175,-2.14457 0.01054,-3.24721c0.04743,-0.5666 0.34914,-1.26088 0.6736,-1.71673c0.74125,-1.04143 1.20943,-1.50905 1.96048,-2.29459c0.55825,0.73434 1.45266,1.66103 1.92698,2.86153c0.20761,0.52549 0.3373,1.27622 0.2504,1.83769c-0.16912,1.09263 -0.7512,3.15031 -0.7512,3.15031c0,0 1.94982,-0.99273 3.00479,-0.78759c0.79674,0.1549 1.6398,0.68456 2.0032,1.44388c0.48697,1.01754 0.12058,2.30393 -0.1252,3.41287c-0.27911,1.25921 -1.3772,3.54409 -1.3772,3.54409c0,0 -0.6104,-2.68382 -1.7528,-3.01906c-0.72452,-0.21261 -1.66869,0.29441 -2.12837,0.91885c-0.61409,0.83416 -0.3756,3.15031 -0.3756,3.15031c-0.33404,-0.17512 0.87763,2.4648 3.25517,3.67535c1.12871,0.57469 2.52092,0.49472 3.75599,0.26256c1.30547,-0.24542 2.3939,-0.77696 3.38039,-1.70639c0.86247,-0.81261 2.0032,-3.15031 2.0032,-3.15031c-1.77991,-0.77445 -3.62197,-1.41865 -6.38516,-0.13126l1.7528,-7.74451c1.48093,1.5045 2.74852,3.70186 5.50876,4.20042c-0.02641,-2.66785 0.06531,-5.24289 -1.25202,-8.92587l2.43185,0.46991l5.45571,3.07418c0,0 -1.07814,2.18143 -2.17374,4.4769c-0.59478,1.2462 -1.19472,2.52605 -1.6301,3.50873c-2.54197,5.73732 -6.08691,17.87313 -6.08691,17.87313l-0.10985,0.32694c-18.13794,-4.25667 -35.86384,-3.76111 -53.33489,-0.32694z" fill="none" stroke="#1a1a1a"/></g><g><path d="M213.48089,215.55938c0,-2.90602 12.48838,-5.26186 27.89362,-5.26186c15.40522,0 27.89362,2.3558 27.89362,5.26186c0,2.90602 -12.48838,5.26186 -27.89362,5.26186c-15.40522,0 -27.89362,-2.3558 -27.89362,-5.26186z" fill="#cccccc" stroke="#1a1a1a" stroke-width="1.01599" stroke-miterlimit="4"/><path d="M219.96576,215.55938c0,-1.43662 9.58501,-2.60122 21.40876,-2.60122c11.82372,0 21.40876,1.1646 21.40876,2.60122c0,1.43662 -9.58504,2.60122 -21.40876,2.60122c-11.82372,0 -21.40876,-1.1646 -21.40876,-2.60122z" fill="#757369" stroke="none" stroke-width="1" stroke-miterlimit="4"/><g stroke-width="1"><g stroke-miterlimit="4"><path d="M214.66544,216.35877c-4.70637,-0.19847 -2.60382,-7.94377 -1.07482,-7.65736c5.08119,-2.40534 37.33099,-5.65101 55.50236,0c2.93123,1.5294 2.25099,8.7128 -0.74948,7.67742c-17.42411,-3.86193 -35.21389,-4.26746 -53.67806,-0.02006z" fill="#ffffff" stroke="none"/><path d="M214.66544,216.35877c-0.4231,-0.10386 -1.8184,-0.64887 -2.37187,-1.32467c-0.80814,-0.98677 -0.71246,-2.1143 -0.5403,-1.41332c19.26113,-4.76852 34.10384,-6.50956 59.05654,0c-0.43777,0.95658 -1.47228,3.10103 -2.46631,2.75804c-17.42411,-3.86193 -35.21389,-4.26746 -53.67806,-0.02006z" fill="#e6e6e6" stroke="none"/><path d="M214.66544,216.35877c-4.70637,-0.19847 -2.60382,-7.94377 -1.07482,-7.65736c5.08119,-2.40534 37.33099,-5.65101 55.50236,0c2.93123,1.5294 2.25099,8.7128 -0.74948,7.67742c-17.42411,-3.86193 -35.21389,-4.26746 -53.67806,-0.02006z" fill="none" stroke="#1a1a1a"/></g><g stroke="none"><path d="M239.42055,207.73536c0.67898,0.03136 1.47412,0.41908 2.15394,0.63844c1.18946,0.38381 2.59375,0.61484 2.59375,0.61484l1.46604,0.76853c0,0 -2.62114,-0.03215 -3.90192,0.22466c-1.24451,0.24955 -3.60871,1.26509 -3.60871,1.26509c0,0 0.32849,-0.58937 0.56385,-0.81578c0.30903,-0.29733 1.08261,-0.68577 1.08261,-0.68577l-2.66142,-0.02368c0,0 0.99988,-0.56268 1.36455,-0.69757c0.51038,-0.18884 1.1841,-0.3547 1.1841,-0.3547l-2.32308,-0.61484c0,0 0.9339,-0.27786 1.74796,-0.31926c0.11631,-0.00588 0.23033,-0.00496 0.33831,0zM228.38018,208.26744c0.62288,0.01447 1.33758,0.24404 1.95095,0.3547c1.2265,0.2212 2.65015,0.2483 2.65015,0.2483l1.54497,0.56752c0,0 -2.60657,0.33027 -3.84553,0.75669c-1.20385,0.41433 -3.41699,1.73804 -3.41699,1.73804c0,0 0.24527,-0.6306 0.45108,-0.88674c0.27022,-0.33632 0.99239,-0.81582 0.99239,-0.81582l-2.63887,0.33106c0,0 0.91784,-0.69223 1.26305,-0.8749c0.48316,-0.25568 1.13898,-0.52024 1.13898,-0.52024l-2.39078,-0.29558c0,0 1.17954,-0.51494 2.04117,-0.59116c0.08465,-0.00751 0.1704,-0.01372 0.25939,-0.0118zM250.59624,208.39749c0.67591,0.07434 1.44293,0.50644 2.10884,0.76853c1.16512,0.45853 2.55993,0.78033 2.55993,0.78033l1.42092,0.8631c0,0 -2.61993,-0.19872 -3.9132,-0.02368c-1.25662,0.17016 -3.67636,1.02863 -3.67636,1.02863c0,0 0.36096,-0.56923 0.60898,-0.78033c0.32564,-0.27715 1.11643,-0.603 1.11643,-0.603l-2.65015,-0.18917c0,0 1.0266,-0.50331 1.39837,-0.61484c0.52035,-0.15607 1.20665,-0.28378 1.20665,-0.28378l-2.28929,-0.75669c0,0 0.95557,-0.22316 1.77053,-0.21281c0.11643,0.00146 0.23082,0.0118 0.33831,0.02368zM219.3133,209.63894c1.24276,0.06934 2.65012,-0.07097 2.65012,-0.07097l1.61264,0.37835c0,0 -2.56113,0.63065 -3.74403,1.206c-1.1494,0.55901 -3.20273,2.15187 -3.20273,2.15187c0,0 0.18501,-0.65445 0.36086,-0.93407c0.2309,-0.36713 0.89092,-0.93407 0.89092,-0.93407l-2.58247,0.65029c0,0 0.82779,-0.80485 1.15028,-1.02863c0.45135,-0.31313 1.07133,-0.65029 1.07133,-0.65029h-2.40206c0,0 1.11498,-0.65812 1.96225,-0.83946c0.16649,-0.03561 0.34477,-0.04391 0.53003,-0.04728c0.5558,-0.00976 1.17013,0.08848 1.70286,0.11825zM261.81705,209.83991c0.66493,0.14735 1.38216,0.66021 2.0186,0.99319c1.11358,0.58257 2.4697,1.05227 2.4697,1.05227l1.33072,1.00499c0,0 -2.58702,-0.48304 -3.89062,-0.44927c-1.26666,0.03281 -3.7553,0.63844 -3.7553,0.63844c0,0 0.40913,-0.52637 0.67662,-0.70937c0.35126,-0.24033 1.17283,-0.48475 1.17283,-0.48475l-2.6163,-0.48475c0,0 1.07396,-0.37872 1.45477,-0.44931c0.53295,-0.09878 1.2292,-0.15369 1.2292,-0.15369l-2.21031,-1.00499c0,0 0.32141,-0.03565 0.7443,-0.04728c0.42288,-0.01163 0.95279,0.00083 1.37582,0.09457z" fill="#333333" stroke-miterlimit="4"/><g fill="none" stroke-miterlimit="10" font-family="sans-serif" font-weight="normal" font-size="12" text-anchor="start"/><g fill="none" stroke-miterlimit="10" font-family="sans-serif" font-weight="normal" font-size="12" text-anchor="start"/></g></g></g></g><g stroke-miterlimit="4"><g stroke-width="1"><path d="M236.9713,203.33489c0,0 0,-0.76207 0,-1.70206v-1.93084c0,-0.94003 0,-1.70206 0,-1.70206h8.80643c0,0 0,0.76207 0,1.70206v1.93084c0,0.94003 0,1.70206 0,1.70206z" fill="#1d369e" stroke="none"/><path d="M238.18963,202.24613h-0.00002l-0.66773,0.13126l-0.41733,-0.52507l-0.04171,-2.88776l1.21026,-0.96263l6.51036,-0.08752l1.0016,1.48766l-0.04171,2.5815h-0.79291l0.04171,-1.57514l-0.7512,-1.22514l-5.46703,0.04374l-0.626,0.56881l0.04171,2.45024z" fill="#4163ef" stroke="none"/><path d="M237.22976,201.06477l1.5024,1.0501l5.17492,0.04374l0.66773,-0.70007l0.04171,-1.57514l0.8764,-1.40014l0.45907,0.96259l-0.20867,2.84402l-0.83466,1.18136l-6.38516,-0.13126l-1.33546,-0.91885l-0.20867,-0.56881z" fill="#2545cb" stroke="none"/><path d="M236.9713,203.33489c0,0 0,-0.76207 0,-1.70206v-1.93084c0,-0.94003 0,-1.70206 0,-1.70206h8.80643c0,0 0,0.76207 0,1.70206v1.93084c0,0.94003 0,1.70206 0,1.70206z" fill="none" stroke="#1a1a1a"/><path d="M238.67991,200.85663c0,0 0,-0.2548 0,-0.56915v-0.07092c0,-0.31434 0,-0.56915 0,-0.56915h2.75157c0,0 0,0.2548 0,0.56915v0.07092c0,0.31434 0,0.56915 0,0.56915z" fill="#5674f1" stroke="none"/></g><g><g><g><path d="M222.72484,202.70554c-0.30714,-1.44692 1.2929,-2.9144 3.57376,-3.27761c2.28084,-0.36325 4.37882,0.51532 4.68594,1.96224c0.30714,1.44692 -1.2929,2.9144 -3.57373,3.27765c-2.28084,0.36325 -4.37882,-0.51532 -4.68594,-1.96224z" fill="#2ca02c" stroke="none" stroke-width="1"/><path d="M222.75108,202.95871c3.55135,0.64837 6.47536,0.38602 7.54875,-2.56274l0.71892,0.86677v1.2437l-1.79733,1.46981l-2.26462,0.79147l-2.80384,-0.48997z" fill="#237f23" stroke="none" stroke-width="1"/><path d="M223.25433,201.07432l1.40193,-1.2437l2.30058,-0.56531l2.013,0.48992c-2.43455,0.40645 -4.60783,1.11728 -6.18278,2.52505z" fill="#32b532" stroke="none" stroke-width="1"/><path d="M222.72484,202.70554c-0.30714,-1.44692 1.2929,-2.9144 3.57373,-3.27761c2.28084,-0.36325 4.37882,0.51532 4.68594,1.96224c0.30714,1.44692 -1.2929,2.9144 -3.57376,3.27765c-2.28084,0.36325 -4.37882,-0.51532 -4.68594,-1.96224z" fill="none" stroke="#1a1a1a" stroke-width="1.09214"/><path d="M224.29678,201.31932c0,-0.38506 0.57938,-0.69723 1.29407,-0.69723c0.7147,0 1.29407,0.31218 1.29407,0.69723c0,0.38506 -0.57938,0.69723 -1.29407,0.69723c-0.7147,0 -1.29407,-0.31222 -1.29407,-0.69723z" fill="#6cd66c" stroke="none" stroke-width="1"/></g><g stroke-width="1"><path d="M210.00502,206.0263c-0.72207,-0.95062 -0.72762,-1.76977 -0.46968,-2.95455c0.18641,-0.85618 1.1742,-1.84662 1.1742,-1.84662l6.45807,2.58525l-4.26993,3.36588c0,0 -2.24893,-0.3025 -2.89266,-1.14997z" fill="#d71e1e" stroke="none"/><path d="M217.15627,203.80855l-4.1,3.40641l-2.70753,-0.72992l-0.9283,-1.29769c3.51945,0.69115 5.34932,-0.68423 7.73585,-1.37879z" fill="#9b1616" stroke="none"/><path d="M209.65249,202.42976l1.08303,-1.2166l6.11133,2.35205c-2.52703,-0.1883 -5.05409,-1.47903 -7.58115,0.0811z" fill="#e43a3a" stroke="none"/><path d="M209.88456,203.44355c0,-0.42555 0.45025,-0.77049 1.00565,-0.77049c0.5554,0 1.00565,0.34495 1.00565,0.77049c0,0.42555 -0.45025,0.77049 -1.00565,0.77049c-0.5554,0 -1.00565,-0.34495 -1.00565,-0.77049z" fill="#ed7676" stroke="none"/><path d="M210.00502,206.0263c-0.72207,-0.95062 -0.72762,-1.76977 -0.46968,-2.95455c0.18641,-0.85618 1.1742,-1.84662 1.1742,-1.84662l6.45807,2.58525l-4.26993,3.36588c0,0 -2.24893,-0.3025 -2.89266,-1.14997z" fill="none" stroke="#1a1a1a"/></g></g><g><g><path d="M255.33825,204.66782c-2.28084,-0.36325 -3.88087,-1.83069 -3.57373,-3.27765c0.30714,-1.44692 2.40508,-2.32549 4.68594,-1.96224c2.28084,0.36325 3.88087,1.83069 3.57373,3.27761c-0.30714,1.44692 -2.40508,2.32549 -4.68594,1.96224z" fill="#2ca02c" stroke="none" stroke-width="1"/><path d="M258.59603,204.27775l-2.80384,0.48997l-2.26462,-0.79147l-1.79733,-1.46981v-1.2437c1.42212,1.21072 1.74732,2.95226 8.26768,1.69593z" fill="#237f23" stroke="none" stroke-width="1"/><path d="M259.962,202.28032c-1.57498,-1.40781 -5.08701,-1.52481 -7.52159,-1.93126l3.3518,-1.08375l2.30058,0.56531l1.40193,1.2437z" fill="#32b532" stroke="none" stroke-width="1"/><path d="M255.33825,204.66782c-2.28084,-0.36325 -3.88087,-1.83069 -3.57373,-3.27765c0.30714,-1.44692 2.40508,-2.32549 4.68594,-1.96224c2.28084,0.36325 3.88087,1.83069 3.57376,3.27761c-0.30714,1.44692 -2.4051,2.32549 -4.68594,1.96224z" fill="none" stroke="#1a1a1a" stroke-width="1.09214"/><path d="M254.7252,201.84782c-0.7147,0 -1.29407,-0.31218 -1.29407,-0.69723c0,-0.38506 0.57938,-0.69723 1.29407,-0.69723c0.7147,0 1.29407,0.31218 1.29407,0.69723c0,0.38506 -0.57938,0.69723 -1.29407,0.69723z" fill="#6cd66c" stroke="none" stroke-width="1"/></g><g stroke-width="1"><path d="M269.85133,207.17627l-4.26991,-3.36588l6.45807,-2.58525c0,0 0.98779,0.9904 1.1742,1.84662c0.25794,1.18478 0.25239,2.00389 -0.46968,2.95455c-0.64373,0.84746 -2.89266,1.14997 -2.89266,1.14997z" fill="#d71e1e" stroke="none"/><path d="M273.32862,205.18734l-0.9283,1.29769l-2.70755,0.72992l-4.1,-3.40641c2.38653,0.69457 4.21641,2.06994 7.73588,1.37879z" fill="#9b1616" stroke="none"/><path d="M273.48335,203.64631c-2.52703,-1.56017 -5.05409,-0.2694 -7.58115,-0.0811l6.11133,-2.35205l1.08303,1.2166z" fill="#e43a3a" stroke="none"/><path d="M271.85882,204.21404c-0.5554,0 -1.00565,-0.34495 -1.00565,-0.77049c0,-0.42555 0.45025,-0.77049 1.00565,-0.77049c0.5554,0 1.00565,0.34495 1.00565,0.77049c0,0.42555 -0.45025,0.77049 -1.00565,0.77049z" fill="#ed7676" stroke="none"/><path d="M269.85133,207.17627l-4.26991,-3.36588l6.45807,-2.58525c0,0 0.98779,0.9904 1.1742,1.84662c0.25794,1.18478 0.25239,2.00389 -0.46968,2.95455c-0.64373,0.84746 -2.89266,1.14997 -2.89266,1.14997z" fill="none" stroke="#1a1a1a"/></g></g></g></g><g stroke-width="1" stroke-miterlimit="4"><path d="M241.37452,190.79693c-1.49152,0 -2.70065,-1.26767 -2.70065,-2.83147c0,-1.56375 1.20913,-2.83147 2.70065,-2.83147c1.49152,0 2.70065,1.26767 2.70065,2.83147c0,1.56375 -1.20913,2.83147 -2.70065,2.83147z" fill="#cccccc" stroke="none"/><path d="M241.17509,189.7397c-1.15735,0 -2.0956,-0.95704 -2.0956,-2.13769c0,-1.18061 0.93822,-2.13769 2.0956,-2.13769c1.15735,0 2.0956,0.95704 2.0956,2.13769c0,1.18061 -0.93822,2.13769 -2.0956,2.13769z" fill="#e6e6e6" stroke="none"/><path d="M240.80985,188.86083c-0.85608,0 -1.55007,-0.73076 -1.55007,-1.63218c0,-0.90142 0.69399,-1.63218 1.55007,-1.63218c0.85608,0 1.55007,0.73076 1.55007,1.63218c0,0.90142 -0.69399,1.63218 -1.55007,1.63218z" fill="#ffffff" stroke="none"/><path d="M241.37452,190.79693c-1.49152,0 -2.70065,-1.26767 -2.70065,-2.83147c0,-1.56375 1.20913,-2.83147 2.70065,-2.83147c1.49152,0 2.70065,1.26767 2.70065,2.83147c0,1.56375 -1.20913,2.83147 -2.70065,2.83147z" fill="none" stroke="#1a1a1a"/></g><g stroke-width="1" stroke-miterlimit="4"><g><path d="M272.44225,196.89429c-1.49152,0 -2.70065,-1.26763 -2.70065,-2.83143c0,-1.56375 1.20913,-2.83147 2.70065,-2.83147c1.49152,0 2.70065,1.26767 2.70065,2.83147c0,1.56375 -1.20913,2.83143 -2.70065,2.83143z" fill="#cccccc" stroke="none"/><path d="M272.24284,195.83706c-1.15735,0 -2.0956,-0.95704 -2.0956,-2.13769c0,-1.18061 0.93822,-2.13774 2.0956,-2.13774c1.15735,0 2.0956,0.95708 2.0956,2.13774c0,1.18061 -0.93822,2.13769 -2.0956,2.13769z" fill="#e6e6e6" stroke="none"/><path d="M271.87761,194.9582c-0.85608,0 -1.55007,-0.73076 -1.55007,-1.63218c0,-0.90142 0.69399,-1.63218 1.55007,-1.63218c0.85608,0 1.55007,0.73076 1.55007,1.63218c0,0.90142 -0.69399,1.63218 -1.55007,1.63218z" fill="#ffffff" stroke="none"/><path d="M272.44227,196.89429c-1.49152,0 -2.70065,-1.26763 -2.70065,-2.83143c0,-1.56375 1.20913,-2.83147 2.70065,-2.83147c1.49152,0 2.70065,1.26767 2.70065,2.83147c0,1.56375 -1.20913,2.83143 -2.70065,2.83143z" fill="none" stroke="#1a1a1a"/></g><g><path d="M210.30678,196.89429c-1.49152,0 -2.70065,-1.26763 -2.70065,-2.83143c0,-1.56375 1.20913,-2.83147 2.70065,-2.83147c1.49152,0 2.70065,1.26767 2.70065,2.83147c0,1.56375 -1.20913,2.83143 -2.70065,2.83143z" fill="#cccccc" stroke="none"/><path d="M210.10733,195.83706c-1.15735,0 -2.0956,-0.95704 -2.0956,-2.13769c0,-1.18061 0.93822,-2.13774 2.0956,-2.13774c1.15735,0 2.0956,0.95708 2.0956,2.13774c0,1.18061 -0.93822,2.13769 -2.0956,2.13769z" fill="#e6e6e6" stroke="none"/><path d="M209.7421,194.9582c-0.85608,0 -1.55007,-0.73076 -1.55007,-1.63218c0,-0.90142 0.69399,-1.63218 1.55007,-1.63218c0.85608,0 1.55007,0.73076 1.55007,1.63218c0,0.90142 -0.69399,1.63218 -1.55007,1.63218z" fill="#ffffff" stroke="none"/><path d="M210.30678,196.89429c-1.49152,0 -2.70065,-1.26763 -2.70065,-2.83143c0,-1.56375 1.20913,-2.83147 2.70065,-2.83147c1.49152,0 2.70065,1.26767 2.70065,2.83147c0,1.56375 -1.20913,2.83143 -2.70065,2.83143z" fill="none" stroke="#1a1a1a"/></g></g></g></g><g stroke-width="0.78746" stroke-miterlimit="4"><g><path d="M202.16544,187.51111c-1.89411,0 -3.42957,-1.60983 -3.42957,-3.59566c0,-1.9858 1.53546,-3.59566 3.42957,-3.59566c1.89411,0 3.42957,1.60983 3.42957,3.59566c0,1.9858 -1.53546,3.59566 -3.42957,3.59566z" fill="#cccccc" stroke="none"/><path d="M201.91214,186.16851c-1.46975,0 -2.66122,-1.21534 -2.66122,-2.71468c0,-1.49929 1.19147,-2.71468 2.66122,-2.71468c1.46975,0 2.66122,1.21539 2.66122,2.71468c0,1.49929 -1.19147,2.71468 -2.66122,2.71468z" fill="#e6e6e6" stroke="none"/><path d="M201.44836,185.05244c-1.08715,0 -1.96846,-0.92802 -1.96846,-2.07273c0,-1.14471 0.88131,-2.07269 1.96846,-2.07269c1.08715,0 1.96846,0.92798 1.96846,2.07269c0,1.14471 -0.88131,2.07273 -1.96846,2.07273z" fill="#ffffff" stroke="none"/><path d="M202.16544,187.51111c-1.89411,0 -3.42957,-1.60983 -3.42957,-3.59566c0,-1.9858 1.53546,-3.59566 3.42957,-3.59566c1.89411,0 3.42957,1.60983 3.42957,3.59566c0,1.9858 -1.53546,3.59566 -3.42957,3.59566z" fill="none" stroke="#1a1a1a"/></g><g><path d="M202.16544,187.51111c-1.89411,0 -3.42957,-1.60983 -3.42957,-3.59566c0,-1.9858 1.53546,-3.59566 3.42957,-3.59566c1.89411,0 3.42957,1.60983 3.42957,3.59566c0,1.9858 -1.53546,3.59566 -3.42957,3.59566z" fill="#cccccc" stroke="none"/><path d="M201.91214,186.16851c-1.46975,0 -2.66122,-1.21534 -2.66122,-2.71468c0,-1.49929 1.19147,-2.71468 2.66122,-2.71468c1.46975,0 2.66122,1.21539 2.66122,2.71468c0,1.49929 -1.19147,2.71468 -2.66122,2.71468z" fill="#e6e6e6" stroke="none"/><path d="M201.44836,185.05244c-1.08715,0 -1.96846,-0.92802 -1.96846,-2.07273c0,-1.14471 0.88131,-2.07269 1.96846,-2.07269c1.08715,0 1.96846,0.92798 1.96846,2.07269c0,1.14471 -0.88131,2.07273 -1.96846,2.07273z" fill="#ffffff" stroke="none"/><path d="M202.16544,187.51111c-1.89411,0 -3.42957,-1.60983 -3.42957,-3.59566c0,-1.9858 1.53546,-3.59566 3.42957,-3.59566c1.89411,0 3.42957,1.60983 3.42957,3.59566c0,1.9858 -1.53546,3.59566 -3.42957,3.59566z" fill="none" stroke="#1a1a1a"/></g><g><path d="M202.16544,187.51111c-1.89411,0 -3.42957,-1.60983 -3.42957,-3.59566c0,-1.9858 1.53546,-3.59566 3.42957,-3.59566c1.89411,0 3.42957,1.60983 3.42957,3.59566c0,1.9858 -1.53546,3.59566 -3.42957,3.59566z" fill="#cccccc" stroke="none"/><path d="M201.91214,186.16851c-1.46975,0 -2.66122,-1.21534 -2.66122,-2.71468c0,-1.49929 1.19147,-2.71468 2.66122,-2.71468c1.46975,0 2.66122,1.21539 2.66122,2.71468c0,1.49929 -1.19147,2.71468 -2.66122,2.71468z" fill="#e6e6e6" stroke="none"/><path d="M201.44836,185.05244c-1.08715,0 -1.96846,-0.92802 -1.96846,-2.07273c0,-1.14471 0.88131,-2.07269 1.96846,-2.07269c1.08715,0 1.96846,0.92798 1.96846,2.07269c0,1.14471 -0.88131,2.07273 -1.96846,2.07273z" fill="#ffffff" stroke="none"/><path d="M202.16544,187.51111c-1.89411,0 -3.42957,-1.60983 -3.42957,-3.59566c0,-1.9858 1.53546,-3.59566 3.42957,-3.59566c1.89411,0 3.42957,1.60983 3.42957,3.59566c0,1.9858 -1.53546,3.59566 -3.42957,3.59566z" fill="none" stroke="#1a1a1a"/></g><g><path d="M280.5836,187.51111c-1.89411,0 -3.42957,-1.60983 -3.42957,-3.59566c0,-1.9858 1.53546,-3.59566 3.42957,-3.59566c1.89411,0 3.42957,1.60983 3.42957,3.59566c0,1.9858 -1.53546,3.59566 -3.42957,3.59566z" fill="#cccccc" stroke="none"/><path d="M280.33035,186.16851c-1.46975,0 -2.66122,-1.21534 -2.66122,-2.71468c0,-1.49929 1.19147,-2.71468 2.66122,-2.71468c1.46975,0 2.66122,1.21539 2.66122,2.71468c0,1.49929 -1.19147,2.71468 -2.66122,2.71468z" fill="#e6e6e6" stroke="none"/><path d="M279.86654,185.05244c-1.08715,0 -1.96846,-0.92802 -1.96846,-2.07273c0,-1.14471 0.88131,-2.07269 1.96846,-2.07269c1.08715,0 1.96846,0.92798 1.96846,2.07269c0,1.14471 -0.88131,2.07273 -1.96846,2.07273z" fill="#ffffff" stroke="none"/><path d="M280.5836,187.51111c-1.89411,0 -3.42957,-1.60983 -3.42957,-3.59566c0,-1.9858 1.53546,-3.59566 3.42957,-3.59566c1.89411,0 3.42957,1.60983 3.42957,3.59566c0,1.9858 -1.53546,3.59566 -3.42957,3.59566z" fill="none" stroke="#1a1a1a"/></g><g><path d="M202.16544,187.51111c-1.89411,0 -3.42957,-1.60983 -3.42957,-3.59566c0,-1.9858 1.53546,-3.59566 3.42957,-3.59566c1.89411,0 3.42957,1.60983 3.42957,3.59566c0,1.9858 -1.53546,3.59566 -3.42957,3.59566z" fill="#cccccc" stroke="none"/><path d="M201.91214,186.16851c-1.46975,0 -2.66122,-1.21534 -2.66122,-2.71468c0,-1.49929 1.19147,-2.71468 2.66122,-2.71468c1.46975,0 2.66122,1.21539 2.66122,2.71468c0,1.49929 -1.19147,2.71468 -2.66122,2.71468z" fill="#e6e6e6" stroke="none"/><path d="M201.44836,185.05244c-1.08715,0 -1.96846,-0.92802 -1.96846,-2.07273c0,-1.14471 0.88131,-2.07269 1.96846,-2.07269c1.08715,0 1.96846,0.92798 1.96846,2.07269c0,1.14471 -0.88131,2.07273 -1.96846,2.07273z" fill="#ffffff" stroke="none"/><path d="M202.16544,187.51111c-1.89411,0 -3.42957,-1.60983 -3.42957,-3.59566c0,-1.9858 1.53546,-3.59566 3.42957,-3.59566c1.89411,0 3.42957,1.60983 3.42957,3.59566c0,1.9858 -1.53546,3.59566 -3.42957,3.59566z" fill="none" stroke="#1a1a1a"/></g></g></g></g></g></svg>