<svg version="1.1" xmlns="http://www.w3.org/2000/svg" xmlns:xlink="http://www.w3.org/1999/xlink" width="314.96801" height="319.19373" viewBox="0,0,314.96801,319.19373"><defs><linearGradient x1="328.18897" y1="293.26285" x2="328.18897" y2="339.35683" gradientUnits="userSpaceOnUse" id="color-1"><stop offset="0" stop-color="#e2b6ff"/><stop offset="1" stop-color="#66ebff"/></linearGradient><linearGradient x1="283.59446" y1="293.26285" x2="283.59446" y2="339.35684" gradientUnits="userSpaceOnUse" id="color-2"><stop offset="0" stop-color="#fabd61"/><stop offset="1" stop-color="#61dbfa"/></linearGradient></defs><g transform="translate(-82.51599,-20.64316)"><g data-paper-data="{&quot;isPaintingLayer&quot;:true}" fill-rule="nonzero" stroke-linecap="butt" stroke-linejoin="miter" stroke-miterlimit="10" stroke-dasharray="" stroke-dashoffset="0" style="mix-blend-mode: normal"><path d="M350.9386,202.57262c0,0 -0.68995,-0.62007 -0.72053,-2.02698c-0.09181,-4.22066 -0.1352,-25.21746 -0.1352,-40.35353c0,-1.14366 0.85573,-2.2543 0.85573,-2.2543c0,0 1.43479,-0.45085 2.35315,-0.45085c15.11145,0 36.6397,-0.05471 39.14684,-0.02525c0.83568,0.00984 1.71352,0.4761 1.71352,0.4761c0,0 0.85565,1.33601 0.85565,2.47971c0,15.66173 0.52483,37.51646 0.47259,39.89662c-0.0174,0.79339 -1.11435,2.03296 -1.11435,2.03296c0,0 -1.17397,1.12714 -1.92529,1.12714c0,0 -36.80393,0.11725 -39.56865,0.05404c-0.92161,-0.0211 -1.93345,-0.95578 -1.93345,-0.95578z" data-paper-data="{&quot;origPos&quot;:null}" fill="#e4a9f0" stroke="#000000" stroke-width="0"/><path d="M306.34409,202.57262c0,0 -0.68988,-0.62007 -0.72053,-2.02698c-0.09181,-4.22066 -0.1352,-25.21746 -0.1352,-40.35353c0,-1.14366 0.85573,-2.2543 0.85573,-2.2543c0,0 1.43486,-0.45085 2.35322,-0.45085c15.11145,0 36.63962,-0.05471 39.14676,-0.02525c0.8357,0.00984 1.71352,0.4761 1.71352,0.4761c0,0 0.85573,1.33601 0.85573,2.47971c0,15.66173 0.52476,37.51646 0.47259,39.89662c-0.01738,0.79339 -1.11435,2.03296 -1.11435,2.03296c0,0 -1.17397,1.12714 -1.92536,1.12714c0,0 -36.80393,0.11725 -39.56859,0.05404c-0.92159,-0.0211 -1.93353,-0.95578 -1.93353,-0.95578z" data-paper-data="{&quot;origPos&quot;:null}" fill="#d0bef0" stroke="#000000" stroke-width="0"/><path d="M261.74958,202.57262c0,0 -0.68995,-0.62007 -0.72053,-2.02698c-0.09181,-4.22066 -0.1352,-25.21746 -0.1352,-40.35353c0,-1.14366 0.85573,-2.2543 0.85573,-2.2543c0,0 1.43486,-0.45085 2.35322,-0.45085c15.11145,0 36.63961,-0.05471 39.14676,-0.02525c0.83568,0.00984 1.71352,0.4761 1.71352,0.4761c0,0 0.85573,1.33601 0.85573,2.47971c0,15.66173 0.52476,37.51646 0.47259,39.89662c-0.0174,0.79339 -1.11435,2.03296 -1.11435,2.03296c0,0 -1.17395,1.12714 -1.92536,1.12714c0,0 -36.80393,0.11725 -39.56858,0.05404c-0.92161,-0.0211 -1.93353,-0.95578 -1.93353,-0.95578z" data-paper-data="{&quot;origPos&quot;:null}" fill="#afe8ff" stroke="#000000" stroke-width="0"/><path d="M83.37172,202.57262c0,0 -0.68995,-0.62007 -0.72053,-2.02698c-0.09181,-4.22066 -0.1352,-25.21746 -0.1352,-40.35353c0,-1.14366 0.85573,-2.2543 0.85573,-2.2543c0,0 1.43486,-0.45085 2.35322,-0.45085c15.11145,0 36.63969,-0.05471 39.14683,-0.02525c0.8357,0.00984 1.71352,0.4761 1.71352,0.4761c0,0 0.85565,1.33601 0.85565,2.47971c0,15.66173 0.52483,37.51646 0.47259,39.89662c-0.0174,0.79339 -1.11435,2.03296 -1.11435,2.03296c0,0 -1.17395,1.12714 -1.92536,1.12714c0,0 -36.80393,0.11725 -39.56858,0.05404c-0.92161,-0.0211 -1.93353,-0.95578 -1.93353,-0.95578z" data-paper-data="{&quot;origPos&quot;:null}" fill="#ffb9c1" stroke="#000000" stroke-width="0"/><path d="M127.96614,202.57262c0,0 -0.68995,-0.62007 -0.72053,-2.02698c-0.09181,-4.22066 -0.1352,-25.21746 -0.1352,-40.35353c0,-1.14366 0.85573,-2.2543 0.85573,-2.2543c0,0 1.43485,-0.45085 2.35321,-0.45085c15.11145,0 36.63962,-0.05471 39.14676,-0.02525c0.8357,0.00984 1.71352,0.4761 1.71352,0.4761c0,0 0.85573,1.33601 0.85573,2.47971c0,15.66173 0.52476,37.51646 0.47259,39.89662c-0.01738,0.79339 -1.11435,2.03296 -1.11435,2.03296c0,0 -1.17397,1.12714 -1.92536,1.12714c0,0 -36.80393,0.11725 -39.56859,0.05404c-0.92159,-0.0211 -1.93353,-0.95578 -1.93353,-0.95578z" data-paper-data="{&quot;origPos&quot;:null}" fill="#ffdcbb" stroke="#000000" stroke-width="0"/><path d="M172.56065,202.57262c0,0 -0.68988,-0.62007 -0.72045,-2.02698c-0.09181,-4.22066 -0.1352,-25.21746 -0.1352,-40.35353c0,-1.14366 0.85565,-2.2543 0.85565,-2.2543c0,0 1.43486,-0.45085 2.35322,-0.45085c15.11145,0 36.63961,-0.05471 39.14676,-0.02525c0.8357,0.00984 1.71352,0.4761 1.71352,0.4761c0,0 0.85573,1.33601 0.85573,2.47971c0,15.66173 0.52476,37.51646 0.47259,39.89662c-0.0174,0.79339 -1.11435,2.03296 -1.11435,2.03296c0,0 -1.17397,1.12714 -1.92536,1.12714c0,0 -36.80393,0.11725 -39.56858,0.05404c-0.92159,-0.0211 -1.93353,-0.95578 -1.93353,-0.95578z" data-paper-data="{&quot;origPos&quot;:null}" fill="#fff8cf" stroke="#000000" stroke-width="0"/><path d="M217.15516,202.57262c0,0 -0.68988,-0.62007 -0.72053,-2.02698c-0.09181,-4.22066 -0.1352,-25.21746 -0.1352,-40.35353c0,-1.14366 0.85573,-2.2543 0.85573,-2.2543c0,0 1.43486,-0.45085 2.35322,-0.45085c15.11145,0 36.63969,-0.05471 39.14683,-0.02525c0.83568,0.00984 1.71352,0.4761 1.71352,0.4761c0,0 0.85565,1.33601 0.85565,2.47971c0,15.66173 0.52483,37.51646 0.47259,39.89662c-0.01738,0.79339 -1.11435,2.03296 -1.11435,2.03296c0,0 -1.17395,1.12714 -1.92528,1.12714c0,0 -36.80393,0.11725 -39.56865,0.05404c-0.92161,-0.0211 -1.93353,-0.95578 -1.93353,-0.95578z" data-paper-data="{&quot;origPos&quot;:null}" fill="#cdf0bb" stroke="#000000" stroke-width="0"/><path d="M352.9386,65.76277c0,0 -0.68995,-0.62007 -0.72053,-2.02698c-0.09181,-4.22065 -0.1352,-25.21747 -0.1352,-40.35353c0,-1.14366 0.85573,-2.25429 0.85573,-2.25429c0,0 1.43479,-0.45085 2.35315,-0.45085c15.11145,0 36.63969,-0.05471 39.14683,-0.02525c0.83568,0.00986 1.71352,0.4761 1.71352,0.4761c0,0 0.85565,1.33601 0.85565,2.47969c0,15.66173 0.52483,37.51646 0.47259,39.89663c-0.01738,0.79339 -1.11435,2.03296 -1.11435,2.03296c0,0 -1.17395,1.12714 -1.92528,1.12714c0,0 -36.80393,0.11725 -39.56865,0.05404c-0.92161,-0.0211 -1.93347,-0.95578 -1.93347,-0.95578z" data-paper-data="{&quot;origPos&quot;:null}" fill="#e128fa" stroke="#000000" stroke-width="0"/><path d="M308.34409,65.76277c0,0 -0.68988,-0.62007 -0.72053,-2.02698c-0.09181,-4.22065 -0.1352,-25.21747 -0.1352,-40.35353c0,-1.14366 0.85573,-2.25429 0.85573,-2.25429c0,0 1.43486,-0.45085 2.35322,-0.45085c15.11145,0 36.63961,-0.05471 39.14676,-0.02525c0.83568,0.00986 1.71352,0.4761 1.71352,0.4761c0,0 0.85573,1.33601 0.85573,2.47969c0,15.66173 0.52476,37.51646 0.47259,39.89663c-0.01738,0.79339 -1.11435,2.03296 -1.11435,2.03296c0,0 -1.17395,1.12714 -1.92536,1.12714c0,0 -36.80393,0.11725 -39.56858,0.05404c-0.92161,-0.0211 -1.93353,-0.95578 -1.93353,-0.95578z" data-paper-data="{&quot;origPos&quot;:null}" fill="#7400f0" stroke="#000000" stroke-width="0"/><path d="M263.74958,65.76277c0,0 -0.68995,-0.62007 -0.72053,-2.02698c-0.09181,-4.22065 -0.1352,-25.21747 -0.1352,-40.35353c0,-1.14366 0.85573,-2.25429 0.85573,-2.25429c0,0 1.43486,-0.45085 2.35322,-0.45085c15.11145,0 36.63961,-0.05471 39.14676,-0.02525c0.83568,0.00986 1.71352,0.4761 1.71352,0.4761c0,0 0.85573,1.33601 0.85573,2.47969c0,15.66173 0.52476,37.51646 0.47259,39.89663c-0.01738,0.79339 -1.11435,2.03296 -1.11435,2.03296c0,0 -1.17395,1.12714 -1.92536,1.12714c0,0 -36.80393,0.11725 -39.56858,0.05404c-0.92161,-0.0211 -1.93353,-0.95578 -1.93353,-0.95578z" data-paper-data="{&quot;origPos&quot;:null}" fill="#28cffa" stroke="#000000" stroke-width="0"/><path d="M85.37172,65.76277c0,0 -0.68995,-0.62007 -0.72053,-2.02698c-0.09181,-4.22065 -0.1352,-25.21747 -0.1352,-40.35353c0,-1.14366 0.85573,-2.25429 0.85573,-2.25429c0,0 1.43486,-0.45085 2.35322,-0.45085c15.11145,0 36.63969,-0.05471 39.14683,-0.02525c0.83568,0.00986 1.71352,0.4761 1.71352,0.4761c0,0 0.85565,1.33601 0.85565,2.47969c0,15.66173 0.52483,37.51646 0.47259,39.89663c-0.01738,0.79339 -1.11435,2.03296 -1.11435,2.03296c0,0 -1.17395,1.12714 -1.92536,1.12714c0,0 -36.80393,0.11725 -39.56858,0.05404c-0.92161,-0.0211 -1.93353,-0.95578 -1.93353,-0.95578z" data-paper-data="{&quot;origPos&quot;:null}" fill="#ff2640" stroke="#000000" stroke-width="0"/><path d="M129.96614,65.76277c0,0 -0.68995,-0.62007 -0.72053,-2.02698c-0.09181,-4.22065 -0.1352,-25.21747 -0.1352,-40.35353c0,-1.14366 0.85573,-2.25429 0.85573,-2.25429c0,0 1.43486,-0.45085 2.35322,-0.45085c15.11145,0 36.63961,-0.05471 39.14676,-0.02525c0.83568,0.00986 1.71352,0.4761 1.71352,0.4761c0,0 0.85573,1.33601 0.85573,2.47969c0,15.66173 0.52476,37.51646 0.47259,39.89663c-0.01738,0.79339 -1.11435,2.03296 -1.11435,2.03296c0,0 -1.17395,1.12714 -1.92536,1.12714c0,0 -36.80393,0.11725 -39.56858,0.05404c-0.92161,-0.0211 -1.93353,-0.95578 -1.93353,-0.95578z" data-paper-data="{&quot;origPos&quot;:null}" fill="#ff8f26" stroke="#000000" stroke-width="0"/><path d="M174.56065,65.76277c0,0 -0.68988,-0.62007 -0.72045,-2.02698c-0.09181,-4.22065 -0.1352,-25.21747 -0.1352,-40.35353c0,-1.14366 0.85565,-2.25429 0.85565,-2.25429c0,0 1.43486,-0.45085 2.35322,-0.45085c15.11145,0 36.63961,-0.05471 39.14676,-0.02525c0.83568,0.00986 1.71352,0.4761 1.71352,0.4761c0,0 0.85573,1.33601 0.85573,2.47969c0,15.66173 0.52476,37.51646 0.47259,39.89663c-0.01738,0.79339 -1.11435,2.03296 -1.11435,2.03296c0,0 -1.17395,1.12714 -1.92536,1.12714c0,0 -36.80393,0.11725 -39.56858,0.05404c-0.92161,-0.0211 -1.93353,-0.95578 -1.93353,-0.95578z" data-paper-data="{&quot;origPos&quot;:null}" fill="#ffdd26" stroke="#000000" stroke-width="0"/><path d="M219.15516,65.76277c0,0 -0.68988,-0.62007 -0.72053,-2.02698c-0.09181,-4.22065 -0.1352,-25.21747 -0.1352,-40.35353c0,-1.14366 0.85573,-2.25429 0.85573,-2.25429c0,0 1.43486,-0.45085 2.35322,-0.45085c15.11145,0 36.63969,-0.05471 39.14683,-0.02525c0.83568,0.00986 1.71352,0.4761 1.71352,0.4761c0,0 0.85565,1.33601 0.85565,2.47969c0,15.66173 0.52483,37.51646 0.47259,39.89663c-0.01738,0.79339 -1.11435,2.03296 -1.11435,2.03296c0,0 -1.17395,1.12714 -1.92528,1.12714c0,0 -36.80393,0.11725 -39.56865,0.05404c-0.92161,-0.0211 -1.93353,-0.95578 -1.93353,-0.95578z" data-paper-data="{&quot;origPos&quot;:null}" fill="#54f000" stroke="#000000" stroke-width="0"/><path d="M350.9386,112.03272c0,0 -0.68995,-0.62007 -0.72053,-2.02698c-0.09181,-4.22066 -0.1352,-25.21746 -0.1352,-40.35353c0,-1.14366 0.85573,-2.2543 0.85573,-2.2543c0,0 1.43479,-0.45085 2.35315,-0.45085c15.11145,0 36.6397,-0.05471 39.14684,-0.02525c0.83568,0.00984 1.71352,0.4761 1.71352,0.4761c0,0 0.85565,1.33601 0.85565,2.47971c0,15.66173 0.52483,37.51646 0.47259,39.89662c-0.0174,0.79339 -1.11435,2.03296 -1.11435,2.03296c0,0 -1.17397,1.12714 -1.92529,1.12714c0,0 -36.80393,0.11725 -39.56865,0.05404c-0.92161,-0.0211 -1.93345,-0.95578 -1.93345,-0.95578z" data-paper-data="{&quot;origPos&quot;:null}" fill="#ffee8f" stroke="#000000" stroke-width="0"/><path d="M306.34409,112.03272c0,0 -0.68988,-0.62007 -0.72053,-2.02698c-0.09181,-4.22066 -0.1352,-25.21746 -0.1352,-40.35353c0,-1.14366 0.85573,-2.2543 0.85573,-2.2543c0,0 1.43486,-0.45085 2.35322,-0.45085c15.11145,0 36.63962,-0.05471 39.14676,-0.02525c0.8357,0.00984 1.71352,0.4761 1.71352,0.4761c0,0 0.85573,1.33601 0.85573,2.47971c0,15.66173 0.52476,37.51646 0.47259,39.89662c-0.01738,0.79339 -1.11435,2.03296 -1.11435,2.03296c0,0 -1.17397,1.12714 -1.92536,1.12714c0,0 -36.80393,0.11725 -39.56859,0.05404c-0.92159,-0.0211 -1.93353,-0.95578 -1.93353,-0.95578z" data-paper-data="{&quot;origPos&quot;:null}" fill="#ffc186" stroke="#000000" stroke-width="0"/><path d="M261.74958,112.03272c0,0 -0.68995,-0.62007 -0.72053,-2.02698c-0.09181,-4.22066 -0.1352,-25.21746 -0.1352,-40.35353c0,-1.14366 0.85573,-2.2543 0.85573,-2.2543c0,0 1.43486,-0.45085 2.35322,-0.45085c15.11145,0 36.63961,-0.05471 39.14676,-0.02525c0.83568,0.00984 1.71352,0.4761 1.71352,0.4761c0,0 0.85573,1.33601 0.85573,2.47971c0,15.66173 0.52476,37.51646 0.47259,39.89662c-0.0174,0.79339 -1.11435,2.03296 -1.11435,2.03296c0,0 -1.17395,1.12714 -1.92536,1.12714c0,0 -36.80393,0.11725 -39.56858,0.05404c-0.92161,-0.0211 -1.93353,-0.95578 -1.93353,-0.95578z" data-paper-data="{&quot;origPos&quot;:null}" fill="#ff8f9c" stroke="#000000" stroke-width="0"/><path d="M83.37172,112.03272c0,0 -0.68995,-0.62007 -0.72053,-2.02698c-0.09181,-4.22066 -0.1352,-25.21746 -0.1352,-40.35353c0,-1.14366 0.85573,-2.2543 0.85573,-2.2543c0,0 1.43486,-0.45085 2.35322,-0.45085c15.11145,0 36.63969,-0.05471 39.14683,-0.02525c0.8357,0.00984 1.71352,0.4761 1.71352,0.4761c0,0 0.85565,1.33601 0.85565,2.47971c0,15.66173 0.52483,37.51646 0.47259,39.89662c-0.0174,0.79339 -1.11435,2.03296 -1.11435,2.03296c0,0 -1.17395,1.12714 -1.92536,1.12714c0,0 -36.80393,0.11725 -39.56858,0.05404c-0.92161,-0.0211 -1.93353,-0.95578 -1.93353,-0.95578z" data-paper-data="{&quot;origPos&quot;:null}" fill="#e823c8" stroke="#000000" stroke-width="0"/><path d="M127.96614,112.03272c0,0 -0.68995,-0.62007 -0.72053,-2.02698c-0.09181,-4.22066 -0.1352,-25.21746 -0.1352,-40.35353c0,-1.14366 0.85573,-2.2543 0.85573,-2.2543c0,0 1.43485,-0.45085 2.35321,-0.45085c15.11145,0 36.63962,-0.05471 39.14676,-0.02525c0.8357,0.00984 1.71352,0.4761 1.71352,0.4761c0,0 0.85573,1.33601 0.85573,2.47971c0,15.66173 0.52476,37.51646 0.47259,39.89662c-0.01738,0.79339 -1.11435,2.03296 -1.11435,2.03296c0,0 -1.17397,1.12714 -1.92536,1.12714c0,0 -36.80393,0.11725 -39.56859,0.05404c-0.92159,-0.0211 -1.93353,-0.95578 -1.93353,-0.95578z" data-paper-data="{&quot;origPos&quot;:null}" fill="#6a6a77" stroke="#000000" stroke-width="0"/><path d="M172.56065,112.03272c0,0 -0.68988,-0.62007 -0.72045,-2.02698c-0.09181,-4.22066 -0.1352,-25.21746 -0.1352,-40.35353c0,-1.14366 0.85565,-2.2543 0.85565,-2.2543c0,0 1.43486,-0.45085 2.35322,-0.45085c15.11145,0 36.63961,-0.05471 39.14676,-0.02525c0.8357,0.00984 1.71352,0.4761 1.71352,0.4761c0,0 0.85573,1.33601 0.85573,2.47971c0,15.66173 0.52476,37.51646 0.47259,39.89662c-0.0174,0.79339 -1.11435,2.03296 -1.11435,2.03296c0,0 -1.17397,1.12714 -1.92536,1.12714c0,0 -36.80393,0.11725 -39.56858,0.05404c-0.92159,-0.0211 -1.93353,-0.95578 -1.93353,-0.95578z" data-paper-data="{&quot;origPos&quot;:null}" fill="#a0a0b4" stroke="#000000" stroke-width="0"/><path d="M217.15516,112.03272c0,0 -0.68988,-0.62007 -0.72053,-2.02698c-0.09181,-4.22066 -0.1352,-25.21746 -0.1352,-40.35353c0,-1.14366 0.85573,-2.2543 0.85573,-2.2543c0,0 1.43486,-0.45085 2.35322,-0.45085c15.11145,0 36.63969,-0.05471 39.14683,-0.02525c0.83568,0.00984 1.71352,0.4761 1.71352,0.4761c0,0 0.85565,1.33601 0.85565,2.47971c0,15.66173 0.52483,37.51646 0.47259,39.89662c-0.01738,0.79339 -1.11435,2.03296 -1.11435,2.03296c0,0 -1.17395,1.12714 -1.92528,1.12714c0,0 -36.80393,0.11725 -39.56865,0.05404c-0.92161,-0.0211 -1.93353,-0.95578 -1.93353,-0.95578z" data-paper-data="{&quot;origPos&quot;:null}" fill="#cecee7" stroke="#000000" stroke-width="0"/><text transform="translate(92.84272,49.15213) scale(0.37208,0.37208)" font-size="40" xml:space="preserve" data-paper-data="{&quot;origPos&quot;:null}" fill="#000000" fill-rule="nonzero" stroke="none" stroke-width="1" stroke-linecap="butt" stroke-linejoin="miter" stroke-miterlimit="10" stroke-dasharray="" stroke-dashoffset="0" font-family="Serif" font-weight="normal" text-anchor="start" style="mix-blend-mode: normal"><tspan x="0" dy="0">Red</tspan></text><text transform="translate(129.7054,49.15213) scale(0.31981,0.37208)" font-size="40" xml:space="preserve" data-paper-data="{&quot;origPos&quot;:null}" fill="#000000" fill-rule="nonzero" stroke="none" stroke-width="1" stroke-linecap="butt" stroke-linejoin="miter" stroke-miterlimit="10" stroke-dasharray="" stroke-dashoffset="0" font-family="Serif" font-weight="normal" text-anchor="start" style="mix-blend-mode: normal"><tspan x="0" dy="0">Orange</tspan></text><text transform="translate(176.91549,49.15213) scale(0.31981,0.37208)" font-size="40" xml:space="preserve" data-paper-data="{&quot;origPos&quot;:null}" fill="#000000" fill-rule="nonzero" stroke="none" stroke-width="1" stroke-linecap="butt" stroke-linejoin="miter" stroke-miterlimit="10" stroke-dasharray="" stroke-dashoffset="0" font-family="Serif" font-weight="normal" text-anchor="start" style="mix-blend-mode: normal"><tspan x="0" dy="0">Yellow</tspan></text><text transform="translate(222.83215,49.15213) scale(0.31981,0.37208)" font-size="40" xml:space="preserve" data-paper-data="{&quot;origPos&quot;:null}" fill="#000000" fill-rule="nonzero" stroke="none" stroke-width="1" stroke-linecap="butt" stroke-linejoin="miter" stroke-miterlimit="10" stroke-dasharray="" stroke-dashoffset="0" font-family="Serif" font-weight="normal" text-anchor="start" style="mix-blend-mode: normal"><tspan x="0" dy="0">Green</tspan></text><text transform="translate(264.22183,49.79885) scale(0.2829,0.37208)" font-size="40" xml:space="preserve" data-paper-data="{&quot;origPos&quot;:null}" fill="#000000" fill-rule="nonzero" stroke="none" stroke-width="1" stroke-linecap="butt" stroke-linejoin="miter" stroke-miterlimit="10" stroke-dasharray="" stroke-dashoffset="0" font-family="Serif" font-weight="normal" text-anchor="start" style="mix-blend-mode: normal"><tspan x="0" dy="0">Sky Blue</tspan></text><text transform="translate(311.4319,49.79885) scale(0.31981,0.37208)" font-size="40" xml:space="preserve" data-paper-data="{&quot;origPos&quot;:null}" fill="#000000" fill-rule="nonzero" stroke="none" stroke-width="1" stroke-linecap="butt" stroke-linejoin="miter" stroke-miterlimit="10" stroke-dasharray="" stroke-dashoffset="0" font-family="Serif" font-weight="normal" text-anchor="start" style="mix-blend-mode: normal"><tspan x="0" dy="0">Indigo</tspan></text><text transform="translate(352.17488,50.44556) scale(0.31981,0.37208)" font-size="40" xml:space="preserve" data-paper-data="{&quot;origPos&quot;:null}" fill="#000000" fill-rule="nonzero" stroke="none" stroke-width="1" stroke-linecap="butt" stroke-linejoin="miter" stroke-miterlimit="10" stroke-dasharray="" stroke-dashoffset="0" font-family="Serif" font-weight="normal" text-anchor="start" style="mix-blend-mode: normal"><tspan x="0" dy="0">Violette</tspan></text><text transform="translate(91.5493,93.77537) scale(0.37208,0.37208)" font-size="40" xml:space="preserve" data-paper-data="{&quot;origPos&quot;:null}" fill="#000000" fill-rule="nonzero" stroke="none" stroke-width="1" stroke-linecap="butt" stroke-linejoin="miter" stroke-miterlimit="10" stroke-dasharray="" stroke-dashoffset="0" font-family="Serif" font-weight="normal" text-anchor="start" style="mix-blend-mode: normal"><tspan x="0" dy="0">Pink</tspan></text><text transform="translate(130.35211,77.04165) scale(0.37208,0.22494)" font-size="40" xml:space="preserve" data-paper-data="{&quot;origPos&quot;:null}" fill="#000000" fill-rule="nonzero" stroke="none" stroke-width="1" stroke-linecap="butt" stroke-linejoin="miter" stroke-miterlimit="10" stroke-dasharray="" stroke-dashoffset="0" font-family="Serif" font-weight="normal" text-anchor="start" style="mix-blend-mode: normal"><tspan x="0" dy="0">Dark</tspan><tspan x="0" dy="46.150000000000006px">Shade</tspan><tspan x="0" dy="46.150000000000006px">of</tspan><tspan x="0" dy="46.150000000000006px">Grey</tspan></text><text transform="translate(173.68192,77.04165) scale(0.26026,0.22494)" font-size="40" xml:space="preserve" data-paper-data="{&quot;origPos&quot;:null}" fill="#000000" fill-rule="nonzero" stroke="none" stroke-width="1" stroke-linecap="butt" stroke-linejoin="miter" stroke-miterlimit="10" stroke-dasharray="" stroke-dashoffset="0" font-family="Serif" font-weight="normal" text-anchor="start" style="mix-blend-mode: normal"><tspan x="0" dy="0">Mediocre</tspan><tspan x="0" dy="46.150000000000006px">Shade</tspan><tspan x="0" dy="46.150000000000006px">of</tspan><tspan x="0" dy="46.150000000000006px">Grey</tspan></text><text transform="translate(219.59859,77.68836) scale(0.37208,0.22494)" font-size="40" xml:space="preserve" data-paper-data="{&quot;origPos&quot;:null}" fill="#000000" fill-rule="nonzero" stroke="none" stroke-width="1" stroke-linecap="butt" stroke-linejoin="miter" stroke-miterlimit="10" stroke-dasharray="" stroke-dashoffset="0" font-family="Serif" font-weight="normal" text-anchor="start" style="mix-blend-mode: normal"><tspan x="0" dy="0">Light</tspan><tspan x="0" dy="46.150000000000006px">Shade</tspan><tspan x="0" dy="46.150000000000006px">of</tspan><tspan x="0" dy="46.150000000000006px">Grey</tspan></text><text transform="translate(264.22183,86.01481) scale(0.1936,0.37208)" font-size="40" xml:space="preserve" data-paper-data="{&quot;origPos&quot;:null}" fill="#000000" fill-rule="nonzero" stroke="none" stroke-width="1" stroke-linecap="butt" stroke-linejoin="miter" stroke-miterlimit="10" stroke-dasharray="" stroke-dashoffset="0" font-family="Serif" font-weight="normal" text-anchor="start" style="mix-blend-mode: normal"><tspan x="0" dy="0">Very Light</tspan><tspan x="0" dy="46.150000000000006px">Salmon Red</tspan></text><text transform="translate(308.19834,93.77537) scale(0.31981,0.37208)" font-size="40" xml:space="preserve" data-paper-data="{&quot;origPos&quot;:null}" fill="#000000" fill-rule="nonzero" stroke="none" stroke-width="1" stroke-linecap="butt" stroke-linejoin="miter" stroke-miterlimit="10" stroke-dasharray="" stroke-dashoffset="0" font-family="Serif" font-weight="normal" text-anchor="start" style="mix-blend-mode: normal"><tspan x="0" dy="0">Apricot</tspan></text><text transform="translate(354.11502,94.42209) scale(0.40646,0.37208)" font-size="40" xml:space="preserve" data-paper-data="{&quot;origPos&quot;:null}" fill="#000000" fill-rule="nonzero" stroke="none" stroke-width="1" stroke-linecap="butt" stroke-linejoin="miter" stroke-miterlimit="10" stroke-dasharray="" stroke-dashoffset="0" font-family="Serif" font-weight="normal" text-anchor="start" style="mix-blend-mode: normal"><tspan x="0" dy="0">Beige</tspan></text><path d="M350.9386,157.30265c0,0 -0.68995,-0.62007 -0.72053,-2.02698c-0.09181,-4.22066 -0.1352,-25.21746 -0.1352,-40.35353c0,-1.14366 0.85573,-2.2543 0.85573,-2.2543c0,0 1.43479,-0.45085 2.35315,-0.45085c15.11145,0 36.6397,-0.05471 39.14684,-0.02525c0.83568,0.00984 1.71352,0.4761 1.71352,0.4761c0,0 0.85565,1.33601 0.85565,2.47971c0,15.66173 0.52483,37.51646 0.47259,39.89662c-0.0174,0.79339 -1.11435,2.03296 -1.11435,2.03296c0,0 -1.17397,1.12714 -1.92529,1.12714c0,0 -36.80393,0.11725 -39.56865,0.05404c-0.92161,-0.0211 -1.93345,-0.95578 -1.93345,-0.95578z" data-paper-data="{&quot;origPos&quot;:null}" fill="#ffa3ae" stroke="#000000" stroke-width="0"/><path d="M306.34409,157.30265c0,0 -0.68988,-0.62007 -0.72053,-2.02698c-0.09181,-4.22066 -0.1352,-25.21746 -0.1352,-40.35353c0,-1.14366 0.85573,-2.2543 0.85573,-2.2543c0,0 1.43486,-0.45085 2.35322,-0.45085c15.11145,0 36.63962,-0.05471 39.14676,-0.02525c0.8357,0.00984 1.71352,0.4761 1.71352,0.4761c0,0 0.85573,1.33601 0.85573,2.47971c0,15.66173 0.52476,37.51646 0.47259,39.89662c-0.01738,0.79339 -1.11435,2.03296 -1.11435,2.03296c0,0 -1.17397,1.12714 -1.92536,1.12714c0,0 -36.80393,0.11725 -39.56859,0.05404c-0.92159,-0.0211 -1.93353,-0.95578 -1.93353,-0.95578z" data-paper-data="{&quot;origPos&quot;:null}" fill="#ddd8f0" stroke="#000000" stroke-width="0"/><path d="M261.74958,157.30265c0,0 -0.68995,-0.62007 -0.72053,-2.02698c-0.09181,-4.22066 -0.1352,-25.21746 -0.1352,-40.35353c0,-1.14366 0.85573,-2.2543 0.85573,-2.2543c0,0 1.43486,-0.45085 2.35322,-0.45085c15.11145,0 36.63961,-0.05471 39.14676,-0.02525c0.83568,0.00984 1.71352,0.4761 1.71352,0.4761c0,0 0.85573,1.33601 0.85573,2.47971c0,15.66173 0.52476,37.51646 0.47259,39.89662c-0.0174,0.79339 -1.11435,2.03296 -1.11435,2.03296c0,0 -1.17395,1.12714 -1.92536,1.12714c0,0 -36.80393,0.11725 -39.56858,0.05404c-0.92161,-0.0211 -1.93353,-0.95578 -1.93353,-0.95578z" data-paper-data="{&quot;origPos&quot;:null}" fill="#ff70e7" stroke="#000000" stroke-width="0"/><path d="M83.37172,157.30265c0,0 -0.68995,-0.62007 -0.72053,-2.02698c-0.09181,-4.22066 -0.1352,-25.21746 -0.1352,-40.35353c0,-1.14366 0.85573,-2.2543 0.85573,-2.2543c0,0 1.43486,-0.45085 2.35322,-0.45085c15.11145,0 36.63969,-0.05471 39.14683,-0.02525c0.8357,0.00984 1.71352,0.4761 1.71352,0.4761c0,0 0.85565,1.33601 0.85565,2.47971c0,15.66173 0.52483,37.51646 0.47259,39.89662c-0.0174,0.79339 -1.11435,2.03296 -1.11435,2.03296c0,0 -1.17395,1.12714 -1.92536,1.12714c0,0 -36.80393,0.11725 -39.56858,0.05404c-0.92161,-0.0211 -1.93353,-0.95578 -1.93353,-0.95578z" data-paper-data="{&quot;origPos&quot;:null}" fill="#a0f075" stroke="#000000" stroke-width="0"/><path d="M127.96614,157.30265c0,0 -0.68995,-0.62007 -0.72053,-2.02698c-0.09181,-4.22066 -0.1352,-25.21746 -0.1352,-40.35353c0,-1.14366 0.85573,-2.2543 0.85573,-2.2543c0,0 1.43485,-0.45085 2.35321,-0.45085c15.11145,0 36.63962,-0.05471 39.14676,-0.02525c0.8357,0.00984 1.71352,0.4761 1.71352,0.4761c0,0 0.85573,1.33601 0.85573,2.47971c0,15.66173 0.52476,37.51646 0.47259,39.89662c-0.01738,0.79339 -1.11435,2.03296 -1.11435,2.03296c0,0 -1.17397,1.12714 -1.92536,1.12714c0,0 -36.80393,0.11725 -39.56859,0.05404c-0.92159,-0.0211 -1.93353,-0.95578 -1.93353,-0.95578z" data-paper-data="{&quot;origPos&quot;:null}" fill="#7ddaff" stroke="#000000" stroke-width="0"/><path d="M172.56065,157.30265c0,0 -0.68988,-0.62007 -0.72045,-2.02698c-0.09181,-4.22066 -0.1352,-25.21746 -0.1352,-40.35353c0,-1.14366 0.85565,-2.2543 0.85565,-2.2543c0,0 1.43486,-0.45085 2.35322,-0.45085c15.11145,0 36.63961,-0.05471 39.14676,-0.02525c0.8357,0.00984 1.71352,0.4761 1.71352,0.4761c0,0 0.85573,1.33601 0.85573,2.47971c0,15.66173 0.52476,37.51646 0.47259,39.89662c-0.0174,0.79339 -1.11435,2.03296 -1.11435,2.03296c0,0 -1.17397,1.12714 -1.92536,1.12714c0,0 -36.80393,0.11725 -39.56858,0.05404c-0.92159,-0.0211 -1.93353,-0.95578 -1.93353,-0.95578z" data-paper-data="{&quot;origPos&quot;:null}" fill="#a275f0" stroke="#000000" stroke-width="0"/><path d="M217.15516,157.30265c0,0 -0.68988,-0.62007 -0.72053,-2.02698c-0.09181,-4.22066 -0.1352,-25.21746 -0.1352,-40.35353c0,-1.14366 0.85573,-2.2543 0.85573,-2.2543c0,0 1.43486,-0.45085 2.35322,-0.45085c15.11145,0 36.63969,-0.05471 39.14683,-0.02525c0.83568,0.00984 1.71352,0.4761 1.71352,0.4761c0,0 0.85565,1.33601 0.85565,2.47971c0,15.66173 0.52483,37.51646 0.47259,39.89662c-0.01738,0.79339 -1.11435,2.03296 -1.11435,2.03296c0,0 -1.17395,1.12714 -1.92528,1.12714c0,0 -36.80393,0.11725 -39.56865,0.05404c-0.92161,-0.0211 -1.93353,-0.95578 -1.93353,-0.95578z" data-paper-data="{&quot;origPos&quot;:null}" fill="#dc75f0" stroke="#000000" stroke-width="0"/><text transform="translate(87.0223,139.69204) scale(0.37208,0.37208)" font-size="40" xml:space="preserve" data-paper-data="{&quot;origPos&quot;:null}" fill="#000000" fill-rule="nonzero" stroke="none" stroke-width="1" stroke-linecap="butt" stroke-linejoin="miter" stroke-miterlimit="10" stroke-dasharray="" stroke-dashoffset="0" font-family="Serif" font-weight="normal" text-anchor="start" style="mix-blend-mode: normal"><tspan x="0" dy="0">Limeg</tspan></text><text transform="translate(135.52582,140.98547) scale(0.37208,0.37208)" font-size="40" xml:space="preserve" data-paper-data="{&quot;origPos&quot;:null}" fill="#000000" fill-rule="nonzero" stroke="none" stroke-width="1" stroke-linecap="butt" stroke-linejoin="miter" stroke-miterlimit="10" stroke-dasharray="" stroke-dashoffset="0" font-family="Serif" font-weight="normal" text-anchor="start" style="mix-blend-mode: normal"><tspan x="0" dy="0">Rain</tspan></text><text transform="translate(174.32864,140.98547) scale(0.24892,0.37208)" font-size="40" xml:space="preserve" data-paper-data="{&quot;origPos&quot;:null}" fill="#000000" fill-rule="nonzero" stroke="none" stroke-width="1" stroke-linecap="butt" stroke-linejoin="miter" stroke-miterlimit="10" stroke-dasharray="" stroke-dashoffset="0" font-family="Serif" font-weight="normal" text-anchor="start" style="mix-blend-mode: normal"><tspan x="0" dy="0">Amethyst</tspan></text><text transform="translate(224.7723,140.98547) scale(0.37208,0.37208)" font-size="40" xml:space="preserve" data-paper-data="{&quot;origPos&quot;:null}" fill="#000000" fill-rule="nonzero" stroke="none" stroke-width="1" stroke-linecap="butt" stroke-linejoin="miter" stroke-miterlimit="10" stroke-dasharray="" stroke-dashoffset="0" font-family="Serif" font-weight="normal" text-anchor="start" style="mix-blend-mode: normal"><tspan x="0" dy="0">Lilac</tspan></text><text transform="translate(264.86854,140.98547) scale(0.37208,0.37208)" font-size="40" xml:space="preserve" data-paper-data="{&quot;origPos&quot;:null}" fill="#000000" fill-rule="nonzero" stroke="none" stroke-width="1" stroke-linecap="butt" stroke-linejoin="miter" stroke-miterlimit="10" stroke-dasharray="" stroke-dashoffset="0" font-family="Serif" font-weight="normal" text-anchor="start" style="mix-blend-mode: normal"><tspan x="0" dy="0">Peony</tspan></text><text transform="translate(308.19834,120.8565) scale(0.37208,0.1829)" font-size="40" xml:space="preserve" data-paper-data="{&quot;origPos&quot;:null}" fill="#000000" fill-rule="nonzero" stroke="none" stroke-width="1" stroke-linecap="butt" stroke-linejoin="miter" stroke-miterlimit="10" stroke-dasharray="" stroke-dashoffset="0" font-family="Serif" font-weight="normal" text-anchor="start" style="mix-blend-mode: normal"><tspan x="0" dy="0">Very</tspan><tspan x="0" dy="46.150000000000006px">Light</tspan><tspan x="0" dy="46.150000000000006px">Shade</tspan><tspan x="0" dy="46.150000000000006px">of</tspan><tspan x="0" dy="46.150000000000006px">Grey</tspan></text><text transform="translate(354.76173,141.63216) scale(0.18711,0.37208)" font-size="40" xml:space="preserve" data-paper-data="{&quot;origPos&quot;:null}" fill="#000000" fill-rule="nonzero" stroke="none" stroke-width="1" stroke-linecap="butt" stroke-linejoin="miter" stroke-miterlimit="10" stroke-dasharray="" stroke-dashoffset="0" font-family="Serif" font-weight="normal" text-anchor="start" style="mix-blend-mode: normal"><tspan x="0" dy="0">Salmon Red</tspan></text><text transform="translate(85.08216,177.20143) scale(0.1936,0.37208)" font-size="40" xml:space="preserve" data-paper-data="{&quot;origPos&quot;:null}" fill="#000000" fill-rule="nonzero" stroke="none" stroke-width="1" stroke-linecap="butt" stroke-linejoin="miter" stroke-miterlimit="10" stroke-dasharray="" stroke-dashoffset="0" font-family="Serif" font-weight="normal" text-anchor="start" style="mix-blend-mode: normal"><tspan x="0" dy="0">Light</tspan><tspan x="0" dy="46.150000000000006px">Salmon Red</tspan></text><text transform="translate(130.35211,176.55471) scale(0.30239,0.37208)" font-size="40" xml:space="preserve" data-paper-data="{&quot;origPos&quot;:null}" fill="#000000" fill-rule="nonzero" stroke="none" stroke-width="1" stroke-linecap="butt" stroke-linejoin="miter" stroke-miterlimit="10" stroke-dasharray="" stroke-dashoffset="0" font-family="Serif" font-weight="normal" text-anchor="start" style="mix-blend-mode: normal"><tspan x="0" dy="0">Light</tspan><tspan x="0" dy="46.150000000000006px">Apricot</tspan></text><text transform="translate(178.85562,177.20143) scale(0.37048,0.37208)" font-size="40" xml:space="preserve" data-paper-data="{&quot;origPos&quot;:null}" fill="#000000" fill-rule="nonzero" stroke="none" stroke-width="1" stroke-linecap="butt" stroke-linejoin="miter" stroke-miterlimit="10" stroke-dasharray="" stroke-dashoffset="0" font-family="Serif" font-weight="normal" text-anchor="start" style="mix-blend-mode: normal"><tspan x="0" dy="0">Solar</tspan><tspan x="0" dy="46.150000000000006px">Wind</tspan></text><text transform="translate(220.89201,177.20143) scale(0.37208,0.37208)" font-size="40" xml:space="preserve" data-paper-data="{&quot;origPos&quot;:null}" fill="#000000" fill-rule="nonzero" stroke="none" stroke-width="1" stroke-linecap="butt" stroke-linejoin="miter" stroke-miterlimit="10" stroke-dasharray="" stroke-dashoffset="0" font-family="Serif" font-weight="normal" text-anchor="start" style="mix-blend-mode: normal"><tspan x="0" dy="0">Light</tspan><tspan x="0" dy="46.150000000000006px">Limeg</tspan></text><text transform="translate(264.22183,184.96199) scale(0.26824,0.37208)" font-size="40" xml:space="preserve" data-paper-data="{&quot;origPos&quot;:null}" fill="#000000" fill-rule="nonzero" stroke="none" stroke-width="1" stroke-linecap="butt" stroke-linejoin="miter" stroke-miterlimit="10" stroke-dasharray="" stroke-dashoffset="0" font-family="Serif" font-weight="normal" text-anchor="start" style="mix-blend-mode: normal"><tspan x="0" dy="0">Chlorine</tspan></text><text transform="translate(308.19834,184.96199) scale(0.22735,0.37208)" font-size="40" xml:space="preserve" data-paper-data="{&quot;origPos&quot;:null}" fill="#000000" fill-rule="nonzero" stroke="none" stroke-width="1" stroke-linecap="butt" stroke-linejoin="miter" stroke-miterlimit="10" stroke-dasharray="" stroke-dashoffset="0" font-family="Serif" font-weight="normal" text-anchor="start" style="mix-blend-mode: normal"><tspan x="0" dy="0">Whiteberry</tspan></text><text transform="translate(353.46829,184.96199) scale(0.26692,0.37208)" font-size="40" xml:space="preserve" data-paper-data="{&quot;origPos&quot;:null}" fill="#000000" fill-rule="nonzero" stroke="none" stroke-width="1" stroke-linecap="butt" stroke-linejoin="miter" stroke-miterlimit="10" stroke-dasharray="" stroke-dashoffset="0" font-family="Serif" font-weight="normal" text-anchor="start" style="mix-blend-mode: normal"><tspan x="0" dy="0">Lavender</tspan></text><path d="M350.9386,247.84257c0,0 -0.68995,-0.62007 -0.72053,-2.02698c-0.09181,-4.22066 -0.1352,-25.21746 -0.1352,-40.35353c0,-1.14366 0.85573,-2.2543 0.85573,-2.2543c0,0 1.43479,-0.45085 2.35315,-0.45085c15.11145,0 36.6397,-0.05471 39.14684,-0.02525c0.83568,0.00984 1.71352,0.4761 1.71352,0.4761c0,0 0.85565,1.33601 0.85565,2.47971c0,15.66173 0.52483,37.51646 0.47259,39.89662c-0.0174,0.79339 -1.11435,2.03296 -1.11435,2.03296c0,0 -1.17397,1.12714 -1.92529,1.12714c0,0 -36.80393,0.11725 -39.56865,0.05404c-0.92161,-0.0211 -1.93345,-0.95578 -1.93345,-0.95578z" data-paper-data="{&quot;origPos&quot;:null}" fill="#200080" stroke="#000000" stroke-width="0"/><path d="M306.34409,247.84257c0,0 -0.68988,-0.62007 -0.72053,-2.02698c-0.09181,-4.22066 -0.1352,-25.21746 -0.1352,-40.35353c0,-1.14366 0.85573,-2.2543 0.85573,-2.2543c0,0 1.43486,-0.45085 2.35322,-0.45085c15.11145,0 36.63962,-0.05471 39.14676,-0.02525c0.8357,0.00984 1.71352,0.4761 1.71352,0.4761c0,0 0.85573,1.33601 0.85573,2.47971c0,15.66173 0.52476,37.51646 0.47259,39.89662c-0.01738,0.79339 -1.11435,2.03296 -1.11435,2.03296c0,0 -1.17397,1.12714 -1.92536,1.12714c0,0 -36.80393,0.11725 -39.56859,0.05404c-0.92159,-0.0211 -1.93353,-0.95578 -1.93353,-0.95578z" data-paper-data="{&quot;origPos&quot;:null}" fill="#2a7900" stroke="#000000" stroke-width="0"/><path d="M261.74958,247.84257c0,0 -0.68995,-0.62007 -0.72053,-2.02698c-0.09181,-4.22066 -0.1352,-25.21746 -0.1352,-40.35353c0,-1.14366 0.85573,-2.2543 0.85573,-2.2543c0,0 1.43486,-0.45085 2.35322,-0.45085c15.11145,0 36.63961,-0.05471 39.14676,-0.02525c0.83568,0.00984 1.71352,0.4761 1.71352,0.4761c0,0 0.85573,1.33601 0.85573,2.47971c0,15.66173 0.52476,37.51646 0.47259,39.89662c-0.0174,0.79339 -1.11435,2.03296 -1.11435,2.03296c0,0 -1.17395,1.12714 -1.92536,1.12714c0,0 -36.80393,0.11725 -39.56858,0.05404c-0.92161,-0.0211 -1.93353,-0.95578 -1.93353,-0.95578z" data-paper-data="{&quot;origPos&quot;:null}" fill="#6f6111" stroke="#000000" stroke-width="0"/><path d="M83.37172,247.84257c0,0 -0.68995,-0.62007 -0.72053,-2.02698c-0.09181,-4.22066 -0.1352,-25.21746 -0.1352,-40.35353c0,-1.14366 0.85573,-2.2543 0.85573,-2.2543c0,0 1.43486,-0.45085 2.35322,-0.45085c15.11145,0 36.63969,-0.05471 39.14683,-0.02525c0.8357,0.00984 1.71352,0.4761 1.71352,0.4761c0,0 0.85565,1.33601 0.85565,2.47971c0,15.66173 0.52483,37.51646 0.47259,39.89662c-0.0174,0.79339 -1.11435,2.03296 -1.11435,2.03296c0,0 -1.17395,1.12714 -1.92536,1.12714c0,0 -36.80393,0.11725 -39.56858,0.05404c-0.92161,-0.0211 -1.93353,-0.95578 -1.93353,-0.95578z" data-paper-data="{&quot;origPos&quot;:null}" fill="#ffa8f1" stroke="#000000" stroke-width="0"/><path d="M127.96614,247.84257c0,0 -0.68995,-0.62007 -0.72053,-2.02698c-0.09181,-4.22066 -0.1352,-25.21746 -0.1352,-40.35353c0,-1.14366 0.85573,-2.2543 0.85573,-2.2543c0,0 1.43485,-0.45085 2.35321,-0.45085c15.11145,0 36.63962,-0.05471 39.14676,-0.02525c0.8357,0.00984 1.71352,0.4761 1.71352,0.4761c0,0 0.85573,1.33601 0.85573,2.47971c0,15.66173 0.52476,37.51646 0.47259,39.89662c-0.01738,0.79339 -1.11435,2.03296 -1.11435,2.03296c0,0 -1.17397,1.12714 -1.92536,1.12714c0,0 -36.80393,0.11725 -39.56859,0.05404c-0.92159,-0.0211 -1.93353,-0.95578 -1.93353,-0.95578z" data-paper-data="{&quot;origPos&quot;:null}" fill="#f2eeff" stroke="#000000" stroke-width="0"/><path d="M172.56065,247.84257c0,0 -0.68988,-0.62007 -0.72045,-2.02698c-0.09181,-4.22066 -0.1352,-25.21746 -0.1352,-40.35353c0,-1.14366 0.85565,-2.2543 0.85565,-2.2543c0,0 1.43486,-0.45085 2.35322,-0.45085c15.11145,0 36.63961,-0.05471 39.14676,-0.02525c0.8357,0.00984 1.71352,0.4761 1.71352,0.4761c0,0 0.85573,1.33601 0.85573,2.47971c0,15.66173 0.52476,37.51646 0.47259,39.89662c-0.0174,0.79339 -1.11435,2.03296 -1.11435,2.03296c0,0 -1.17397,1.12714 -1.92536,1.12714c0,0 -36.80393,0.11725 -39.56858,0.05404c-0.92159,-0.0211 -1.93353,-0.95578 -1.93353,-0.95578z" data-paper-data="{&quot;origPos&quot;:null}" fill="#a21828" stroke="#000000" stroke-width="0"/><path d="M217.15516,247.84257c0,0 -0.68988,-0.62007 -0.72053,-2.02698c-0.09181,-4.22066 -0.1352,-25.21746 -0.1352,-40.35353c0,-1.14366 0.85573,-2.2543 0.85573,-2.2543c0,0 1.43486,-0.45085 2.35322,-0.45085c15.11145,0 36.63969,-0.05471 39.14683,-0.02525c0.83568,0.00984 1.71352,0.4761 1.71352,0.4761c0,0 0.85565,1.33601 0.85565,2.47971c0,15.66173 0.52483,37.51646 0.47259,39.89662c-0.01738,0.79339 -1.11435,2.03296 -1.11435,2.03296c0,0 -1.17395,1.12714 -1.92528,1.12714c0,0 -36.80393,0.11725 -39.56865,0.05404c-0.92161,-0.0211 -1.93353,-0.95578 -1.93353,-0.95578z" data-paper-data="{&quot;origPos&quot;:null}" fill="#a25b18" stroke="#000000" stroke-width="0"/><text transform="translate(87.0223,220.53124) scale(0.33628,0.37208)" font-size="40" xml:space="preserve" data-paper-data="{&quot;origPos&quot;:null}" fill="#000000" fill-rule="nonzero" stroke="none" stroke-width="1" stroke-linecap="butt" stroke-linejoin="miter" stroke-miterlimit="10" stroke-dasharray="" stroke-dashoffset="0" font-family="Serif" font-weight="normal" text-anchor="start" style="mix-blend-mode: normal"><tspan x="0" dy="0">Light</tspan><tspan x="0" dy="46.150000000000006px">Peony</tspan></text><text transform="translate(129.7054,221.56632) scale(0.33843,0.33843)" font-size="40" xml:space="preserve" data-paper-data="{&quot;origPos&quot;:null}" fill="#000000" fill-rule="nonzero" stroke="none" stroke-width="1" stroke-linecap="butt" stroke-linejoin="miter" stroke-miterlimit="10" stroke-dasharray="" stroke-dashoffset="0" font-family="Serif" font-weight="normal" text-anchor="start" style="mix-blend-mode: normal"><tspan x="0" dy="0">Almost</tspan><tspan x="0" dy="46.150000000000006px">White</tspan></text><path d="M350.9386,293.11252c0,0 -0.68995,-0.62007 -0.72053,-2.02698c-0.09181,-4.22066 -0.1352,-25.21746 -0.1352,-40.35353c0,-1.14366 0.85573,-2.2543 0.85573,-2.2543c0,0 1.43479,-0.45085 2.35315,-0.45085c15.11145,0 36.6397,-0.05471 39.14684,-0.02525c0.83568,0.00984 1.71352,0.4761 1.71352,0.4761c0,0 0.85565,1.33601 0.85565,2.47971c0,15.66173 0.52483,37.51646 0.47259,39.89662c-0.0174,0.79339 -1.11435,2.03296 -1.11435,2.03296c0,0 -1.17397,1.12714 -1.92529,1.12714c0,0 -36.80393,0.11725 -39.56865,0.05404c-0.92161,-0.0211 -1.93345,-0.95578 -1.93345,-0.95578z" data-paper-data="{&quot;origPos&quot;:null}" fill="#8eff26" stroke="#000000" stroke-width="0"/><path d="M306.34409,293.11252c0,0 -0.68988,-0.62007 -0.72053,-2.02698c-0.09181,-4.22066 -0.1352,-25.21746 -0.1352,-40.35353c0,-1.14366 0.85573,-2.2543 0.85573,-2.2543c0,0 1.43486,-0.45085 2.35322,-0.45085c15.11145,0 36.63962,-0.05471 39.14676,-0.02525c0.8357,0.00984 1.71352,0.4761 1.71352,0.4761c0,0 0.85573,1.33601 0.85573,2.47971c0,15.66173 0.52476,37.51646 0.47259,39.89662c-0.01738,0.79339 -1.11435,2.03296 -1.11435,2.03296c0,0 -1.17397,1.12714 -1.92536,1.12714c0,0 -36.80393,0.11725 -39.56859,0.05404c-0.92159,-0.0211 -1.93353,-0.95578 -1.93353,-0.95578z" data-paper-data="{&quot;origPos&quot;:null}" fill="#ffba26" stroke="#000000" stroke-width="0"/><path d="M261.74958,293.11252c0,0 -0.68995,-0.62007 -0.72053,-2.02698c-0.09181,-4.22066 -0.1352,-25.21746 -0.1352,-40.35353c0,-1.14366 0.85573,-2.2543 0.85573,-2.2543c0,0 1.43486,-0.45085 2.35322,-0.45085c15.11145,0 36.63961,-0.05471 39.14676,-0.02525c0.83568,0.00984 1.71352,0.4761 1.71352,0.4761c0,0 0.85573,1.33601 0.85573,2.47971c0,15.66173 0.52476,37.51646 0.47259,39.89662c-0.0174,0.79339 -1.11435,2.03296 -1.11435,2.03296c0,0 -1.17395,1.12714 -1.92536,1.12714c0,0 -36.80393,0.11725 -39.56858,0.05404c-0.92161,-0.0211 -1.93353,-0.95578 -1.93353,-0.95578z" data-paper-data="{&quot;origPos&quot;:null}" fill="#ff5b26" stroke="#000000" stroke-width="0"/><path d="M83.37172,293.11252c0,0 -0.68995,-0.62007 -0.72053,-2.02698c-0.09181,-4.22066 -0.1352,-25.21746 -0.1352,-40.35353c0,-1.14366 0.85573,-2.2543 0.85573,-2.2543c0,0 1.43486,-0.45085 2.35322,-0.45085c15.11145,0 36.63969,-0.05471 39.14683,-0.02525c0.8357,0.00984 1.71352,0.4761 1.71352,0.4761c0,0 0.85565,1.33601 0.85565,2.47971c0,15.66173 0.52483,37.51646 0.47259,39.89662c-0.0174,0.79339 -1.11435,2.03296 -1.11435,2.03296c0,0 -1.17395,1.12714 -1.92536,1.12714c0,0 -36.80393,0.11725 -39.56858,0.05404c-0.92161,-0.0211 -1.93353,-0.95578 -1.93353,-0.95578z" data-paper-data="{&quot;origPos&quot;:null}" fill="#230049" stroke="#000000" stroke-width="0"/><path d="M127.96614,293.11252c0,0 -0.68995,-0.62007 -0.72053,-2.02698c-0.09181,-4.22066 -0.1352,-25.21746 -0.1352,-40.35353c0,-1.14366 0.85573,-2.2543 0.85573,-2.2543c0,0 1.43485,-0.45085 2.35321,-0.45085c15.11145,0 36.63962,-0.05471 39.14676,-0.02525c0.8357,0.00984 1.71352,0.4761 1.71352,0.4761c0,0 0.85573,1.33601 0.85573,2.47971c0,15.66173 0.52476,37.51646 0.47259,39.89662c-0.01738,0.79339 -1.11435,2.03296 -1.11435,2.03296c0,0 -1.17397,1.12714 -1.92536,1.12714c0,0 -36.80393,0.11725 -39.56859,0.05404c-0.92159,-0.0211 -1.93353,-0.95578 -1.93353,-0.95578z" data-paper-data="{&quot;origPos&quot;:null}" fill="#671272" stroke="#000000" stroke-width="0"/><path d="M172.56065,293.11252c0,0 -0.68988,-0.62007 -0.72045,-2.02698c-0.09181,-4.22066 -0.1352,-25.21746 -0.1352,-40.35353c0,-1.14366 0.85565,-2.2543 0.85565,-2.2543c0,0 1.43486,-0.45085 2.35322,-0.45085c15.11145,0 36.63961,-0.05471 39.14676,-0.02525c0.8357,0.00984 1.71352,0.4761 1.71352,0.4761c0,0 0.85573,1.33601 0.85573,2.47971c0,15.66173 0.52476,37.51646 0.47259,39.89662c-0.0174,0.79339 -1.11435,2.03296 -1.11435,2.03296c0,0 -1.17397,1.12714 -1.92536,1.12714c0,0 -36.80393,0.11725 -39.56858,0.05404c-0.92159,-0.0211 -1.93353,-0.95578 -1.93353,-0.95578z" data-paper-data="{&quot;origPos&quot;:null}" fill="#791268" stroke="#000000" stroke-width="0"/><path d="M217.15516,293.11252c0,0 -0.68988,-0.62007 -0.72053,-2.02698c-0.09181,-4.22066 -0.1352,-25.21746 -0.1352,-40.35353c0,-1.14366 0.85573,-2.2543 0.85573,-2.2543c0,0 1.43486,-0.45085 2.35322,-0.45085c15.11145,0 36.63969,-0.05471 39.14683,-0.02525c0.83568,0.00984 1.71352,0.4761 1.71352,0.4761c0,0 0.85565,1.33601 0.85565,2.47971c0,15.66173 0.52483,37.51646 0.47259,39.89662c-0.01738,0.79339 -1.11435,2.03296 -1.11435,2.03296c0,0 -1.17395,1.12714 -1.92528,1.12714c0,0 -36.80393,0.11725 -39.56865,0.05404c-0.92161,-0.0211 -1.93353,-0.95578 -1.93353,-0.95578z" data-paper-data="{&quot;origPos&quot;:null}" fill="#232326" stroke="#000000" stroke-width="0"/><text transform="translate(219.59859,267.48298) scale(0.33843,0.33843)" font-size="40" xml:space="preserve" data-paper-data="{&quot;origPos&quot;:null}" fill="#f2eeff" fill-rule="nonzero" stroke="none" stroke-width="1" stroke-linecap="butt" stroke-linejoin="miter" stroke-miterlimit="10" stroke-dasharray="" stroke-dashoffset="0" font-family="Serif" font-weight="normal" text-anchor="start" style="mix-blend-mode: normal"><tspan x="0" dy="0">Almost</tspan><tspan x="0" dy="46.150000000000006px">Black</tspan></text><text transform="translate(173.68192,229.97359) scale(0.31373,0.33843)" font-size="40" xml:space="preserve" data-paper-data="{&quot;origPos&quot;:null}" fill="#000000" fill-rule="nonzero" stroke="none" stroke-width="1" stroke-linecap="butt" stroke-linejoin="miter" stroke-miterlimit="10" stroke-dasharray="" stroke-dashoffset="0" font-family="Serif" font-weight="normal" text-anchor="start" style="mix-blend-mode: normal"><tspan x="0" dy="0">Maroon</tspan></text><text transform="translate(220.24529,229.97359) scale(0.33843,0.33843)" font-size="40" xml:space="preserve" data-paper-data="{&quot;origPos&quot;:null}" fill="#000000" fill-rule="nonzero" stroke="none" stroke-width="1" stroke-linecap="butt" stroke-linejoin="miter" stroke-miterlimit="10" stroke-dasharray="" stroke-dashoffset="0" font-family="Serif" font-weight="normal" text-anchor="start" style="mix-blend-mode: normal"><tspan x="0" dy="0">Brown</tspan></text><text transform="translate(266.80868,221.72799) scale(0.3314,0.38046)" font-size="40" xml:space="preserve" data-paper-data="{&quot;origPos&quot;:null}" fill="#000000" fill-rule="nonzero" stroke="none" stroke-width="1" stroke-linecap="butt" stroke-linejoin="miter" stroke-miterlimit="10" stroke-dasharray="" stroke-dashoffset="0" font-family="Serif" font-weight="normal" text-anchor="start" style="mix-blend-mode: normal"><tspan x="0" dy="0">Olive</tspan><tspan x="0" dy="46.150000000000006px">Yellow</tspan></text><text transform="translate(310.7852,221.56632) scale(0.32139,0.33843)" font-size="40" xml:space="preserve" data-paper-data="{&quot;origPos&quot;:null}" fill="#000000" fill-rule="nonzero" stroke="none" stroke-width="1" stroke-linecap="butt" stroke-linejoin="miter" stroke-miterlimit="10" stroke-dasharray="" stroke-dashoffset="0" font-family="Serif" font-weight="normal" text-anchor="start" style="mix-blend-mode: normal"><tspan x="0" dy="0">Nature</tspan><tspan x="0" dy="46.150000000000006px">Green</tspan></text><text transform="translate(351.52816,221.56632) scale(0.32139,0.33843)" font-size="40" xml:space="preserve" data-paper-data="{&quot;origPos&quot;:null}" fill="#000000" fill-rule="nonzero" stroke="none" stroke-width="1" stroke-linecap="butt" stroke-linejoin="miter" stroke-miterlimit="10" stroke-dasharray="" stroke-dashoffset="0" font-family="Serif" font-weight="normal" text-anchor="start" style="mix-blend-mode: normal"><tspan x="0" dy="0">Mariana</tspan><tspan x="0" dy="46.150000000000006px">Blue</tspan></text><text transform="translate(85.72887,275.29163) scale(0.37066,0.3903)" font-size="40" xml:space="preserve" data-paper-data="{&quot;origPos&quot;:null}" fill="#000000" fill-rule="nonzero" stroke="none" stroke-width="1" stroke-linecap="butt" stroke-linejoin="miter" stroke-miterlimit="10" stroke-dasharray="" stroke-dashoffset="0" font-family="Serif" font-weight="normal" text-anchor="start" style="mix-blend-mode: normal"><tspan x="0" dy="0">Purple</tspan></text><text transform="translate(130.99881,274.64492) scale(0.36297,0.3903)" font-size="40" xml:space="preserve" data-paper-data="{&quot;origPos&quot;:null}" fill="#000000" fill-rule="nonzero" stroke="none" stroke-width="1" stroke-linecap="butt" stroke-linejoin="miter" stroke-miterlimit="10" stroke-dasharray="" stroke-dashoffset="0" font-family="Serif" font-weight="normal" text-anchor="start" style="mix-blend-mode: normal"><tspan x="0" dy="0">Grape</tspan></text><text transform="translate(175.62206,266.88436) scale(0.29297,0.3903)" font-size="40" xml:space="preserve" data-paper-data="{&quot;origPos&quot;:null}" fill="#000000" fill-rule="nonzero" stroke="none" stroke-width="1" stroke-linecap="butt" stroke-linejoin="miter" stroke-miterlimit="10" stroke-dasharray="" stroke-dashoffset="0" font-family="Serif" font-weight="normal" text-anchor="start" style="mix-blend-mode: normal"><tspan x="0" dy="0">Spoiled</tspan><tspan x="0" dy="46.150000000000006px">Peony</tspan></text><path d="M306.34409,338.38248c0,0 -0.68988,-0.62007 -0.72053,-2.02698c-0.09181,-4.22066 -0.1352,-25.21746 -0.1352,-40.35353c0,-1.14366 0.85573,-2.2543 0.85573,-2.2543c0,0 1.43486,-0.45085 2.35322,-0.45085c15.11145,0 36.63962,-0.05471 39.14676,-0.02525c0.8357,0.00984 1.71352,0.4761 1.71352,0.4761c0,0 0.85573,1.33601 0.85573,2.47971c0,15.66173 0.52476,37.51646 0.47259,39.89662c-0.01738,0.79339 -1.11435,2.03296 -1.11435,2.03296c0,0 -1.17397,1.12714 -1.92536,1.12714c0,0 -36.80393,0.11725 -39.56859,0.05404c-0.92159,-0.0211 -1.93353,-0.95578 -1.93353,-0.95578z" data-paper-data="{&quot;origPos&quot;:null}" fill="url(#color-1)" stroke="#000000" stroke-width="0"/><path d="M261.74958,338.38248c0,0 -0.68995,-0.62007 -0.72053,-2.02698c-0.09181,-4.22066 -0.1352,-25.21746 -0.1352,-40.35353c0,-1.14366 0.85573,-2.2543 0.85573,-2.2543c0,0 1.43486,-0.45085 2.35322,-0.45085c15.11145,0 36.63961,-0.05471 39.14676,-0.02525c0.83568,0.00984 1.71352,0.4761 1.71352,0.4761c0,0 0.85573,1.33601 0.85573,2.47971c0,15.66173 0.52476,37.51646 0.47259,39.89662c-0.0174,0.79339 -1.11435,2.03296 -1.11435,2.03296c0,0 -1.17395,1.12714 -1.92536,1.12714c0,0 -36.80393,0.11725 -39.56858,0.05404c-0.92161,-0.0211 -1.93353,-0.95578 -1.93353,-0.95578z" data-paper-data="{&quot;origPos&quot;:null}" fill="url(#color-2)" stroke="#000000" stroke-width="0"/><path d="M83.37172,338.38248c0,0 -0.68995,-0.62007 -0.72053,-2.02698c-0.09181,-4.22066 -0.1352,-25.21746 -0.1352,-40.35353c0,-1.14366 0.85573,-2.2543 0.85573,-2.2543c0,0 1.43486,-0.45085 2.35322,-0.45085c15.11145,0 36.63969,-0.05471 39.14683,-0.02525c0.8357,0.00984 1.71352,0.4761 1.71352,0.4761c0,0 0.85565,1.33601 0.85565,2.47971c0,15.66173 0.52483,37.51646 0.47259,39.89662c-0.0174,0.79339 -1.11435,2.03296 -1.11435,2.03296c0,0 -1.17395,1.12714 -1.92536,1.12714c0,0 -36.80393,0.11725 -39.56858,0.05404c-0.92161,-0.0211 -1.93353,-0.95578 -1.93353,-0.95578z" data-paper-data="{&quot;origPos&quot;:null}" fill="#00f06a" stroke="#000000" stroke-width="0"/><path d="M127.96614,338.38248c0,0 -0.68995,-0.62007 -0.72053,-2.02698c-0.09181,-4.22066 -0.1352,-25.21746 -0.1352,-40.35353c0,-1.14366 0.85573,-2.2543 0.85573,-2.2543c0,0 1.43485,-0.45085 2.35321,-0.45085c15.11145,0 36.63962,-0.05471 39.14676,-0.02525c0.8357,0.00984 1.71352,0.4761 1.71352,0.4761c0,0 0.85573,1.33601 0.85573,2.47971c0,15.66173 0.52476,37.51646 0.47259,39.89662c-0.01738,0.79339 -1.11435,2.03296 -1.11435,2.03296c0,0 -1.17397,1.12714 -1.92536,1.12714c0,0 -36.80393,0.11725 -39.56859,0.05404c-0.92159,-0.0211 -1.93353,-0.95578 -1.93353,-0.95578z" data-paper-data="{&quot;origPos&quot;:null}" fill="#4000ff" stroke="#000000" stroke-width="0"/><path d="M172.56065,338.38248c0,0 -0.68988,-0.62007 -0.72045,-2.02698c-0.09181,-4.22066 -0.1352,-25.21746 -0.1352,-40.35353c0,-1.14366 0.85565,-2.2543 0.85565,-2.2543c0,0 1.43486,-0.45085 2.35322,-0.45085c15.11145,0 36.63961,-0.05471 39.14676,-0.02525c0.8357,0.00984 1.71352,0.4761 1.71352,0.4761c0,0 0.85573,1.33601 0.85573,2.47971c0,15.66173 0.52476,37.51646 0.47259,39.89662c-0.0174,0.79339 -1.11435,2.03296 -1.11435,2.03296c0,0 -1.17397,1.12714 -1.92536,1.12714c0,0 -36.80393,0.11725 -39.56858,0.05404c-0.92159,-0.0211 -1.93353,-0.95578 -1.93353,-0.95578z" data-paper-data="{&quot;origPos&quot;:null}" fill="#9a00f0" stroke="#000000" stroke-width="0"/><path d="M217.15516,338.38248c0,0 -0.68988,-0.62007 -0.72053,-2.02698c-0.09181,-4.22066 -0.1352,-25.21746 -0.1352,-40.35353c0,-1.14366 0.85573,-2.2543 0.85573,-2.2543c0,0 1.43486,-0.45085 2.35322,-0.45085c15.11145,0 36.63969,-0.05471 39.14683,-0.02525c0.83568,0.00984 1.71352,0.4761 1.71352,0.4761c0,0 0.85565,1.33601 0.85565,2.47971c0,15.66173 0.52483,37.51646 0.47259,39.89662c-0.01738,0.79339 -1.11435,2.03296 -1.11435,2.03296c0,0 -1.17395,1.12714 -1.92528,1.12714c0,0 -36.80393,0.11725 -39.56865,0.05404c-0.92161,-0.0211 -1.93353,-0.95578 -1.93353,-0.95578z" data-paper-data="{&quot;origPos&quot;:null}" fill="#68457d" stroke="#000000" stroke-width="0"/><text transform="translate(264.22183,275.6116) scale(0.26073,0.41863)" font-size="40" xml:space="preserve" data-paper-data="{&quot;origPos&quot;:null}" fill="#000000" fill-rule="nonzero" stroke="none" stroke-width="1" stroke-linecap="butt" stroke-linejoin="miter" stroke-miterlimit="10" stroke-dasharray="" stroke-dashoffset="0" font-family="Serif" font-weight="normal" text-anchor="start" style="mix-blend-mode: normal"><tspan x="0" dy="0">Vermone</tspan></text><text transform="translate(308.84504,276.90503) scale(0.26073,0.41863)" font-size="40" xml:space="preserve" data-paper-data="{&quot;origPos&quot;:null}" fill="#000000" fill-rule="nonzero" stroke="none" stroke-width="1" stroke-linecap="butt" stroke-linejoin="miter" stroke-miterlimit="10" stroke-dasharray="" stroke-dashoffset="0" font-family="Serif" font-weight="normal" text-anchor="start" style="mix-blend-mode: normal"><tspan x="0" dy="0">Marigold</tspan></text><text transform="translate(352.82159,276.90503) scale(0.2246,0.41863)" font-size="40" xml:space="preserve" data-paper-data="{&quot;origPos&quot;:null}" fill="#000000" fill-rule="nonzero" stroke="none" stroke-width="1" stroke-linecap="butt" stroke-linejoin="miter" stroke-miterlimit="10" stroke-dasharray="" stroke-dashoffset="0" font-family="Serif" font-weight="normal" text-anchor="start" style="mix-blend-mode: normal"><tspan x="0" dy="0">Chartreuse</tspan></text><text transform="translate(84.43545,321.52825) scale(0.25292,0.41863)" font-size="40" xml:space="preserve" data-paper-data="{&quot;origPos&quot;:null}" fill="#000000" fill-rule="nonzero" stroke="none" stroke-width="1" stroke-linecap="butt" stroke-linejoin="miter" stroke-miterlimit="10" stroke-dasharray="" stroke-dashoffset="0" font-family="Serif" font-weight="normal" text-anchor="start" style="mix-blend-mode: normal"><tspan x="0" dy="0">Turquoise</tspan></text><text transform="translate(130.99881,312.47426) scale(0.41368,0.41863)" font-size="40" xml:space="preserve" data-paper-data="{&quot;origPos&quot;:null}" fill="#000000" fill-rule="nonzero" stroke="none" stroke-width="1" stroke-linecap="butt" stroke-linejoin="miter" stroke-miterlimit="10" stroke-dasharray="" stroke-dashoffset="0" font-family="Serif" font-weight="normal" text-anchor="start" style="mix-blend-mode: normal"><tspan x="0" dy="0">Deep</tspan><tspan x="0" dy="46.150000000000006px">Blue</tspan></text><text transform="translate(174.32864,312.47426) scale(0.30412,0.41863)" font-size="40" xml:space="preserve" data-paper-data="{&quot;origPos&quot;:null}" fill="#000000" fill-rule="nonzero" stroke="none" stroke-width="1" stroke-linecap="butt" stroke-linejoin="miter" stroke-miterlimit="10" stroke-dasharray="" stroke-dashoffset="0" font-family="Serif" font-weight="normal" text-anchor="start" style="mix-blend-mode: normal"><tspan x="0" dy="0">Deep</tspan><tspan x="0" dy="46.150000000000006px">Violette</tspan></text><text transform="translate(218.30516,311.18083) scale(0.29603,0.41863)" font-size="40" xml:space="preserve" data-paper-data="{&quot;origPos&quot;:null}" fill="#000000" fill-rule="nonzero" stroke="none" stroke-width="1" stroke-linecap="butt" stroke-linejoin="miter" stroke-miterlimit="10" stroke-dasharray="" stroke-dashoffset="0" font-family="Serif" font-weight="normal" text-anchor="start" style="mix-blend-mode: normal"><tspan x="0" dy="0">Spoiling</tspan><tspan x="0" dy="46.150000000000006px">Grape</tspan></text><text transform="translate(264.22183,306.2858) scale(0.26836,0.30106)" font-size="40" xml:space="preserve" data-paper-data="{&quot;origPos&quot;:null}" fill="#000000" fill-rule="nonzero" stroke="none" stroke-width="1" stroke-linecap="butt" stroke-linejoin="miter" stroke-miterlimit="10" stroke-dasharray="" stroke-dashoffset="0" font-family="Serif" font-weight="normal" text-anchor="start" style="mix-blend-mode: normal"><tspan x="0" dy="0">Apricot</tspan><tspan x="0" dy="46.150000000000006px">and</tspan><tspan x="0" dy="46.150000000000006px">Sky Blue</tspan></text><text transform="translate(309.49178,306.2858) scale(0.26836,0.30106)" font-size="40" xml:space="preserve" data-paper-data="{&quot;origPos&quot;:null}" fill="#000000" fill-rule="nonzero" stroke="none" stroke-width="1" stroke-linecap="butt" stroke-linejoin="miter" stroke-miterlimit="10" stroke-dasharray="" stroke-dashoffset="0" font-family="Serif" font-weight="normal" text-anchor="start" style="mix-blend-mode: normal"><tspan x="0" dy="0">Lilac</tspan><tspan x="0" dy="46.150000000000006px">and</tspan><tspan x="0" dy="46.150000000000006px">Sky Blue</tspan></text><path d="M351.1886,338.86252c0,0 -0.68995,-0.62007 -0.72053,-2.02698c-0.09181,-4.22066 -0.1352,-25.21746 -0.1352,-40.35353c0,-1.14366 0.85573,-2.2543 0.85573,-2.2543c0,0 1.43479,-0.45085 2.35315,-0.45085c15.11145,0 36.6397,-0.05471 39.14684,-0.02525c0.83568,0.00984 1.71352,0.4761 1.71352,0.4761c0,0 0.85565,1.33601 0.85565,2.47971c0,15.66173 0.52483,37.51646 0.47259,39.89662c-0.0174,0.79339 -1.11435,2.03296 -1.11435,2.03296c0,0 -1.17397,1.12714 -1.92529,1.12714c0,0 -36.80393,0.11725 -39.56865,0.05404c-0.92161,-0.0211 -1.93345,-0.95578 -1.93345,-0.95578z" data-paper-data="{&quot;origPos&quot;:null}" fill="#000000" stroke="#000000" stroke-width="0"/><text transform="translate(354.25,322.75) scale(0.38746,0.5)" font-size="40" xml:space="preserve" data-paper-data="{&quot;origPos&quot;:null}" fill="#ffffff" fill-rule="nonzero" stroke="none" stroke-width="1" stroke-linecap="butt" stroke-linejoin="miter" stroke-miterlimit="10" stroke-dasharray="" stroke-dashoffset="0" font-family="Serif" font-weight="normal" text-anchor="start" style="mix-blend-mode: normal"><tspan x="0" dy="0">Black</tspan></text></g></g></svg>