<svg version="1.1" xmlns="http://www.w3.org/2000/svg" xmlns:xlink="http://www.w3.org/1999/xlink" width="525.82182" height="242.18868" viewBox="0,0,525.82182,242.18868"><defs><linearGradient x1="220.6996" y1="198.98481" x2="234.31017" y2="172.88195" gradientUnits="userSpaceOnUse" id="color-1"><stop offset="0" stop-color="#de141f"/><stop offset="1" stop-color="#4a1517"/></linearGradient><linearGradient x1="195.24081" y1="227.88912" x2="204.05552" y2="258.64205" gradientUnits="userSpaceOnUse" id="color-2"><stop offset="0" stop-color="#de141f"/><stop offset="1" stop-color="#4a1517"/></linearGradient><linearGradient x1="213.79342" y1="222.53204" x2="234.85713" y2="246.61028" gradientUnits="userSpaceOnUse" id="color-3"><stop offset="0" stop-color="#de141f"/><stop offset="1" stop-color="#4a1517"/></linearGradient><linearGradient x1="178.91118" y1="207.40614" x2="155.92078" y2="189.02005" gradientUnits="userSpaceOnUse" id="color-4"><stop offset="0" stop-color="#de141f"/><stop offset="1" stop-color="#4a1517"/></linearGradient><linearGradient x1="73.03615" y1="102.34961" x2="73.03615" y2="172.46963" gradientUnits="userSpaceOnUse" id="color-5"><stop offset="0" stop-color="#986ead"/><stop offset="1" stop-color="#7664a9"/></linearGradient><linearGradient x1="135.41231" y1="174.23666" x2="124.15282" y2="117.60206" gradientUnits="userSpaceOnUse" id="color-6"><stop offset="0" stop-color="#e2cf42"/><stop offset="1" stop-color="#f2f21d"/></linearGradient><linearGradient x1="342.39525" y1="194.9394" x2="332.72578" y2="117.24039" gradientUnits="userSpaceOnUse" id="color-7"><stop offset="0" stop-color="#d16a26"/><stop offset="1" stop-color="#d19884"/></linearGradient><linearGradient x1="228.25932" y1="92.62382" x2="241.66067" y2="169.76678" gradientUnits="userSpaceOnUse" id="color-8"><stop offset="0" stop-color="#b8d166"/><stop offset="1" stop-color="#8abf49"/></linearGradient><linearGradient x1="281.14041" y1="173.99154" x2="292.27527" y2="117.3323" gradientUnits="userSpaceOnUse" id="color-9"><stop offset="0" stop-color="#e62728"/><stop offset="1" stop-color="#eb5544"/></linearGradient><linearGradient x1="191.51259" y1="192.2126" x2="181.84312" y2="114.51359" gradientUnits="userSpaceOnUse" id="color-10"><stop offset="0" stop-color="#d16a26"/><stop offset="1" stop-color="#d19884"/></linearGradient><linearGradient x1="401.49879" y1="116.52117" x2="399.83711" y2="172.50489" gradientUnits="userSpaceOnUse" id="color-11"><stop offset="0" stop-color="#fdda62"/><stop offset="1" stop-color="#fcc618"/></linearGradient><linearGradient x1="85.37368" y1="278.3568" x2="84.91603" y2="324.4288" gradientTransform="translate(-76.37968,-312.56262) rotate(-0.56931) scale(1.00163,1.00163)" gradientUnits="userSpaceOnUse" id="color-12"><stop offset="0" stop-color="#ffffff"/><stop offset="1" stop-color="#e9e9e9"/></linearGradient><linearGradient x1="134.00223" y1="277.90323" x2="133.54459" y2="323.97523" gradientTransform="translate(-125.08088,-311.62435) rotate(-0.56931) scale(1.00163,1.00163)" gradientUnits="userSpaceOnUse" id="color-13"><stop offset="0" stop-color="#ffffff"/><stop offset="1" stop-color="#e9e9e9"/></linearGradient><linearGradient x1="177.17722" y1="279.26749" x2="176.71957" y2="325.33949" gradientTransform="translate(-168.33794,-312.56108) rotate(-0.56931) scale(1.00163,1.00163)" gradientUnits="userSpaceOnUse" id="color-14"><stop offset="0" stop-color="#ffffff"/><stop offset="1" stop-color="#e9e9e9"/></linearGradient><linearGradient x1="229.44149" y1="280.63176" x2="228.98384" y2="326.70376" gradientTransform="translate(-220.6987,-313.40736) rotate(-0.56931) scale(1.00163,1.00163)" gradientUnits="userSpaceOnUse" id="color-15"><stop offset="0" stop-color="#ffffff"/><stop offset="1" stop-color="#e9e9e9"/></linearGradient><linearGradient x1="273.52541" y1="283.81389" x2="273.06776" y2="329.88588" gradientTransform="translate(-264.88424,-316.15579) rotate(-0.56931) scale(1.00163,1.00163)" gradientUnits="userSpaceOnUse" id="color-16"><stop offset="0" stop-color="#ffffff"/><stop offset="1" stop-color="#e9e9e9"/></linearGradient><linearGradient x1="317.60932" y1="286.08708" x2="317.15167" y2="332.15908" gradientTransform="translate(-309.06072,-317.99385) rotate(-0.56931) scale(1.00163,1.00163)" gradientUnits="userSpaceOnUse" id="color-17"><stop offset="0" stop-color="#ffffff"/><stop offset="1" stop-color="#e9e9e9"/></linearGradient><linearGradient x1="368.96465" y1="287.45136" x2="368.50701" y2="333.52336" gradientTransform="translate(-360.51111,-318.84918) rotate(-0.56931) scale(1.00163,1.00163)" gradientUnits="userSpaceOnUse" id="color-18"><stop offset="0" stop-color="#ffffff"/><stop offset="1" stop-color="#e9e9e9"/></linearGradient><linearGradient x1="420.32" y1="289.72456" x2="419.86235" y2="335.79655" gradientTransform="translate(-411.97056,-320.61487) rotate(-0.56931) scale(1.00163,1.00163)" gradientUnits="userSpaceOnUse" id="color-19"><stop offset="0" stop-color="#ffffff"/><stop offset="1" stop-color="#e9e9e9"/></linearGradient><linearGradient x1="39.93425" y1="279.27273" x2="39.4766" y2="325.34473" gradientTransform="translate(-30.87728,-313.93224) rotate(-0.56931) scale(1.00163,1.00163)" gradientUnits="userSpaceOnUse" id="color-20"><stop offset="0" stop-color="#ffffff"/><stop offset="1" stop-color="#e9e9e9"/></linearGradient><linearGradient x1="469.4039" y1="287.90845" x2="468.94626" y2="333.98045" gradientTransform="translate(-461.11426,-318.30738) rotate(-0.56931) scale(1.00163,1.00163)" gradientUnits="userSpaceOnUse" id="color-21"><stop offset="0" stop-color="#ffffff"/><stop offset="1" stop-color="#e9e9e9"/></linearGradient><linearGradient x1="-6.41935" y1="277.45663" x2="-6.87699" y2="323.52863" gradientTransform="translate(15.56795,-312.57459) rotate(-0.56931) scale(1.00163,1.00163)" gradientUnits="userSpaceOnUse" id="color-22"><stop offset="0" stop-color="#ffffff"/><stop offset="1" stop-color="#e9e9e9"/></linearGradient></defs><g transform="translate(28.27149,-94.72803)"><g data-paper-data="{&quot;isPaintingLayer&quot;:true}" fill-rule="nonzero" stroke-linejoin="miter" stroke-miterlimit="10" stroke-dasharray="" stroke-dashoffset="0" style="mix-blend-mode: normal"><path d="M225.09285,199.24082c1.3627,-7.0469 3.32213,-13.88144 6.07949,-20.31351c0.73446,-1.70202 2.47036,-2.93933 4.19779,-3.62714c1.15958,-0.46029 2.74219,-0.43571 4.00799,0.22433c1.26583,0.66002 2.16024,1.93973 2.47843,3.15781c0.44178,1.69424 0.40982,3.66243 -0.32971,5.20511c-2.07179,4.11856 -4.97174,7.79525 -7.93781,11.44354c-1.94526,2.39368 -3.76524,5.06947 -6.76495,6.45859c-0.87023,0.40264 -2.07193,-0.78714 -1.73122,-2.54872z" data-paper-data="{&quot;origRot&quot;:0,&quot;origPos&quot;:null}" fill="url(#color-1)" stroke="#000000" stroke-width="0.5" stroke-linecap="butt"/><path d="M193.62044,231.59069c1.83075,2.96214 2.43158,6.49378 3.81452,9.63609c1.46694,3.68746 3.73267,7.1306 4.74184,10.86833c0.47292,1.74838 0.2335,3.83247 -0.54508,5.52093c-0.52368,1.13235 -1.68799,2.20458 -3.06029,2.59792c-1.37225,0.39336 -2.90215,0.08162 -3.97179,-0.58231c-1.48723,-0.92398 -2.91606,-2.36031 -3.34605,-4.00073c-1.09778,-4.19049 -1.1638,-8.66377 -1.32245,-13.04285c-0.15412,-4.26661 -1.138,-8.73069 0.28193,-13.03708c0.41046,-1.15014 2.78126,1.02881 3.40737,2.03971z" data-paper-data="{&quot;origRot&quot;:0,&quot;origPos&quot;:null}" fill="url(#color-2)" stroke="#000000" stroke-width="0.5" stroke-linecap="butt"/><path d="M209.95088,226.17548c-0.118,-1.21547 2.95466,-0.25257 3.95144,0.39578c2.91725,1.90146 4.96385,4.84168 7.55254,7.09674c2.89669,2.71264 6.41226,4.86428 8.91609,7.81723c1.17198,1.38092 1.84223,3.36877 1.85619,5.22803c0.00798,1.24755 -0.58936,2.71333 -1.66381,3.65326c-1.0744,0.93992 -2.59153,1.30888 -3.842,1.16325c-1.73905,-0.20325 -3.64328,-0.895 -4.73048,-2.19648c-2.7767,-3.32496 -4.74005,-7.34488 -6.74715,-11.24015c-1.95513,-3.79542 -4.74517,-7.41641 -5.29283,-11.91767z" data-paper-data="{&quot;origRot&quot;:0,&quot;origPos&quot;:null,&quot;index&quot;:null}" fill="url(#color-3)" stroke="#000000" stroke-width="0.5" stroke-linecap="butt"/><path d="M174.44036,212.44474c-3.30519,-0.05983 -6.05055,-1.77308 -8.79657,-3.17767c-4.18655,-2.14028 -8.32402,-4.33323 -11.88222,-7.2648c-1.2994,-1.11279 -2.12325,-2.90056 -2.40308,-4.62894c-0.20067,-1.24285 0.10096,-2.77474 0.99259,-3.88962c0.89159,-1.11489 2.32956,-1.77631 3.57627,-1.82336c1.85807,-0.06814 3.94575,0.36303 5.30488,1.62366c5.11941,4.77135 9.67131,10.23308 13.76303,16.13c1.0229,1.47409 0.40384,3.04775 -0.55488,3.03072z" data-paper-data="{&quot;origRot&quot;:0,&quot;origPos&quot;:null}" fill="url(#color-4)" stroke="#000000" stroke-width="0.5" stroke-linecap="butt"/><path d="M167.37342,179.36873c0.0725,-0.58034 0.28732,-1.25411 0.71638,-1.54401c0.68165,-0.45416 1.44335,-0.52385 2.37773,-0.64441c3.46641,-0.47727 6.95423,-0.65034 10.46,-1.01516c8.95921,-0.93179 17.87459,-2.00334 26.88803,-2.95891c4.31822,-0.45792 8.65001,-1.01631 12.98597,-1.18608c1.08965,-0.04079 1.61456,0.09201 2.12455,0.6546c0.72027,0.85413 0.99164,2.05819 1.22086,3.19706c0.44964,2.29082 0.35883,3.61875 0.74128,6.96647c1.52762,13.3927 2.97299,26.6967 4.47644,40.23014c0.37566,3.38328 0.24461,1.93101 0.21211,2.91299c-0.03005,0.45332 -0.06431,1.02881 -0.40388,1.35419c-0.60687,0.57575 -1.02575,0.91349 -2.36908,1.09361c-5.26591,0.86171 -10.64114,1.20352 -15.95454,1.79552c-8.35385,0.93039 -16.6031,1.90954 -24.85614,2.7427c-3.86346,0.39113 -7.75599,0.78497 -11.52557,0.93284c-0.94289,0.03692 -0.97086,-0.11197 -1.35419,-0.40388c-0.36604,-0.31332 -0.55503,-0.80204 -0.6798,-1.23888c-0.23841,-0.95315 -0.02417,0.92786 -0.40562,-2.8924c-1.52588,-15.28182 -3.02267,-30.7464 -4.43623,-46.10554c-0.35338,-3.83969 -0.316,-2.6166 -0.21831,-3.89085z" data-paper-data="{&quot;origRot&quot;:0,&quot;origPos&quot;:null}" fill="#df141d" stroke="#000000" stroke-width="0.5" stroke-linecap="round"/><g data-paper-data="{&quot;origRot&quot;:0,&quot;origPos&quot;:null}" stroke="#000000" stroke-width="1" stroke-linecap="butt"><path d="M195.7753,177.50528c5.04117,-0.53641 9.84588,1.20102 13.53597,4.44079c3.69014,3.24012 6.26529,7.98307 6.84778,13.45728c0.58249,5.47422 -0.93694,10.65285 -3.86263,14.59697c-2.92573,3.9437 -7.25725,6.65328 -12.29842,7.18969c-5.04117,0.53641 -9.84588,-1.20102 -13.53597,-4.44075c-3.69014,-3.24016 -6.26533,-7.9831 -6.84782,-13.45732c-0.58249,-5.47422 0.93698,-10.65285 3.86267,-14.59694c2.92573,-3.94374 7.25724,-6.65332 12.29841,-7.18973z" fill="#7d191d"/><path d="M196.02261,182.58281c3.62326,-0.38554 7.07803,0.88059 9.73318,3.23733c2.65477,2.35717 4.50992,5.80457 4.93315,9.78204c0.42323,3.97747 -0.66495,7.73805 -2.76426,10.60109c-2.09977,2.86269 -5.21075,4.82746 -8.83401,5.213c-3.62326,0.38554 -7.07803,-0.88059 -9.73318,-3.23733c-2.65481,-2.35717 -4.50992,-5.80457 -4.93315,-9.78204c-0.42323,-3.97747 0.66491,-7.73805 2.76426,-10.60109c2.09977,-2.86269 5.21075,-4.82746 8.83401,-5.213z" fill="#ffffff"/></g><g data-paper-data="{&quot;origRot&quot;:0,&quot;index&quot;:null}" stroke="none" stroke-width="1" stroke-linecap="butt"><path d="M197.13706,195.24438c0.85758,-0.06808 1.67472,0.15159 2.30234,0.56147c0.62746,0.4099 1.06529,1.01003 1.1641,1.7028c0.09881,0.69277 -0.15994,1.3482 -0.65774,1.84743c-0.49796,0.49924 -1.23484,0.84227 -2.09242,0.91034c-0.85759,0.06808 -1.67472,-0.15159 -2.30234,-0.56147c-0.62747,-0.4099 -1.06529,-1.01003 -1.1641,-1.7028c-0.09881,-0.69277 0.15993,-1.3482 0.65774,-1.84743c0.49796,-0.49924 1.23482,-0.84226 2.09242,-0.91034z" fill="#000000"/><path d="M198.09094,196.50083c0.13699,-0.01087 0.26709,0.02076 0.36655,0.0807c0.09947,0.05993 0.1683,0.14816 0.18288,0.25036c0.01458,0.1022 -0.02783,0.19926 -0.10816,0.27347c-0.08034,0.07421 -0.1986,0.12556 -0.33559,0.13643c-0.13699,0.01087 -0.26709,-0.02076 -0.36655,-0.0807c-0.09947,-0.05993 -0.1683,-0.14816 -0.18288,-0.25036c-0.01458,-0.1022 0.02783,-0.19926 0.10816,-0.27347c0.08034,-0.07421 0.1986,-0.12556 0.33559,-0.13643z" fill="#ffffff"/></g><path d="M75.06182,143.1518l-7.93033,-1.58727c-12.47016,-2.80107 -18.70525,-9.33687 -18.70525,-19.60746c0,-4.29498 1.29298,-7.96748 3.87896,-11.01753c2.64344,-3.11228 5.77536,-5.32203 9.39572,-6.62919c3.67784,-1.30716 7.5568,-1.96074 11.63691,-1.96074c6.60861,0 12.26902,1.96074 16.98126,5.88225c4.71222,3.85925 7.24075,8.9634 7.58554,15.31248h-11.89551c-0.45972,-3.6725 -1.95385,-6.34908 -4.48236,-8.02971c-2.47105,-1.68063 -5.37309,-2.52096 -8.70613,-2.52096c-3.27557,0 -6.12015,0.71584 -8.53373,2.14749c-2.35612,1.36942 -3.53417,3.45465 -3.53417,6.25572c0,4.41947 2.90204,7.22051 8.70613,8.40318l8.18893,1.58727c2.93078,0.62245 5.48802,1.33829 7.67173,2.14749c2.24119,0.8092 4.48236,1.96074 6.72354,3.45465c2.24119,1.49391 3.96515,3.48578 5.17196,5.97561c1.20679,2.48983 1.81018,5.41539 1.81018,8.77668c0,6.53583 -2.52851,11.63998 -7.58554,15.31248c-4.99956,3.61027 -10.91858,5.41539 -17.75704,5.41539c-7.70047,0 -13.93555,-2.08523 -18.70525,-6.25572c-4.71222,-4.23272 -7.35568,-9.99045 -7.93033,-17.27322h11.89551c1.20679,8.58993 6.26382,12.88491 15.17108,12.88491c3.27557,0 6.17761,-0.74694 8.70613,-2.24085c2.52851,-1.49391 3.79277,-3.89038 3.79277,-7.18941c0,-2.67658 -1.00566,-4.69955 -3.01697,-6.06897c-2.01133,-1.43165 -4.85589,-2.48983 -8.53373,-3.17454z" fill="url(#color-5)" stroke="none" stroke-width="0.48994" stroke-linecap="butt"/><path d="M111.06257,96.31388l14.63331,0.16641c0,0 -0.4377,13.50511 -1.01696,26.49201c21.88429,-13.31678 27.35546,12.27475 27.35546,12.27475l0.28606,35.62812l-13.92431,0.04943l-0.87493,-35.17119c0,0 0.32973,-5.13565 -6.46592,-5.1718c-5.81392,-0.03093 -5.30179,5.81205 -5.30179,5.81205l-0.56279,34.77731l-14.90512,0.24442z" data-paper-data="{&quot;index&quot;:null,&quot;origRot&quot;:0}" fill="url(#color-6)" stroke="#000000" stroke-width="0" stroke-linecap="round"/><path d="M357.44383,173.92007l-15.17334,-0.46304l-0.41164,-3.30783c0,0 -7.93604,3.33312 -13.10777,2.63895c-12.92669,-1.73506 -14.21338,-17.04183 -14.21338,-17.04183l0.96287,-21.95363c0,0 1.18268,-16.99174 21.75658,-16.81555c22.62929,1.636 20.85699,18.38952 20.61735,25.3143c-0.544,15.72032 -0.43065,31.62863 -0.43065,31.62863zM337.16749,129.75268c-9.80934,-0.67398 -7.82256,15.41741 -7.82256,15.41741c0,0 -1.48609,14.92657 6.60685,15.30122c8.53994,0.39533 7.57413,-14.71468 7.57413,-14.71468c0,0 2.2115,-15.41511 -6.35842,-16.00393z" data-paper-data="{&quot;index&quot;:null,&quot;origRot&quot;:0}" fill="url(#color-7)" stroke="#000000" stroke-width="0" stroke-linecap="round"/><path d="M214.60137,94.99649l15.17802,-0.26846l0.20996,22.63136c0,0 7.76626,-3.71157 12.96542,-3.26735c12.99527,1.11031 15.01786,16.33732 15.01786,16.33732l0.09585,21.97453c0,0 -0.36273,17.02898 -20.92123,17.84414c-22.68183,-0.54394 -21.71868,-17.3634 -21.81292,-24.29169c-0.21395,-15.72827 -0.73297,-50.95985 -0.73297,-50.95985zM236.62135,157.48301c9.83042,0.20063 7.07076,-15.77635 7.07076,-15.77635c0,0 0.76529,-14.98083 -7.33631,-14.96517c-8.54908,0.01653 -6.85646,15.06247 -6.85646,15.06247c0,0 -1.46631,15.50375 7.12202,15.67903z" data-paper-data="{&quot;origRot&quot;:0}" fill="url(#color-8)" stroke="#000000" stroke-width="0" stroke-linecap="round"/><path d="M306.26089,171.11498l-14.90562,-0.21163l-0.63931,-34.77598c0,0 0.49928,-5.84409 -5.31457,-5.80037c-6.79555,0.0511 -6.45451,5.18601 -6.45451,5.18601l-0.79756,35.17302l-13.92439,-0.01879l0.20767,-35.62866c0,0 0.42917,-19.09252 21.31465,-18.57169c20.83573,0.51959 20.66271,21.04617 20.66271,21.04617z" data-paper-data="{&quot;index&quot;:null,&quot;origRot&quot;:0}" fill="url(#color-9)" stroke="#000000" stroke-width="0" stroke-linecap="round"/><path d="M206.56117,171.19327l-15.17334,-0.46304l-0.41164,-3.30783c0,0 -7.93604,3.33312 -13.10777,2.63895c-12.92669,-1.73506 -14.21338,-17.04183 -14.21338,-17.04183l0.96287,-21.95363c0,0 1.18268,-16.99174 21.75658,-16.81555c22.62929,1.636 20.85699,18.38952 20.61735,25.3143c-0.544,15.72032 -0.43065,31.62863 -0.43065,31.62863zM186.28483,127.02588c-9.80934,-0.67398 -7.82256,15.41741 -7.82256,15.41741c0,0 -1.48609,14.92657 6.60685,15.30122c8.53994,0.39533 7.57413,-14.71468 7.57413,-14.71468c0,0 2.2115,-15.41511 -6.35842,-16.00393z" data-paper-data="{&quot;index&quot;:null,&quot;origRot&quot;:0}" fill="url(#color-10)" stroke="#000000" stroke-width="0" stroke-linecap="round"/><path d="M366.37071,171.51156l-0.88161,-37.70943c0,0 -1.38965,-16.98411 21.5149,-17.03585c6.88664,-0.01556 13.8455,5.41316 13.8455,5.41316c0,0 5.12469,-5.77845 15.16152,-5.21914c21.33695,1.18902 20.42706,19.61467 20.42706,19.61467l-3.08696,36.59118l-14.30724,-1.09161l1.37158,-34.9747c0,0 0.40847,-6.18808 -5.14308,-6.48878c-6.55302,-0.35495 -6.48878,5.14309 -6.48878,5.14309l-1.05817,35.65096l-15.32659,-0.45492l0.40169,-36.00393c0,0 0.42134,-4.69489 -5.52571,-4.83273c-6.614,-0.1533 -5.81252,4.82968 -5.81252,4.82968l-0.40168,36.00393z" data-paper-data="{&quot;origRot&quot;:0}" fill="url(#color-11)" stroke="#000000" stroke-width="0" stroke-linecap="round"/><g data-paper-data="{&quot;origRot&quot;:0}" stroke-linecap="butt"><g data-paper-data="{&quot;origPos&quot;:null,&quot;origRot&quot;:0}" fill="#365799" stroke="#1d3972" stroke-width="1.5"><path d="M63.84809,309.92253c0.16537,-9.24822 0.25839,-14.44922 0.42376,-23.69743c0.08476,-4.73973 0.06809,-9.6979 1.40617,-10.85774c1.34747,-1.68503 6.51727,-1.14938 11.44964,-1.06118c9.13263,0.16331 14.26858,0.25516 23.40121,0.41846c4.81681,0.08613 8.7691,-0.3381 10.81197,1.45926c1.8584,2.3194 1.40127,5.98605 1.31859,10.61016c-0.16331,9.13263 -0.25516,14.26858 -0.41847,23.40121c-0.08476,4.73972 0.0379,9.57152 -1.28814,11.03497c-1.20309,1.32777 -6.27405,0.97862 -10.97523,0.89455c0,0 -14.62982,-0.26161 -23.99365,-0.42905c-4.81681,-0.08614 -9.63021,0.65837 -11.16833,-1.11541c-1.68241,-1.94016 -1.04815,-6.14928 -0.96752,-10.6578z" data-paper-data="{&quot;origPos&quot;:null}"/></g><text transform="translate(73.15081,312.79542) rotate(0.56931) scale(0.99837,0.99837)" font-size="40" xml:space="preserve" data-paper-data="{&quot;origPos&quot;:null,&quot;origRot&quot;:-5.43838}" fill="url(#color-12)" fill-rule="nonzero" stroke="none" stroke-width="1" stroke-linecap="butt" stroke-linejoin="miter" stroke-miterlimit="10" stroke-dasharray="" stroke-dashoffset="0" font-family="Sans Serif" font-weight="normal" text-anchor="start" style="mix-blend-mode: normal"><tspan x="0" dy="0">A</tspan></text></g><g data-paper-data="{&quot;origRot&quot;:0}" stroke-linecap="butt"><g data-paper-data="{&quot;origPos&quot;:null,&quot;origRot&quot;:0}" fill="#365799" stroke="#1d3972" stroke-width="1.5"><path d="M112.47681,309.46895c0.16537,-9.24822 0.25839,-14.44922 0.42376,-23.69743c0.08476,-4.73973 0.06809,-9.6979 1.40617,-10.85774c1.34747,-1.68503 6.51727,-1.14938 11.44964,-1.06118c9.13263,0.16331 14.26858,0.25516 23.40121,0.41846c4.81681,0.08613 8.7691,-0.3381 10.81197,1.45926c1.8584,2.3194 1.40127,5.98605 1.31859,10.61016c-0.16331,9.13263 -0.25516,14.26858 -0.41847,23.40121c-0.08476,4.73972 0.0379,9.57152 -1.28814,11.03497c-1.20309,1.32777 -6.27405,0.97862 -10.97523,0.89455c0,0 -14.62982,-0.26161 -23.99365,-0.42905c-4.81681,-0.08614 -9.63021,0.65837 -11.16833,-1.11541c-1.68241,-1.94016 -1.04815,-6.14928 -0.96752,-10.6578z" data-paper-data="{&quot;origPos&quot;:null}"/></g><text transform="translate(121.77953,312.34184) rotate(0.56931) scale(0.99837,0.99837)" font-size="40" xml:space="preserve" data-paper-data="{&quot;origPos&quot;:null,&quot;origRot&quot;:-5.43838}" fill="url(#color-13)" fill-rule="nonzero" stroke="none" stroke-width="1" stroke-linecap="butt" stroke-linejoin="miter" stroke-miterlimit="10" stroke-dasharray="" stroke-dashoffset="0" font-family="Sans Serif" font-weight="normal" text-anchor="start" style="mix-blend-mode: normal"><tspan x="0" dy="0">A</tspan></text></g><g data-paper-data="{&quot;origRot&quot;:0}" stroke-linecap="butt"><g data-paper-data="{&quot;origPos&quot;:null,&quot;origRot&quot;:0}" fill="#365799" stroke="#1d3972" stroke-width="1.5"><path d="M155.65194,310.83322c0.16537,-9.24822 0.25839,-14.44922 0.42376,-23.69743c0.08476,-4.73973 0.06809,-9.6979 1.40617,-10.85774c1.34747,-1.68503 6.51727,-1.14938 11.44964,-1.06118c9.13263,0.16331 14.26858,0.25516 23.40121,0.41846c4.81681,0.08613 8.7691,-0.3381 10.81197,1.45926c1.8584,2.3194 1.40127,5.98605 1.31859,10.61016c-0.16331,9.13263 -0.25516,14.26858 -0.41847,23.40121c-0.08476,4.73972 0.0379,9.57152 -1.28814,11.03497c-1.20309,1.32777 -6.27405,0.97862 -10.97523,0.89455c0,0 -14.62982,-0.26161 -23.99365,-0.42905c-4.81681,-0.08614 -9.63021,0.65837 -11.16833,-1.11541c-1.68241,-1.94016 -1.04815,-6.14928 -0.96752,-10.6578z" data-paper-data="{&quot;origPos&quot;:null}"/></g><text transform="translate(164.95466,313.70611) rotate(0.56931) scale(0.99837,0.99837)" font-size="40" xml:space="preserve" data-paper-data="{&quot;origPos&quot;:null,&quot;origRot&quot;:-5.43838}" fill="url(#color-14)" fill-rule="nonzero" stroke="none" stroke-width="1" stroke-linecap="butt" stroke-linejoin="miter" stroke-miterlimit="10" stroke-dasharray="" stroke-dashoffset="0" font-family="Sans Serif" font-weight="normal" text-anchor="start" style="mix-blend-mode: normal"><tspan x="0" dy="0">A</tspan></text></g><g data-paper-data="{&quot;origRot&quot;:0}" stroke-linecap="butt"><g data-paper-data="{&quot;origPos&quot;:null,&quot;origRot&quot;:0}" fill="#365799" stroke="#1d3972" stroke-width="1.5"><path d="M207.91638,312.19749c0.16537,-9.24822 0.25839,-14.44922 0.42376,-23.69743c0.08476,-4.73973 0.06809,-9.6979 1.40617,-10.85774c1.34747,-1.68503 6.51727,-1.14938 11.44964,-1.06118c9.13263,0.16331 14.26858,0.25516 23.40121,0.41846c4.81681,0.08613 8.7691,-0.3381 10.81197,1.45926c1.8584,2.3194 1.40127,5.98605 1.31859,10.61016c-0.16331,9.13263 -0.25516,14.26858 -0.41847,23.40121c-0.08476,4.73972 0.0379,9.57152 -1.28814,11.03497c-1.20309,1.32777 -6.27405,0.97862 -10.97523,0.89455c0,0 -14.62982,-0.26161 -23.99365,-0.42905c-4.81681,-0.08614 -9.63021,0.65837 -11.16833,-1.11541c-1.68241,-1.94016 -1.04815,-6.14928 -0.96752,-10.6578z" data-paper-data="{&quot;origPos&quot;:null}"/></g><text transform="translate(217.2191,315.07038) rotate(0.56931) scale(0.99837,0.99837)" font-size="40" xml:space="preserve" data-paper-data="{&quot;origPos&quot;:null,&quot;origRot&quot;:-5.43838}" fill="url(#color-15)" fill-rule="nonzero" stroke="none" stroke-width="1" stroke-linecap="butt" stroke-linejoin="miter" stroke-miterlimit="10" stroke-dasharray="" stroke-dashoffset="0" font-family="Sans Serif" font-weight="normal" text-anchor="start" style="mix-blend-mode: normal"><tspan x="0" dy="0">A</tspan></text></g><g data-paper-data="{&quot;origRot&quot;:0}" stroke-linecap="butt"><g data-paper-data="{&quot;origPos&quot;:null,&quot;origRot&quot;:0}" fill="#365799" stroke="#1d3972" stroke-width="1.5"><path d="M252.00045,315.37963c0.16537,-9.24822 0.25839,-14.44922 0.42376,-23.69743c0.08476,-4.73973 0.06809,-9.6979 1.40617,-10.85774c1.34747,-1.68503 6.51727,-1.14938 11.44964,-1.06118c9.13263,0.16331 14.26858,0.25516 23.40121,0.41846c4.81681,0.08613 8.7691,-0.3381 10.81197,1.45926c1.8584,2.3194 1.40127,5.98605 1.31859,10.61016c-0.16331,9.13263 -0.25516,14.26858 -0.41847,23.40121c-0.08476,4.73972 0.0379,9.57152 -1.28814,11.03497c-1.20309,1.32777 -6.27405,0.97862 -10.97523,0.89455c0,0 -14.62982,-0.26161 -23.99365,-0.42905c-4.81681,-0.08614 -9.63021,0.65837 -11.16833,-1.11541c-1.68241,-1.94016 -1.04815,-6.14928 -0.96752,-10.6578z" data-paper-data="{&quot;origPos&quot;:null}"/></g><text transform="translate(261.30317,318.25252) rotate(0.56931) scale(0.99837,0.99837)" font-size="40" xml:space="preserve" data-paper-data="{&quot;origPos&quot;:null,&quot;origRot&quot;:-5.43838}" fill="url(#color-16)" fill-rule="nonzero" stroke="none" stroke-width="1" stroke-linecap="butt" stroke-linejoin="miter" stroke-miterlimit="10" stroke-dasharray="" stroke-dashoffset="0" font-family="Sans Serif" font-weight="normal" text-anchor="start" style="mix-blend-mode: normal"><tspan x="0" dy="0">A</tspan></text></g><g data-paper-data="{&quot;origRot&quot;:0}" stroke-linecap="butt"><g data-paper-data="{&quot;origPos&quot;:null,&quot;origRot&quot;:0}" fill="#365799" stroke="#1d3972" stroke-width="1.5"><path d="M296.08451,317.65283c0.16537,-9.24822 0.25839,-14.44922 0.42376,-23.69743c0.08476,-4.73973 0.06809,-9.6979 1.40617,-10.85774c1.34747,-1.68503 6.51727,-1.14938 11.44964,-1.06118c9.13263,0.16331 14.26858,0.25516 23.40121,0.41846c4.81681,0.08613 8.7691,-0.3381 10.81197,1.45926c1.8584,2.3194 1.40127,5.98605 1.31859,10.61016c-0.16331,9.13263 -0.25516,14.26858 -0.41847,23.40121c-0.08476,4.73972 0.0379,9.57152 -1.28814,11.03497c-1.20309,1.32777 -6.27405,0.97862 -10.97523,0.89455c0,0 -14.62982,-0.26161 -23.99365,-0.42905c-4.81681,-0.08614 -9.63021,0.65837 -11.16833,-1.11541c-1.68241,-1.94016 -1.04815,-6.14928 -0.96752,-10.6578z" data-paper-data="{&quot;origPos&quot;:null}"/></g><text transform="translate(305.38723,320.52572) rotate(0.56931) scale(0.99837,0.99837)" font-size="40" xml:space="preserve" data-paper-data="{&quot;origPos&quot;:null,&quot;origRot&quot;:-5.43838}" fill="url(#color-17)" fill-rule="nonzero" stroke="none" stroke-width="1" stroke-linecap="butt" stroke-linejoin="miter" stroke-miterlimit="10" stroke-dasharray="" stroke-dashoffset="0" font-family="Sans Serif" font-weight="normal" text-anchor="start" style="mix-blend-mode: normal"><tspan x="0" dy="0">A</tspan></text></g><g data-paper-data="{&quot;origRot&quot;:0}" stroke-linecap="butt"><g data-paper-data="{&quot;origPos&quot;:null,&quot;origRot&quot;:0}" fill="#365799" stroke="#1d3972" stroke-width="1.5"><path d="M347.44002,319.01711c0.16537,-9.24822 0.25839,-14.44922 0.42376,-23.69743c0.08476,-4.73973 0.06809,-9.6979 1.40617,-10.85774c1.34747,-1.68503 6.51727,-1.14938 11.44964,-1.06118c9.13263,0.16331 14.26858,0.25516 23.40121,0.41846c4.81681,0.08613 8.7691,-0.3381 10.81197,1.45926c1.8584,2.3194 1.40127,5.98605 1.31859,10.61016c-0.16331,9.13263 -0.25516,14.26858 -0.41847,23.40121c-0.08476,4.73972 0.0379,9.57152 -1.28814,11.03497c-1.20309,1.32777 -6.27405,0.97862 -10.97523,0.89455c0,0 -14.62982,-0.26161 -23.99365,-0.42905c-4.81681,-0.08614 -9.63021,0.65837 -11.16833,-1.11541c-1.68241,-1.94016 -1.04815,-6.14928 -0.96752,-10.6578z" data-paper-data="{&quot;origPos&quot;:null}"/></g><text transform="translate(356.74274,321.89) rotate(0.56931) scale(0.99837,0.99837)" font-size="40" xml:space="preserve" data-paper-data="{&quot;origPos&quot;:null,&quot;origRot&quot;:-5.43838}" fill="url(#color-18)" fill-rule="nonzero" stroke="none" stroke-width="1" stroke-linecap="butt" stroke-linejoin="miter" stroke-miterlimit="10" stroke-dasharray="" stroke-dashoffset="0" font-family="Sans Serif" font-weight="normal" text-anchor="start" style="mix-blend-mode: normal"><tspan x="0" dy="0">A</tspan></text></g><g data-paper-data="{&quot;origRot&quot;:0}" stroke-linecap="butt"><g data-paper-data="{&quot;origPos&quot;:null,&quot;origRot&quot;:0}" fill="#365799" stroke="#1d3972" stroke-width="1.5"><path d="M398.79554,321.29031c0.16537,-9.24822 0.25839,-14.44922 0.42376,-23.69743c0.08476,-4.73973 0.06809,-9.6979 1.40617,-10.85774c1.34747,-1.68503 6.51727,-1.14938 11.44964,-1.06118c9.13263,0.16331 14.26858,0.25516 23.40121,0.41846c4.81681,0.08613 8.7691,-0.3381 10.81197,1.45926c1.8584,2.3194 1.40127,5.98605 1.31859,10.61016c-0.16331,9.13263 -0.25516,14.26858 -0.41847,23.40121c-0.08476,4.73972 0.0379,9.57152 -1.28814,11.03497c-1.20309,1.32777 -6.27405,0.97862 -10.97523,0.89455c0,0 -14.62982,-0.26161 -23.99365,-0.42905c-4.81681,-0.08614 -9.63021,0.65837 -11.16833,-1.11541c-1.68241,-1.94016 -1.04815,-6.14928 -0.96752,-10.6578z" data-paper-data="{&quot;origPos&quot;:null}"/></g><text transform="translate(408.09826,324.1632) rotate(0.56931) scale(0.99837,0.99837)" font-size="40" xml:space="preserve" data-paper-data="{&quot;origPos&quot;:null,&quot;origRot&quot;:-5.43838}" fill="url(#color-19)" fill-rule="nonzero" stroke="none" stroke-width="1" stroke-linecap="butt" stroke-linejoin="miter" stroke-miterlimit="10" stroke-dasharray="" stroke-dashoffset="0" font-family="Sans Serif" font-weight="normal" text-anchor="start" style="mix-blend-mode: normal"><tspan x="0" dy="0">A</tspan></text></g><g data-paper-data="{&quot;origRot&quot;:0}" stroke-linecap="butt"><g data-paper-data="{&quot;origPos&quot;:null,&quot;origRot&quot;:0}" fill="#365799" stroke="#1d3972" stroke-width="1.5"><path d="M18.40851,310.83847c0.16537,-9.24822 0.25839,-14.44922 0.42376,-23.69743c0.08476,-4.73973 0.06809,-9.6979 1.40617,-10.85774c1.34747,-1.68503 6.51727,-1.14938 11.44964,-1.06118c9.13263,0.16331 14.26858,0.25516 23.40121,0.41846c4.81681,0.08613 8.7691,-0.3381 10.81197,1.45926c1.8584,2.3194 1.40127,5.98605 1.31859,10.61016c-0.16331,9.13263 -0.25516,14.26858 -0.41847,23.40121c-0.08476,4.73972 0.0379,9.57152 -1.28814,11.03497c-1.20309,1.32777 -6.27405,0.97862 -10.97523,0.89455c0,0 -14.62982,-0.26161 -23.99365,-0.42905c-4.81681,-0.08614 -9.63021,0.65837 -11.16833,-1.11541c-1.68241,-1.94016 -1.04815,-6.14928 -0.96752,-10.6578z" data-paper-data="{&quot;origPos&quot;:null}"/></g><text transform="translate(27.71123,313.71136) rotate(0.56931) scale(0.99837,0.99837)" font-size="40" xml:space="preserve" data-paper-data="{&quot;origPos&quot;:null,&quot;origRot&quot;:-5.43838}" fill="url(#color-20)" fill-rule="nonzero" stroke="none" stroke-width="1" stroke-linecap="butt" stroke-linejoin="miter" stroke-miterlimit="10" stroke-dasharray="" stroke-dashoffset="0" font-family="Sans Serif" font-weight="normal" text-anchor="start" style="mix-blend-mode: normal"><tspan x="0" dy="0">A</tspan></text></g><g data-paper-data="{&quot;origRot&quot;:0}" stroke-linecap="butt"><g data-paper-data="{&quot;origPos&quot;:null,&quot;origRot&quot;:0}" fill="#365799" stroke="#1d3972" stroke-width="1.5"><path d="M447.8796,319.4742c0.16537,-9.24822 0.25839,-14.44922 0.42376,-23.69743c0.08476,-4.73973 0.06809,-9.6979 1.40617,-10.85774c1.34747,-1.68503 6.51727,-1.14938 11.44964,-1.06118c9.13263,0.16331 14.26858,0.25516 23.40121,0.41846c4.81681,0.08613 8.7691,-0.3381 10.81197,1.45926c1.8584,2.3194 1.40127,5.98605 1.31859,10.61016c-0.16331,9.13263 -0.25516,14.26858 -0.41847,23.40121c-0.08476,4.73972 0.0379,9.57152 -1.28814,11.03497c-1.20309,1.32777 -6.27405,0.97862 -10.97523,0.89455c0,0 -14.62982,-0.26161 -23.99365,-0.42905c-4.81681,-0.08614 -9.63021,0.65837 -11.16833,-1.11541c-1.68241,-1.94016 -1.04815,-6.14928 -0.96752,-10.6578z" data-paper-data="{&quot;origPos&quot;:null}"/></g><text transform="translate(457.18232,322.34709) rotate(0.56931) scale(0.99837,0.99837)" font-size="40" xml:space="preserve" data-paper-data="{&quot;origPos&quot;:null,&quot;origRot&quot;:-5.43838}" fill="url(#color-21)" fill-rule="nonzero" stroke="none" stroke-width="1" stroke-linecap="butt" stroke-linejoin="miter" stroke-miterlimit="10" stroke-dasharray="" stroke-dashoffset="0" font-family="Sans Serif" font-weight="normal" text-anchor="start" style="mix-blend-mode: normal"><tspan x="0" dy="0">A</tspan></text></g><g data-paper-data="{&quot;origRot&quot;:0}" stroke-linecap="butt"><g data-paper-data="{&quot;origPos&quot;:null,&quot;origRot&quot;:0}" fill="#365799" stroke="#1d3972" stroke-width="1.5"><path d="M-27.94525,309.02236c0.16537,-9.24822 0.25839,-14.44922 0.42376,-23.69743c0.08476,-4.73973 0.06809,-9.6979 1.40617,-10.85774c1.34747,-1.68503 6.51727,-1.14938 11.44964,-1.06118c9.13263,0.16331 14.26858,0.25516 23.40121,0.41846c4.81681,0.08613 8.7691,-0.3381 10.81197,1.45926c1.8584,2.3194 1.40127,5.98605 1.31859,10.61016c-0.16331,9.13263 -0.25516,14.26858 -0.41847,23.40121c-0.08476,4.73972 0.0379,9.57152 -1.28814,11.03497c-1.20309,1.32777 -6.27405,0.97862 -10.97523,0.89455c0,0 -14.62982,-0.26161 -23.99365,-0.42905c-4.81681,-0.08614 -9.63021,0.65837 -11.16833,-1.11541c-1.68241,-1.94016 -1.04815,-6.14928 -0.96752,-10.6578z" data-paper-data="{&quot;origPos&quot;:null}"/></g><text transform="translate(-18.64253,311.89525) rotate(0.56931) scale(0.99837,0.99837)" font-size="40" xml:space="preserve" data-paper-data="{&quot;origPos&quot;:null,&quot;origRot&quot;:-5.43838}" fill="url(#color-22)" fill-rule="nonzero" stroke="none" stroke-width="1" stroke-linecap="butt" stroke-linejoin="miter" stroke-miterlimit="10" stroke-dasharray="" stroke-dashoffset="0" font-family="Sans Serif" font-weight="normal" text-anchor="start" style="mix-blend-mode: normal"><tspan x="0" dy="0">A</tspan></text></g><g stroke="#000000" stroke-width="0.5" stroke-linecap="round"><path d="M178.97761,209.73225c3.36983,0.57652 6.03144,3.07761 9.1767,4.13851c4.01904,1.22716 8.17482,2.147 12.2356,2.69904c4.26231,0.58299 8.6333,0.44696 12.9553,0.53981c3.47851,0.07486 8.62755,-2.82282 10.6162,0.17994c2.468,3.59223 -3.019,22.16078 -5.61942,25.80197c-3.82399,5.35128 -6.31336,9.96837 -12.86087,11.00257c-7.53426,1.25811 -15.8775,-1.14511 -22.4919,-5.0382c-4.70064,-2.7674 -6.57321,-20.71328 -8.3301,-25.82853c-1.31785,-3.72826 -1.0681,-8.15611 0.17346,-11.8822c0.46927,-1.40421 2.68896,-1.87565 4.14499,-1.61294z" data-paper-data="{&quot;origPos&quot;:null}" fill="#7d191d"/><path d="M215.68463,224.41423l-1.85425,15.3468c-1.95194,2.40825 -3.82759,5.72347 -6.72959,6.77502c-3.89596,1.41142 -8.28351,0.76581 -12.4155,0.53981c-1.74897,-0.09716 -3.57352,-0.70175 -5.21813,-1.43948c-1.45532,-0.65569 -2.71631,-1.58487 -3.77865,-2.69903c-1.30345,-1.19046 -2.10947,-6.61842 -2.9055,-8.13852c-0.48439,-0.92702 -0.32667,-10.37379 -0.38642,-11.39223l-0.17994,-3.05891l3.05891,1.25955c2.8437,0.93134 5.62478,2.13907 8.6369,2.51909c5.2498,0.76581 10.6716,0.76365 16.0142,0.89968c1.42293,0.03599 3.68508,-0.16482 4.21049,-0.25191z" data-paper-data="{&quot;origPos&quot;:null}" fill="#000000"/><path d="M198.41064,224.88224c3.49578,0.35268 7.10673,0.09717 10.6882,0.25191c0.93999,0.04894 2.6616,-0.4081 2.87896,0.35987c0.26558,0.95654 -0.83418,2.87464 -2.05127,3.13087c-3.92835,0.82194 -8.04959,0.095 -12.0557,-0.17994c-2.93151,-0.20153 -5.94723,-0.50381 -8.81684,-1.33152c-1.1084,-0.2987 -2.20385,-0.9846 -2.87897,-1.97929c-0.56571,-0.83346 -1.15374,-2.55796 -0.46783,-2.98693c0.84929,-0.53117 2.57236,0.79603 3.88661,1.07961c2.93007,0.63338 5.84358,1.35743 8.81683,1.65541z" fill="#ffffff"/><path d="M196.12398,247.92324c-2.2751,-0.26415 -4.58403,-0.73557 -6.65761,-1.72738c-1.62373,-0.69743 -3.02652,-1.92963 -4.21049,-3.23884c-0.32461,-0.35987 -1.19908,-1.29409 -0.21592,-1.43948c3.88877,-0.56572 7.85957,-0.35699 11.8038,-0.17994c3.23524,0.17417 6.51295,0.4923 9.64454,1.33152c1.2725,0.34116 2.65945,1.00044 3.31081,2.15922c0.34403,0.57363 -0.4887,1.38407 -1.07961,1.72738c-1.33152,0.77157 -2.91999,1.28042 -4.39043,1.43948c-2.71631,0.29366 -5.43189,0.24975 -8.20506,-0.07198z" data-paper-data="{&quot;origPos&quot;:null}" fill="#ffffff"/></g></g></g></svg>