<svg version="1.1" xmlns="http://www.w3.org/2000/svg" xmlns:xlink="http://www.w3.org/1999/xlink" width="296.80591" height="232.03021"><defs><linearGradient x1="244.90301" y1="187.40981" x2="243.99697" y2="233.47458" gradientTransform="translate(-237.052,-217.47258) rotate(-1.1269) scale(1.00162,1.00162)" gradientUnits="userSpaceOnUse" id="color-1"><stop offset="0" stop-color="#ffffff"/><stop offset="1" stop-color="#e9e9e9"/></linearGradient><linearGradient x1="94.94199" y1="94.68577" x2="113.72469" y2="140.13592" gradientUnits="userSpaceOnUse" id="color-2"><stop offset="0" stop-color="#986ead"/><stop offset="1" stop-color="#7664a9"/></linearGradient><linearGradient x1="149.41728" y1="68.37602" x2="149.41728" y2="145.04269" gradientUnits="userSpaceOnUse" id="color-3"><stop offset="0" stop-color="#ff5959"/><stop offset="1" stop-color="#b00000"/></linearGradient><linearGradient x1="205.94313" y1="91.93197" x2="194.24547" y2="148.47769" gradientUnits="userSpaceOnUse" id="color-4"><stop offset="0" stop-color="#f8b148"/><stop offset="1" stop-color="#f28f1e"/></linearGradient><linearGradient x1="248.90411" y1="88.01525" x2="248.90411" y2="163.53525" gradientUnits="userSpaceOnUse" id="color-5"><stop offset="0" stop-color="#eb5544"/><stop offset="1" stop-color="#e62728"/></linearGradient><linearGradient x1="285.27789" y1="63.01139" x2="285.27789" y2="138.53449" gradientUnits="userSpaceOnUse" id="color-6"><stop offset="0" stop-color="#f6ae45"/><stop offset="1" stop-color="#f28f1e"/></linearGradient><linearGradient x1="332.62916" y1="60.18045" x2="316.42918" y2="136.78459" gradientUnits="userSpaceOnUse" id="color-7"><stop offset="0" stop-color="#d166d1"/><stop offset="1" stop-color="#b149bf"/></linearGradient><linearGradient x1="143.01084" y1="199.17798" x2="154.81042" y2="243.71494" gradientTransform="translate(-75.47721,-264.15325) rotate(14.83875) scale(1.00163,1.00163)" gradientUnits="userSpaceOnUse" id="color-8"><stop offset="0" stop-color="#ffffff"/><stop offset="1" stop-color="#e9e9e9"/></linearGradient><linearGradient x1="220.6996" y1="198.98481" x2="234.31017" y2="172.88195" gradientUnits="userSpaceOnUse" id="color-9"><stop offset="0" stop-color="#de141f"/><stop offset="1" stop-color="#4a1517"/></linearGradient><linearGradient x1="195.24081" y1="227.88912" x2="204.05552" y2="258.64205" gradientUnits="userSpaceOnUse" id="color-10"><stop offset="0" stop-color="#de141f"/><stop offset="1" stop-color="#4a1517"/></linearGradient><linearGradient x1="213.79342" y1="222.53204" x2="234.85713" y2="246.61028" gradientUnits="userSpaceOnUse" id="color-11"><stop offset="0" stop-color="#de141f"/><stop offset="1" stop-color="#4a1517"/></linearGradient><linearGradient x1="178.91118" y1="207.40614" x2="155.92078" y2="189.02005" gradientUnits="userSpaceOnUse" id="color-12"><stop offset="0" stop-color="#de141f"/><stop offset="1" stop-color="#4a1517"/></linearGradient><linearGradient x1="293.46428" y1="188.61343" x2="293.00662" y2="234.68493" gradientTransform="translate(-283.91055,-220.60782) rotate(-0.56931) scale(1.00163,1.00163)" gradientUnits="userSpaceOnUse" id="color-13"><stop offset="0" stop-color="#ffffff"/><stop offset="1" stop-color="#e9e9e9"/></linearGradient><linearGradient x1="368.47228" y1="250.48843" x2="328.72656" y2="273.79254" gradientTransform="translate(-391.21847,156.86816) rotate(-59.61584) scale(1.00163,1.00163)" gradientUnits="userSpaceOnUse" id="color-14"><stop offset="0" stop-color="#ffffff"/><stop offset="1" stop-color="#e9e9e9"/></linearGradient></defs><g transform="translate(-85.64759,-62.22794)"><g data-paper-data="{&quot;isPaintingLayer&quot;:true}" fill="none" fill-rule="nonzero" stroke="none" stroke-width="none" stroke-linecap="none" stroke-linejoin="miter" stroke-miterlimit="10" stroke-dasharray="" stroke-dashoffset="0" font-family="none" font-weight="none" font-size="none" text-anchor="none" style="mix-blend-mode: normal"><g data-paper-data="{&quot;origPos&quot;:null,&quot;origRot&quot;:0}" stroke-linecap="butt"><g data-paper-data="{&quot;origPos&quot;:null,&quot;origRot&quot;:0}" fill="#6289c4" stroke="#4666a8" stroke-width="1.5"><path d="M222.58067,220.15085c0.06565,-9.24946 0.10256,-14.45117 0.16821,-23.70062c0.03365,-4.74036 -0.03649,-9.69808 1.28903,-10.87229c1.32922,-1.69946 6.50449,-1.21958 11.43752,-1.18456c9.13386,0.06483 14.27049,0.10129 23.40436,0.16611c4.81745,0.0342 8.76495,-0.43264 10.82707,1.34259c1.88329,2.29922 1.46574,5.9706 1.43291,10.59533c-0.06482,9.13386 -0.10129,14.2705 -0.16611,23.40436c-0.03365,4.74036 0.14111,9.57056 -1.16907,11.04822c-1.18869,1.34067 -6.26313,1.04621 -10.96496,1.01283c0,0 -14.63178,-0.10385 -23.99688,-0.17032c-4.81745,-0.0342 -9.62255,0.76218 -11.17971,-0.99491c-1.70322,-1.9219 -1.11437,-6.13761 -1.08238,-10.64674z" data-paper-data="{&quot;origPos&quot;:null}"/></g><text transform="translate(232.35213,221.73279) rotate(1.1269) scale(0.99838,0.99838)" font-size="40" xml:space="preserve" data-paper-data="{&quot;origPos&quot;:null,&quot;origRot&quot;:-5.43838}" fill="url(#color-1)" fill-rule="nonzero" stroke="none" stroke-width="1" stroke-linecap="butt" stroke-linejoin="miter" stroke-miterlimit="10" stroke-dasharray="" stroke-dashoffset="0" font-family="Sans Serif" font-weight="normal" text-anchor="start" style="mix-blend-mode: normal"><tspan x="0" dy="0">O</tspan></text></g><path d="M89.41249,109.09271c0.36706,-10.29667 8.06212,-15.26062 8.06212,-15.26062c0,0 6.79426,-4.43367 15.57995,-1.87649c3.83403,1.56169 9.82423,4.00162 9.82423,4.00162l-5.26227,10.83091c0,0 -3.9699,-1.7051 -6.61363,-2.49085c-0.8453,-0.25123 -4.48449,0.94576 -4.48449,0.94576c0,0 -2.41146,1.46125 -2.58275,4.59967c-0.34487,6.31883 15.11654,2.34711 14.36632,14.94122c-1.3924,23.37457 -32.03369,19.18978 -32.03369,19.18978l-0.62069,-11.14929c0,0 19.33862,4.23471 21.04335,-5.85961c0.90545,-5.36151 -17.77207,-4.02491 -17.27843,-17.8721z" data-paper-data="{&quot;origPos&quot;:null,&quot;origRot&quot;:0}" fill="url(#color-2)" stroke="#000000" stroke-width="0" stroke-linecap="round"/><path d="M166.25061,144.04269c0,0 -10.95503,2.53345 -21.1265,-6.93923c-7.38258,-6.87539 -5.20517,-15.02845 -5.36469,-25.11547c-0.10229,-6.46874 -0.81766,-15.51546 -0.81766,-15.51546l-9.92167,-0.67014l-0.06486,-11.21114l11.37307,0.64278l0.58896,-16.85801h17l-0.81309,18.42145l10.49111,0.97754l0.4079,11.02445l-11.37025,-1.32549c0,0 -0.46369,13.13611 0.70105,21.42915c1.26833,9.03052 8.91661,8.80624 8.91661,8.80624z" data-paper-data="{&quot;origPos&quot;:null}" fill="url(#color-3)" stroke="none" stroke-width="0" stroke-linecap="butt"/><path d="M180.79529,94.55862l14.90278,0.35982l0.29351,34.78062c0,0 -0.55736,5.83883 5.25663,5.85292c6.79572,0.01647 6.50576,-5.12158 6.50576,-5.12158l1.14723,-35.16336l13.92351,0.15723l-0.56191,35.62484c0,0 -0.61898,19.0873 -21.49825,18.35884c-20.82953,-0.72672 -20.45243,-21.25058 -20.45243,-21.25058z" data-paper-data="{&quot;origPos&quot;:null,&quot;origRot&quot;:0}" fill="url(#color-4)" stroke="#000000" stroke-width="0" stroke-linecap="round"/><path d="M227.17055,163.26679c0,0 0.51902,-35.23158 0.73297,-50.95985c0.09424,-6.92829 -0.86891,-23.74775 21.81292,-24.29169c20.5585,0.81516 20.92123,17.84414 20.92123,17.84414l-0.09585,21.97453c0,0 -2.02259,15.22702 -15.01786,16.33732c-5.19917,0.44422 -12.96542,-3.26735 -12.96542,-3.26735l-0.20996,22.63136l-15.17802,-0.26847zM249.19052,100.78028c-8.58833,0.17528 -7.12202,15.67904 -7.12202,15.67904c0,0 -1.69261,15.04594 6.85647,15.06247c8.1016,0.01566 7.33632,-14.96517 7.33632,-14.96517c0,0 2.75966,-15.97698 -7.07076,-15.77635z" data-paper-data="{&quot;origPos&quot;:null,&quot;origRot&quot;:0,&quot;index&quot;:null}" fill="url(#color-5)" stroke="#000000" stroke-width="0" stroke-linecap="round"/><path d="M277.40289,138.53449v-54.98182h15.75v54.98182zM285.36213,78.01139c4.14213,0 7.5,-3.35787 7.5,-7.5c0,-4.14213 -3.35787,-7.5 -7.5,-7.5c-4.14213,0 -7.5,3.35787 -7.5,7.5c0,4.14213 3.35787,7.5 7.5,7.5z" data-paper-data="{&quot;origPos&quot;:null}" fill="url(#color-6)" stroke="none" stroke-width="0" stroke-linecap="butt"/><path d="M346.19171,63.04861c0,0 -1.80089,35.18935 -2.5871,50.89942c-0.34632,6.92027 0.00408,23.76363 -22.68252,23.48174c-20.51521,-1.56282 -20.25796,-18.59372 -20.25796,-18.59372l0.89552,-21.95648c0,0 2.57542,-15.14332 15.60249,-15.77994c5.21189,-0.25471 12.83792,3.73704 12.83792,3.73704l1.03345,-22.60873zM321.91222,124.69234c8.58902,0.1374 7.68792,-15.40946 7.68792,-15.40946c0,0 2.23907,-14.97437 -6.30374,-15.30202c-8.09566,-0.3105 -7.87609,14.68826 -7.87609,14.68826c0,0 -3.33929,15.86597 6.49192,16.02323z" data-paper-data="{&quot;origPos&quot;:null,&quot;index&quot;:null,&quot;origRot&quot;:0}" fill="url(#color-7)" stroke="#000000" stroke-width="0" stroke-linecap="round"/><g data-paper-data="{&quot;origPos&quot;:null,&quot;origRot&quot;:0}" stroke-linecap="butt"><g data-paper-data="{&quot;origPos&quot;:null,&quot;origRot&quot;:0}" fill="#365799" stroke="#1d3972" stroke-width="1.5"><path d="M130.64876,235.33149c-2.29775,-8.95975 -3.58995,-13.99854 -5.88768,-22.95829c-1.1776,-4.59188 -2.51101,-9.36743 -1.52917,-10.8411c0.85134,-1.98248 5.97765,-2.83965 10.75617,-4.06511c8.84778,-2.26902 13.82352,-3.54505 22.67131,-5.81409c4.66656,-1.19674 8.3641,-2.65583 10.81108,-1.46584c2.40784,1.74228 2.94135,5.39859 4.09023,9.87847c2.26902,8.84778 3.54507,13.82353 5.81409,22.67131c1.1776,4.59188 2.5796,9.21743 1.69006,10.9806c-0.80706,1.5997 -5.78854,2.61041 -10.34308,3.77843c0,0 -14.17351,3.63482 -23.24528,5.96129c-4.66656,1.19674 -9.10915,3.19337 -11.06327,1.89201c-2.13743,-1.42342 -2.64429,-5.64977 -3.76443,-10.01767z" data-paper-data="{&quot;origPos&quot;:null}"/></g><text transform="translate(140.38042,235.62946) rotate(-14.83875) scale(0.99837,0.99837)" font-size="40" xml:space="preserve" data-paper-data="{&quot;origPos&quot;:null,&quot;origRot&quot;:-5.43838}" fill="url(#color-8)" fill-rule="nonzero" stroke="none" stroke-width="1" stroke-linecap="butt" stroke-linejoin="miter" stroke-miterlimit="10" stroke-dasharray="" stroke-dashoffset="0" font-family="Sans Serif" font-weight="normal" text-anchor="start" style="mix-blend-mode: normal"><tspan x="0" dy="0">N</tspan></text></g><path d="M225.09285,199.24082c1.3627,-7.0469 3.32213,-13.88144 6.07949,-20.31351c0.73446,-1.70202 2.47036,-2.93933 4.19779,-3.62714c1.15958,-0.46029 2.74219,-0.43571 4.00799,0.22433c1.26583,0.66002 2.16024,1.93973 2.47843,3.15781c0.44178,1.69424 0.40982,3.66243 -0.32971,5.20511c-2.07179,4.11856 -4.97174,7.79525 -7.93781,11.44354c-1.94526,2.39368 -3.76524,5.06947 -6.76495,6.45859c-0.87023,0.40264 -2.07193,-0.78714 -1.73122,-2.54872z" data-paper-data="{&quot;origRot&quot;:0,&quot;origPos&quot;:null}" id="ID0.10014915885403752" fill="url(#color-9)" stroke="#000000" stroke-width="0.5" stroke-linecap="butt"/><path d="M193.62044,231.59069c1.83075,2.96214 2.43158,6.49378 3.81452,9.63609c1.46694,3.68746 3.73267,7.1306 4.74184,10.86833c0.47292,1.74838 0.2335,3.83247 -0.54508,5.52093c-0.52368,1.13235 -1.68799,2.20458 -3.06029,2.59792c-1.37225,0.39336 -2.90215,0.08162 -3.97179,-0.58231c-1.48723,-0.92398 -2.91606,-2.36031 -3.34605,-4.00073c-1.09778,-4.19049 -1.1638,-8.66377 -1.32245,-13.04285c-0.15412,-4.26661 -1.138,-8.73069 0.28193,-13.03708c0.41046,-1.15014 2.78126,1.02881 3.40737,2.03971z" data-paper-data="{&quot;origRot&quot;:0,&quot;origPos&quot;:null}" id="ID0.10014915885403752" fill="url(#color-10)" stroke="#000000" stroke-width="0.5" stroke-linecap="butt"/><path d="M209.95088,226.17548c-0.118,-1.21547 2.95466,-0.25257 3.95144,0.39578c2.91725,1.90146 4.96385,4.84168 7.55254,7.09674c2.89669,2.71264 6.41226,4.86428 8.91609,7.81723c1.17198,1.38092 1.84223,3.36877 1.85619,5.22803c0.00798,1.24755 -0.58936,2.71333 -1.66381,3.65326c-1.0744,0.93992 -2.59153,1.30888 -3.842,1.16325c-1.73905,-0.20325 -3.64328,-0.895 -4.73048,-2.19648c-2.7767,-3.32496 -4.74005,-7.34488 -6.74715,-11.24015c-1.95513,-3.79542 -4.74517,-7.41641 -5.29283,-11.91767z" data-paper-data="{&quot;origRot&quot;:0,&quot;origPos&quot;:null,&quot;index&quot;:null}" id="ID0.10014915885403752" fill="url(#color-11)" stroke="#000000" stroke-width="0.5" stroke-linecap="butt"/><path d="M174.44036,212.44474c-3.30519,-0.05983 -6.05055,-1.77308 -8.79657,-3.17767c-4.18655,-2.14028 -8.32402,-4.33323 -11.88222,-7.2648c-1.2994,-1.11279 -2.12325,-2.90056 -2.40308,-4.62894c-0.20067,-1.24285 0.10096,-2.77474 0.99259,-3.88962c0.89159,-1.11489 2.32956,-1.77631 3.57627,-1.82336c1.85807,-0.06814 3.94575,0.36303 5.30488,1.62366c5.11941,4.77135 9.67131,10.23308 13.76303,16.13c1.0229,1.47409 0.40384,3.04775 -0.55488,3.03072z" data-paper-data="{&quot;origRot&quot;:0,&quot;origPos&quot;:null}" id="ID0.10014915885403752" fill="url(#color-12)" stroke="#000000" stroke-width="0.5" stroke-linecap="butt"/><path d="M167.37342,179.36873c0.0725,-0.58034 0.28732,-1.25411 0.71638,-1.54401c0.68165,-0.45416 1.44335,-0.52385 2.37773,-0.64441c3.46641,-0.47727 6.95423,-0.65034 10.46,-1.01516c8.95921,-0.93179 17.87459,-2.00334 26.88803,-2.95891c4.31822,-0.45792 8.65001,-1.01631 12.98597,-1.18608c1.08965,-0.04079 1.61456,0.09201 2.12455,0.6546c0.72027,0.85413 0.99164,2.05819 1.22086,3.19706c0.44964,2.29082 0.35883,3.61875 0.74128,6.96647c1.52762,13.3927 2.97299,26.6967 4.47644,40.23014c0.37566,3.38328 0.24461,1.93101 0.21211,2.91299c-0.03005,0.45332 -0.06431,1.02881 -0.40388,1.35419c-0.60687,0.57575 -1.02575,0.91349 -2.36908,1.09361c-5.26591,0.86171 -10.64114,1.20352 -15.95454,1.79552c-8.35385,0.93039 -16.6031,1.90954 -24.85614,2.7427c-3.86346,0.39113 -7.75599,0.78497 -11.52557,0.93284c-0.94289,0.03692 -0.97086,-0.11197 -1.35419,-0.40388c-0.36604,-0.31332 -0.55503,-0.80204 -0.6798,-1.23888c-0.23841,-0.95315 -0.02417,0.92786 -0.40562,-2.8924c-1.52588,-15.28182 -3.02267,-30.7464 -4.43623,-46.10554c-0.35338,-3.83969 -0.316,-2.6166 -0.21831,-3.89085z" data-paper-data="{&quot;origRot&quot;:0,&quot;origPos&quot;:null}" id="ID0.4964667344465852" fill="#df141d" stroke="#000000" stroke-width="0.5" stroke-linecap="round"/><g data-paper-data="{&quot;origRot&quot;:0,&quot;origPos&quot;:null}" id="ID0.9475001120008528" stroke="#000000" stroke-width="1" stroke-linecap="butt"><path d="M195.7753,177.50528c5.04117,-0.53641 9.84588,1.20102 13.53597,4.44079c3.69014,3.24012 6.26529,7.98307 6.84778,13.45728c0.58249,5.47422 -0.93694,10.65285 -3.86263,14.59697c-2.92573,3.9437 -7.25725,6.65328 -12.29842,7.18969c-5.04117,0.53641 -9.84588,-1.20102 -13.53597,-4.44075c-3.69014,-3.24016 -6.26533,-7.9831 -6.84782,-13.45732c-0.58249,-5.47422 0.93698,-10.65285 3.86267,-14.59694c2.92573,-3.94374 7.25724,-6.65332 12.29841,-7.18973z" id="ID0.2672549015842378" fill="#7d191d"/><path d="M196.02261,182.58281c3.62326,-0.38554 7.07803,0.88059 9.73318,3.23733c2.65477,2.35717 4.50992,5.80457 4.93315,9.78204c0.42323,3.97747 -0.66495,7.73805 -2.76426,10.60109c-2.09977,2.86269 -5.21075,4.82746 -8.83401,5.213c-3.62326,0.38554 -7.07803,-0.88059 -9.73318,-3.23733c-2.65481,-2.35717 -4.50992,-5.80457 -4.93315,-9.78204c-0.42323,-3.97747 0.66491,-7.73805 2.76426,-10.60109c2.09977,-2.86269 5.21075,-4.82746 8.83401,-5.213z" id="ID0.04306362196803093" fill="#ffffff"/></g><g data-paper-data="{&quot;origRot&quot;:0,&quot;origPos&quot;:null,&quot;index&quot;:null}" id="ID0.7348965127021074" stroke="none" stroke-width="1" stroke-linecap="butt"><path d="M206.1844,201.67618c0.64185,-0.0683 1.25343,0.15207 1.72317,0.56328c0.46962,0.41122 0.79731,1.01328 0.87126,1.70828c0.07395,0.695 -0.11971,1.35254 -0.49228,1.85337c-0.37269,0.50084 -0.9242,0.84498 -1.56605,0.91327c-0.64186,0.0683 -1.25343,-0.15207 -1.72317,-0.56328c-0.46963,-0.41122 -0.79731,-1.01328 -0.87126,-1.70828c-0.07395,-0.695 0.1197,-1.35253 0.49228,-1.85337c0.37269,-0.50084 0.92419,-0.84497 1.56605,-0.91327z" id="ID0.3049218291416764" fill="#000000"/><path d="M206.89832,202.93667c0.10253,-0.01091 0.1999,0.02083 0.27435,0.08095c0.07445,0.06013 0.12596,0.14864 0.13687,0.25117c0.01091,0.10253 -0.02083,0.1999 -0.08095,0.27435c-0.06013,0.07445 -0.14864,0.12596 -0.25117,0.13687c-0.10253,0.01091 -0.1999,-0.02083 -0.27435,-0.08095c-0.07445,-0.06013 -0.12596,-0.14864 -0.13687,-0.25117c-0.01091,-0.10253 0.02083,-0.1999 0.08095,-0.27435c0.06013,-0.07445 0.14864,-0.12596 0.25117,-0.13687z" id="ID0.06762191886082292" fill="#ffffff"/></g><g data-paper-data="{&quot;origPos&quot;:null,&quot;origRot&quot;:0}" stroke-linecap="butt"><g data-paper-data="{&quot;origPos&quot;:null,&quot;origRot&quot;:0}" fill="#365799" stroke="#1d3972" stroke-width="1.5"><path d="M271.94264,220.18085c0.16537,-9.24822 0.25839,-14.44922 0.42376,-23.69743c0.08476,-4.73973 0.06809,-9.6979 1.40617,-10.85774c1.34747,-1.68503 6.51727,-1.14938 11.44964,-1.06118c9.13263,0.16331 14.26857,0.25516 23.40121,0.41846c4.81681,0.08613 8.7691,-0.3381 10.81197,1.45926c1.8584,2.3194 1.40127,5.98605 1.31859,10.61016c-0.16331,9.13263 -0.25516,14.26858 -0.41846,23.40121c-0.08476,4.73972 0.03789,9.57152 -1.28814,11.03497c-1.20308,1.32777 -6.27405,0.97862 -10.97523,0.89455c0,0 -14.62983,-0.26161 -23.99366,-0.42905c-4.81681,-0.08614 -9.63021,0.65837 -11.16833,-1.11541c-1.68241,-1.94016 -1.04814,-6.14927 -0.96752,-10.65779z" data-paper-data="{&quot;origPos&quot;:null}"/></g><text transform="translate(281.24536,223.05374) rotate(0.56931) scale(0.99837,0.99837)" font-size="40" xml:space="preserve" data-paper-data="{&quot;origPos&quot;:null,&quot;origRot&quot;:-5.43838}" fill="url(#color-13)" fill-rule="nonzero" stroke="none" stroke-width="1" stroke-linecap="butt" stroke-linejoin="miter" stroke-miterlimit="10" stroke-dasharray="" stroke-dashoffset="0" font-family="Sans Serif" font-weight="normal" text-anchor="start" style="mix-blend-mode: normal"><tspan x="0" dy="0">B</tspan></text></g><g data-paper-data="{&quot;origPos&quot;:null,&quot;index&quot;:null}" id="ID0.5567619865760207" stroke="#000000" stroke-width="0.5" stroke-linecap="round"><path d="M217.99539,294.00815c-6.15198,-1.05251 -11.01104,-5.61851 -16.75306,-7.55529c-7.33719,-2.2403 -14.92401,-3.91958 -22.3374,-4.92739c-7.7813,-1.06432 -15.76103,-0.81598 -23.65129,-0.98548c-6.35039,-0.13667 -15.75051,5.15336 -19.38102,-0.3285c-4.50559,-6.558 5.5115,-40.45687 10.25884,-47.10426c6.98109,-9.76935 11.52571,-18.19834 23.47889,-20.08637c13.75461,-2.29681 28.98608,2.09053 41.06139,9.19777c8.58153,5.05219 12.00012,37.81434 15.2075,47.15278c2.40586,6.80634 1.94994,14.88986 -0.31666,21.69224c-0.85671,2.56355 -4.90899,3.42419 -7.56713,2.94459z" data-paper-data="{&quot;origPos&quot;:null}" id="ID0.3539912081323564" fill="#7d191d"/><path d="M150.98279,267.20462l3.3851,-28.01725c3.56348,-4.39651 6.98768,-10.44881 12.28559,-12.36854c7.11251,-2.57671 15.12245,-1.39808 22.66584,-0.98548c3.19293,0.17737 6.52385,1.28113 9.52625,2.62793c2.65685,1.19703 4.95892,2.89334 6.89834,4.92736c2.37959,2.17331 3.85105,12.08264 5.30429,14.85776c0.88427,1.69235 0.59636,18.93847 0.70544,20.79776l0.3285,5.58436l-5.58436,-2.29946c-5.19148,-1.70026 -10.26865,-3.90509 -15.76759,-4.59886c-9.58408,-1.39808 -19.48217,-1.39411 -29.23566,-1.64245c-2.59772,-0.06571 -6.72753,0.30091 -7.6867,0.45989z" data-paper-data="{&quot;origPos&quot;:null}" id="ID0.7451628390699625" fill="#000000"/><path d="M182.51831,266.35021c-6.38192,-0.64387 -12.9741,-0.1774 -19.51246,-0.45989c-1.71606,-0.08933 -4.85904,0.74504 -5.25586,-0.65698c-0.48483,-1.74627 1.52288,-5.24796 3.74482,-5.71575c7.17163,-1.50055 14.69539,-0.17343 22.00898,0.3285c5.35178,0.36791 10.8573,0.91977 16.09609,2.43084c2.0235,0.54531 4.02337,1.79749 5.25586,3.61341c1.03276,1.52156 2.10628,4.66982 0.85407,5.45295c-1.55048,0.9697 -4.69612,-1.45324 -7.09543,-1.97096c-5.34916,-1.1563 -10.66808,-2.47812 -16.09609,-3.02214z" id="ID0.0041041807271540165" fill="#ffffff"/><path d="M186.69286,224.28639c4.15343,0.48225 8.36863,1.34287 12.15418,3.15352c2.96431,1.27322 5.52524,3.52275 7.6867,5.91287c0.59262,0.65698 2.18906,2.36249 0.39418,2.62793c-7.09937,1.03279 -14.34849,0.65172 -21.5491,0.3285c-5.90628,-0.31795 -11.89009,-0.89876 -17.60716,-2.43084c-2.32308,-0.62283 -4.8551,-1.82641 -6.04425,-3.94188c-0.62806,-1.04722 0.89218,-2.52676 1.97096,-3.15352c2.43084,-1.40857 5.33077,-2.33754 8.01521,-2.62793c4.95892,-0.53611 9.91649,-0.45595 14.97923,0.13141z" data-paper-data="{&quot;origPos&quot;:null}" id="ID0.0041041807271540165" fill="#ffffff"/></g><g stroke-linecap="butt"><path d="M328.27783,244.83619c8.01619,-4.61491 12.52434,-7.21025 20.54052,-11.82517c4.10831,-2.36515 8.3518,-4.92964 10.03469,-4.37868c2.13812,0.28889 4.3378,4.99794 6.79908,9.27323c4.55724,7.91601 7.1201,12.36775 11.67735,20.28376c2.40361,4.17512 4.80026,7.34635 4.30961,10.02274c-1.03323,2.7867 -4.41282,4.28058 -8.42091,6.58805c-7.91601,4.55724 -12.36776,7.12011 -20.28376,11.67736c-4.10831,2.36515 -8.18891,4.95553 -10.12597,4.57106c-1.75747,-0.34882 -4.06626,-4.87719 -6.41217,-8.95209c0,0 -7.30038,-12.68088 -11.97299,-20.79728c-2.40361,-4.17512 -5.51782,-7.92009 -4.78778,-10.1515c0.79852,-2.44072 4.73442,-4.0617 8.64233,-6.31148z" data-paper-data="{&quot;origPos&quot;:null}" fill="#6289c4" stroke="#4666a8" stroke-width="1.5"/><text transform="translate(332.65622,257.72205) rotate(59.61584) scale(0.99837,0.99837)" font-size="40" xml:space="preserve" data-paper-data="{&quot;origPos&quot;:null,&quot;origRot&quot;:-5.43838}" fill="url(#color-14)" fill-rule="nonzero" stroke="none" stroke-width="1" stroke-linecap="butt" stroke-linejoin="miter" stroke-miterlimit="10" stroke-dasharray="" stroke-dashoffset="0" font-family="Sans Serif" font-weight="normal" text-anchor="start" style="mix-blend-mode: normal"><tspan x="0" dy="0">S</tspan></text></g></g></g></svg>