<svg version="1.1" xmlns="http://www.w3.org/2000/svg" xmlns:xlink="http://www.w3.org/1999/xlink" width="262.76914" height="156.47072" viewBox="0,0,262.76914,156.47072"><defs><linearGradient x1="218.64781" y1="103.32495" x2="218.64781" y2="159.33333" gradientUnits="userSpaceOnUse" id="color-1"><stop offset="0" stop-color="#fdda62"/><stop offset="1" stop-color="#fcc618"/></linearGradient><linearGradient x1="150.02917" y1="88.83334" x2="150.02917" y2="167.1317" gradientUnits="userSpaceOnUse" id="color-2"><stop offset="0" stop-color="#b8d166"/><stop offset="1" stop-color="#8abf49"/></linearGradient><linearGradient x1="261.15059" y1="110.15865" x2="261.15059" y2="165.69938" gradientUnits="userSpaceOnUse" id="color-3"><stop offset="0" stop-color="#7db9e1"/><stop offset="1" stop-color="#50aede"/></linearGradient><linearGradient x1="141.09874" y1="188.71334" x2="150.98502" y2="233.71419" gradientTransform="translate(-85.57994,-249.56001) rotate(12.39046) scale(1.00162,1.00162)" gradientUnits="userSpaceOnUse" id="color-4"><stop offset="0" stop-color="#ffffff"/><stop offset="1" stop-color="#e9e9e9"/></linearGradient><linearGradient x1="306.33739" y1="188.73053" x2="293.6318" y2="233.01801" gradientTransform="translate(-335.17695,-131.70719) rotate(-16.00775) scale(1.00162,1.00162)" gradientUnits="userSpaceOnUse" id="color-5"><stop offset="0" stop-color="#ffffff"/><stop offset="1" stop-color="#e9e9e9"/></linearGradient><linearGradient x1="248.02461" y1="179.77325" x2="247.96911" y2="225.84726" gradientTransform="translate(-236.74905,-214.38053) rotate(-0.06915) scale(1.00162,1.00162)" gradientUnits="userSpaceOnUse" id="color-6"><stop offset="0" stop-color="#ffffff"/><stop offset="1" stop-color="#e9e9e9"/></linearGradient><linearGradient x1="87.16627" y1="206.83918" x2="106.59262" y2="248.61756" gradientTransform="translate(20.08391,-259.28833) rotate(24.93765) scale(1.00163,1.00163)" gradientUnits="userSpaceOnUse" id="color-7"><stop offset="0" stop-color="#ffffff"/><stop offset="1" stop-color="#e9e9e9"/></linearGradient><linearGradient x1="220.6996" y1="198.98481" x2="234.31017" y2="172.88195" gradientUnits="userSpaceOnUse" id="color-8"><stop offset="0" stop-color="#de141f"/><stop offset="1" stop-color="#4a1517"/></linearGradient><linearGradient x1="195.24081" y1="227.88912" x2="204.05552" y2="258.64205" gradientUnits="userSpaceOnUse" id="color-9"><stop offset="0" stop-color="#de141f"/><stop offset="1" stop-color="#4a1517"/></linearGradient><linearGradient x1="213.79342" y1="222.53204" x2="234.85713" y2="246.61028" gradientUnits="userSpaceOnUse" id="color-10"><stop offset="0" stop-color="#de141f"/><stop offset="1" stop-color="#4a1517"/></linearGradient><linearGradient x1="178.91118" y1="207.40614" x2="155.92078" y2="189.02005" gradientUnits="userSpaceOnUse" id="color-11"><stop offset="0" stop-color="#de141f"/><stop offset="1" stop-color="#4a1517"/></linearGradient></defs><g transform="translate(-67.21462,-103.99324)"><g data-paper-data="{&quot;isPaintingLayer&quot;:true}" fill="none" fill-rule="nonzero" stroke="none" stroke-width="none" stroke-linecap="none" stroke-linejoin="miter" stroke-miterlimit="10" stroke-dasharray="" stroke-dashoffset="0" font-family="none" font-weight="none" font-size="none" text-anchor="none" style="mix-blend-mode: normal"><path d="M185.16667,159.33333l-2,-37.66667c0,0 -1.89293,-16.9354 21,-17.66666c6.88315,-0.21987 14,5 14,5c0,0 -5.049,1.07205 5,1.33334c21.36283,0.55546 -3,-1.5 -3,-1.5l2,-4.33334l4.16667,13.83334l3.33333,1c0,0 8.7247,-2.19747 3.16667,-2.33334c-6.56067,-0.16038 -6.33334,5.33334 -6.33334,5.33334v35.66666h-15.33334l-0.66666,-36c0,0 0.28186,-4.70532 -5.66666,-4.66666c-6.61564,0.04299 -5.66667,5 -5.66667,5l0.66667,36z" data-paper-data="{&quot;origPos&quot;:null}" fill="url(#color-1)" stroke="#000000" stroke-width="0" stroke-linecap="round"/><path d="M127.16667,131.33334l15.5,-17.66667l4.83333,-0.16666c0,0 8.28691,-2.32754 13.33333,-1c12.61347,3.31816 12,18.66666 12,18.66666l-3.66667,21.66667c0,0 -3.27202,16.71561 -23.66667,14c-22.25403,-4.41808 -18.42631,-20.82449 -17.33333,-27.66667c2.48122,-15.5328 -1,-7.83333 -1,-7.83333zM147.16667,154.16667c9.65102,1.88022 9.66666,-14.33334 9.66666,-14.33334c0,0 3.31807,-14.62878 -4.66666,-16c-8.42575,-1.44695 -9.33334,13.66667 -9.33334,13.66667c0,0 -4.09826,15.02401 4.33334,16.66666z" data-paper-data="{&quot;origPos&quot;:null}" fill="url(#color-2)" stroke="#000000" stroke-width="0" stroke-linecap="round"/><path d="M256.33334,152.33334c5.07373,2.81277 13.66667,0 13.66667,0l4,11.33333c0,0 -15.17419,4.78831 -24.66667,-0.33333c-14.79415,-7.98213 -11,-23.66667 -11,-23.66667l5.33333,-18.33333c0,0 6.89199,-16.07195 26.66667,-9.66667c17.74247,5.74702 13.66667,22.33334 13.66667,22.33334l-4.66667,14l-25.33333,-8c0,0 -4.19936,8.71175 2.33333,12.33334zM269.66667,134.33334c0,0 3.08704,-8.28744 -4.33334,-10.66666c-7.37336,-2.36415 -8.33333,6.33333 -8.33333,6.33333z" data-paper-data="{&quot;origPos&quot;:null}" fill="url(#color-3)" stroke="#000000" stroke-width="0" stroke-linecap="round"/><g data-paper-data="{&quot;origPos&quot;:null}" stroke-linecap="butt"><g data-paper-data="{&quot;origPos&quot;:null,&quot;origRot&quot;:0}" fill="#6289c4" stroke="#4666a8" stroke-width="1.5"><path d="M123.89194,225.49361c-2.09813,-9.00859 -3.27808,-14.07483 -5.37621,-23.08342c-1.07529,-4.61692 -2.3023,-9.42091 -1.28796,-10.87241c0.89517,-1.96307 6.03925,-2.70615 10.84382,-3.82515c8.896,-2.07191 13.89887,-3.23709 22.79487,-5.30901c4.692,-1.09278 8.42103,-2.46936 10.84097,-1.22531c2.36854,1.79533 2.8207,5.46261 3.86976,9.9669c2.07191,8.896 3.23709,13.89887 5.30901,22.79487c1.07529,4.61692 2.37421,9.27246 1.44571,11.01543c-0.8424,1.58137 -5.8451,2.48117 -10.42448,3.54772c0,0 -14.25075,3.31905 -23.37196,5.44341c-4.692,1.09278 -9.17785,2.99023 -11.10257,1.64578c-2.10527,-1.47055 -2.51811,-5.70712 -3.54096,-10.09882z" data-paper-data="{&quot;origPos&quot;:null}"/></g><text transform="translate(136.91313,225.01884) rotate(-12.39046) scale(0.99838,0.99838)" font-size="40" xml:space="preserve" data-paper-data="{&quot;origPos&quot;:null,&quot;origRot&quot;:-5.43838}" fill="url(#color-4)" fill-rule="nonzero" stroke="none" stroke-width="1" stroke-linecap="butt" stroke-linejoin="miter" stroke-miterlimit="10" stroke-dasharray="" stroke-dashoffset="0" font-family="Sans Serif" font-weight="normal" text-anchor="start" style="mix-blend-mode: normal"><tspan x="0" dy="0">L</tspan></text></g><g data-paper-data="{&quot;origPos&quot;:null}" stroke-linecap="butt"><g data-paper-data="{&quot;origPos&quot;:null,&quot;origRot&quot;:0}" fill="#6289c4" stroke="#4666a8" stroke-width="1.5"><path d="M275.38602,214.15172c2.23454,-8.97573 3.49118,-14.02348 5.72572,-22.99922c1.1452,-4.60007 2.24054,-9.43579 3.80459,-10.26612c1.69093,-1.34005 6.60905,0.34099 11.3961,1.53274c8.86355,2.20661 13.84817,3.44754 22.71173,5.65414c4.67489,1.16382 8.62169,1.63647 10.2096,3.84606c1.2911,2.67699 0.02359,6.14783 -1.09368,10.63569c-2.20661,8.86355 -3.44754,13.84817 -5.65414,22.71173c-1.1452,4.60007 -2.10891,9.33638 -3.72929,10.46528c-1.47014,1.02425 -6.33374,-0.45288 -10.89641,-1.58877c0,0 -14.19877,-3.53483 -23.28671,-5.79729c-4.67489,-1.16382 -9.53268,-1.51739 -10.63398,-3.59084c-1.20462,-2.26795 0.35715,-6.22773 1.44649,-10.60341z" data-paper-data="{&quot;origPos&quot;:null}"/></g><text transform="translate(285.39596,218.6757) rotate(16.00775) scale(0.99838,0.99838)" font-size="40" xml:space="preserve" data-paper-data="{&quot;origPos&quot;:null,&quot;origRot&quot;:-5.43838}" fill="url(#color-5)" fill-rule="nonzero" stroke="none" stroke-width="1" stroke-linecap="butt" stroke-linejoin="miter" stroke-miterlimit="10" stroke-dasharray="" stroke-dashoffset="0" font-family="Sans Serif" font-weight="normal" text-anchor="start" style="mix-blend-mode: normal"><tspan x="0" dy="0">K</tspan></text></g><g data-paper-data="{&quot;origPos&quot;:null}" stroke-linecap="butt"><g data-paper-data="{&quot;origPos&quot;:null,&quot;origRot&quot;:0}" fill="#365799" stroke="#1d3972" stroke-width="1.5"><path d="M228.00709,211.8233c0.03401,-9.24963 0.05313,-14.45142 0.08714,-23.70106c0.01743,-4.74045 -0.06966,-9.6979 1.25182,-10.87663c1.32339,-1.704 6.50028,-1.24182 11.43341,-1.22368c9.13403,0.03358 14.27076,0.05247 23.40479,0.08605c4.81754,0.01771 8.76342,-0.46261 10.8316,1.30555c1.89114,2.29277 1.48615,5.96555 1.46915,10.59036c-0.03358,9.13403 -0.05247,14.27076 -0.08605,23.40479c-0.01743,4.74045 0.17384,9.57002 -1.13128,11.05215c-1.1841,1.34473 -6.25952,1.06763 -10.96142,1.05034c0,0 -14.63206,-0.0538 -23.99732,-0.08823c-4.81754,-0.01771 -9.61989,0.79509 -11.18305,-0.95666c-1.70979,-1.91606 -1.13537,-6.13376 -1.1188,-10.64298z" data-paper-data="{&quot;origPos&quot;:null}"/></g><text transform="translate(236.10719,214.31852) rotate(0.06915) scale(0.99838,0.99838)" font-size="40" xml:space="preserve" data-paper-data="{&quot;origPos&quot;:null,&quot;origRot&quot;:-5.43838}" fill="url(#color-6)" fill-rule="nonzero" stroke="none" stroke-width="1" stroke-linecap="butt" stroke-linejoin="miter" stroke-miterlimit="10" stroke-dasharray="" stroke-dashoffset="0" font-family="Sans Serif" font-weight="normal" text-anchor="start" style="mix-blend-mode: normal"><tspan x="0" dy="0">C</tspan></text></g><g data-paper-data="{&quot;origPos&quot;:null}" stroke-linecap="butt"><g data-paper-data="{&quot;origPos&quot;:null,&quot;origRot&quot;:0}" fill="#365799" stroke="#1d3972" stroke-width="1.5"><path d="M81.33122,244.5984c-3.8332,-8.41804 -5.98891,-13.15217 -9.82211,-21.57021c-1.96452,-4.31426 -4.11465,-8.78201 -3.40643,-10.40501c0.49053,-2.10104 5.38711,-3.84381 9.87672,-5.88818c8.31283,-3.78529 12.98775,-5.91404 21.30058,-9.69933c4.38442,-1.99647 7.76882,-4.08129 10.38655,-3.33881c2.67604,1.29307 3.8424,4.7992 5.75901,9.00822c3.78529,8.31283 5.91404,12.98775 9.69933,21.30058c1.96452,4.31426 4.15588,8.6223 3.58928,10.51413c-0.51406,1.71643 -5.24113,3.58496 -9.52031,5.53351c0,0 -13.31656,6.06377 -21.83984,9.94489c-4.38442,1.99647 -8.40808,4.74115 -10.56011,3.80261c-2.3539,-1.02658 -3.59398,-5.09858 -5.46267,-9.20239z" data-paper-data="{&quot;origPos&quot;:null}"/></g><text transform="translate(90.96436,243.18535) rotate(-24.93765) scale(0.99837,0.99837)" font-size="40" xml:space="preserve" data-paper-data="{&quot;origPos&quot;:null,&quot;origRot&quot;:-5.43838}" fill="url(#color-7)" fill-rule="nonzero" stroke="none" stroke-width="1" stroke-linecap="butt" stroke-linejoin="miter" stroke-miterlimit="10" stroke-dasharray="" stroke-dashoffset="0" font-family="Sans Serif" font-weight="normal" text-anchor="start" style="mix-blend-mode: normal"><tspan x="0" dy="0">B</tspan></text></g><path d="M225.09285,199.24082c1.3627,-7.0469 3.32213,-13.88144 6.07949,-20.31351c0.73446,-1.70202 2.47036,-2.93933 4.19779,-3.62714c1.15958,-0.46029 2.74219,-0.43571 4.00799,0.22433c1.26583,0.66002 2.16024,1.93973 2.47843,3.15781c0.44178,1.69424 0.40982,3.66243 -0.32971,5.20511c-2.07179,4.11856 -4.97174,7.79525 -7.93781,11.44354c-1.94526,2.39368 -3.76524,5.06947 -6.76495,6.45859c-0.87023,0.40264 -2.07193,-0.78714 -1.73122,-2.54872z" data-paper-data="{&quot;origRot&quot;:0,&quot;origPos&quot;:null}" id="ID0.10014915885403752" fill="url(#color-8)" stroke="#000000" stroke-width="0.5" stroke-linecap="butt"/><path d="M193.62044,231.59069c1.83075,2.96214 2.43158,6.49378 3.81452,9.63609c1.46694,3.68746 3.73267,7.1306 4.74184,10.86833c0.47292,1.74838 0.2335,3.83247 -0.54508,5.52093c-0.52368,1.13235 -1.68799,2.20458 -3.06029,2.59792c-1.37225,0.39336 -2.90215,0.08162 -3.97179,-0.58231c-1.48723,-0.92398 -2.91606,-2.36031 -3.34605,-4.00073c-1.09778,-4.19049 -1.1638,-8.66377 -1.32245,-13.04285c-0.15412,-4.26661 -1.138,-8.73069 0.28193,-13.03708c0.41046,-1.15014 2.78126,1.02881 3.40737,2.03971z" data-paper-data="{&quot;origRot&quot;:0,&quot;origPos&quot;:null}" id="ID0.10014915885403752" fill="url(#color-9)" stroke="#000000" stroke-width="0.5" stroke-linecap="butt"/><path d="M209.95088,226.17548c-0.118,-1.21547 2.95466,-0.25257 3.95144,0.39578c2.91725,1.90146 4.96385,4.84168 7.55254,7.09674c2.89669,2.71264 6.41226,4.86428 8.91609,7.81723c1.17198,1.38092 1.84223,3.36877 1.85619,5.22803c0.00798,1.24755 -0.58936,2.71333 -1.66381,3.65326c-1.0744,0.93992 -2.59153,1.30888 -3.842,1.16325c-1.73905,-0.20325 -3.64328,-0.895 -4.73048,-2.19648c-2.7767,-3.32496 -4.74005,-7.34488 -6.74715,-11.24015c-1.95513,-3.79542 -4.74517,-7.41641 -5.29283,-11.91767z" data-paper-data="{&quot;origRot&quot;:0,&quot;origPos&quot;:null,&quot;index&quot;:null}" id="ID0.10014915885403752" fill="url(#color-10)" stroke="#000000" stroke-width="0.5" stroke-linecap="butt"/><path d="M174.44036,212.44474c-3.30519,-0.05983 -6.05055,-1.77308 -8.79657,-3.17767c-4.18655,-2.14028 -8.32402,-4.33323 -11.88222,-7.2648c-1.2994,-1.11279 -2.12325,-2.90056 -2.40308,-4.62894c-0.20067,-1.24285 0.10096,-2.77474 0.99259,-3.88962c0.89159,-1.11489 2.32956,-1.77631 3.57627,-1.82336c1.85807,-0.06814 3.94575,0.36303 5.30488,1.62366c5.11941,4.77135 9.67131,10.23308 13.76303,16.13c1.0229,1.47409 0.40384,3.04775 -0.55488,3.03072z" data-paper-data="{&quot;origRot&quot;:0,&quot;origPos&quot;:null}" id="ID0.10014915885403752" fill="url(#color-11)" stroke="#000000" stroke-width="0.5" stroke-linecap="butt"/><path d="M167.37342,179.36873c0.0725,-0.58034 0.28732,-1.25411 0.71638,-1.54401c0.68165,-0.45416 1.44335,-0.52385 2.37773,-0.64441c3.46641,-0.47727 6.95423,-0.65034 10.46,-1.01516c8.95921,-0.93179 17.87459,-2.00334 26.88803,-2.95891c4.31822,-0.45792 8.65001,-1.01631 12.98597,-1.18608c1.08965,-0.04079 1.61456,0.09201 2.12455,0.6546c0.72027,0.85413 0.99164,2.05819 1.22086,3.19706c0.44964,2.29082 0.35883,3.61875 0.74128,6.96647c1.52762,13.3927 2.97299,26.6967 4.47644,40.23014c0.37566,3.38328 0.24461,1.93101 0.21211,2.91299c-0.03005,0.45332 -0.06431,1.02881 -0.40388,1.35419c-0.60687,0.57575 -1.02575,0.91349 -2.36908,1.09361c-5.26591,0.86171 -10.64114,1.20352 -15.95454,1.79552c-8.35385,0.93039 -16.6031,1.90954 -24.85614,2.7427c-3.86346,0.39113 -7.75599,0.78497 -11.52557,0.93284c-0.94289,0.03692 -0.97086,-0.11197 -1.35419,-0.40388c-0.36604,-0.31332 -0.55503,-0.80204 -0.6798,-1.23888c-0.23841,-0.95315 -0.02417,0.92786 -0.40562,-2.8924c-1.52588,-15.28182 -3.02267,-30.7464 -4.43623,-46.10554c-0.35338,-3.83969 -0.316,-2.6166 -0.21831,-3.89085z" data-paper-data="{&quot;origRot&quot;:0,&quot;origPos&quot;:null}" id="ID0.4964667344465852" fill="#df141d" stroke="#000000" stroke-width="0.5" stroke-linecap="round"/><g data-paper-data="{&quot;origRot&quot;:0,&quot;origPos&quot;:null}" id="ID0.9475001120008528" stroke="#000000" stroke-width="1" stroke-linecap="butt"><path d="M195.7753,177.50528c5.04117,-0.53641 9.84588,1.20102 13.53597,4.44079c3.69014,3.24012 6.26529,7.98307 6.84778,13.45728c0.58249,5.47422 -0.93694,10.65285 -3.86263,14.59697c-2.92573,3.9437 -7.25725,6.65328 -12.29842,7.18969c-5.04117,0.53641 -9.84588,-1.20102 -13.53597,-4.44075c-3.69014,-3.24016 -6.26533,-7.9831 -6.84782,-13.45732c-0.58249,-5.47422 0.93698,-10.65285 3.86267,-14.59694c2.92573,-3.94374 7.25724,-6.65332 12.29841,-7.18973z" id="ID0.2672549015842378" fill="#7d191d"/><path d="M196.02261,182.58281c3.62326,-0.38554 7.07803,0.88059 9.73318,3.23733c2.65477,2.35717 4.50992,5.80457 4.93315,9.78204c0.42323,3.97747 -0.66495,7.73805 -2.76426,10.60109c-2.09977,2.86269 -5.21075,4.82746 -8.83401,5.213c-3.62326,0.38554 -7.07803,-0.88059 -9.73318,-3.23733c-2.65481,-2.35717 -4.50992,-5.80457 -4.93315,-9.78204c-0.42323,-3.97747 0.66491,-7.73805 2.76426,-10.60109c2.09977,-2.86269 5.21075,-4.82746 8.83401,-5.213z" id="ID0.04306362196803093" fill="#ffffff"/></g><g data-paper-data="{&quot;origRot&quot;:0,&quot;origPos&quot;:null,&quot;index&quot;:null}" id="ID0.7348965127021074" stroke="none" stroke-width="1" stroke-linecap="butt"><path d="M196.61634,187.80365c2.25574,-0.24003 4.4051,0.53445 6.05597,1.97961c1.65045,1.4452 2.8021,3.56112 3.062,6.00365c0.2599,2.44252 -0.42071,4.75341 -1.73009,6.51356c-1.3098,1.76019 -3.24806,2.96962 -5.5038,3.20964c-2.25578,0.24003 -4.4051,-0.53445 -6.05597,-1.97961c-1.65048,-1.4452 -2.8021,-3.56112 -3.062,-6.00365c-0.2599,-2.44252 0.42067,-4.7534 1.73009,-6.51356c1.3098,-1.76019 3.24802,-2.96961 5.5038,-3.20964z" id="ID0.3049218291416764" fill="#000000"/><path d="M199.12538,192.23357c0.36032,-0.03834 0.70254,0.0732 0.96417,0.28451c0.26164,0.21131 0.44269,0.52239 0.48103,0.88272c0.03834,0.36032 -0.0732,0.70254 -0.28451,0.96417c-0.21131,0.26164 -0.52239,0.44269 -0.88272,0.48103c-0.36032,0.03834 -0.70254,-0.0732 -0.96417,-0.28451c-0.26164,-0.21131 -0.44269,-0.52239 -0.48103,-0.88272c-0.03834,-0.36032 0.0732,-0.70254 0.28451,-0.96417c0.21131,-0.26164 0.52239,-0.44269 0.88272,-0.48103z" id="ID0.06762191886082292" fill="#ffffff"/></g><g data-paper-data="{&quot;origPos&quot;:null,&quot;origRot&quot;:0}" stroke="#000000" stroke-width="0.5" stroke-linecap="round"><path d="M217.46446,227.21307c-1.75456,0.1319 -3.39522,-0.78549 -5.09798,-0.92345c-2.1598,-0.11214 -4.3496,-0.05377 -6.44614,0.17642c-2.20104,0.23984 -4.36677,0.85226 -6.53655,1.34429c-1.74634,0.39593 -3.95658,2.48433 -5.32368,1.2326c-1.6799,-1.48636 -1.67255,-4.61874 -0.8276,-6.76092c1.24293,-3.14855 3.53385,-6.34591 6.67456,-7.67797c3.60555,-1.56679 8.07117,-1.40605 11.85908,-0.28596c2.69203,0.79636 4.65918,3.28271 6.1737,5.61818c1.12251,1.69757 1.54937,3.93976 1.39355,5.95506c-0.05941,0.75966 -1.1091,1.27159 -1.8689,1.32178z" data-paper-data="{&quot;origPos&quot;:null,&quot;origRot&quot;:0}" id="ID0.3539912081323564" fill="#7d191d"/><path d="M196.73642,225.00633l0.17612,-1.81918c0.67472,-1.44573 1.23987,-3.16841 2.55801,-4.05501c1.76965,-1.19012 4.04103,-1.4143 6.13252,-1.81616c0.88546,-0.16935 1.87187,-0.09473 2.78502,0.06879c0.8084,0.14613 1.55383,0.45305 2.22311,0.87708c0.79918,0.43209 1.54601,1.00323 2.13287,1.66313c0.35736,0.40257 0.58375,0.9367 0.74046,1.43782l0.4709,1.50507l-1.68439,-0.24791c-1.53603,-0.11083 -3.07523,-0.36748 -4.6267,-0.18202c-2.71692,0.27155 -5.42406,0.94803 -8.10887,1.54563c-0.71503,0.15928 -1.81963,0.54136 -2.07115,0.6503z" data-paper-data="{&quot;origPos&quot;:null,&quot;origRot&quot;:0}" id="ID0.7451628390699625" fill="#000000"/><path d="M204.74763,223.30021c-1.77698,0.30981 -3.55743,0.85067 -5.35961,1.24167c-0.47374,0.09966 -1.29282,0.47697 -1.46961,0.23041c-0.21764,-0.30774 0.36212,-2.05985 0.9471,-2.30277c1.88859,-0.78221 4.01117,-1.03659 6.03608,-1.43767c1.48178,-0.29337 4.77461,-0.56178 5.20015,-0.29146c0.35657,0.2265 1.53691,1.71355 1.23253,1.95184c-0.37689,0.29506 -1.35528,0.0368 -2.03676,0.09948c-1.51945,0.13932 -3.03869,0.24427 -4.54989,0.50847z" data-paper-data="{&quot;origPos&quot;:null,&quot;origRot&quot;:0}" id="ID0.0041041807271540165" fill="#ffffff"/><path d="M205.32012,217.58963c1.15965,-0.18896 2.35468,-0.30802 3.4786,-0.2117c0.87303,0.0471 1.68342,0.31293 2.39143,0.63356c0.1942,0.08824 0.7142,0.31334 0.23622,0.4878c-1.89142,0.6867 -3.89289,1.10671 -5.87825,1.53474c-1.63107,0.34074 -3.29619,0.63529 -4.93483,0.72533c-0.66586,0.03653 -1.41725,-0.02643 -1.84587,-0.35962c-0.22296,-0.16225 0.12058,-0.55576 0.38503,-0.75212c0.59608,-0.44174 1.34391,-0.82157 2.06399,-1.06161c1.33021,-0.44337 2.69018,-0.76595 4.10368,-0.99637z" data-paper-data="{&quot;origPos&quot;:null,&quot;origRot&quot;:0}" id="ID0.0041041807271540165" fill="#ffffff"/></g></g></g></svg>