<svg version="1.1" xmlns="http://www.w3.org/2000/svg" xmlns:xlink="http://www.w3.org/1999/xlink" width="311.43465" height="259.05778" viewBox="0,0,311.43465,259.05778"><defs><linearGradient x1="141.09718" y1="188.71118" x2="150.98335" y2="233.71156" gradientTransform="translate(-85.57989,-249.55981) rotate(12.39046) scale(1.00162,1.00162)" gradientUnits="userSpaceOnUse" id="color-1"><stop offset="0" stop-color="#ffffff"/><stop offset="1" stop-color="#e9e9e9"/></linearGradient><linearGradient x1="356.45158" y1="204.97773" x2="337.44613" y2="246.94872" gradientTransform="translate(-398.04222,-74.36605) rotate(-24.36219) scale(1.00162,1.00162)" gradientUnits="userSpaceOnUse" id="color-2"><stop offset="0" stop-color="#ffffff"/><stop offset="1" stop-color="#e9e9e9"/></linearGradient><linearGradient x1="305.33353" y1="186.72808" x2="292.62806" y2="231.01508" gradientTransform="translate(-333.66096,-130.05754) rotate(-16.00775) scale(1.00162,1.00162)" gradientUnits="userSpaceOnUse" id="color-3"><stop offset="0" stop-color="#ffffff"/><stop offset="1" stop-color="#e9e9e9"/></linearGradient><linearGradient x1="248.02216" y1="179.77154" x2="247.96666" y2="225.84507" gradientTransform="translate(-236.74921,-214.3807) rotate(-0.06915) scale(1.00162,1.00162)" gradientUnits="userSpaceOnUse" id="color-4"><stop offset="0" stop-color="#ffffff"/><stop offset="1" stop-color="#e9e9e9"/></linearGradient><linearGradient x1="87.16547" y1="206.83722" x2="106.59162" y2="248.61515" gradientTransform="translate(20.08391,-259.28859) rotate(24.93765) scale(1.00163,1.00163)" gradientUnits="userSpaceOnUse" id="color-5"><stop offset="0" stop-color="#ffffff"/><stop offset="1" stop-color="#e9e9e9"/></linearGradient><linearGradient x1="144.62916" y1="67.18045" x2="128.42917" y2="143.78459" gradientUnits="userSpaceOnUse" id="color-6"><stop offset="0" stop-color="#d166d1"/><stop offset="1" stop-color="#b149bf"/></linearGradient><linearGradient x1="190.53711" y1="164.59264" x2="180.86764" y2="86.89363" gradientUnits="userSpaceOnUse" id="color-7"><stop offset="0" stop-color="#d16a26"/><stop offset="1" stop-color="#d19884"/></linearGradient><linearGradient x1="224.8285" y1="66.91104" x2="238.22985" y2="144.054" gradientUnits="userSpaceOnUse" id="color-8"><stop offset="0" stop-color="#b8d166"/><stop offset="1" stop-color="#8abf49"/></linearGradient><linearGradient x1="191.6015" y1="178.73907" x2="195.41306" y2="224.65554" gradientTransform="translate(-164.54785,-228.90764) rotate(4.74517) scale(1.00162,1.00162)" gradientUnits="userSpaceOnUse" id="color-9"><stop offset="0" stop-color="#ffffff"/><stop offset="1" stop-color="#e9e9e9"/></linearGradient><linearGradient x1="343.06325" y1="273.67638" x2="361.92788" y2="262.0929" gradientUnits="userSpaceOnUse" id="color-10"><stop offset="0" stop-color="#de141f"/><stop offset="1" stop-color="#4a1517"/></linearGradient><linearGradient x1="321.69209" y1="303.78803" x2="321.14598" y2="327.83882" gradientUnits="userSpaceOnUse" id="color-11"><stop offset="0" stop-color="#de141f"/><stop offset="1" stop-color="#4a1517"/></linearGradient><linearGradient x1="336.21023" y1="304.08923" x2="345.95091" y2="326.086" gradientUnits="userSpaceOnUse" id="color-12"><stop offset="0" stop-color="#de141f"/><stop offset="1" stop-color="#4a1517"/></linearGradient><linearGradient x1="320.17939" y1="286.54567" x2="339.47489" y2="275.69509" gradientUnits="userSpaceOnUse" id="color-13"><stop offset="0" stop-color="#de141f"/><stop offset="1" stop-color="#4a1517"/></linearGradient></defs><g transform="translate(-67.21462,-69.01525)"><g data-paper-data="{&quot;isPaintingLayer&quot;:true}" fill="none" fill-rule="nonzero" stroke="none" stroke-width="none" stroke-linecap="none" stroke-linejoin="miter" stroke-miterlimit="10" stroke-dasharray="" stroke-dashoffset="0" font-family="none" font-weight="none" font-size="none" text-anchor="none" style="mix-blend-mode: normal"><g data-paper-data="{&quot;origPos&quot;:null}" stroke-linecap="butt"><g data-paper-data="{&quot;origPos&quot;:null,&quot;origRot&quot;:0}" fill="#6289c4" stroke="#4666a8" stroke-width="1.5"><path d="M123.89194,225.49361c-2.09813,-9.00859 -3.27808,-14.07483 -5.37621,-23.08342c-1.07529,-4.61692 -2.3023,-9.42091 -1.28796,-10.87241c0.89517,-1.96307 6.03925,-2.70615 10.84382,-3.82515c8.896,-2.07191 13.89887,-3.23709 22.79487,-5.30901c4.692,-1.09278 8.42103,-2.46936 10.84097,-1.22531c2.36854,1.79533 2.8207,5.46261 3.86976,9.9669c2.07191,8.896 3.23709,13.89887 5.30901,22.79487c1.07529,4.61692 2.37421,9.27246 1.44571,11.01543c-0.8424,1.58137 -5.8451,2.48117 -10.42448,3.54772c0,0 -14.25075,3.31905 -23.37196,5.44341c-4.692,1.09278 -9.17785,2.99023 -11.10257,1.64578c-2.10527,-1.47055 -2.51811,-5.70712 -3.54096,-10.09882z" data-paper-data="{&quot;origPos&quot;:null}"/></g><text transform="translate(136.91313,225.01884) rotate(-12.39046) scale(0.99838,0.99838)" font-size="40" xml:space="preserve" data-paper-data="{&quot;origPos&quot;:null,&quot;origRot&quot;:-5.43838}" fill="url(#color-1)" fill-rule="nonzero" stroke="none" stroke-width="1" stroke-linecap="butt" stroke-linejoin="miter" stroke-miterlimit="10" stroke-dasharray="" stroke-dashoffset="0" font-family="Sans Serif" font-weight="normal" text-anchor="start" style="mix-blend-mode: normal"><tspan x="0" dy="0">L</tspan></text></g><g data-paper-data="{&quot;origPos&quot;:null}" stroke-linecap="butt"><g data-paper-data="{&quot;origPos&quot;:null,&quot;origRot&quot;:0}" fill="#365799" stroke="#1d3972" stroke-width="1.5"><path d="M320.67881,222.78277c3.99533,-8.34231 6.24221,-13.03385 10.23754,-21.37617c2.04761,-4.27545 4.09381,-8.79175 5.79297,-9.2903c1.92604,-0.9723 6.40517,1.66421 10.8544,3.79504c8.23806,3.9454 12.87091,6.16418 21.10896,10.10957c4.34498,2.08091 8.11589,3.33824 9.22659,5.82222c0.72589,2.88206 -1.21425,6.02677 -3.21192,10.19793c-3.9454,8.23806 -6.16418,12.87091 -10.10957,21.10896c-2.04761,4.27545 -3.94487,8.72087 -5.75929,9.50054c-1.6462,0.7074 -6.11298,-1.71839 -10.35367,-3.74935c0,0 -13.19677,-6.32024 -21.64337,-10.36552c-4.34498,-2.08091 -9.0322,-3.40496 -9.69365,-5.65764c-0.7235,-2.46399 1.60328,-6.0284 3.55101,-10.09529z" data-paper-data="{&quot;origPos&quot;:null}"/></g><text transform="translate(331.38502,231.56222) rotate(24.36219) scale(0.99838,0.99838)" font-size="40" xml:space="preserve" data-paper-data="{&quot;origPos&quot;:null,&quot;origRot&quot;:-5.43838}" fill="url(#color-2)" fill-rule="nonzero" stroke="none" stroke-width="1" stroke-linecap="butt" stroke-linejoin="miter" stroke-miterlimit="10" stroke-dasharray="" stroke-dashoffset="0" font-family="Sans Serif" font-weight="normal" text-anchor="start" style="mix-blend-mode: normal"><tspan x="0" dy="0">S</tspan></text></g><g data-paper-data="{&quot;origPos&quot;:null}" stroke-linecap="butt"><g data-paper-data="{&quot;origPos&quot;:null,&quot;origRot&quot;:0}" fill="#6289c4" stroke="#4666a8" stroke-width="1.5"><path d="M274.38602,212.15172c2.23454,-8.97573 3.49118,-14.02348 5.72572,-22.99922c1.1452,-4.60007 2.24054,-9.43579 3.80459,-10.26612c1.69093,-1.34005 6.60905,0.34099 11.3961,1.53274c8.86355,2.20661 13.84817,3.44754 22.71173,5.65414c4.67489,1.16382 8.62169,1.63647 10.2096,3.84606c1.2911,2.67699 0.02359,6.14783 -1.09368,10.63569c-2.20661,8.86355 -3.44754,13.84817 -5.65414,22.71173c-1.1452,4.60007 -2.10891,9.33638 -3.72929,10.46528c-1.47014,1.02425 -6.33374,-0.45288 -10.89641,-1.58877c0,0 -14.19877,-3.53483 -23.28671,-5.79729c-4.67489,-1.16382 -9.53268,-1.51739 -10.63398,-3.59084c-1.20462,-2.26795 0.35715,-6.22773 1.44649,-10.60341z" data-paper-data="{&quot;origPos&quot;:null}"/></g><text transform="translate(284.39596,216.6757) rotate(16.00775) scale(0.99838,0.99838)" font-size="40" xml:space="preserve" data-paper-data="{&quot;origPos&quot;:null,&quot;origRot&quot;:-5.43838}" fill="url(#color-3)" fill-rule="nonzero" stroke="none" stroke-width="1" stroke-linecap="butt" stroke-linejoin="miter" stroke-miterlimit="10" stroke-dasharray="" stroke-dashoffset="0" font-family="Sans Serif" font-weight="normal" text-anchor="start" style="mix-blend-mode: normal"><tspan x="0" dy="0">K</tspan></text></g><g data-paper-data="{&quot;origPos&quot;:null}" stroke-linecap="butt"><g data-paper-data="{&quot;origPos&quot;:null,&quot;origRot&quot;:0}" fill="#365799" stroke="#1d3972" stroke-width="1.5"><path d="M228.00709,211.8233c0.03401,-9.24963 0.05313,-14.45142 0.08714,-23.70106c0.01743,-4.74045 -0.06966,-9.6979 1.25182,-10.87663c1.32339,-1.704 6.50028,-1.24182 11.43341,-1.22368c9.13403,0.03358 14.27076,0.05247 23.40479,0.08605c4.81754,0.01771 8.76342,-0.46261 10.8316,1.30555c1.89114,2.29277 1.48615,5.96555 1.46915,10.59036c-0.03358,9.13403 -0.05247,14.27076 -0.08605,23.40479c-0.01743,4.74045 0.17384,9.57002 -1.13128,11.05215c-1.1841,1.34473 -6.25952,1.06763 -10.96142,1.05034c0,0 -14.63206,-0.0538 -23.99732,-0.08823c-4.81754,-0.01771 -9.61989,0.79509 -11.18305,-0.95666c-1.70979,-1.91606 -1.13537,-6.13376 -1.1188,-10.64298z" data-paper-data="{&quot;origPos&quot;:null}"/></g><text transform="translate(236.10719,214.31852) rotate(0.06915) scale(0.99838,0.99838)" font-size="40" xml:space="preserve" data-paper-data="{&quot;origPos&quot;:null,&quot;origRot&quot;:-5.43838}" fill="url(#color-4)" fill-rule="nonzero" stroke="none" stroke-width="1" stroke-linecap="butt" stroke-linejoin="miter" stroke-miterlimit="10" stroke-dasharray="" stroke-dashoffset="0" font-family="Sans Serif" font-weight="normal" text-anchor="start" style="mix-blend-mode: normal"><tspan x="0" dy="0">C</tspan></text></g><g data-paper-data="{&quot;origPos&quot;:null}" stroke-linecap="butt"><g data-paper-data="{&quot;origPos&quot;:null,&quot;origRot&quot;:0}" fill="#365799" stroke="#1d3972" stroke-width="1.5"><path d="M81.33122,244.5984c-3.8332,-8.41804 -5.98891,-13.15217 -9.82211,-21.57021c-1.96452,-4.31426 -4.11465,-8.78201 -3.40643,-10.40501c0.49053,-2.10104 5.38711,-3.84381 9.87672,-5.88818c8.31283,-3.78529 12.98775,-5.91404 21.30058,-9.69933c4.38442,-1.99647 7.76882,-4.08129 10.38655,-3.33881c2.67604,1.29307 3.8424,4.7992 5.75901,9.00822c3.78529,8.31283 5.91404,12.98775 9.69933,21.30058c1.96452,4.31426 4.15588,8.6223 3.58928,10.51413c-0.51406,1.71643 -5.24113,3.58496 -9.52031,5.53351c0,0 -13.31656,6.06377 -21.83984,9.94489c-4.38442,1.99647 -8.40808,4.74115 -10.56011,3.80261c-2.3539,-1.02658 -3.59398,-5.09858 -5.46267,-9.20239z" data-paper-data="{&quot;origPos&quot;:null}"/></g><text transform="translate(90.96436,243.18535) rotate(-24.93765) scale(0.99837,0.99837)" font-size="40" xml:space="preserve" data-paper-data="{&quot;origPos&quot;:null,&quot;origRot&quot;:-5.43838}" fill="url(#color-5)" fill-rule="nonzero" stroke="none" stroke-width="1" stroke-linecap="butt" stroke-linejoin="miter" stroke-miterlimit="10" stroke-dasharray="" stroke-dashoffset="0" font-family="Sans Serif" font-weight="normal" text-anchor="start" style="mix-blend-mode: normal"><tspan x="0" dy="0">B</tspan></text></g><path d="M158.19171,70.04861c0,0 -1.80089,35.18935 -2.5871,50.89942c-0.34632,6.92027 0.00408,23.76363 -22.68252,23.48174c-20.51521,-1.56282 -20.25796,-18.59372 -20.25796,-18.59372l0.89552,-21.95648c0,0 2.57542,-15.14332 15.60249,-15.77994c5.21189,-0.25471 12.83792,3.73704 12.83792,3.73704l1.03345,-22.60873zM133.91222,131.69234c8.58902,0.1374 7.68792,-15.40946 7.68792,-15.40946c0,0 2.23907,-14.97437 -6.30374,-15.30202c-8.09566,-0.3105 -7.87609,14.68826 -7.87609,14.68826c0,0 -3.33929,15.86597 6.49192,16.02323z" data-paper-data="{&quot;origPos&quot;:null,&quot;index&quot;:null,&quot;origRot&quot;:0}" fill="url(#color-6)" stroke="#000000" stroke-width="0" stroke-linecap="round"/><path d="M205.58569,143.57331l-15.17334,-0.46304l-0.41164,-3.30783c0,0 -7.93604,3.33312 -13.10777,2.63895c-12.92669,-1.73506 -14.21338,-17.04183 -14.21338,-17.04183l0.96287,-21.95363c0,0 1.18268,-16.99174 21.75658,-16.81555c22.62929,1.636 20.85699,18.38952 20.61735,25.3143c-0.544,15.72032 -0.43065,31.62863 -0.43065,31.62863zM185.30935,99.40592c-9.80934,-0.67398 -7.82256,15.41741 -7.82256,15.41741c0,0 -1.48609,14.92657 6.60685,15.30122c8.53994,0.39533 7.57413,-14.71468 7.57413,-14.71468c0,0 2.2115,-15.41511 -6.35842,-16.00393z" data-paper-data="{&quot;origPos&quot;:null,&quot;index&quot;:null,&quot;origRot&quot;:0}" fill="url(#color-7)" stroke="#000000" stroke-width="0" stroke-linecap="round"/><path d="M211.17055,69.28371l15.17802,-0.26846l0.20996,22.63136c0,0 7.76626,-3.71157 12.96542,-3.26735c12.99527,1.11031 15.01786,16.33732 15.01786,16.33732l0.09585,21.97453c0,0 -0.36273,17.02898 -20.92123,17.84414c-22.68183,-0.54394 -21.71868,-17.3634 -21.81292,-24.29169c-0.21395,-15.72827 -0.73297,-50.95985 -0.73297,-50.95985zM233.19053,131.77023c9.83042,0.20063 7.07076,-15.77635 7.07076,-15.77635c0,0 0.76529,-14.98083 -7.33631,-14.96517c-8.54908,0.01653 -6.85646,15.06247 -6.85646,15.06247c0,0 -1.46631,15.50375 7.12202,15.67903z" data-paper-data="{&quot;origPos&quot;:null,&quot;origRot&quot;:0}" fill="url(#color-8)" stroke="#000000" stroke-width="0" stroke-linecap="round"/><g data-paper-data="{&quot;origPos&quot;:null,&quot;origRot&quot;:0}" fill="none" stroke="none" stroke-width="1" stroke-linecap="butt" font-family="sans-serif" font-weight="normal" font-size="12" text-anchor="start"/><g data-paper-data="{&quot;origRot&quot;:0,&quot;origPos&quot;:null,&quot;index&quot;:null}" id="ID0.7348965127021074" fill="none" stroke="none" stroke-width="1" stroke-linecap="butt" font-family="none" font-weight="none" font-size="NaN" text-anchor="start"/><g data-paper-data="{&quot;origPos&quot;:null,&quot;origRot&quot;:0}" stroke-linecap="butt"><g data-paper-data="{&quot;origPos&quot;:null,&quot;origRot&quot;:0}" fill="#6289c4" stroke="#4666a8" stroke-width="1.5"><path d="M172.74133,213.58912c-0.88098,-9.20764 -1.37644,-14.38583 -2.25743,-23.59347c-0.4515,-4.71893 -1.02849,-9.64346 0.16995,-10.94712c1.14838,-1.82653 6.34559,-1.87864 11.25632,-2.34849c9.09257,-0.86997 14.20597,-1.35922 23.29855,-2.22921c4.79567,-0.45884 8.6747,-1.32709 10.90762,0.22785c2.10864,2.09448 2.06889,5.78931 2.50937,10.39314c0.86998,9.09256 1.35922,14.20598 2.22921,23.29855c0.4515,4.71893 1.11951,9.5059 -0.03262,11.10985c-1.04529,1.45525 -6.12323,1.68149 -10.8038,2.12931c0,0 -14.56563,1.39364 -23.88839,2.28564c-4.79567,0.45884 -9.49408,1.74264 -11.22283,0.15408c-1.89091,-1.73756 -1.73645,-5.9914 -2.16594,-10.48014z" data-paper-data="{&quot;origPos&quot;:null}"/></g><text transform="translate(182.62336,214.16306) rotate(-4.74517) scale(0.99838,0.99838)" font-size="40" xml:space="preserve" data-paper-data="{&quot;origPos&quot;:null,&quot;origRot&quot;:-5.43838}" fill="url(#color-9)" fill-rule="nonzero" stroke="none" stroke-width="1" stroke-linecap="butt" stroke-linejoin="miter" stroke-miterlimit="10" stroke-dasharray="" stroke-dashoffset="0" font-family="Sans Serif" font-weight="normal" text-anchor="start" style="mix-blend-mode: normal"><tspan x="0" dy="0">O</tspan></text></g><path d="M345.7988,275.53863c3.60135,-4.02014 7.50567,-7.67276 11.76933,-10.75748c1.13134,-0.8144 2.72927,-0.94213 4.10948,-0.7186c0.92595,0.15096 1.93753,0.77817 2.49923,1.69299c0.56173,0.91481 0.64445,2.08596 0.37921,2.99476c-0.36944,1.26375 -1.15036,2.52125 -2.22341,3.23089c-2.92765,1.85691 -6.21892,3.10882 -9.54189,4.31687c-2.17971,0.79292 -4.38756,1.81626 -6.85953,1.55373c-0.71699,-0.07639 -1.03271,-1.30822 -0.13241,-2.31315z" data-paper-data="{&quot;origRot&quot;:0,&quot;origPos&quot;:null}" id="ID0.10014915885403752" fill="url(#color-10)" stroke="#000000" stroke-width="0.5" stroke-linecap="butt"/><path d="M319.70118,306.08347c0.65226,2.53605 0.29413,5.20604 0.58458,7.77135c0.2289,2.97549 1.08593,5.95414 0.97492,8.86339c-0.05131,1.36104 -0.68912,2.80387 -1.62559,3.8421c-0.62914,0.69594 -1.7048,1.2055 -2.77803,1.18113c-1.0732,-0.02435 -2.10195,-0.59019 -2.72152,-1.306c-0.86125,-0.99588 -1.56604,-2.34657 -1.50804,-3.6205c0.14861,-3.25413 1.10123,-6.48065 1.96629,-9.66024c0.84316,-3.09783 1.13472,-6.52293 3.11692,-9.29743c0.55182,-0.73403 1.76691,1.36044 1.99046,2.22622z" data-paper-data="{&quot;origRot&quot;:0,&quot;origPos&quot;:null}" id="ID0.10014915885403752" fill="url(#color-11)" stroke="#000000" stroke-width="0.5" stroke-linecap="butt"/><path d="M332.63682,305.84616c0.187,-0.89907 2.17787,0.47919 2.74861,1.16753c1.66947,2.01739 2.4816,4.58596 3.83612,6.78378c1.47336,2.59521 3.51649,4.92598 4.65406,7.60591c0.53276,1.25349 0.56959,2.83057 0.16397,4.16862c-0.27317,0.89751 -1.02973,1.81638 -2.0113,2.25104c-0.98153,0.43466 -2.15329,0.36041 -3.01856,-0.0237c-1.20318,-0.5347 -2.41575,-1.45707 -2.90539,-2.63457c-1.25033,-3.00802 -1.76131,-6.33319 -2.33158,-9.57865c-0.55528,-3.16214 -1.749,-6.3857 -1.13594,-9.73998z" data-paper-data="{&quot;origRot&quot;:0,&quot;origPos&quot;:null,&quot;index&quot;:null}" id="ID0.10014915885403752" fill="url(#color-12)" stroke="#000000" stroke-width="0.5" stroke-linecap="butt"/><path d="M308.94261,266.70541c0.11199,-0.4253 0.33938,-0.90603 0.68812,-1.07925c0.5534,-0.27043 1.12808,-0.2463 1.83654,-0.24285c2.63127,-0.00956 5.24811,0.20974 7.89748,0.28792c6.77058,0.20019 13.52245,0.29184 20.33582,0.47972c3.26421,0.08992 6.54857,0.10632 9.79722,0.41278c0.81622,0.07841 1.19419,0.22981 1.51811,0.70005c0.45154,0.70853 0.53356,1.63305 0.59068,2.50477c0.10636,1.75231 -0.09393,2.73298 -0.14319,5.26632c-0.19884,10.13448 -0.45012,20.19463 -0.68103,30.43159c-0.05787,2.55916 -0.01052,1.46366 -0.1328,2.19231c-0.06767,0.33487 -0.15067,0.76038 -0.43625,0.96898c-0.50981,0.36852 -0.85574,0.57842 -1.87495,0.57852c-4.01087,0.11639 -8.0513,-0.16562 -12.07063,-0.25499c-6.31925,-0.14078 -12.56541,-0.23478 -18.79981,-0.43796c-2.9186,-0.09429 -5.85913,-0.18946 -8.68346,-0.45569c-0.70645,-0.06664 -0.71243,-0.18041 -0.96898,-0.43625c-0.24153,-0.27008 -0.33359,-0.65321 -0.38296,-0.99125c-0.08251,-0.73422 -0.11067,0.68914 -0.01348,-2.19629c0.38878,-11.54231 0.8175,-23.21793 1.29772,-34.80666c0.12005,-2.89711 0.02577,-1.98178 0.22583,-2.92175z" data-paper-data="{&quot;origRot&quot;:0,&quot;origPos&quot;:null}" id="ID0.4964667344465852" fill="#df141d" stroke="#000000" stroke-width="0.5" stroke-linecap="round"/><g data-paper-data="{&quot;origRot&quot;:0,&quot;origPos&quot;:null}" id="ID0.9475001120008528" fill="#7d191d" stroke="#000000" stroke-width="1" stroke-linecap="butt"><path d="M330.29736,268.15278c3.81088,0.10362 7.21845,1.87837 9.64525,4.66155c2.42679,2.78345 3.87248,6.57565 3.75997,10.71389c-0.11252,4.13825 -1.76213,7.84628 -4.33659,10.49377c-2.57445,2.64717 -6.07342,4.23414 -9.8843,4.13053c-3.81088,-0.10362 -7.21845,-1.87837 -9.64525,-4.66152c-2.42679,-2.78348 -3.87251,-6.57567 -3.75999,-10.71392c0.11252,-4.13825 1.76216,-7.84628 4.33662,-10.49375c2.57445,-2.6472 6.07342,-4.23417 9.8843,-4.13056z" data-paper-data="{&quot;origPos&quot;:null}" id="ID0.2672549015842378"/><path d="M329.97464,271.96189c2.73901,0.07447 5.1875,1.36315 6.93111,3.38483c1.74328,2.02197 2.78171,4.77666 2.69996,7.78344c-0.08175,3.00678 -1.26834,5.70097 -3.11891,7.62522c-1.85088,1.92395 -4.36578,3.07768 -7.10479,3.00321c-2.73901,-0.07447 -5.1875,-1.36315 -6.93111,-3.38483c-1.74331,-2.02197 -2.78171,-4.77666 -2.69996,-7.78344c0.08175,-3.00678 1.26831,-5.70097 3.11891,-7.62522c1.85088,-1.92395 4.36578,-3.07768 7.10479,-3.00321z" id="ID0.04306362196803093"/></g><g data-paper-data="{&quot;origPos&quot;:null,&quot;origRot&quot;:0}" stroke="#000000" stroke-width="0.5" stroke-linecap="round"><path d="M325.24453,302.0828c1.26364,-0.39227 2.62059,0.00364 3.89174,-0.18214c1.60175,-0.2817 3.19675,-0.69341 4.69445,-1.21534c1.57266,-0.5466 3.05668,-1.36031 4.56395,-2.08646c1.21313,-0.58439 2.4811,-2.4873 3.69389,-1.80027c1.48157,0.80628 2.00393,3.10314 1.7456,4.81544c-0.38044,2.51688 -1.52069,5.2461 -3.598,6.75148c-2.37843,1.75571 -5.67822,2.39028 -8.64298,2.20759c-2.10708,-0.13007 -3.96764,-1.62082 -5.47107,-3.07725c-1.10866,-1.05497 -1.79926,-2.62629 -2.0246,-4.12949c-0.08445,-0.56674 0.59859,-1.11877 1.14697,-1.28356z" data-paper-data="{&quot;origPos&quot;:null,&quot;origRot&quot;:0}" id="ID0.3539912081323564" fill="#7d191d"/><path d="M340.80726,300.20779l0.17742,1.36289c-0.25091,1.17321 -0.37485,2.53092 -1.1915,3.40277c-1.09641,1.17036 -2.72327,1.71733 -4.18835,2.36422c-0.6204,0.27329 -1.35588,0.3848 -2.05265,0.41881c-0.61707,0.0291 -1.21509,-0.07024 -1.77702,-0.26823c-0.65849,-0.18202 -1.30204,-0.47476 -1.84332,-0.85951c-0.32973,-0.23483 -0.58563,-0.58813 -0.7849,-0.92898l-0.59868,-1.02369l1.2762,-0.1021c1.14438,-0.17757 2.31566,-0.2488 3.42144,-0.64611c1.9454,-0.65676 3.81541,-1.60863 5.68233,-2.49893c0.49719,-0.2372 1.24234,-0.70332 1.40832,-0.82553z" data-paper-data="{&quot;origPos&quot;:null,&quot;origRot&quot;:0}" id="ID0.7451628390699625" fill="#000000"/><path d="M335.22355,302.80788c1.2501,-0.52643 2.46381,-1.22279 3.7187,-1.81297c0.3304,-0.15285 0.86711,-0.56737 1.03822,-0.41646c0.21135,0.18887 0.08166,1.57061 -0.30613,1.8472c-1.2523,0.89145 -2.76502,1.43549 -4.18144,2.07058c-1.03652,0.46465 -3.40452,1.21614 -3.76193,1.08972c-0.29948,-0.10592 -1.41505,-0.99687 -1.23213,-1.22279c0.2265,-0.27974 0.98704,-0.25531 1.47592,-0.41606c1.09008,-0.3581 2.18581,-0.69097 3.24881,-1.13921z" data-paper-data="{&quot;origPos&quot;:null,&quot;origRot&quot;:0}" id="ID0.0041041807271540165" fill="#ffffff"/><path d="M335.7661,307.08945c-0.81803,0.33386 -1.67377,0.62246 -2.51369,0.74122c-0.64775,0.11257 -1.28645,0.05429 -1.85935,-0.06141c-0.15719,-0.03195 -0.5762,-0.10931 -0.2553,-0.3177c1.27047,-0.82193 2.66652,-1.46695 4.04942,-2.11513c1.13796,-0.52452 2.30864,-1.02093 3.49438,-1.36299c0.48183,-0.13896 1.04311,-0.21941 1.41337,-0.04744c0.19073,0.08134 0.00526,0.42761 -0.15546,0.61607c-0.36242,0.42417 -0.84649,0.82852 -1.33378,1.12576c-0.90017,0.54905 -1.8425,1.01458 -2.83959,1.4216z" data-paper-data="{&quot;origPos&quot;:null,&quot;origRot&quot;:0}" id="ID0.0041041807271540165" fill="#ffffff"/></g><path d="M339.57494,282.28981l-21.96396,-0.28734" data-paper-data="{&quot;origPos&quot;:null,&quot;origRot&quot;:0}" fill="none" stroke="#000000" stroke-width="1" stroke-linecap="round"/><path d="M322.8849,290.82811c-0.71354,-0.10387 -0.98171,-1.34691 -0.04349,-2.31653c3.75307,-3.87889 7.79475,-7.37891 12.17369,-10.29764c1.1618,-0.77036 2.76347,-0.83663 4.13407,-0.56028c0.91947,0.18642 1.90621,0.852 2.43238,1.78771c0.5262,0.93571 0.56389,2.10918 0.26394,3.00712c-0.41769,1.24863 -1.24632,2.47522 -2.34584,3.14313c-2.99679,1.74313 -6.3337,2.86775 -9.70064,3.94731c-2.20851,0.70865 -4.45404,1.64645 -6.9141,1.2892z" data-paper-data="{&quot;origRot&quot;:0,&quot;origPos&quot;:null,&quot;index&quot;:null}" id="ID0.10014915885403752" fill="url(#color-13)" stroke="#000000" stroke-width="0.5" stroke-linecap="butt"/></g></g></svg>