<svg version="1.1" xmlns="http://www.w3.org/2000/svg" xmlns:xlink="http://www.w3.org/1999/xlink" width="455.15014" height="232.23566"><g transform="translate(-2.42495,-62.78293)"><g data-paper-data="{&quot;isPaintingLayer&quot;:true}" fill="none" fill-rule="nonzero" stroke="none" stroke-width="none" stroke-linecap="none" stroke-linejoin="miter" stroke-miterlimit="10" stroke-dasharray="" stroke-dashoffset="0" font-family="none" font-weight="none" font-size="none" text-anchor="none" style="mix-blend-mode: normal"><g data-paper-data="{&quot;origPos&quot;:null}" stroke="#000000" stroke-width="0.5" stroke-linecap="round"><path d="M164.08094,265.95515c3.36983,0.39877 6.03144,2.12873 9.1767,2.86254c4.01904,0.84881 8.17482,1.48504 12.2356,1.86688c4.26231,0.40325 8.6333,0.30915 12.9553,0.37338c3.47851,0.05178 8.62755,-1.95249 10.6162,0.12446c2.468,2.48469 0.981,6.56691 -1.61942,9.08546c-3.82399,3.70139 -9.64669,7.1255 -16.1942,7.84085c-7.53426,0.87021 -15.8775,-0.79205 -22.4919,-3.48484c-4.70064,-1.91417 -7.23988,-5.79627 -8.99677,-9.3344c-1.31785,-2.57878 -1.0681,-5.64144 0.17346,-8.21871c0.46927,-0.97127 2.68896,-1.29736 4.14499,-1.11565z" id="ID0.3539912081323564" fill="#7d191d"/><path d="M200.78797,276.11042l-1.18758,2.31493c-1.95194,1.66575 -3.82759,3.72826 -6.72959,4.4556c-3.89596,0.97625 -8.28351,0.5297 -12.4155,0.37338c-1.74897,-0.06721 -3.57352,-0.48539 -5.21813,-0.99567c-1.45532,-0.45353 -2.71631,-1.09623 -3.77865,-1.86687c-1.30345,-0.82342 -2.4428,-1.81112 -3.23883,-2.86254c-0.48439,-0.64121 -0.66,-1.41136 -0.71975,-2.11579l-0.17994,-2.1158l3.05891,0.87121c2.8437,0.64419 5.62478,1.47956 8.6369,1.74241c5.2498,0.5297 10.6716,0.52821 16.0142,0.6223c1.42293,0.0249 3.68508,-0.114 4.21049,-0.17424z" id="ID0.7451628390699625" fill="#000000"/><path d="M183.51398,276.43414c3.49578,0.24394 7.10673,0.06721 10.6882,0.17424c0.93999,0.03385 2.6616,-0.28227 2.87896,0.24892c0.26558,0.66162 -0.83418,1.98834 -2.05127,2.16557c-3.92835,0.56852 -8.04959,0.06571 -12.0557,-0.12446c-2.93151,-0.13939 -5.94723,-0.34848 -8.81684,-0.92099c-1.1084,-0.20661 -2.20385,-0.68103 -2.87897,-1.36904c-0.56571,-0.57649 -1.15374,-1.76929 -0.46783,-2.06601c0.84929,-0.3674 2.57236,0.5506 3.88661,0.74674c2.93007,0.4381 5.84358,0.93891 8.81683,1.14502z" data-paper-data="{&quot;origPos&quot;:null}" id="ID0.0041041807271540165" fill="#ffffff"/><path d="M176.30336,280.62684c-1.12938,-1.41275 3.9402,-3.32104 6.21429,-3.11257c2.27409,0.20846 7.73836,2.04356 6.5,3.80426c-1.23836,1.7607 -11.58491,0.72107 -12.71429,-0.69168z" data-paper-data="{&quot;origPos&quot;:null}" fill="#e77adf"/><path d="M181.89396,283.42222c-2.2751,-0.14056 -4.58403,-0.3914 -6.65761,-0.91914c-1.62373,-0.3711 -3.02652,-1.02675 -4.21049,-1.72337c-0.32461,-0.19149 -1.19908,-0.68858 -0.21592,-0.76594c3.88877,-0.30102 7.85957,-0.18995 11.8038,-0.09575c3.23524,0.09267 6.51295,0.26195 9.64454,0.7085c1.2725,0.18153 2.65945,0.53233 3.31081,1.14891c0.34403,0.30523 -0.4887,0.73646 -1.07961,0.91913c-1.33152,0.41055 -2.91999,0.68131 -4.39043,0.76594c-2.71631,0.15625 -5.43189,0.1329 -8.20506,-0.0383z" data-paper-data="{&quot;origPos&quot;:null}" id="ID0.0041041807271540165" fill="#ffffff"/></g><g data-paper-data="{&quot;origPos&quot;:null}" stroke="#000000" stroke-width="0.5" stroke-linecap="round"><path d="M223.58095,271.43695c3.36983,0.24768 6.03144,1.32218 9.1767,1.77796c4.01904,0.5272 8.17482,0.92238 12.2356,1.15954c4.26231,0.25046 8.6333,0.19202 12.9553,0.23191c3.47851,0.03216 8.62755,-1.21272 10.6162,0.07731c2.468,1.54327 0.981,4.0788 -1.61942,5.6431c-3.82399,2.29898 -9.64669,4.42575 -16.1942,4.87005c-7.53426,0.5405 -15.8775,-0.49195 -22.4919,-2.16447c-4.70064,-1.18892 -7.23988,-3.60014 -8.99677,-5.79772c-1.31785,-1.60171 -1.0681,-3.50397 0.17346,-5.10475c0.46927,-0.60327 2.68896,-0.8058 4.14499,-0.69294z" id="ID0.3539912081323564" fill="#7d191d"/><path d="M260.28796,277.74452l-1.18758,1.43783c-1.95194,1.03461 -3.82759,2.31567 -6.72959,2.76743c-3.89596,0.60636 -8.28351,0.329 -12.4155,0.23191c-1.74897,-0.04174 -3.57352,-0.30148 -5.21813,-0.61842c-1.45532,-0.2817 -2.71631,-0.68088 -3.77865,-1.15954c-1.30345,-0.51144 -2.4428,-1.12491 -3.23883,-1.77796c-0.48439,-0.39826 -0.66,-0.87661 -0.71975,-1.31414l-0.17994,-1.31415l3.05891,0.54112c2.8437,0.40012 5.62478,0.91897 8.6369,1.08223c5.2498,0.329 10.6716,0.32808 16.0142,0.38652c1.42293,0.01547 3.68508,-0.07081 4.21049,-0.10823z" id="ID0.7451628390699625" fill="#000000"/><path d="M243.01398,277.94558c3.49578,0.15152 7.10673,0.04174 10.6882,0.10823c0.93999,0.02103 2.6616,-0.17532 2.87896,0.15461c0.26558,0.41094 -0.83418,1.23499 -2.05127,1.34507c-3.92835,0.35312 -8.04959,0.0408 -12.0557,-0.07731c-2.93151,-0.08658 -5.94723,-0.21645 -8.81684,-0.57204c-1.1084,-0.12833 -2.20385,-0.423 -2.87897,-0.85032c-0.56571,-0.35807 -1.15374,-1.09894 -0.46783,-1.28323c0.84929,-0.2282 2.57236,0.34199 3.88661,0.46382c2.93007,0.27211 5.84358,0.58317 8.81683,0.71119z" data-paper-data="{&quot;origPos&quot;:null}" id="ID0.0041041807271540165" fill="#ffffff"/><path d="M235.80337,280.54973c-1.12938,-0.87748 3.9402,-2.06274 6.21429,-1.93326c2.27409,0.12948 7.73836,1.26928 6.5,2.36288c-1.23836,1.09359 -11.58491,0.44786 -12.71429,-0.42962z" data-paper-data="{&quot;origPos&quot;:null}" fill="#e77adf"/><path d="M241.39398,282.28598c-2.2751,-0.0873 -4.58403,-0.2431 -6.65761,-0.57088c-1.62373,-0.2305 -3.02652,-0.63773 -4.21049,-1.07042c-0.32461,-0.11894 -1.19908,-0.42768 -0.21592,-0.47573c3.88877,-0.18696 7.85957,-0.11798 11.8038,-0.05946c3.23524,0.05756 6.51295,0.1627 9.64454,0.44005c1.2725,0.11275 2.65945,0.33063 3.31081,0.7136c0.34403,0.18958 -0.4887,0.45743 -1.07961,0.57089c-1.33152,0.255 -2.91999,0.42316 -4.39043,0.47573c-2.71631,0.09705 -5.43189,0.08255 -8.20506,-0.02378z" data-paper-data="{&quot;origPos&quot;:null}" id="ID0.0041041807271540165" fill="#ffffff"/></g><g stroke="#000000" stroke-width="0.5" stroke-linecap="round"><path d="M325.12703,284.81141c-3.36983,-0.24768 -6.03144,-1.32218 -9.1767,-1.77796c-4.01904,-0.5272 -8.17482,-0.92238 -12.2356,-1.15954c-4.26231,-0.25046 -8.6333,-0.19202 -12.9553,-0.23191c-3.47851,-0.03216 -8.62755,1.21272 -10.6162,-0.0773c-2.468,-1.54327 -0.981,-4.0788 1.61942,-5.6431c3.82399,-2.29898 9.64669,-4.42575 16.1942,-4.87005c7.53426,-0.5405 15.8775,0.49195 22.4919,2.16447c4.70064,1.18892 7.23988,3.60014 8.99677,5.79772c1.31785,1.60171 1.0681,3.50397 -0.17346,5.10475c-0.46927,0.60327 -2.68896,0.8058 -4.14499,0.69294z" id="ID0.3539912081323564" fill="#7d191d"/><path d="M288.41999,278.50384l1.18758,-1.43783c1.95194,-1.03461 3.82759,-2.31567 6.72959,-2.76743c3.89596,-0.60636 8.28351,-0.329 12.4155,-0.23191c1.74897,0.04174 3.57352,0.30148 5.21813,0.61842c1.45532,0.2817 2.71631,0.68088 3.77865,1.15954c1.30345,0.51144 2.4428,1.12491 3.23883,1.77796c0.48439,0.39826 0.66,0.87661 0.71975,1.31414l0.17994,1.31415l-3.05891,-0.54112c-2.8437,-0.40012 -5.62478,-0.91897 -8.6369,-1.08223c-5.2498,-0.329 -10.6716,-0.32808 -16.0142,-0.38652c-1.42293,-0.01547 -3.68508,0.07081 -4.21049,0.10823z" id="ID0.7451628390699625" fill="#000000"/><path d="M307.31399,273.96239c2.2751,0.0873 4.58403,0.2431 6.65761,0.57088c1.62373,0.2305 3.02652,0.63773 4.21049,1.07042c0.32461,0.11894 1.19908,0.42768 0.21592,0.47573c-3.88877,0.18696 -7.85957,0.11798 -11.8038,0.05946c-3.23524,-0.05756 -6.51295,-0.1627 -9.64454,-0.44005c-1.2725,-0.11275 -2.65945,-0.33063 -3.31081,-0.7136c-0.34403,-0.18958 0.4887,-0.45743 1.07961,-0.57089c1.33152,-0.255 2.91999,-0.42317 4.39043,-0.47574c2.71631,-0.09705 5.43189,-0.08254 8.20506,0.02379z" data-paper-data="{&quot;origPos&quot;:null}" id="ID0.0041041807271540165" fill="#ffffff"/><path d="M300.14432,276.63756c-1.16217,-1.17424 4.36629,-1.94473 6.64393,-1.92129c2.27765,0.02344 7.25624,1.5463 6.07052,2.34599c-1.18572,0.79969 -11.55228,0.74954 -12.71445,-0.42471z" data-paper-data="{&quot;origPos&quot;:null,&quot;index&quot;:null,&quot;origRot&quot;:0}" fill="#e77adf"/><path d="M305.69399,278.30277c-3.49578,-0.15152 -7.10673,-0.04174 -10.6882,-0.10822c-0.93999,-0.02103 -2.6616,0.17532 -2.87896,-0.15461c-0.26558,-0.41094 0.83418,-1.23499 2.05127,-1.34507c3.92835,-0.35312 8.04959,-0.0408 12.0557,0.07731c2.93151,0.08658 5.94723,0.21645 8.81684,0.57204c1.1084,0.12833 2.20385,0.423 2.87897,0.85032c0.56571,0.35807 1.15374,1.09893 0.46783,1.28322c-0.84929,0.2282 -2.57236,-0.34198 -3.88661,-0.46381c-2.93007,-0.27211 -5.84358,-0.58317 -8.81683,-0.71119z" data-paper-data="{&quot;origPos&quot;:null}" id="ID0.0041041807271540165" fill="#ffffff"/></g><g data-paper-data="{&quot;origPos&quot;:null}" stroke="#000000" stroke-width="0.5" stroke-linecap="round"><path d="M383.12703,290.78786c-3.36983,-0.4432 -6.03144,-2.36595 -9.1767,-3.18153c-4.01904,-0.9434 -8.17482,-1.65053 -12.2356,-2.07492c-4.26231,-0.44818 -8.6333,-0.3436 -12.9553,-0.41498c-3.47851,-0.05755 -8.62755,2.17007 -10.6162,-0.13834c-2.468,-2.76157 -0.981,-7.29871 1.61942,-10.09792c3.82399,-4.11386 9.64669,-7.91956 16.1942,-8.71461c7.53426,-0.96719 15.8775,0.88031 22.4919,3.87318c4.70064,2.12748 7.23988,6.44219 8.99677,10.3746c1.31785,2.86615 1.0681,6.27011 -0.17346,9.13459c-0.46927,1.07951 -2.68896,1.44192 -4.14499,1.23996z" id="ID0.3539912081323564" fill="#7d191d"/><path d="M346.42001,279.50091l1.18758,-2.5729c1.95194,-1.85137 3.82759,-4.14373 6.72959,-4.95212c3.89596,-1.08504 8.28351,-0.58872 12.4155,-0.41499c1.74897,0.07469 3.57352,0.53947 5.21813,1.10661c1.45532,0.50408 2.71631,1.21837 3.77865,2.07491c1.30345,0.91517 2.4428,2.01295 3.23883,3.18154c0.48439,0.71266 0.66,1.56863 0.71975,2.35157l0.17994,2.35158l-3.05891,-0.96829c-2.8437,-0.71598 -5.62478,-1.64444 -8.6369,-1.93659c-5.2498,-0.58873 -10.6716,-0.58706 -16.0142,-0.69164c-1.42293,-0.02767 -3.68508,0.12671 -4.21049,0.19366z" id="ID0.7451628390699625" fill="#000000"/><path d="M365.314,271.3743c2.2751,0.15621 4.58403,0.43501 6.65761,1.02156c1.62373,0.41246 3.02652,1.14117 4.21049,1.91543c0.32461,0.21283 1.19908,0.76531 0.21592,0.85129c-3.88877,0.33456 -7.85957,0.21111 -11.8038,0.10641c-3.23524,-0.103 -6.51295,-0.29114 -9.64454,-0.78745c-1.2725,-0.20176 -2.65945,-0.59164 -3.31081,-1.27694c-0.34403,-0.33924 0.4887,-0.81853 1.07961,-1.02156c1.33152,-0.4563 2.91999,-0.75723 4.39043,-0.8513c2.71631,-0.17367 5.43189,-0.14771 8.20506,0.04256z" data-paper-data="{&quot;origPos&quot;:null}" id="ID0.0041041807271540165" fill="#ffffff"/><path d="M358.14435,276.16134c-1.16217,-2.10122 4.36629,-3.47995 6.64393,-3.438c2.27765,0.04195 7.25624,2.76699 6.07052,4.19798c-1.18572,1.43099 -11.55228,1.34124 -12.71445,-0.75998z" data-paper-data="{&quot;origPos&quot;:null,&quot;index&quot;:null,&quot;origRot&quot;:0}" fill="#e77adf"/><path d="M363.694,279.14112c-3.49578,-0.27112 -7.10673,-0.0747 -10.6882,-0.19366c-0.93999,-0.03762 -2.6616,0.31373 -2.87896,-0.27666c-0.26558,-0.73535 0.83418,-2.20992 2.05127,-2.4069c3.92835,-0.63187 8.04959,-0.07302 12.0557,0.13834c2.93151,0.15493 5.94723,0.38732 8.81684,1.02363c1.1084,0.22963 2.20385,0.75692 2.87897,1.52159c0.56571,0.64073 1.15374,1.96647 0.46783,2.29624c-0.84929,0.40834 -2.57236,-0.61196 -3.88661,-0.82996c-2.93007,-0.48692 -5.84358,-1.04353 -8.81683,-1.27261z" data-paper-data="{&quot;origPos&quot;:null}" id="ID0.0041041807271540165" fill="#ffffff"/></g><g data-paper-data="{&quot;origPos&quot;:null}" id="ID0.5567619865760207" stroke="#000000" stroke-width="0.5" stroke-linecap="round"><path d="M103.08095,65.47656c3.36983,0.57652 6.03144,3.07761 9.1767,4.13851c4.01904,1.22716 8.17482,2.147 12.2356,2.69904c4.26231,0.58299 8.6333,0.44696 12.9553,0.53981c3.47851,0.07486 8.62755,-2.82282 10.6162,0.17994c2.468,3.59223 0.981,9.49411 -1.61942,13.1353c-3.82399,5.35128 -9.64669,10.3017 -16.1942,11.3359c-7.53426,1.25811 -15.8775,-1.14511 -22.4919,-5.0382c-4.70064,-2.7674 -7.23988,-8.37995 -8.99677,-13.4952c-1.31785,-3.72826 -1.0681,-8.15611 0.17346,-11.8822c0.46927,-1.40421 2.68896,-1.87565 4.14499,-1.61294z" id="ID0.3539912081323564" fill="#7d191d"/><path d="M139.78797,80.15854l-1.18758,3.3468c-1.95194,2.40825 -3.82759,5.39014 -6.72959,6.44169c-3.89596,1.41142 -8.28351,0.76581 -12.4155,0.53981c-1.74897,-0.09716 -3.57352,-0.70175 -5.21813,-1.43948c-1.45532,-0.65569 -2.71631,-1.58487 -3.77865,-2.69903c-1.30345,-1.19046 -2.4428,-2.61842 -3.23883,-4.13852c-0.48439,-0.92702 -0.66,-2.04046 -0.71975,-3.0589l-0.17994,-3.05891l3.05891,1.25955c2.8437,0.93134 5.62478,2.13907 8.6369,2.51909c5.2498,0.76581 10.6716,0.76365 16.0142,0.89968c1.42293,0.03599 3.68508,-0.16482 4.21049,-0.25191z" id="ID0.7451628390699625" fill="#000000"/><path d="M122.51398,80.62655c3.49578,0.35268 7.10673,0.09717 10.6882,0.25191c0.93999,0.04894 2.6616,-0.4081 2.87896,0.35987c0.26558,0.95654 -0.83418,2.87464 -2.05127,3.13087c-3.92835,0.82194 -8.04959,0.095 -12.0557,-0.17994c-2.93151,-0.20153 -5.94723,-0.50381 -8.81684,-1.33152c-1.1084,-0.2987 -2.20385,-0.9846 -2.87897,-1.97929c-0.56571,-0.83346 -1.15374,-2.55796 -0.46783,-2.98693c0.84929,-0.53117 2.57236,0.79603 3.88661,1.07961c2.93007,0.63338 5.84358,1.35743 8.81683,1.65541z" id="ID0.0041041807271540165" fill="#ffffff"/><path d="M120.89398,90.66755c-2.2751,-0.26415 -4.58403,-0.73557 -6.65761,-1.72738c-1.62373,-0.69743 -3.02652,-1.92963 -4.21049,-3.23884c-0.32461,-0.35987 -1.19908,-1.29409 -0.21592,-1.43948c3.88877,-0.56572 7.85957,-0.35699 11.8038,-0.17994c3.23524,0.17417 6.51295,0.4923 9.64454,1.33152c1.2725,0.34116 2.65945,1.00044 3.31081,2.15922c0.34403,0.57363 -0.4887,1.38407 -1.07961,1.72738c-1.33152,0.77157 -2.91999,1.28042 -4.39043,1.43948c-2.71631,0.29366 -5.43189,0.24975 -8.20506,-0.07198z" id="ID0.0041041807271540165" fill="#ffffff"/></g><g data-paper-data="{&quot;origPos&quot;:null}" id="ID0.5567619865760207" stroke="#000000" stroke-width="0.5" stroke-linecap="round"><path d="M168.08094,72.95569c3.36983,0.40322 6.03144,2.15245 9.1767,2.89443c4.01904,0.85827 8.17482,1.5016 12.2356,1.88769c4.26231,0.40774 8.6333,0.3126 12.9553,0.37753c3.47851,0.05236 8.62755,-1.97425 10.6162,0.12585c2.468,2.51238 0.981,6.64009 -1.61942,9.18671c-3.82399,3.74263 -9.64669,7.20492 -16.1942,7.92822c-7.53426,0.87991 -15.8775,-0.80088 -22.4919,-3.52367c-4.70064,-1.9355 -7.23988,-5.86086 -8.99677,-9.43842c-1.31785,-2.60751 -1.0681,-5.7043 0.17346,-8.3103c0.46927,-0.98209 2.68896,-1.31181 4.14499,-1.12808z" id="ID0.3539912081323564" fill="#7d191d"/><path d="M204.78797,83.22412l-1.18758,2.34072c-1.95194,1.68431 -3.82759,3.76982 -6.72959,4.50526c-3.89596,0.98713 -8.28351,0.5356 -12.4155,0.37753c-1.74897,-0.06795 -3.57352,-0.49079 -5.21813,-1.00675c-1.45532,-0.45858 -2.71631,-1.10845 -3.77865,-1.88768c-1.30345,-0.83259 -2.4428,-1.83129 -3.23883,-2.89444c-0.48439,-0.64835 -0.66,-1.42708 -0.71975,-2.13936l-0.17994,-2.13938l3.05891,0.88092c2.8437,0.65137 5.62478,1.49605 8.6369,1.76183c5.2498,0.5356 10.6716,0.53409 16.0142,0.62923c1.42293,0.02517 3.68508,-0.11527 4.21049,-0.17618z" id="ID0.7451628390699625" fill="#000000"/><path d="M187.51398,83.55144c3.49578,0.24666 7.10673,0.06796 10.6882,0.17619c0.93999,0.03423 2.6616,-0.28542 2.87896,0.25169c0.26558,0.66899 -0.83418,2.0105 -2.05127,2.1897c-3.92835,0.57485 -8.04959,0.06645 -12.0557,-0.12584c-2.93151,-0.14095 -5.94723,-0.35236 -8.81684,-0.93125c-1.1084,-0.20891 -2.20385,-0.68862 -2.87897,-1.3843c-0.56571,-0.58291 -1.15374,-1.78901 -0.46783,-2.08903c0.84929,-0.37149 2.57236,0.55674 3.88661,0.75507c2.93007,0.44298 5.84358,0.94938 8.81683,1.15778z" id="ID0.0041041807271540165" fill="#ffffff"/><path d="M185.89396,90.57403c-2.2751,-0.18475 -4.58403,-0.51445 -6.65761,-1.20812c-1.62373,-0.48777 -3.02652,-1.34956 -4.21049,-2.26521c-0.32461,-0.25169 -1.19908,-0.90507 -0.21592,-1.00676c3.88877,-0.39566 7.85957,-0.24967 11.8038,-0.12584c3.23524,0.12181 6.51295,0.34431 9.64454,0.93125c1.2725,0.23861 2.65945,0.6997 3.31081,1.51014c0.34403,0.40119 -0.4887,0.96801 -1.07961,1.20812c-1.33152,0.53963 -2.91999,0.89552 -4.39043,1.00676c-2.71631,0.20539 -5.43189,0.17467 -8.20506,-0.05035z" id="ID0.0041041807271540165" fill="#ffffff"/></g><g data-paper-data="{&quot;origPos&quot;:null}" id="ID0.5567619865760207" stroke="#000000" stroke-width="0.5" stroke-linecap="round"><path d="M223.08095,78.68641c3.36983,0.24323 6.03144,1.29846 9.1767,1.74606c4.01904,0.51775 8.17482,0.90583 12.2356,1.13874c4.26231,0.24596 8.6333,0.18858 12.9553,0.22775c3.47851,0.03159 8.62755,-1.19096 10.6162,0.07592c2.468,1.51558 0.981,4.00561 -1.61942,5.54185c-3.82399,2.25773 -9.64669,4.34635 -16.1942,4.78268c-7.53426,0.53081 -15.8775,-0.48313 -22.4919,-2.12565c-4.70064,-1.16758 -7.23988,-3.53555 -8.99677,-5.6937c-1.31785,-1.57297 -1.0681,-3.4411 0.17346,-5.01316c0.46927,-0.59244 2.68896,-0.79135 4.14499,-0.68051z" id="ID0.3539912081323564" fill="#7d191d"/><path d="M259.78796,84.88082l-1.18758,1.41203c-1.95194,1.01605 -3.82759,2.27413 -6.72959,2.71779c-3.89596,0.59548 -8.28351,0.3231 -12.4155,0.22775c-1.74897,-0.04099 -3.57352,-0.29608 -5.21813,-0.60733c-1.45532,-0.27664 -2.71631,-0.66866 -3.77865,-1.13873c-1.30345,-0.50226 -2.4428,-1.10473 -3.23883,-1.74607c-0.48439,-0.39111 -0.66,-0.86088 -0.71975,-1.29057l-0.17994,-1.29057l3.05891,0.53141c2.8437,0.39293 5.62478,0.90248 8.6369,1.06282c5.2498,0.3231 10.6716,0.32219 16.0142,0.37958c1.42293,0.01519 3.68508,-0.06954 4.21049,-0.10628z" id="ID0.7451628390699625" fill="#000000"/><path d="M242.51398,85.07828c3.49578,0.1488 7.10673,0.04099 10.6882,0.10628c0.93999,0.02065 2.6616,-0.17218 2.87896,0.15183c0.26558,0.40357 -0.83418,1.21283 -2.05127,1.32094c-3.92835,0.34678 -8.04959,0.04008 -12.0557,-0.07592c-2.93151,-0.08503 -5.94723,-0.21256 -8.81684,-0.56177c-1.1084,-0.12602 -2.20385,-0.41541 -2.87897,-0.83508c-0.56571,-0.35164 -1.15374,-1.07921 -0.46783,-1.2602c0.84929,-0.2241 2.57236,0.33585 3.88661,0.45549c2.93007,0.26722 5.84358,0.5727 8.81683,0.69843z" id="ID0.0041041807271540165" fill="#ffffff"/><path d="M240.89398,89.31463c-2.2751,-0.11145 -4.58403,-0.31034 -6.65761,-0.72879c-1.62373,-0.29425 -3.02652,-0.81412 -4.21049,-1.36648c-0.32461,-0.15183 -1.19908,-0.54599 -0.21592,-0.60733c3.88877,-0.23868 7.85957,-0.15062 11.8038,-0.07591c3.23524,0.07349 6.51295,0.20771 9.64454,0.56177c1.2725,0.14393 2.65945,0.42209 3.31081,0.91098c0.34403,0.24202 -0.4887,0.58394 -1.07961,0.72879c-1.33152,0.32553 -2.91999,0.54022 -4.39043,0.60733c-2.71631,0.1239 -5.43189,0.10537 -8.20506,-0.03037z" id="ID0.0041041807271540165" fill="#ffffff"/></g><g data-paper-data="{&quot;origPos&quot;:null,&quot;index&quot;:null}" id="ID0.5567619865760207" stroke="#000000" stroke-width="0.5" stroke-linecap="round"><path d="M387.12703,97.79321c-3.36983,-0.39877 -6.03144,-2.12873 -9.1767,-2.86253c-4.01904,-0.8488 -8.17482,-1.48504 -12.2356,-1.86688c-4.26231,-0.40324 -8.6333,-0.30916 -12.9553,-0.37338c-3.47851,-0.05178 -8.62755,1.9525 -10.6162,-0.12446c-2.468,-2.48468 -0.981,-6.56691 1.61942,-9.08546c3.82399,-3.70139 9.64669,-7.12551 16.1942,-7.84085c7.53426,-0.87022 15.8775,0.79206 22.4919,3.48484c4.70064,1.91416 7.23988,5.79627 8.99677,9.3344c1.31785,2.57877 1.0681,5.64144 -0.17346,8.21872c-0.46927,0.97127 -2.68896,1.29735 -4.14499,1.11565z" id="ID0.3539912081323564" fill="#7d191d"/><path d="M350.42001,87.63794l1.18758,-2.31492c1.95194,-1.66575 3.82759,-3.72827 6.72959,-4.45561c3.89596,-0.97625 8.28351,-0.52969 12.4155,-0.37337c1.74897,0.06721 3.57352,0.48538 5.21813,0.99566c1.45532,0.45353 2.71631,1.09623 3.77865,1.86687c1.30345,0.82342 2.4428,1.81112 3.23883,2.86254c0.48439,0.6412 0.66,1.41135 0.71975,2.11579l0.17994,2.1158l-3.05891,-0.87121c-2.8437,-0.64419 -5.62478,-1.47956 -8.6369,-1.74241c-5.2498,-0.5297 -10.6716,-0.5282 -16.0142,-0.62229c-1.42293,-0.0249 -3.68508,0.114 -4.21049,0.17424z" id="ID0.7451628390699625" fill="#000000"/><path d="M367.694,87.31422c-3.49578,-0.24394 -7.10673,-0.06721 -10.6882,-0.17424c-0.93999,-0.03385 -2.6616,0.28227 -2.87896,-0.24891c-0.26558,-0.66162 0.83418,-1.98834 2.05127,-2.16557c3.92835,-0.56852 8.04959,-0.06571 12.0557,0.12446c2.93151,0.13939 5.94723,0.34848 8.81684,0.92099c1.1084,0.2066 2.20385,0.68103 2.87897,1.36904c0.56571,0.57649 1.15374,1.7693 0.46783,2.06601c-0.84929,0.3674 -2.57236,-0.5506 -3.88661,-0.74674c-2.93007,-0.4381 -5.84358,-0.93891 -8.81683,-1.14502z" id="ID0.0041041807271540165" fill="#ffffff"/><path d="M369.314,80.36904c2.2751,0.18271 4.58403,0.50878 6.65761,1.1948c1.62373,0.4824 3.02652,1.33469 4.21049,2.24025c0.32461,0.24891 1.19908,0.8951 0.21592,0.99567c-3.88877,0.3913 -7.85957,0.24692 -11.8038,0.12446c-3.23524,-0.12047 -6.51295,-0.34051 -9.64454,-0.92099c-1.2725,-0.23597 -2.65945,-0.69199 -3.31081,-1.4935c-0.34403,-0.39677 0.4887,-0.95734 1.07961,-1.1948c1.33152,-0.53368 2.91999,-0.88564 4.39043,-0.99566c2.71631,-0.20312 5.43189,-0.17275 8.20506,0.04979z" id="ID0.0041041807271540165" fill="#ffffff"/></g><g data-paper-data="{&quot;origPos&quot;:null,&quot;index&quot;:null}" id="ID0.5567619865760207" stroke="#000000" stroke-width="0.5" stroke-linecap="round"><path d="M452.12703,99.7718c-3.36983,-0.57652 -6.03144,-3.07761 -9.1767,-4.13851c-4.01904,-1.22716 -8.17482,-2.147 -12.2356,-2.69904c-4.26231,-0.58299 -8.6333,-0.44696 -12.9553,-0.53981c-3.47851,-0.07486 -8.62755,2.82282 -10.6162,-0.17994c-2.468,-3.59223 -0.981,-9.49411 1.61942,-13.1353c3.82399,-5.35128 9.64669,-10.3017 16.1942,-11.3359c7.53426,-1.25811 15.8775,1.14511 22.4919,5.0382c4.70064,2.7674 7.23988,8.37995 8.99677,13.4952c1.31785,3.72826 1.0681,8.15611 -0.17346,11.8822c-0.46927,1.40421 -2.68896,1.87565 -4.14499,1.61294z" id="ID0.3539912081323564" fill="#7d191d"/><path d="M415.42001,85.08982l1.18758,-3.3468c1.95194,-2.40825 3.82759,-5.39014 6.72959,-6.44169c3.89596,-1.41142 8.28351,-0.76581 12.4155,-0.53981c1.74897,0.09716 3.57352,0.70175 5.21813,1.43948c1.45532,0.65569 2.71631,1.58487 3.77865,2.69903c1.30345,1.19046 2.4428,2.61842 3.23883,4.13852c0.48439,0.92702 0.66,2.04046 0.71975,3.0589l0.17994,3.05891l-3.05891,-1.25955c-2.8437,-0.93134 -5.62478,-2.13907 -8.6369,-2.51909c-5.2498,-0.76581 -10.6716,-0.76365 -16.0142,-0.89968c-1.42293,-0.03599 -3.68508,0.16482 -4.21049,0.25191z" id="ID0.7451628390699625" fill="#000000"/><path d="M432.694,84.62181c-3.49578,-0.35268 -7.10673,-0.09717 -10.6882,-0.25191c-0.93999,-0.04894 -2.6616,0.4081 -2.87896,-0.35987c-0.26558,-0.95654 0.83418,-2.87464 2.05127,-3.13087c3.92835,-0.82194 8.04959,-0.095 12.0557,0.17994c2.93151,0.20153 5.94723,0.50381 8.81684,1.33152c1.1084,0.2987 2.20385,0.9846 2.87897,1.97929c0.56571,0.83346 1.15374,2.55796 0.46783,2.98693c-0.84929,0.53117 -2.57236,-0.79603 -3.88661,-1.07961c-2.93007,-0.63338 -5.84358,-1.35743 -8.81683,-1.65541z" id="ID0.0041041807271540165" fill="#ffffff"/><path d="M434.314,74.58081c2.2751,0.26415 4.58403,0.73557 6.65761,1.72738c1.62373,0.69743 3.02652,1.92963 4.21049,3.23884c0.32461,0.35987 1.19908,1.29409 0.21592,1.43948c-3.88877,0.56572 -7.85957,0.35699 -11.8038,0.17994c-3.23524,-0.17417 -6.51295,-0.4923 -9.64454,-1.33152c-1.2725,-0.34116 -2.65945,-1.00044 -3.31081,-2.15922c-0.34403,-0.57363 0.4887,-1.38407 1.07961,-1.72738c1.33152,-0.77157 2.91999,-1.28042 4.39043,-1.43948c2.71631,-0.29366 5.43189,-0.24975 8.20506,0.07198z" id="ID0.0041041807271540165" fill="#ffffff"/></g><path d="M168.08094,120.47656c3.36983,0.57652 6.03144,3.07761 9.1767,4.13851c4.01904,1.22716 8.17482,2.147 12.2356,2.69904c4.26231,0.58299 8.6333,0.44696 12.9553,0.53981c3.47851,0.07486 8.62755,-2.82282 10.6162,0.17994c2.468,3.59223 0.981,9.49411 -1.61942,13.1353c-3.82399,5.35128 -9.64669,10.3017 -16.1942,11.3359c-7.53426,1.25811 -15.8775,-1.14511 -22.4919,-5.0382c-4.70064,-2.7674 -7.23988,-8.37995 -8.99677,-13.4952c-1.31785,-3.72826 -1.0681,-8.15611 0.17346,-11.8822c0.46927,-1.40421 2.68896,-1.87565 4.14499,-1.61294z" id="ID0.3539912081323564" fill="#7d191d" stroke="#000000" stroke-width="0.5" stroke-linecap="round"/><path d="M204.78797,135.15854l-1.18758,3.3468c-1.95194,2.40825 -3.82759,5.39014 -6.72959,6.44169c-3.89596,1.41142 -8.28351,0.76581 -12.4155,0.53981c-1.74897,-0.09716 -3.57352,-0.70175 -5.21813,-1.43948c-1.45532,-0.65569 -2.71631,-1.58487 -3.77865,-2.69903c-1.30345,-1.19046 -2.4428,-2.61842 -3.23883,-4.13852c-0.48439,-0.92702 -0.66,-2.04046 -0.71975,-3.0589l-0.17994,-3.05891l3.05891,1.25955c2.8437,0.93134 5.62478,2.13907 8.6369,2.51909c5.2498,0.76581 10.6716,0.76365 16.0142,0.89968c1.42293,0.03599 3.68508,-0.16482 4.21049,-0.25191z" id="ID0.7451628390699625" fill="#000000" stroke="#000000" stroke-width="0.5" stroke-linecap="round"/><path d="M187.51398,134.8075c3.49578,0.25165 7.10673,0.06933 10.6882,0.17975c0.93999,0.03492 2.6616,-0.2912 2.87896,0.25678c0.26558,0.68253 -0.83418,2.05117 -2.05127,2.234c-3.92835,0.58648 -8.04959,0.06779 -12.0557,-0.12839c-2.93151,-0.1438 -5.94723,-0.35948 -8.81684,-0.95009c-1.1084,-0.21313 -2.20385,-0.70255 -2.87897,-1.4123c-0.56571,-0.59471 -1.15374,-1.82521 -0.46783,-2.13129c0.84929,-0.37901 2.57236,0.568 3.88661,0.77035c2.93007,0.45194 5.84358,0.96858 8.81683,1.1812z" data-paper-data="{&quot;origPos&quot;:null}" id="ID0.0041041807271540165" fill="#ffffff" stroke="#000000" stroke-width="0.5" stroke-linecap="round"/><path d="M185.64396,145.24388c-2.2751,-0.18914 -4.58403,-0.5267 -6.65761,-1.23687c-1.62373,-0.49938 -3.02652,-1.38167 -4.21049,-2.31911c-0.32461,-0.25768 -1.19908,-0.92661 -0.21592,-1.03072c3.88877,-0.40508 7.85957,-0.25562 11.8038,-0.12884c3.23524,0.12471 6.51295,0.3525 9.64454,0.95341c1.2725,0.24428 2.65945,0.71635 3.31081,1.54608c0.34403,0.41074 -0.4887,0.99104 -1.07961,1.23686c-1.33152,0.55247 -2.91999,0.91683 -4.39043,1.03072c-2.71631,0.21027 -5.43189,0.17883 -8.20506,-0.05154z" data-paper-data="{&quot;origPos&quot;:null}" id="ID0.0041041807271540165" fill="#ffffff" stroke="#000000" stroke-width="0.5" stroke-linecap="round"/><path d="M224.08095,118.47656c3.36983,0.57652 6.03144,3.07761 9.1767,4.13851c4.01904,1.22716 8.17482,2.147 12.2356,2.69904c4.26231,0.58299 8.6333,0.44696 12.9553,0.53981c3.47851,0.07486 8.62755,-2.82282 10.6162,0.17994c2.468,3.59223 0.981,9.49411 -1.61942,13.1353c-3.82399,5.35128 -9.64669,10.3017 -16.1942,11.3359c-7.53426,1.25811 -15.8775,-1.14511 -22.4919,-5.0382c-4.70064,-2.7674 -7.23988,-8.37995 -8.99677,-13.4952c-1.31785,-3.72826 -1.0681,-8.15611 0.17346,-11.8822c0.46927,-1.40421 2.68896,-1.87565 4.14499,-1.61294z" id="ID0.3539912081323564" fill="#7d191d" stroke="#000000" stroke-width="0.5" stroke-linecap="round"/><path d="M260.78796,133.15854l-1.18758,3.3468c-1.95194,2.40825 -3.82759,5.39014 -6.72959,6.44169c-3.89596,1.41142 -8.28351,0.76581 -12.4155,0.53981c-1.74897,-0.09716 -3.57352,-0.70175 -5.21813,-1.43948c-1.45532,-0.65569 -2.71631,-1.58487 -3.77865,-2.69903c-1.30345,-1.19046 -2.4428,-2.61842 -3.23883,-4.13852c-0.48439,-0.92702 -0.66,-2.04046 -0.71975,-3.0589l-0.17994,-3.05891l3.05891,1.25955c2.8437,0.93134 5.62478,2.13907 8.6369,2.51909c5.2498,0.76581 10.6716,0.76365 16.0142,0.89968c1.42293,0.03599 3.68508,-0.16482 4.21049,-0.25191z" id="ID0.7451628390699625" fill="#000000" stroke="#000000" stroke-width="0.5" stroke-linecap="round"/><path d="M243.51398,133.3706c3.49578,0.32111 7.10673,0.08847 10.6882,0.22936c0.93999,0.04456 2.6616,-0.37157 2.87896,0.32765c0.26558,0.87091 -0.83418,2.61731 -2.05127,2.8506c-3.92835,0.74836 -8.04959,0.0865 -12.0557,-0.16383c-2.93151,-0.18349 -5.94723,-0.45871 -8.81684,-1.21233c-1.1084,-0.27196 -2.20385,-0.89646 -2.87897,-1.8021c-0.56571,-0.75885 -1.15374,-2.32897 -0.46783,-2.71954c0.84929,-0.48362 2.57236,0.72476 3.88661,0.98296c2.93007,0.57668 5.84358,1.23592 8.81683,1.50722z" data-paper-data="{&quot;origPos&quot;:null}" id="ID0.0041041807271540165" fill="#ffffff" stroke="#000000" stroke-width="0.5" stroke-linecap="round"/><path d="M241.89398,143.70571c-2.2751,-0.22664 -4.58403,-0.63113 -6.65761,-1.48212c-1.62373,-0.59841 -3.02652,-1.65565 -4.21049,-2.77898c-0.32461,-0.30877 -1.19908,-1.11035 -0.21592,-1.2351c3.88877,-0.48539 7.85957,-0.30631 11.8038,-0.1544c3.23524,0.14944 6.51295,0.4224 9.64454,1.14247c1.2725,0.29272 2.65945,0.85839 3.31081,1.85264c0.34403,0.49219 -0.4887,1.18756 -1.07961,1.48212c-1.33152,0.66202 -2.91999,1.09862 -4.39043,1.2351c-2.71631,0.25197 -5.43189,0.21429 -8.20506,-0.06176z" data-paper-data="{&quot;origPos&quot;:null}" id="ID0.0041041807271540165" fill="#ffffff" stroke="#000000" stroke-width="0.5" stroke-linecap="round"/><path d="M395.12703,152.7718c-3.36983,-0.57652 -6.03144,-3.07761 -9.1767,-4.13851c-4.01904,-1.22716 -8.17482,-2.147 -12.2356,-2.69904c-4.26231,-0.58299 -8.6333,-0.44696 -12.9553,-0.53981c-3.47851,-0.07486 -8.62755,2.82282 -10.6162,-0.17994c-2.468,-3.59223 -0.981,-9.49411 1.61942,-13.1353c3.82399,-5.35128 9.64669,-10.3017 16.1942,-11.3359c7.53426,-1.25811 15.8775,1.14511 22.4919,5.0382c4.70064,2.7674 7.23988,8.37995 8.99677,13.4952c1.31785,3.72826 1.0681,8.15611 -0.17346,11.8822c-0.46927,1.40421 -2.68896,1.87565 -4.14499,1.61294z" data-paper-data="{&quot;index&quot;:null}" id="ID0.3539912081323564" fill="#7d191d" stroke="#000000" stroke-width="0.5" stroke-linecap="round"/><path d="M358.42001,138.08982l1.18758,-3.3468c1.95194,-2.40825 3.82759,-5.39014 6.72959,-6.44169c3.89596,-1.41142 8.28351,-0.76581 12.4155,-0.53981c1.74897,0.09716 3.57352,0.70175 5.21813,1.43948c1.45532,0.65569 2.71631,1.58487 3.77865,2.69903c1.30345,1.19046 2.4428,2.61842 3.23883,4.13852c0.48439,0.92702 0.66,2.04046 0.71975,3.0589l0.17994,3.05891l-3.05891,-1.25955c-2.8437,-0.93134 -5.62478,-2.13907 -8.6369,-2.51909c-5.2498,-0.76581 -10.6716,-0.76365 -16.0142,-0.89968c-1.42293,-0.03599 -3.68508,0.16482 -4.21049,0.25191z" data-paper-data="{&quot;index&quot;:null}" id="ID0.7451628390699625" fill="#000000" stroke="#000000" stroke-width="0.5" stroke-linecap="round"/><path d="M375.694,138.64563c-3.49578,-0.22639 -7.10673,-0.06238 -10.6882,-0.16171c-0.93999,-0.03141 -2.6616,0.26197 -2.87896,-0.23101c-0.26558,-0.61402 0.83418,-1.8453 2.05127,-2.00978c3.92835,-0.52762 8.04959,-0.06098 12.0557,0.11551c2.93151,0.12937 5.94723,0.32341 8.81684,0.85473c1.1084,0.19174 2.20385,0.63204 2.87897,1.27055c0.56571,0.53502 1.15374,1.64201 0.46783,1.91737c-0.84929,0.34097 -2.57236,-0.51099 -3.88661,-0.69302c-2.93007,-0.40658 -5.84358,-0.87136 -8.81683,-1.06265z" data-paper-data="{&quot;index&quot;:null,&quot;origPos&quot;:null}" id="ID0.0041041807271540165" fill="#ffffff" stroke="#000000" stroke-width="0.5" stroke-linecap="round"/><path d="M377.314,127.52357c2.2751,0.20789 4.58403,0.57891 6.65761,1.35949c1.62373,0.5489 3.02652,1.51867 4.21049,2.54905c0.32461,0.28323 1.19908,1.01848 0.21592,1.13291c-3.88877,0.44523 -7.85957,0.28096 -11.8038,0.14162c-3.23524,-0.13707 -6.51295,-0.38746 -9.64454,-1.04794c-1.2725,-0.2685 -2.65945,-0.78737 -3.31081,-1.69936c-0.34403,-0.45146 0.4887,-1.0893 1.07961,-1.35949c1.33152,-0.60725 2.91999,-1.00772 4.39043,-1.13291c2.71631,-0.23112 5.43189,-0.19656 8.20506,0.05665z" data-paper-data="{&quot;index&quot;:null,&quot;origPos&quot;:null}" id="ID0.0041041807271540165" fill="#ffffff" stroke="#000000" stroke-width="0.5" stroke-linecap="round"/><path d="M330.12703,151.7718c-3.36983,-0.57652 -6.03144,-3.07761 -9.1767,-4.13851c-4.01904,-1.22716 -8.17482,-2.147 -12.2356,-2.69904c-4.26231,-0.58299 -8.6333,-0.44696 -12.9553,-0.53981c-3.47851,-0.07486 -8.62755,2.82282 -10.6162,-0.17994c-2.468,-3.59223 -0.981,-9.49411 1.61942,-13.1353c3.82399,-5.35128 9.64669,-10.3017 16.1942,-11.3359c7.53426,-1.25811 15.8775,1.14511 22.4919,5.0382c4.70064,2.7674 7.23988,8.37995 8.99677,13.4952c1.31785,3.72826 1.0681,8.15611 -0.17346,11.8822c-0.46927,1.40421 -2.68896,1.87565 -4.14499,1.61294z" data-paper-data="{&quot;index&quot;:null}" id="ID0.3539912081323564" fill="#7d191d" stroke="#000000" stroke-width="0.5" stroke-linecap="round"/><path d="M293.41999,137.08982l1.18758,-3.3468c1.95194,-2.40825 3.82759,-5.39014 6.72959,-6.44169c3.89596,-1.41142 8.28351,-0.76581 12.4155,-0.53981c1.74897,0.09716 3.57352,0.70175 5.21813,1.43948c1.45532,0.65569 2.71631,1.58487 3.77865,2.69903c1.30345,1.19046 2.4428,2.61842 3.23883,4.13852c0.48439,0.92702 0.66,2.04046 0.71975,3.0589l0.17994,3.05891l-3.05891,-1.25955c-2.8437,-0.93134 -5.62478,-2.13907 -8.6369,-2.51909c-5.2498,-0.76581 -10.6716,-0.76365 -16.0142,-0.89968c-1.42293,-0.03599 -3.68508,0.16482 -4.21049,0.25191z" data-paper-data="{&quot;index&quot;:null}" id="ID0.7451628390699625" fill="#000000" stroke="#000000" stroke-width="0.5" stroke-linecap="round"/><path d="M310.69399,137.03134c-3.49578,-0.30217 -7.10673,-0.08325 -10.6882,-0.21583c-0.93999,-0.04193 -2.6616,0.34964 -2.87896,-0.30833c-0.26558,-0.81954 0.83418,-2.4629 2.05127,-2.68243c3.92835,-0.70422 8.04959,-0.0814 12.0557,0.15416c2.93151,0.17266 5.94723,0.43165 8.81684,1.14081c1.1084,0.25592 2.20385,0.84358 2.87897,1.6958c0.56571,0.71408 1.15374,2.19158 0.46783,2.55911c-0.84929,0.45509 -2.57236,-0.68201 -3.88661,-0.92498c-2.93007,-0.54266 -5.84358,-1.163 -8.81683,-1.41831z" data-paper-data="{&quot;index&quot;:null,&quot;origPos&quot;:null}" id="ID0.0041041807271540165" fill="#ffffff" stroke="#000000" stroke-width="0.5" stroke-linecap="round"/><path d="M312.31399,126.54265c2.2751,0.22665 4.58403,0.63113 6.65761,1.48212c1.62373,0.5984 3.02652,1.65566 4.21049,2.77898c0.32461,0.30877 1.19908,1.11035 0.21592,1.2351c-3.88877,0.48539 -7.85957,0.3063 -11.8038,0.15439c-3.23524,-0.14944 -6.51295,-0.4224 -9.64454,-1.14246c-1.2725,-0.29272 -2.65945,-0.85839 -3.31081,-1.85265c-0.34403,-0.49219 0.4887,-1.18756 1.07961,-1.48212c1.33152,-0.66202 2.91999,-1.09862 4.39043,-1.2351c2.71631,-0.25196 5.43189,-0.21429 8.20506,0.06176z" data-paper-data="{&quot;index&quot;:null,&quot;origPos&quot;:null}" id="ID0.0041041807271540165" fill="#ffffff" stroke="#000000" stroke-width="0.5" stroke-linecap="round"/><g data-paper-data="{&quot;origPos&quot;:null,&quot;index&quot;:null}" id="ID0.5567619865760207" stroke="#000000" stroke-width="0.5" stroke-linecap="round"><path d="M323.87703,93.31195c-3.36983,-0.24323 -6.03144,-1.29846 -9.1767,-1.74606c-4.01904,-0.51775 -8.17482,-0.90583 -12.2356,-1.13874c-4.26231,-0.24596 -8.6333,-0.18858 -12.9553,-0.22775c-3.47851,-0.03159 -8.62755,1.19096 -10.6162,-0.07592c-2.468,-1.51558 -0.981,-4.00561 1.61942,-5.54185c3.82399,-2.25773 9.64669,-4.34634 16.1942,-4.78268c7.53426,-0.53081 15.8775,0.48313 22.4919,2.12565c4.70064,1.16758 7.23988,3.53555 8.99677,5.6937c1.31785,1.57297 1.0681,3.4411 -0.17346,5.01316c-0.46927,0.59244 -2.68896,0.79135 -4.14499,0.68051z" id="ID0.3539912081323564" fill="#7d191d"/><path d="M287.16999,87.11754l1.18758,-1.41203c1.95194,-1.01605 3.82759,-2.27413 6.72959,-2.71778c3.89596,-0.59548 8.28351,-0.3231 12.4155,-0.22775c1.74897,0.04099 3.57352,0.29608 5.21813,0.60733c1.45532,0.27664 2.71631,0.66866 3.77865,1.13873c1.30345,0.50226 2.4428,1.10473 3.23883,1.74607c0.48439,0.39111 0.66,0.86088 0.71975,1.29057l0.17994,1.29057l-3.05891,-0.53141c-2.8437,-0.39293 -5.62478,-0.90248 -8.6369,-1.06282c-5.2498,-0.3231 -10.6716,-0.32219 -16.0142,-0.37958c-1.42293,-0.01519 -3.68508,0.06954 -4.21049,0.10628z" id="ID0.7451628390699625" fill="#000000"/><path d="M304.44399,86.92009c-3.49578,-0.1488 -7.10673,-0.041 -10.6882,-0.10628c-0.93999,-0.02065 -2.6616,0.17218 -2.87896,-0.15183c-0.26558,-0.40357 0.83418,-1.21283 2.05127,-1.32094c3.92835,-0.34678 8.04959,-0.04008 12.0557,0.07592c2.93151,0.08503 5.94723,0.21256 8.81684,0.56177c1.1084,0.12602 2.20385,0.41541 2.87897,0.83508c0.56571,0.35164 1.15374,1.07921 0.46783,1.2602c-0.84929,0.2241 -2.57236,-0.33585 -3.88661,-0.45549c-2.93007,-0.26722 -5.84358,-0.5727 -8.81683,-0.69843z" id="ID0.0041041807271540165" fill="#ffffff"/><path d="M306.06399,82.68374c2.2751,0.11145 4.58403,0.31034 6.65761,0.72879c1.62373,0.29425 3.02652,0.81412 4.21049,1.36649c0.32461,0.15183 1.19908,0.54598 0.21592,0.60732c-3.88877,0.23868 -7.85957,0.15062 -11.8038,0.07592c-3.23524,-0.07349 -6.51295,-0.20771 -9.64454,-0.56177c-1.2725,-0.14393 -2.65945,-0.42209 -3.31081,-0.91099c-0.34403,-0.24202 0.4887,-0.58394 1.07961,-0.72879c1.33152,-0.32553 2.91999,-0.54022 4.39043,-0.60733c2.71631,-0.1239 5.43189,-0.10537 8.20506,0.03037z" id="ID0.0041041807271540165" fill="#ffffff"/></g><text transform="translate(2.67495,84.53293) scale(0.5,0.5)" font-size="40" xml:space="preserve" data-paper-data="{&quot;origPos&quot;:null}" fill="#7d191d" fill-rule="nonzero" stroke="none" stroke-width="1" stroke-linecap="butt" stroke-linejoin="miter" stroke-miterlimit="10" stroke-dasharray="" stroke-dashoffset="0" font-family="Sans Serif" font-weight="normal" text-anchor="start" style="mix-blend-mode: normal"><tspan x="0" dy="0">Long E, F:</tspan></text><text transform="translate(34.17495,130.53293) scale(0.5,0.5)" font-size="40" xml:space="preserve" fill="#7d191d" fill-rule="nonzero" stroke="none" stroke-width="1" stroke-linecap="butt" stroke-linejoin="miter" stroke-miterlimit="10" stroke-dasharray="" stroke-dashoffset="0" font-family="Sans Serif" font-weight="normal" text-anchor="start" style="mix-blend-mode: normal"><tspan x="0" dy="0">A, I:</tspan></text><text transform="translate(24.17495,181.53293) scale(0.5,0.5)" font-size="40" xml:space="preserve" data-paper-data="{&quot;origPos&quot;:null}" fill="#7d191d" fill-rule="nonzero" stroke="none" stroke-width="1" stroke-linecap="butt" stroke-linejoin="miter" stroke-miterlimit="10" stroke-dasharray="" stroke-dashoffset="0" font-family="Sans Serif" font-weight="normal" text-anchor="start" style="mix-blend-mode: normal"><tspan x="0" dy="0">O, U, W:</tspan></text><g data-paper-data="{&quot;origPos&quot;:null}" stroke="#000000" stroke-width="0.5" stroke-linecap="butt"><path d="M99.98463,181.23377c0,-12.24231 9.92436,-22.16667 22.16667,-22.16667c12.24231,0 22.16667,9.92436 22.16667,22.16667c0,12.24231 -9.92436,22.16666 -22.16667,22.16666c-12.24231,0 -22.16667,-9.92435 -22.16667,-22.16666z" data-paper-data="{&quot;origPos&quot;:null}" fill="#7d191d"/><path d="M107.31797,181.73377c0,-7.91608 6.41725,-14.33334 14.33333,-14.33334c7.91608,0 14.33333,6.41726 14.33333,14.33334c0,7.91608 -6.41725,14.33333 -14.33333,14.33333c-7.91608,0 -14.33333,-6.41725 -14.33333,-14.33333z" data-paper-data="{&quot;origPos&quot;:null}" fill="#000000"/></g><g data-paper-data="{&quot;origPos&quot;:null}" stroke="#000000" stroke-width="0.5" stroke-linecap="butt"><path d="M167.6513,182.5671c0,-10.76955 8.73045,-19.5 19.5,-19.5c10.76955,0 19.5,8.73045 19.5,19.5c0,10.76955 -8.73045,19.5 -19.5,19.5c-10.76955,0 -19.5,-8.73045 -19.5,-19.5z" data-paper-data="{&quot;origPos&quot;:null}" fill="#7d191d"/><path d="M174.10242,183.00695c0,-6.96377 5.64525,-12.60903 12.60903,-12.60903c6.96377,0 12.60902,5.64525 12.60902,12.60903c0,6.96377 -5.64525,12.60902 -12.60902,12.60902c-6.96377,0 -12.60903,-5.64524 -12.60903,-12.60901z" data-paper-data="{&quot;origPos&quot;:null}" fill="#000000"/></g><g data-paper-data="{&quot;origPos&quot;:null}" stroke="#000000" stroke-width="0.5" stroke-linecap="butt"><path d="M226.4508,184.73377c0,-9.20475 7.46192,-16.66667 16.66666,-16.66667c9.20475,0 16.66667,7.46192 16.66667,16.66667c0,9.20475 -7.46192,16.66666 -16.66667,16.66666c-9.20475,0 -16.66666,-7.46192 -16.66666,-16.66666z" data-paper-data="{&quot;origPos&quot;:null}" fill="#7d191d"/><path d="M231.96459,185.10971c0,-5.95194 4.825,-10.77695 10.77694,-10.77695c5.95194,0 10.77694,4.82501 10.77694,10.77695c0,5.95194 -4.825,10.77694 -10.77694,10.77694c-5.95194,0 -10.77694,-4.825 -10.77694,-10.77694z" data-paper-data="{&quot;origPos&quot;:null}" fill="#000000"/></g><g data-paper-data="{&quot;origPos&quot;:null}" stroke="#000000" stroke-width="0.5" stroke-linecap="butt"><path d="M291.32799,185.73627c0,-8.09741 6.56425,-14.66165 14.66165,-14.66165c8.0974,0 14.66166,6.56425 14.66166,14.66165c0,8.09741 -6.56425,14.66165 -14.66166,14.66165c-8.0974,0 -14.66165,-6.56425 -14.66165,-14.66165z" data-paper-data="{&quot;origPos&quot;:null}" fill="#7d191d"/><path d="M296.17845,186.06699c0,-5.23592 4.24455,-9.48047 9.48047,-9.48047c5.23591,0 9.48047,4.24455 9.48047,9.48047c0,5.23592 -4.24456,9.48047 -9.48047,9.48047c-5.23591,0 -9.48047,-4.24455 -9.48047,-9.48047z" data-paper-data="{&quot;origPos&quot;:null}" fill="#000000"/></g><g data-paper-data="{&quot;origPos&quot;:null}" stroke="#000000" stroke-width="0.5" stroke-linecap="butt"><path d="M353.71096,186.73377c0,-6.44332 5.22335,-11.66667 11.66667,-11.66667c6.44332,0 11.66666,5.22335 11.66666,11.66667c0,6.44332 -5.22334,11.66666 -11.66666,11.66666c-6.44332,0 -11.66667,-5.22334 -11.66667,-11.66666z" data-paper-data="{&quot;origPos&quot;:null}" fill="#7d191d"/><path d="M357.5706,186.99693c0,-4.16636 3.3775,-7.54387 7.54386,-7.54387c4.16636,0 7.54386,3.37751 7.54386,7.54387c0,4.16636 -3.3775,7.54385 -7.54386,7.54385c-4.16636,0 -7.54386,-3.37749 -7.54386,-7.54385z" data-paper-data="{&quot;origPos&quot;:null}" fill="#000000"/></g><g data-paper-data="{&quot;origPos&quot;:null}" stroke="#000000" stroke-width="0.5" stroke-linecap="butt"><path d="M417.12499,187.43552c0,-5.66818 4.59497,-10.26316 10.26315,-10.26316c5.66818,0 10.26316,4.59497 10.26316,10.26316c0,5.66818 -4.59498,10.26315 -10.26316,10.26315c-5.66818,0 -10.26315,-4.59497 -10.26315,-10.26315z" data-paper-data="{&quot;origPos&quot;:null}" fill="#7d191d"/><path d="M420.52032,187.66702c0,-3.66514 2.97118,-6.63633 6.63632,-6.63633c3.66514,0 6.63633,2.97119 6.63633,6.63633c0,3.66514 -2.97119,6.63633 -6.63633,6.63633c-3.66514,0 -6.63632,-2.97119 -6.63632,-6.63633z" data-paper-data="{&quot;origPos&quot;:null}" fill="#000000"/></g><g stroke="#000000" stroke-width="0.5" stroke-linecap="round"><path d="M101.08095,217.10999c3.36983,0.30062 6.03144,1.60481 9.1767,2.15802c4.01904,0.6399 8.17482,1.11955 12.2356,1.40741c4.26231,0.304 8.6333,0.23307 12.9553,0.28148c3.47851,0.03904 8.62755,-1.47195 10.6162,0.09383c2.468,1.87316 0.981,4.95068 -1.61942,6.84937c-3.82399,2.79041 -9.64669,5.37179 -16.1942,5.91107c-7.53426,0.65604 -15.8775,-0.59711 -22.4919,-2.62715c-4.70064,-1.44305 -7.23988,-4.3697 -8.99677,-7.03704c-1.31785,-1.94409 -1.0681,-4.25298 0.17346,-6.19594c0.46927,-0.73222 2.68896,-0.97805 4.14499,-0.84106z" id="ID0.3539912081323564" fill="#7d191d"/><path d="M142.07226,224.99797c0,0 -14.63704,2.67685 -23.10943,2.02198c-7.6845,-0.59397 -18.29057,-5.22198 -18.29057,-5.22198" data-paper-data="{&quot;origPos&quot;:null}" fill="none"/></g><g data-paper-data="{&quot;origPos&quot;:null}" stroke="#000000" stroke-width="0.5" stroke-linecap="round"><path d="M163.08094,221.59286c3.36983,0.15842 6.03144,0.84571 9.1767,1.13724c4.01904,0.33721 8.17482,0.58998 12.2356,0.74168c4.26231,0.1602 8.6333,0.12282 12.9553,0.14834c3.47851,0.02057 8.62755,-0.77569 10.6162,0.04945c2.468,0.98712 0.981,2.60892 -1.61942,3.6095c-3.82399,1.47049 -9.64669,2.83084 -16.1942,3.11503c-7.53426,0.34572 -15.8775,-0.31467 -22.4919,-1.38447c-4.70064,-0.76047 -7.23988,-2.30275 -8.99677,-3.70839c-1.31785,-1.0245 -1.0681,-2.24125 0.17346,-3.26516c0.46927,-0.38586 2.68896,-0.51541 4.14499,-0.44322z" id="ID0.3539912081323564" fill="#7d191d"/><path d="M204.07227,225.74969c0,0 -14.63704,1.41065 -23.10943,1.06555c-7.6845,-0.31301 -18.29057,-2.75189 -18.29057,-2.75189" data-paper-data="{&quot;origPos&quot;:null}" fill="none"/></g><g data-paper-data="{&quot;origPos&quot;:null}" stroke="#000000" stroke-width="0.5" stroke-linecap="round"><path d="M222.58095,224.08323c3.36983,0.07844 6.03144,0.41871 9.1767,0.56305c4.01904,0.16696 8.17482,0.2921 12.2356,0.3672c4.26231,0.07932 8.6333,0.06081 12.9553,0.07344c3.47851,0.01019 8.62755,-0.38405 10.6162,0.02448c2.468,0.48872 0.981,1.29168 -1.61942,1.78707c-3.82399,0.72805 -9.64669,1.40156 -16.1942,1.54226c-7.53426,0.17117 -15.8775,-0.1558 -22.4919,-0.68546c-4.70064,-0.37651 -7.23988,-1.1401 -8.99677,-1.83603c-1.31785,-0.50723 -1.0681,-1.10965 0.17346,-1.61658c0.46927,-0.19104 2.68896,-0.25518 4.14499,-0.21944z" id="ID0.3539912081323564" fill="#7d191d"/><path d="M263.57227,226.14128c0,0 -14.63704,0.69842 -23.10943,0.52756c-7.6845,-0.15497 -18.29057,-1.36247 -18.29057,-1.36247" data-paper-data="{&quot;origPos&quot;:null}" fill="none"/></g><g data-paper-data="{&quot;index&quot;:null,&quot;origPos&quot;:null}" stroke="#000000" stroke-width="0.5" stroke-linecap="round"><path d="M450.12703,234.95026c-3.36983,-0.30062 -6.03144,-1.60481 -9.1767,-2.15802c-4.01904,-0.6399 -8.17482,-1.11955 -12.2356,-1.40741c-4.26231,-0.304 -8.6333,-0.23306 -12.9553,-0.28148c-3.47851,-0.03904 -8.62755,1.47195 -10.6162,-0.09383c-2.468,-1.87316 -0.981,-4.95067 1.61942,-6.84936c3.82399,-2.79041 9.64669,-5.3718 16.1942,-5.91108c7.53426,-0.65604 15.8775,0.59711 22.4919,2.62715c4.70064,1.44305 7.23988,4.3697 8.99677,7.03704c1.31785,1.94409 1.0681,4.25298 -0.17346,6.19594c-0.46927,0.73222 -2.68896,0.97806 -4.14499,0.84107z" id="ID0.3539912081323564" fill="#7d191d"/><path d="M409.13571,227.06228c0,0 14.63705,-2.67684 23.10943,-2.02197c7.6845,0.59397 18.29057,5.22197 18.29057,5.22197" data-paper-data="{&quot;origPos&quot;:null}" fill="none"/></g><g data-paper-data="{&quot;origPos&quot;:null,&quot;index&quot;:null}" stroke="#000000" stroke-width="0.5" stroke-linecap="round"><path d="M388.12703,230.46739c-3.36983,-0.15842 -6.03144,-0.84571 -9.1767,-1.13724c-4.01904,-0.33721 -8.17482,-0.58999 -12.2356,-0.74168c-4.26231,-0.1602 -8.6333,-0.12282 -12.9553,-0.14834c-3.47851,-0.02057 -8.62755,0.77569 -10.6162,-0.04945c-2.468,-0.98712 -0.981,-2.60892 1.61942,-3.6095c3.82399,-1.47049 9.64669,-2.83084 16.1942,-3.11503c7.53426,-0.34572 15.8775,0.31467 22.4919,1.38447c4.70064,0.76047 7.23988,2.30275 8.99677,3.70839c1.31785,1.0245 1.0681,2.24125 -0.17346,3.26515c-0.46927,0.38586 -2.68896,0.51541 -4.14499,0.44322z" id="ID0.3539912081323564" fill="#7d191d"/><path d="M347.13571,226.31056c0,0 14.63705,-1.41065 23.10943,-1.06555c7.6845,0.31301 18.29057,2.75189 18.29057,2.75189" data-paper-data="{&quot;origPos&quot;:null}" fill="none"/></g><g data-paper-data="{&quot;origPos&quot;:null,&quot;index&quot;:null}" stroke="#000000" stroke-width="0.5" stroke-linecap="round"><path d="M328.62703,227.97702c-3.36983,-0.07844 -6.03144,-0.41871 -9.1767,-0.56305c-4.01904,-0.16696 -8.17482,-0.2921 -12.2356,-0.36721c-4.26231,-0.07932 -8.6333,-0.06081 -12.9553,-0.07344c-3.47851,-0.01019 -8.62755,0.38405 -10.6162,-0.02448c-2.468,-0.48872 -0.981,-1.29168 1.61942,-1.78706c3.82399,-0.72805 9.64669,-1.40156 16.1942,-1.54226c7.53426,-0.17117 15.8775,0.15579 22.4919,0.68545c4.70064,0.37651 7.23988,1.1401 8.99677,1.83603c1.31785,0.50723 1.0681,1.10965 -0.17346,1.61659c-0.46927,0.19104 -2.68896,0.25518 -4.14499,0.21944z" id="ID0.3539912081323564" fill="#7d191d"/><path d="M287.6357,225.91897c0,0 14.63705,-0.69842 23.10943,-0.52756c7.6845,0.15497 18.29057,1.36247 18.29057,1.36247" data-paper-data="{&quot;origPos&quot;:null}" fill="none"/></g><text transform="translate(22.17495,228.53293) scale(0.5,0.5)" font-size="40" xml:space="preserve" data-paper-data="{&quot;origPos&quot;:null}" fill="#7d191d" fill-rule="nonzero" stroke="none" stroke-width="1" stroke-linecap="butt" stroke-linejoin="miter" stroke-miterlimit="10" stroke-dasharray="" stroke-dashoffset="0" font-family="Sans Serif" font-weight="normal" text-anchor="start" style="mix-blend-mode: normal"><tspan x="0" dy="0">Closed:</tspan></text><text transform="translate(59.67495,282.47386) scale(0.5,0.5)" font-size="40" xml:space="preserve" data-paper-data="{&quot;origPos&quot;:null}" fill="#7d191d" fill-rule="nonzero" stroke="none" stroke-width="1" stroke-linecap="butt" stroke-linejoin="miter" stroke-miterlimit="10" stroke-dasharray="" stroke-dashoffset="0" font-family="Sans Serif" font-weight="normal" text-anchor="start" style="mix-blend-mode: normal"><tspan x="0" dy="0">L:</tspan></text><g data-paper-data="{&quot;origPos&quot;:null}" stroke="#000000" stroke-width="0.5" stroke-linecap="round"><path d="M100.08095,257.47656c3.36983,0.57652 6.03144,3.07761 9.1767,4.13851c4.01904,1.22716 8.17482,2.147 12.2356,2.69904c4.26231,0.58299 8.6333,0.44696 12.9553,0.53981c3.47851,0.07486 8.62755,-2.82282 10.6162,0.17994c2.468,3.59223 0.981,9.49411 -1.61942,13.1353c-3.82399,5.35128 -9.64669,10.3017 -16.1942,11.3359c-7.53426,1.25811 -15.8775,-1.14511 -22.4919,-5.0382c-4.70064,-2.7674 -7.23988,-8.37995 -8.99677,-13.4952c-1.31785,-3.72826 -1.0681,-8.15611 0.17346,-11.8822c0.46927,-1.40421 2.68896,-1.87565 4.14499,-1.61294z" id="ID0.3539912081323564" fill="#7d191d"/><path d="M136.78797,272.15854l-1.18758,3.3468c-1.95194,2.40825 -3.82759,5.39014 -6.72959,6.44169c-3.89596,1.41142 -8.28351,0.76581 -12.4155,0.53981c-1.74897,-0.09716 -3.57352,-0.70175 -5.21813,-1.43948c-1.45532,-0.65569 -2.71631,-1.58487 -3.77865,-2.69903c-1.30345,-1.19046 -2.4428,-2.61842 -3.23883,-4.13852c-0.48439,-0.92702 -0.66,-2.04046 -0.71975,-3.0589l-0.17994,-3.05891l3.05891,1.25955c2.8437,0.93134 5.62478,2.13907 8.6369,2.51909c5.2498,0.76581 10.6716,0.76365 16.0142,0.89968c1.42293,0.03599 3.68508,-0.16482 4.21049,-0.25191z" id="ID0.7451628390699625" fill="#000000"/><path d="M119.51398,272.62655c3.49578,0.35268 7.10673,0.09717 10.6882,0.25191c0.93999,0.04894 2.6616,-0.4081 2.87896,0.35987c0.26558,0.95654 -0.83418,2.87464 -2.05127,3.13087c-3.92835,0.82194 -8.04959,0.095 -12.0557,-0.17994c-2.93151,-0.20153 -5.94723,-0.50381 -8.81684,-1.33152c-1.1084,-0.2987 -2.20385,-0.9846 -2.87897,-1.97929c-0.56571,-0.83346 -1.15374,-2.55796 -0.46783,-2.98693c0.84929,-0.53117 2.57236,0.79603 3.88661,1.07961c2.93007,0.63338 5.84358,1.35743 8.81683,1.65541z" data-paper-data="{&quot;origPos&quot;:null}" id="ID0.0041041807271540165" fill="#ffffff"/><path d="M112.30337,278.68815c-1.12937,-2.04248 3.9402,-4.80138 6.21428,-4.5c2.27408,0.30138 7.73837,2.95447 6.5,5.5c-1.23837,2.54553 -11.58491,1.04248 -12.71428,-1z" data-paper-data="{&quot;origPos&quot;:null}" fill="#e77adf"/><path d="M117.89398,282.72957c-2.2751,-0.20321 -4.58403,-0.56586 -6.65761,-1.32884c-1.62373,-0.53652 -3.02652,-1.48442 -4.21049,-2.49157c-0.32461,-0.27684 -1.19908,-0.99551 -0.21592,-1.10736c3.88877,-0.4352 7.85957,-0.27462 11.8038,-0.13842c3.23524,0.13398 6.51295,0.37871 9.64454,1.02431c1.2725,0.26245 2.65945,0.76961 3.31081,1.66104c0.34403,0.44128 -0.4887,1.06474 -1.07961,1.32884c-1.33152,0.59355 -2.91999,0.985 -4.39043,1.10736c-2.71631,0.22591 -5.43189,0.19213 -8.20506,-0.05537z" data-paper-data="{&quot;origPos&quot;:null}" id="ID0.0041041807271540165" fill="#ffffff"/></g><g data-paper-data="{&quot;origPos&quot;:null}" stroke="#000000" stroke-width="0.5" stroke-linecap="round"><path d="M447.12703,294.76859c-3.36983,-0.60318 -6.03144,-3.21994 -9.1767,-4.3299c-4.01904,-1.28391 -8.17482,-2.24629 -12.2356,-2.82387c-4.26231,-0.60995 -8.6333,-0.46763 -12.9553,-0.56477c-3.47851,-0.07833 -8.62755,2.95336 -10.6162,-0.18827c-2.468,-3.75836 -0.981,-9.93318 1.61942,-13.74277c3.82399,-5.59876 9.64669,-10.77814 16.1942,-11.86016c7.53426,-1.31629 15.8775,1.19806 22.4919,5.27121c4.70064,2.8954 7.23988,8.76751 8.99677,14.11933c1.31785,3.90069 1.0681,8.53331 -0.17346,12.43173c-0.46927,1.46916 -2.68896,1.96238 -4.14499,1.68753z" id="ID0.3539912081323564" fill="#7d191d"/><path d="M410.42001,279.40761l1.18758,-3.50159c1.95194,-2.51963 3.82759,-5.63942 6.72959,-6.7396c3.89596,-1.4767 8.28351,-0.80122 12.4155,-0.56477c1.74897,0.10165 3.57352,0.7342 5.21813,1.50605c1.45532,0.68602 2.71631,1.65815 3.77865,2.82385c1.30345,1.24551 2.4428,2.73953 3.23883,4.32993c0.48439,0.9699 0.66,2.13482 0.71975,3.20036l0.17994,3.20038l-3.05891,-1.3178c-2.8437,-0.9744 -5.62478,-2.238 -8.6369,-2.6356c-5.2498,-0.80124 -10.6716,-0.79897 -16.0142,-0.94128c-1.42293,-0.03767 -3.68508,0.17244 -4.21049,0.26356z" id="ID0.7451628390699625" fill="#000000"/><path d="M429.314,268.34769c2.2751,0.2126 4.58403,0.59203 6.65761,1.3903c1.62373,0.56133 3.02652,1.55307 4.21049,2.6068c0.32461,0.28965 1.19908,1.04156 0.21592,1.15857c-3.88877,0.45532 -7.85957,0.28731 -11.8038,0.14482c-3.23524,-0.14018 -6.51295,-0.39623 -9.64454,-1.07168c-1.2725,-0.27459 -2.65945,-0.80519 -3.31081,-1.73784c-0.34403,-0.46169 0.4887,-1.11399 1.07961,-1.3903c1.33152,-0.62101 2.91999,-1.03055 4.39043,-1.15857c2.71631,-0.23635 5.43189,-0.20103 8.20506,0.05792z" data-paper-data="{&quot;origPos&quot;:null}" id="ID0.0041041807271540165" fill="#ffffff"/><path d="M422.14435,274.86261c-1.16217,-2.85967 4.36629,-4.73605 6.64393,-4.67895c2.27765,0.0571 7.25624,3.76573 6.07052,5.71324c-1.18572,1.94752 -11.55228,1.82537 -12.71445,-1.03429z" data-paper-data="{&quot;origPos&quot;:null,&quot;index&quot;:null,&quot;origRot&quot;:0}" fill="#e77adf"/><path d="M427.694,278.91795c-3.49578,-0.36899 -7.10673,-0.10166 -10.6882,-0.26356c-0.93999,-0.0512 -2.6616,0.42697 -2.87896,-0.37652c-0.26558,-1.00077 0.83418,-3.00759 2.05127,-3.27567c3.92835,-0.85995 8.04959,-0.09937 12.0557,0.18828c2.93151,0.21085 5.94723,0.52711 8.81684,1.3931c1.1084,0.31252 2.20385,1.03014 2.87897,2.07082c0.56571,0.872 1.15374,2.67626 0.46783,3.12507c-0.84929,0.55573 -2.57236,-0.83284 -3.88661,-1.12953c-2.93007,-0.66267 -5.84358,-1.4202 -8.81683,-1.73197z" data-paper-data="{&quot;origPos&quot;:null}" id="ID0.0041041807271540165" fill="#ffffff"/></g><g data-paper-data="{&quot;origPos&quot;:null}" id="ID0.5567619865760207" stroke="#000000" stroke-width="0.5" stroke-linecap="round"><path d="M108.08094,112.47656c3.36983,0.57652 6.03144,3.07761 9.1767,4.13851c4.01904,1.22716 8.17482,2.147 12.2356,2.69904c4.26231,0.58299 8.6333,0.44696 12.9553,0.53981c3.47851,0.07486 8.62755,-2.82282 10.6162,0.17994c2.468,3.59223 -3.019,22.16078 -5.61942,25.80197c-3.82399,5.35128 -6.31336,9.96837 -12.86087,11.00257c-7.53426,1.25811 -15.8775,-1.14511 -22.4919,-5.0382c-4.70064,-2.7674 -6.57321,-20.71328 -8.3301,-25.82853c-1.31785,-3.72826 -1.0681,-8.15611 0.17346,-11.8822c0.46927,-1.40421 2.68896,-1.87565 4.14499,-1.61294z" data-paper-data="{&quot;origPos&quot;:null}" id="ID0.3539912081323564" fill="#7d191d"/><path d="M144.78796,127.15854l-1.85425,15.3468c-1.95194,2.40825 -3.82759,5.72347 -6.72959,6.77502c-3.89596,1.41142 -8.28351,0.76581 -12.4155,0.53981c-1.74897,-0.09716 -3.57352,-0.70175 -5.21813,-1.43948c-1.45532,-0.65569 -2.71631,-1.58487 -3.77865,-2.69903c-1.30345,-1.19046 -2.10947,-6.61842 -2.9055,-8.13852c-0.48439,-0.92702 -0.32667,-10.37379 -0.38642,-11.39223l-0.17994,-3.05891l3.05891,1.25955c2.8437,0.93134 5.62478,2.13907 8.6369,2.51909c5.2498,0.76581 10.6716,0.76365 16.0142,0.89968c1.42293,0.03599 3.68508,-0.16482 4.21049,-0.25191z" data-paper-data="{&quot;origPos&quot;:null}" id="ID0.7451628390699625" fill="#000000"/><path d="M127.51397,127.62655c3.49578,0.35268 7.10673,0.09717 10.6882,0.25191c0.93999,0.04894 2.6616,-0.4081 2.87896,0.35987c0.26558,0.95654 -0.83418,2.87464 -2.05127,3.13087c-3.92835,0.82194 -8.04959,0.095 -12.0557,-0.17994c-2.93151,-0.20153 -5.94723,-0.50381 -8.81684,-1.33152c-1.1084,-0.2987 -2.20385,-0.9846 -2.87897,-1.97929c-0.56571,-0.83346 -1.15374,-2.55796 -0.46783,-2.98693c0.84929,-0.53117 2.57236,0.79603 3.88661,1.07961c2.93007,0.63338 5.84358,1.35743 8.81683,1.65541z" id="ID0.0041041807271540165" fill="#ffffff"/><path d="M125.22731,150.66755c-2.2751,-0.26415 -4.58403,-0.73557 -6.65761,-1.72738c-1.62373,-0.69743 -3.02652,-1.92963 -4.21049,-3.23884c-0.32461,-0.35987 -1.19908,-1.29409 -0.21592,-1.43948c3.88877,-0.56572 7.85957,-0.35699 11.8038,-0.17994c3.23524,0.17417 6.51295,0.4923 9.64454,1.33152c1.2725,0.34116 2.65945,1.00044 3.31081,2.15922c0.34403,0.57363 -0.4887,1.38407 -1.07961,1.72738c-1.33152,0.77157 -2.91999,1.28042 -4.39043,1.43948c-2.71631,0.29366 -5.43189,0.24975 -8.20506,-0.07198z" data-paper-data="{&quot;origPos&quot;:null}" id="ID0.0041041807271540165" fill="#ffffff"/></g><g data-paper-data="{&quot;origPos&quot;:null,&quot;index&quot;:null}" id="ID0.5567619865760207" stroke="#000000" stroke-width="0.5" stroke-linecap="round"><path d="M411.08091,160.77184c-1.45603,0.26271 -3.67572,-0.20873 -4.14499,-1.61294c-1.24156,-3.72609 -1.49131,-8.15394 -0.17346,-11.8822c1.75689,-5.11525 3.62947,-23.06114 8.33011,-25.82854c6.6144,-3.89309 14.95764,-6.29631 22.4919,-5.0382c6.54751,1.0342 9.03687,5.65129 12.86086,11.00257c2.60042,3.64119 8.08742,22.20973 5.61942,25.80196c-1.98865,3.00276 -7.13769,0.10508 -10.6162,0.17994c-4.322,0.09285 -8.69299,-0.04318 -12.9553,0.53981c-4.06078,0.55204 -8.21656,1.47188 -12.2356,2.69904c-3.14526,1.0609 -5.80687,3.56199 -9.1767,4.13851z" data-paper-data="{&quot;origPos&quot;:null}" id="ID0.3539912081323564" fill="#7d191d"/><path d="M446.2405,145.72995c-0.52541,-0.08709 -2.78756,-0.2879 -4.21049,-0.25191c-5.3426,0.13603 -10.7644,0.13387 -16.0142,0.89968c-3.01212,0.38002 -5.7932,1.58775 -8.6369,2.51909l-3.05891,1.25955l0.17994,-3.05891c0.05975,-1.01844 -0.09797,-10.46522 0.38641,-11.39223c0.79603,-1.5201 1.60205,-6.94806 2.9055,-8.13852c1.06234,-1.11416 2.32333,-2.04334 3.77865,-2.69903c1.64461,-0.73773 3.46916,-1.34232 5.21813,-1.43948c4.13199,-0.226 8.51954,-0.87161 12.4155,0.53981c2.902,1.05155 4.77765,4.36677 6.72959,6.77502l1.85424,15.3468z" data-paper-data="{&quot;origPos&quot;:null}" id="ID0.7451628390699625" fill="#000000"/><path d="M430.51397,145.62182c-2.97325,0.29798 -5.88676,1.02203 -8.81683,1.65541c-1.31425,0.28358 -3.03732,1.61078 -3.88661,1.07961c-0.68591,-0.42897 -0.09788,-2.15347 0.46783,-2.98693c0.67512,-0.99469 1.77057,-1.68059 2.87897,-1.97929c2.86961,-0.82771 5.88533,-1.12999 8.81684,-1.33152c4.00611,-0.27494 8.12735,-1.00188 12.0557,-0.17994c1.21709,0.25623 2.31685,2.17433 2.05127,3.13087c-0.21736,0.76797 -1.93897,0.31093 -2.87896,0.35987c-3.58147,0.15474 -7.19242,-0.10077 -10.6882,0.25191z" id="ID0.0041041807271540165" fill="#ffffff"/><path d="M428.22734,122.58083c2.77317,-0.32173 5.48875,-0.36564 8.20506,-0.07198c1.47044,0.15906 3.05891,0.66791 4.39043,1.43948c0.59091,0.34331 1.42364,1.15375 1.07961,1.72738c-0.65136,1.15878 -2.03831,1.81806 -3.31081,2.15922c-3.13159,0.83922 -6.4093,1.15735 -9.64454,1.33152c-3.94423,0.17705 -7.91503,0.38578 -11.8038,-0.17994c-0.98316,-0.14539 -0.10869,-1.07961 0.21592,-1.43948c1.18397,-1.30921 2.58676,-2.54141 4.21049,-3.23884c2.07358,-0.99181 4.38251,-1.46323 6.65761,-1.72738z" data-paper-data="{&quot;origPos&quot;:null}" id="ID0.0041041807271540165" fill="#ffffff"/></g></g></g></svg>