<svg version="1.1" xmlns="http://www.w3.org/2000/svg" xmlns:xlink="http://www.w3.org/1999/xlink" width="371.83165" height="365.06405" viewBox="0,0,371.83165,365.06405"><defs><linearGradient x1="233.8602" y1="161.53445" x2="244.99506" y2="104.87521" gradientUnits="userSpaceOnUse" id="color-1"><stop offset="0" stop-color="#e62728"/><stop offset="1" stop-color="#eb5544"/></linearGradient><linearGradient x1="300.62916" y1="93.18045" x2="284.42918" y2="169.78459" gradientUnits="userSpaceOnUse" id="color-2"><stop offset="0" stop-color="#d166d1"/><stop offset="1" stop-color="#b149bf"/></linearGradient><linearGradient x1="186.565" y1="85.44224" x2="186.565" y2="153.13464" gradientUnits="userSpaceOnUse" id="color-3"><stop offset="0" stop-color="#7db9e1"/><stop offset="1" stop-color="#50aede"/></linearGradient><linearGradient x1="206.55839" y1="165.66041" x2="206.10074" y2="211.73205" gradientTransform="translate(-196.6375,-198.48297) rotate(-0.56931) scale(1.00163,1.00163)" gradientUnits="userSpaceOnUse" id="color-4"><stop offset="0" stop-color="#ffffff"/><stop offset="1" stop-color="#e9e9e9"/></linearGradient><linearGradient x1="269.55833" y1="170.66098" x2="269.10069" y2="216.73272" gradientTransform="translate(-259.78705,-202.86388) rotate(-0.56931) scale(1.00163,1.00163)" gradientUnits="userSpaceOnUse" id="color-5"><stop offset="0" stop-color="#ffffff"/><stop offset="1" stop-color="#e9e9e9"/></linearGradient><linearGradient x1="335.68279" y1="217.31764" x2="322.04849" y2="260.31474" gradientUnits="userSpaceOnUse" id="color-6"><stop offset="0" stop-color="#3d1016"/><stop offset="1" stop-color="#27191a"/></linearGradient><linearGradient x1="463.72629" y1="221.28494" x2="473.64759" y2="265.28743" gradientUnits="userSpaceOnUse" id="color-7"><stop offset="0" stop-color="#3d1016"/><stop offset="1" stop-color="#27191a"/></linearGradient><linearGradient x1="403.93099" y1="417.27554" x2="404.01809" y2="449.93684" gradientUnits="userSpaceOnUse" id="color-8"><stop offset="0" stop-color="#3d1016"/><stop offset="1" stop-color="#27191a"/></linearGradient><linearGradient x1="390.98899" y1="417.42554" x2="390.90189" y2="450.08684" gradientUnits="userSpaceOnUse" id="color-9"><stop offset="0" stop-color="#3d1016"/><stop offset="1" stop-color="#27191a"/></linearGradient></defs><g transform="translate(-163.80839,-85.44225)"><g data-paper-data="{&quot;isPaintingLayer&quot;:true}" fill-rule="nonzero" stroke-linejoin="miter" stroke-miterlimit="10" stroke-dasharray="" stroke-dashoffset="0" style="mix-blend-mode: normal"><path d="M258.98068,158.65789l-14.90562,-0.21163l-0.63931,-34.77598c0,0 0.49928,-5.84409 -5.31457,-5.80037c-6.79555,0.0511 -6.45451,5.18601 -6.45451,5.18601l-0.79756,35.17302l-13.92439,-0.01879l0.20767,-35.62866c0,0 0.42917,-19.09252 21.31465,-18.57169c20.83573,0.51959 20.66271,21.04617 20.66271,21.04617z" data-paper-data="{&quot;origPos&quot;:null,&quot;index&quot;:null,&quot;origRot&quot;:0}" fill="url(#color-1)" stroke="#000000" stroke-width="0" stroke-linecap="round"/><path d="M314.19171,96.04861c0,0 -1.80089,35.18935 -2.5871,50.89942c-0.34632,6.92027 0.00408,23.76363 -22.68252,23.48174c-20.51521,-1.56282 -20.25796,-18.59372 -20.25796,-18.59372l0.89552,-21.95648c0,0 2.57542,-15.14332 15.60249,-15.77994c5.21189,-0.25471 12.83792,3.73704 12.83792,3.73704l1.03345,-22.60873zM289.91222,157.69234c8.58902,0.1374 7.68792,-15.40946 7.68792,-15.40946c0,0 2.23907,-14.97437 -6.30374,-15.30202c-8.09566,-0.3105 -7.87609,14.68826 -7.87609,14.68826c0,0 -3.33929,15.86597 6.49192,16.02323z" data-paper-data="{&quot;origPos&quot;:null,&quot;index&quot;:null,&quot;origRot&quot;:0}" fill="url(#color-2)" stroke="#000000" stroke-width="0" stroke-linecap="round"/><path d="M163.80839,153.13464v-67.69239h45.51321v10.83078h-33.18672v16.80639h31.37654v10.83078h-31.37654v18.39366h33.18672v10.83078z" data-paper-data="{&quot;origPos&quot;:null}" fill="url(#color-3)" stroke="none" stroke-width="0.48994" stroke-linecap="butt"/><g data-paper-data="{&quot;origPos&quot;:null}" stroke-linecap="butt"><g data-paper-data="{&quot;origPos&quot;:null,&quot;origRot&quot;:0}" fill="#365799" stroke="#1d3972" stroke-width="1.5"><path d="M190.03548,198.22727c0.16538,-9.24821 0.25839,-14.44922 0.42376,-23.69743c0.08476,-4.73972 0.06809,-9.6979 1.40617,-10.85774c1.34747,-1.68503 6.51727,-1.14938 11.44964,-1.06118c9.13263,0.16331 14.26857,0.25516 23.4012,0.41846c4.8168,0.08614 8.76911,-0.3381 10.81197,1.45926c1.85839,2.3194 1.40127,5.98605 1.31859,10.61016c-0.16331,9.13263 -0.25515,14.26858 -0.41846,23.40121c-0.08475,4.73972 0.03789,9.57152 -1.28814,11.03497c-1.20308,1.32777 -6.27405,0.97862 -10.97523,0.89455c0,0 -14.62983,-0.26161 -23.99366,-0.42905c-4.8168,-0.08614 -9.6302,0.65837 -11.16833,-1.11541c-1.68241,-1.94016 -1.04815,-6.14927 -0.96752,-10.65779z" data-paper-data="{&quot;origPos&quot;:null}"/></g><text transform="translate(194.3382,200.10016) rotate(0.56931) scale(0.99837,0.99837)" font-size="40" xml:space="preserve" data-paper-data="{&quot;origPos&quot;:null,&quot;origRot&quot;:-5.43838}" fill="url(#color-4)" fill-rule="nonzero" stroke="none" stroke-width="1" stroke-linecap="butt" stroke-linejoin="miter" stroke-miterlimit="10" stroke-dasharray="" stroke-dashoffset="0" font-family="Sans Serif" font-weight="normal" text-anchor="start" style="mix-blend-mode: normal"><tspan x="0" dy="0">M</tspan></text></g><g data-paper-data="{&quot;origPos&quot;:null,&quot;origRot&quot;:0}" stroke-linecap="butt"><g data-paper-data="{&quot;origPos&quot;:null,&quot;origRot&quot;:0}" fill="#365799" stroke="#1d3972" stroke-width="1.5"><path d="M244.03548,201.22727c0.16538,-9.24822 0.25839,-14.44922 0.42376,-23.69743c0.08476,-4.73973 0.06809,-9.6979 1.40617,-10.85774c1.34747,-1.68503 6.51727,-1.14938 11.44964,-1.06118c9.13263,0.16331 14.26857,0.25516 23.4012,0.41846c4.8168,0.08613 8.76911,-0.3381 10.81197,1.45926c1.85839,2.3194 1.40127,5.98605 1.31859,10.61016c-0.16331,9.13263 -0.25515,14.26858 -0.41846,23.40121c-0.08475,4.73972 0.03789,9.57152 -1.28814,11.03497c-1.20308,1.32777 -6.27405,0.97862 -10.97523,0.89455c0,0 -14.62983,-0.26161 -23.99366,-0.42905c-4.8168,-0.08614 -9.6302,0.65837 -11.16833,-1.11541c-1.68241,-1.94016 -1.04815,-6.14927 -0.96752,-10.65779z" data-paper-data="{&quot;origPos&quot;:null}"/></g><text transform="translate(257.3382,205.10016) rotate(0.56931) scale(0.99837,0.99837)" font-size="40" xml:space="preserve" data-paper-data="{&quot;origPos&quot;:null,&quot;origRot&quot;:-5.43838}" fill="url(#color-5)" fill-rule="nonzero" stroke="none" stroke-width="1" stroke-linecap="butt" stroke-linejoin="miter" stroke-miterlimit="10" stroke-dasharray="" stroke-dashoffset="0" font-family="Sans Serif" font-weight="normal" text-anchor="start" style="mix-blend-mode: normal"><tspan x="0" dy="0">E</tspan></text></g><g data-paper-data="{&quot;origPos&quot;:null}"><path d="M345.30979,220.93264c0.9186,3.5137 -1.0597,7.1672 -1.6689,10.7213c-1.1224,4.8473 -2.2014,9.7041 -3.5283,14.4947c-1.1468,4.139 -2.21,8.4909 -4.2986,12.1624c-1.12,1.9529 -2.8949,4.375 -5.4006,4.4892c-2.0472,0.092 -3.8082,-2.3444 -4.559,-4.0946c-1.1162,-2.6096 -1.647,-5.8203 -0.5965,-8.4478c3.9894,-9.91 9.2736,-19.3901 15.4301,-28.4534c1.5389,-2.2657 4.269,-2.2234 4.6218,-0.8718z" fill="url(#color-6)" stroke="#000000" stroke-width="1.30068" stroke-linecap="butt"/><g stroke="#df141d" stroke-width="2" stroke-linecap="round"><path d="M317.22209,247.96604l31.7923,6.8603l-4.7286,16.0278l10.7814,20.1591l-6.5073,3.2353l-7.9286,-14.5757l-2.254,1.7449l3.612,18.5275l-6.9458,1.5227l-3.8032,-18.9894l-1.2506,0.2472l-6.0335,23.3326l-6.2455,-2.0141l5.1331,-24.8539l-2.6688,-1.8714l-11.2123,17.3593l-6.4927,-3.2647l13.1235,-20.5857l-0.0015,-7.8462l-14.1534,8.2949l-5.0994,-7.0884l19.8163,-12.263z" fill="#ffffff"/><path d="M325.46999,265.92703l0.7635,-5.9983l3.7606,3.8547l5.5039,-1.7376l-1.7993,4.8036l2.4305,5.2171l-5.2494,-0.2619l-3.3368,4.3579l-1.2756,-5.6952l-5.5525,-2.3011l4.5241,-2.1436z" fill="#df141d"/><path d="M317.35749,247.63944l32.4455,7.131l-3.0573,8.3008l-4.3343,-5.2406l-14.586,-4.5137l-11.8053,-1.0652z" fill="#7d191d"/></g></g><g data-paper-data="{&quot;origPos&quot;:null}"><path d="M458.35699,225.32904c5.362,9.5549 9.8192,19.4508 12.9497,29.6646c0.8228,2.7075 0.0204,5.8612 -1.314,8.3663c-0.8973,1.6798 -2.8594,3.9573 -4.8913,3.6913c-2.4869,-0.3273 -4.0489,-2.8918 -4.9986,-4.9331c-1.7681,-3.836 -2.4567,-8.2627 -3.2467,-12.4844c-0.9138,-4.8862 -1.5751,-9.8173 -2.2805,-14.7426c-0.3041,-3.593 -1.9639,-7.4018 -0.7493,-10.8245c0.4667,-1.3166 3.1904,-1.1262 4.5307,1.2624z" fill="url(#color-7)" stroke="#000000" stroke-width="1.30068" stroke-linecap="butt"/><g stroke="#df141d" stroke-width="2" stroke-linecap="round"><path d="M480.22369,257.42234l18.6994,13.9068l-5.6848,6.6282l-13.3952,-9.4707l-0.67,7.8175l11.3218,21.6291l-6.7472,2.6996l-9.6925,-18.2515l-2.8186,1.6372l2.9969,25.2008l-6.3944,1.4747l-4.0236,-23.7618l-1.2249,-0.3528l-5.4074,18.5963l-6.7908,-2.109l5.1775,-18.1523l-2.0971,-1.9306l-9.1417,13.8471l-6.208,-3.778l12.4598,-19.1671l-3.3458,-16.3724l32.2612,-4.1267z" fill="#ffffff"/><path d="M469.97209,270.69464l4.325,2.5213l-5.7284,1.8196l-1.7562,5.5658l-2.9533,-4.6263l-5.2527,-0.1863l2.8662,-4.991l-1.3835,-4.9395l5.3359,2.2002l4.0753,-3.5203l0.2497,6.0416z" fill="#df141d"/><path d="M480.33079,257.75934l-11.8532,0.0555l-14.9175,3.2545l-4.7651,4.8523l-2.3388,-8.5311l32.9351,-4.3407z" fill="#7d191d"/></g></g><path d="M409.33339,417.47774c2.6152,3.8201 2.9178,8.4772 3.978,12.7051c1.0878,4.3395 2.2931,8.7451 2.4063,13.1663c0.044,1.7308 -0.9494,3.545 -2.1455,4.8734c-0.8605,0.9548 -2.2723,1.6949 -3.7297,1.6988c-1.4575,0.0038 -2.9037,-0.7171 -3.7388,-1.6789c-1.2429,-1.4347 -2.0694,-3.4106 -2.102,-5.2595c-0.0716,-3.952 1.1728,-7.9719 1.5644,-12.0046c0.464,-3.4742 0.0505,-7.1082 1.0049,-10.5329c0.327,-1.1691 2.0333,-3.979 2.7624,-2.9677z" data-paper-data="{&quot;origPos&quot;:null}" fill="url(#color-8)" stroke="#000000" stroke-width="0.8699" stroke-linecap="butt"/><path d="M388.34899,420.59544c0.9544,3.4247 0.5409,7.0587 1.0049,10.5329c0.3916,4.0327 1.636,8.0526 1.5644,12.0046c-0.0326,1.8489 -0.8591,3.8248 -2.102,5.2595c-0.8351,0.9618 -2.2813,1.6827 -3.7388,1.6789c-1.4574,-0.0039 -2.8692,-0.744 -3.7297,-1.6988c-1.1961,-1.3284 -2.1895,-3.1426 -2.1455,-4.8734c0.1132,-4.4212 1.3185,-8.8268 2.4063,-13.1663c1.0602,-4.2279 1.3628,-8.885 3.978,-12.7051c0.7291,-1.0113 2.4354,1.7986 2.7624,2.9677z" data-paper-data="{&quot;origPos&quot;:null}" fill="url(#color-9)" stroke="#000000" stroke-width="0.8699" stroke-linecap="butt"/><path d="M397.38699,373.41954c0.1363,-0.5813 0.4271,-1.2421 0.894,-1.4901c0.7411,-0.3874 1.5219,-0.3759 2.4836,-0.3973c3.5707,-0.1101 7.1303,0.091 10.7288,0.0993c9.1962,0.0219 18.363,-0.1029 27.6168,-0.0993c4.4334,0.0015 8.8915,-0.0974 13.3117,0.1986c1.1107,0.0763 1.6292,0.2679 2.0862,0.8941c0.639,0.9449 0.7844,2.1966 0.8941,3.3776c0.209,2.3743 -0.0267,3.7126 0,7.1526c0.1041,13.7615 0.1343,27.4241 0.1987,41.3259c0.0158,3.4753 0.0397,1.9868 -0.0994,2.9802c-0.0795,0.457 -0.1764,1.0375 -0.5563,1.3312c-0.6783,0.5189 -1.14,0.8166 -2.5233,0.8543c-5.4391,0.306 -10.933,0.0723 -16.3912,0.0994c-8.5815,0.0421 -17.0621,0.145 -25.5307,0.0993c-3.9645,-0.0203 -7.9588,-0.0409 -11.8017,-0.298c-0.9613,-0.0644 -0.9736,-0.2186 -1.3312,-0.5563c-0.3378,-0.3577 -0.4768,-0.8742 -0.5563,-1.3312c-0.1391,-0.9934 -0.1248,0.9394 -0.0994,-2.9802c0.1018,-15.6793 0.2528,-31.5408 0.4769,-47.2864c0.056,-3.9363 -0.0382,-2.6906 0.1987,-3.9737z" data-paper-data="{&quot;origPos&quot;:null}" fill="#ffffff" stroke="#df141d" stroke-width="0.79473" stroke-linecap="round"/><path d="M339.13699,373.56953c0.1363,-0.5813 0.4271,-1.2421 0.894,-1.4901c0.7411,-0.3874 1.5219,-0.3759 2.4836,-0.3973c3.5707,-0.1101 7.1303,0.091 10.7288,0.0993c9.1962,0.0219 18.363,-0.1029 27.6168,-0.0993c4.4334,0.0015 8.8915,-0.0974 13.3117,0.1986c1.1107,0.0763 1.6292,0.2679 2.0862,0.8941c0.639,0.9449 0.7844,2.1966 0.8941,3.3776c0.209,2.3743 -0.0267,3.7126 0,7.1526c0.1041,13.7615 0.1343,27.4241 0.1987,41.3259c0.0158,3.4753 0.0397,1.9868 -0.0994,2.9802c-0.0795,0.457 -0.1764,1.0375 -0.5563,1.3312c-0.6783,0.5189 -1.14,0.8166 -2.5233,0.8543c-5.4391,0.306 -10.933,0.0723 -16.3912,0.0994c-8.5815,0.0421 -17.0621,0.145 -25.5307,0.0993c-3.9645,-0.0203 -7.9588,-0.0409 -11.8017,-0.298c-0.9613,-0.0644 -0.9736,-0.2186 -1.3312,-0.5563c-0.3378,-0.3577 -0.4768,-0.8742 -0.5563,-1.3312c-0.1391,-0.9934 -0.1248,0.9394 -0.0994,-2.9802c0.1018,-15.6793 0.2528,-31.5408 0.4769,-47.2864c0.056,-3.9363 -0.0382,-2.6906 0.1987,-3.9737z" data-paper-data="{&quot;origPos&quot;:null}" fill="#ffffff" stroke="#df141d" stroke-width="0.79473" stroke-linecap="round"/><path d="M397.88699,315.91954c0.1363,-0.5813 0.4271,-1.2421 0.894,-1.4901c0.7411,-0.3874 1.5219,-0.3759 2.4836,-0.3973c3.5707,-0.1101 7.1303,0.091 10.7288,0.0993c9.1962,0.0219 18.363,-0.1029 27.6168,-0.0993c4.4334,0.0015 8.8915,-0.0974 13.3117,0.1986c1.1107,0.0763 1.6292,0.2679 2.0862,0.8941c0.639,0.9449 0.7844,2.1966 0.8941,3.3776c0.209,2.3743 -0.0267,3.7126 0,7.1526c0.1041,13.7615 0.1343,27.4241 0.1987,41.3259c0.0158,3.4753 0.0397,1.9868 -0.0994,2.9802c-0.0795,0.457 -0.1764,1.0375 -0.5563,1.3312c-0.6783,0.5189 -1.14,0.8166 -2.5233,0.8543c-5.4391,0.306 -10.933,0.0723 -16.3912,0.0994c-8.5815,0.0421 -17.0621,0.145 -25.5307,0.0993c-3.9645,-0.0203 -7.9588,-0.0409 -11.8017,-0.298c-0.9613,-0.0644 -0.9736,-0.2186 -1.3312,-0.5563c-0.3378,-0.3577 -0.4768,-0.8742 -0.5563,-1.3312c-0.1391,-0.9934 -0.1248,0.9394 -0.0994,-2.9802c0.1018,-15.6793 0.2528,-31.5408 0.4769,-47.2864c0.056,-3.9363 -0.0382,-2.6906 0.1987,-3.9737z" data-paper-data="{&quot;origPos&quot;:null}" fill="#ffffff" stroke="#df141d" stroke-width="0.79473" stroke-linecap="round"/><path d="M339.88699,315.81954c0.1363,-0.5813 0.4271,-1.2421 0.894,-1.4901c0.7411,-0.3874 1.5219,-0.3759 2.4836,-0.3973c3.5707,-0.1101 7.1303,0.091 10.7288,0.0993c9.1962,0.0219 18.363,-0.1029 27.6168,-0.0993c4.4334,0.0015 8.8915,-0.0974 13.3117,0.1986c1.1107,0.0763 1.6292,0.2679 2.0862,0.8941c0.639,0.9449 0.7844,2.1966 0.8941,3.3776c0.209,2.3743 -0.0267,3.7126 0,7.1526c0.1041,13.7615 0.1343,27.4241 0.1987,41.3259c0.0158,3.4753 0.0397,1.9868 -0.0994,2.9802c-0.0795,0.457 -0.1764,1.0375 -0.5563,1.3312c-0.6783,0.5189 -1.14,0.8166 -2.5233,0.8543c-5.4391,0.306 -10.933,0.0723 -16.3912,0.0994c-8.5815,0.0421 -17.0621,0.145 -25.5307,0.0993c-3.9645,-0.0203 -7.9588,-0.0409 -11.8017,-0.298c-0.9613,-0.0644 -0.9736,-0.2186 -1.3312,-0.5563c-0.3378,-0.3577 -0.4768,-0.8742 -0.5563,-1.3312c-0.1391,-0.9934 -0.1248,0.9394 -0.0994,-2.9802c0.1018,-15.6793 0.2528,-31.5408 0.4769,-47.2864c0.056,-3.9363 -0.0382,-2.6906 0.1987,-3.9737z" data-paper-data="{&quot;origPos&quot;:null}" fill="#ffffff" stroke="#df141d" stroke-width="0.79473" stroke-linecap="round"/><path d="M397.78699,260.31954c0.1363,-0.5813 0.4271,-1.2421 0.894,-1.4901c0.7411,-0.3874 1.5219,-0.3759 2.4836,-0.3973c3.5707,-0.1101 7.1303,0.091 10.7288,0.0993c9.1962,0.0219 18.363,-0.1029 27.6168,-0.0993c4.4334,0.0015 8.8915,-0.0974 13.3117,0.1986c1.1107,0.0763 1.6292,0.2679 2.0862,0.8941c0.639,0.9449 0.7844,2.1966 0.8941,3.3776c0.209,2.3743 -0.0267,3.7126 0,7.1526c0.1041,13.7615 0.1343,27.4241 0.1987,41.3259c0.0158,3.4753 0.0397,1.9868 -0.0994,2.9802c-0.0795,0.457 -0.1764,1.0375 -0.5563,1.3312c-0.6783,0.5189 -1.14,0.8166 -2.5233,0.8543c-5.4391,0.306 -10.933,0.0723 -16.3912,0.0994c-8.5815,0.0421 -17.0621,0.145 -25.5307,0.0993c-3.9645,-0.0203 -7.9588,-0.0409 -11.8017,-0.298c-0.9613,-0.0644 -0.9736,-0.2186 -1.3312,-0.5563c-0.3378,-0.3577 -0.4768,-0.8742 -0.5563,-1.3312c-0.1391,-0.9934 -0.1248,0.9394 -0.0994,-2.9802c0.1018,-15.6793 0.2528,-31.5408 0.4769,-47.2864c0.056,-3.9363 -0.0382,-2.6906 0.1987,-3.9737z" data-paper-data="{&quot;origPos&quot;:null}" fill="#ffffff" stroke="#df141d" stroke-width="0.79473" stroke-linecap="round"/><path d="M340.38699,259.81954c0.1363,-0.5813 0.4271,-1.2421 0.894,-1.4901c0.7411,-0.3874 1.5219,-0.3759 2.4836,-0.3973c3.5707,-0.1101 7.1303,0.091 10.7288,0.0993c9.1962,0.0219 18.363,-0.1029 27.6168,-0.0993c4.4334,0.0015 8.8915,-0.0974 13.3117,0.1986c1.1107,0.0763 1.6292,0.2679 2.0862,0.8941c0.639,0.9449 0.7844,2.1966 0.8941,3.3776c0.209,2.3743 -0.0267,3.7126 0,7.1526c0.1041,13.7615 0.1343,27.4241 0.1987,41.3259c0.0158,3.4753 0.0397,1.9868 -0.0994,2.9802c-0.0795,0.457 -0.1764,1.0375 -0.5563,1.3312c-0.6783,0.5189 -1.14,0.8166 -2.5233,0.8543c-5.4391,0.306 -10.933,0.0723 -16.3912,0.0994c-8.5815,0.0421 -17.0621,0.145 -25.5307,0.0993c-3.9645,-0.0203 -7.9588,-0.0409 -11.8017,-0.298c-0.9613,-0.0644 -0.9736,-0.2186 -1.3312,-0.5563c-0.3378,-0.3577 -0.4768,-0.8742 -0.5563,-1.3312c-0.1391,-0.9934 -0.1248,0.9394 -0.0994,-2.9802c0.1018,-15.6793 0.2528,-31.5408 0.4769,-47.2864c0.056,-3.9363 -0.0382,-2.6906 0.1987,-3.9737z" data-paper-data="{&quot;origPos&quot;:null}" fill="#ffffff" stroke="#df141d" stroke-width="0.79473" stroke-linecap="round"/><path d="M340.13699,202.71954c0.1363,-0.5813 0.4271,-1.2421 0.894,-1.4901c0.7411,-0.3874 1.5219,-0.3759 2.4836,-0.3973c3.5707,-0.1101 7.1303,0.091 10.7288,0.0993c9.1962,0.0219 18.363,-0.1029 27.6168,-0.0993c4.4334,0.0015 8.8915,-0.0974 13.3117,0.1986c1.1107,0.0763 1.6292,0.2679 2.0862,0.8941c0.639,0.9449 0.7844,2.1966 0.8941,3.3776c0.209,2.3743 -0.0267,3.7126 0,7.1526c0.1041,13.7615 0.1343,27.4241 0.1987,41.3259c0.0158,3.4753 0.0397,1.9868 -0.0994,2.9802c-0.0795,0.457 -0.1764,1.0375 -0.5563,1.3312c-0.6783,0.5189 -1.14,0.8166 -2.5233,0.8543c-5.4391,0.306 -10.933,0.0723 -16.3912,0.0994c-8.5815,0.0421 -17.0621,0.145 -25.5307,0.0993c-3.9645,-0.0203 -7.9588,-0.0409 -11.8017,-0.298c-0.9613,-0.0644 -0.9736,-0.2186 -1.3312,-0.5563c-0.3378,-0.3577 -0.4768,-0.8742 -0.5563,-1.3312c-0.1391,-0.9934 -0.1248,0.9394 -0.0994,-2.9802c0.1018,-15.6793 0.2528,-31.5408 0.4769,-47.2864c0.056,-3.9363 -0.0382,-2.6906 0.1987,-3.9737z" data-paper-data="{&quot;origPos&quot;:null}" fill="#ffffff" stroke="#df141d" stroke-width="0.79473" stroke-linecap="round"/><path d="M398.68699,202.71954c0.1363,-0.5813 0.4271,-1.2421 0.894,-1.4901c0.7411,-0.3874 1.5219,-0.3759 2.4836,-0.3973c3.5707,-0.1101 7.1303,0.091 10.7288,0.0993c9.1962,0.0219 18.363,-0.1029 27.6168,-0.0993c4.4334,0.0015 8.8915,-0.0974 13.3117,0.1986c1.1107,0.0763 1.6292,0.2679 2.0862,0.8941c0.639,0.9449 0.7844,2.1966 0.8941,3.3776c0.209,2.3743 -0.0267,3.7126 0,7.1526c0.1041,13.7615 0.1343,27.4241 0.1987,41.3259c0.0158,3.4753 0.0397,1.9868 -0.0994,2.9802c-0.0795,0.457 -0.1764,1.0375 -0.5563,1.3312c-0.6783,0.5189 -1.14,0.8166 -2.5233,0.8543c-5.4391,0.306 -10.933,0.0723 -16.3912,0.0994c-8.5815,0.0421 -17.0621,0.145 -25.5307,0.0993c-3.9645,-0.0203 -7.9588,-0.0409 -11.8017,-0.298c-0.9613,-0.0644 -0.9736,-0.2186 -1.3312,-0.5563c-0.3378,-0.3577 -0.4768,-0.8742 -0.5563,-1.3312c-0.1391,-0.9934 -0.1248,0.9394 -0.0994,-2.9802c0.1018,-15.6793 0.2528,-31.5408 0.4769,-47.2864c0.056,-3.9363 -0.0382,-2.6906 0.1987,-3.9737z" data-paper-data="{&quot;origPos&quot;:null}" fill="#ffffff" stroke="#df141d" stroke-width="0.79473" stroke-linecap="round"/><path d="M398.03699,143.51954c0.1363,-0.5813 0.4271,-1.2421 0.894,-1.4901c0.7411,-0.3874 1.5219,-0.3759 2.4836,-0.3973c3.5707,-0.1101 7.1303,0.091 10.7288,0.0993c9.1962,0.0219 18.363,-0.1029 27.6168,-0.0993c4.4334,0.0015 8.8915,-0.0974 13.3117,0.1986c1.1107,0.0763 1.6292,0.2679 2.0862,0.8941c0.639,0.9449 0.7844,2.1966 0.8941,3.3776c0.209,2.3743 -0.0267,3.7126 0,7.1526c0.1041,13.7615 0.1343,27.4241 0.1987,41.3259c0.0158,3.4753 0.0397,1.9868 -0.0994,2.9802c-0.0795,0.457 -0.1764,1.0375 -0.5563,1.3312c-0.6783,0.5189 -1.14,0.8166 -2.5233,0.8543c-5.4391,0.306 -10.933,0.0723 -16.3912,0.0994c-8.5815,0.0421 -17.0621,0.145 -25.5307,0.0993c-3.9645,-0.0203 -7.9588,-0.0409 -11.8017,-0.298c-0.9613,-0.0644 -0.9736,-0.2186 -1.3312,-0.5563c-0.3378,-0.3577 -0.4768,-0.8742 -0.5563,-1.3312c-0.1391,-0.9934 -0.1248,0.9394 -0.0994,-2.9802c0.1018,-15.6793 0.2528,-31.5408 0.4769,-47.2864c0.056,-3.9363 -0.0382,-2.6906 0.1987,-3.9737z" data-paper-data="{&quot;origPos&quot;:null}" fill="#ffffff" stroke="#df141d" stroke-width="0.79473" stroke-linecap="round"/><path d="M340.13699,144.21954c0.1363,-0.5813 0.4271,-1.2421 0.894,-1.4901c0.7411,-0.3874 1.5219,-0.3759 2.4836,-0.3973c3.5707,-0.1101 7.1303,0.091 10.7288,0.0993c9.1962,0.0219 18.363,-0.1029 27.6168,-0.0993c4.4334,0.0015 8.8915,-0.0974 13.3117,0.1986c1.1107,0.0763 1.6292,0.2679 2.0862,0.8941c0.639,0.9449 0.7844,2.1966 0.8941,3.3776c0.209,2.3743 -0.0267,3.7126 0,7.1526c0.1041,13.7615 0.1343,27.4241 0.1987,41.3259c0.0158,3.4753 0.0397,1.9868 -0.0994,2.9802c-0.0795,0.457 -0.1764,1.0375 -0.5563,1.3312c-0.6783,0.5189 -1.14,0.8166 -2.5233,0.8543c-5.4391,0.306 -10.933,0.0723 -16.3912,0.0994c-8.5815,0.0421 -17.0621,0.145 -25.5307,0.0993c-3.9645,-0.0203 -7.9588,-0.0409 -11.8017,-0.298c-0.9613,-0.0644 -0.9736,-0.2186 -1.3312,-0.5563c-0.3378,-0.3577 -0.4768,-0.8742 -0.5563,-1.3312c-0.1391,-0.9934 -0.1248,0.9394 -0.0994,-2.9802c0.1018,-15.6793 0.2528,-31.5408 0.4769,-47.2864c0.056,-3.9363 -0.0382,-2.6906 0.1987,-3.9737z" data-paper-data="{&quot;origPos&quot;:null}" fill="#ffffff" stroke="#df141d" stroke-width="0.79473" stroke-linecap="round"/><path d="M338.33499,140.36413h118v289h-118z" data-paper-data="{&quot;origPos&quot;:null}" fill="none" stroke="#df141d" stroke-width="4" stroke-linecap="butt"/><path d="M411.84459,105.54574h6.7552v27.6349h-6.7552z" data-paper-data="{&quot;origPos&quot;:null}" fill="#000000" stroke="none" stroke-width="0.49465" stroke-linecap="butt"/><path d="M436.15999,107.69354c2.255,0 4.299,1.3344 5.779,3.491c1.48,2.1565 2.396,5.1343 2.396,8.4201c0,3.2859 -0.916,6.2636 -2.396,8.4202c-1.48,2.1565 -3.524,3.4909 -5.779,3.4909c-2.255,0 -4.299,-1.3344 -5.779,-3.4909c-1.48,-2.1566 -2.396,-5.1343 -2.396,-8.4202c0,-3.2858 0.916,-6.2636 2.396,-8.4201c1.48,-2.1566 3.524,-3.491 5.779,-3.491z" data-paper-data="{&quot;origPos&quot;:null}" fill="none" stroke="#000000" stroke-width="4.74611" stroke-linecap="butt"/><g data-paper-data="{&quot;origPos&quot;:null}" stroke="#000000" stroke-width="1.10228" stroke-linecap="round"><path d="M375.83189,191.32454c2.5804,0.4415 4.6185,2.3567 7.027,3.1691c3.0775,0.9397 6.2598,1.644 9.3693,2.0667c3.2639,0.4465 6.611,0.3423 9.9206,0.4134c2.6636,0.0573 6.6065,-2.1616 8.1293,0.1378c1.8898,2.7507 0.7512,7.27 -1.2401,10.0583c-2.9282,4.0977 -7.3869,7.8884 -12.4006,8.6804c-5.7694,0.9634 -12.1582,-0.8769 -17.2231,-3.858c-3.5995,-2.1191 -5.5439,-6.4169 -6.8893,-10.3338c-1.0091,-2.8549 -0.8179,-6.2455 0.1329,-9.0988c0.3593,-1.0753 2.059,-1.4363 3.174,-1.2351z" fill="#e0a29d"/><path d="M403.93999,202.56774l-0.9094,2.5628c-1.4947,1.8442 -2.931,4.1275 -5.1532,4.9327c-2.9833,1.0808 -6.343,0.5865 -9.5071,0.4134c-1.3393,-0.0744 -2.7364,-0.5374 -3.9958,-1.1023c-1.1144,-0.5021 -2.08,-1.2136 -2.8935,-2.0668c-0.9981,-0.9115 -1.8705,-2.005 -2.4801,-3.169c-0.3709,-0.7099 -0.5054,-1.5625 -0.5511,-2.3423l-0.1378,-2.3424l2.3423,0.9645c2.1776,0.7132 4.3072,1.638 6.6137,1.929c4.02,0.5864 8.1717,0.5848 12.2628,0.6889c1.0896,0.0276 2.8219,-0.1262 3.2242,-0.1929z" fill="#000000"/><path d="M390.71259,202.92604c2.6769,0.27 5.442,0.0744 8.1844,0.1929c0.7198,0.0375 2.0381,-0.3125 2.2046,0.2756c0.2034,0.7324 -0.6388,2.2012 -1.5708,2.3974c-3.0081,0.6294 -6.1639,0.0728 -9.2315,-0.1378c-2.2448,-0.1543 -4.5541,-0.3858 -6.7515,-1.0196c-0.8487,-0.2287 -1.6876,-0.7539 -2.2045,-1.5156c-0.4332,-0.6382 -0.8835,-1.9588 -0.3583,-2.2872c0.6504,-0.4068 1.9698,0.6095 2.9762,0.8267c2.2436,0.485 4.4747,1.0394 6.7514,1.2676z" fill="#ffffff"/><path d="M389.55939,210.62614c-1.7422,-0.2023 -3.5102,-0.5633 -5.0981,-1.3227c-1.2433,-0.5341 -2.3175,-1.4777 -3.2241,-2.4802c-0.2486,-0.2755 -0.9182,-0.9909 -0.1654,-1.1023c2.9778,-0.4331 6.0185,-0.2733 9.0387,-0.1377c2.4774,0.1333 4.9873,0.3769 7.3853,1.0196c0.9744,0.2612 2.0364,0.7661 2.5352,1.6534c0.2635,0.4392 -0.3742,1.0598 -0.8267,1.3227c-1.0196,0.5908 -2.236,0.9805 -3.3619,1.1023c-2.08,0.2249 -4.1595,0.1912 -6.283,-0.0551z" fill="#ffffff"/></g><g data-paper-data="{&quot;origPos&quot;:null}" stroke="#000000" stroke-width="2.57481"><path d="M350.34199,166.50044c-0.7128,-0.5461 -1.3881,-1.0673 -2.12,-1.6838c-1.0038,-0.9927 -2.1732,-1.9098 -3.0564,-2.8575c-1.0794,-1.1583 -2.1435,-2.1735 -2.8313,-3.4606c-0.7104,-1.2268 -1.617,-2.6641 -1.2652,-3.9757c0.3895,-1.2287 1.8279,-1.5854 2.8819,-2.0167c1.4077,-0.6428 2.9289,-1.0373 4.36,-1.1905c1.5365,-0.2514 3.1261,-0.2768 4.6933,-0.2419c1.0396,-0.0244 1.4032,0.0617 2.6599,0.2364l3.9561,0.445l0.5911,-2.3215c0.2163,-0.7643 0.3211,-1.5978 0.681,-2.5628c0.5399,-1.4474 1.1023,-2.9552 1.9437,-4.2902c0.6155,-1.2819 1.5173,-2.5944 2.6153,-3.6963c0.7821,-0.8075 1.5785,-2.0219 2.8594,-1.9564c1.3412,0.0881 2.3909,1.5101 3.2894,2.6009c0.9588,1.1134 1.5639,2.4383 2.2671,3.8685c0.6122,1.1215 1.0517,2.522 1.5964,3.8244c0.2729,0.9262 0.7339,1.7164 0.8483,2.5148l1.1374,4.1342l3.3827,-0.0437c0,0 1.703,0.223 2.6752,0.3795c1.334,0.2914 2.7734,0.4848 4.0849,0.8366c1.4925,0.4192 2.9246,0.816 4.184,1.4918c1.2369,0.7361 2.8203,1.4641 3.1616,2.7593c0.281,1.2728 -0.7117,2.2766 -1.3957,3.1894c-0.9017,1.3125 -1.9997,2.4144 -3.1508,3.2904c-1.1962,0.9966 -2.5508,1.8654 -3.8603,2.6136c-0.9181,0.6194 -1.9721,1.0507 -2.3861,1.2398l-1.6868,0.4701l1.6764,2.1366c0.4231,0.7075 0.7031,1.4303 1.0741,2.4618c0.4998,1.423 1.0374,2.9288 1.2887,4.4653c0.2964,1.4159 0.4649,2.9902 0.3094,4.5123c-0.0809,1.1378 0.0723,2.569 -0.9735,3.3468c-1.0458,0.7779 -2.7417,0.3514 -4.1586,0.0978c-1.4168,-0.2537 -2.8193,-0.9142 -4.1615,-1.5522c-1.244,-0.5327 -2.4809,-1.2688 -3.7024,-1.8618c-0.8372,-0.5184 -1.6366,-0.9539 -2.3532,-1.4273l-3.4775,-2.465l-2.5201,2.1517c0,0 -1.4598,0.9669 -2.3329,1.4657c-1.2421,0.5672 -2.5139,1.3982 -3.6731,1.9277c-1.4681,0.6204 -2.7552,1.3082 -4.2088,1.5218c-1.4159,0.2963 -3.0577,0.6458 -4.1514,-0.1057c-1.0335,-0.729 -0.878,-2.2511 -0.9402,-3.3735c-0.1686,-1.5743 -0.0734,-3.119 0.3009,-4.4908c0.2383,-1.56 0.7404,-3.0903 1.2803,-4.5377c0.3599,-0.965 0.6021,-1.596 1.1032,-2.4053l1.4426,-2.21z" fill="#df141d" stroke-linecap="round"/><path d="M377.53679,154.06304c2.2722,2.6225 3.6794,6.2426 3.6794,10.2387c0,3.9961 -1.4072,7.6163 -3.6794,10.2387c-2.2723,2.6212 -5.4097,4.2446 -8.8728,4.2446c-3.4631,0 -6.6005,-1.6234 -8.8728,-4.2446c-2.2722,-2.6224 -3.6794,-6.2426 -3.6794,-10.2387c0,-3.9961 1.4072,-7.6162 3.6794,-10.2387c2.2723,-2.6211 5.4097,-4.2445 8.8728,-4.2445c3.4631,0 6.6005,1.6234 8.8728,4.2445z" fill="#ffffff" stroke-linecap="butt"/></g><g data-paper-data="{&quot;origPos&quot;:null}" stroke="none" stroke-linecap="butt"><path d="M369.34039,156.65984c2.0959,0 3.9949,0.9195 5.3698,2.4065c1.3749,1.4858 2.2259,3.5379 2.2259,5.8031c0,2.2653 -0.851,4.3174 -2.2259,5.8032c-1.3749,1.487 -3.2739,2.4065 -5.3698,2.4065c-2.0958,0 -3.9948,-0.9195 -5.3697,-2.4065c-1.375,-1.4858 -2.2259,-3.5379 -2.2259,-5.8032c0,-2.2652 0.8509,-4.3173 2.2259,-5.8031c1.3749,-1.487 3.2739,-2.4065 5.3697,-2.4065z" fill="#000000" stroke-width="1.26353"/><path d="M368.00079,159.35274c0.5655,0 1.0783,0.23 1.4496,0.6004c0.3704,0.3714 0.6004,0.8841 0.6004,1.4496c0,0.5656 -0.23,1.0783 -0.6004,1.4497c-0.3713,0.3704 -0.8841,0.6004 -1.4496,0.6004c-0.5656,0 -1.0783,-0.23 -1.4497,-0.6004c-0.3704,-0.3714 -0.6004,-0.8841 -0.6004,-1.4497c0,-0.5655 0.23,-1.0782 0.6004,-1.4496c0.3714,-0.3704 0.8841,-0.6004 1.4497,-0.6004z" fill="#ffffff" stroke-width="0.94256"/></g><g data-paper-data="{&quot;origPos&quot;:null}" stroke="#000000" stroke-width="2.57481"><path d="M441.48949,169.20574l1.4426,2.21c0.5011,0.8093 0.7433,1.4403 1.1032,2.4053c0.5399,1.4474 1.042,2.9777 1.2803,4.5377c0.3743,1.3718 0.4695,2.9165 0.3009,4.4908c-0.0622,1.1224 0.0933,2.6445 -0.9402,3.3735c-1.0937,0.7515 -2.7355,0.402 -4.1514,0.1057c-1.4536,-0.2136 -2.7407,-0.9014 -4.2088,-1.5218c-1.1592,-0.5295 -2.431,-1.3605 -3.6731,-1.9277c-0.8731,-0.4988 -2.3329,-1.4657 -2.3329,-1.4657l-2.5201,-2.1517l-3.4775,2.465c-0.7166,0.4734 -1.516,0.9089 -2.3532,1.4273c-1.2215,0.593 -2.4584,1.3291 -3.7024,1.8618c-1.3422,0.638 -2.7447,1.2985 -4.1615,1.5522c-1.4169,0.2536 -3.1128,0.6801 -4.1586,-0.0978c-1.0458,-0.7778 -0.8926,-2.209 -0.9735,-3.3468c-0.1555,-1.5221 0.013,-3.0964 0.3094,-4.5123c0.2513,-1.5365 0.7889,-3.0423 1.2887,-4.4653c0.371,-1.0315 0.651,-1.7543 1.0741,-2.4618l1.6764,-2.1366l-1.6868,-0.4701c-0.414,-0.1891 -1.468,-0.6204 -2.3861,-1.2398c-1.3095,-0.7482 -2.6641,-1.617 -3.8603,-2.6136c-1.1511,-0.876 -2.2491,-1.9779 -3.1508,-3.2904c-0.684,-0.9128 -1.6767,-1.9166 -1.3957,-3.1894c0.3413,-1.2952 1.9247,-2.0232 3.1616,-2.7593c1.2594,-0.6758 2.6915,-1.0726 4.184,-1.4918c1.3115,-0.3518 2.7509,-0.5452 4.0849,-0.8366c0.9722,-0.1565 2.6752,-0.3795 2.6752,-0.3795l3.3827,0.0437l1.1374,-4.1342c0.1144,-0.7984 0.5754,-1.5886 0.8483,-2.5148c0.5447,-1.3024 0.9842,-2.7029 1.5964,-3.8244c0.7032,-1.4302 1.3083,-2.7551 2.2671,-3.8685c0.8985,-1.0908 1.9482,-2.5128 3.2894,-2.6009c1.2809,-0.0655 2.0773,1.1489 2.8594,1.9564c1.098,1.1019 1.9998,2.4144 2.6153,3.6963c0.8414,1.335 1.4038,2.8428 1.9437,4.2902c0.3599,0.965 0.4647,1.7985 0.681,2.5628l0.5911,2.3215l3.9561,-0.445c1.2567,-0.1747 1.6203,-0.2608 2.6599,-0.2364c1.5672,-0.0349 3.1568,-0.0095 4.6933,0.2419c1.4311,0.1532 2.9523,0.5477 4.36,1.1905c1.054,0.4313 2.4924,0.788 2.8819,2.0167c0.3518,1.3116 -0.5548,2.7489 -1.2652,3.9757c-0.6878,1.2871 -1.7519,2.3023 -2.8313,3.4606c-0.8832,0.9477 -2.0526,1.8648 -3.0564,2.8575c-0.7319,0.6165 -1.4072,1.1377 -2.12,1.6838z" fill="#df141d" stroke-linecap="round"/><path d="M427.15599,149.26854c3.4631,0 6.6005,1.6234 8.8728,4.2445c2.2722,2.6225 3.6794,6.2426 3.6794,10.2387c0,3.9961 -1.4072,7.6163 -3.6794,10.2387c-2.2723,2.6212 -5.4097,4.2446 -8.8728,4.2446c-3.4631,0 -6.6005,-1.6234 -8.8728,-4.2446c-2.2722,-2.6224 -3.6794,-6.2426 -3.6794,-10.2387c0,-3.9961 1.4072,-7.6162 3.6794,-10.2387c2.2723,-2.6211 5.4097,-4.2445 8.8728,-4.2445z" fill="#ffffff" stroke-linecap="butt"/></g><g data-paper-data="{&quot;origPos&quot;:null}" stroke="none" stroke-linecap="butt"><path d="M426.54039,156.15984c2.0959,0 3.9949,0.9195 5.3698,2.4065c1.3749,1.4858 2.2259,3.5379 2.2259,5.8031c0,2.2653 -0.851,4.3174 -2.2259,5.8032c-1.3749,1.487 -3.2739,2.4065 -5.3698,2.4065c-2.0958,0 -3.9948,-0.9195 -5.3697,-2.4065c-1.375,-1.4858 -2.2259,-3.5379 -2.2259,-5.8032c0,-2.2652 0.8509,-4.3173 2.2259,-5.8031c1.3749,-1.487 3.2739,-2.4065 5.3697,-2.4065z" fill="#000000" stroke-width="1.26353"/><path d="M425.15079,158.75274c0.5655,0 1.0783,0.23 1.4496,0.6004c0.3704,0.3714 0.6004,0.8841 0.6004,1.4496c0,0.5656 -0.23,1.0783 -0.6004,1.4497c-0.3713,0.3704 -0.8841,0.6004 -1.4496,0.6004c-0.5656,0 -1.0783,-0.23 -1.4497,-0.6004c-0.3704,-0.3714 -0.6004,-0.8841 -0.6004,-1.4497c0,-0.5655 0.23,-1.0782 0.6004,-1.4496c0.3714,-0.3704 0.8841,-0.6004 1.4497,-0.6004z" fill="#ffffff" stroke-width="0.94256"/></g><g data-paper-data="{&quot;origPos&quot;:null,&quot;index&quot;:null}" stroke="#000000" stroke-width="0.5" stroke-linecap="round"><path d="M288.07098,420.46486c-7.89584,1.42464 -19.93289,-1.13191 -22.47767,-8.74674c-6.7328,-20.20604 -8.08716,-44.21762 -0.94065,-64.43543c9.52736,-27.73925 19.68209,-125.05719 45.17297,-140.0644c35.86892,-21.11166 81.1131,-34.14397 121.97029,-27.32142c35.50619,5.60832 49.00563,30.64612 69.74256,59.66533c14.1017,19.74564 43.8569,120.44012 30.47329,139.92026c-10.78416,16.28353 -38.70665,0.56983 -57.5701,0.97579c-23.43757,0.50351 -47.14081,-0.23416 -70.2547,2.92731c-22.02102,2.99363 -44.5572,7.98179 -66.35187,14.6365c-17.05629,5.75311 -31.48981,19.31615 -49.7639,22.44253z" data-paper-data="{&quot;origPos&quot;:null}" fill="#7d191d"/><path d="M478.7363,338.89489c-2.84922,-0.47228 -15.11653,-1.56124 -22.83287,-1.36607c-28.97214,0.73767 -58.37377,0.72596 -86.84267,4.87883c-16.33429,2.06079 -31.41568,8.61014 -46.83665,13.66066l-16.58802,6.83036l0.97579,-16.58802c0.32402,-5.52285 -0.53128,-56.75136 2.09544,-61.7784c4.31675,-8.24328 8.68768,-37.67831 15.7561,-44.134c5.76091,-6.04193 12.59908,-11.08073 20.49107,-14.63645c8.91848,-4.0006 18.81275,-7.27921 28.29716,-7.80609c22.40718,-1.22556 46.20022,-4.72661 67.32744,2.92731c15.73712,5.7024 25.9085,23.68036 36.49358,36.73994l10.05527,83.22345z" data-paper-data="{&quot;origPos&quot;:null}" fill="#000000"/><path d="M393.45363,338.30851c-16.1235,1.6159 -31.92304,5.54232 -47.81238,8.97705c-7.12699,1.53781 -16.47094,8.73502 -21.07652,5.85457c-3.71959,-2.32624 -0.53079,-11.67795 2.53697,-16.19768c3.66108,-5.39406 9.60154,-9.11359 15.61223,-10.7334c15.56148,-4.48855 31.91528,-6.12777 47.81243,-7.22064c21.72455,-1.49096 44.07343,-5.43305 65.3763,-0.97579c6.6001,1.3895 12.56394,11.79107 11.12374,16.97825c-1.17871,4.16459 -10.51475,1.68613 -15.61218,1.95152c-19.42179,0.83913 -39.00344,-0.54646 -57.96055,1.36607z" fill="#ffffff"/><path d="M381.05357,213.36059c15.0385,-1.74469 29.76469,-1.98281 44.49484,-0.39034c7.97398,0.86256 16.58802,3.62198 23.80866,7.80609c3.20442,1.86172 7.72019,6.25662 5.85457,9.36733c-3.53223,6.28389 -11.05346,9.85907 -17.95404,11.70913c-16.98215,4.55097 -34.7567,6.27614 -52.30093,7.22064c-21.38898,0.96012 -42.92205,2.09203 -64.01028,-0.97579c-5.33153,-0.78843 -0.58941,-5.85457 1.1709,-7.80609c6.4205,-7.09965 14.02762,-13.7817 22.83287,-17.56376c11.24472,-5.37844 23.76571,-7.93488 36.10325,-9.36733z" data-paper-data="{&quot;origPos&quot;:null}" fill="#ffffff"/></g></g></g></svg>