<svg version="1.1" xmlns="http://www.w3.org/2000/svg" xmlns:xlink="http://www.w3.org/1999/xlink" width="370.78851" height="430.77688" viewBox="0,0,370.78851,430.77688"><defs><linearGradient x1="219.14781" y1="103.32495" x2="219.14781" y2="159.33333" gradientUnits="userSpaceOnUse" id="color-1"><stop offset="0" stop-color="#fdda62"/><stop offset="1" stop-color="#fcc618"/></linearGradient><linearGradient x1="141.098" y1="188.71234" x2="150.98423" y2="233.71296" gradientTransform="translate(-85.57989,-249.55981) rotate(12.39046) scale(1.00162,1.00162)" gradientUnits="userSpaceOnUse" id="color-2"><stop offset="0" stop-color="#ffffff"/><stop offset="1" stop-color="#e9e9e9"/></linearGradient><linearGradient x1="356.45359" y1="204.97886" x2="337.44804" y2="246.95007" gradientTransform="translate(-398.04223,-74.36605) rotate(-24.36219) scale(1.00162,1.00162)" gradientUnits="userSpaceOnUse" id="color-3"><stop offset="0" stop-color="#ffffff"/><stop offset="1" stop-color="#e9e9e9"/></linearGradient><linearGradient x1="305.33579" y1="186.72955" x2="292.63025" y2="231.01679" gradientTransform="translate(-333.66096,-130.05754) rotate(-16.00775) scale(1.00162,1.00162)" gradientUnits="userSpaceOnUse" id="color-4"><stop offset="0" stop-color="#ffffff"/><stop offset="1" stop-color="#e9e9e9"/></linearGradient><linearGradient x1="248.02331" y1="179.7723" x2="247.96781" y2="225.84607" gradientTransform="translate(-236.74922,-214.38071) rotate(-0.06915) scale(1.00162,1.00162)" gradientUnits="userSpaceOnUse" id="color-5"><stop offset="0" stop-color="#ffffff"/><stop offset="1" stop-color="#e9e9e9"/></linearGradient><linearGradient x1="87.16581" y1="206.83808" x2="106.59206" y2="248.61623" gradientTransform="translate(20.08391,-259.28859) rotate(24.93765) scale(1.00163,1.00163)" gradientUnits="userSpaceOnUse" id="color-6"><stop offset="0" stop-color="#ffffff"/><stop offset="1" stop-color="#e9e9e9"/></linearGradient><linearGradient x1="220.6996" y1="198.98481" x2="234.31017" y2="172.88195" gradientUnits="userSpaceOnUse" id="color-7"><stop offset="0" stop-color="#de141f"/><stop offset="1" stop-color="#4a1517"/></linearGradient><linearGradient x1="195.24081" y1="227.88912" x2="204.05552" y2="258.64205" gradientUnits="userSpaceOnUse" id="color-8"><stop offset="0" stop-color="#de141f"/><stop offset="1" stop-color="#4a1517"/></linearGradient><linearGradient x1="213.79342" y1="222.53204" x2="234.85713" y2="246.61028" gradientUnits="userSpaceOnUse" id="color-9"><stop offset="0" stop-color="#de141f"/><stop offset="1" stop-color="#4a1517"/></linearGradient><linearGradient x1="178.91118" y1="207.40614" x2="155.92078" y2="189.02005" gradientUnits="userSpaceOnUse" id="color-10"><stop offset="0" stop-color="#de141f"/><stop offset="1" stop-color="#4a1517"/></linearGradient><linearGradient x1="294.77281" y1="103.69995" x2="294.77281" y2="159.70833" gradientUnits="userSpaceOnUse" id="color-11"><stop offset="0" stop-color="#fdda62"/><stop offset="1" stop-color="#fcc618"/></linearGradient><linearGradient x1="138.77281" y1="99.70689" x2="138.77281" y2="155.71527" gradientUnits="userSpaceOnUse" id="color-12"><stop offset="0" stop-color="#fdda62"/><stop offset="1" stop-color="#fcc618"/></linearGradient><linearGradient x1="365.14781" y1="104.96384" x2="365.14781" y2="160.97222" gradientUnits="userSpaceOnUse" id="color-13"><stop offset="0" stop-color="#fdda62"/><stop offset="1" stop-color="#fcc618"/></linearGradient><linearGradient x1="65.39781" y1="104.31106" x2="65.39781" y2="160.31944" gradientUnits="userSpaceOnUse" id="color-14"><stop offset="0" stop-color="#fdda62"/><stop offset="1" stop-color="#fcc618"/></linearGradient></defs><g transform="translate(-29.87856,-99.70689)"><g data-paper-data="{&quot;isPaintingLayer&quot;:true}" fill="none" fill-rule="nonzero" stroke="none" stroke-width="none" stroke-linecap="none" stroke-linejoin="miter" stroke-miterlimit="10" stroke-dasharray="" stroke-dashoffset="0" font-family="none" font-weight="none" font-size="none" text-anchor="none" style="mix-blend-mode: normal"><path d="M185.66667,159.33333l-2,-37.66667c0,0 -1.89293,-16.9354 21,-17.66666c6.88315,-0.21987 14,5 14,5c0,0 4.951,-5.92795 15,-5.66666c21.36283,0.55546 21,19 21,19l-2,36.66666l-14.33333,-0.66666l0.33333,-35c0,0 0.2247,-6.19747 -5.33333,-6.33334c-6.56067,-0.16038 -6.33334,5.33334 -6.33334,5.33334v35.66666h-15.33334l-0.66666,-36c0,0 0.28186,-4.70532 -5.66666,-4.66666c-6.61564,0.04299 -5.66667,5 -5.66667,5l0.66667,36z" data-paper-data="{&quot;origPos&quot;:null}" fill="url(#color-1)" stroke="#000000" stroke-width="0" stroke-linecap="round"/><g data-paper-data="{&quot;origPos&quot;:null}" stroke-linecap="butt"><g data-paper-data="{&quot;origPos&quot;:null,&quot;origRot&quot;:0}" fill="#6289c4" stroke="#4666a8" stroke-width="1.5"><path d="M123.89194,225.49361c-2.09813,-9.00859 -3.27808,-14.07483 -5.37621,-23.08342c-1.07529,-4.61692 -2.3023,-9.42091 -1.28796,-10.87241c0.89517,-1.96307 6.03925,-2.70615 10.84382,-3.82515c8.896,-2.07191 13.89887,-3.23709 22.79487,-5.30901c4.692,-1.09278 8.42103,-2.46936 10.84097,-1.22531c2.36854,1.79533 2.8207,5.46261 3.86976,9.9669c2.07191,8.896 3.23709,13.89887 5.30901,22.79487c1.07529,4.61692 2.37421,9.27246 1.44571,11.01543c-0.8424,1.58137 -5.8451,2.48117 -10.42448,3.54772c0,0 -14.25075,3.31905 -23.37196,5.44341c-4.692,1.09278 -9.17785,2.99023 -11.10257,1.64578c-2.10527,-1.47055 -2.51811,-5.70712 -3.54096,-10.09882z" data-paper-data="{&quot;origPos&quot;:null}"/></g><text transform="translate(136.91313,225.01884) rotate(-12.39046) scale(0.99838,0.99838)" font-size="40" xml:space="preserve" data-paper-data="{&quot;origPos&quot;:null,&quot;origRot&quot;:-5.43838}" fill="url(#color-2)" fill-rule="nonzero" stroke="none" stroke-width="1" stroke-linecap="butt" stroke-linejoin="miter" stroke-miterlimit="10" stroke-dasharray="" stroke-dashoffset="0" font-family="Sans Serif" font-weight="normal" text-anchor="start" style="mix-blend-mode: normal"><tspan x="0" dy="0">M</tspan></text></g><g data-paper-data="{&quot;origPos&quot;:null}" stroke-linecap="butt"><g data-paper-data="{&quot;origPos&quot;:null,&quot;origRot&quot;:0}" fill="#365799" stroke="#1d3972" stroke-width="1.5"><path d="M320.67881,222.78277c3.99533,-8.34231 6.24221,-13.03385 10.23754,-21.37617c2.04761,-4.27545 4.09381,-8.79175 5.79297,-9.2903c1.92604,-0.9723 6.40517,1.66421 10.8544,3.79504c8.23806,3.9454 12.87091,6.16418 21.10896,10.10957c4.34498,2.08091 8.11589,3.33824 9.22659,5.82222c0.72589,2.88206 -1.21425,6.02677 -3.21192,10.19793c-3.9454,8.23806 -6.16418,12.87091 -10.10957,21.10896c-2.04761,4.27545 -3.94487,8.72087 -5.75929,9.50054c-1.6462,0.7074 -6.11298,-1.71839 -10.35367,-3.74935c0,0 -13.19677,-6.32024 -21.64337,-10.36552c-4.34498,-2.08091 -9.0322,-3.40496 -9.69365,-5.65764c-0.7235,-2.46399 1.60328,-6.0284 3.55101,-10.09529z" data-paper-data="{&quot;origPos&quot;:null}"/></g><text transform="translate(331.38502,231.56222) rotate(24.36219) scale(0.99838,0.99838)" font-size="40" xml:space="preserve" data-paper-data="{&quot;origPos&quot;:null,&quot;origRot&quot;:-5.43838}" fill="url(#color-3)" fill-rule="nonzero" stroke="none" stroke-width="1" stroke-linecap="butt" stroke-linejoin="miter" stroke-miterlimit="10" stroke-dasharray="" stroke-dashoffset="0" font-family="Sans Serif" font-weight="normal" text-anchor="start" style="mix-blend-mode: normal"><tspan x="0" dy="0">M</tspan></text></g><g data-paper-data="{&quot;origPos&quot;:null}" stroke-linecap="butt"><g data-paper-data="{&quot;origPos&quot;:null,&quot;origRot&quot;:0}" fill="#6289c4" stroke="#4666a8" stroke-width="1.5"><path d="M274.38602,212.15172c2.23454,-8.97573 3.49118,-14.02348 5.72572,-22.99922c1.1452,-4.60007 2.24054,-9.43579 3.80459,-10.26612c1.69093,-1.34005 6.60905,0.34099 11.3961,1.53274c8.86355,2.20661 13.84817,3.44754 22.71173,5.65414c4.67489,1.16382 8.62169,1.63647 10.2096,3.84606c1.2911,2.67699 0.02359,6.14783 -1.09368,10.63569c-2.20661,8.86355 -3.44754,13.84817 -5.65414,22.71173c-1.1452,4.60007 -2.10891,9.33638 -3.72929,10.46528c-1.47014,1.02425 -6.33374,-0.45288 -10.89641,-1.58877c0,0 -14.19877,-3.53483 -23.28671,-5.79729c-4.67489,-1.16382 -9.53268,-1.51739 -10.63398,-3.59084c-1.20462,-2.26795 0.35715,-6.22773 1.44649,-10.60341z" data-paper-data="{&quot;origPos&quot;:null}"/></g><text transform="translate(284.39596,216.6757) rotate(16.00775) scale(0.99838,0.99838)" font-size="40" xml:space="preserve" data-paper-data="{&quot;origPos&quot;:null,&quot;origRot&quot;:-5.43838}" fill="url(#color-4)" fill-rule="nonzero" stroke="none" stroke-width="1" stroke-linecap="butt" stroke-linejoin="miter" stroke-miterlimit="10" stroke-dasharray="" stroke-dashoffset="0" font-family="Sans Serif" font-weight="normal" text-anchor="start" style="mix-blend-mode: normal"><tspan x="0" dy="0">M</tspan></text></g><g data-paper-data="{&quot;origPos&quot;:null}" stroke-linecap="butt"><g data-paper-data="{&quot;origPos&quot;:null,&quot;origRot&quot;:0}" fill="#365799" stroke="#1d3972" stroke-width="1.5"><path d="M228.00709,211.8233c0.03401,-9.24963 0.05313,-14.45142 0.08714,-23.70106c0.01743,-4.74045 -0.06966,-9.6979 1.25182,-10.87663c1.32339,-1.704 6.50028,-1.24182 11.43341,-1.22368c9.13403,0.03358 14.27076,0.05247 23.40479,0.08605c4.81754,0.01771 8.76342,-0.46261 10.8316,1.30555c1.89114,2.29277 1.48615,5.96555 1.46915,10.59036c-0.03358,9.13403 -0.05247,14.27076 -0.08605,23.40479c-0.01743,4.74045 0.17384,9.57002 -1.13128,11.05215c-1.1841,1.34473 -6.25952,1.06763 -10.96142,1.05034c0,0 -14.63206,-0.0538 -23.99732,-0.08823c-4.81754,-0.01771 -9.61989,0.79509 -11.18305,-0.95666c-1.70979,-1.91606 -1.13537,-6.13376 -1.1188,-10.64298z" data-paper-data="{&quot;origPos&quot;:null}"/></g><text transform="translate(236.10719,214.31852) rotate(0.06915) scale(0.99838,0.99838)" font-size="40" xml:space="preserve" data-paper-data="{&quot;origPos&quot;:null,&quot;origRot&quot;:-5.43838}" fill="url(#color-5)" fill-rule="nonzero" stroke="none" stroke-width="1" stroke-linecap="butt" stroke-linejoin="miter" stroke-miterlimit="10" stroke-dasharray="" stroke-dashoffset="0" font-family="Sans Serif" font-weight="normal" text-anchor="start" style="mix-blend-mode: normal"><tspan x="0" dy="0">M</tspan></text></g><g data-paper-data="{&quot;origPos&quot;:null}" stroke-linecap="butt"><g data-paper-data="{&quot;origPos&quot;:null,&quot;origRot&quot;:0}" fill="#365799" stroke="#1d3972" stroke-width="1.5"><path d="M81.33122,244.5984c-3.8332,-8.41804 -5.98891,-13.15217 -9.82211,-21.57021c-1.96452,-4.31426 -4.11465,-8.78201 -3.40643,-10.40501c0.49053,-2.10104 5.38711,-3.84381 9.87672,-5.88818c8.31283,-3.78529 12.98775,-5.91404 21.30058,-9.69933c4.38442,-1.99647 7.76882,-4.08129 10.38655,-3.33881c2.67604,1.29307 3.8424,4.7992 5.75901,9.00822c3.78529,8.31283 5.91404,12.98775 9.69933,21.30058c1.96452,4.31426 4.15588,8.6223 3.58928,10.51413c-0.51406,1.71643 -5.24113,3.58496 -9.52031,5.53351c0,0 -13.31656,6.06377 -21.83984,9.94489c-4.38442,1.99647 -8.40808,4.74115 -10.56011,3.80261c-2.3539,-1.02658 -3.59398,-5.09858 -5.46267,-9.20239z" data-paper-data="{&quot;origPos&quot;:null}"/></g><text transform="translate(90.96436,243.18535) rotate(-24.93765) scale(0.99837,0.99837)" font-size="40" xml:space="preserve" data-paper-data="{&quot;origPos&quot;:null,&quot;origRot&quot;:-5.43838}" fill="url(#color-6)" fill-rule="nonzero" stroke="none" stroke-width="1" stroke-linecap="butt" stroke-linejoin="miter" stroke-miterlimit="10" stroke-dasharray="" stroke-dashoffset="0" font-family="Sans Serif" font-weight="normal" text-anchor="start" style="mix-blend-mode: normal"><tspan x="0" dy="0">M</tspan></text></g><path d="M225.09285,199.24082c1.3627,-7.0469 3.32213,-13.88144 6.07949,-20.31351c0.73446,-1.70202 2.47036,-2.93933 4.19779,-3.62714c1.15958,-0.46029 2.74219,-0.43571 4.00799,0.22433c1.26583,0.66002 2.16024,1.93973 2.47843,3.15781c0.44178,1.69424 0.40982,3.66243 -0.32971,5.20511c-2.07179,4.11856 -4.97174,7.79525 -7.93781,11.44354c-1.94526,2.39368 -3.76524,5.06947 -6.76495,6.45859c-0.87023,0.40264 -2.07193,-0.78714 -1.73122,-2.54872z" data-paper-data="{&quot;origRot&quot;:0,&quot;origPos&quot;:null}" id="ID0.10014915885403752" fill="url(#color-7)" stroke="#000000" stroke-width="0.5" stroke-linecap="butt"/><path d="M193.62044,231.59069c1.83075,2.96214 2.43158,6.49378 3.81452,9.63609c1.46694,3.68746 3.73267,7.1306 4.74184,10.86833c0.47292,1.74838 0.2335,3.83247 -0.54508,5.52093c-0.52368,1.13235 -1.68799,2.20458 -3.06029,2.59792c-1.37225,0.39336 -2.90215,0.08162 -3.97179,-0.58231c-1.48723,-0.92398 -2.91606,-2.36031 -3.34605,-4.00073c-1.09778,-4.19049 -1.1638,-8.66377 -1.32245,-13.04285c-0.15412,-4.26661 -1.138,-8.73069 0.28193,-13.03708c0.41046,-1.15014 2.78126,1.02881 3.40737,2.03971z" data-paper-data="{&quot;origRot&quot;:0,&quot;origPos&quot;:null}" id="ID0.10014915885403752" fill="url(#color-8)" stroke="#000000" stroke-width="0.5" stroke-linecap="butt"/><path d="M209.95088,226.17548c-0.118,-1.21547 2.95466,-0.25257 3.95144,0.39578c2.91725,1.90146 4.96385,4.84168 7.55254,7.09674c2.89669,2.71264 6.41226,4.86428 8.91609,7.81723c1.17198,1.38092 1.84223,3.36877 1.85619,5.22803c0.00798,1.24755 -0.58936,2.71333 -1.66381,3.65326c-1.0744,0.93992 -2.59153,1.30888 -3.842,1.16325c-1.73905,-0.20325 -3.64328,-0.895 -4.73048,-2.19648c-2.7767,-3.32496 -4.74005,-7.34488 -6.74715,-11.24015c-1.95513,-3.79542 -4.74517,-7.41641 -5.29283,-11.91767z" data-paper-data="{&quot;origRot&quot;:0,&quot;origPos&quot;:null,&quot;index&quot;:null}" id="ID0.10014915885403752" fill="url(#color-9)" stroke="#000000" stroke-width="0.5" stroke-linecap="butt"/><path d="M174.44036,212.44474c-3.30519,-0.05983 -6.05055,-1.77308 -8.79657,-3.17767c-4.18655,-2.14028 -8.32402,-4.33323 -11.88222,-7.2648c-1.2994,-1.11279 -2.12325,-2.90056 -2.40308,-4.62894c-0.20067,-1.24285 0.10096,-2.77474 0.99259,-3.88962c0.89159,-1.11489 2.32956,-1.77631 3.57627,-1.82336c1.85807,-0.06814 3.94575,0.36303 5.30488,1.62366c5.11941,4.77135 9.67131,10.23308 13.76303,16.13c1.0229,1.47409 0.40384,3.04775 -0.55488,3.03072z" data-paper-data="{&quot;origRot&quot;:0,&quot;origPos&quot;:null}" id="ID0.10014915885403752" fill="url(#color-10)" stroke="#000000" stroke-width="0.5" stroke-linecap="butt"/><path d="M167.37342,179.36873c0.0725,-0.58034 0.28732,-1.25411 0.71638,-1.54401c0.68165,-0.45416 1.44335,-0.52385 2.37773,-0.64441c3.46641,-0.47727 6.95423,-0.65034 10.46,-1.01516c8.95921,-0.93179 17.87459,-2.00334 26.88803,-2.95891c4.31822,-0.45792 8.65001,-1.01631 12.98597,-1.18608c1.08965,-0.04079 1.61456,0.09201 2.12455,0.6546c0.72027,0.85413 0.99164,2.05819 1.22086,3.19706c0.44964,2.29082 0.35883,3.61875 0.74128,6.96647c1.52762,13.3927 2.97299,26.6967 4.47644,40.23014c0.37566,3.38328 0.24461,1.93101 0.21211,2.91299c-0.03005,0.45332 -0.06431,1.02881 -0.40388,1.35419c-0.60687,0.57575 -1.02575,0.91349 -2.36908,1.09361c-5.26591,0.86171 -10.64114,1.20352 -15.95454,1.79552c-8.35385,0.93039 -16.6031,1.90954 -24.85614,2.7427c-3.86346,0.39113 -7.75599,0.78497 -11.52557,0.93284c-0.94289,0.03692 -0.97086,-0.11197 -1.35419,-0.40388c-0.36604,-0.31332 -0.55503,-0.80204 -0.6798,-1.23888c-0.23841,-0.95315 -0.02417,0.92786 -0.40562,-2.8924c-1.52588,-15.28182 -3.02267,-30.7464 -4.43623,-46.10554c-0.35338,-3.83969 -0.316,-2.6166 -0.21831,-3.89085z" data-paper-data="{&quot;origRot&quot;:0,&quot;origPos&quot;:null}" id="ID0.4964667344465852" fill="#df141d" stroke="#000000" stroke-width="0.5" stroke-linecap="round"/><g data-paper-data="{&quot;origRot&quot;:0,&quot;origPos&quot;:null}" id="ID0.9475001120008528" stroke="#000000" stroke-width="1" stroke-linecap="butt"><path d="M195.7753,177.50528c5.04117,-0.53641 9.84588,1.20102 13.53597,4.44079c3.69014,3.24012 6.26529,7.98307 6.84778,13.45728c0.58249,5.47422 -0.93694,10.65285 -3.86263,14.59697c-2.92573,3.9437 -7.25725,6.65328 -12.29842,7.18969c-5.04117,0.53641 -9.84588,-1.20102 -13.53597,-4.44075c-3.69014,-3.24016 -6.26533,-7.9831 -6.84782,-13.45732c-0.58249,-5.47422 0.93698,-10.65285 3.86267,-14.59694c2.92573,-3.94374 7.25724,-6.65332 12.29841,-7.18973z" id="ID0.2672549015842378" fill="#7d191d"/><path d="M196.02261,182.58281c3.62326,-0.38554 7.07803,0.88059 9.73318,3.23733c2.65477,2.35717 4.50992,5.80457 4.93315,9.78204c0.42323,3.97747 -0.66495,7.73805 -2.76426,10.60109c-2.09977,2.86269 -5.21075,4.82746 -8.83401,5.213c-3.62326,0.38554 -7.07803,-0.88059 -9.73318,-3.23733c-2.65481,-2.35717 -4.50992,-5.80457 -4.93315,-9.78204c-0.42323,-3.97747 0.66491,-7.73805 2.76426,-10.60109c2.09977,-2.86269 5.21075,-4.82746 8.83401,-5.213z" id="ID0.04306362196803093" fill="#ffffff"/></g><g data-paper-data="{&quot;origRot&quot;:0,&quot;origPos&quot;:null,&quot;index&quot;:null}" id="ID0.7348965127021074" stroke="none" stroke-width="1" stroke-linecap="butt"><path d="M196.61634,187.80365c2.25574,-0.24003 4.4051,0.53445 6.05597,1.97961c1.65045,1.4452 2.8021,3.56112 3.062,6.00365c0.2599,2.44252 -0.42071,4.75341 -1.73009,6.51356c-1.3098,1.76019 -3.24806,2.96962 -5.5038,3.20964c-2.25578,0.24003 -4.4051,-0.53445 -6.05597,-1.97961c-1.65048,-1.4452 -2.8021,-3.56112 -3.062,-6.00365c-0.2599,-2.44252 0.42067,-4.7534 1.73009,-6.51356c1.3098,-1.76019 3.24802,-2.96961 5.5038,-3.20964z" id="ID0.3049218291416764" fill="#000000"/><path d="M199.12538,192.23357c0.36032,-0.03834 0.70254,0.0732 0.96417,0.28451c0.26164,0.21131 0.44269,0.52239 0.48103,0.88272c0.03834,0.36032 -0.0732,0.70254 -0.28451,0.96417c-0.21131,0.26164 -0.52239,0.44269 -0.88272,0.48103c-0.36032,0.03834 -0.70254,-0.0732 -0.96417,-0.28451c-0.26164,-0.21131 -0.44269,-0.52239 -0.48103,-0.88272c-0.03834,-0.36032 0.0732,-0.70254 0.28451,-0.96417c0.21131,-0.26164 0.52239,-0.44269 0.88272,-0.48103z" id="ID0.06762191886082292" fill="#ffffff"/></g><path d="M261.29167,159.70833l-2,-37.66667c0,0 -1.89293,-16.9354 21,-17.66666c6.88315,-0.21987 14,5 14,5c0,0 4.951,-5.92795 15,-5.66666c21.36283,0.55546 21,19 21,19l-2,36.66666l-14.33333,-0.66666l0.33333,-35c0,0 0.2247,-6.19747 -5.33333,-6.33334c-6.56067,-0.16038 -6.33334,5.33334 -6.33334,5.33334v35.66666h-15.33334l-0.66666,-36c0,0 0.28186,-4.70532 -5.66666,-4.66666c-6.61564,0.04299 -5.66667,5 -5.66667,5l0.66667,36z" data-paper-data="{&quot;origPos&quot;:null}" fill="url(#color-11)" stroke="#000000" stroke-width="0" stroke-linecap="round"/><path d="M105.29167,155.71527l-2,-37.66667c0,0 -1.89293,-16.9354 21,-17.66666c6.88315,-0.21987 14,5 14,5c0,0 4.951,-5.92795 15,-5.66666c21.36283,0.55546 21,19 21,19l-2,36.66666l-14.33333,-0.66666l0.33333,-35c0,0 0.2247,-6.19747 -5.33333,-6.33334c-6.56067,-0.16038 -6.33334,5.33334 -6.33334,5.33334v35.66666h-15.33334l-0.66666,-36c0,0 0.28186,-4.70532 -5.66666,-4.66666c-6.61564,0.04299 -5.66667,5 -5.66667,5l0.66667,36z" data-paper-data="{&quot;origPos&quot;:null}" fill="url(#color-12)" stroke="#000000" stroke-width="0" stroke-linecap="round"/><path d="M331.66667,160.97222l-2,-37.66667c0,0 -1.89293,-16.9354 21,-17.66666c6.88315,-0.21987 14,5 14,5c0,0 4.951,-5.92795 15,-5.66666c21.36283,0.55546 21,19 21,19l-2,36.66666l-14.33333,-0.66666l0.33333,-35c0,0 0.2247,-6.19747 -5.33333,-6.33334c-6.56067,-0.16038 -6.33334,5.33334 -6.33334,5.33334v35.66666h-15.33334l-0.66666,-36c0,0 0.28186,-4.70532 -5.66666,-4.66666c-6.61564,0.04299 -5.66667,5 -5.66667,5l0.66667,36z" data-paper-data="{&quot;origPos&quot;:null}" fill="url(#color-13)" stroke="#000000" stroke-width="0" stroke-linecap="round"/><path d="M31.91667,160.31944l-2,-37.66667c0,0 -1.89293,-16.9354 21,-17.66666c6.88315,-0.21987 14,5 14,5c0,0 4.951,-5.92795 15,-5.66666c21.36283,0.55546 21,19 21,19l-2,36.66666l-14.33333,-0.66666l0.33333,-35c0,0 0.2247,-6.19747 -5.33333,-6.33334c-6.56067,-0.16038 -6.33334,5.33334 -6.33334,5.33334v35.66666h-15.33334l-0.66666,-36c0,0 0.28186,-4.70532 -5.66666,-4.66666c-6.61564,0.04299 -5.66667,5 -5.66667,5l0.66667,36z" data-paper-data="{&quot;origPos&quot;:null}" fill="url(#color-14)" stroke="#000000" stroke-width="0" stroke-linecap="round"/><g data-paper-data="{&quot;origPos&quot;:null}" stroke="#000000" stroke-width="0.5" stroke-linecap="butt"><path d="M61.48463,369.5741c0,-88.7299 71.92984,-160.65974 160.65974,-160.65974c88.7299,0 160.65974,71.92984 160.65974,160.65974c0,88.7299 -71.92984,160.65967 -160.65974,160.65967c-88.7299,0 -160.65974,-71.92977 -160.65974,-160.65967z" data-paper-data="{&quot;origPos&quot;:null}" fill="#7d191d"/><path d="M114.63526,373.19801c0,-57.37422 46.51099,-103.88528 103.88521,-103.88528c57.37422,0 103.88521,46.51106 103.88521,103.88528c0,57.37422 -46.51099,103.88521 -103.88521,103.88521c-57.37422,0 -103.88521,-46.51099 -103.88521,-103.88521z" data-paper-data="{&quot;origPos&quot;:null}" fill="#000000"/></g></g></g></svg>