<svg version="1.1" xmlns="http://www.w3.org/2000/svg" xmlns:xlink="http://www.w3.org/1999/xlink" width="433.95811" height="345.38699"><defs><linearGradient x1="325.94313" y1="205.93197" x2="314.24547" y2="262.47769" gradientUnits="userSpaceOnUse" id="color-1"><stop offset="0" stop-color="#f8b148"/><stop offset="1" stop-color="#f28f1e"/></linearGradient><linearGradient x1="256.97865" y1="128.33728" x2="255.31697" y2="184.321" gradientUnits="userSpaceOnUse" id="color-2"><stop offset="0" stop-color="#fdda62"/><stop offset="1" stop-color="#fcc618"/></linearGradient><linearGradient x1="92.8285" y1="9.91104" x2="106.22985" y2="87.054" gradientUnits="userSpaceOnUse" id="color-3"><stop offset="0" stop-color="#b8d166"/><stop offset="1" stop-color="#8abf49"/></linearGradient><linearGradient x1="256.8251" y1="26.43601" x2="273.47608" y2="79.42202" gradientUnits="userSpaceOnUse" id="color-4"><stop offset="0" stop-color="#7db9e1"/><stop offset="1" stop-color="#50aede"/></linearGradient><linearGradient x1="114.49365" y1="211.87628" x2="134.17304" y2="256.94542" gradientUnits="userSpaceOnUse" id="color-5"><stop offset="0" stop-color="#986ead"/><stop offset="1" stop-color="#7664a9"/></linearGradient><linearGradient x1="51.53711" y1="98.59264" x2="41.86764" y2="20.89363" gradientUnits="userSpaceOnUse" id="color-6"><stop offset="0" stop-color="#d16a26"/><stop offset="1" stop-color="#d19884"/></linearGradient><linearGradient x1="149.01511" y1="23.79888" x2="163.19711" y2="77.49845" gradientUnits="userSpaceOnUse" id="color-7"><stop offset="0" stop-color="#ad7ee0"/><stop offset="1" stop-color="#8350de"/></linearGradient><linearGradient x1="217.62916" y1="4.18045" x2="201.42918" y2="80.78459" gradientUnits="userSpaceOnUse" id="color-8"><stop offset="0" stop-color="#d166d1"/><stop offset="1" stop-color="#b149bf"/></linearGradient><linearGradient x1="310.4085" y1="24.94083" x2="330.21871" y2="69.95262" gradientUnits="userSpaceOnUse" id="color-9"><stop offset="0" stop-color="#6fad7e"/><stop offset="1" stop-color="#63a866"/></linearGradient><linearGradient x1="377.62916" y1="95.48076" x2="361.42918" y2="18.87662" gradientUnits="userSpaceOnUse" id="color-10"><stop offset="0" stop-color="#b149bf"/><stop offset="1" stop-color="#d166d1"/></linearGradient><linearGradient x1="431.72404" y1="101.52213" x2="420.46455" y2="44.88753" gradientUnits="userSpaceOnUse" id="color-11"><stop offset="0" stop-color="#e2cf42"/><stop offset="1" stop-color="#f2f21d"/></linearGradient><linearGradient x1="41.27789" y1="100.01139" x2="41.27789" y2="175.53449" gradientUnits="userSpaceOnUse" id="color-12"><stop offset="0" stop-color="#f6ae45"/><stop offset="1" stop-color="#f28f1e"/></linearGradient><linearGradient x1="86.02789" y1="100.26139" x2="86.02789" y2="175.78449" gradientUnits="userSpaceOnUse" id="color-13"><stop offset="0" stop-color="#f54545"/><stop offset="1" stop-color="#e40000"/></linearGradient><linearGradient x1="194.08394" y1="108.70936" x2="194.08394" y2="185.37603" gradientUnits="userSpaceOnUse" id="color-14"><stop offset="0" stop-color="#8758ff"/><stop offset="1" stop-color="#000eaf"/></linearGradient><linearGradient x1="143.54648" y1="101.37604" x2="143.54648" y2="178.99535" gradientUnits="userSpaceOnUse" id="color-15"><stop offset="0" stop-color="#7db9e1"/><stop offset="1" stop-color="#50aede"/></linearGradient><linearGradient x1="323.8602" y1="188.53445" x2="334.99506" y2="131.87521" gradientUnits="userSpaceOnUse" id="color-16"><stop offset="0" stop-color="#e62728"/><stop offset="1" stop-color="#eb5544"/></linearGradient><linearGradient x1="375.18249" y1="110.41162" x2="391.32689" y2="187.02749" gradientUnits="userSpaceOnUse" id="color-17"><stop offset="0" stop-color="#d166c4"/><stop offset="1" stop-color="#bf499e"/></linearGradient><linearGradient x1="249.41728" y1="199.37602" x2="249.41728" y2="276.04269" gradientUnits="userSpaceOnUse" id="color-18"><stop offset="0" stop-color="#ff5959"/><stop offset="1" stop-color="#b00000"/></linearGradient><linearGradient x1="71.62916" y1="290.48076" x2="55.42918" y2="213.87662" gradientUnits="userSpaceOnUse" id="color-19"><stop offset="0" stop-color="#b149bf"/><stop offset="1" stop-color="#d166d1"/></linearGradient><linearGradient x1="172.94199" y1="210.68577" x2="191.72469" y2="256.13592" gradientUnits="userSpaceOnUse" id="color-20"><stop offset="0" stop-color="#986ead"/><stop offset="1" stop-color="#7664a9"/></linearGradient><linearGradient x1="385.94271" y1="202.9932" x2="376.76018" y2="260.0014" gradientUnits="userSpaceOnUse" id="color-21"><stop offset="0" stop-color="#8a27e6"/><stop offset="1" stop-color="#5334b4"/></linearGradient><linearGradient x1="232.15398" y1="295.03524" x2="232.15398" y2="344.89538" gradientUnits="userSpaceOnUse" id="color-22"><stop offset="0" stop-color="#f59e41"/><stop offset="1" stop-color="#d36d00"/></linearGradient><linearGradient x1="301.61474" y1="275.59935" x2="301.61474" y2="350.70086" gradientUnits="userSpaceOnUse" id="color-23"><stop offset="0" stop-color="#6fe359"/><stop offset="1" stop-color="#18c927"/></linearGradient><linearGradient x1="390.9114" y1="292.43577" x2="372.1287" y2="337.88592" gradientUnits="userSpaceOnUse" id="color-24"><stop offset="0" stop-color="#f07f4a"/><stop offset="1" stop-color="#fa4f00"/></linearGradient><linearGradient x1="435.90411" y1="130.01525" x2="435.90411" y2="205.53525" gradientUnits="userSpaceOnUse" id="color-25"><stop offset="0" stop-color="#eb5544"/><stop offset="1" stop-color="#e62728"/></linearGradient><linearGradient x1="152.97865" y1="347.22736" x2="151.31697" y2="291.24363" gradientUnits="userSpaceOnUse" id="color-26"><stop offset="0" stop-color="#fcc618"/><stop offset="1" stop-color="#fdda62"/></linearGradient></defs><g transform="translate(-23.67956,-6.22794)"><g data-paper-data="{&quot;isPaintingLayer&quot;:true}" fill="none" fill-rule="nonzero" stroke="none" stroke-width="0" stroke-linecap="none" stroke-linejoin="miter" stroke-miterlimit="10" stroke-dasharray="" stroke-dashoffset="0" font-family="none" font-weight="none" font-size="none" text-anchor="none" style="mix-blend-mode: normal"><path d="M300.79529,208.55862l14.90278,0.35982l0.29351,34.78062c0,0 -0.55736,5.83883 5.25663,5.85292c6.79572,0.01647 6.50576,-5.12158 6.50576,-5.12158l1.14723,-35.16336l13.92351,0.15723l-0.56191,35.62484c0,0 -0.61898,19.0873 -21.49825,18.35884c-20.82953,-0.72672 -20.45243,-21.25058 -20.45243,-21.25058z" data-paper-data="{&quot;origPos&quot;:null,&quot;origRot&quot;:0}" fill="url(#color-1)" stroke="#000000" stroke-linecap="round"/><path d="M221.85057,183.32767l-0.88161,-37.70943c0,0 -1.38965,-16.98411 21.5149,-17.03585c6.88664,-0.01556 13.8455,5.41316 13.8455,5.41316c0,0 5.12469,-5.77845 15.16152,-5.21914c21.33695,1.18902 20.42706,19.61467 20.42706,19.61467l-3.08696,36.59118l-14.30724,-1.09161l1.37158,-34.9747c0,0 0.40847,-6.18808 -5.14308,-6.48878c-6.55302,-0.35495 -6.48878,5.14309 -6.48878,5.14309l-1.05817,35.65096l-15.32659,-0.45492l0.40169,-36.00393c0,0 0.42134,-4.69489 -5.52571,-4.83273c-6.614,-0.1533 -5.81252,4.82968 -5.81252,4.82968l-0.40168,36.00393z" data-paper-data="{&quot;origPos&quot;:null,&quot;origRot&quot;:0}" fill="url(#color-2)" stroke="#000000" stroke-linecap="round"/><path d="M79.17055,12.28371l15.17802,-0.26846l0.20996,22.63136c0,0 7.76626,-3.71157 12.96542,-3.26735c12.99527,1.11031 15.01786,16.33732 15.01786,16.33732l0.09585,21.97453c0,0 -0.36273,17.02898 -20.92123,17.84414c-22.68183,-0.54394 -21.71868,-17.3634 -21.81292,-24.29169c-0.21395,-15.72827 -0.73297,-50.95985 -0.73297,-50.95985zM101.19053,74.77023c9.83042,0.20063 7.07076,-15.77635 7.07076,-15.77635c0,0 0.76529,-14.98083 -7.33631,-14.96517c-8.54908,0.01653 -6.85646,15.06247 -6.85646,15.06247c0,0 -1.46631,15.50375 7.12202,15.67903z" data-paper-data="{&quot;origPos&quot;:null,&quot;origRot&quot;:0}" fill="url(#color-3)" stroke="#000000" stroke-linecap="round"/><path d="M264.87331,68.11498c5.68361,1.1623 13.03804,-4.09723 13.03804,-4.09723l7.21372,9.61283c0,0 -13.04069,9.11725 -23.632,7.07702c-16.50669,-3.17972 -17.58925,-19.28029 -17.58925,-19.28029l-0.40828,-19.08897c0,0 1.75665,-17.39888 22.54204,-17.21663c18.64931,0.16352 19.73352,17.20884 19.73352,17.20884l-0.25485,14.75509l-26.56645,-0.03715c0,0 -1.39444,9.56999 5.92351,11.06652zM272.19698,46.94563c0,0 0.46049,-8.83173 -7.33186,-8.8769c-7.74298,-0.04489 -6.0513,8.54033 -6.0513,8.54033z" data-paper-data="{&quot;origPos&quot;:null,&quot;origRot&quot;:0}" fill="url(#color-4)" stroke="#000000" stroke-linecap="round"/><path d="M108.68888,261.88973c0,0 0.34252,-21.64555 0.56176,-35.4998c0.16301,-10.30192 7.75822,-15.41734 7.75822,-15.41734c0,0 6.7051,-4.56739 15.53973,-2.18476c3.86422,1.48543 9.90157,3.80622 9.90157,3.80622l-5.04668,10.93302c0,0 -4.00289,-1.62612 -6.66168,-2.35934c-0.85012,-0.23444 -4.46488,1.03441 -4.46488,1.03441c0,0 -2.38203,1.50873 -2.49112,4.64993c-0.32725,9.42359 -1.22105,35.16209 -1.22105,35.16209l-13.87588,-0.12443z" data-paper-data="{&quot;origPos&quot;:null,&quot;origRot&quot;:0}" fill="url(#color-5)" stroke="#000000" stroke-linecap="round"/><path d="M66.58569,77.57331l-15.17334,-0.46304l-0.41164,-3.30783c0,0 -7.93604,3.33312 -13.10777,2.63895c-12.92669,-1.73506 -14.21338,-17.04183 -14.21338,-17.04183l0.96287,-21.95363c0,0 1.18268,-16.99174 21.75658,-16.81555c22.62929,1.636 20.85699,18.38952 20.61735,25.3143c-0.544,15.72032 -0.43065,31.62863 -0.43065,31.62863zM46.30935,33.40592c-9.80934,-0.67398 -7.82256,15.41741 -7.82256,15.41741c0,0 -1.48609,14.92657 6.60685,15.30122c8.53994,0.39533 7.57413,-14.71468 7.57413,-14.71468c0,0 2.2115,-15.41511 -6.35842,-16.00393z" data-paper-data="{&quot;origPos&quot;:null,&quot;index&quot;:null,&quot;origRot&quot;:0}" fill="url(#color-6)" stroke="#000000" stroke-linecap="round"/><path d="M155.12661,65.80555c5.62376,1.42398 13.21362,-3.4897 13.21362,-3.4897l6.7613,9.93625c0,0 -13.44851,8.50422 -23.93409,5.97621c-16.34191,-3.93993 -16.67849,-20.07334 -16.67849,-20.07334l0.47522,-19.08742c0,0 2.55009,-17.1099 23.31435,-16.1554c10.02466,0.46082 14.41827,8.12093 14.41827,8.12093l-11.59033,8.85299c0,0 -0.44162,-4.62898 -5.91512,-4.64354c-6.01171,-0.016 -6.19404,7.80541 -5.98039,14.54852c0.22413,7.07376 -0.94512,14.2773 5.91567,16.01452z" data-paper-data="{&quot;origPos&quot;:null,&quot;origRot&quot;:0}" fill="url(#color-7)" stroke="#000000" stroke-linecap="round"/><path d="M231.19171,7.04861c0,0 -1.80089,35.18935 -2.5871,50.89942c-0.34632,6.92027 0.00408,23.76363 -22.68252,23.48174c-20.51521,-1.56282 -20.25796,-18.59372 -20.25796,-18.59372l0.89552,-21.95648c0,0 2.57542,-15.14332 15.60249,-15.77994c5.21189,-0.25471 12.83792,3.73704 12.83792,3.73704l1.03345,-22.60873zM206.91222,68.69234c8.58902,0.1374 7.68792,-15.40946 7.68792,-15.40946c0,0 2.23907,-14.97437 -6.30374,-15.30202c-8.09566,-0.3105 -7.87609,14.68826 -7.87609,14.68826c0,0 -3.33929,15.86597 6.49192,16.02323z" data-paper-data="{&quot;origPos&quot;:null,&quot;index&quot;:null,&quot;origRot&quot;:0}" fill="url(#color-8)" stroke="#000000" stroke-linecap="round"/><path d="M300.24902,39.47093c0,0 2.77966,0.10354 4.95865,-0.00129c0.13309,-10.30235 7.7134,-15.43981 7.7134,-15.43981c0,0 6.6918,-4.58685 15.53331,-2.22988c3.86851,1.4742 9.91259,3.77745 9.91259,3.77745l-5.0149,10.94764c0,0 -4.0076,-1.61449 -6.66851,-2.33998c-0.85079,-0.23196 -3.07145,-0.09559 -4.46185,1.04738c-1.3904,1.14297 -2.47761,4.65715 -2.47761,4.65715l7.41957,0.77766l0.38691,5.97599l-8.06153,0.12912l-0.86387,28.28272l-13.87618,-0.08413l-0.28603,-28.37627l-4.74044,-0.57873z" data-paper-data="{&quot;origPos&quot;:null,&quot;origRot&quot;:0}" fill="url(#color-9)" stroke="#000000" stroke-linecap="round"/><path d="M350.23351,78.43327c0,0 4.1749,2.30137 16.04339,1.24771c8.45224,-0.75037 8.72316,-8.85644 8.72316,-8.85644c0,0 -7.62603,3.99175 -12.83792,3.73704c-13.02707,-0.63662 -15.60249,-15.77994 -15.60249,-15.77994l-0.89552,-21.95648c0,0 -0.25725,-17.0309 20.25796,-18.59372c22.6866,-0.28189 22.3362,16.56147 22.68252,23.48174c0.54254,10.84101 0.84624,16.93781 1.40684,27.7779c1.45958,28.22353 -40.81973,21.72152 -40.81973,21.72152zM366.91223,30.96886c-9.83121,0.15726 -6.49192,16.02323 -6.49192,16.02323c0,0 -0.21957,14.99876 7.87609,14.68826c8.54281,-0.32765 6.30374,-15.30202 6.30374,-15.30202c0,0 0.9011,-15.54686 -7.68792,-15.40946z" data-paper-data="{&quot;origPos&quot;:null,&quot;index&quot;:null,&quot;origRot&quot;:0}" fill="url(#color-10)" stroke="#000000" stroke-linecap="round"/><path d="M407.3743,23.59935l14.63331,0.16641c0,0 -0.4377,13.50511 -1.01696,26.49201c21.88429,-13.31678 27.35546,12.27475 27.35546,12.27475l0.28606,35.62812l-13.92431,0.04943l-0.87493,-35.17119c0,0 0.32973,-5.13565 -6.46592,-5.1718c-5.81392,-0.03093 -5.30179,5.81205 -5.30179,5.81205l-0.56279,34.77731l-14.90512,0.24442z" data-paper-data="{&quot;origPos&quot;:null,&quot;index&quot;:null,&quot;origRot&quot;:0}" fill="url(#color-11)" stroke="#000000" stroke-linecap="round"/><path d="M33.40289,175.53449v-54.98182h15.75v54.98182zM41.36213,115.01139c4.14213,0 7.5,-3.35787 7.5,-7.5c0,-4.14213 -3.35787,-7.5 -7.5,-7.5c-4.14213,0 -7.5,3.35787 -7.5,7.5c0,4.14213 3.35787,7.5 7.5,7.5z" data-paper-data="{&quot;origPos&quot;:null}" fill="url(#color-12)" stroke="none" stroke-linecap="butt"/><path d="M63.15289,179.53449c0,0 12.40182,3.6539 12.97902,-0.72795c1.73162,-13.14556 2.02098,-58.00387 2.02098,-58.00387h15.75c0,0 2.05658,47.72255 -3.82768,64.02627c-4.36014,12.0808 -29.42232,6.70555 -29.42232,6.70555zM86.36213,114.51139c4.14213,0 7.5,-3.35787 7.5,-7.5c0,-4.14213 -3.35787,-7.5 -7.5,-7.5c-4.14213,0 -7.5,3.35787 -7.5,7.5c0,4.14213 3.35787,7.5 7.5,7.5z" data-paper-data="{&quot;origPos&quot;:null}" fill="url(#color-13)" stroke="none" stroke-linecap="butt"/><path d="M185.58394,185.37603v-76.66667h17v76.66667z" data-paper-data="{&quot;origPos&quot;:null}" fill="url(#color-14)" stroke="none" stroke-linecap="butt"/><path d="M116.91727,178.0427v-76.66666h17v76.66666zM155.23952,178.14863l14.93617,0.84672l-21.15937,-30.5299l16.30653,-22.48402l-12.75,-0.49946l-18.5,20.5z" data-paper-data="{&quot;origPos&quot;:null}" fill="url(#color-15)" stroke="none" stroke-linecap="butt"/><path d="M348.98068,185.65789l-14.90562,-0.21163l-0.63931,-34.77598c0,0 0.49928,-5.84409 -5.31457,-5.80037c-6.79555,0.0511 -6.45451,5.18601 -6.45451,5.18601l-0.79756,35.17302l-13.92439,-0.01879l0.20767,-35.62866c0,0 0.42917,-19.09252 21.31465,-18.57169c20.83573,0.51959 20.66271,21.04617 20.66271,21.04617z" data-paper-data="{&quot;origPos&quot;:null,&quot;index&quot;:null,&quot;origRot&quot;:0}" fill="url(#color-16)" stroke="#000000" stroke-linecap="round"/><path d="M368.30099,140.13591c4.2586,-9.33293 17.12164,-9.05238 22.33335,-8.79389c13.02661,0.64608 15.59103,15.79126 15.59103,15.79126l0.87959,21.95713c0,0 0.24489,17.03108 -20.27145,18.57901c-22.6868,0.26543 -22.32418,-16.57767 -22.66548,-23.49819c-0.77481,-15.71064 -0.12564,-14.70239 4.13296,-24.03532zM385.85263,174.93128c9.83132,-0.15013 6.50353,-16.01852 6.50353,-16.01852c0,0 0.23046,-14.99859 -7.86543,-14.69397c-8.54305,0.32146 -6.31484,15.29745 -6.31484,15.29745c0,0 -0.91238,15.54619 7.67674,15.41503z" data-paper-data="{&quot;origPos&quot;:null,&quot;origRot&quot;:0}" fill="url(#color-17)" stroke="#000000" stroke-linecap="round"/><path d="M266.25061,275.04269c0,0 -10.95503,2.53345 -21.1265,-6.93923c-7.38258,-6.87539 -5.20517,-15.02845 -5.36469,-25.11547c-0.10229,-6.46874 -0.81766,-15.51546 -0.81766,-15.51546l-9.92167,-0.67014l-0.06486,-11.21114l11.37307,0.64278l0.58896,-16.85801h17l-0.81309,18.42145l10.49111,0.97754l0.4079,11.02445l-11.37025,-1.32549c0,0 -0.46369,13.13611 0.70105,21.42915c1.26833,9.03052 8.91661,8.80624 8.91661,8.80624z" data-paper-data="{&quot;origPos&quot;:null}" fill="url(#color-18)" stroke="none" stroke-linecap="butt"/><path d="M96.78351,300.43327c0,0 -16.18408,0.32971 -21.74234,-3.93962c-5.67485,-4.35888 -6.04111,-30.6691 -6.04111,-30.6691c0,0 -7.62603,3.99175 -12.83792,3.73704c-13.02707,-0.63662 -15.60249,-15.77994 -15.60249,-15.77994l-0.89552,-21.95648c0,0 -0.25725,-17.0309 20.25796,-18.59372c22.6866,-0.28189 22.3362,16.56147 22.68252,23.48174c0.56478,11.28553 -3.92972,38.73154 1.92137,48.39834c3.22875,5.33434 13.91573,3.25108 13.91573,3.25108zM60.91223,225.96886c-9.83121,0.15726 -6.49192,16.02323 -6.49192,16.02323c0,0 -0.21957,14.99876 7.87609,14.68826c8.54281,-0.32765 6.30374,-15.30202 6.30374,-15.30202c0,0 0.9011,-15.54686 -7.68792,-15.40946z" data-paper-data="{&quot;origPos&quot;:null,&quot;index&quot;:null,&quot;origRot&quot;:0}" fill="url(#color-19)" stroke="#000000" stroke-linecap="round"/><path d="M167.41249,225.09271c0.36706,-10.29667 8.06212,-15.26062 8.06212,-15.26062c0,0 6.79426,-4.43367 15.57995,-1.87649c3.83403,1.56169 9.82423,4.00162 9.82423,4.00162l-5.26227,10.83091c0,0 -3.9699,-1.7051 -6.61363,-2.49085c-0.8453,-0.25123 -4.48449,0.94576 -4.48449,0.94576c0,0 -2.41146,1.46125 -2.58275,4.59967c-0.34487,6.31883 15.11654,2.34711 14.36632,14.94122c-1.3924,23.37457 -32.03369,19.18978 -32.03369,19.18978l-0.62069,-11.14929c0,0 19.33862,4.23471 21.04335,-5.85961c0.90545,-5.36151 -17.77207,-4.02491 -17.27843,-17.8721z" data-paper-data="{&quot;origPos&quot;:null,&quot;origRot&quot;:0}" fill="url(#color-20)" stroke="#000000" stroke-linecap="round"/><path d="M360.93583,206.73073l14.9041,-0.30038l7.65027,21.15242l5.55535,-21.38874l13.91682,-0.45941l-19.6483,54.90749z" data-paper-data="{&quot;origPos&quot;:null,&quot;index&quot;:null,&quot;origRot&quot;:0}" fill="url(#color-21)" stroke="#000000" stroke-linecap="round"/><path d="M240.45398,343.92954l-7.75,-17.28465l-7.95,17.27896l-15.3,0.97154l16.6,-26.08069l-11.4,-23.77945l12.1,0.4943l6.1,16.94356l8.6,-17.43218l11,0.76138l-12.6,23.52377l15,24.80223z" data-paper-data="{&quot;origPos&quot;:null,&quot;index&quot;:null}" fill="url(#color-22)" stroke="#000000" stroke-linecap="round"/><path d="M299.10518,351.45086l-0.38331,-10.41641c0,0 9.12505,-0.17234 9.40503,-7.16168c0.13415,-3.34888 -0.03742,-6.48209 0.11193,-9.83033c-21.88429,13.31678 -27.35546,-12.27475 -27.35546,-12.27475l-0.28606,-35.62812l13.92431,-0.04943l0.87493,35.17119c0,0 -0.32973,5.13565 6.46592,5.1718c5.81392,0.03093 5.30179,-5.81205 5.30179,-5.81205l0.56279,-34.77731l14.90512,-0.24442c0,0 0.29202,32.14658 -0.74105,56.89392c-0.92615,22.18615 -22.78594,18.95759 -22.78594,18.95759z" data-paper-data="{&quot;origPos&quot;:null,&quot;index&quot;:null,&quot;origRot&quot;:0}" fill="url(#color-23)" stroke="#000000" stroke-linecap="round"/><path d="M378.91247,329.96481l20.29334,-0.14039l0.37931,11.89929l-36.28369,-0.43978l23.29908,-40.73665l-23.86363,0.74085l-0.01228,-13.83091l38.65418,2.12486z" data-paper-data="{&quot;origPos&quot;:null,&quot;origRot&quot;:0,&quot;index&quot;:null}" fill="url(#color-24)" stroke="#000000" stroke-linecap="round"/><path d="M414.17055,205.26679c0,0 0.51902,-35.23158 0.73297,-50.95985c0.09424,-6.92829 -0.86891,-23.74775 21.81292,-24.29169c20.5585,0.81516 20.92123,17.84414 20.92123,17.84414l-0.09585,21.97453c0,0 -2.02259,15.22702 -15.01786,16.33732c-5.19917,0.44422 -12.96542,-3.26735 -12.96542,-3.26735l-0.20996,22.63136l-15.17802,-0.26847zM436.19052,142.78028c-8.58833,0.17528 -7.12202,15.67904 -7.12202,15.67904c0,0 -1.69261,15.04594 6.85647,15.06247c8.1016,0.01566 7.33632,-14.96517 7.33632,-14.96517c0,0 2.75966,-15.97698 -7.07076,-15.77635z" data-paper-data="{&quot;origPos&quot;:null,&quot;origRot&quot;:0,&quot;index&quot;:null}" fill="url(#color-25)" stroke="#000000" stroke-linecap="round"/><path d="M132.54045,292.80138l0.40169,36.00394c0,0 -0.80148,4.98298 5.81252,4.82968c5.94705,-0.13784 5.52571,-4.83272 5.52571,-4.83272l-0.40169,-36.00393l15.32659,-0.45491l1.05818,35.65096c0,0 -0.06424,5.49805 6.48879,5.14309c5.55155,-0.30071 5.14308,-6.48879 5.14308,-6.48879l-1.37158,-34.9747l14.30724,-1.09162l3.08696,36.59118c0,0 0.90989,18.42566 -20.42706,19.61467c-10.03683,0.55931 -15.16152,-5.21914 -15.16152,-5.21914c0,0 -6.95885,5.42872 -13.84549,5.41316c-22.90455,-0.05174 -21.51489,-17.03584 -21.51489,-17.03584l0.88161,-37.70943z" data-paper-data="{&quot;origPos&quot;:null,&quot;origRot&quot;:0,&quot;index&quot;:null}" fill="url(#color-26)" stroke="#000000" stroke-linecap="round"/></g></g></svg>