<svg version="1.1" xmlns="http://www.w3.org/2000/svg" xmlns:xlink="http://www.w3.org/1999/xlink" width="405.66591" height="210.02223" viewBox="0,0,405.66591,210.02223"><defs><linearGradient x1="207.90889" y1="149.41395" x2="207.00284" y2="195.47956" gradientTransform="translate(-199.25097,-180.14746) rotate(-1.1269) scale(1.00162,1.00162)" gradientUnits="userSpaceOnUse" id="color-1"><stop offset="0" stop-color="#ffffff"/><stop offset="1" stop-color="#e9e9e9"/></linearGradient><linearGradient x1="104.56154" y1="96.66284" x2="104.10389" y2="142.73508" gradientTransform="translate(-93.78922,-130.38882) rotate(-0.56931) scale(1.00163,1.00163)" gradientUnits="userSpaceOnUse" id="color-2"><stop offset="0" stop-color="#ffffff"/><stop offset="1" stop-color="#e9e9e9"/></linearGradient><linearGradient x1="156.90889" y1="145.41395" x2="156.00284" y2="191.47956" gradientTransform="translate(-148.0992,-177.14638) rotate(-1.1269) scale(1.00162,1.00162)" gradientUnits="userSpaceOnUse" id="color-3"><stop offset="0" stop-color="#ffffff"/><stop offset="1" stop-color="#e9e9e9"/></linearGradient><linearGradient x1="155.56154" y1="98.66284" x2="155.10389" y2="144.73508" gradientTransform="translate(-144.8899,-131.88442) rotate(-0.56931) scale(1.00163,1.00163)" gradientUnits="userSpaceOnUse" id="color-4"><stop offset="0" stop-color="#ffffff"/><stop offset="1" stop-color="#e9e9e9"/></linearGradient><linearGradient x1="156.56154" y1="193.66284" x2="156.10389" y2="239.73508" gradientTransform="translate(-146.83697,-227.02494) rotate(-0.56931) scale(1.00163,1.00163)" gradientUnits="userSpaceOnUse" id="color-5"><stop offset="0" stop-color="#ffffff"/><stop offset="1" stop-color="#e9e9e9"/></linearGradient><linearGradient x1="353.90889" y1="152.41395" x2="353.00284" y2="198.47956" gradientTransform="translate(-345.51896,-180.27573) rotate(-1.1269) scale(1.00162,1.00162)" gradientUnits="userSpaceOnUse" id="color-6"><stop offset="0" stop-color="#ffffff"/><stop offset="1" stop-color="#e9e9e9"/></linearGradient><linearGradient x1="305.56154" y1="151.66284" x2="305.10389" y2="197.73508" gradientTransform="translate(-295.65497,-183.4755) rotate(-0.56931) scale(1.00163,1.00163)" gradientUnits="userSpaceOnUse" id="color-7"><stop offset="0" stop-color="#ffffff"/><stop offset="1" stop-color="#e9e9e9"/></linearGradient><linearGradient x1="116.90889" y1="139.41395" x2="116.00284" y2="185.47956" gradientTransform="translate(-107.92377,-171.92575) rotate(-1.1269) scale(1.00162,1.00162)" gradientUnits="userSpaceOnUse" id="color-8"><stop offset="0" stop-color="#ffffff"/><stop offset="1" stop-color="#e9e9e9"/></linearGradient><linearGradient x1="60.56154" y1="144.66284" x2="60.10389" y2="190.73508" gradientTransform="translate(-50.19724,-178.90276) rotate(-0.56931) scale(1.00163,1.00163)" gradientUnits="userSpaceOnUse" id="color-9"><stop offset="0" stop-color="#ffffff"/><stop offset="1" stop-color="#e9e9e9"/></linearGradient><linearGradient x1="252.56154" y1="150.66284" x2="252.10389" y2="196.73508" gradientTransform="translate(-242.56107,-183.0014) rotate(-0.56931) scale(1.00163,1.00163)" gradientUnits="userSpaceOnUse" id="color-10"><stop offset="0" stop-color="#ffffff"/><stop offset="1" stop-color="#e9e9e9"/></linearGradient><linearGradient x1="209.90889" y1="101.41396" x2="209.00284" y2="147.47956" gradientTransform="translate(-200.30828,-132.03939) rotate(-1.1269) scale(1.00162,1.00162)" gradientUnits="userSpaceOnUse" id="color-11"><stop offset="0" stop-color="#ffffff"/><stop offset="1" stop-color="#e9e9e9"/></linearGradient><linearGradient x1="53.56154" y1="95.66284" x2="53.10389" y2="141.73508" gradientTransform="translate(-42.69849,-129.89481) rotate(-0.56931) scale(1.00163,1.00163)" gradientUnits="userSpaceOnUse" id="color-12"><stop offset="0" stop-color="#ffffff"/><stop offset="1" stop-color="#e9e9e9"/></linearGradient><linearGradient x1="311.90889" y1="104.41396" x2="311.00284" y2="150.47956" gradientTransform="translate(-302.51332,-133.0344) rotate(-1.1269) scale(1.00162,1.00162)" gradientUnits="userSpaceOnUse" id="color-13"><stop offset="0" stop-color="#ffffff"/><stop offset="1" stop-color="#e9e9e9"/></linearGradient><linearGradient x1="261.56154" y1="103.66284" x2="261.10389" y2="149.73508" gradientTransform="translate(-251.10756,-135.83738) rotate(-0.56931) scale(1.00163,1.00163)" gradientUnits="userSpaceOnUse" id="color-14"><stop offset="0" stop-color="#ffffff"/><stop offset="1" stop-color="#e9e9e9"/></linearGradient><linearGradient x1="356.56154" y1="102.66284" x2="356.10389" y2="148.73508" gradientTransform="translate(-346.24808,-133.89031) rotate(-0.56931) scale(1.00163,1.00163)" gradientUnits="userSpaceOnUse" id="color-15"><stop offset="0" stop-color="#ffffff"/><stop offset="1" stop-color="#e9e9e9"/></linearGradient><linearGradient x1="255.90889" y1="200.41396" x2="255.00284" y2="246.47956" gradientTransform="translate(-248.32429,-230.27489) rotate(-1.1269) scale(1.00162,1.00162)" gradientUnits="userSpaceOnUse" id="color-16"><stop offset="0" stop-color="#ffffff"/><stop offset="1" stop-color="#e9e9e9"/></linearGradient><linearGradient x1="207.56154" y1="200.66284" x2="207.10389" y2="246.73508" gradientTransform="translate(-197.98742,-233.52845) rotate(-0.56931) scale(1.00163,1.00163)" gradientUnits="userSpaceOnUse" id="color-17"><stop offset="0" stop-color="#ffffff"/><stop offset="1" stop-color="#e9e9e9"/></linearGradient><linearGradient x1="50.90889" y1="189.41396" x2="50.00284" y2="235.47956" gradientTransform="translate(-42.81428,-223.29742) rotate(-1.1269) scale(1.00162,1.00162)" gradientUnits="userSpaceOnUse" id="color-18"><stop offset="0" stop-color="#ffffff"/><stop offset="1" stop-color="#e9e9e9"/></linearGradient><linearGradient x1="404.56154" y1="152.66284" x2="404.10389" y2="198.73508" gradientTransform="translate(-394.82173,-183.49179) rotate(-0.56931) scale(1.00163,1.00163)" gradientUnits="userSpaceOnUse" id="color-19"><stop offset="0" stop-color="#ffffff"/><stop offset="1" stop-color="#e9e9e9"/></linearGradient><linearGradient x1="105.56154" y1="192.66284" x2="105.10389" y2="238.73508" gradientTransform="translate(-95.74624,-226.53093) rotate(-0.56931) scale(1.00163,1.00163)" gradientUnits="userSpaceOnUse" id="color-20"><stop offset="0" stop-color="#ffffff"/><stop offset="1" stop-color="#e9e9e9"/></linearGradient><linearGradient x1="408.90889" y1="101.41396" x2="408.00284" y2="147.47956" gradientTransform="translate(-399.59301,-128.11932) rotate(-1.1269) scale(1.00162,1.00162)" gradientUnits="userSpaceOnUse" id="color-21"><stop offset="0" stop-color="#ffffff"/><stop offset="1" stop-color="#e9e9e9"/></linearGradient><linearGradient x1="257.90889" y1="249.41396" x2="257.00284" y2="295.47956" gradientTransform="translate(-251.29239,-279.3056) rotate(-1.1269) scale(1.00162,1.00162)" gradientUnits="userSpaceOnUse" id="color-22"><stop offset="0" stop-color="#ffffff"/><stop offset="1" stop-color="#e9e9e9"/></linearGradient><linearGradient x1="205.56154" y1="248.66284" x2="205.10389" y2="294.73508" gradientTransform="translate(-196.46197,-281.62439) rotate(-0.56931) scale(1.00163,1.00163)" gradientUnits="userSpaceOnUse" id="color-23"><stop offset="0" stop-color="#ffffff"/><stop offset="1" stop-color="#e9e9e9"/></linearGradient><linearGradient x1="407.56154" y1="202.66284" x2="407.10389" y2="248.73508" gradientTransform="translate(-398.32411,-233.54113) rotate(-0.56931) scale(1.00163,1.00163)" gradientUnits="userSpaceOnUse" id="color-24"><stop offset="0" stop-color="#ffffff"/><stop offset="1" stop-color="#e9e9e9"/></linearGradient><linearGradient x1="351.90889" y1="199.41396" x2="351.00284" y2="245.47956" gradientTransform="translate(-344.44194,-227.38237) rotate(-1.1269) scale(1.00162,1.00162)" gradientUnits="userSpaceOnUse" id="color-25"><stop offset="0" stop-color="#ffffff"/><stop offset="1" stop-color="#e9e9e9"/></linearGradient><linearGradient x1="309.56154" y1="198.66284" x2="309.10389" y2="244.73508" gradientTransform="translate(-300.12907,-230.51014) rotate(-0.56931) scale(1.00163,1.00163)" gradientUnits="userSpaceOnUse" id="color-26"><stop offset="0" stop-color="#ffffff"/><stop offset="1" stop-color="#e9e9e9"/></linearGradient></defs><g transform="translate(-30.28559,-86.66828)"><g data-paper-data="{&quot;isPaintingLayer&quot;:true}" fill="none" fill-rule="nonzero" stroke="none" stroke-width="none" stroke-linecap="butt" stroke-linejoin="miter" stroke-miterlimit="10" stroke-dasharray="" stroke-dashoffset="0" font-family="none" font-weight="none" font-size="none" text-anchor="none" style="mix-blend-mode: normal"><g data-paper-data="{&quot;origPos&quot;:null,&quot;origRot&quot;:0}"><g data-paper-data="{&quot;origPos&quot;:null,&quot;origRot&quot;:0}" fill="#6289c4" stroke="#4666a8" stroke-width="1.5"><path d="M182.58067,182.15085c0.06565,-9.24946 0.10256,-14.45117 0.16822,-23.70062c0.03365,-4.74036 -0.03649,-9.69808 1.28902,-10.87229c1.32922,-1.69946 6.50449,-1.21958 11.43752,-1.18456c9.13386,0.06483 14.2705,0.10129 23.40436,0.16611c4.81745,0.0342 8.76494,-0.43264 10.82707,1.34259c1.88329,2.29922 1.46574,5.9706 1.43291,10.59533c-0.06483,9.13386 -0.10129,14.2705 -0.16611,23.40436c-0.03365,4.74036 0.1411,9.57056 -1.16908,11.04822c-1.18869,1.34067 -6.26313,1.04621 -10.96496,1.01283c0,0 -14.63178,-0.10385 -23.99688,-0.17032c-4.81745,-0.0342 -9.62255,0.76218 -11.17971,-0.99491c-1.70323,-1.9219 -1.11437,-6.13761 -1.08238,-10.64674z" data-paper-data="{&quot;origPos&quot;:null}"/></g><text transform="translate(195.35213,183.73279) rotate(1.1269) scale(0.99838,0.99838)" font-size="40" xml:space="preserve" data-paper-data="{&quot;origPos&quot;:null,&quot;origRot&quot;:-5.43838}" fill="url(#color-1)" fill-rule="nonzero" stroke="none" stroke-width="1" stroke-linecap="butt" stroke-linejoin="miter" stroke-miterlimit="10" stroke-dasharray="" stroke-dashoffset="0" font-family="Sans Serif" font-weight="normal" text-anchor="start" style="mix-blend-mode: normal"><tspan x="0" dy="0">L</tspan></text></g><g data-paper-data="{&quot;origPos&quot;:null,&quot;origRot&quot;:0}"><g data-paper-data="{&quot;origPos&quot;:null,&quot;origRot&quot;:0}" fill="#365799" stroke="#1d3972" stroke-width="1.5"><path d="M83.03548,128.22727c0.16537,-9.24822 0.25839,-14.44922 0.42376,-23.69743c0.08476,-4.73973 0.06809,-9.6979 1.40617,-10.85774c1.34747,-1.68503 6.51727,-1.14938 11.44964,-1.06118c9.13263,0.16331 14.26857,0.25516 23.40121,0.41846c4.81681,0.08613 8.7691,-0.3381 10.81197,1.45926c1.8584,2.3194 1.40127,5.98605 1.31859,10.61016c-0.16331,9.13263 -0.25516,14.26858 -0.41846,23.40121c-0.08476,4.73972 0.03789,9.57152 -1.28814,11.03497c-1.20308,1.32777 -6.27405,0.97862 -10.97523,0.89455c0,0 -14.62983,-0.26161 -23.99366,-0.42905c-4.81681,-0.08614 -9.63021,0.65837 -11.16833,-1.11541c-1.68241,-1.94016 -1.04814,-6.14927 -0.96752,-10.65779z" data-paper-data="{&quot;origPos&quot;:null}"/></g><text transform="translate(92.3382,131.10016) rotate(0.56931) scale(0.99837,0.99837)" font-size="40" xml:space="preserve" data-paper-data="{&quot;origPos&quot;:null,&quot;origRot&quot;:-5.43838}" fill="url(#color-2)" fill-rule="nonzero" stroke="none" stroke-width="1" stroke-linecap="butt" stroke-linejoin="miter" stroke-miterlimit="10" stroke-dasharray="" stroke-dashoffset="0" font-family="Sans Serif" font-weight="normal" text-anchor="start" style="mix-blend-mode: normal"><tspan x="0" dy="0">B</tspan></text></g><g data-paper-data="{&quot;origPos&quot;:null,&quot;origRot&quot;:0}"><g data-paper-data="{&quot;origPos&quot;:null,&quot;origRot&quot;:0}" fill="#6289c4" stroke="#4666a8" stroke-width="1.5"><path d="M131.58067,179.15085c0.06565,-9.24946 0.10256,-14.45117 0.16822,-23.70062c0.03365,-4.74036 -0.03649,-9.69808 1.28902,-10.87229c1.32922,-1.69946 6.50449,-1.21958 11.43752,-1.18456c9.13386,0.06483 14.2705,0.10129 23.40436,0.16611c4.81745,0.0342 8.76494,-0.43264 10.82707,1.34259c1.88329,2.29922 1.46574,5.9706 1.43291,10.59533c-0.06483,9.13386 -0.10129,14.2705 -0.16611,23.40436c-0.03365,4.74036 0.1411,9.57056 -1.16908,11.04822c-1.18869,1.34067 -6.26313,1.04621 -10.96496,1.01283c0,0 -14.63178,-0.10385 -23.99688,-0.17032c-4.81745,-0.0342 -9.62255,0.76218 -11.17971,-0.99491c-1.70323,-1.9219 -1.11437,-6.13761 -1.08238,-10.64674z" data-paper-data="{&quot;origPos&quot;:null}"/></g><text transform="translate(144.35213,179.73279) rotate(1.1269) scale(0.99838,0.99838)" font-size="40" xml:space="preserve" data-paper-data="{&quot;origPos&quot;:null,&quot;origRot&quot;:-5.43838}" fill="url(#color-3)" fill-rule="nonzero" stroke="none" stroke-width="1" stroke-linecap="butt" stroke-linejoin="miter" stroke-miterlimit="10" stroke-dasharray="" stroke-dashoffset="0" font-family="Sans Serif" font-weight="normal" text-anchor="start" style="mix-blend-mode: normal"><tspan x="0" dy="0">K</tspan></text></g><g data-paper-data="{&quot;origPos&quot;:null,&quot;origRot&quot;:0}"><g data-paper-data="{&quot;origPos&quot;:null,&quot;origRot&quot;:0}" fill="#365799" stroke="#1d3972" stroke-width="1.5"><path d="M134.03548,130.22727c0.16538,-9.24822 0.25839,-14.44922 0.42376,-23.69743c0.08476,-4.73973 0.06809,-9.6979 1.40617,-10.85774c1.34747,-1.68503 6.51727,-1.14938 11.44964,-1.06118c9.13263,0.16331 14.26857,0.25516 23.4012,0.41846c4.8168,0.08613 8.7691,-0.3381 10.81197,1.45926c1.8584,2.3194 1.40127,5.98605 1.31859,10.61016c-0.16331,9.13263 -0.25516,14.26858 -0.41846,23.40121c-0.08476,4.73972 0.03789,9.57152 -1.28814,11.03497c-1.20308,1.32777 -6.27405,0.97862 -10.97523,0.89455c0,0 -14.62982,-0.26161 -23.99365,-0.42905c-4.8168,-0.08614 -9.6302,0.65837 -11.16833,-1.11541c-1.68241,-1.94016 -1.04815,-6.14927 -0.96752,-10.65779z" data-paper-data="{&quot;origPos&quot;:null}"/></g><text transform="translate(143.3382,133.10016) rotate(0.56931) scale(0.99837,0.99837)" font-size="40" xml:space="preserve" data-paper-data="{&quot;origPos&quot;:null,&quot;origRot&quot;:-5.43838}" fill="url(#color-4)" fill-rule="nonzero" stroke="none" stroke-width="1" stroke-linecap="butt" stroke-linejoin="miter" stroke-miterlimit="10" stroke-dasharray="" stroke-dashoffset="0" font-family="Sans Serif" font-weight="normal" text-anchor="start" style="mix-blend-mode: normal"><tspan x="0" dy="0">C</tspan></text></g><g data-paper-data="{&quot;origPos&quot;:null}"><g data-paper-data="{&quot;origPos&quot;:null,&quot;origRot&quot;:0}" fill="#365799" stroke="#1d3972" stroke-width="1.5"><path d="M131.03548,225.22727c0.16538,-9.24821 0.25839,-14.44922 0.42376,-23.69743c0.08476,-4.73972 0.06809,-9.6979 1.40617,-10.85774c1.34747,-1.68503 6.51727,-1.14938 11.44964,-1.06118c9.13263,0.16331 14.26857,0.25516 23.4012,0.41846c4.8168,0.08614 8.7691,-0.3381 10.81197,1.45926c1.8584,2.3194 1.40127,5.98605 1.31859,10.61016c-0.16331,9.13263 -0.25516,14.26858 -0.41846,23.40121c-0.08476,4.73972 0.03789,9.57152 -1.28814,11.03497c-1.20308,1.32777 -6.27405,0.97862 -10.97523,0.89455c0,0 -14.62982,-0.26161 -23.99365,-0.42905c-4.8168,-0.08614 -9.6302,0.65837 -11.16833,-1.11541c-1.68241,-1.94016 -1.04815,-6.14927 -0.96752,-10.65779z" data-paper-data="{&quot;origPos&quot;:null}"/></g><text transform="translate(144.3382,228.10016) rotate(0.56931) scale(0.99837,0.99837)" font-size="40" xml:space="preserve" data-paper-data="{&quot;origPos&quot;:null,&quot;origRot&quot;:-5.43838}" fill="url(#color-5)" fill-rule="nonzero" stroke="none" stroke-width="1" stroke-linecap="butt" stroke-linejoin="miter" stroke-miterlimit="10" stroke-dasharray="" stroke-dashoffset="0" font-family="Sans Serif" font-weight="normal" text-anchor="start" style="mix-blend-mode: normal"><tspan x="0" dy="0">S</tspan></text></g><g data-paper-data="{&quot;origPos&quot;:null,&quot;origRot&quot;:0}"><g data-paper-data="{&quot;origPos&quot;:null,&quot;origRot&quot;:0}" fill="#6289c4" stroke="#4666a8" stroke-width="1.5"><path d="M331.58067,185.15085c0.06565,-9.24946 0.10256,-14.45117 0.16821,-23.70062c0.03365,-4.74036 -0.03649,-9.69808 1.28903,-10.87229c1.32922,-1.69946 6.50449,-1.21958 11.43752,-1.18456c9.13386,0.06483 14.27049,0.10129 23.40436,0.16611c4.81745,0.0342 8.76495,-0.43264 10.82707,1.34259c1.88329,2.29922 1.46574,5.9706 1.43291,10.59533c-0.06482,9.13386 -0.10129,14.2705 -0.16611,23.40436c-0.03365,4.74036 0.14111,9.57056 -1.16907,11.04822c-1.18869,1.34067 -6.26313,1.04621 -10.96496,1.01283c0,0 -14.63178,-0.10385 -23.99688,-0.17032c-4.81745,-0.0342 -9.62255,0.76218 -11.17971,-0.99491c-1.70322,-1.9219 -1.11437,-6.13761 -1.08238,-10.64674z" data-paper-data="{&quot;origPos&quot;:null}"/></g><text transform="translate(341.35213,186.73279) rotate(1.1269) scale(0.99838,0.99838)" font-size="40" xml:space="preserve" data-paper-data="{&quot;origPos&quot;:null,&quot;origRot&quot;:-5.43838}" fill="url(#color-6)" fill-rule="nonzero" stroke="none" stroke-width="1" stroke-linecap="butt" stroke-linejoin="miter" stroke-miterlimit="10" stroke-dasharray="" stroke-dashoffset="0" font-family="Sans Serif" font-weight="normal" text-anchor="start" style="mix-blend-mode: normal"><tspan x="0" dy="0">O</tspan></text></g><g data-paper-data="{&quot;origPos&quot;:null,&quot;origRot&quot;:0}"><g data-paper-data="{&quot;origPos&quot;:null,&quot;origRot&quot;:0}" fill="#365799" stroke="#1d3972" stroke-width="1.5"><path d="M284.03548,183.22727c0.16537,-9.24821 0.25838,-14.44922 0.42376,-23.69743c0.08475,-4.73972 0.06809,-9.6979 1.40618,-10.85774c1.34747,-1.68503 6.51727,-1.14938 11.44964,-1.06118c9.13263,0.16331 14.26857,0.25516 23.40121,0.41846c4.8168,0.08614 8.76911,-0.3381 10.81197,1.45926c1.85839,2.3194 1.40127,5.98605 1.31859,10.61016c-0.16331,9.13263 -0.25515,14.26858 -0.41846,23.40121c-0.08475,4.73972 0.03789,9.57152 -1.28814,11.03497c-1.20308,1.32777 -6.27405,0.97862 -10.97523,0.89455c0,0 -14.62983,-0.26161 -23.99366,-0.42905c-4.8168,-0.08614 -9.6302,0.65837 -11.16833,-1.11541c-1.68241,-1.94016 -1.04815,-6.14927 -0.96752,-10.65779z" data-paper-data="{&quot;origPos&quot;:null}"/></g><text transform="translate(293.3382,186.10016) rotate(0.56931) scale(0.99837,0.99837)" font-size="40" xml:space="preserve" data-paper-data="{&quot;origPos&quot;:null,&quot;origRot&quot;:-5.43838}" fill="url(#color-7)" fill-rule="nonzero" stroke="none" stroke-width="1" stroke-linecap="butt" stroke-linejoin="miter" stroke-miterlimit="10" stroke-dasharray="" stroke-dashoffset="0" font-family="Sans Serif" font-weight="normal" text-anchor="start" style="mix-blend-mode: normal"><tspan x="0" dy="0">N</tspan></text></g><g data-paper-data="{&quot;origPos&quot;:null,&quot;origRot&quot;:0}"><g data-paper-data="{&quot;origPos&quot;:null,&quot;origRot&quot;:0}" fill="#6289c4" stroke="#4666a8" stroke-width="1.5"><path d="M82.58067,177.15085c0.06565,-9.24946 0.10256,-14.45117 0.16822,-23.70062c0.03365,-4.74036 -0.03649,-9.69808 1.28902,-10.87229c1.32922,-1.69946 6.50449,-1.21958 11.43753,-1.18456c9.13386,0.06483 14.27049,0.10129 23.40436,0.16611c4.81745,0.0342 8.76495,-0.43264 10.82707,1.34259c1.88329,2.29922 1.46574,5.9706 1.43291,10.59533c-0.06483,9.13386 -0.10129,14.2705 -0.16611,23.40436c-0.03365,4.74036 0.1411,9.57056 -1.16908,11.04822c-1.18869,1.34067 -6.26313,1.04621 -10.96495,1.01283c0,0 -14.63179,-0.10385 -23.99688,-0.17032c-4.81745,-0.0342 -9.62255,0.76218 -11.1797,-0.99491c-1.70323,-1.9219 -1.11437,-6.13761 -1.08238,-10.64674z" data-paper-data="{&quot;origPos&quot;:null}"/></g><text transform="translate(104.35213,173.73279) rotate(1.1269) scale(0.99838,0.99838)" font-size="40" xml:space="preserve" data-paper-data="{&quot;origPos&quot;:null,&quot;origRot&quot;:-5.43838}" fill="url(#color-8)" fill-rule="nonzero" stroke="none" stroke-width="1" stroke-linecap="butt" stroke-linejoin="miter" stroke-miterlimit="10" stroke-dasharray="" stroke-dashoffset="0" font-family="Sans Serif" font-weight="normal" text-anchor="start" style="mix-blend-mode: normal"><tspan x="0" dy="0">J</tspan></text></g><g data-paper-data="{&quot;origPos&quot;:null,&quot;origRot&quot;:0}"><g data-paper-data="{&quot;origPos&quot;:null,&quot;origRot&quot;:0}" fill="#365799" stroke="#1d3972" stroke-width="1.5"><path d="M31.03548,176.22727c0.16538,-9.24821 0.25838,-14.44922 0.42376,-23.69743c0.08476,-4.73972 0.06809,-9.6979 1.40617,-10.85774c1.34747,-1.68503 6.51727,-1.14938 11.44964,-1.06118c9.13263,0.16331 14.26858,0.25516 23.40121,0.41846c4.81681,0.08614 8.7691,-0.3381 10.81197,1.45926c1.8584,2.3194 1.40127,5.98605 1.31859,10.61016c-0.16331,9.13263 -0.25516,14.26858 -0.41847,23.40121c-0.08476,4.73972 0.0379,9.57152 -1.28814,11.03497c-1.20309,1.32777 -6.27405,0.97862 -10.97523,0.89455c0,0 -14.62982,-0.26161 -23.99365,-0.42905c-4.81681,-0.08614 -9.63021,0.65837 -11.16833,-1.11541c-1.68241,-1.94016 -1.04814,-6.14927 -0.96752,-10.65779z" data-paper-data="{&quot;origPos&quot;:null}"/></g><text transform="translate(48.3382,179.10016) rotate(0.56931) scale(0.99837,0.99837)" font-size="40" xml:space="preserve" data-paper-data="{&quot;origPos&quot;:null,&quot;origRot&quot;:-5.43838}" fill="url(#color-9)" fill-rule="nonzero" stroke="none" stroke-width="1" stroke-linecap="butt" stroke-linejoin="miter" stroke-miterlimit="10" stroke-dasharray="" stroke-dashoffset="0" font-family="Sans Serif" font-weight="normal" text-anchor="start" style="mix-blend-mode: normal"><tspan x="0" dy="0">I</tspan></text></g><g data-paper-data="{&quot;origPos&quot;:null}"><g data-paper-data="{&quot;origPos&quot;:null,&quot;origRot&quot;:0}" fill="#365799" stroke="#1d3972" stroke-width="1.5"><path d="M236.03548,183.22727c0.16538,-9.24821 0.25839,-14.44922 0.42376,-23.69743c0.08476,-4.73972 0.06809,-9.6979 1.40617,-10.85774c1.34747,-1.68503 6.51727,-1.14938 11.44964,-1.06118c9.13263,0.16331 14.26857,0.25516 23.4012,0.41846c4.8168,0.08614 8.76911,-0.3381 10.81197,1.45926c1.85839,2.3194 1.40127,5.98605 1.31859,10.61016c-0.16331,9.13263 -0.25515,14.26858 -0.41846,23.40121c-0.08475,4.73972 0.03789,9.57152 -1.28814,11.03497c-1.20308,1.32777 -6.27405,0.97862 -10.97523,0.89455c0,0 -14.62983,-0.26161 -23.99366,-0.42905c-4.8168,-0.08614 -9.6302,0.65837 -11.16833,-1.11541c-1.68241,-1.94016 -1.04815,-6.14927 -0.96752,-10.65779z" data-paper-data="{&quot;origPos&quot;:null}"/></g><text transform="translate(240.3382,185.10016) rotate(0.56931) scale(0.99837,0.99837)" font-size="40" xml:space="preserve" data-paper-data="{&quot;origPos&quot;:null,&quot;origRot&quot;:-5.43838}" fill="url(#color-10)" fill-rule="nonzero" stroke="none" stroke-width="1" stroke-linecap="butt" stroke-linejoin="miter" stroke-miterlimit="10" stroke-dasharray="" stroke-dashoffset="0" font-family="Sans Serif" font-weight="normal" text-anchor="start" style="mix-blend-mode: normal"><tspan x="0" dy="0">M</tspan></text></g><g data-paper-data="{&quot;origPos&quot;:null,&quot;origRot&quot;:0}"><g data-paper-data="{&quot;origPos&quot;:null,&quot;origRot&quot;:0}" fill="#6289c4" stroke="#4666a8" stroke-width="1.5"><path d="M184.58067,133.15085c0.06565,-9.24946 0.10256,-14.45117 0.16822,-23.70062c0.03365,-4.74036 -0.03649,-9.69809 1.28902,-10.87229c1.32922,-1.69946 6.50449,-1.21958 11.43752,-1.18456c9.13386,0.06482 14.2705,0.10129 23.40436,0.16611c4.81745,0.03419 8.76494,-0.43264 10.82707,1.34259c1.88329,2.29922 1.46574,5.9706 1.43291,10.59533c-0.06483,9.13386 -0.10129,14.2705 -0.16611,23.40436c-0.03365,4.74036 0.1411,9.57056 -1.16908,11.04822c-1.18869,1.34067 -6.26313,1.04621 -10.96496,1.01283c0,0 -14.63178,-0.10385 -23.99688,-0.17032c-4.81745,-0.0342 -9.62255,0.76218 -11.17971,-0.99491c-1.70323,-1.9219 -1.11437,-6.13761 -1.08238,-10.64674z" data-paper-data="{&quot;origPos&quot;:null}"/></g><text transform="translate(197.35213,135.73279) rotate(1.1269) scale(0.99838,0.99838)" font-size="40" xml:space="preserve" data-paper-data="{&quot;origPos&quot;:null,&quot;origRot&quot;:-5.43838}" fill="url(#color-11)" fill-rule="nonzero" stroke="none" stroke-width="1" stroke-linecap="butt" stroke-linejoin="miter" stroke-miterlimit="10" stroke-dasharray="" stroke-dashoffset="0" font-family="Sans Serif" font-weight="normal" text-anchor="start" style="mix-blend-mode: normal"><tspan x="0" dy="0">D</tspan></text></g><g data-paper-data="{&quot;origPos&quot;:null,&quot;origRot&quot;:0}"><g data-paper-data="{&quot;origPos&quot;:null,&quot;origRot&quot;:0}" fill="#365799" stroke="#1d3972" stroke-width="1.5"><path d="M32.03548,127.22727c0.16537,-9.24822 0.25839,-14.44922 0.42376,-23.69743c0.08476,-4.73973 0.06809,-9.6979 1.40617,-10.85774c1.34747,-1.68503 6.51727,-1.14938 11.44964,-1.06118c9.13263,0.16331 14.26858,0.25516 23.40121,0.41846c4.81681,0.08613 8.7691,-0.3381 10.81197,1.45926c1.8584,2.3194 1.40127,5.98605 1.31859,10.61016c-0.16331,9.13263 -0.25516,14.26858 -0.41847,23.40121c-0.08476,4.73972 0.0379,9.57152 -1.28814,11.03497c-1.20309,1.32777 -6.27405,0.97862 -10.97523,0.89455c0,0 -14.62982,-0.26161 -23.99365,-0.42905c-4.81681,-0.08614 -9.63021,0.65837 -11.16833,-1.11541c-1.68241,-1.94016 -1.04815,-6.14928 -0.96752,-10.6578z" data-paper-data="{&quot;origPos&quot;:null}"/></g><text transform="translate(41.3382,130.10016) rotate(0.56931) scale(0.99837,0.99837)" font-size="40" xml:space="preserve" data-paper-data="{&quot;origPos&quot;:null,&quot;origRot&quot;:-5.43838}" fill="url(#color-12)" fill-rule="nonzero" stroke="none" stroke-width="1" stroke-linecap="butt" stroke-linejoin="miter" stroke-miterlimit="10" stroke-dasharray="" stroke-dashoffset="0" font-family="Sans Serif" font-weight="normal" text-anchor="start" style="mix-blend-mode: normal"><tspan x="0" dy="0">A</tspan></text></g><g data-paper-data="{&quot;origPos&quot;:null,&quot;origRot&quot;:0}"><g data-paper-data="{&quot;origPos&quot;:null,&quot;origRot&quot;:0}" fill="#6289c4" stroke="#4666a8" stroke-width="1.5"><path d="M286.58067,136.15085c0.06565,-9.24946 0.10256,-14.45117 0.16821,-23.70062c0.03365,-4.74036 -0.03649,-9.69809 1.28903,-10.87229c1.32922,-1.69946 6.50449,-1.21958 11.43752,-1.18456c9.13386,0.06482 14.27049,0.10129 23.40436,0.16611c4.81745,0.03419 8.76495,-0.43264 10.82707,1.34259c1.88329,2.29922 1.46574,5.9706 1.43291,10.59533c-0.06482,9.13386 -0.10129,14.2705 -0.16611,23.40436c-0.03365,4.74036 0.14111,9.57056 -1.16907,11.04822c-1.18869,1.34067 -6.26313,1.04621 -10.96496,1.01283c0,0 -14.63178,-0.10385 -23.99688,-0.17032c-4.81745,-0.0342 -9.62255,0.76218 -11.17971,-0.99491c-1.70322,-1.9219 -1.11437,-6.13761 -1.08238,-10.64674z" data-paper-data="{&quot;origPos&quot;:null}"/></g><text transform="translate(299.35213,138.73279) rotate(1.1269) scale(0.99838,0.99838)" font-size="40" xml:space="preserve" data-paper-data="{&quot;origPos&quot;:null,&quot;origRot&quot;:-5.43838}" fill="url(#color-13)" fill-rule="nonzero" stroke="none" stroke-width="1" stroke-linecap="butt" stroke-linejoin="miter" stroke-miterlimit="10" stroke-dasharray="" stroke-dashoffset="0" font-family="Sans Serif" font-weight="normal" text-anchor="start" style="mix-blend-mode: normal"><tspan x="0" dy="0">F</tspan></text></g><g data-paper-data="{&quot;origPos&quot;:null,&quot;origRot&quot;:0}"><g data-paper-data="{&quot;origPos&quot;:null,&quot;origRot&quot;:0}" fill="#365799" stroke="#1d3972" stroke-width="1.5"><path d="M236.03548,134.22727c0.16538,-9.24822 0.25839,-14.44922 0.42376,-23.69743c0.08476,-4.73973 0.06809,-9.6979 1.40617,-10.85774c1.34747,-1.68503 6.51727,-1.14938 11.44964,-1.06118c9.13263,0.16331 14.26857,0.25516 23.4012,0.41846c4.8168,0.08613 8.76911,-0.3381 10.81197,1.45926c1.85839,2.3194 1.40127,5.98605 1.31859,10.61016c-0.16331,9.13263 -0.25515,14.26858 -0.41846,23.40121c-0.08475,4.73972 0.03789,9.57152 -1.28814,11.03497c-1.20308,1.32777 -6.27405,0.97862 -10.97523,0.89455c0,0 -14.62983,-0.26161 -23.99366,-0.42905c-4.8168,-0.08614 -9.6302,0.65837 -11.16833,-1.11541c-1.68241,-1.94016 -1.04815,-6.14927 -0.96752,-10.65779z" data-paper-data="{&quot;origPos&quot;:null}"/></g><text transform="translate(249.3382,138.10016) rotate(0.56931) scale(0.99837,0.99837)" font-size="40" xml:space="preserve" data-paper-data="{&quot;origPos&quot;:null,&quot;origRot&quot;:-5.43838}" fill="url(#color-14)" fill-rule="nonzero" stroke="none" stroke-width="1" stroke-linecap="butt" stroke-linejoin="miter" stroke-miterlimit="10" stroke-dasharray="" stroke-dashoffset="0" font-family="Sans Serif" font-weight="normal" text-anchor="start" style="mix-blend-mode: normal"><tspan x="0" dy="0">E</tspan></text></g><g data-paper-data="{&quot;origPos&quot;:null}"><g data-paper-data="{&quot;origPos&quot;:null,&quot;origRot&quot;:0}" fill="#365799" stroke="#1d3972" stroke-width="1.5"><path d="M336.03548,136.22727c0.16537,-9.24822 0.25838,-14.44922 0.42376,-23.69743c0.08475,-4.73973 0.06809,-9.6979 1.40618,-10.85774c1.34747,-1.68503 6.51727,-1.14938 11.44964,-1.06118c9.13263,0.16331 14.26857,0.25516 23.40121,0.41846c4.8168,0.08613 8.76911,-0.3381 10.81197,1.45926c1.85839,2.3194 1.40127,5.98605 1.31859,10.61016c-0.16331,9.13263 -0.25515,14.26858 -0.41846,23.40121c-0.08475,4.73972 0.03789,9.57152 -1.28814,11.03497c-1.20308,1.32777 -6.27405,0.97862 -10.97523,0.89455c0,0 -14.62983,-0.26161 -23.99366,-0.42905c-4.8168,-0.08614 -9.6302,0.65837 -11.16833,-1.11541c-1.68241,-1.94016 -1.04815,-6.14927 -0.96752,-10.65779z" data-paper-data="{&quot;origPos&quot;:null}"/></g><text transform="translate(344.3382,137.10016) rotate(0.56931) scale(0.99837,0.99837)" font-size="40" xml:space="preserve" data-paper-data="{&quot;origPos&quot;:null,&quot;origRot&quot;:-5.43838}" fill="url(#color-15)" fill-rule="nonzero" stroke="none" stroke-width="1" stroke-linecap="butt" stroke-linejoin="miter" stroke-miterlimit="10" stroke-dasharray="" stroke-dashoffset="0" font-family="Sans Serif" font-weight="normal" text-anchor="start" style="mix-blend-mode: normal"><tspan x="0" dy="0">G</tspan></text></g><g data-paper-data="{&quot;origPos&quot;:null,&quot;origRot&quot;:0}"><g data-paper-data="{&quot;origPos&quot;:null,&quot;origRot&quot;:0}" fill="#6289c4" stroke="#4666a8" stroke-width="1.5"><path d="M236.58067,232.15085c0.06565,-9.24946 0.10256,-14.45117 0.16822,-23.70062c0.03365,-4.74036 -0.03649,-9.69808 1.28902,-10.87229c1.32922,-1.69946 6.50449,-1.21958 11.43752,-1.18456c9.13386,0.06483 14.2705,0.10129 23.40436,0.16611c4.81745,0.0342 8.76495,-0.43264 10.82707,1.34259c1.88329,2.29922 1.46574,5.9706 1.43291,10.59533c-0.06482,9.13386 -0.10129,14.2705 -0.16611,23.40436c-0.03365,4.74036 0.14111,9.57056 -1.16907,11.04822c-1.18869,1.34067 -6.26313,1.04621 -10.96496,1.01283c0,0 -14.63178,-0.10385 -23.99688,-0.17032c-4.81745,-0.0342 -9.62255,0.76218 -11.17971,-0.99491c-1.70323,-1.9219 -1.11437,-6.13761 -1.08238,-10.64674z" data-paper-data="{&quot;origPos&quot;:null}"/></g><text transform="translate(243.35213,234.73279) rotate(1.1269) scale(0.99838,0.99838)" font-size="40" xml:space="preserve" data-paper-data="{&quot;origPos&quot;:null,&quot;origRot&quot;:-5.43838}" fill="url(#color-16)" fill-rule="nonzero" stroke="none" stroke-width="1" stroke-linecap="butt" stroke-linejoin="miter" stroke-miterlimit="10" stroke-dasharray="" stroke-dashoffset="0" font-family="Sans Serif" font-weight="normal" text-anchor="start" style="mix-blend-mode: normal"><tspan x="0" dy="0">U</tspan></text></g><g data-paper-data="{&quot;origPos&quot;:null,&quot;origRot&quot;:0}"><g data-paper-data="{&quot;origPos&quot;:null,&quot;origRot&quot;:0}" fill="#365799" stroke="#1d3972" stroke-width="1.5"><path d="M182.03548,232.22727c0.16538,-9.24821 0.25839,-14.44922 0.42376,-23.69743c0.08476,-4.73972 0.06809,-9.6979 1.40617,-10.85774c1.34747,-1.68503 6.51727,-1.14938 11.44964,-1.06118c9.13263,0.16331 14.26857,0.25516 23.4012,0.41846c4.8168,0.08614 8.7691,-0.3381 10.81197,1.45926c1.8584,2.3194 1.40127,5.98605 1.31859,10.61016c-0.16331,9.13263 -0.25516,14.26858 -0.41846,23.40121c-0.08476,4.73972 0.03789,9.57152 -1.28814,11.03497c-1.20308,1.32777 -6.27405,0.97862 -10.97523,0.89455c0,0 -14.62982,-0.26161 -23.99365,-0.42905c-4.8168,-0.08614 -9.6302,0.65837 -11.16833,-1.11541c-1.68241,-1.94016 -1.04815,-6.14927 -0.96752,-10.65779z" data-paper-data="{&quot;origPos&quot;:null}"/></g><text transform="translate(195.3382,235.10016) rotate(0.56931) scale(0.99837,0.99837)" font-size="40" xml:space="preserve" data-paper-data="{&quot;origPos&quot;:null,&quot;origRot&quot;:-5.43838}" fill="url(#color-17)" fill-rule="nonzero" stroke="none" stroke-width="1" stroke-linecap="butt" stroke-linejoin="miter" stroke-miterlimit="10" stroke-dasharray="" stroke-dashoffset="0" font-family="Sans Serif" font-weight="normal" text-anchor="start" style="mix-blend-mode: normal"><tspan x="0" dy="0">T</tspan></text></g><g data-paper-data="{&quot;origPos&quot;:null,&quot;origRot&quot;:0}"><g data-paper-data="{&quot;origPos&quot;:null,&quot;origRot&quot;:0}" fill="#6289c4" stroke="#4666a8" stroke-width="1.5"><path d="M31.58067,224.15085c0.06565,-9.24946 0.10256,-14.45117 0.16822,-23.70062c0.03365,-4.74036 -0.03649,-9.69808 1.28903,-10.87229c1.32922,-1.69946 6.50449,-1.21958 11.43753,-1.18456c9.13386,0.06483 14.27049,0.10129 23.40436,0.16611c4.81745,0.0342 8.76495,-0.43264 10.82707,1.34259c1.88329,2.29922 1.46574,5.9706 1.43291,10.59533c-0.06482,9.13386 -0.1013,14.2705 -0.16611,23.40436c-0.03365,4.74036 0.14111,9.57056 -1.16907,11.04822c-1.18869,1.34067 -6.26313,1.04621 -10.96496,1.01283c0,0 -14.63179,-0.10385 -23.99688,-0.17032c-4.81746,-0.0342 -9.62255,0.76218 -11.1797,-0.99491c-1.70322,-1.9219 -1.11437,-6.13761 -1.08238,-10.64674z" data-paper-data="{&quot;origPos&quot;:null}"/></g><text transform="translate(38.35213,223.73279) rotate(1.1269) scale(0.99838,0.99838)" font-size="40" xml:space="preserve" data-paper-data="{&quot;origPos&quot;:null,&quot;origRot&quot;:-5.43838}" fill="url(#color-18)" fill-rule="nonzero" stroke="none" stroke-width="1" stroke-linecap="butt" stroke-linejoin="miter" stroke-miterlimit="10" stroke-dasharray="" stroke-dashoffset="0" font-family="Sans Serif" font-weight="normal" text-anchor="start" style="mix-blend-mode: normal"><tspan x="0" dy="0">Q</tspan></text></g><g data-paper-data="{&quot;origPos&quot;:null,&quot;origRot&quot;:0}"><g data-paper-data="{&quot;origPos&quot;:null,&quot;origRot&quot;:0}" fill="#365799" stroke="#1d3972" stroke-width="1.5"><path d="M383.03548,184.22727c0.16537,-9.24821 0.25838,-14.44922 0.42376,-23.69743c0.08475,-4.73972 0.06809,-9.6979 1.40618,-10.85774c1.34747,-1.68503 6.51727,-1.14938 11.44964,-1.06118c9.13263,0.16331 14.26857,0.25516 23.40121,0.41846c4.8168,0.08614 8.76911,-0.3381 10.81197,1.45926c1.85839,2.3194 1.40127,5.98605 1.31859,10.61016c-0.16331,9.13263 -0.25515,14.26858 -0.41846,23.40121c-0.08475,4.73972 0.03789,9.57152 -1.28814,11.03497c-1.20308,1.32777 -6.27405,0.97862 -10.97523,0.89455c0,0 -14.62983,-0.26161 -23.99366,-0.42905c-4.8168,-0.08614 -9.6302,0.65837 -11.16833,-1.11541c-1.68241,-1.94016 -1.04815,-6.14927 -0.96752,-10.65779z" data-paper-data="{&quot;origPos&quot;:null}"/></g><text transform="translate(392.3382,187.10016) rotate(0.56931) scale(0.99837,0.99837)" font-size="40" xml:space="preserve" data-paper-data="{&quot;origPos&quot;:null,&quot;origRot&quot;:-5.43838}" fill="url(#color-19)" fill-rule="nonzero" stroke="none" stroke-width="1" stroke-linecap="butt" stroke-linejoin="miter" stroke-miterlimit="10" stroke-dasharray="" stroke-dashoffset="0" font-family="Sans Serif" font-weight="normal" text-anchor="start" style="mix-blend-mode: normal"><tspan x="0" dy="0">P</tspan></text></g><g data-paper-data="{&quot;origPos&quot;:null}"><g data-paper-data="{&quot;origPos&quot;:null,&quot;origRot&quot;:0}" fill="#365799" stroke="#1d3972" stroke-width="1.5"><path d="M82.03548,224.22727c0.16537,-9.24821 0.25839,-14.44922 0.42376,-23.69743c0.08476,-4.73972 0.06809,-9.6979 1.40617,-10.85774c1.34747,-1.68503 6.51727,-1.14938 11.44964,-1.06118c9.13263,0.16331 14.26857,0.25516 23.40121,0.41846c4.81681,0.08614 8.7691,-0.3381 10.81197,1.45926c1.8584,2.3194 1.40127,5.98605 1.31859,10.61016c-0.16331,9.13263 -0.25516,14.26858 -0.41846,23.40121c-0.08476,4.73972 0.03789,9.57152 -1.28814,11.03497c-1.20309,1.32777 -6.27405,0.97862 -10.97523,0.89455c0,0 -14.62983,-0.26161 -23.99366,-0.42905c-4.81681,-0.08614 -9.63021,0.65837 -11.16833,-1.11541c-1.68241,-1.94016 -1.04814,-6.14927 -0.96752,-10.65779z" data-paper-data="{&quot;origPos&quot;:null}"/></g><text transform="translate(93.3382,227.10016) rotate(0.56931) scale(0.99837,0.99837)" font-size="40" xml:space="preserve" data-paper-data="{&quot;origPos&quot;:null,&quot;origRot&quot;:-5.43838}" fill="url(#color-20)" fill-rule="nonzero" stroke="none" stroke-width="1" stroke-linecap="butt" stroke-linejoin="miter" stroke-miterlimit="10" stroke-dasharray="" stroke-dashoffset="0" font-family="Sans Serif" font-weight="normal" text-anchor="start" style="mix-blend-mode: normal"><tspan x="0" dy="0">R</tspan></text></g><g data-paper-data="{&quot;origPos&quot;:null,&quot;origRot&quot;:0}"><g data-paper-data="{&quot;origPos&quot;:null,&quot;origRot&quot;:0}" fill="#6289c4" stroke="#4666a8" stroke-width="1.5"><path d="M386.58067,135.15085c0.06565,-9.24946 0.10256,-14.45117 0.16821,-23.70062c0.03365,-4.74036 -0.03649,-9.69809 1.28903,-10.87229c1.32922,-1.69946 6.50449,-1.21958 11.43752,-1.18456c9.13386,0.06482 14.27049,0.10129 23.40436,0.16611c4.81745,0.03419 8.76495,-0.43264 10.82707,1.34259c1.88329,2.29922 1.46574,5.9706 1.43291,10.59533c-0.06482,9.13386 -0.10129,14.2705 -0.16611,23.40436c-0.03365,4.74036 0.14111,9.57056 -1.16907,11.04822c-1.18869,1.34067 -6.26313,1.04621 -10.96496,1.01283c0,0 -14.63178,-0.10385 -23.99688,-0.17032c-4.81745,-0.0342 -9.62255,0.76218 -11.17971,-0.99491c-1.70322,-1.9219 -1.11437,-6.13761 -1.08238,-10.64674z" data-paper-data="{&quot;origPos&quot;:null}"/></g><text transform="translate(396.35213,135.73279) rotate(1.1269) scale(0.99838,0.99838)" font-size="40" xml:space="preserve" data-paper-data="{&quot;origPos&quot;:null,&quot;origRot&quot;:-5.43838}" fill="url(#color-21)" fill-rule="nonzero" stroke="none" stroke-width="1" stroke-linecap="butt" stroke-linejoin="miter" stroke-miterlimit="10" stroke-dasharray="" stroke-dashoffset="0" font-family="Sans Serif" font-weight="normal" text-anchor="start" style="mix-blend-mode: normal"><tspan x="0" dy="0">H</tspan></text></g><g data-paper-data="{&quot;origPos&quot;:null,&quot;origRot&quot;:0}"><g data-paper-data="{&quot;origPos&quot;:null,&quot;origRot&quot;:0}" fill="#6289c4" stroke="#4666a8" stroke-width="1.5"><path d="M232.58067,281.15085c0.06565,-9.24946 0.10256,-14.45117 0.16822,-23.70062c0.03365,-4.74036 -0.03649,-9.69808 1.28902,-10.87229c1.32922,-1.69946 6.50449,-1.21958 11.43752,-1.18456c9.13386,0.06483 14.2705,0.10129 23.40436,0.16611c4.81745,0.0342 8.76495,-0.43264 10.82707,1.34259c1.88329,2.29922 1.46574,5.9706 1.43291,10.59532c-0.06482,9.13386 -0.10129,14.27049 -0.16611,23.40436c-0.03365,4.74036 0.14111,9.57056 -1.16907,11.04822c-1.18869,1.34067 -6.26313,1.04621 -10.96496,1.01283c0,0 -14.63178,-0.10385 -23.99688,-0.17032c-4.81745,-0.0342 -9.62255,0.76218 -11.17971,-0.99491c-1.70323,-1.9219 -1.11437,-6.13762 -1.08238,-10.64674z" data-paper-data="{&quot;origPos&quot;:null}"/></g><text transform="translate(245.35213,283.73279) rotate(1.1269) scale(0.99838,0.99838)" font-size="40" xml:space="preserve" data-paper-data="{&quot;origPos&quot;:null,&quot;origRot&quot;:-5.43838}" fill="url(#color-22)" fill-rule="nonzero" stroke="none" stroke-width="1" stroke-linecap="butt" stroke-linejoin="miter" stroke-miterlimit="10" stroke-dasharray="" stroke-dashoffset="0" font-family="Sans Serif" font-weight="normal" text-anchor="start" style="mix-blend-mode: normal"><tspan x="0" dy="0">Z</tspan></text></g><g data-paper-data="{&quot;origPos&quot;:null,&quot;origRot&quot;:0}"><g data-paper-data="{&quot;origPos&quot;:null,&quot;origRot&quot;:0}" fill="#365799" stroke="#1d3972" stroke-width="1.5"><path d="M181.03548,280.22727c0.16538,-9.24822 0.25839,-14.44921 0.42376,-23.69743c0.08476,-4.73972 0.06809,-9.6979 1.40617,-10.85774c1.34747,-1.68503 6.51727,-1.14938 11.44964,-1.06118c9.13263,0.16331 14.26857,0.25516 23.4012,0.41846c4.8168,0.08614 8.7691,-0.3381 10.81197,1.45926c1.8584,2.3194 1.40127,5.98605 1.31859,10.61016c-0.16331,9.13263 -0.25516,14.26858 -0.41846,23.40121c-0.08476,4.73973 0.03789,9.57152 -1.28814,11.03497c-1.20308,1.32777 -6.27405,0.97862 -10.97523,0.89455c0,0 -14.62982,-0.26161 -23.99365,-0.42906c-4.8168,-0.08614 -9.6302,0.65837 -11.16833,-1.11541c-1.68241,-1.94016 -1.04815,-6.14927 -0.96752,-10.65779z" data-paper-data="{&quot;origPos&quot;:null}"/></g><text transform="translate(193.3382,283.10016) rotate(0.56931) scale(0.99837,0.99837)" font-size="40" xml:space="preserve" data-paper-data="{&quot;origPos&quot;:null,&quot;origRot&quot;:-5.43838}" fill="url(#color-23)" fill-rule="nonzero" stroke="none" stroke-width="1" stroke-linecap="butt" stroke-linejoin="miter" stroke-miterlimit="10" stroke-dasharray="" stroke-dashoffset="0" font-family="Sans Serif" font-weight="normal" text-anchor="start" style="mix-blend-mode: normal"><tspan x="0" dy="0">Y</tspan></text></g><g data-paper-data="{&quot;origPos&quot;:null,&quot;origRot&quot;:0}"><g data-paper-data="{&quot;origPos&quot;:null,&quot;origRot&quot;:0}" fill="#365799" stroke="#1d3972" stroke-width="1.5"><path d="M384.03548,234.22727c0.16537,-9.24821 0.25838,-14.44922 0.42376,-23.69743c0.08475,-4.73972 0.06809,-9.6979 1.40618,-10.85774c1.34747,-1.68503 6.51727,-1.14938 11.44964,-1.06118c9.13263,0.16331 14.26857,0.25516 23.40121,0.41846c4.8168,0.08614 8.76911,-0.3381 10.81197,1.45926c1.85839,2.3194 1.40127,5.98605 1.31859,10.61016c-0.16331,9.13263 -0.25515,14.26858 -0.41846,23.40121c-0.08475,4.73972 0.03789,9.57152 -1.28814,11.03497c-1.20308,1.32777 -6.27405,0.97862 -10.97523,0.89455c0,0 -14.62983,-0.26161 -23.99366,-0.42905c-4.8168,-0.08614 -9.6302,0.65837 -11.16833,-1.11541c-1.68241,-1.94016 -1.04815,-6.14927 -0.96752,-10.65779z" data-paper-data="{&quot;origPos&quot;:null}"/></g><text transform="translate(395.3382,237.10016) rotate(0.56931) scale(0.99837,0.99837)" font-size="40" xml:space="preserve" data-paper-data="{&quot;origPos&quot;:null,&quot;origRot&quot;:-5.43838}" fill="url(#color-24)" fill-rule="nonzero" stroke="none" stroke-width="1" stroke-linecap="butt" stroke-linejoin="miter" stroke-miterlimit="10" stroke-dasharray="" stroke-dashoffset="0" font-family="Sans Serif" font-weight="normal" text-anchor="start" style="mix-blend-mode: normal"><tspan x="0" dy="0">X</tspan></text></g><g data-paper-data="{&quot;origPos&quot;:null,&quot;origRot&quot;:0}"><g data-paper-data="{&quot;origPos&quot;:null,&quot;origRot&quot;:0}" fill="#6289c4" stroke="#4666a8" stroke-width="1.5"><path d="M335.58067,230.15085c0.06565,-9.24946 0.10256,-14.45117 0.16821,-23.70062c0.03365,-4.74036 -0.03649,-9.69808 1.28903,-10.87229c1.32922,-1.69946 6.50449,-1.21958 11.43752,-1.18456c9.13386,0.06483 14.27049,0.10129 23.40436,0.16611c4.81745,0.0342 8.76495,-0.43264 10.82707,1.34259c1.88329,2.29922 1.46574,5.9706 1.43291,10.59533c-0.06482,9.13386 -0.10129,14.2705 -0.16611,23.40436c-0.03365,4.74036 0.14111,9.57056 -1.16907,11.04822c-1.18869,1.34067 -6.26313,1.04621 -10.96496,1.01283c0,0 -14.63178,-0.10385 -23.99688,-0.17032c-4.81745,-0.0342 -9.62255,0.76218 -11.17971,-0.99491c-1.70322,-1.9219 -1.11437,-6.13761 -1.08238,-10.64674z" data-paper-data="{&quot;origPos&quot;:null}"/></g><text transform="translate(339.35213,233.73279) rotate(1.1269) scale(0.99838,0.99838)" font-size="40" xml:space="preserve" data-paper-data="{&quot;origPos&quot;:null,&quot;origRot&quot;:-5.43838}" fill="url(#color-25)" fill-rule="nonzero" stroke="none" stroke-width="1" stroke-linecap="butt" stroke-linejoin="miter" stroke-miterlimit="10" stroke-dasharray="" stroke-dashoffset="0" font-family="Sans Serif" font-weight="normal" text-anchor="start" style="mix-blend-mode: normal"><tspan x="0" dy="0">W</tspan></text></g><g data-paper-data="{&quot;origPos&quot;:null,&quot;origRot&quot;:0}"><g data-paper-data="{&quot;origPos&quot;:null,&quot;origRot&quot;:0}" fill="#365799" stroke="#1d3972" stroke-width="1.5"><path d="M284.03548,229.22727c0.16537,-9.24821 0.25838,-14.44922 0.42376,-23.69743c0.08475,-4.73972 0.06809,-9.6979 1.40618,-10.85774c1.34747,-1.68503 6.51727,-1.14938 11.44964,-1.06118c9.13263,0.16331 14.26857,0.25516 23.40121,0.41846c4.8168,0.08614 8.76911,-0.3381 10.81197,1.45926c1.85839,2.3194 1.40127,5.98605 1.31859,10.61016c-0.16331,9.13263 -0.25515,14.26858 -0.41846,23.40121c-0.08475,4.73972 0.03789,9.57152 -1.28814,11.03497c-1.20308,1.32777 -6.27405,0.97862 -10.97523,0.89455c0,0 -14.62983,-0.26161 -23.99366,-0.42905c-4.8168,-0.08614 -9.6302,0.65837 -11.16833,-1.11541c-1.68241,-1.94016 -1.04815,-6.14927 -0.96752,-10.65779z" data-paper-data="{&quot;origPos&quot;:null}"/></g><text transform="translate(297.3382,233.10016) rotate(0.56931) scale(0.99837,0.99837)" font-size="40" xml:space="preserve" data-paper-data="{&quot;origPos&quot;:null,&quot;origRot&quot;:-5.43838}" fill="url(#color-26)" fill-rule="nonzero" stroke="none" stroke-width="1" stroke-linecap="butt" stroke-linejoin="miter" stroke-miterlimit="10" stroke-dasharray="" stroke-dashoffset="0" font-family="Sans Serif" font-weight="normal" text-anchor="start" style="mix-blend-mode: normal"><tspan x="0" dy="0">V</tspan></text></g></g></g></svg>