<svg version="1.1" xmlns="http://www.w3.org/2000/svg" xmlns:xlink="http://www.w3.org/1999/xlink" width="351.92803" height="236.67823" viewBox="0,0,351.92803,236.67823"><defs><linearGradient x1="387.31342" y1="136.38919" x2="415.62439" y2="115.35275" gradientUnits="userSpaceOnUse" id="color-1"><stop offset="0" stop-color="#de141f"/><stop offset="1" stop-color="#4a1517"/></linearGradient><linearGradient x1="344.76347" y1="154.25734" x2="338.20409" y2="192.02186" gradientUnits="userSpaceOnUse" id="color-2"><stop offset="0" stop-color="#de141f"/><stop offset="1" stop-color="#4a1517"/></linearGradient><linearGradient x1="367.56658" y1="158.17205" x2="377.70156" y2="195.13779" gradientUnits="userSpaceOnUse" id="color-3"><stop offset="0" stop-color="#de141f"/><stop offset="1" stop-color="#4a1517"/></linearGradient><linearGradient x1="337.85511" y1="123.64116" x2="322.66928" y2="91.80669" gradientUnits="userSpaceOnUse" id="color-4"><stop offset="0" stop-color="#de141f"/><stop offset="1" stop-color="#4a1517"/></linearGradient><linearGradient x1="105.66099" y1="133.94441" x2="105.66099" y2="219.27775" gradientUnits="userSpaceOnUse" id="color-5"><stop offset="0" stop-color="#eb5746"/><stop offset="1" stop-color="#e62628"/></linearGradient><linearGradient x1="163.58861" y1="139.27775" x2="163.58861" y2="197.02075" gradientUnits="userSpaceOnUse" id="color-6"><stop offset="0" stop-color="#f8b148"/><stop offset="1" stop-color="#f28f1e"/></linearGradient><linearGradient x1="230.64212" y1="132.26937" x2="230.64212" y2="188.27775" gradientUnits="userSpaceOnUse" id="color-7"><stop offset="0" stop-color="#fdda62"/><stop offset="1" stop-color="#fcc618"/></linearGradient><linearGradient x1="297.02348" y1="117.27776" x2="297.02348" y2="195.57612" gradientUnits="userSpaceOnUse" id="color-8"><stop offset="0" stop-color="#b8d166"/><stop offset="1" stop-color="#8abf49"/></linearGradient><linearGradient x1="346.6449" y1="151.10307" x2="346.6449" y2="206.6438" gradientUnits="userSpaceOnUse" id="color-9"><stop offset="0" stop-color="#7db9e1"/><stop offset="1" stop-color="#50aede"/></linearGradient><linearGradient x1="389.82765" y1="168.76612" x2="389.82765" y2="217.94442" gradientUnits="userSpaceOnUse" id="color-10"><stop offset="0" stop-color="#986ead"/><stop offset="1" stop-color="#7664a9"/></linearGradient><linearGradient x1="171.05095" y1="210.28514" x2="182.48018" y2="265.33091" gradientTransform="translate(-84.89416,-228.34358) rotate(10.20721) scale(0.77203,0.82511) skewX(-0.87056)" gradientUnits="userSpaceOnUse" id="color-11"><stop offset="0" stop-color="#ffffff"/><stop offset="1" stop-color="#e9e9e9"/></linearGradient><linearGradient x1="315.21948" y1="217.30243" x2="297.36581" y2="270.438" gradientTransform="translate(-272.8573,-129.77352) rotate(-18.19112) scale(0.77203,0.82511) skewX(-0.87067)" gradientUnits="userSpaceOnUse" id="color-12"><stop offset="0" stop-color="#ffffff"/><stop offset="1" stop-color="#e9e9e9"/></linearGradient><linearGradient x1="237.29409" y1="205.4326" x2="235.79408" y2="261.32001" gradientTransform="translate(-175.41401,-196.8827) rotate(-2.25252) scale(0.77203,0.8251) skewX(-0.87069)" gradientUnits="userSpaceOnUse" id="color-13"><stop offset="0" stop-color="#ffffff"/><stop offset="1" stop-color="#e9e9e9"/></linearGradient><linearGradient x1="95.70155" y1="232.21181" x2="119.60578" y2="283.7896" gradientTransform="translate(20.38531,-238.82767) rotate(22.75422) scale(0.77204,0.82511) skewX(-0.87064)" gradientUnits="userSpaceOnUse" id="color-14"><stop offset="0" stop-color="#ffffff"/><stop offset="1" stop-color="#e9e9e9"/></linearGradient></defs><g transform="translate(-69.16099,-57.96305)"><g data-paper-data="{&quot;isPaintingLayer&quot;:true}" fill-rule="nonzero" stroke-linejoin="miter" stroke-miterlimit="10" stroke-dasharray="" stroke-dashoffset="0" style="mix-blend-mode: normal"><path d="M293.8113,106.37943c2.68614,19.14242 -33.48794,40.04206 -80.79707,46.68066c-47.30912,6.6386 -87.83829,-3.49776 -90.52443,-22.64017c-2.68614,-19.14242 33.48794,-40.04206 80.79707,-46.68066c47.30912,-6.6386 87.83829,3.49776 90.52443,22.64017z" data-paper-data="{&quot;origPos&quot;:null,&quot;origRot&quot;:0}" fill="#e7e7e7" stroke="#e7e7e7" stroke-width="1.5" stroke-linecap="butt"/><path d="M391.91682,138.96008c5.15037,-6.88667 10.83325,-13.23265 17.16629,-18.72786c1.68101,-1.45159 4.19911,-1.87899 6.42103,-1.7183c1.49078,0.1094 3.18443,0.96259 4.20453,2.3355c1.02014,1.3729 1.3161,3.21998 1.02292,4.69961c-0.40864,2.05762 -1.4712,4.16318 -3.07445,5.44031c-4.38532,3.35872 -9.43281,5.80839 -14.53676,8.19289c-3.34788,1.56492 -6.70804,3.49947 -10.66817,3.4304c-1.14867,-0.02042 -1.82294,-1.93104 -0.53538,-3.65254z" data-paper-data="{&quot;origRot&quot;:0,&quot;origPos&quot;:null}" id="ID0.10014915885403752" fill="url(#color-1)" stroke="#000000" stroke-width="0.5" stroke-linecap="butt"/><path d="M341.08272,157.40223c0.42675,4.15031 -0.77017,8.27223 -0.92039,12.38289c-0.34441,4.74236 0.30011,9.63853 -0.56416,14.19598c-0.40334,2.13227 -1.75015,4.25442 -3.47165,5.66835c-1.15616,0.94743 -2.9717,1.49541 -4.65688,1.2027c-1.68514,-0.29266 -3.17195,-1.42795 -3.9785,-2.70259c-1.12099,-1.77317 -1.91138,-4.06829 -1.51814,-6.06172c1.00523,-5.09193 3.2707,-9.94984 5.38708,-14.75456c2.06252,-4.68108 3.33347,-10.00852 7.11402,-13.91027c1.04337,-1.02576 2.46155,2.56215 2.60862,3.97923z" data-paper-data="{&quot;origRot&quot;:0,&quot;origPos&quot;:null}" id="ID0.10014915885403752" fill="url(#color-2)" stroke="#000000" stroke-width="0.5" stroke-linecap="butt"/><path d="M361.52009,160.09349c0.50767,-1.37225 3.31786,1.27105 4.054,2.49083c2.15235,3.57414 2.8233,7.81357 4.43667,11.59736c1.70646,4.43808 4.37328,8.59452 5.53059,13.08651c0.54238,2.1012 0.22672,4.59476 -0.72942,6.60684c-0.64306,1.34937 -2.05282,2.61786 -3.70235,3.07011c-1.64947,0.45227 -3.47808,0.05762 -4.75036,-0.7526c-1.769,-1.12757 -3.46094,-2.86815 -3.9534,-4.83941c-1.25722,-5.03565 -1.27441,-10.3958 -1.40389,-15.64439c-0.1256,-5.11378 -1.24257,-10.4756 0.51817,-15.61527z" data-paper-data="{&quot;origRot&quot;:0,&quot;origPos&quot;:null,&quot;index&quot;:null}" id="ID0.10014915885403752" fill="url(#color-3)" stroke="#000000" stroke-width="0.5" stroke-linecap="butt"/><path d="M330.40238,126.73878c-3.53265,-1.79101 -5.59797,-5.07242 -7.82523,-8.02136c-3.39625,-4.49469 -6.71208,-9.02053 -9.01746,-14.04022c-0.81983,-1.87864 -0.77431,-4.2367 -0.17321,-6.24653c0.43284,-1.44495 1.55827,-2.93919 3.10206,-3.67559c1.54375,-0.73643 3.43977,-0.69848 4.80865,-0.09799c2.0391,0.8971 4.06497,2.45254 4.87198,4.5218c3.02777,7.81899 5.08299,16.08595 6.41468,24.58179c0.33296,2.12379 -1.15657,3.49726 -2.18143,2.9781z" data-paper-data="{&quot;origRot&quot;:0,&quot;origPos&quot;:null}" id="ID0.10014915885403752" fill="url(#color-4)" stroke="#000000" stroke-width="0.5" stroke-linecap="butt"/><path d="M340.05981,87.38231c0.38132,-0.58789 0.9649,-1.20219 1.57898,-1.29066c0.97224,-0.13364 1.82996,0.18909 2.90046,0.54718c3.98705,1.29608 7.83828,2.93135 11.80902,4.36925c10.14721,3.67519 20.32017,7.17679 30.53827,10.85467c4.89542,1.76189 9.85796,3.42254 14.62199,5.50441c1.19625,0.5252 1.69288,0.94259 1.94891,1.81561c0.33049,1.29723 -0.00585,2.73728 -0.35359,4.08503c-0.71179,2.705 -1.50337,4.08944 -2.83969,7.89898c-5.34859,15.23896 -10.73954,30.33932 -16.18772,45.71742c-1.36222,3.84433 -0.74492,2.20993 -1.29291,3.2518c-0.2692,0.47311 -0.60675,1.07575 -1.14287,1.24922c-0.95512,0.30381 -1.58321,0.44918 -3.12577,-0.0583c-6.12821,-1.82153 -12.10273,-4.26076 -18.14127,-6.39792c-9.49374,-3.36049 -18.90015,-6.61376 -28.2344,-10.02643c-4.37018,-1.59636 -8.77312,-3.20499 -12.915,-5.01462c-1.03598,-0.45272 -0.98836,-0.62787 -1.24922,-1.14287c-0.23103,-0.52905 -0.17952,-1.15474 -0.08587,-1.69095c0.24081,-1.15229 -0.51074,0.98786 1.0735,-3.33068c6.33727,-17.27504 12.80137,-34.73196 19.30014,-52.0317c1.62465,-4.32483 1.02607,-2.98648 1.79702,-4.30944z" data-paper-data="{&quot;origRot&quot;:0,&quot;origPos&quot;:null}" id="ID0.4964667344465852" fill="#df141d" stroke="#000000" stroke-width="0.5" stroke-linecap="round"/><g data-paper-data="{&quot;origRot&quot;:0,&quot;origPos&quot;:null}" id="ID0.9475001120008528" stroke="#000000" stroke-width="1" stroke-linecap="butt"><path d="M371.65821,100.20895c5.71596,2.0549 9.98919,6.43811 12.2758,11.85901c2.28648,5.42131 2.58568,11.88066 0.35426,18.08763c-2.23142,6.20698 -6.57488,10.99727 -11.78982,13.72186c-5.21476,2.72411 -11.3007,3.38317 -17.01666,1.32827c-5.71596,-2.0549 -9.98919,-6.43811 -12.27582,-11.85897c-2.28646,-5.42136 -2.5857,-11.88072 -0.35428,-18.08769c2.23142,-6.20698 6.57493,-10.99725 11.78985,-13.7218c5.21478,-2.72415 11.30071,-3.38322 17.01667,-1.32832z" id="ID0.2672549015842378" fill="#7d191d"/><path d="M369.27259,105.81311c4.10826,1.47692 7.17207,4.64678 8.80399,8.57494c1.63128,3.92842 1.83086,8.61471 0.20956,13.12459c-1.62131,4.50988 -4.75903,7.9964 -8.5182,9.98694c-3.75948,1.98993 -8.14028,2.48345 -12.24854,1.00652c-4.10826,-1.47692 -7.17207,-4.64678 -8.80399,-8.57494c-1.63133,-3.92844 -1.83086,-8.61471 -0.20956,-13.12459c1.62131,-4.50988 4.75899,-7.99642 8.5182,-9.98694c3.75948,-1.98993 8.14028,-2.48345 12.24854,-1.00652z" id="ID0.04306362196803093" fill="#ffffff"/></g><g data-paper-data="{&quot;origRot&quot;:0,&quot;origPos&quot;:null,&quot;index&quot;:null}" id="ID0.7348965127021074" stroke="none" stroke-width="1" stroke-linecap="butt"><path d="M367.18564,111.75274c2.55769,0.91949 4.47073,2.87732 5.49593,5.29795c1.02473,2.42045 1.16125,5.30356 0.16562,8.07304c-0.99563,2.76947 -2.93662,4.90572 -5.26792,6.11968c-2.33177,1.21378 -5.0535,1.50541 -7.61119,0.58592c-2.55773,-0.91951 -4.47073,-2.87732 -5.49593,-5.29795c-1.02476,-2.42046 -1.16125,-5.30356 -0.16562,-8.07304c0.99563,-2.76947 2.93658,-4.90573 5.26792,-6.11968c2.33177,-1.21378 5.05346,-1.50542 7.61119,-0.58592z" id="ID0.3049218291416764" fill="#000000"/><path d="M367.57707,117.84003c0.40855,0.14688 0.71929,0.44591 0.89102,0.81042c0.17174,0.36452 0.20447,0.79452 0.05759,1.20308c-0.14688,0.40855 -0.44591,0.71929 -0.81042,0.89102c-0.36452,0.17174 -0.79452,0.20447 -1.20308,0.05759c-0.40855,-0.14688 -0.71929,-0.44591 -0.89102,-0.81042c-0.17174,-0.36452 -0.20447,-0.79452 -0.05759,-1.20308c0.14688,-0.40855 0.44591,-0.71929 0.81042,-0.89102c0.36452,-0.17174 0.79452,-0.20447 1.20308,-0.05759z" id="ID0.06762191886082292" fill="#ffffff"/></g><g data-paper-data="{&quot;origPos&quot;:null,&quot;origRot&quot;:0}" stroke="#000000" stroke-width="0.5" stroke-linecap="round"><path d="M347.11154,149.04361c2.10783,0.0357 3.96432,1.31074 5.98066,1.66269c2.56447,0.37144 5.18348,0.54276 7.71013,0.49881c2.65239,-0.04395 5.30366,-0.53632 7.94651,-0.88459c2.12708,-0.28022 4.99386,-2.52863 6.48717,-0.8848c1.84069,1.95819 1.48726,5.69453 0.24345,8.15734c-1.82935,3.61969 -4.91441,7.18229 -8.80808,8.42596c-4.47409,1.47256 -9.78422,0.78943 -14.18022,-0.96373c-3.12417,-1.24633 -5.19753,-4.42918 -6.74749,-7.38222c-1.15244,-2.14884 -1.41501,-4.8709 -1.00736,-7.25816c0.15447,-0.89979 1.46315,-1.39506 2.37518,-1.37134z" data-paper-data="{&quot;origPos&quot;:null,&quot;origRot&quot;:0}" id="ID0.3539912081323564" fill="#7d191d"/><path d="M371.5988,153.95719l-0.41029,2.15104c-0.96407,1.65062 -1.82789,3.64372 -3.49809,4.55646c-2.24228,1.22518 -4.97687,1.24271 -7.51639,1.49203c-1.07506,0.10462 -2.24371,-0.09295 -3.31517,-0.38852c-0.9484,-0.2633 -1.80399,-0.7115 -2.55583,-1.29104c-0.90594,-0.60345 -1.73411,-1.36704 -2.36167,-2.21893c-0.38206,-0.51962 -0.59339,-1.18178 -0.72521,-1.7969l-0.39621,-1.84748l1.98232,0.48112c1.82041,0.30125 3.62855,0.77681 5.49997,0.72626c3.27137,-0.02503 6.57563,-0.53424 9.84455,-0.9518c0.87061,-0.11136 2.23052,-0.44566 2.54259,-0.54796z" data-paper-data="{&quot;origPos&quot;:null,&quot;origRot&quot;:0}" id="ID0.7451628390699625" fill="#000000"/><path d="M361.85312,155.11121c2.15416,-0.1741 4.33788,-0.62348 6.53104,-0.89167c0.57618,-0.06677 1.59491,-0.42681 1.77871,-0.11319c0.2258,0.39111 -0.65869,2.41771 -1.38335,2.64316c-2.33929,0.72543 -4.89968,0.79537 -7.35969,1.05107c-1.80015,0.18696 -5.75828,0.14487 -6.23624,-0.22446c-0.40049,-0.30947 -1.6451,-2.21351 -1.25573,-2.46431c0.48212,-0.31056 1.621,0.10522 2.44095,0.10543c1.82814,0.00097 3.65226,0.04293 5.4843,-0.10601z" data-paper-data="{&quot;origPos&quot;:null,&quot;origRot&quot;:0}" id="ID0.0041041807271540165" fill="#ffffff"/><path d="M360.54173,161.86137c-1.40434,0.09784 -2.8432,0.1084 -4.17352,-0.13019c-1.03641,-0.15226 -1.97401,-0.55858 -2.78344,-1.01902c-0.22198,-0.12664 -0.81761,-0.45242 -0.22815,-0.60797c2.33216,-0.61117 4.76628,-0.89204 7.18206,-1.18425c1.98349,-0.22705 4.0025,-0.39526 5.96743,-0.32237c0.79844,0.02968 1.68798,0.18747 2.16269,0.63216c0.24815,0.21811 -0.20502,0.64979 -0.54213,0.85496c-0.75977,0.46144 -1.69378,0.83232 -2.57931,1.03947c-1.63583,0.38261 -3.29386,0.61782 -5.00562,0.7372z" data-paper-data="{&quot;origPos&quot;:null,&quot;origRot&quot;:0}" id="ID0.0041041807271540165" fill="#ffffff"/></g><path d="M69.16099,152.94441l16.33333,-6.33333l31.33333,30.33333l-13.66667,-36.66667l14.66667,-6.33333l24.33333,66l-15,6l-32.66667,-32.33333l14.66667,39l-15,6.66667z" data-paper-data="{&quot;origPos&quot;:null}" fill="url(#color-5)" stroke="#000000" stroke-width="0" stroke-linecap="round"/><path d="M139.49431,146.94442l14.66667,-2.66667l7.33333,34c0,0 0.63704,5.83068 6.33333,4.66667c6.65815,-1.36056 5.33333,-6.33333 5.33333,-6.33333l-6,-34.66667l13.66667,-2.66667l6.66667,35c0,0 3.26059,18.81693 -17.33333,22.33333c-20.54486,3.50802 -24.33333,-16.66667 -24.33333,-16.66667z" data-paper-data="{&quot;origPos&quot;:null}" fill="url(#color-6)" stroke="#000000" stroke-width="0" stroke-linecap="round"/><path d="M197.16098,188.27775l-2,-37.66667c0,0 -1.89293,-16.9354 21,-17.66666c6.88315,-0.21987 14,5 14,5c0,0 4.951,-5.92795 15,-5.66666c21.36283,0.55546 21,19 21,19l-2,36.66666l-14.33333,-0.66666l0.33333,-35c0,0 0.2247,-6.19747 -5.33333,-6.33334c-6.56067,-0.16038 -6.33334,5.33334 -6.33334,5.33334v35.66666h-15.33334l-0.66666,-36c0,0 0.28186,-4.70532 -5.66666,-4.66666c-6.61564,0.04299 -5.66667,5 -5.66667,5l0.66667,36z" data-paper-data="{&quot;origPos&quot;:null}" fill="url(#color-7)" stroke="#000000" stroke-width="0" stroke-linecap="round"/><path d="M283.16098,117.27776l15,2.33333l-3.66667,22.33334c0,0 8.28691,-2.32754 13.33333,-1c12.61347,3.31816 12,18.66666 12,18.66666l-3.66667,21.66667c0,0 -3.27202,16.71561 -23.66667,14c-22.25403,-4.41808 -18.42631,-20.82449 -17.33333,-27.66667c2.48122,-15.5328 8,-50.33333 8,-50.33333zM294.16098,182.61109c9.65102,1.88022 9.66666,-14.33334 9.66666,-14.33334c0,0 3.31807,-14.62878 -4.66666,-16c-8.42575,-1.44695 -9.33334,13.66667 -9.33334,13.66667c0,0 -4.09826,15.02401 4.33334,16.66666z" data-paper-data="{&quot;origPos&quot;:null}" fill="url(#color-8)" stroke="#000000" stroke-width="0" stroke-linecap="round"/><path d="M341.82765,193.27776c5.07373,2.81277 13.66667,0 13.66667,0l4,11.33333c0,0 -15.17419,4.78831 -24.66667,-0.33333c-14.79415,-7.98213 -11,-23.66667 -11,-23.66667l5.33333,-18.33333c0,0 6.89199,-16.07195 26.66667,-9.66667c17.74247,5.74702 13.66667,22.33334 13.66667,22.33334l-4.66667,14l-25.33333,-8c0,0 -4.19936,8.71175 2.33333,12.33334zM355.16098,175.27776c0,0 3.08704,-8.28744 -4.33334,-10.66666c-7.37336,-2.36415 -8.33333,6.33333 -8.33333,6.33333z" data-paper-data="{&quot;origPos&quot;:null}" fill="url(#color-9)" stroke="#000000" stroke-width="0" stroke-linecap="round"/><path d="M364.49432,212.27776c0,0 8.97568,-19.69986 14.72057,-32.30877c4.27185,-9.3759 13.27943,-11.02456 13.27943,-11.02456c0,0 7.97255,-1.50262 15.11554,4.21623c2.94692,2.90763 7.55112,7.45044 7.55112,7.45044l-9,8c0,0 -3.01771,-3.09206 -5.16093,-4.82797c-0.68527,-0.55503 -4.50574,-0.8387 -4.50574,-0.8387c0,0 -2.78674,0.42946 -4.14371,3.26454c-4.07089,8.50524 -15.18962,31.73545 -15.18962,31.73545l-12.66667,-5.66666z" data-paper-data="{&quot;origPos&quot;:null}" fill="url(#color-10)" stroke="#000000" stroke-width="0" stroke-linecap="round"/><g data-paper-data="{&quot;origPos&quot;:null,&quot;origRot&quot;:0}" stroke-linecap="butt"><g data-paper-data="{&quot;origPos&quot;:null,&quot;origRot&quot;:0}" fill="#6289c4" stroke="#4666a8" stroke-width="1.5"><path d="M147.59103,254.10466c-2.44238,-11.02492 -3.81594,-17.22511 -6.25832,-28.25003c-1.25172,-5.6503 -2.69444,-11.53453 -1.3337,-13.24837c1.22201,-2.33991 7.91769,-3.0034 14.18463,-4.1386c11.60367,-2.10191 18.12927,-3.28397 29.73294,-5.38589c6.1201,-1.1086 10.99988,-2.60601 14.10036,-0.98499c3.01671,2.28737 3.48957,6.75688 4.71075,12.26934c2.41186,10.88713 3.76822,17.00976 6.18009,27.8969c1.25172,5.6503 2.79232,11.35778 1.5339,13.42915c-1.14173,1.87933 -7.65888,2.73947 -13.63208,3.82146c0,0 -18.58825,3.36711 -30.48568,5.52224c-6.1201,1.1086 -11.99774,3.20285 -14.45272,1.48295c-2.68528,-1.88122 -3.08949,-7.03949 -4.28016,-12.41416z" data-paper-data="{&quot;origPos&quot;:null}"/></g><text transform="translate(164.4962,254.13094) rotate(-9.58723) scale(1.28953,1.21737) skewX(2.02278)" font-size="40" xml:space="preserve" data-paper-data="{&quot;origPos&quot;:null,&quot;origRot&quot;:-5.43838}" fill="url(#color-11)" fill-rule="nonzero" stroke="none" stroke-width="1" stroke-linecap="butt" stroke-linejoin="miter" stroke-miterlimit="10" stroke-dasharray="" stroke-dashoffset="0" font-family="Sans Serif" font-weight="normal" text-anchor="start" style="mix-blend-mode: normal"><tspan x="0" dy="0">I</tspan></text></g><g data-paper-data="{&quot;origPos&quot;:null,&quot;origRot&quot;:0}" stroke-linecap="butt"><g data-paper-data="{&quot;origPos&quot;:null,&quot;origRot&quot;:0}" fill="#6289c4" stroke="#4666a8" stroke-width="1.5"><path d="M274.28316,246.70746c3.17673,-10.78469 4.96323,-16.84975 8.13995,-27.63445c1.62807,-5.52716 3.19877,-11.34249 5.25331,-12.27739c2.23493,-1.54735 8.56237,0.71929 14.73496,2.38634c11.42897,3.08665 17.85632,4.8225 29.28531,7.90914c6.02797,1.62798 11.13292,2.38386 13.12419,5.13764c1.59178,3.30704 -0.15994,7.45873 -1.74831,12.85107c-3.13702,10.6499 -4.90119,16.63911 -8.03819,27.28902c-1.62807,5.52716 -3.02494,11.22798 -5.16181,12.52246c-1.93874,1.17448 -8.20178,-0.84229 -14.08505,-2.4312c0,0 -18.3084,-4.9446 -30.02671,-8.10938c-6.02797,-1.62798 -12.3183,-2.28154 -13.68259,-4.84768c-1.49228,-2.80685 0.6563,-7.53804 2.20495,-12.79559z" data-paper-data="{&quot;origPos&quot;:null}"/></g><text transform="translate(287.12735,252.65823) rotate(17.01632) scale(1.2929,1.2142) skewX(-1.46168)" font-size="40" xml:space="preserve" data-paper-data="{&quot;origPos&quot;:null,&quot;origRot&quot;:-5.43838}" fill="url(#color-12)" fill-rule="nonzero" stroke="none" stroke-width="1" stroke-linecap="butt" stroke-linejoin="miter" stroke-miterlimit="10" stroke-dasharray="" stroke-dashoffset="0" font-family="Sans Serif" font-weight="normal" text-anchor="start" style="mix-blend-mode: normal"><tspan x="0" dy="0">E</tspan></text></g><g data-paper-data="{&quot;origPos&quot;:null,&quot;origRot&quot;:0}" stroke-linecap="butt"><g data-paper-data="{&quot;origPos&quot;:null,&quot;origRot&quot;:0}" fill="#365799" stroke="#1d3972" stroke-width="1.5"><path d="M210.33438,243.38624c0.3308,-11.21871 0.51682,-17.52787 0.84762,-28.74659c0.16953,-5.74961 0.21021,-11.76728 1.96091,-13.13603c1.76945,-2.00584 8.47034,-1.20577 14.86879,-0.95562c11.84718,0.46316 18.50971,0.72364 30.35689,1.18681c6.24853,0.24428 11.38182,-0.15588 14.00976,2.08464c2.38203,2.86871 1.74287,7.30526 1.57748,12.9146c-0.32666,11.0785 -0.51036,17.30875 -0.83702,28.38725c-0.16953,5.74961 -0.07111,11.61697 -1.80999,13.35452c-1.57763,1.57647 -8.15263,1.0056 -14.25117,0.76717c0,0 -18.97833,-0.74196 -31.12542,-1.21685c-6.24853,-0.24428 -12.5031,0.51959 -14.47646,-1.67767c-2.15847,-2.40336 -1.28264,-7.49308 -1.12139,-12.96223z" data-paper-data="{&quot;origPos&quot;:null}"/></g><text transform="translate(220.7641,246.78769) rotate(2.10658) scale(1.29589,1.21141) skewX(0.532)" font-size="40" xml:space="preserve" data-paper-data="{&quot;origPos&quot;:null,&quot;origRot&quot;:-5.43838}" fill="url(#color-13)" fill-rule="nonzero" stroke="none" stroke-width="1" stroke-linecap="butt" stroke-linejoin="miter" stroke-miterlimit="10" stroke-dasharray="" stroke-dashoffset="0" font-family="Sans Serif" font-weight="normal" text-anchor="start" style="mix-blend-mode: normal"><tspan x="0" dy="0">M</tspan></text></g><g data-paper-data="{&quot;origPos&quot;:null,&quot;origRot&quot;:0}" stroke-linecap="butt"><g data-paper-data="{&quot;origPos&quot;:null,&quot;origRot&quot;:0}" fill="#365799" stroke="#1d3972" stroke-width="1.5"><path d="M86.96175,277.74658c-4.71133,-10.3888 -7.36089,-16.23124 -12.07222,-26.62004c-2.41457,-5.32428 -5.06514,-10.84333 -4.09617,-12.77936c0.70141,-2.52599 7.10703,-4.4136 12.9941,-6.68589c10.90032,-4.2073 17.03037,-6.57338 27.93069,-10.78069c5.74913,-2.21905 10.20383,-4.59153 13.57641,-3.56979c3.43115,1.69232 4.83543,5.99938 7.19111,11.19378c4.65245,10.25896 7.26887,16.02833 11.92132,26.28729c2.41457,5.32428 5.12357,10.6515 4.32997,12.92019c-0.72001,2.05835 -6.90965,4.10635 -12.52079,6.27214c0,0 -17.46153,6.73981 -28.63781,11.05362c-5.74913,2.21905 -11.0535,5.36241 -13.81592,4.12438c-3.02155,-1.35416 -4.50391,-6.35106 -6.80069,-11.41562z" data-paper-data="{&quot;origPos&quot;:null}"/></g><text transform="translate(99.50118,276.47799) rotate(-21.54395) scale(1.27653,1.22976) skewX(3.20007)" font-size="40" xml:space="preserve" data-paper-data="{&quot;origPos&quot;:null,&quot;origRot&quot;:-5.43838}" fill="url(#color-14)" fill-rule="nonzero" stroke="none" stroke-width="1" stroke-linecap="butt" stroke-linejoin="miter" stroke-miterlimit="10" stroke-dasharray="" stroke-dashoffset="0" font-family="Sans Serif" font-weight="normal" text-anchor="start" style="mix-blend-mode: normal"><tspan x="0" dy="0">T</tspan></text></g><text transform="translate(368.05203,87.23055) rotate(14.45705) scale(0.67335,0.67335)" font-size="40" xml:space="preserve" data-paper-data="{&quot;origRot&quot;:-4.71829,&quot;origPos&quot;:null}" fill="#000000" fill-rule="nonzero" stroke="#000000" stroke-width="3" stroke-linecap="butt" stroke-linejoin="miter" stroke-miterlimit="10" stroke-dasharray="" stroke-dashoffset="0" font-family="Sans Serif" font-weight="normal" text-anchor="start" style="mix-blend-mode: normal"><tspan x="0" dy="0">1</tspan></text><text transform="translate(181.88535,129.82985) rotate(-9.63074) scale(0.89047,0.89047)" font-size="40" xml:space="preserve" data-paper-data="{&quot;origPos&quot;:null,&quot;origRot&quot;:1.09556525143546}" fill="#e73431" fill-rule="nonzero" stroke="#e73431" stroke-width="3" stroke-linecap="butt" stroke-linejoin="miter" stroke-miterlimit="10" stroke-dasharray="" stroke-dashoffset="0" font-family="Sans Serif" font-weight="normal" text-anchor="start" style="mix-blend-mode: normal"><tspan x="0" dy="0">it's</tspan></text><path d="M335.28316,265.70746c3.17673,-10.78469 4.96323,-16.84975 8.13995,-27.63445c1.62807,-5.52716 3.19877,-11.34249 5.25331,-12.27739c2.23493,-1.54735 8.56237,0.71929 14.73496,2.38634c11.42897,3.08665 17.85632,4.8225 29.28531,7.90914c6.02797,1.62798 11.13292,2.38386 13.12419,5.13764c1.59178,3.30704 -0.15994,7.45873 -1.74831,12.85107c-3.13702,10.6499 -4.90119,16.63911 -8.03819,27.28902c-1.62807,5.52716 -3.02494,11.22798 -5.16181,12.52246c-1.93874,1.17448 -8.20178,-0.84229 -14.08505,-2.4312c0,0 -18.3084,-4.9446 -30.02671,-8.10938c-6.02797,-1.62798 -12.3183,-2.28154 -13.68259,-4.84768c-1.49228,-2.80685 0.6563,-7.53804 2.20495,-12.79559z" data-paper-data="{&quot;origPos&quot;:null}" fill="#365799" stroke="#1d3972" stroke-width="1.5" stroke-linecap="butt"/><text transform="translate(356.12735,274.65823) rotate(17.01632) scale(1.2929,1.2142) skewX(-1.46168)" font-size="40" xml:space="preserve" data-paper-data="{&quot;origPos&quot;:null,&quot;origRot&quot;:-5.43838}" fill="#ffffff" fill-rule="nonzero" stroke="none" stroke-width="1" stroke-linecap="butt" stroke-linejoin="miter" stroke-miterlimit="10" stroke-dasharray="" stroke-dashoffset="0" font-family="Sans Serif" font-weight="normal" text-anchor="start" style="mix-blend-mode: normal"><tspan x="0" dy="0">!</tspan></text></g></g></svg>