<svg version="1.1" xmlns="http://www.w3.org/2000/svg" xmlns:xlink="http://www.w3.org/1999/xlink" width="468.8958" height="302.22389"><defs><linearGradient x1="307.47613" y1="98.1267" x2="307.47613" y2="168.99984" gradientUnits="userSpaceOnUse" id="color-1"><stop offset="0" stop-color="#eb5746"/><stop offset="1" stop-color="#e62628"/></linearGradient><linearGradient x1="37.48189" y1="20.44224" x2="37.48189" y2="88.13464" gradientUnits="userSpaceOnUse" id="color-2"><stop offset="0" stop-color="#d19884"/><stop offset="1" stop-color="#d16a26"/></linearGradient><linearGradient x1="97.30827" y1="20.44224" x2="97.30827" y2="88.13466" gradientUnits="userSpaceOnUse" id="color-3"><stop offset="0" stop-color="#b8d166"/><stop offset="1" stop-color="#8abf49"/></linearGradient><linearGradient x1="127.74189" y1="54.28842" x2="184.03002" y2="54.28842" gradientUnits="userSpaceOnUse" id="color-4"><stop offset="0" stop-color="#ad7ee0"/><stop offset="1" stop-color="#8350de"/></linearGradient><linearGradient x1="218.48823" y1="20.44224" x2="218.48823" y2="88.13464" gradientUnits="userSpaceOnUse" id="color-5"><stop offset="0" stop-color="#d166d1"/><stop offset="1" stop-color="#b149bf"/></linearGradient><linearGradient x1="276.565" y1="20.44224" x2="276.565" y2="88.13464" gradientUnits="userSpaceOnUse" id="color-6"><stop offset="0" stop-color="#7db9e1"/><stop offset="1" stop-color="#50aede"/></linearGradient><linearGradient x1="329.76616" y1="20.44224" x2="329.76616" y2="88.13464" gradientUnits="userSpaceOnUse" id="color-7"><stop offset="0" stop-color="#6fad7e"/><stop offset="1" stop-color="#63a866"/></linearGradient><linearGradient x1="384.73973" y1="19.22842" x2="384.73973" y2="89.34841" gradientUnits="userSpaceOnUse" id="color-8"><stop offset="0" stop-color="#d166d1"/><stop offset="1" stop-color="#b149bf"/></linearGradient><linearGradient x1="450.52057" y1="20.44224" x2="450.52057" y2="88.13464" gradientUnits="userSpaceOnUse" id="color-9"><stop offset="0" stop-color="#f2f21d"/><stop offset="1" stop-color="#e2cf42"/></linearGradient><linearGradient x1="28.44249" y1="99.02499" x2="28.44249" y2="166.71738" gradientUnits="userSpaceOnUse" id="color-10"><stop offset="0" stop-color="#f6ae45"/><stop offset="1" stop-color="#f28f1e"/></linearGradient><linearGradient x1="62.70129" y1="99.02502" x2="62.70129" y2="167.93121" gradientUnits="userSpaceOnUse" id="color-11"><stop offset="0" stop-color="#f54545"/><stop offset="1" stop-color="#e40000"/></linearGradient><linearGradient x1="122.32688" y1="99.02499" x2="122.32688" y2="166.71738" gradientUnits="userSpaceOnUse" id="color-12"><stop offset="0" stop-color="#7db9e1"/><stop offset="1" stop-color="#50aede"/></linearGradient><linearGradient x1="175.48091" y1="99.02499" x2="175.48091" y2="166.71738" gradientUnits="userSpaceOnUse" id="color-13"><stop offset="0" stop-color="#8758ff"/><stop offset="1" stop-color="#000eaf"/></linearGradient><linearGradient x1="235.39352" y1="99.02499" x2="235.39352" y2="166.71738" gradientUnits="userSpaceOnUse" id="color-14"><stop offset="0" stop-color="#fdda62"/><stop offset="1" stop-color="#fcc618"/></linearGradient><linearGradient x1="371.4388" y1="97.81119" x2="371.4388" y2="167.93116" gradientUnits="userSpaceOnUse" id="color-15"><stop offset="0" stop-color="#d166c4"/><stop offset="1" stop-color="#bf499e"/></linearGradient><linearGradient x1="431.16559" y1="99.12935" x2="431.16559" y2="166.82175" gradientUnits="userSpaceOnUse" id="color-16"><stop offset="0" stop-color="#eb5544"/><stop offset="1" stop-color="#e62728"/></linearGradient><linearGradient x1="87.3545" y1="171.42844" x2="87.3545" y2="251.4455" gradientUnits="userSpaceOnUse" id="color-17"><stop offset="0" stop-color="#d166d1"/><stop offset="1" stop-color="#b149bf"/></linearGradient><linearGradient x1="152.37028" y1="172.64224" x2="152.37028" y2="240.33464" gradientUnits="userSpaceOnUse" id="color-18"><stop offset="0" stop-color="#986ead"/><stop offset="1" stop-color="#7664a9"/></linearGradient><linearGradient x1="207.55804" y1="171.42842" x2="207.55804" y2="241.54844" gradientUnits="userSpaceOnUse" id="color-19"><stop offset="0" stop-color="#986ead"/><stop offset="1" stop-color="#7664a9"/></linearGradient><linearGradient x1="260.15842" y1="172.64224" x2="260.15842" y2="240.33464" gradientUnits="userSpaceOnUse" id="color-20"><stop offset="0" stop-color="#ff5959"/><stop offset="1" stop-color="#b00000"/></linearGradient><linearGradient x1="316.49909" y1="172.64224" x2="316.49909" y2="241.54846" gradientUnits="userSpaceOnUse" id="color-21"><stop offset="0" stop-color="#f6ae45"/><stop offset="1" stop-color="#f28f1e"/></linearGradient><linearGradient x1="374.59607" y1="172.64224" x2="374.59607" y2="240.33464" gradientUnits="userSpaceOnUse" id="color-22"><stop offset="0" stop-color="#8a27e6"/><stop offset="1" stop-color="#5334b4"/></linearGradient><linearGradient x1="146.98217" y1="253.75992" x2="146.98217" y2="321.45231" gradientUnits="userSpaceOnUse" id="color-23"><stop offset="0" stop-color="#fdda62"/><stop offset="1" stop-color="#fcc618"/></linearGradient><linearGradient x1="214.14219" y1="253.75992" x2="214.14219" y2="321.45231" gradientUnits="userSpaceOnUse" id="color-24"><stop offset="0" stop-color="#f59e41"/><stop offset="1" stop-color="#d36d00"/></linearGradient><linearGradient x1="270.94479" y1="253.75992" x2="270.94479" y2="321.45231" gradientUnits="userSpaceOnUse" id="color-25"><stop offset="0" stop-color="#6fe359"/><stop offset="1" stop-color="#18c927"/></linearGradient><linearGradient x1="325.6289" y1="253.75992" x2="325.6289" y2="321.45231" gradientUnits="userSpaceOnUse" id="color-26"><stop offset="0" stop-color="#f07f4a"/><stop offset="1" stop-color="#fa4f00"/></linearGradient></defs><g transform="translate(-7.95864,-19.22842)"><g data-paper-data="{&quot;isPaintingLayer&quot;:true}" fill="none" fill-rule="nonzero" stroke="none" stroke-width="none" stroke-linecap="none" stroke-linejoin="miter" stroke-miterlimit="10" stroke-dasharray="" stroke-dashoffset="0" font-family="none" font-weight="none" font-size="none" text-anchor="none" style="mix-blend-mode: normal"><path d="M282.08138,98.1267l17.51718,0.19285l17.81049,39.80798l0.94446,-39.11944l15.96998,-0.42676l-1.94758,70.31584l-16.15549,-0.0066l-18.30472,-42.16032l-0.88359,41.6573l-16.40334,0.61229z" data-paper-data="{&quot;origPos&quot;:null,&quot;origRot&quot;:0}" fill="url(#color-1)" stroke="#000000" stroke-width="0" stroke-linecap="round"/><path d="M392.76306,155.83813c0.42984,5.63941 0.24639,16.02277 -6.91043,16.15724v-0.00001c-8.58912,0.16139 -7.67674,-18.96707 -7.67674,-18.96707c0,0 -2.22821,-18.42687 6.31484,-18.8224c6.16519,-0.28543 7.50181,10.34865 7.7887,15.43687" data-paper-data="{&quot;origPos&quot;:null,&quot;origRot&quot;:0}" fill="none" stroke="none" stroke-width="NaN" stroke-linecap="butt"/><path d="M392,152c0,-5.52284 4.47715,-10 10,-10c1.57704,0 3.06881,0.36506 4.39542,1.01528c3.31925,1.62687 5.60458,5.03892 5.60458,8.98472c0,5.52284 -4.47715,10 -10,10c-5.52285,0 -10,-4.47716 -10,-10z" data-paper-data="{&quot;origPos&quot;:null,&quot;origRot&quot;:0}" fill="none" stroke="none" stroke-width="NaN" stroke-linecap="butt"/><path d="M7.95864,88.13464l23.2738,-67.69239h12.41269l23.36001,67.69239h-13.3609l-4.39616,-13.72521h-24.3082l-4.39616,13.72521zM37.09396,36.78178l-8.61992,26.70348h17.23986z" data-paper-data="{&quot;origPos&quot;:null}" id="path48" fill="url(#color-2)" stroke="none" stroke-width="0.48994" stroke-linecap="butt"/><path d="M72.65526,88.13464v-67.69239h24.3082c2.35612,0 4.53983,0.15562 6.55114,0.46686c2.06878,0.31124 4.10882,0.90256 6.12015,1.77402c2.06878,0.8092 3.82151,1.86738 5.25816,3.17454c1.43665,1.30716 2.58598,3.01892 3.44798,5.13528c0.91945,2.0541 1.3792,4.41947 1.3792,7.09602c0,2.92556 -0.74706,5.72663 -2.24119,8.40318c-1.43665,2.67658 -3.04571,4.63732 -4.82715,5.88225c2.8733,1.49391 5.14323,3.45465 6.80974,5.88225c1.66651,2.36534 2.49979,5.66437 2.49979,9.89709c0,6.84704 -2.24119,11.88896 -6.72354,15.12576c-4.48236,3.2368 -10.22898,4.85517 -17.23986,4.85517zM84.98176,58.44334v19.23396h13.61947c7.18327,0 10.77492,-3.17454 10.77492,-9.52362c0,-6.47357 -3.76403,-9.71037 -11.29212,-9.71037zM84.98176,30.89955v17.45997h12.75748c2.98825,0 5.2869,-0.74694 6.89595,-2.24085c1.60906,-1.55614 2.41357,-3.79699 2.41357,-6.72255c0,-2.67658 -0.83326,-4.76181 -2.49979,-6.25572c-1.66651,-1.49391 -3.93644,-2.24085 -6.80974,-2.24085z" data-paper-data="{&quot;origPos&quot;:null}" id="path50" fill="url(#color-3)" stroke="none" stroke-width="0.48994" stroke-linecap="butt"/><path d="M172.30692,65.91286h11.7231c-0.80452,6.97153 -3.67784,12.6359 -8.61994,16.99311c-4.94208,4.29498 -11.09097,6.44244 -18.44665,6.44244c-9.1946,0 -16.37787,-3.14341 -21.54981,-9.43026c-5.11449,-6.34908 -7.67173,-15.00124 -7.67173,-25.95654c0,-10.70629 2.64344,-19.17173 7.93033,-25.39632c5.34435,-6.22459 12.55636,-9.33687 21.63602,-9.33687c7.2982,0 13.30342,2.08523 18.01564,6.25572c4.76969,4.17046 7.67173,9.80373 8.70613,16.89975h-11.7231c-2.06878,-8.34095 -7.09708,-12.51141 -15.08486,-12.51141c-4.88463,0 -8.90726,2.11636 -12.06789,6.34908c-3.10318,4.23272 -4.65476,10.14607 -4.65476,17.74008c0,7.78073 1.52284,13.8497 4.56855,18.20691c3.10318,4.35721 7.01088,6.53583 11.7231,6.53583c8.44753,0 13.61947,-4.26385 15.51587,-12.79152z" data-paper-data="{&quot;origPos&quot;:null}" id="path52" fill="url(#color-4)" stroke="none" stroke-width="0.48994" stroke-linecap="butt"/><path d="M232.36633,54.24175c0,-3.92148 -0.43099,-7.3139 -1.29298,-10.1772c-0.86199,-2.8633 -1.98259,-5.13528 -3.36178,-6.81591c-1.32172,-1.68063 -3.01697,-2.98779 -5.08575,-3.92148c-2.01133,-0.99592 -4.02263,-1.6495 -6.03396,-1.96074c-1.95385,-0.31124 -4.19504,-0.46686 -6.72354,-0.46686h-5.68914v46.77777h5.68914c3.21811,0 6.00522,-0.28011 8.36134,-0.84033c2.41357,-0.56022 4.76969,-1.6184 7.06834,-3.17454c2.29864,-1.55614 4.05137,-3.95261 5.25816,-7.18941c1.20679,-3.2368 1.81018,-7.3139 1.81018,-12.2313zM191.85265,20.44224h18.53284c4.19504,0 7.95907,0.31124 11.29212,0.93369c3.33305,0.62245 6.49368,1.71176 9.48191,3.2679c2.98825,1.55614 5.48802,3.57914 7.49935,6.06897c2.01133,2.48983 3.59165,5.72663 4.74096,9.71037c1.14933,3.98374 1.72399,8.58993 1.72399,13.8186c0,5.22864 -0.57465,9.83486 -1.72399,13.81857c-1.14933,3.98374 -2.72965,7.25164 -4.74096,9.80373c-2.01133,2.48983 -4.51109,4.51283 -7.49935,6.06897c-2.98825,1.55614 -6.14889,2.64545 -9.48191,3.2679c-3.33305,0.62245 -7.09708,0.93369 -11.29212,0.93369h-18.53284z" data-paper-data="{&quot;origPos&quot;:null}" id="path54" fill="url(#color-5)" stroke="none" stroke-width="0.48994" stroke-linecap="butt"/><path d="M253.80839,88.13464v-67.69239h45.51321v10.83078h-33.18672v16.80639h31.37654v10.83078h-31.37654v18.39366h33.18672v10.83078z" data-paper-data="{&quot;origPos&quot;:null}" id="path56" fill="url(#color-6)" stroke="none" stroke-width="0.48994" stroke-linecap="butt"/><path d="M307.00955,88.13464v-67.69239h45.51321v10.83078h-33.18672v16.80639h31.37654v10.83078h-31.37654v29.22444z" data-paper-data="{&quot;origPos&quot;:null}" id="path58" fill="url(#color-7)" stroke="none" stroke-width="0.48994" stroke-linecap="butt"/><path d="M386.63611,19.22845c7.18327,0 13.15975,2.023 17.92942,6.06897c4.76972,4.04597 7.67178,9.27464 8.70616,15.68595h-11.72313c-0.97693,-3.61027 -2.81584,-6.34908 -5.51676,-8.21646c-2.70091,-1.92961 -5.86155,-2.89443 -9.48191,-2.89443c-5.40183,0 -9.7118,2.0541 -12.92989,6.16233c-3.21811,4.10823 -4.82715,10.08384 -4.82715,17.92683c0,7.90522 1.58032,14.00532 4.74096,18.30027c3.16064,4.29498 7.47061,6.44244 12.92989,6.44244c3.96518,0 7.5568,-1.18267 10.77492,-3.54801c3.21811,-2.36534 4.82715,-6.00674 4.82715,-10.92414v-1.12044h-15.60206v-10.92414h26.98037v35.94699h-9.74051l-0.34479,-7.93635c-3.85025,6.1001 -10.11404,9.15015 -18.79144,9.15015c-8.79233,0 -15.74573,-3.17454 -20.86022,-9.52362c-5.11449,-6.41134 -7.67173,-15.03237 -7.67173,-25.86315c0,-10.5818 2.72965,-19.01611 8.18893,-25.30296c5.45928,-6.28682 12.92989,-9.43026 22.4118,-9.43026z" data-paper-data="{&quot;origPos&quot;:null}" id="path60" fill="url(#color-8)" stroke="none" stroke-width="0.48994" stroke-linecap="butt"/><path d="M464.52794,20.44224h12.3265v67.69239h-12.3265v-29.22444h-28.01475v29.22444h-12.3265v-67.69239h12.3265v27.63717h28.01475z" data-paper-data="{&quot;origPos&quot;:null}" id="path62" fill="url(#color-9)" stroke="none" stroke-width="0.48994" stroke-linecap="butt"/><path d="M34.60573,99.02499v67.69239h-12.3265v-67.69239z" data-paper-data="{&quot;origPos&quot;:null}" id="path64" fill="url(#color-10)" stroke="none" stroke-width="0.48994" stroke-linecap="butt"/><path d="M62.74438,167.93118c-6.72357,0 -11.98173,-2.11636 -15.77447,-6.34908c-3.73532,-4.29498 -5.66043,-9.95935 -5.77534,-16.99311h12.3265c0.11495,4.41947 0.94821,7.59401 2.49977,9.52362c1.5516,1.92961 3.79279,2.89443 6.72357,2.89443c6.09141,0 9.13712,-4.13936 9.13712,-12.41805v-45.56397h12.3265v45.56397c0,7.22051 -1.8964,12.91601 -5.68919,17.0865c-3.73529,4.17046 -8.99343,6.25572 -15.77445,6.25572z" data-paper-data="{&quot;origPos&quot;:null}" id="path66" fill="url(#color-11)" stroke="none" stroke-width="0.48994" stroke-linecap="butt"/><path d="M107.67301,99.02499v30.99846l25.51498,-30.99846h14.39525l-23.01517,27.2637l24.73918,40.42869h-14.56768l-18.44667,-30.5316l-8.61992,10.1772v20.3544h-12.3265v-67.69239z" data-paper-data="{&quot;origPos&quot;:null}" id="path68" fill="url(#color-12)" stroke="none" stroke-width="0.48994" stroke-linecap="butt"/><path d="M166.42997,99.02499v56.86161h30.42837v10.83078h-42.75487v-67.69239z" data-paper-data="{&quot;origPos&quot;:null}" id="path70" fill="url(#color-13)" stroke="none" stroke-width="0.48994" stroke-linecap="butt"/><path d="M241.55674,166.71738h-12.24028l-15.42968,-50.886v50.886h-11.46448v-67.69239h17.92947l15.17105,52.75338l14.74005,-52.75338h18.10188v67.69239h-11.46452v-50.886z" data-paper-data="{&quot;origPos&quot;:null}" id="path72" fill="url(#color-14)" stroke="none" stroke-width="0.48994" stroke-linecap="butt"/><path d="M358.68129,114.89769c-3.3905,4.29498 -5.08575,10.27056 -5.08575,17.92683c0,7.65624 1.69525,13.66298 5.08575,18.02019c3.3905,4.29498 7.64299,6.44244 12.7575,6.44244c5.11449,0 9.36698,-2.14749 12.7575,-6.44244c3.3905,-4.35721 5.08575,-10.36395 5.08575,-18.02019c0,-7.65624 -1.69525,-13.63185 -5.08575,-17.92683c-3.3905,-4.29495 -7.64299,-6.44244 -12.7575,-6.44244c-5.11449,0 -9.36698,2.14749 -12.7575,6.44244zM393.67822,107.42817c5.57421,6.41131 8.36132,14.87675 8.36132,25.39632c0,10.51954 -2.78711,19.01611 -8.36132,25.48968c-5.57421,6.41131 -12.98737,9.61698 -22.23942,9.61698c-9.25205,0 -16.6652,-3.20567 -22.23942,-9.61698c-5.57421,-6.47357 -8.36132,-14.97014 -8.36132,-25.48968c0,-10.51954 2.78711,-18.98498 8.36132,-25.39632c5.57421,-6.41131 12.98737,-9.61698 22.23942,-9.61698c9.25205,0 16.6652,3.20567 22.23942,9.61698z" data-paper-data="{&quot;origPos&quot;:null}" id="path76" fill="url(#color-15)" stroke="none" stroke-width="0.48994" stroke-linecap="butt"/><path d="M406.72809,99.12935h21.37742c2.98825,0 5.60295,0.12449 7.84414,0.37347c2.24119,0.18672 4.65476,0.74694 7.24075,1.68063c2.64344,0.87143 4.79843,2.08523 6.46494,3.6414c1.66651,1.49391 3.07445,3.6725 4.22375,6.53583c1.14933,2.8633 1.72399,6.25572 1.72399,10.1772c0,4.17046 -0.71832,7.7185 -2.15497,10.64403c-1.43665,2.8633 -3.47672,5.07305 -6.12015,6.62919c-2.58598,1.49391 -5.40183,2.58319 -8.44753,3.2679c-3.04571,0.62245 -6.5224,0.93369 -10.4301,0.93369h-9.39572v23.80905h-12.3265zM428.36414,109.58666h-9.30953v23.06211h10.17152c4.30997,0 7.67173,-0.77807 10.08531,-2.33421c2.41357,-1.6184 3.62036,-4.51283 3.62036,-8.68329c0,-2.11636 -0.31605,-3.95261 -0.94819,-5.50875c-0.57465,-1.55614 -1.32172,-2.73881 -2.24119,-3.54801c-0.86199,-0.8092 -2.01133,-1.43165 -3.44798,-1.86738c-1.3792,-0.49796 -2.67217,-0.8092 -3.87896,-0.93369c-1.14933,-0.12446 -2.49979,-0.18672 -4.05137,-0.18672z" data-paper-data="{&quot;origPos&quot;:null}" id="path78" fill="url(#color-16)" stroke="none" stroke-width="0.48994" stroke-linecap="butt"/><path d="M117.95523,206.44175c0,12.57367 -3.73529,22.0039 -11.2059,28.29075l7.41313,10.55067l-7.58554,6.16233l-8.36132,-11.67111c-3.56291,1.18267 -7.18327,1.77402 -10.86111,1.77402c-9.25205,0 -16.66518,-3.20567 -22.23942,-9.61698c-5.57421,-6.47357 -8.36132,-14.97014 -8.36132,-25.48968c0,-10.51954 2.78711,-18.98498 8.36132,-25.39632c5.57421,-6.41131 12.98737,-9.61698 22.23942,-9.61698c9.25205,0 16.6652,3.20567 22.23942,9.61698c5.57421,6.41131 8.36132,14.87675 8.36132,25.39632zM74.59699,188.51494c-3.3905,4.29495 -5.08575,10.27056 -5.08575,17.9268c0,7.65624 1.69525,13.66298 5.08575,18.02019c3.3905,4.29495 7.64299,6.44244 12.75748,6.44244c1.49413,0 2.93078,-0.18675 4.30997,-0.56022l-4.74096,-6.72255l7.67173,-6.25572l5.17196,7.46949c3.62036,-4.54396 5.43057,-10.67516 5.43057,-18.39366c0,-7.65624 -1.69525,-13.63185 -5.08575,-17.9268c-3.3905,-4.29498 -7.64302,-6.44244 -12.7575,-6.44244c-5.11449,0 -9.36698,2.14749 -12.75748,6.44244z" data-paper-data="{&quot;origPos&quot;:null}" id="path80" fill="url(#color-17)" stroke="none" stroke-width="0.48994" stroke-linecap="butt"/><path d="M164.43818,240.33464l-12.41269,-26.51673h-2.93078h-10.17152v26.51673h-12.3265v-67.69239h20.51543c10.17152,0 17.44098,1.64953 21.80841,4.94856c4.4249,3.2368 6.63735,8.43431 6.63735,15.59259c0,8.40318 -3.76403,14.34766 -11.29212,17.83344l13.87808,29.3178zM148.49132,183.09955h-9.56813v20.3544h10.17152c9.1946,0 13.79188,-3.39239 13.79188,-10.1772c0,-6.78481 -4.79843,-10.1772 -14.39528,-10.1772z" data-paper-data="{&quot;origPos&quot;:null}" id="path82" fill="url(#color-18)" stroke="none" stroke-width="0.48994" stroke-linecap="butt"/><path d="M209.58371,212.23061l-7.93033,-1.58727c-12.47016,-2.80107 -18.70525,-9.33687 -18.70525,-19.60746c0,-4.29498 1.29298,-7.96748 3.87896,-11.01753c2.64344,-3.11228 5.77536,-5.32203 9.39572,-6.62919c3.67784,-1.30716 7.5568,-1.96074 11.63691,-1.96074c6.60861,0 12.26902,1.96074 16.98126,5.88225c4.71222,3.85925 7.24075,8.9634 7.58554,15.31248h-11.89551c-0.45972,-3.6725 -1.95385,-6.34908 -4.48236,-8.02971c-2.47105,-1.68063 -5.37309,-2.52096 -8.70613,-2.52096c-3.27557,0 -6.12015,0.71584 -8.53373,2.14749c-2.35612,1.36942 -3.53417,3.45465 -3.53417,6.25572c0,4.41947 2.90204,7.22051 8.70613,8.40318l8.18893,1.58727c2.93078,0.62245 5.48802,1.33829 7.67173,2.14749c2.24119,0.8092 4.48236,1.96074 6.72354,3.45465c2.24119,1.49391 3.96515,3.48578 5.17196,5.97561c1.20679,2.48983 1.81018,5.41539 1.81018,8.77668c0,6.53583 -2.52851,11.63998 -7.58554,15.31248c-4.99956,3.61027 -10.91858,5.41539 -17.75704,5.41539c-7.70047,0 -13.93555,-2.08523 -18.70525,-6.25572c-4.71222,-4.23272 -7.35568,-9.99045 -7.93033,-17.27322h11.89551c1.20679,8.58993 6.26382,12.88491 15.17108,12.88491c3.27557,0 6.17761,-0.74694 8.70613,-2.24085c2.52851,-1.49391 3.79277,-3.89038 3.79277,-7.18941c0,-2.67658 -1.00566,-4.69955 -3.01697,-6.06897c-2.01133,-1.43165 -4.85589,-2.48983 -8.53373,-3.17454z" data-paper-data="{&quot;origPos&quot;:null}" id="path84" fill="url(#color-19)" stroke="none" stroke-width="0.48994" stroke-linecap="butt"/><path d="M253.95208,240.33464v-56.86161h-19.22245v-10.83078h50.85756v10.83078h-19.30864v56.86161z" data-paper-data="{&quot;origPos&quot;:null}" id="path86" fill="url(#color-20)" stroke="none" stroke-width="0.48994" stroke-linecap="butt"/><path d="M290.63934,172.64224h12.3265v39.12153c0,6.53583 0.91945,11.35987 2.75837,14.47218c1.89637,3.11228 5.51676,4.66845 10.86111,4.66845c5.34435,0 8.90726,-1.52501 10.6887,-4.57506c1.83892,-3.11228 2.75837,-7.96748 2.75837,-14.56554v-39.12153h12.3265v39.02817c0,11.01753 -1.98259,18.76713 -5.94774,23.24883c-3.96518,4.41947 -10.57377,6.62919 -19.82584,6.62919c-9.30953,0 -15.9756,-2.20972 -19.99823,-6.62919c-3.96515,-4.4817 -5.94774,-12.2313 -5.94774,-23.24883z" data-paper-data="{&quot;origPos&quot;:null}" id="path88" fill="url(#color-21)" stroke="none" stroke-width="0.48994" stroke-linecap="butt"/><path d="M346.66751,172.64224h13.3609l14.91248,50.97936l14.48147,-50.97936h13.10227l-21.54981,67.69239h-12.5851z" data-paper-data="{&quot;origPos&quot;:null}" id="path90" fill="url(#color-22)" stroke="none" stroke-width="0.48994" stroke-linecap="butt"/><path d="M154.22292,253.75992l9.56813,49.57884l8.53375,-49.57884h12.58507l-13.8781,67.69239h-14.56768l-9.48191,-50.41917l-9.48191,50.41917h-14.56768l-13.8781,-67.69239h12.7575l9.30955,49.29873l8.70613,-49.29873z" data-paper-data="{&quot;origPos&quot;:null}" id="path92" fill="url(#color-23)" stroke="none" stroke-width="0.48994" stroke-linecap="butt"/><path d="M184.01553,321.45231l22.929,-34.63983l-21.46361,-33.05256h14.82631l14.13668,21.75492l14.39525,-21.75492h13.96429l-21.46361,32.39898l22.929,35.29341h-14.82626l-15.60211,-23.99577l-15.94686,23.99577z" data-paper-data="{&quot;origPos&quot;:null}" id="path94" fill="url(#color-24)" stroke="none" stroke-width="0.48994" stroke-linecap="butt"/><path d="M242.02493,253.75992h14.3953l14.56768,28.29075l14.82626,-28.29075h14.05046l-23.01522,41.54913v26.14326h-12.3265v-26.33001z" data-paper-data="{&quot;origPos&quot;:null}" id="path96" fill="url(#color-25)" stroke="none" stroke-width="0.48994" stroke-linecap="butt"/><path d="M349.6354,253.75992v10.45731l-33.61772,45.84408h34.56591v11.391h-49.90937v-10.45731l33.79016,-45.93745h-31.11796v-11.29764z" data-paper-data="{&quot;origPos&quot;:null}" id="path98" fill="url(#color-26)" stroke="none" stroke-width="0.48994" stroke-linecap="butt"/></g></g></svg>