<svg version="1.1" xmlns="http://www.w3.org/2000/svg" xmlns:xlink="http://www.w3.org/1999/xlink" width="639" height="1338.74129" viewBox="0,0,639,1338.74129"><defs><linearGradient x1="244.91625" y1="176.13001" x2="259.68415" y2="156.40399" gradientUnits="userSpaceOnUse" id="color-1"><stop offset="0" stop-color="#de141f"/><stop offset="1" stop-color="#4a1517"/></linearGradient><linearGradient x1="234.52742" y1="207.64453" x2="240.1384" y2="233.82874" gradientUnits="userSpaceOnUse" id="color-2"><stop offset="0" stop-color="#de141f"/><stop offset="1" stop-color="#4a1517"/></linearGradient><linearGradient x1="240.38306" y1="206.05794" x2="257.25072" y2="226.85647" gradientUnits="userSpaceOnUse" id="color-3"><stop offset="0" stop-color="#de141f"/><stop offset="1" stop-color="#4a1517"/></linearGradient><linearGradient x1="208.60113" y1="174.92819" x2="187.42504" y2="162.32739" gradientUnits="userSpaceOnUse" id="color-4"><stop offset="0" stop-color="#de141f"/><stop offset="1" stop-color="#4a1517"/></linearGradient><linearGradient x1="294.48444" y1="788.84946" x2="305.37237" y2="1044.98796" gradientUnits="userSpaceOnUse" id="color-5"><stop offset="0" stop-color="#9b6197"/><stop offset="1" stop-color="#4e273f"/></linearGradient><linearGradient x1="180.47789" y1="786.6207" x2="169.58986" y2="1042.75911" gradientUnits="userSpaceOnUse" id="color-6"><stop offset="0" stop-color="#9b6197"/><stop offset="1" stop-color="#4e273f"/></linearGradient><linearGradient x1="-27.71002" y1="503.0984" x2="-84.49228" y2="853.88301" gradientUnits="userSpaceOnUse" id="color-7"><stop offset="0" stop-color="#9b6197"/><stop offset="1" stop-color="#4e273f"/></linearGradient><linearGradient x1="502.89526" y1="503.76695" x2="559.67742" y2="854.55165" gradientUnits="userSpaceOnUse" id="color-8"><stop offset="0" stop-color="#9b6197"/><stop offset="1" stop-color="#4e273f"/></linearGradient></defs><g transform="translate(82,254.0951)"><g data-paper-data="{&quot;isPaintingLayer&quot;:true}" fill-rule="nonzero" stroke-linejoin="miter" stroke-miterlimit="10" stroke-dasharray="" stroke-dashoffset="0" style="mix-blend-mode: normal"><path d="M-81,415v-426h637v426z" fill="#85b8ff" stroke="#000000" stroke-width="2" stroke-linecap="butt"/><path d="M123.5,140.01547c-0.49071,-0.40673 -0.73607,-0.89744 -0.73607,-0.89744c-0.97681,-1.95361 -3.30236,-4.67617 -3.84406,-6.73128c-0.54379,-2.06305 -0.17442,-4.2674 -0.41987,-6.38675c-0.09109,-0.78647 -0.99137,-1.4268 -0.87171,-2.20943c0.6518,-4.2631 4.23213,-8.00107 7.98496,-9.8707c2.62066,-1.30558 5.75367,-0.56422 8.09618,-1.79158c3.67966,-1.22655 7.16374,-0.55885 10.4086,1.63564c0.99989,0.67622 1.60939,1.85613 2.64973,2.4683c0.59216,0.34844 2.64516,0.68716 2.0228,0.39606c-0.65209,-0.305 -1.77456,-0.072 -2.02664,-0.74633c-0.06122,-0.16378 1.7625,-4.06709 1.86436,-4.67254c0.33113,-1.96825 -0.16946,-4.06723 1,-6c2.01994,-3.33837 5.211,-4.23384 8.76537,-5.13479c7.85468,-1.96367 17.50798,-0.57464 25.60634,-0.57464c2.42875,0 6.55085,0.75929 8.70943,-0.37171c1.71123,-0.57041 3.72461,-0.06517 5.29057,-0.62829c0.70832,-0.25471 0.88538,-1.38827 1.61325,-1.58013c2.06305,-0.54379 4.30204,0.03385 6.38675,-0.41987c1.09584,-0.2385 1.79319,-1.46719 2.88197,-1.73607c1.65845,-0.40957 3.42561,-0.03175 5.11803,-0.26393c3.4125,-0.46816 6.88241,-2.43399 10.39366,-2.92536c3.099,-0.43368 6.48441,-0.07464 9.60634,-0.07464c2.89217,0 6.13662,0.42091 9,0c2.12231,-0.31197 4.11367,-1.52433 6.20943,-1.87171c2.495,-0.41355 5.27234,-0.12829 7.79057,-0.12829c5.83333,0 11.66667,0 17.5,0c1.17498,0 3.40628,0.39996 4.5,0c0.25455,-0.09309 -0.8166,-0.00116 -0.76777,-0.26777c0.08494,-0.46369 0.59668,-0.75596 1,-1c4.1694,-2.52277 9.86681,-3.56714 14.4772,-5.10394c1.24111,-0.4137 4.05447,-1.33356 5.29057,-0.62829c3.895,2.22234 5.19004,5.84685 5.46848,9.94475c1.25231,0.00604 3.30094,0.08914 3.53152,0.05525c2.48711,-0.36559 4.8889,-1.57484 7.39366,-1.92536c8.01304,-1.12135 17.46557,3.74905 22.87411,9.15759c2.54792,2.54792 5.27451,2.43538 8.33857,3.84241c4.40618,2.02334 8.41452,5.14986 12.75323,7.32736c1.61749,0.81178 3.12356,0.10702 4.64043,0.59799c4.06508,1.31576 8.3459,4.05931 11.88675,6.41987c2.51962,1.67975 5.75378,2.06903 8.2039,3.83058c2.40581,1.72969 6.07838,5.03992 7.67711,7.48178c3.67112,5.60718 3.83536,15.7461 2.10394,22.05834c-0.81255,2.43764 -1.12202,5.7281 -1.44635,8.31577c-0.12297,0.98112 0.40893,2.47359 0.07464,3.39366c-0.88642,2.43976 -2.61455,3.71316 -4.61325,5.08013c-2.30533,1.57667 -4.61026,2.3259 -7.38675,2.41987c-0.20998,0.00711 -0.4217,0.01794 -0.63302,0.03594c1.00783,0.90504 1.31819,3.44385 2.90079,4.69629c0.38656,0.38656 2.88689,1.20935 3.0228,1.39606c0.68163,0.93637 2.71738,4.98578 2.49741,6.89268c-0.66441,5.7598 -4.8137,11.69206 -6.82374,17.04989c-0.91878,2.44902 -0.65526,3.95235 -0.96424,6.42914c-0.41962,3.36371 -1,6.073 -1,9.5c0,4.02932 -1.72359,7.03628 -3.26393,10.61803c-0.1169,0.27184 -0.75499,2.59225 -0.86436,2.67254c-2.85686,2.09732 -8.32488,2.65284 -11.76537,3.63479c-3.00744,0.85835 -4.50547,2.46982 -6.83857,4.34241c-1.32503,1.06349 -2.86015,1.73372 -4,3c-3.22295,3.22295 -7.6737,3.04346 -11.76777,3.73223c-1.77642,0.29886 -1.9424,1.79914 -3.23223,2.26777c-1.20251,0.4369 -2.49853,0.5711 -3.76777,0.73223c-2.01591,0.25592 -5.58546,-0.11359 -7.39319,-1.02913c-2.38236,-1.20657 -2.56159,-2.20352 -4.35198,-3.6808c-0.57497,-0.47441 -2.21287,-1.20281 -2.64157,-1.70995c-0.65441,-0.77414 -2.21354,-4.92505 -3.5,-5c-4.63683,-3.09122 -10.59219,-4.52572 -15.23128,-7.84406c-3.17781,-2.27308 -5.94412,-6.78477 -9.54968,-8.37361c-2.93192,-1.29199 -8.18488,-0.36246 -11.33229,-0.36246c-1.75456,0 -4.30681,-0.43245 -6,0c-1.08661,0.27753 -1.8507,1.29536 -2.88197,1.73607c-0.59307,0.25344 -1.21708,0.42732 -1.82746,0.63564c-0.4988,0.17024 -1.66667,0 -1.5,0.5c0.1807,0.54209 1.39788,-0.35072 1.70943,0.12829c0.45435,0.69858 -0.1273,1.67645 0,2.5c0.04141,0.26786 0.00116,-0.8166 0.26777,-0.76777c0.46369,0.08494 0.82271,0.5632 1,1c0.60471,1.48984 1.68376,3.47165 0.73223,4.76777c-3.10641,4.23138 -10.4518,5.28583 -15.20943,6.87171c-2.96583,0.98861 -5.05621,-1.10181 -7.05834,-3.10394c-0.14173,-0.14173 -0.28345,-0.28345 -0.42518,-0.42518c-0.26389,0.33215 -1.10237,0.35841 -1.4203,0.73754c-0.11323,0.13502 0.48651,0.03423 0.48496,0.21044c-0.00369,0.41944 -0.28974,3.2149 -0.37171,3.70943c-0.40051,2.41635 -1.13571,3.9424 -2.73223,5.76777c-3.1475,3.59867 -8.72663,4.47789 -13.26777,4.73223c-4.78228,0 -12.8608,-0.4965 -15.26777,-5.73223c-0.89116,-1.93848 -0.99149,-4.15572 -1.66427,-6.18038c-0.76131,-2.29109 -2.59374,-4.08427 -3.64809,-6.20064c-0.26921,-0.54037 -0.45545,-1.11747 -0.65029,-1.6901c-0.32805,0.07079 -0.89213,-0.19665 -1.26958,-0.19665c-1.5,0 -3,0 -4.5,0c-4.61876,0 -9.13083,2.59612 -13.11325,4.58013c-2.03128,1.01197 -4.65698,1.1505 -6.59618,2.29158c-0.49719,0.29256 -0.52924,1.09742 -1.0228,1.39606c-2.18002,1.31906 -4.74994,1.48428 -6.9772,2.60394c-1.61898,0.81387 -2.7127,1.82506 -4.5,2.5c-4.31549,1.4385 -9.02059,3.75753 -13.5,4.5c-7.91793,1.31241 -15.66731,-1.02873 -23.08114,-3.5c-1.938,-0.646 -3.31121,-1.89427 -5.09618,-2.79158c-2.13464,-1.0731 -4.58419,-1.61578 -6.73128,-2.84406c-2.19953,-1.25827 -3.74112,-2.88414 -5.64973,-4.4683c-0.29494,-0.2448 -3.61692,-2.60302 -3.73223,-2.76777c-3.18443,-4.54946 -2.39593,-10.78431 -2.99961,-15.89334c-0.13547,-1.14649 -0.99781,-2.6935 -1.3721,-3.81609c-2.6914,-8.0742 -6.88348,-18.07091 0.10394,-25.05834c1,-1 1.77143,-2.29956 3,-3c3.09215,-1.76291 7.13255,-1.96933 10.4772,-3.10394c1.0082,-0.33607 3.7623,-0.7623 4.5,-1.5c0.25554,-0.25554 -0.94416,0.41557 -1.08114,0.08114c-0.19976,-0.48772 0.42837,-0.97784 0.5,-1.5c0.28376,-2.06836 -0.68648,-3.52734 -1,-5.41886c-0.20673,-1.24723 0.08145,-2.54384 -0.12829,-3.79057c-0.40786,-2.42433 -1.61974,-4.86496 -1.93203,-7.41261c-0.30634,-2.49911 0.27266,-5.1045 -0.06797,-7.58739c-0.21642,-1.57754 -0.90068,-2.72662 -1,-4.5c0,-2.49484 0,-4.98968 0,-7.48453zM266.81559,228.2755c0.05527,0.10231 0.08518,0.21715 0.09534,0.3393c0.19365,0.13341 0.36912,0.28372 0.3213,0.15296c-0.07535,-0.20604 -0.23721,-0.35424 -0.41664,-0.49227z" data-paper-data="{&quot;origPos&quot;:null}" fill="#ffffff" stroke="none" stroke-width="0.5" stroke-linecap="butt"/><path d="M152.22113,172.88519l-15.80663,-40.48505c0,0 -1.55818,-2.82935 -0.60561,-2.10264c15.26925,11.64882 38.07359,30.31916 40.72189,32.4538c0.88277,0.71154 -0.09074,0.18406 -0.09074,0.18406l-15.65187,-40.37584" data-paper-data="{&quot;origPos&quot;:null,&quot;origRot&quot;:0}" fill="none" stroke="#e62627" stroke-width="10" stroke-linecap="round"/><path d="M204.87393,126.35035l4.60039,23.50301c0,0 -0.66469,8.10958 -9.99545,8.73576c-9.67639,0.64937 -10.62863,-7.25172 -10.62863,-7.25172l-4.58721,-23.16996" data-paper-data="{&quot;origPos&quot;:null,&quot;origRot&quot;:0}" fill="none" stroke="#ffab3f" stroke-width="10" stroke-linecap="round"/><path d="M223.15813,154.55805l-0.65277,-23.94012c0,0 1.99582,-7.8882 11.30176,-6.96366c9.65064,0.95878 9.28398,8.9086 9.28398,8.9086l0.02814,21.27612" data-paper-data="{&quot;origPos&quot;:null,&quot;origRot&quot;:0}" fill="none" stroke="#fec827" stroke-width="10" stroke-linecap="round"/><path d="M243.49146,153.89138l-0.65277,-23.94012c0,0 1.99582,-7.8882 11.30176,-6.96366c9.65065,0.95879 9.28398,8.90861 9.28398,8.90861l0.02814,21.27612" data-paper-data="{&quot;origPos&quot;:null,&quot;origRot&quot;:0}" fill="none" stroke="#fec827" stroke-width="10" stroke-linecap="round"/><path d="M284.27548,130.04263c0,0 3.96914,-3.07774 6.50152,-3.60088c2.53238,-0.52315 4.29401,-0.5857 6.33164,0.1462c2.03764,0.73189 3.51536,2.06694 4.34624,3.10115c0.83089,1.03422 1.0721,4.10917 1.0721,4.10917l-3.76333,18.58475c0,0 -2.13952,2.93037 -3.75802,3.91429c-1.61849,0.98393 -1.78813,1.2924 -4.69621,1.22525c-2.90806,-0.06714 -4.91458,-0.10366 -7.3006,-1.50225c-2.38601,-1.3986 -3.76943,-6.42207 -3.76943,-6.42207l6.56673,-42.52641" data-paper-data="{&quot;origPos&quot;:null,&quot;origRot&quot;:0}" fill="none" stroke="#8cbe49" stroke-width="10" stroke-linecap="round"/><path d="M314.85669,145.3287c0,0 4.04946,-9.48589 8.25984,-11.56445c3.31542,-1.63673 9.99164,0.6096 9.99164,0.6096c0,0 5.71165,4.54979 6.3444,8.10372c0.70865,3.98011 -2.9072,11.20135 -2.9072,11.20135l-21.52243,-7.8165c0,0 -3.27975,11.2367 -0.70958,14.65077c3.19868,4.24895 15.49153,4.98482 15.49153,4.98482" data-paper-data="{&quot;origPos&quot;:null,&quot;origRot&quot;:0}" fill="none" stroke="#50a8d7" stroke-width="10" stroke-linecap="round"/><path d="M342.23443,171.02169l10.53874,-18.70155c0,0 3.50071,-5.18531 6.05437,-5.44222c3.73456,-0.37573 10.05842,3.82115 10.05842,3.82115" data-paper-data="{&quot;origPos&quot;:null,&quot;origRot&quot;:0}" fill="none" stroke="#7965a7" stroke-width="10" stroke-linecap="round"/><path d="M181.83579,207.65271l-4.84582,-26.74971l26.7497,-4.84582l4.84582,26.7497z" data-paper-data="{&quot;origPos&quot;:null,&quot;origRot&quot;:0}" fill="#608ac9" stroke="#6584b0" stroke-width="10" stroke-linecap="butt"/><path d="M215.03158,200.44736l-0.03263,-27.18506l27.18506,-0.03264l0.03263,27.18506z" data-paper-data="{&quot;origPos&quot;:null,&quot;origRot&quot;:0}" fill="#375898" stroke="#385798" stroke-width="10" stroke-linecap="butt"/><path d="M316.79303,209.78604l12.30507,-24.24075l24.24075,12.30508l-12.30507,24.24074z" data-paper-data="{&quot;origPos&quot;:null,&quot;origRot&quot;:0,&quot;index&quot;:null}" fill="#375898" stroke="#385798" stroke-width="10" stroke-linecap="butt"/><path d="M285.63254,201.54505l6.51334,-26.39327l26.39328,6.51335l-6.51333,26.39327z" data-paper-data="{&quot;origPos&quot;:null,&quot;origRot&quot;:0,&quot;index&quot;:null}" fill="#608ac9" stroke="#6584b0" stroke-width="10" stroke-linecap="butt"/><path d="M254.07692,200.41473l0.03263,-27.18506l27.18507,0.03263l-0.03263,27.18505z" data-paper-data="{&quot;origPos&quot;:null,&quot;origRot&quot;:0,&quot;index&quot;:null}" fill="#375898" stroke="#385798" stroke-width="10" stroke-linecap="butt"/><path d="M150.69871,220.55153l-11.05466,-24.83591l24.83592,-11.05466l11.05466,24.83591z" data-paper-data="{&quot;origPos&quot;:null,&quot;origRot&quot;:0}" fill="#375898" stroke="#385798" stroke-width="10" stroke-linecap="butt"/><path d="M154.10493,207.39263c0,0 4.74867,-3.44315 8.21318,-3.37384c3.46451,0.06931 4.52509,1.25962 6.07096,3.65963c1.54587,2.4 -1.35776,3.65769 -1.35776,3.65769l-12.03531,5.25316l-8.21308,-18.05519c0,0 6.46058,-3.61062 11.02866,-4.25985c4.56808,-0.64923 3.87071,-0.04465 4.65321,2.03109c0.7825,2.07574 -0.24066,7.52237 -0.24066,7.52237" data-paper-data="{&quot;origPos&quot;:null,&quot;origRot&quot;:0}" fill="none" stroke="#ffffff" stroke-width="6" stroke-linecap="round"/><path d="M202.74306,200.12671l-12.12448,2.79154l-4.32538,-20.05109" data-paper-data="{&quot;origPos&quot;:null,&quot;origRot&quot;:0}" fill="none" stroke="#ffffff" stroke-width="6" stroke-linecap="round"/><path d="M220.24669,187.44676c0,-5.70694 4.40254,-10.33333 9.83334,-10.33333c5.4308,0 9.83333,4.62639 9.83333,10.33333c0,5.70694 -4.40253,10.33334 -9.83333,10.33334c-5.4308,0 -9.83334,-4.6264 -9.83334,-10.33334z" data-paper-data="{&quot;origPos&quot;:null}" fill="none" stroke="#ffffff" stroke-width="6" stroke-linecap="butt"/><path d="M277.48848,195.1686c-1.74493,1.71806 -4.13957,2.77816 -6.78181,2.77816c-5.33875,0 -9.66667,-4.32791 -9.66667,-9.66666c0,-5.33875 4.32791,-9.66666 9.66667,-9.66666c2.29503,0 4.40327,0.79979 6.06118,2.13586" data-paper-data="{&quot;origPos&quot;:null}" fill="none" stroke="#ffffff" stroke-width="6" stroke-linecap="butt"/><path d="M291.60655,197.90334l5.1462,-18.14227" data-paper-data="{&quot;origPos&quot;:null,&quot;origRot&quot;:0}" fill="none" stroke="#ffffff" stroke-width="6" stroke-linecap="round"/><path d="M293.50308,191.19303l16.66482,-7.38894" data-paper-data="{&quot;origPos&quot;:null,&quot;origRot&quot;:0}" fill="none" stroke="#ffffff" stroke-width="6" stroke-linecap="round"/><path d="M300.56674,188.34617l4.67768,14.85536" data-paper-data="{&quot;origPos&quot;:null,&quot;origRot&quot;:0}" fill="none" stroke="#ffffff" stroke-width="6" stroke-linecap="round"/><path d="M342.95369,198.85404l-6.55527,-4.54459c0,0 -3.44984,-1.46023 -5.02829,0.52796c-1.57845,1.98819 -0.53745,6.48256 -0.53745,6.48256l4.81806,4.21738c0,0 2.54883,4.54905 0.96107,6.54896c-1.58775,1.9999 -6.52682,0.46156 -6.52682,0.46156l-7.23814,-6.07632" data-paper-data="{&quot;origPos&quot;:null,&quot;origRot&quot;:0}" fill="none" stroke="#ffffff" stroke-width="6" stroke-linecap="round"/><path d="M248.51096,176.93464c2.07715,-5.63747 4.61856,-11.01895 7.76483,-15.96022c0.83653,-1.30688 2.43762,-2.09465 3.95751,-2.42964c1.02008,-0.22368 2.32415,0.0103 3.28072,0.72645c0.95659,0.71614 1.52269,1.89407 1.6211,2.94329c0.13621,1.45926 -0.15591,3.08087 -0.97513,4.25544c-2.26756,3.12265 -5.15962,5.76842 -8.10245,8.38182c-1.93015,1.7148 -3.7949,3.67954 -6.46051,4.4221c-0.77326,0.21512 -1.60534,-0.92999 -1.08605,-2.33925z" data-paper-data="{&quot;origPos&quot;:null,&quot;origRot&quot;:0}" fill="url(#color-1)" stroke="#000000" stroke-width="0.5" stroke-linecap="butt"/><path d="M232.96354,210.64356c1.3603,2.57796 1.66106,5.5615 2.63712,8.26444c1.0152,3.16297 2.71138,6.16739 3.34141,9.3463c0.29543,1.48702 -0.02313,3.21388 -0.76944,4.57962c-0.50179,0.91585 -1.53516,1.74502 -2.7036,1.9954c-1.16838,0.2504 -2.42831,-0.09702 -3.28379,-0.71236c-1.18942,-0.85629 -2.30092,-2.13713 -2.56665,-3.53156c-0.67827,-3.56206 -0.47879,-7.30156 -0.36203,-10.96766c0.11413,-3.57192 -0.45343,-7.35598 0.97749,-10.87154c0.40825,-0.93715 2.26414,1.01749 2.72948,1.89735z" data-paper-data="{&quot;origPos&quot;:null,&quot;origRot&quot;:0}" fill="url(#color-2)" stroke="#000000" stroke-width="0.5" stroke-linecap="butt"/><path d="M243.9348,203.40619c3.63523,1.09168 6.22556,3.90795 9.07845,6.06032c2.92787,2.20942 5.9648,4.40048 8.3128,7.16366c0.91903,1.08185 1.21894,2.751 1.13937,4.21443c-0.05765,1.05222 -0.57767,2.25124 -1.50576,3.0039c-0.92809,0.75269 -2.22213,1.03705 -3.25011,0.85312c-1.53172,-0.27584 -3.07622,-1.11132 -4.04872,-2.27441c-2.07993,-2.48521 -3.35504,-5.6911 -5.18089,-8.46622c-1.4922,-2.45601 -3.62662,-4.56224 -4.78041,-7.239c-0.39312,-0.91441 -0.7506,-3.58595 0.23526,-3.31581z" data-paper-data="{&quot;origPos&quot;:null,&quot;origRot&quot;:0}" fill="url(#color-3)" stroke="#000000" stroke-width="0.5" stroke-linecap="butt"/><path d="M205.47363,179.6199c-2.74731,0.33044 -5.22054,-0.77438 -7.65885,-1.6232c-3.71728,-1.29317 -7.39991,-2.63564 -10.68721,-4.65713c-1.20532,-0.77322 -2.09397,-2.16078 -2.52472,-3.56166c-0.30929,-1.0074 -0.23535,-2.31222 0.37572,-3.33912c0.61103,-1.02691 1.72724,-1.74066 2.75551,-1.92302c1.53274,-0.27015 3.31328,-0.15271 4.58512,0.73624c4.79327,3.36739 9.1954,7.37244 13.26601,11.79124c1.01762,1.10459 0.68527,2.48053 -0.11158,2.57665z" data-paper-data="{&quot;origPos&quot;:null,&quot;origRot&quot;:0}" fill="url(#color-4)" stroke="#000000" stroke-width="0.5" stroke-linecap="butt"/><path d="M202.86904,170.04979c0.05059,-0.48693 0.21867,-1.05453 0.57272,-1.30458c0.56258,-0.39191 1.19882,-0.46346 1.97869,-0.58058c2.89269,-0.4596 5.80856,-0.665 8.73615,-1.03117c7.48162,-0.93535 14.92412,-1.9869 22.45071,-2.94309c3.60589,-0.45819 7.22138,-1.00071 10.84711,-1.21808c0.91119,-0.05306 1.3528,0.04897 1.78937,0.51094c0.6176,0.70229 0.86563,1.70524 1.07722,2.65437c0.41607,1.90933 0.36313,3.02223 0.74131,5.81724c1.51096,11.18158 2.95155,22.29035 4.44473,33.59013c0.37312,2.82488 0.23824,1.61178 0.22808,2.43415c-0.01728,0.37989 -0.03596,0.86211 -0.31448,1.14031c-0.49788,0.49237 -0.84257,0.7823 -1.96365,0.95636c-4.39198,0.81257 -8.88448,1.19196 -13.32087,1.77964c-6.97502,0.92366 -13.86167,1.88632 -20.75401,2.72688c-3.22646,0.39442 -6.47721,0.79158 -9.62933,0.98078c-0.78844,0.04727 -0.81444,-0.07686 -1.14031,-0.31449c-0.31177,-0.25585 -0.47843,-0.66157 -0.59042,-1.02499c-0.21607,-0.79354 -0.00412,0.77693 -0.38967,-2.41356c-1.54231,-12.76258 -3.06345,-25.6786 -4.51309,-38.50783c-0.3624,-3.20723 -0.30988,-2.1843 -0.25025,-3.25239z" data-paper-data="{&quot;origPos&quot;:null,&quot;origRot&quot;:0}" fill="#df141d" stroke="#000000" stroke-width="0.5" stroke-linecap="round"/><g data-paper-data="{&quot;origPos&quot;:null,&quot;origRot&quot;:0}" stroke="#000000" stroke-width="0.5" stroke-linecap="butt"><path d="M226.60569,167.99719c4.20955,-0.53644 8.26068,0.83416 11.4051,3.4814c3.14446,2.64753 5.3819,6.57209 5.96443,11.14325c0.58252,4.57116 -0.59915,8.93143 -2.97912,12.283c-2.38001,3.3512 -5.95794,5.69401 -10.16748,6.23045c-4.20955,0.53644 -8.26068,-0.83416 -11.40509,-3.48137c-3.14447,-2.64756 -5.38194,-6.57212 -5.96446,-11.14328c-0.58252,-4.57116 0.59918,-8.93143 2.97916,-12.28296c2.38002,-3.35124 5.95793,-5.69405 10.16748,-6.23048z" fill="#7d191d"/><path d="M226.90081,172.24218c3.02555,-0.38556 5.93875,0.61406 8.20173,2.54028c2.26265,1.92658 3.87506,4.77943 4.2983,8.10075c0.42325,3.32132 -0.42213,6.48738 -2.12929,8.91985c-1.70756,2.4322 -4.27697,4.13048 -7.30251,4.51604c-3.02555,0.38556 -5.93875,-0.61406 -8.20173,-2.54028c-2.26268,-1.92658 -3.87505,-4.77942 -4.2983,-8.10074c-0.42325,-3.32132 0.4221,-6.48737 2.12929,-8.91985c1.70756,-2.4322 4.27696,-4.13048 7.3025,-4.51604z" fill="#ffffff"/></g><g data-paper-data="{&quot;origPos&quot;:null,&quot;origRot&quot;:0}" stroke="none" stroke-width="0.5" stroke-linecap="butt"><path d="M227.48834,176.60109c1.88362,-0.24004 3.69583,0.37079 5.1025,1.55155c1.40632,1.1808 2.40685,2.93159 2.66676,4.97117c0.25991,2.03958 -0.26955,3.98534 -1.33479,5.48111c-1.06558,1.49581 -2.66668,2.54161 -4.55031,2.78164c-1.88366,0.24004 -3.69583,-0.37079 -5.10249,-1.55156c-1.40635,-1.1808 -2.40685,-2.93159 -2.66676,-4.97117c-0.25991,-2.03958 0.26952,-3.98534 1.33479,-5.48111c1.06558,-1.49581 2.66665,-2.5416 4.55031,-2.78164z" fill="#000000"/><path d="M229.66502,180.26485c0.30088,-0.03834 0.58921,0.04905 0.81184,0.22136c0.22262,0.1723 0.37955,0.42949 0.41789,0.73038c0.03834,0.30088 -0.04905,0.58921 -0.22136,0.81184c-0.1723,0.22262 -0.42949,0.37955 -0.73038,0.41789c-0.30088,0.03834 -0.58921,-0.04906 -0.81184,-0.22137c-0.22262,-0.1723 -0.37955,-0.42949 -0.41789,-0.73038c-0.03834,-0.30088 0.04905,-0.58921 0.22136,-0.81184c0.1723,-0.22262 0.42949,-0.37954 0.73038,-0.41788z" fill="#ffffff"/></g><path d="M229.31055,206.21571c1.13653,-0.68627 2.60349,-0.53224 3.80978,-0.99489c1.50565,-0.63489 2.96539,-1.41017 4.29526,-2.2857c1.39686,-0.91778 2.62511,-2.10865 3.90288,-3.20884c1.02842,-0.88542 1.71356,-3.2197 3.12518,-2.71876c1.7145,0.57599 2.92612,2.97351 3.18612,4.89337c0.38146,2.82215 0.0724,6.03126 -1.53634,8.09771c-1.83229,2.40101 -4.91775,3.76809 -7.91704,4.17552c-2.13169,0.28931 -4.42905,-0.95544 -6.36138,-2.23583c-1.4192,-0.92345 -2.57902,-2.49543 -3.25626,-4.08836c-0.25482,-0.60067 0.25695,-1.34233 0.75182,-1.63422z" data-paper-data="{&quot;origPos&quot;:null,&quot;origRot&quot;:0}" fill="#7d191d" stroke="#000000" stroke-width="0.5" stroke-linecap="round"/><path d="M244.02893,201.59941l0.58733,1.44974c0.10474,1.33055 0.39124,2.83631 -0.15675,3.95401c-0.73575,1.50045 -2.1863,2.42971 -3.44609,3.43483c-0.53365,0.42493 -1.23039,0.69701 -1.91206,0.87665c-0.60401,0.158 -1.22784,0.17204 -1.8456,0.07113c-0.70884,-0.06373 -1.43623,-0.25124 -2.08981,-0.56001c-0.39828,-0.18858 -0.75898,-0.52144 -1.05969,-0.85232l-0.90333,-0.99368l1.23654,-0.37244c1.08288,-0.42776 2.22453,-0.7451 3.20278,-1.40456c1.73377,-1.11415 3.30365,-2.53466 4.88907,-3.88741c0.42218,-0.36037 1.02156,-1.02107 1.14952,-1.18828z" data-paper-data="{&quot;origPos&quot;:null,&quot;origRot&quot;:0}" fill="#000000" stroke="#000000" stroke-width="0.5" stroke-linecap="round"/><path d="M239.0198,206.05354c1.13297,-0.75802 2.18225,-1.66527 3.30265,-2.48329c0.29569,-0.21302 0.73052,-0.71278 0.94661,-0.61034c0.26757,0.12882 0.30724,0.77409 -0.01322,1.114c-1.03534,1.09606 -2.43174,1.92731 -3.70487,2.82189c-0.93169,0.65455 -1.90868,1.30887 -2.94376,1.82321c-0.39571,0.20288 -0.86306,0.32505 -1.26274,0.28567c-0.3349,-0.03299 -0.85054,-0.23933 -0.72548,-0.48794c0.15483,-0.30783 0.93841,-0.45022 1.39383,-0.70493c1.01556,-0.56763 2.04377,-1.11316 3.007,-1.75827z" data-paper-data="{&quot;origPos&quot;:null,&quot;origRot&quot;:0}" fill="#ffffff" stroke="#000000" stroke-width="0.5" stroke-linecap="round"/><path d="M241.46943,210.3192c-0.71416,0.46922 -1.4786,0.90372 -2.27599,1.17729c-0.60895,0.23047 -1.25786,0.30039 -1.85805,0.30415c-0.16474,0.00084 -0.60165,0.01034 -0.34365,-0.24569c1.02229,-1.01075 2.21953,-1.88149 3.40283,-2.75259c0.97625,-0.70859 1.99295,-1.39741 3.06874,-1.9457c0.43717,-0.22277 0.96972,-0.40659 1.38545,-0.31869c0.21209,0.03855 0.12762,0.39642 0.02247,0.60281c-0.23732,0.46465 -0.60073,0.93452 -0.99797,1.30546c-0.73386,0.68519 -1.53336,1.30096 -2.40381,1.87295z" data-paper-data="{&quot;origPos&quot;:null,&quot;origRot&quot;:0}" fill="#ffffff" stroke="#000000" stroke-width="0.5" stroke-linecap="round"/><path d="M184.24749,152.29866c0,-2.76143 2.23857,-5 5,-5c2.76143,0 5,2.23857 5,5c0,2.76143 -2.23857,5 -5,5c-2.76143,0 -5,-2.23857 -5,-5z" data-paper-data="{&quot;origPos&quot;:null}" fill="#ffab3f" stroke="none" stroke-width="0.5" stroke-linecap="butt"/><g stroke-width="0.5"><g stroke="#000000"><path d="M330.77229,789.26719c22.34072,25.60892 24.78425,65.23725 35.13383,98.3045c10.77165,34.41523 26.9903,68.74842 29.13882,104.64088c0.53041,13.4345 -11.32742,26.02665 -21.4643,36.62127c-7.00767,7.32104 -17.27474,13.98857 -28.69309,14.47404c-11.41797,0.48547 -22.73517,-4.89037 -29.81731,-11.9867c-7.74851,-7.76677 -9.34476,-18.62045 -10.4159,-28.5612c-3.42564,-31.78351 -3.45677,-63.11551 -3.2874,-94.66853c0.16132,-29.84002 -2.42489,-60.34016 5.03078,-89.72025c2.67723,-11.5686 16.59181,-38.02357 24.37467,-29.1041z" fill="url(#color-5)" stroke-linecap="butt"/><path d="M311.47609,947.56291c8.086,-0.12924 15.36513,-0.15602 22.95629,-1.11438c7.68928,-0.9717 14.68759,-2.69237 21.619,-4.45751c6.06672,-1.42642 14.28188,-3.35647 17.3844,-5.12616l9.36085,-5.34907l24.5164,49.0328l-107.42644,39.22622l-0.44573,-72.65773l13.37262,0.44573z" fill="#ffffff" stroke-linecap="round"/><path d="M312.81338,1000.38457c5.34462,4.45306 26.52224,-19.83598 41.23216,-26.07651c13.48399,-5.70113 27.76151,-11.76786 41.9008,-9.58367c12.01745,1.85436 20.90134,12.03533 28.97391,20.72753c9.73969,10.47967 16.9609,22.67547 23.17911,34.99162c4.43528,9.0577 7.98344,18.94896 8.46929,28.52818c0.3655,7.20334 1.56011,17.83013 -5.57189,20.95035c-16.26993,7.57782 -35.88309,6.24053 -54.15895,5.7948c-29.41964,-1.78302 -58.39364,-4.90324 -86.92182,-11.5896c-7.132,-1.78302 -9.36085,-11.14377 -9.36085,-11.14377l-1.11438,-67.7544l14.04118,14.70982z" fill="#fd840e" stroke-linecap="round"/><path d="M311.69901,1058.5553c3.84686,1.627 37.29616,8.27315 56.16489,9.58367c24.22669,1.15005 48.75198,-0.13814 72.65773,-2.22875l16.04711,-6.24053v13.37262l-8.91502,4.45751c-2.98208,1.48877 -16.1808,4.79188 -24.5164,5.57189c-16.24325,1.51999 -32.97679,1.71613 -49.47853,0.66865c-11.21067,-0.44129 -22.23419,-2.67449 -33.43142,-5.12616c-9.4812,-2.07273 -18.75727,-4.49318 -28.08244,-7.80064l-12.48107,-7.132l0.44573,-8.91502z" fill="#ce6221" stroke-linecap="round"/></g><g stroke="#000000"><path d="M168.5647,816.14244c7.45568,29.38 4.86937,59.88024 5.03078,89.72025c0.16936,31.55302 0.13814,62.88503 -3.2874,94.66853c-1.07114,9.94074 -2.66739,20.79433 -10.4159,28.5612c-7.08213,7.09642 -18.39934,12.47217 -29.81731,11.9867c-11.41844,-0.48547 -21.68542,-7.153 -28.69309,-14.47404c-10.13688,-10.59463 -21.99481,-23.18668 -21.4643,-36.62127c2.14852,-35.89245 18.36726,-70.22565 29.13882,-104.64088c10.34948,-33.06725 12.79311,-72.69558 35.13383,-98.3045c7.78285,-8.91947 21.69743,17.5355 24.37467,29.1041z" fill="url(#color-6)" stroke-linecap="butt"/><path d="M161.92603,945.33406l13.37262,-0.44573l-0.44573,72.65773l-107.42644,-39.22622l24.5164,-49.0328l9.36085,5.34907c3.10243,1.76968 11.31768,3.69974 17.3844,5.12616c6.93141,1.76514 13.92981,3.48581 21.619,4.45751c7.59116,0.95836 14.87029,0.98513 22.95629,1.11438z" fill="#ffffff" stroke-linecap="round"/><path d="M161.25748,997.71008l14.04118,-14.70982l-1.11438,67.7544c0,0 -2.22875,9.36085 -9.36085,11.14377c-28.52818,6.68626 -57.50209,9.80658 -86.92182,11.5896c-18.27587,0.44573 -37.88902,1.78302 -54.15895,-5.7948c-7.132,-3.12031 -5.93739,-13.74702 -5.57189,-20.95035c0.48585,-9.57922 4.03411,-19.47048 8.46929,-28.52818c6.2182,-12.31615 13.43942,-24.51195 23.17911,-34.99162c8.07257,-8.6922 16.95646,-18.87317 28.97391,-20.72753c14.13929,-2.18419 28.41672,3.88253 41.9008,9.58367c14.70982,6.24053 35.88753,30.52957 41.23216,26.07651z" fill="#fd840e" stroke-linecap="round"/><path d="M174.63001,1052.53759l0.44573,8.91502l-12.48107,7.132c-9.32518,3.30746 -18.60125,5.72791 -28.08244,7.80064c-11.19733,2.45167 -22.22075,4.68487 -33.43142,5.12616c-16.50174,1.04748 -33.23528,0.85135 -49.47853,-0.66865c-8.3356,-0.7801 -21.53432,-4.08312 -24.5164,-5.57189l-8.91502,-4.45751v-13.37262l16.04711,6.24053c23.90575,2.09062 48.43105,3.3788 72.65773,2.22875c18.86873,-1.31051 52.31803,-7.95666 56.16489,-9.58367z" fill="#ce6221" stroke-linecap="round"/></g><path d="M12.96618,-16.91188c1.06896,-4.34965 3.34985,-9.29395 7.01079,-11.14917c5.81126,-2.8992 11.93372,-2.81272 19.47407,-2.97319c27.99947,-0.82372 55.9117,0.68066 84.12869,0.74311c72.11076,0.16359 143.99104,-0.76979 216.55341,-0.74311c34.76379,0.01154 69.72107,-0.72882 104.38192,1.48659c8.70866,0.57053 12.77532,2.00367 16.35821,6.68939c5.01025,7.07012 6.15093,16.43579 7.01079,25.272c1.63902,17.76457 -0.20863,27.77845 0,53.51708c0.81615,102.96619 1.05335,205.19287 1.55793,309.20891c0.1248,26.00347 0.31157,14.86584 -0.77868,22.29881c-0.62314,3.41892 -1.38365,7.7628 -4.36261,9.95986c-5.3187,3.88291 -8.93915,6.10996 -19.78564,6.39258c-42.65006,2.2894 -85.73024,0.5411 -128.52969,0.74311c-67.29088,0.31516 -133.78954,1.08543 -200.1951,0.74349c-31.08723,-0.15205 -62.40807,-0.30627 -92.5414,-2.23008c-7.53723,-0.4814 -7.63393,-1.63504 -10.43823,-4.16241c-2.64866,-2.67581 -3.739,-6.54094 -4.36214,-9.95986c-1.09072,-7.43297 -0.97842,7.02858 -0.77916,-22.29881c0.79742,-117.31496 1.98181,-235.99484 3.739,-353.80643c0.43949,-29.45219 -0.29908,-20.13155 1.55793,-29.73168z" fill="#e89223" stroke="#000000" stroke-linecap="round"/><path d="M446.09342,138.07591c-3.33869,11.13488 -19.3278,37.39863 -34.5458,51.26155c-12.58363,11.45137 -28.38994,18.49878 -44.57529,21.17327c-17.26396,2.95975 -35.85631,3.66851 -50.14718,-4.45751c-21.59222,-11.5985 -37.3764,-32.18335 -51.26155,-51.26155c-6.61493,-9.20483 -7.17221,-21.25795 -11.14377,-32.31704l-5.57189,-17.83013l-22.28764,-1.11438l-2.22875,17.83013c-0.40117,6.2851 -19.02475,50.81582 -37.88902,67.97731c-15.64594,14.23731 -38.55757,22.06473 -59.50802,22.28764c-19.83598,0 -39.0034,-8.91502 -54.15895,-20.05889c-15.37847,-12.03533 -24.5164,-29.86547 -33.43142,-46.80404l-12.25825,-39.0034l-42.34653,-1.11438v-64.63418h44.57529l6.68626,-21.17327c2.22431,-7.05176 14.32199,-44.71343 31.20266,-60.17657c15.3339,-14.93718 37.5012,-27.55194 59.73084,-25.63078c27.24889,2.36245 52.15311,19.61316 72.88055,37.88902c14.26409,13.37262 18.7216,34.99162 27.19089,53.04458l3.56605,15.60138h23.17911l1.78302,-17.16149c0.44573,-5.7948 14.36211,-51.56915 34.5458,-65.97137c23.59816,-16.83166 57.33273,-22.7646 86.92182,-20.05889c19.23422,1.77413 35.22788,17.73202 49.0328,31.20266c11.40236,12.12001 17.59388,28.48361 24.5164,43.46091l6.68626,26.74515l36.77465,1.11438v65.74856h-37.88902z" fill="#6e3f64" stroke="#000000" stroke-linecap="round"/><path d="M24.55133,515.77248c10.82246,33.77241 7.58624,72.55158 6.62032,109.34675c-1.46389,56.09043 -3.48174,112.02389 -12.90144,166.8689c-3.75055,20.30091 -14.08129,40.15033 -25.82956,54.12111c-8.45018,10.04056 -20.73548,16.87083 -31.96668,15.05308c-11.23073,-1.81822 -20.99142,-12.07905 -25.58536,-24.36889c-6.83159,-18.33027 -10.77648,-42.19893 -6.14289,-64.05598c17.62056,-82.47803 42.24842,-163.67459 71.6427,-243.02881c7.34781,-19.8373 21.02169,-23.73005 24.16292,-13.93606z" fill="url(#color-7)" stroke="#000000" stroke-linecap="butt"/><path d="M474.79683,530.37709c29.39428,79.35422 54.02214,160.55078 71.6427,243.02881c4.63359,21.85705 0.6887,45.72571 -6.14289,64.05598c-4.59394,12.28985 -14.35454,22.55067 -25.58536,24.36889c-11.2312,1.81775 -23.5166,-5.01252 -31.96668,-15.05308c-11.74827,-13.97078 -22.07902,-33.82019 -25.82956,-54.12111c-9.4196,-54.84501 -11.43755,-110.77847 -12.90144,-166.8689c-0.96593,-36.79508 -4.20214,-75.57425 6.62032,-109.34675c3.14122,-9.79409 16.8151,-5.90134 24.16292,13.93606z" fill="url(#color-8)" stroke="#000000" stroke-linecap="butt"/><path d="M10.73742,419.1315c1.06896,-4.42808 3.34985,-9.46152 7.01079,-11.35023c5.81126,-2.95086 11.93372,-2.86306 19.47407,-3.02664c27.99947,-0.83848 55.9117,0.69315 84.12869,0.75692c72.11076,0.16624 143.99104,-0.78408 216.55341,-0.75692c34.76379,0.01202 69.72107,-0.74131 104.38192,1.51337c8.70866,0.58122 12.77532,2.04019 16.35821,6.81021c5.01025,7.19709 6.15093,16.7309 7.01079,25.72615c1.63902,18.08418 -0.20863,28.27811 0,54.47942c0.81615,104.81875 1.05335,208.88333 1.55793,314.77048c0.1248,26.47105 0.31157,15.13332 -0.77868,22.6995c-0.62314,3.48089 -1.38365,7.90273 -4.36261,10.13953c-5.3187,3.95245 -8.93915,6.21962 -19.78564,6.50706c-42.65006,2.33037 -85.73024,0.55094 -128.52969,0.75692c-67.29088,0.32046 -133.78954,1.10454 -200.1951,0.75645c-31.08723,-0.15422 -62.40807,-0.31157 -92.5414,-2.26982c-7.53723,-0.4903 -7.63393,-1.66485 -10.43823,-4.23734c-2.64866,-2.72397 -3.739,-6.65864 -4.36214,-10.13953c-1.09072,-7.56619 -0.97842,7.15518 -0.77916,-22.6995c0.79742,-119.42516 1.98181,-240.23937 3.739,-360.16996c0.43949,-29.98175 -0.29908,-20.49346 1.55793,-30.26616z" fill="#e89223" stroke="#000000" stroke-linecap="round"/><path d="M128.6266,-33.19524c21.46837,0 40.92541,11.59622 55.01172,30.33126c14.08621,18.73503 22.80651,44.60869 22.80651,73.16411c0,28.55533 -8.7203,54.42955 -22.80651,73.16449c-14.08621,18.73456 -33.54335,30.33079 -55.01172,30.33079c-21.46875,0 -40.92541,-11.59622 -55.0121,-30.33079c-14.08621,-18.73503 -22.80651,-44.60916 -22.80651,-73.16449c0,-28.55533 8.7203,-54.42908 22.80651,-73.16411c14.08669,-18.73503 33.54335,-30.33126 55.0121,-30.33126z" fill="#ffffff" stroke="#000000" stroke-linecap="butt"/><path d="M349.94274,-34.30962c21.46837,0 40.92541,11.59622 55.01172,30.33126c14.08621,18.73503 22.80651,44.60869 22.80651,73.16411c0,28.55533 -8.7203,54.42955 -22.80651,73.16449c-14.08621,18.73456 -33.54335,30.33079 -55.01172,30.33079c-21.46875,0 -40.92541,-11.59622 -55.0121,-30.33079c-14.08621,-18.73503 -22.80651,-44.60916 -22.80651,-73.16449c0,-28.55533 8.7203,-54.42908 22.80651,-73.16411c14.08669,-18.73503 33.54335,-30.33126 55.0121,-30.33126z" fill="#ffffff" stroke="#000000" stroke-linecap="butt"/><g stroke="none" stroke-linecap="butt"><path d="M346.35626,15.49391c12.44984,0 23.7363,6.68182 31.90698,17.47353c8.16624,10.79171 13.2255,25.69767 13.2255,42.14595c0,16.44828 -5.05926,31.35424 -13.2255,42.14595c-8.17068,10.79171 -19.45714,17.47353 -31.90698,17.47353c-12.44984,0 -23.7363,-6.68182 -31.90698,-17.47353c-8.16624,-10.79171 -13.2255,-25.69767 -13.2255,-42.14595c0,-16.44828 5.05926,-31.35424 13.2255,-42.14595c8.17068,-10.79171 19.45714,-17.47353 31.90698,-17.47353z" fill="#000000"/><path d="M335.76967,46.69658c2.46056,0 4.68932,0.99847 6.30298,2.61214c1.61366,1.61366 2.61214,3.84242 2.61214,6.30298c0,2.46056 -0.99847,4.68932 -2.61214,6.30298c-1.61366,1.61366 -3.84242,2.61214 -6.30298,2.61214c-2.46056,0 -4.68932,-0.99847 -6.30298,-2.61214c-1.61366,-1.61366 -2.61214,-3.84242 -2.61214,-6.30298c0,-2.46056 0.99847,-4.68932 2.61214,-6.30298c1.61366,-1.61366 3.84242,-2.61214 6.30298,-2.61214z" fill="#ffffff"/></g><g stroke="none" stroke-linecap="butt"><path d="M132.39493,15.49391c12.44984,0 23.7363,6.68182 31.90698,17.47353c8.16624,10.79171 13.2255,25.69767 13.2255,42.14595c0,16.44828 -5.05926,31.35424 -13.2255,42.14595c-8.17068,10.79171 -19.45714,17.47353 -31.90698,17.47353c-12.44984,0 -23.7363,-6.68182 -31.90698,-17.47353c-8.16624,-10.79171 -13.2255,-25.69767 -13.2255,-42.14595c0,-16.44828 5.05926,-31.35424 13.2255,-42.14595c8.17068,-10.79171 19.45714,-17.47353 31.90698,-17.47353z" fill="#000000"/><path d="M112.89323,47.81095c2.46056,0 4.68932,0.99847 6.30298,2.61214c1.61366,1.61366 2.61214,3.84242 2.61214,6.30298c0,2.46056 -0.99847,4.68932 -2.61214,6.30298c-1.61366,1.61366 -3.84242,2.61214 -6.30298,2.61214c-2.46056,0 -4.68932,-0.99847 -6.30298,-2.61214c-1.61366,-1.61366 -2.61214,-3.84242 -2.61214,-6.30298c0,-2.46056 0.99847,-4.68932 2.61214,-6.30298c1.61366,-1.61366 3.84242,-2.61214 6.30298,-2.61214z" fill="#ffffff"/></g><g stroke="#000000" stroke-linecap="round"><path d="M137.40963,235.02713c27.07054,7.53326 50.37454,27.08397 78.00671,33.43142c26.24142,6.83784 54.14561,1.60467 81.34984,5.57189c6.78883,1.00737 13.91193,4.09646 15.60138,10.0294c2.63882,9.33407 4.30149,22.98297 -3.34313,27.85953c-18.76616,12.44095 -42.89928,17.74091 -64.63418,16.71576c-33.17293,-1.569 -65.67277,-10.13641 -96.95122,-23.40202c-14.74104,-6.25842 -27.43159,-19.01131 -34.5458,-33.43142c-4.86767,-8.74121 -3.91366,-21.75723 1.77858,-29.91448c4.5244,-6.47234 15.11544,-9.00869 22.73782,-6.86017z" fill="#ff8275"/><path d="M283.39365,296.31817c0,0 -22.72004,3.39659 -33.43142,2.22875c-23.75418,-2.25998 -47.77574,-5.99538 -70.20607,-13.37262c-17.17038,-5.63433 -47.91842,-25.63078 -47.91842,-25.63078" fill="none"/></g></g><path d="M208.3043,-212.26808c0,0 25.97858,-39.55151 44.80937,-40.3283c21.46979,-0.8856 58.45581,36.06853 58.45581,36.06853l-99.82298,89.45505l86.0543,-8.51953" fill="none" stroke="#000000" stroke-width="3" stroke-linecap="round"/><g fill="#ff0000" stroke="none" stroke-width="1" stroke-linecap="butt" font-family="Sans Serif" font-weight="normal" font-size="40" text-anchor="start"><text transform="translate(-4.5,74.5) scale(1.71343,1.71343)" font-size="40" xml:space="preserve" fill="#ff0000" fill-rule="nonzero" stroke="none" stroke-width="1" stroke-linecap="butt" stroke-linejoin="miter" stroke-miterlimit="10" stroke-dasharray="" stroke-dashoffset="0" font-family="Sans Serif" font-weight="normal" text-anchor="start" style="mix-blend-mode: normal"><tspan x="0" dy="0">222222222222</tspan></text><text transform="translate(-4.5,132.5) scale(1.71343,1.71343)" font-size="40" xml:space="preserve" fill="#ff0000" fill-rule="nonzero" stroke="none" stroke-width="1" stroke-linecap="butt" stroke-linejoin="miter" stroke-miterlimit="10" stroke-dasharray="" stroke-dashoffset="0" font-family="Sans Serif" font-weight="normal" text-anchor="start" style="mix-blend-mode: normal"><tspan x="0" dy="0">222222222222</tspan></text><text transform="translate(-4.5,210.5) scale(1.71343,1.71343)" font-size="40" xml:space="preserve" fill="#ff0000" fill-rule="nonzero" stroke="none" stroke-width="1" stroke-linecap="butt" stroke-linejoin="miter" stroke-miterlimit="10" stroke-dasharray="" stroke-dashoffset="0" font-family="Sans Serif" font-weight="normal" text-anchor="start" style="mix-blend-mode: normal"><tspan x="0" dy="0">222222222222</tspan></text><text transform="translate(-4.5,269.5) scale(1.71343,1.71343)" font-size="40" xml:space="preserve" fill="#ff0000" fill-rule="nonzero" stroke="none" stroke-width="1" stroke-linecap="butt" stroke-linejoin="miter" stroke-miterlimit="10" stroke-dasharray="" stroke-dashoffset="0" font-family="Sans Serif" font-weight="normal" text-anchor="start" style="mix-blend-mode: normal"><tspan x="0" dy="0">222222222222</tspan></text><text transform="translate(-5.5,342.5) scale(1.71343,1.71343)" font-size="40" xml:space="preserve" fill="#ff0000" fill-rule="nonzero" stroke="none" stroke-width="1" stroke-linecap="butt" stroke-linejoin="miter" stroke-miterlimit="10" stroke-dasharray="" stroke-dashoffset="0" font-family="Sans Serif" font-weight="normal" text-anchor="start" style="mix-blend-mode: normal"><tspan x="0" dy="0">222222222222</tspan></text></g><g fill="#ff0000" stroke="none" stroke-width="1" stroke-linecap="butt" font-family="Sans Serif" font-weight="normal" font-size="40" text-anchor="start"><text transform="translate(-35.5,74.5) scale(1.71343,1.71343)" font-size="40" xml:space="preserve" fill="#ff0000" fill-rule="nonzero" stroke="none" stroke-width="1" stroke-linecap="butt" stroke-linejoin="miter" stroke-miterlimit="10" stroke-dasharray="" stroke-dashoffset="0" font-family="Sans Serif" font-weight="normal" text-anchor="start" style="mix-blend-mode: normal"><tspan x="0" dy="0">222222222222</tspan></text><text transform="translate(-35.5,132.5) scale(1.71343,1.71343)" font-size="40" xml:space="preserve" fill="#ff0000" fill-rule="nonzero" stroke="none" stroke-width="1" stroke-linecap="butt" stroke-linejoin="miter" stroke-miterlimit="10" stroke-dasharray="" stroke-dashoffset="0" font-family="Sans Serif" font-weight="normal" text-anchor="start" style="mix-blend-mode: normal"><tspan x="0" dy="0">222222222222</tspan></text><text transform="translate(-35.5,210.5) scale(1.71343,1.71343)" font-size="40" xml:space="preserve" fill="#ff0000" fill-rule="nonzero" stroke="none" stroke-width="1" stroke-linecap="butt" stroke-linejoin="miter" stroke-miterlimit="10" stroke-dasharray="" stroke-dashoffset="0" font-family="Sans Serif" font-weight="normal" text-anchor="start" style="mix-blend-mode: normal"><tspan x="0" dy="0">222222222222</tspan></text><text transform="translate(-35.5,269.5) scale(1.71343,1.71343)" font-size="40" xml:space="preserve" fill="#ff0000" fill-rule="nonzero" stroke="none" stroke-width="1" stroke-linecap="butt" stroke-linejoin="miter" stroke-miterlimit="10" stroke-dasharray="" stroke-dashoffset="0" font-family="Sans Serif" font-weight="normal" text-anchor="start" style="mix-blend-mode: normal"><tspan x="0" dy="0">222222222222</tspan></text><text transform="translate(-36.5,342.5) scale(1.71343,1.71343)" font-size="40" xml:space="preserve" fill="#ff0000" fill-rule="nonzero" stroke="none" stroke-width="1" stroke-linecap="butt" stroke-linejoin="miter" stroke-miterlimit="10" stroke-dasharray="" stroke-dashoffset="0" font-family="Sans Serif" font-weight="normal" text-anchor="start" style="mix-blend-mode: normal"><tspan x="0" dy="0">222222222222</tspan></text></g><g fill="#ff0000" stroke="none" stroke-width="1" stroke-linecap="butt" font-family="Sans Serif" font-weight="normal" font-size="40" text-anchor="start"><text transform="translate(62.5,74.5) scale(1.71343,1.71343)" font-size="40" xml:space="preserve" fill="#ff0000" fill-rule="nonzero" stroke="none" stroke-width="1" stroke-linecap="butt" stroke-linejoin="miter" stroke-miterlimit="10" stroke-dasharray="" stroke-dashoffset="0" font-family="Sans Serif" font-weight="normal" text-anchor="start" style="mix-blend-mode: normal"><tspan x="0" dy="0">222222222222</tspan></text><text transform="translate(62.5,132.5) scale(1.71343,1.71343)" font-size="40" xml:space="preserve" fill="#ff0000" fill-rule="nonzero" stroke="none" stroke-width="1" stroke-linecap="butt" stroke-linejoin="miter" stroke-miterlimit="10" stroke-dasharray="" stroke-dashoffset="0" font-family="Sans Serif" font-weight="normal" text-anchor="start" style="mix-blend-mode: normal"><tspan x="0" dy="0">222222222222</tspan></text><text transform="translate(62.5,210.5) scale(1.71343,1.71343)" font-size="40" xml:space="preserve" fill="#ff0000" fill-rule="nonzero" stroke="none" stroke-width="1" stroke-linecap="butt" stroke-linejoin="miter" stroke-miterlimit="10" stroke-dasharray="" stroke-dashoffset="0" font-family="Sans Serif" font-weight="normal" text-anchor="start" style="mix-blend-mode: normal"><tspan x="0" dy="0">222222222222</tspan></text><text transform="translate(62.5,269.5) scale(1.71343,1.71343)" font-size="40" xml:space="preserve" fill="#ff0000" fill-rule="nonzero" stroke="none" stroke-width="1" stroke-linecap="butt" stroke-linejoin="miter" stroke-miterlimit="10" stroke-dasharray="" stroke-dashoffset="0" font-family="Sans Serif" font-weight="normal" text-anchor="start" style="mix-blend-mode: normal"><tspan x="0" dy="0">222222222222</tspan></text><text transform="translate(61.5,342.5) scale(1.71343,1.71343)" font-size="40" xml:space="preserve" fill="#ff0000" fill-rule="nonzero" stroke="none" stroke-width="1" stroke-linecap="butt" stroke-linejoin="miter" stroke-miterlimit="10" stroke-dasharray="" stroke-dashoffset="0" font-family="Sans Serif" font-weight="normal" text-anchor="start" style="mix-blend-mode: normal"><tspan x="0" dy="0">222222222222</tspan></text></g><g fill="#ff0000" stroke="none" stroke-width="1" stroke-linecap="butt" font-family="Sans Serif" font-weight="normal" font-size="40" text-anchor="start"><text transform="translate(-44.5,74.5) scale(1.71343,1.71343)" font-size="40" xml:space="preserve" fill="#ff0000" fill-rule="nonzero" stroke="none" stroke-width="1" stroke-linecap="butt" stroke-linejoin="miter" stroke-miterlimit="10" stroke-dasharray="" stroke-dashoffset="0" font-family="Sans Serif" font-weight="normal" text-anchor="start" style="mix-blend-mode: normal"><tspan x="0" dy="0">222222222222</tspan></text><text transform="translate(-44.5,132.5) scale(1.71343,1.71343)" font-size="40" xml:space="preserve" fill="#ff0000" fill-rule="nonzero" stroke="none" stroke-width="1" stroke-linecap="butt" stroke-linejoin="miter" stroke-miterlimit="10" stroke-dasharray="" stroke-dashoffset="0" font-family="Sans Serif" font-weight="normal" text-anchor="start" style="mix-blend-mode: normal"><tspan x="0" dy="0">2222222222222n</tspan></text><text transform="translate(-44.5,210.5) scale(1.71343,1.71343)" font-size="40" xml:space="preserve" fill="#ff0000" fill-rule="nonzero" stroke="none" stroke-width="1" stroke-linecap="butt" stroke-linejoin="miter" stroke-miterlimit="10" stroke-dasharray="" stroke-dashoffset="0" font-family="Sans Serif" font-weight="normal" text-anchor="start" style="mix-blend-mode: normal"><tspan x="0" dy="0">222222222222</tspan></text><text transform="translate(-44.5,269.5) scale(1.71343,1.71343)" font-size="40" xml:space="preserve" fill="#ff0000" fill-rule="nonzero" stroke="none" stroke-width="1" stroke-linecap="butt" stroke-linejoin="miter" stroke-miterlimit="10" stroke-dasharray="" stroke-dashoffset="0" font-family="Sans Serif" font-weight="normal" text-anchor="start" style="mix-blend-mode: normal"><tspan x="0" dy="0">222222222222</tspan></text><text transform="translate(-45.5,342.5) scale(1.71343,1.71343)" font-size="40" xml:space="preserve" fill="#ff0000" fill-rule="nonzero" stroke="none" stroke-width="1" stroke-linecap="butt" stroke-linejoin="miter" stroke-miterlimit="10" stroke-dasharray="" stroke-dashoffset="0" font-family="Sans Serif" font-weight="normal" text-anchor="start" style="mix-blend-mode: normal"><tspan x="0" dy="0">222222222222</tspan></text></g><g fill="#ff0000" stroke="none" stroke-width="1" stroke-linecap="butt" font-family="Sans Serif" font-weight="normal" font-size="40" text-anchor="start"><text transform="translate(12.5,74.5) scale(1.71343,1.71343)" font-size="40" xml:space="preserve" fill="#ff0000" fill-rule="nonzero" stroke="none" stroke-width="1" stroke-linecap="butt" stroke-linejoin="miter" stroke-miterlimit="10" stroke-dasharray="" stroke-dashoffset="0" font-family="Sans Serif" font-weight="normal" text-anchor="start" style="mix-blend-mode: normal"><tspan x="0" dy="0">222222222222</tspan></text><text transform="translate(12.5,132.5) scale(1.71343,1.71343)" font-size="40" xml:space="preserve" fill="#ff0000" fill-rule="nonzero" stroke="none" stroke-width="1" stroke-linecap="butt" stroke-linejoin="miter" stroke-miterlimit="10" stroke-dasharray="" stroke-dashoffset="0" font-family="Sans Serif" font-weight="normal" text-anchor="start" style="mix-blend-mode: normal"><tspan x="0" dy="0">222222222222</tspan></text><text transform="translate(12.5,210.5) scale(1.71343,1.71343)" font-size="40" xml:space="preserve" fill="#ff0000" fill-rule="nonzero" stroke="none" stroke-width="1" stroke-linecap="butt" stroke-linejoin="miter" stroke-miterlimit="10" stroke-dasharray="" stroke-dashoffset="0" font-family="Sans Serif" font-weight="normal" text-anchor="start" style="mix-blend-mode: normal"><tspan x="0" dy="0">222222222222</tspan></text><text transform="translate(12.5,269.5) scale(1.71343,1.71343)" font-size="40" xml:space="preserve" fill="#ff0000" fill-rule="nonzero" stroke="none" stroke-width="1" stroke-linecap="butt" stroke-linejoin="miter" stroke-miterlimit="10" stroke-dasharray="" stroke-dashoffset="0" font-family="Sans Serif" font-weight="normal" text-anchor="start" style="mix-blend-mode: normal"><tspan x="0" dy="0">222222222222</tspan></text><text transform="translate(11.5,342.5) scale(1.71343,1.71343)" font-size="40" xml:space="preserve" fill="#ff0000" fill-rule="nonzero" stroke="none" stroke-width="1" stroke-linecap="butt" stroke-linejoin="miter" stroke-miterlimit="10" stroke-dasharray="" stroke-dashoffset="0" font-family="Sans Serif" font-weight="normal" text-anchor="start" style="mix-blend-mode: normal"><tspan x="0" dy="0">222222222222</tspan></text></g><g fill="#e89223" stroke="none" stroke-width="1" stroke-linecap="butt" font-family="Sans Serif" font-weight="normal" font-size="40" text-anchor="start"><text transform="translate(12.5,42.5) scale(1.71343,1.71343)" font-size="40" xml:space="preserve" fill="#e89223" fill-rule="nonzero" stroke="none" stroke-width="1" stroke-linecap="butt" stroke-linejoin="miter" stroke-miterlimit="10" stroke-dasharray="" stroke-dashoffset="0" font-family="Sans Serif" font-weight="normal" text-anchor="start" style="mix-blend-mode: normal"><tspan x="0" dy="0">222222222222</tspan></text><text transform="translate(12.5,100.5) scale(1.71343,1.71343)" font-size="40" xml:space="preserve" fill="#e89223" fill-rule="nonzero" stroke="none" stroke-width="1" stroke-linecap="butt" stroke-linejoin="miter" stroke-miterlimit="10" stroke-dasharray="" stroke-dashoffset="0" font-family="Sans Serif" font-weight="normal" text-anchor="start" style="mix-blend-mode: normal"><tspan x="0" dy="0">222222222222</tspan></text><text transform="translate(12.5,178.5) scale(1.71343,1.71343)" font-size="40" xml:space="preserve" fill="#e89223" fill-rule="nonzero" stroke="none" stroke-width="1" stroke-linecap="butt" stroke-linejoin="miter" stroke-miterlimit="10" stroke-dasharray="" stroke-dashoffset="0" font-family="Sans Serif" font-weight="normal" text-anchor="start" style="mix-blend-mode: normal"><tspan x="0" dy="0">2222222222222</tspan></text><text transform="translate(12.5,237.5) scale(1.71343,1.71343)" font-size="40" xml:space="preserve" fill="#e89223" fill-rule="nonzero" stroke="none" stroke-width="1" stroke-linecap="butt" stroke-linejoin="miter" stroke-miterlimit="10" stroke-dasharray="" stroke-dashoffset="0" font-family="Sans Serif" font-weight="normal" text-anchor="start" style="mix-blend-mode: normal"><tspan x="0" dy="0">222222222222</tspan></text><text transform="translate(11.5,310.5) scale(1.71343,1.71343)" font-size="40" xml:space="preserve" fill="#e89223" fill-rule="nonzero" stroke="none" stroke-width="1" stroke-linecap="butt" stroke-linejoin="miter" stroke-miterlimit="10" stroke-dasharray="" stroke-dashoffset="0" font-family="Sans Serif" font-weight="normal" text-anchor="start" style="mix-blend-mode: normal"><tspan x="0" dy="0">222222222222</tspan></text></g><text transform="translate(58.13193,312.52273) scale(8.94658,8.94658)" font-size="40" xml:space="preserve" fill="#e89223" fill-rule="nonzero" stroke="#000000" stroke-width="3" stroke-linecap="butt" stroke-linejoin="miter" stroke-miterlimit="10" stroke-dasharray="" stroke-dashoffset="0" font-family="Sans Serif" font-weight="normal" text-anchor="start" style="mix-blend-mode: normal"><tspan x="0" dy="0">2s</tspan></text><text transform="translate(-6.96547,80.97598) scale(3.3169,3.3169)" font-size="40" xml:space="preserve" fill="#ffd6d6" fill-rule="nonzero" stroke="#000000" stroke-width="3" stroke-linecap="butt" stroke-linejoin="miter" stroke-miterlimit="10" stroke-dasharray="" stroke-dashoffset="0" font-family="Sans Serif" font-weight="normal" text-anchor="start" style="mix-blend-mode: normal"><tspan x="0" dy="0">number</tspan></text></g></g></svg>