<svg version="1.1" xmlns="http://www.w3.org/2000/svg" xmlns:xlink="http://www.w3.org/1999/xlink" width="32.38826" height="61.83616" viewBox="0,0,32.38826,61.83616"><g transform="translate(-241.75382,-170.93199)"><g data-paper-data="{&quot;isPaintingLayer&quot;:true}" fill-rule="nonzero" stroke-linejoin="miter" stroke-miterlimit="10" stroke-dasharray="" stroke-dashoffset="0" style="mix-blend-mode: normal"><path d="M253.07759,228.61299c0,-2.28823 0.57493,-4.1432 1.28415,-4.1432c0.70922,0 1.28415,1.85498 1.28415,4.1432c0,2.28823 -0.57493,4.1432 -1.28415,4.1432c-0.70922,0 -1.28415,-1.85498 -1.28415,-4.1432z" fill="#600087" stroke="none" stroke-width="0.5" stroke-linecap="butt"/><path d="M257.1116,228.62494c0,-2.28823 0.57493,-4.1432 1.28415,-4.1432c0.70922,0 1.28415,1.85497 1.28415,4.1432c0,2.28823 -0.57493,4.1432 -1.28415,4.1432c-0.70922,0 -1.28415,-1.85498 -1.28415,-4.1432z" fill="#600087" stroke="none" stroke-width="0.5" stroke-linecap="butt"/><path d="M247.74715,227.03809c0,-1.92693 0.57493,-3.48901 1.28415,-3.48901c0.70922,0 1.28415,1.56208 1.28415,3.48901c0,1.92693 -0.57493,3.48901 -1.28415,3.48901c-0.70922,0 -1.28415,-1.56209 -1.28415,-3.48901z" fill="#600087" stroke="none" stroke-width="0.5" stroke-linecap="butt"/><path d="M263.9688,227.21997c0,-1.92693 0.57493,-3.48901 1.28415,-3.48901c0.70922,0 1.28415,1.56208 1.28415,3.48901c0,1.92693 -0.57494,3.48901 -1.28415,3.48901c-0.70922,0 -1.28415,-1.56209 -1.28415,-3.48901z" fill="#600087" stroke="none" stroke-width="0.5" stroke-linecap="butt"/><path d="M243.57632,199.68904v-13.38391h12.59663v13.38391z" fill="#b800ff" stroke="#000000" stroke-width="0.5" stroke-linecap="butt"/><path d="M256.18779,199.69345v-13.38391h12.59663v13.38391z" fill="#b800ff" stroke="#000000" stroke-width="0.5" stroke-linecap="butt"/><path d="M243.5756,212.77034v-13.38391h12.59663v13.38391z" fill="#b800ff" stroke="#000000" stroke-width="0.5" stroke-linecap="butt"/><path d="M256.18708,212.77474v-13.38391h12.59663v13.38391z" fill="#b800ff" stroke="#000000" stroke-width="0.5" stroke-linecap="butt"/><path d="M243.57511,225.95922v-13.38391h12.59663v13.38391z" fill="#b800ff" stroke="#000000" stroke-width="0.5" stroke-linecap="butt"/><path d="M256.18659,225.96362v-13.38391h12.59663v13.38391z" fill="#b800ff" stroke="#000000" stroke-width="0.5" stroke-linecap="butt"/><path d="M243.57438,186.31454v-13.38391h12.59663v13.38391z" fill="#b800ff" stroke="#000000" stroke-width="0.5" stroke-linecap="butt"/><text transform="translate(244.99965,184.03488) scale(0.30351,0.30351)" font-size="40" xml:space="preserve" fill="#ff00b3" fill-rule="nonzero" stroke="none" stroke-width="1" stroke-linecap="butt" stroke-linejoin="miter" stroke-miterlimit="10" stroke-dasharray="" stroke-dashoffset="0" font-family="Sans Serif" font-weight="normal" text-anchor="start" style="mix-blend-mode: normal"><tspan x="0" dy="0">D</tspan></text><g stroke="#9300ce" stroke-width="0.5" stroke-linecap="butt"><path d="M247.42452,215.19076l-4.80263,-3.88503l3.53014,0.52035l-2.44411,-2.90553l5.76375,2.36446z" fill="#000000"/><path d="M252.21886,222.16848c-3.21155,0 -5.81502,-2.69026 -5.81502,-6.00886c0,-3.3186 2.60347,-6.00886 5.81502,-6.00886c3.21155,0 3.21155,12.01771 0,12.01771z" fill="#ffffff"/></g><path d="M253.78016,219.93223c-1.9202,0 -3.47683,-1.60852 -3.47683,-3.59273c0,-1.98421 1.55663,-3.59273 3.47683,-3.59273c0.92756,0 0.65562,3.35615 0.65562,3.35615c0,0 0.33702,3.8293 -0.65562,3.8293z" fill="#000000" stroke="#9300ce" stroke-width="0.5" stroke-linecap="butt"/><g data-paper-data="{&quot;index&quot;:null}" stroke="#9300ce" stroke-width="0.5" stroke-linecap="butt"><path d="M262.90875,211.20005l5.76375,-2.36447l-2.44411,2.90553l3.53014,-0.52035l-4.80263,3.88503z" fill="#000000"/><path d="M260.16156,210.06581c3.21155,0 5.81502,2.69026 5.81502,6.00886c0,3.3186 -2.60347,6.00886 -5.81502,6.00886c-3.21155,0 -3.21155,-12.01771 0,-12.01771z" fill="#ffffff"/></g><path d="M257.94464,216.01797c0,0 -0.27194,-3.35615 0.65562,-3.35615c1.9202,0 3.47683,1.60852 3.47683,3.59273c0,1.98421 -1.55663,3.59273 -3.47683,3.59273c-0.99264,0 -0.65562,-3.8293 -0.65562,-3.8293z" data-paper-data="{&quot;index&quot;:null}" fill="#000000" stroke="#9300ce" stroke-width="0.5" stroke-linecap="butt"/><path d="M257.73997,221.21456c0,0 -0.29599,0.52403 -0.77964,0.70615c-0.29241,0.1101 -0.48031,-0.52991 -0.77391,-0.56976c-0.15724,-0.02134 -0.47359,0.56141 -0.56468,0.55823c-0.35218,-0.01225 -0.88807,-0.66097 -0.88807,-0.66097" fill="none" stroke="#000000" stroke-width="0.5" stroke-linecap="round"/><text transform="translate(260.20586,182.17255) scale(0.17404,0.17404)" font-size="40" xml:space="preserve" fill="#000000" fill-rule="nonzero" stroke="none" stroke-width="1" stroke-linecap="butt" stroke-linejoin="miter" stroke-miterlimit="10" stroke-dasharray="" stroke-dashoffset="0" font-family="Sans Serif" font-weight="normal" text-anchor="start" style="mix-blend-mode: normal"><tspan x="0" dy="0">7</tspan></text><g stroke-width="0.5"><path d="M273.55272,186.88555l-4.12261,4.58984l-0.10134,-4.36287z" data-paper-data="{&quot;index&quot;:null}" fill="#7800a8" stroke="#000000" stroke-linecap="round"/><path d="M271.42967,188.61496l-0.87015,-0.74187" data-paper-data="{&quot;index&quot;:null}" fill="none" stroke="#600087" stroke-linecap="round"/><path d="M269.91777,188.63779l0.35208,1.08792" data-paper-data="{&quot;index&quot;:null}" fill="none" stroke="#600087" stroke-linecap="round"/><path d="M272.03409,187.54968l-1.11775,-0.24117" data-paper-data="{&quot;index&quot;:null}" fill="none" stroke="#600087" stroke-linecap="round"/><path d="M266.63789,185.26499l-4.35103,0.33685l4.1531,-4.56227z" fill="#7800a8" stroke="#000000" stroke-linecap="round"/><path d="M269.94296,188.07373c-0.98822,1.09288 -2.6753,1.17772 -3.76818,0.18949c-1.09288,-0.98822 -1.17772,-2.6753 -0.18949,-3.76818c0.98822,-1.09288 2.6753,-1.17772 3.76818,-0.18949c1.09288,0.98822 1.17772,2.6753 0.18949,3.76818z" fill="#600087" stroke="none" stroke-linecap="butt"/><path d="M264.93226,183.32542l0.82542,0.79134" fill="none" stroke="#600087" stroke-linecap="round"/><path d="M263.94347,184.59081l1.11775,0.24117" fill="none" stroke="#600087" stroke-linecap="round"/><path d="M266.28361,183.70509l-0.35208,-1.08792" data-paper-data="{&quot;index&quot;:null}" fill="none" stroke="#600087" stroke-linecap="round"/></g></g></g></svg>