<svg version="1.1" xmlns="http://www.w3.org/2000/svg" xmlns:xlink="http://www.w3.org/1999/xlink" width="80.38691" height="56.88102" viewBox="0,0,80.38691,56.88102"><defs><linearGradient x1="223.23291" y1="195.98677" x2="220.07495" y2="203.29156" gradientUnits="userSpaceOnUse" id="color-1"><stop offset="0" stop-color="#296645"/><stop offset="1" stop-color="#0d2018"/></linearGradient><radialGradient cx="221.63531" cy="199.95701" r="0.83471" gradientUnits="userSpaceOnUse" id="color-2"><stop offset="0" stop-color="#a4c793"/><stop offset="1" stop-color="#3fc701"/></radialGradient><linearGradient x1="290.20166" y1="196.23652" x2="294.72774" y2="202.31356" gradientUnits="userSpaceOnUse" id="color-3"><stop offset="0" stop-color="#3971ac"/><stop offset="1" stop-color="#0e122d"/></linearGradient><linearGradient x1="260.33994" y1="200.18155" x2="260.33994" y2="205.43651" gradientUnits="userSpaceOnUse" id="color-4"><stop offset="0" stop-color="#296645"/><stop offset="1" stop-color="#0d2018"/></linearGradient><linearGradient x1="252.24601" y1="198.13611" x2="252.24601" y2="205.71344" gradientUnits="userSpaceOnUse" id="color-5"><stop offset="0" stop-color="#3971ac"/><stop offset="1" stop-color="#0e122d"/></linearGradient><linearGradient x1="251.7507" y1="192.53423" x2="231.72648" y2="203.02051" gradientUnits="userSpaceOnUse" id="color-6"><stop offset="0" stop-color="#287199"/><stop offset="1" stop-color="#3a7fb2"/></linearGradient><linearGradient x1="254.98331" y1="196.61041" x2="249.50765" y2="184.47855" gradientUnits="userSpaceOnUse" id="color-7"><stop offset="0" stop-color="#ebd890"/><stop offset="1" stop-color="#d4bd76"/></linearGradient></defs><g transform="translate(-218.35065,-149.10936)"><g data-paper-data="{&quot;isPaintingLayer&quot;:true}" stroke-width="1" stroke-linejoin="miter" stroke-miterlimit="10" stroke-dasharray="" stroke-dashoffset="0" style="mix-blend-mode: normal"><path d="M242.84965,157.03485c0,-0.1556 0.12614,-0.28174 0.28174,-0.28174h6.60648c0.1556,0 0.28174,0.12614 0.28174,0.28174v6.60648c0,0.07472 -0.02968,0.14638 -0.08252,0.19922c-0.05284,0.05284 -0.12449,0.08252 -0.19922,0.08252h-6.60648c-0.1556,0 -0.28174,-0.12614 -0.28174,-0.28174v0z" data-paper-data="{&quot;index&quot;:null}" fill="#7ad914" fill-rule="evenodd" stroke="#000000" stroke-linecap="square"/><path d="M235.69403,157.051c0,-0.1556 0.12614,-0.28174 0.28174,-0.28174h6.60647c0.1556,0 0.28174,0.12614 0.28174,0.28174v6.60648c0,0.07472 -0.02968,0.14638 -0.08251,0.19923c-0.05284,0.05284 -0.12449,0.08252 -0.19923,0.08252h-6.60647c-0.1556,0 -0.28174,-0.12614 -0.28174,-0.28173v0z" data-paper-data="{&quot;index&quot;:null}" fill="#7ad914" fill-rule="evenodd" stroke="#000000" stroke-linecap="square"/><path d="M228.53161,157.05213c0,-0.1556 0.12614,-0.28174 0.28174,-0.28174h6.60648c0.1556,0 0.28174,0.12614 0.28174,0.28174v6.60648c0,0.07472 -0.02968,0.14638 -0.08251,0.19922c-0.05284,0.05284 -0.12449,0.08252 -0.19922,0.08252h-6.60648c-0.1556,0 -0.28174,-0.12614 -0.28174,-0.28173v0z" data-paper-data="{&quot;index&quot;:null}" fill="#7ad914" fill-rule="evenodd" stroke="#000000" stroke-linecap="square"/><path d="M235.70589,149.8911c0,-0.1556 0.06514,-0.28174 0.1455,-0.28174h3.41167c0.08035,0 0.14549,0.12614 0.14549,0.28174v6.60648c0,0.07472 -0.01532,0.14638 -0.04261,0.19923c-0.02729,0.05284 -0.06429,0.08252 -0.10288,0.08252h-3.41167c-0.08035,0 -0.1455,-0.12614 -0.1455,-0.28173v0z" data-paper-data="{&quot;index&quot;:null}" fill="#7ad914" fill-rule="evenodd" stroke="#000000" stroke-linecap="square"/><g data-paper-data="{&quot;index&quot;:null}" fill-rule="nonzero"><path d="M224.54365,196.57776c0.39128,0.03602 0.27199,0.42011 0.11042,0.79894c-0.64614,1.51551 -2.14266,4.04378 -3.11218,5.32313c-0.25775,0.33819 -0.74673,0.5015 -1.20982,0.53994c-0.31081,0.02545 -0.70687,-0.08884 -0.99595,-0.32647c-0.28909,-0.23763 -0.45825,-0.59127 -0.48547,-0.89125c-0.03772,-0.4172 0.05528,-0.86445 0.30743,-1.16588c0.6976,-0.79817 2.40956,-2.47175 3.31128,-3.10111c0.59139,-0.41297 1.72942,-1.20905 2.07428,-1.17731z" data-paper-data="{&quot;origPos&quot;:null,&quot;origRot&quot;:0,&quot;index&quot;:null}" fill="url(#color-1)" stroke="#000000" stroke-linecap="butt"/><g data-paper-data="{&quot;origPos&quot;:null}"><path d="M222.50797,201.45762c0,0 -0.86045,-0.46219 -1.32663,-0.86408c-0.38544,-0.33228 -0.85553,-1.01715 -0.85553,-1.01715l0.74025,-0.65663c0,0 0.353,0.67852 0.71336,1.01446c0.37432,0.34896 1.16917,0.74052 1.16917,0.74052l-0.44061,0.7829z" data-paper-data="{&quot;origRot&quot;:0,&quot;origPos&quot;:null}" fill="#eeeeee" stroke="#000000" stroke-linecap="butt"/><path d="M219.63266,200.0609l1.42358,-1.67463l1.65732,1.38588l-1.33463,1.80409z" data-paper-data="{&quot;origRot&quot;:0,&quot;origPos&quot;:null}" fill="#eeeeee" stroke="#000000" stroke-linecap="butt"/><path d="M219.63266,200.0609l1.42357,-1.67463l1.65732,1.38588l-1.33463,1.80409z" data-paper-data="{&quot;origRot&quot;:0,&quot;origPos&quot;:null}" fill="#9ce1d8" stroke="#5b9cae" stroke-linecap="butt"/><g stroke="#000000"><path d="M219.97065,200.03033l1.11062,-1.30648l1.29298,1.0812l-1.04123,1.40748z" data-paper-data="{&quot;origRot&quot;:0,&quot;origPos&quot;:null}" fill="#113601" stroke-linecap="butt"/><path d="M220.26719,199.98883l0.84876,-0.99844l0.98812,0.82629l-0.79573,1.07563z" data-paper-data="{&quot;origRot&quot;:0,&quot;origPos&quot;:null}" fill="url(#color-2)" stroke-linecap="butt"/><path d="M222.29164,199.82524l-0.19335,-0.01327" data-paper-data="{&quot;origPos&quot;:null}" fill="none" stroke-linecap="round"/><path d="M221.12104,198.99053l-0.03904,-0.19552" data-paper-data="{&quot;origPos&quot;:null}" fill="none" stroke-linecap="round"/><path d="M220.06201,200.01032l0.22059,-0.0118" data-paper-data="{&quot;origPos&quot;:null}" fill="none" stroke-linecap="round"/><path d="M221.32025,200.88012l-0.01196,0.28773" data-paper-data="{&quot;origPos&quot;:null}" fill="none" stroke-linecap="round"/></g></g></g><g fill-rule="nonzero" stroke="#000000"><path d="M289.8165,196.56931c0.29695,-0.05027 1.35264,0.62664 1.90116,0.97772c0.83635,0.53503 2.46446,1.99865 3.13766,2.70378c0.24443,0.26697 0.36284,0.67984 0.36515,1.0724c0.00157,0.28226 -0.11565,0.6232 -0.34683,0.86276c-0.23118,0.23956 -0.56565,0.37011 -0.83785,0.36483c-0.40556,-0.00836 -0.84414,-0.13197 -1.09651,-0.43299c-0.94991,-1.13907 -2.46272,-3.41516 -3.15153,-4.79445c-0.17223,-0.34479 -0.30816,-0.697 0.02875,-0.75404z" data-paper-data="{&quot;origRot&quot;:0,&quot;index&quot;:null}" fill="url(#color-3)" stroke-linecap="butt"/><path d="M293.92844,198.3021l2.54584,-0.19187l0.17845,0.87533l-1.94624,0.25948l0.89306,0.94289l2.49701,0.73696l-0.34865,1.02569l-2.37606,-0.71154l-0.11773,0.2117l2.38969,1.88326l-0.5556,0.79973l-2.37036,-1.99048l-0.07107,0.05073l1.20848,2.11335l-0.89898,0.47019l-1.11439,-2.03331l-0.32004,0.12692l0.51687,1.81189l-0.95536,0.27253l-0.48836,-2.46127l-1.49588,-1.24762l2.37297,-3.17063z" fill="#235175" stroke-linecap="round"/><path d="M293.96419,200.48325l0.73973,-0.17808l-0.40926,0.64377l0.3173,0.7659l-0.77,-0.27443l-0.41794,0.6133l-0.02579,-0.78317l-0.79607,-0.36581l0.81373,-0.26507l0.02206,-0.73094z" fill="#59a2cd" stroke-linecap="round"/><path d="M293.92844,198.3021l-2.17022,2.86458l0.15912,0.76241l-0.81822,-0.68243l2.37297,-3.17063z" fill="#102c42" stroke-linecap="butt"/></g><g fill-rule="nonzero" stroke="#000000" stroke-linecap="butt"><path d="M259.06349,200.61081c0.76884,-0.17424 1.54845,-0.30364 2.32912,-0.42927c0.23148,1.19503 0.42562,2.73193 0.47454,3.5431c0.01629,0.41409 -0.18544,0.86257 -0.47366,1.20746c-0.20731,0.24791 -0.56186,0.45929 -0.94107,0.49779c-0.37922,0.0385 -0.76814,-0.09468 -1.00217,-0.30052c-0.34835,-0.30715 -0.64036,-0.73946 -0.63843,-1.18921c0.006,-0.86667 0.10279,-2.10071 0.25167,-3.32934z" data-paper-data="{&quot;origRot&quot;:0,&quot;index&quot;:null}" fill="url(#color-4)"/><g><path d="M258.10804,202.38489l-0.85085,-4.02793l1.66393,-0.35148l0.85085,4.02793z" data-paper-data="{&quot;index&quot;:null}" fill="#00ff08"/><path d="M259.77581,202.03462l-0.85085,-4.02793l0.75813,-0.16014l0.85085,4.02793z" data-paper-data="{&quot;index&quot;:null}" fill="#ffffff"/><path d="M260.5514,201.86948l-0.85085,-4.02793l0.66098,-0.13962l0.85085,4.02793z" data-paper-data="{&quot;index&quot;:null}" fill="#00ff08"/><path d="M261.21416,201.7315l-0.85085,-4.02793l0.90503,-0.19117l0.85085,4.02793z" data-paper-data="{&quot;index&quot;:null}" fill="#ffffff"/><path d="M262.12073,201.53864l-0.85085,-4.02793l0.66098,-0.13963l0.85085,4.02793z" data-paper-data="{&quot;index&quot;:null}" fill="#00ff08"/><path d="M258.09374,202.40912l-0.85932,-4.06803l4.67901,-0.98838l0.85932,4.06803z" data-paper-data="{&quot;index&quot;:null}" fill="none"/></g></g><g fill-rule="nonzero" stroke="#000000" stroke-linecap="butt"><path d="M252.7537,198.17294c0.30428,-0.15551 0.40564,0.20818 0.47346,0.58757c0.27145,1.51765 0.41771,4.2467 0.33626,5.72764c-0.0226,0.39218 -0.3005,0.75328 -0.62077,1.00223c-0.21513,0.16681 -0.56137,0.2619 -0.88987,0.20786c-0.32851,-0.05403 -0.62616,-0.25746 -0.79351,-0.48476c-0.23263,-0.31622 -0.38428,-0.71808 -0.34772,-1.07819c0.11873,-0.96762 0.55022,-3.11396 0.90141,-4.04262c0.23022,-0.60922 0.67254,-1.78268 0.94073,-1.91974z" data-paper-data="{&quot;origRot&quot;:0,&quot;index&quot;:null}" fill="url(#color-5)"/><g data-paper-data="{&quot;index&quot;:null}"><path d="M253.00823,202.06829l0.85085,-4.02793l1.66393,0.35148l-0.85085,4.02793z" data-paper-data="{&quot;index&quot;:null}" fill="#00ff08"/><path d="M252.24626,201.90935l0.85085,-4.02793l0.75813,0.16014l-0.85085,4.02793z" data-paper-data="{&quot;index&quot;:null}" fill="#ffffff"/><path d="M251.56782,201.76473l0.85085,-4.02793l0.66098,0.13962l-0.85085,4.02793z" data-paper-data="{&quot;index&quot;:null}" fill="#00ff08"/><path d="M250.66102,201.5752l0.85085,-4.02793l0.90503,0.19117l-0.85085,4.02794z" data-paper-data="{&quot;index&quot;:null}" fill="#ffffff"/><path d="M249.99848,201.43391l0.85085,-4.02793l0.66098,0.13962l-0.85085,4.02793z" data-paper-data="{&quot;index&quot;:null}" fill="#00ff08"/><path d="M250.00744,201.45564l0.85932,-4.06803l4.67901,0.98838l-0.85932,4.06803z" data-paper-data="{&quot;index&quot;:null}" fill="none"/></g></g><g><path d="M283.69738,192.29216c-0.14855,-0.00018 -0.26882,-0.12075 -0.26864,-0.2693l0.00774,-6.30709c0.00018,-0.14855 0.12075,-0.26882 0.2693,-0.26864l6.30708,0.00773c0.07133,0.00008 0.13971,0.0285 0.19009,0.07901c0.05038,0.0505 0.07864,0.11895 0.07855,0.19029l-0.00773,6.30708c-0.00018,0.14855 -0.12075,0.26882 -0.2693,0.26864v0z" data-paper-data="{&quot;origPos&quot;:null,&quot;index&quot;:null}" fill="#9ce1d8" fill-rule="evenodd" stroke="#000000" stroke-linecap="square"/><path d="M276.87648,192.2838c-0.14855,-0.00018 -0.26882,-0.12075 -0.26864,-0.2693l0.00774,-6.30708c0.00018,-0.14855 0.12075,-0.26882 0.2693,-0.26864l6.30709,0.00774c0.07133,0.00008 0.13972,0.0285 0.19009,0.07901c0.05038,0.0505 0.07864,0.11895 0.07855,0.19028l-0.00774,6.30709c-0.00018,0.14855 -0.12075,0.26883 -0.2693,0.26865v0z" data-paper-data="{&quot;origPos&quot;:null,&quot;index&quot;:null}" fill="#9ce1d8" fill-rule="evenodd" stroke="#000000" stroke-linecap="square"/><path d="M270.03458,192.26908c-0.14855,-0.00018 -0.26882,-0.12075 -0.26864,-0.2693l0.00773,-6.30709c0.00018,-0.14855 0.12075,-0.26882 0.2693,-0.26864l6.30708,0.00774c0.07133,0.00008 0.13971,0.0285 0.19009,0.07901c0.05038,0.0505 0.07864,0.11895 0.07855,0.19029l-0.00774,6.30708c-0.00018,0.14855 -0.12075,0.26882 -0.2693,0.26864v0z" data-paper-data="{&quot;origPos&quot;:null,&quot;index&quot;:null}" fill="#9ce1d8" fill-rule="evenodd" stroke="#000000" stroke-linecap="square"/><path d="M263.21364,192.26072c-0.14855,-0.00018 -0.26882,-0.12075 -0.26864,-0.2693l0.00774,-6.30709c0.00018,-0.14855 0.12075,-0.26882 0.2693,-0.26864l6.30709,0.00773c0.07133,0.00008 0.13972,0.0285 0.19009,0.07901c0.05038,0.0505 0.07864,0.11895 0.07855,0.19029l-0.00773,6.30708c-0.00018,0.14855 -0.12075,0.26883 -0.2693,0.26865v0z" data-paper-data="{&quot;origPos&quot;:null,&quot;index&quot;:null}" fill="#9ce1d8" fill-rule="evenodd" stroke="#000000" stroke-linecap="square"/><path d="M256.38123,192.25235c-0.14855,-0.00018 -0.26882,-0.12075 -0.26864,-0.2693l0.00773,-6.30708c0.00018,-0.14855 0.12075,-0.26882 0.2693,-0.26864l6.30709,0.00774c0.07133,0.00008 0.13972,0.0285 0.19009,0.07901c0.05038,0.0505 0.07864,0.11895 0.07855,0.19029l-0.00774,6.30708c-0.00018,0.14855 -0.12075,0.26883 -0.2693,0.26865v0z" data-paper-data="{&quot;origPos&quot;:null,&quot;index&quot;:null}" fill="#9ce1d8" fill-rule="evenodd" stroke="#000000" stroke-linecap="square"/><path d="M249.52517,192.23066c-0.14855,-0.00018 -0.26882,-0.12075 -0.26864,-0.2693l0.00773,-6.30708c0.00018,-0.14855 0.12075,-0.26882 0.2693,-0.26864l6.30709,0.00773c0.07133,0.00008 0.13971,0.0285 0.19009,0.07901c0.05038,0.0505 0.07864,0.11895 0.07855,0.19028l-0.00774,6.30709c-0.00018,0.14855 -0.12075,0.26882 -0.2693,0.26864v0z" data-paper-data="{&quot;origPos&quot;:null,&quot;index&quot;:null}" fill="#9ce1d8" fill-rule="evenodd" stroke="#000000" stroke-linecap="square"/><path d="M242.70425,192.22229c-0.14855,-0.00018 -0.26882,-0.12075 -0.26864,-0.2693l0.00774,-6.30708c0.00018,-0.14855 0.12075,-0.26883 0.2693,-0.26864l6.30709,0.00773c0.07133,0.00008 0.13972,0.0285 0.19009,0.07901c0.05038,0.0505 0.07864,0.11895 0.07855,0.19029l-0.00774,6.30709c-0.00018,0.14855 -0.12075,0.26882 -0.2693,0.26864v0z" data-paper-data="{&quot;origPos&quot;:null,&quot;index&quot;:null}" fill="#9ce1d8" fill-rule="evenodd" stroke="#000000" stroke-linecap="square"/><path d="M235.86235,192.20756c-0.14855,-0.00018 -0.26882,-0.12075 -0.26864,-0.2693l0.00774,-6.30709c0.00018,-0.14855 0.12075,-0.26882 0.2693,-0.26864l6.30708,0.00773c0.07133,0.00008 0.13971,0.0285 0.19009,0.07901c0.05038,0.0505 0.07864,0.11895 0.07855,0.19029l-0.00774,6.30709c-0.00018,0.14855 -0.12075,0.26882 -0.2693,0.26864v0z" data-paper-data="{&quot;origPos&quot;:null,&quot;index&quot;:null}" fill="#9ce1d8" fill-rule="evenodd" stroke="#000000" stroke-linecap="square"/><path d="M229.04142,192.1992c-0.14855,-0.00018 -0.26883,-0.12075 -0.26864,-0.2693l0.00773,-6.30709c0.00018,-0.14855 0.12075,-0.26882 0.2693,-0.26864l6.30709,0.00774c0.07133,0.00008 0.13971,0.0285 0.19009,0.07901c0.05038,0.0505 0.07864,0.11895 0.07855,0.19029l-0.00773,6.30708c-0.00018,0.14855 -0.12075,0.26883 -0.2693,0.26865v0z" data-paper-data="{&quot;origPos&quot;:null,&quot;index&quot;:null}" fill="#9ce1d8" fill-rule="evenodd" stroke="#000000" stroke-linecap="square"/><path d="M222.209,192.19082c-0.14855,-0.00018 -0.26882,-0.12075 -0.26864,-0.2693l0.00773,-6.30709c0.00018,-0.14855 0.12075,-0.26882 0.2693,-0.26864l6.30709,0.00774c0.07133,0.00008 0.13972,0.0285 0.19009,0.07901c0.05038,0.0505 0.07864,0.11895 0.07855,0.19029l-0.00773,6.30708c-0.00018,0.14855 -0.12075,0.26883 -0.2693,0.26865v0z" data-paper-data="{&quot;origPos&quot;:null,&quot;index&quot;:null}" fill="#9ce1d8" fill-rule="evenodd" stroke="#000000" stroke-linecap="square"/><path d="M290.23351,192.47304l-68.32633,-0.08379l0.0088,-7.17644l68.32633,0.08379z" data-paper-data="{&quot;origPos&quot;:null}" fill="none" fill-rule="nonzero" stroke="#5b9cae" stroke-linecap="butt"/></g><g><path d="M283.68874,199.34607c-0.14855,-0.00018 -0.26882,-0.12075 -0.26864,-0.2693l0.00773,-6.30709c0.00018,-0.14855 0.12075,-0.26882 0.2693,-0.26864l6.30708,0.00773c0.07133,0.00008 0.13971,0.0285 0.19009,0.07901c0.05038,0.0505 0.07864,0.11895 0.07855,0.19029l-0.00774,6.30709c-0.00018,0.14855 -0.12075,0.26882 -0.2693,0.26864v0z" data-paper-data="{&quot;origPos&quot;:null,&quot;index&quot;:null}" fill="#9ce1d8" fill-rule="evenodd" stroke="#000000" stroke-linecap="square"/><path d="M276.86783,199.33771c-0.14855,-0.00018 -0.26882,-0.12075 -0.26864,-0.2693l0.00773,-6.30708c0.00018,-0.14855 0.12075,-0.26882 0.2693,-0.26864l6.30708,0.00773c0.07133,0.00008 0.13972,0.0285 0.19009,0.07901c0.05038,0.0505 0.07864,0.11895 0.07855,0.19029l-0.00774,6.30708c-0.00018,0.14855 -0.12075,0.26883 -0.2693,0.26865v0z" data-paper-data="{&quot;origPos&quot;:null,&quot;index&quot;:null}" fill="#9ce1d8" fill-rule="evenodd" stroke="#000000" stroke-linecap="square"/><path d="M270.02592,199.323c-0.14855,-0.00018 -0.26882,-0.12075 -0.26864,-0.2693l0.00774,-6.30708c0.00018,-0.14855 0.12075,-0.26882 0.2693,-0.26864l6.30709,0.00774c0.07133,0.00008 0.13971,0.0285 0.19009,0.07901c0.05038,0.0505 0.07864,0.11895 0.07855,0.19029l-0.00773,6.30709c-0.00018,0.14855 -0.12075,0.26882 -0.2693,0.26864v0z" data-paper-data="{&quot;origPos&quot;:null,&quot;index&quot;:null}" fill="#9ce1d8" fill-rule="evenodd" stroke="#000000" stroke-linecap="square"/><path d="M263.20499,199.31462c-0.14855,-0.00018 -0.26882,-0.12075 -0.26864,-0.2693l0.00774,-6.30709c0.00018,-0.14855 0.12075,-0.26882 0.2693,-0.26864l6.30709,0.00774c0.07133,0.00008 0.13972,0.0285 0.19009,0.07901c0.05038,0.0505 0.07864,0.11895 0.07855,0.19029l-0.00774,6.30708c-0.00018,0.14855 -0.12075,0.26883 -0.2693,0.26865v0z" data-paper-data="{&quot;origPos&quot;:null,&quot;index&quot;:null}" fill="#9ce1d8" fill-rule="evenodd" stroke="#000000" stroke-linecap="square"/><path d="M256.37258,199.30624c-0.14855,-0.00018 -0.26882,-0.12075 -0.26864,-0.2693l0.00773,-6.30708c0.00018,-0.14855 0.12075,-0.26883 0.2693,-0.26864l6.30708,0.00774c0.07133,0.00008 0.13972,0.0285 0.19009,0.07901c0.05038,0.0505 0.07864,0.11895 0.07855,0.19029l-0.00774,6.30708c-0.00018,0.14855 -0.12075,0.26883 -0.2693,0.26865v0z" data-paper-data="{&quot;origPos&quot;:null,&quot;index&quot;:null}" fill="#9ce1d8" fill-rule="evenodd" stroke="#000000" stroke-linecap="square"/><path d="M249.51652,199.28456c-0.14855,-0.00018 -0.26882,-0.12075 -0.26864,-0.2693l0.00773,-6.30708c0.00018,-0.14855 0.12075,-0.26882 0.2693,-0.26864l6.30708,0.00774c0.07133,0.00008 0.13971,0.0285 0.19009,0.07901c0.05038,0.0505 0.07864,0.11895 0.07855,0.19029l-0.00774,6.30709c-0.00018,0.14855 -0.12075,0.26882 -0.2693,0.26864v0z" data-paper-data="{&quot;origPos&quot;:null,&quot;index&quot;:null}" fill="#9ce1d8" fill-rule="evenodd" stroke="#000000" stroke-linecap="square"/><path d="M242.6956,199.2762c-0.14855,-0.00018 -0.26882,-0.12075 -0.26864,-0.2693l0.00773,-6.30708c0.00018,-0.14855 0.12075,-0.26882 0.2693,-0.26864l6.30708,0.00774c0.07133,0.00008 0.13972,0.0285 0.19009,0.07901c0.05038,0.0505 0.07864,0.11895 0.07855,0.19028l-0.00774,6.30709c-0.00018,0.14855 -0.12075,0.26882 -0.2693,0.26864v0z" data-paper-data="{&quot;origPos&quot;:null,&quot;index&quot;:null}" fill="#9ce1d8" fill-rule="evenodd" stroke="#000000" stroke-linecap="square"/><path d="M235.8537,199.26148c-0.14855,-0.00018 -0.26883,-0.12075 -0.26864,-0.2693l0.00773,-6.30708c0.00018,-0.14855 0.12075,-0.26883 0.2693,-0.26864l6.30708,0.00773c0.07133,0.00008 0.13971,0.0285 0.19009,0.07901c0.05038,0.0505 0.07864,0.11895 0.07855,0.19029l-0.00773,6.30708c-0.00018,0.14855 -0.12075,0.26883 -0.2693,0.26864v0z" data-paper-data="{&quot;origPos&quot;:null,&quot;index&quot;:null}" fill="#9ce1d8" fill-rule="evenodd" stroke="#000000" stroke-linecap="square"/><path d="M229.03278,199.25311c-0.14855,-0.00018 -0.26882,-0.12075 -0.26864,-0.2693l0.00773,-6.30708c0.00018,-0.14855 0.12075,-0.26882 0.2693,-0.26864l6.30709,0.00773c0.07133,0.00008 0.13971,0.0285 0.19009,0.07901c0.05038,0.0505 0.07864,0.11895 0.07855,0.19029l-0.00773,6.30708c-0.00018,0.14855 -0.12075,0.26883 -0.2693,0.26865v0z" data-paper-data="{&quot;origPos&quot;:null,&quot;index&quot;:null}" fill="#9ce1d8" fill-rule="evenodd" stroke="#000000" stroke-linecap="square"/><path d="M222.20035,199.24473c-0.14855,-0.00018 -0.26882,-0.12075 -0.26864,-0.2693l0.00774,-6.30709c0.00018,-0.14855 0.12075,-0.26882 0.2693,-0.26864l6.30708,0.00773c0.07133,0.00008 0.13972,0.0285 0.19009,0.07901c0.05038,0.0505 0.07864,0.11895 0.07855,0.19029l-0.00773,6.30708c-0.00018,0.14855 -0.12075,0.26883 -0.2693,0.26865v0z" data-paper-data="{&quot;origPos&quot;:null,&quot;index&quot;:null}" fill="#9ce1d8" fill-rule="evenodd" stroke="#000000" stroke-linecap="square"/><path d="M290.22487,199.52695l-68.32633,-0.08379l0.0088,-7.17644l68.32633,0.08379z" data-paper-data="{&quot;origPos&quot;:null}" fill="none" fill-rule="nonzero" stroke="#5b9cae" stroke-linecap="butt"/></g><g><path d="M283.70604,185.23826c-0.14855,-0.00018 -0.26882,-0.12075 -0.26864,-0.2693l0.00774,-6.30708c0.00018,-0.14855 0.12075,-0.26882 0.2693,-0.26864l6.30709,0.00773c0.07133,0.00008 0.13971,0.0285 0.19009,0.07901c0.05038,0.0505 0.07864,0.11895 0.07855,0.19029l-0.00773,6.30709c-0.00018,0.14855 -0.12075,0.26882 -0.2693,0.26864v0z" data-paper-data="{&quot;origPos&quot;:null,&quot;index&quot;:null}" fill="#9ce1d8" fill-rule="evenodd" stroke="#000000" stroke-linecap="square"/><path d="M276.88513,185.22989c-0.14855,-0.00018 -0.26883,-0.12075 -0.26864,-0.2693l0.00773,-6.30708c0.00018,-0.14855 0.12075,-0.26882 0.2693,-0.26864l6.30708,0.00773c0.07133,0.00008 0.13972,0.0285 0.19009,0.07901c0.05038,0.0505 0.07864,0.11895 0.07855,0.19029l-0.00774,6.30709c-0.00018,0.14855 -0.12075,0.26882 -0.2693,0.26864v0z" data-paper-data="{&quot;origPos&quot;:null,&quot;index&quot;:null}" fill="#9ce1d8" fill-rule="evenodd" stroke="#000000" stroke-linecap="square"/><path d="M270.04323,185.21518c-0.14855,-0.00018 -0.26882,-0.12075 -0.26864,-0.2693l0.00773,-6.30709c0.00018,-0.14855 0.12075,-0.26882 0.2693,-0.26864l6.30709,0.00773c0.07133,0.00008 0.13971,0.02851 0.19009,0.07901c0.05038,0.0505 0.07864,0.11895 0.07855,0.19029l-0.00774,6.30708c-0.00018,0.14855 -0.12075,0.26882 -0.2693,0.26864v0z" data-paper-data="{&quot;origPos&quot;:null,&quot;index&quot;:null}" fill="#9ce1d8" fill-rule="evenodd" stroke="#000000" stroke-linecap="square"/><path d="M263.22229,185.20681c-0.14855,-0.00018 -0.26882,-0.12075 -0.26864,-0.2693l0.00774,-6.30709c0.00018,-0.14855 0.12075,-0.26882 0.2693,-0.26864l6.30708,0.00773c0.07133,0.00008 0.13972,0.0285 0.19009,0.07901c0.05038,0.0505 0.07864,0.11895 0.07855,0.19029l-0.00774,6.30708c-0.00018,0.14855 -0.12075,0.26883 -0.2693,0.26864v0z" data-paper-data="{&quot;origPos&quot;:null,&quot;index&quot;:null}" fill="#9ce1d8" fill-rule="evenodd" stroke="#000000" stroke-linecap="square"/><path d="M256.38988,185.19842c-0.14855,-0.00018 -0.26883,-0.12075 -0.26864,-0.2693l0.00773,-6.30708c0.00018,-0.14855 0.12075,-0.26883 0.2693,-0.26864l6.30708,0.00773c0.07133,0.00008 0.13972,0.0285 0.19009,0.07901c0.05038,0.0505 0.07864,0.11895 0.07855,0.19029l-0.00774,6.30708c-0.00018,0.14855 -0.12075,0.26883 -0.2693,0.26865v0z" data-paper-data="{&quot;origPos&quot;:null,&quot;index&quot;:null}" fill="#9ce1d8" fill-rule="evenodd" stroke="#000000" stroke-linecap="square"/><path d="M249.53382,185.17676c-0.14855,-0.00018 -0.26883,-0.12075 -0.26864,-0.2693l0.00774,-6.30708c0.00018,-0.14855 0.12075,-0.26883 0.2693,-0.26864l6.30708,0.00773c0.07133,0.00008 0.13971,0.0285 0.19009,0.07901c0.05038,0.0505 0.07864,0.11895 0.07855,0.19029l-0.00773,6.30708c-0.00018,0.14855 -0.12075,0.26883 -0.2693,0.26864v0z" data-paper-data="{&quot;origPos&quot;:null,&quot;index&quot;:null}" fill="#9ce1d8" fill-rule="evenodd" stroke="#000000" stroke-linecap="square"/><path d="M242.7129,185.1684c-0.14855,-0.00018 -0.26882,-0.12075 -0.26864,-0.2693l0.00773,-6.30708c0.00018,-0.14855 0.12075,-0.26882 0.2693,-0.26864l6.30708,0.00774c0.07133,0.00008 0.13972,0.0285 0.19009,0.07901c0.05038,0.0505 0.07864,0.11895 0.07855,0.19029l-0.00773,6.30709c-0.00018,0.14855 -0.12075,0.26882 -0.2693,0.26864v0z" data-paper-data="{&quot;origPos&quot;:null,&quot;index&quot;:null}" fill="#9ce1d8" fill-rule="evenodd" stroke="#000000" stroke-linecap="square"/><path d="M235.871,185.15367c-0.14855,-0.00018 -0.26882,-0.12075 -0.26864,-0.2693l0.00774,-6.30708c0.00018,-0.14855 0.12075,-0.26883 0.2693,-0.26864l6.30709,0.00774c0.07133,0.00008 0.13971,0.0285 0.19009,0.07901c0.05038,0.0505 0.07864,0.11895 0.07855,0.19029l-0.00773,6.30709c-0.00018,0.14855 -0.12075,0.26883 -0.2693,0.26864v0z" data-paper-data="{&quot;origPos&quot;:null,&quot;index&quot;:null}" fill="#9ce1d8" fill-rule="evenodd" stroke="#000000" stroke-linecap="square"/><path d="M229.05008,185.14529c-0.14855,-0.00018 -0.26882,-0.12075 -0.26864,-0.2693l0.00773,-6.30708c0.00018,-0.14855 0.12075,-0.26883 0.2693,-0.26864l6.30708,0.00774c0.07133,0.00008 0.13971,0.0285 0.19009,0.07901c0.05038,0.0505 0.07864,0.11895 0.07855,0.19029l-0.00773,6.30708c-0.00018,0.14855 -0.12075,0.26883 -0.2693,0.26865v0z" data-paper-data="{&quot;origPos&quot;:null,&quot;index&quot;:null}" fill="#9ce1d8" fill-rule="evenodd" stroke="#000000" stroke-linecap="square"/><path d="M222.21766,185.13692c-0.14855,-0.00018 -0.26883,-0.12075 -0.26864,-0.2693l0.00773,-6.30709c0.00018,-0.14855 0.12075,-0.26882 0.2693,-0.26864l6.30708,0.00773c0.07133,0.00008 0.13972,0.0285 0.19009,0.07901c0.05038,0.0505 0.07864,0.11895 0.07855,0.19029l-0.00773,6.30708c-0.00018,0.14855 -0.12075,0.26883 -0.2693,0.26865v0z" data-paper-data="{&quot;origPos&quot;:null,&quot;index&quot;:null}" fill="#9ce1d8" fill-rule="evenodd" stroke="#000000" stroke-linecap="square"/><path d="M290.24217,185.41913l-68.32633,-0.08379l0.0088,-7.17644l68.32633,0.08379z" data-paper-data="{&quot;origPos&quot;:null}" fill="none" fill-rule="nonzero" stroke="#5b9cae" stroke-linecap="butt"/></g><g><path d="M283.71478,178.11519c-0.14855,-0.00018 -0.26882,-0.12075 -0.26864,-0.2693l0.00774,-6.30709c0.00018,-0.14855 0.12075,-0.26882 0.2693,-0.26864l6.30709,0.00773c0.07133,0.00008 0.13971,0.0285 0.19009,0.07901c0.05038,0.0505 0.07864,0.11895 0.07855,0.19029l-0.00773,6.30709c-0.00018,0.14855 -0.12075,0.26882 -0.2693,0.26864v0z" data-paper-data="{&quot;origPos&quot;:null,&quot;index&quot;:null}" fill="#9ce1d8" fill-rule="evenodd" stroke="#000000" stroke-linecap="square"/><path d="M276.89387,178.10683c-0.14855,-0.00018 -0.26883,-0.12075 -0.26864,-0.2693l0.00774,-6.30709c0.00018,-0.14855 0.12075,-0.26882 0.2693,-0.26864l6.30708,0.00774c0.07133,0.00008 0.13972,0.0285 0.19009,0.07901c0.05038,0.0505 0.07864,0.11895 0.07855,0.19029l-0.00773,6.30709c-0.00018,0.14855 -0.12075,0.26883 -0.2693,0.26865v0z" data-paper-data="{&quot;origPos&quot;:null,&quot;index&quot;:null}" fill="#9ce1d8" fill-rule="evenodd" stroke="#000000" stroke-linecap="square"/><path d="M270.05196,178.09212c-0.14855,-0.00018 -0.26882,-0.12075 -0.26864,-0.2693l0.00773,-6.30708c0.00018,-0.14855 0.12075,-0.26882 0.2693,-0.26864l6.30709,0.00773c0.07133,0.00008 0.13971,0.0285 0.19009,0.07901c0.05038,0.0505 0.07864,0.11895 0.07855,0.19029l-0.00774,6.30708c-0.00018,0.14855 -0.12075,0.26882 -0.2693,0.26864v0z" data-paper-data="{&quot;origPos&quot;:null,&quot;index&quot;:null}" fill="#9ce1d8" fill-rule="evenodd" stroke="#000000" stroke-linecap="square"/><path d="M263.23103,178.08374c-0.14855,-0.00018 -0.26882,-0.12075 -0.26864,-0.2693l0.00774,-6.30709c0.00018,-0.14855 0.12075,-0.26882 0.2693,-0.26864l6.30708,0.00773c0.07133,0.00008 0.13972,0.0285 0.19009,0.07901c0.05038,0.0505 0.07864,0.11895 0.07855,0.19029l-0.00773,6.30709c-0.00018,0.14855 -0.12075,0.26883 -0.2693,0.26865v0z" data-paper-data="{&quot;origPos&quot;:null,&quot;index&quot;:null}" fill="#9ce1d8" fill-rule="evenodd" stroke="#000000" stroke-linecap="square"/><path d="M256.39862,178.07536c-0.14855,-0.00018 -0.26883,-0.12075 -0.26864,-0.2693l0.00774,-6.30708c0.00018,-0.14855 0.12075,-0.26882 0.2693,-0.26864l6.30709,0.00773c0.07133,0.00008 0.13972,0.0285 0.19009,0.07901c0.05038,0.0505 0.07864,0.11895 0.07855,0.19029l-0.00774,6.30708c-0.00018,0.14855 -0.12075,0.26883 -0.2693,0.26865v0z" data-paper-data="{&quot;origPos&quot;:null,&quot;index&quot;:null}" fill="#9ce1d8" fill-rule="evenodd" stroke="#000000" stroke-linecap="square"/><path d="M249.54256,178.0537c-0.14855,-0.00018 -0.26882,-0.12075 -0.26864,-0.2693l0.00774,-6.30708c0.00018,-0.14855 0.12075,-0.26882 0.2693,-0.26864l6.30708,0.00773c0.07133,0.00008 0.13971,0.0285 0.19009,0.07901c0.05038,0.0505 0.07864,0.11895 0.07855,0.19029l-0.00774,6.30708c-0.00018,0.14855 -0.12075,0.26882 -0.2693,0.26864v0z" data-paper-data="{&quot;origPos&quot;:null,&quot;index&quot;:null}" fill="#9ce1d8" fill-rule="evenodd" stroke="#000000" stroke-linecap="square"/><path d="M242.72164,178.04534c-0.14855,-0.00018 -0.26883,-0.12075 -0.26864,-0.2693l0.00774,-6.30709c0.00018,-0.14855 0.12075,-0.26883 0.2693,-0.26864l6.30708,0.00773c0.07133,0.00008 0.13972,0.0285 0.19009,0.07901c0.05038,0.0505 0.07864,0.11895 0.07855,0.19029l-0.00773,6.30708c-0.00018,0.14855 -0.12075,0.26882 -0.2693,0.26864v0z" data-paper-data="{&quot;origPos&quot;:null,&quot;index&quot;:null}" fill="#9ce1d8" fill-rule="evenodd" stroke="#000000" stroke-linecap="square"/><path d="M235.87974,178.0306c-0.14855,-0.00018 -0.26882,-0.12075 -0.26864,-0.2693l0.00773,-6.30709c0.00018,-0.14855 0.12075,-0.26882 0.2693,-0.26864l6.30709,0.00774c0.07133,0.00008 0.13971,0.0285 0.19009,0.07901c0.05038,0.0505 0.07864,0.11895 0.07855,0.19029l-0.00774,6.30709c-0.00018,0.14855 -0.12075,0.26882 -0.2693,0.26864v0z" data-paper-data="{&quot;origPos&quot;:null,&quot;index&quot;:null}" fill="#9ce1d8" fill-rule="evenodd" stroke="#000000" stroke-linecap="square"/><path d="M229.05881,178.02224c-0.14855,-0.00018 -0.26882,-0.12075 -0.26864,-0.2693l0.00773,-6.30708c0.00018,-0.14855 0.12075,-0.26882 0.2693,-0.26864l6.30709,0.00773c0.07133,0.00008 0.13971,0.0285 0.19009,0.07901c0.05038,0.0505 0.07864,0.11895 0.07855,0.19029l-0.00773,6.30708c-0.00018,0.14855 -0.12075,0.26883 -0.2693,0.26865v0z" data-paper-data="{&quot;origPos&quot;:null,&quot;index&quot;:null}" fill="#9ce1d8" fill-rule="evenodd" stroke="#000000" stroke-linecap="square"/><path d="M222.2264,178.01386c-0.14855,-0.00018 -0.26882,-0.12075 -0.26864,-0.2693l0.00773,-6.30708c0.00018,-0.14855 0.12075,-0.26882 0.2693,-0.26864l6.30708,0.00773c0.07133,0.00008 0.13972,0.0285 0.19009,0.07901c0.05038,0.0505 0.07864,0.11895 0.07855,0.19029l-0.00773,6.30708c-0.00018,0.14855 -0.12075,0.26883 -0.2693,0.26865v0z" data-paper-data="{&quot;origPos&quot;:null,&quot;index&quot;:null}" fill="#9ce1d8" fill-rule="evenodd" stroke="#000000" stroke-linecap="square"/><path d="M290.2509,178.29607l-68.32633,-0.08379l0.0088,-7.17644l68.32633,0.08379z" data-paper-data="{&quot;origPos&quot;:null}" fill="none" fill-rule="nonzero" stroke="#5b9cae" stroke-linecap="butt"/></g><g><path d="M283.72343,171.06129c-0.14855,-0.00018 -0.26882,-0.12075 -0.26864,-0.2693l0.00773,-6.30708c0.00018,-0.14855 0.12075,-0.26882 0.2693,-0.26864l6.30708,0.00774c0.07133,0.00008 0.13971,0.0285 0.19009,0.07901c0.05038,0.0505 0.07864,0.11895 0.07855,0.19029l-0.00774,6.30709c-0.00018,0.14855 -0.12075,0.26882 -0.2693,0.26864v0z" data-paper-data="{&quot;origPos&quot;:null,&quot;index&quot;:null}" fill="#9ce1d8" fill-rule="evenodd" stroke="#000000" stroke-linecap="square"/><path d="M276.90251,171.05292c-0.14855,-0.00018 -0.26882,-0.12075 -0.26864,-0.2693l0.00774,-6.30709c0.00018,-0.14855 0.12075,-0.26883 0.2693,-0.26864l6.30708,0.00773c0.07133,0.00008 0.13972,0.0285 0.19009,0.07901c0.05038,0.0505 0.07864,0.11895 0.07855,0.19029l-0.00773,6.30708c-0.00018,0.14855 -0.12075,0.26883 -0.2693,0.26865v0z" data-paper-data="{&quot;origPos&quot;:null,&quot;index&quot;:null}" fill="#9ce1d8" fill-rule="evenodd" stroke="#000000" stroke-linecap="square"/><path d="M270.06061,171.03821c-0.14855,-0.00018 -0.26883,-0.12075 -0.26864,-0.2693l0.00774,-6.30708c0.00018,-0.14855 0.12075,-0.26882 0.2693,-0.26864l6.30708,0.00774c0.07133,0.00008 0.13971,0.0285 0.19009,0.07901c0.05038,0.0505 0.07864,0.11895 0.07855,0.19029l-0.00773,6.30709c-0.00018,0.14855 -0.12075,0.26883 -0.2693,0.26864v0z" data-paper-data="{&quot;origPos&quot;:null,&quot;index&quot;:null}" fill="#9ce1d8" fill-rule="evenodd" stroke="#000000" stroke-linecap="square"/><path d="M263.23968,171.02984c-0.14855,-0.00018 -0.26882,-0.12075 -0.26864,-0.2693l0.00773,-6.30709c0.00018,-0.14855 0.12075,-0.26882 0.2693,-0.26864l6.30709,0.00773c0.07133,0.00008 0.13972,0.0285 0.19009,0.07901c0.05038,0.0505 0.07864,0.11895 0.07855,0.19029l-0.00774,6.30709c-0.00018,0.14855 -0.12075,0.26883 -0.2693,0.26865v0z" data-paper-data="{&quot;origPos&quot;:null,&quot;index&quot;:null}" fill="#9ce1d8" fill-rule="evenodd" stroke="#000000" stroke-linecap="square"/><path d="M256.40726,171.02145c-0.14855,-0.00018 -0.26882,-0.12075 -0.26864,-0.2693l0.00773,-6.30709c0.00018,-0.14855 0.12075,-0.26883 0.2693,-0.26864l6.30708,0.00774c0.07133,0.00008 0.13972,0.0285 0.19009,0.07901c0.05038,0.0505 0.07864,0.11895 0.07855,0.19029l-0.00774,6.30708c-0.00018,0.14855 -0.12075,0.26883 -0.2693,0.26865v0z" data-paper-data="{&quot;origPos&quot;:null,&quot;index&quot;:null}" fill="#9ce1d8" fill-rule="evenodd" stroke="#000000" stroke-linecap="square"/><path d="M249.55121,170.99979c-0.14855,-0.00018 -0.26882,-0.12075 -0.26864,-0.2693l0.00774,-6.30709c0.00018,-0.14855 0.12075,-0.26882 0.2693,-0.26864l6.30708,0.00773c0.07133,0.00008 0.13971,0.0285 0.19009,0.07901c0.05038,0.0505 0.07864,0.11895 0.07855,0.19029l-0.00773,6.30709c-0.00018,0.14855 -0.12075,0.26882 -0.2693,0.26864v0z" data-paper-data="{&quot;origPos&quot;:null,&quot;index&quot;:null}" fill="#9ce1d8" fill-rule="evenodd" stroke="#000000" stroke-linecap="square"/><path d="M242.73029,170.99142c-0.14855,-0.00018 -0.26882,-0.12075 -0.26864,-0.2693l0.00774,-6.30709c0.00018,-0.14855 0.12075,-0.26882 0.2693,-0.26864l6.30709,0.00773c0.07133,0.00008 0.13972,0.0285 0.19009,0.07901c0.05038,0.0505 0.07864,0.11895 0.07855,0.19029l-0.00773,6.30709c-0.00018,0.14855 -0.12075,0.26882 -0.2693,0.26864v0z" data-paper-data="{&quot;origPos&quot;:null,&quot;index&quot;:null}" fill="#9ce1d8" fill-rule="evenodd" stroke="#000000" stroke-linecap="square"/><path d="M235.88839,170.97669c-0.14855,-0.00018 -0.26882,-0.12075 -0.26864,-0.2693l0.00773,-6.30708c0.00018,-0.14855 0.12075,-0.26883 0.2693,-0.26864l6.30709,0.00773c0.07133,0.00008 0.13971,0.0285 0.19009,0.07901c0.05038,0.0505 0.07864,0.11895 0.07855,0.19029l-0.00774,6.30708c-0.00018,0.14855 -0.12075,0.26882 -0.2693,0.26864v0z" data-paper-data="{&quot;origPos&quot;:null,&quot;index&quot;:null}" fill="#9ce1d8" fill-rule="evenodd" stroke="#000000" stroke-linecap="square"/><path d="M229.06746,170.96833c-0.14855,-0.00018 -0.26883,-0.12075 -0.26864,-0.2693l0.00773,-6.30709c0.00018,-0.14855 0.12075,-0.26882 0.2693,-0.26864l6.30709,0.00774c0.07133,0.00008 0.13971,0.0285 0.19009,0.07901c0.05038,0.0505 0.07864,0.11895 0.07855,0.19029l-0.00774,6.30709c-0.00018,0.14855 -0.12075,0.26883 -0.2693,0.26864v0z" data-paper-data="{&quot;origPos&quot;:null,&quot;index&quot;:null}" fill="#9ce1d8" fill-rule="evenodd" stroke="#000000" stroke-linecap="square"/><path d="M222.23504,170.95994c-0.14855,-0.00018 -0.26882,-0.12075 -0.26864,-0.2693l0.00773,-6.30708c0.00018,-0.14855 0.12075,-0.26882 0.2693,-0.26864l6.30709,0.00774c0.07133,0.00008 0.13972,0.0285 0.19009,0.07901c0.05038,0.0505 0.07864,0.11895 0.07855,0.19029l-0.00773,6.30709c-0.00018,0.14855 -0.12075,0.26883 -0.2693,0.26865v0z" data-paper-data="{&quot;origPos&quot;:null,&quot;index&quot;:null}" fill="#9ce1d8" fill-rule="evenodd" stroke="#000000" stroke-linecap="square"/><path d="M290.25955,171.24217l-68.32633,-0.08379l0.0088,-7.17644l68.32633,0.08379z" data-paper-data="{&quot;origPos&quot;:null}" fill="none" fill-rule="nonzero" stroke="#5b9cae" stroke-linecap="butt"/></g><g data-paper-data="{&quot;origRot&quot;:0}" fill-rule="nonzero"><path d="M253.38496,192.59401c0,0 -2.22805,5.47315 -11.70633,10.15622c-9.47827,4.68306 -11.20169,-2.3436 -11.20169,-2.3436c0,0 3.18873,2.67815 6.85812,0.93539c2.81991,-1.33932 4.60706,-2.94088 6.62146,-5.32582c2.03923,-2.41433 4.13154,-6.52013 4.13154,-6.52013z" data-paper-data="{&quot;origPos&quot;:null}" fill="url(#color-6)" stroke="#faecb9" stroke-linecap="round"/><path d="M245.11407,187.62639l4.54452,-0.84535l2.71937,-3.59799l2.10217,4.01422l4.27671,1.08517l-3.43136,3.45934l0.23846,4.60657l-4.30048,-2.35149l-4.22443,1.70075l0.8797,-4.42487z" data-paper-data="{&quot;origPos&quot;:null}" fill="url(#color-7)" stroke="#2d6e83" stroke-linecap="round"/><path d="M249.23614,191.54189c-0.71111,-1.3579 -0.1688,-3.04459 1.21128,-3.76731c1.38007,-0.72272 3.07532,-0.2078 3.78643,1.15011c0.71111,1.3579 0.1688,3.04459 -1.21128,3.76731c-1.38007,0.72272 -3.07532,0.2078 -3.78643,-1.15011z" data-paper-data="{&quot;origPos&quot;:null}" fill="#ffffff" stroke="#2d6e83" stroke-linecap="butt"/><path d="M255.025,194.22649c0.05442,0.10392 0.0143,0.23228 -0.08963,0.2867c-0.10392,0.05442 -0.23228,0.0143 -0.2867,-0.08963c-0.05442,-0.10392 -0.0143,-0.23228 0.08963,-0.2867c0.10392,-0.05442 0.23228,-0.0143 0.2867,0.08963z" data-paper-data="{&quot;origPos&quot;:null}" fill="#faecb9" stroke="none" stroke-linecap="butt"/><path d="M254.86465,192.16212c0.05442,0.10392 0.0143,0.23228 -0.08963,0.2867c-0.10392,0.05442 -0.23228,0.0143 -0.2867,-0.08963c-0.05442,-0.10392 -0.0143,-0.23229 0.08963,-0.2867c0.10392,-0.05442 0.23228,-0.0143 0.2867,0.08963z" data-paper-data="{&quot;origPos&quot;:null}" fill="#faecb9" stroke="none" stroke-linecap="butt"/><path d="M253.09548,193.47223c0.05442,0.10392 0.0143,0.23228 -0.08963,0.2867c-0.10392,0.05442 -0.23228,0.0143 -0.2867,-0.08963c-0.05442,-0.10392 -0.0143,-0.23228 0.08963,-0.2867c0.10392,-0.05442 0.23228,-0.0143 0.2867,0.08963z" data-paper-data="{&quot;origPos&quot;:null}" fill="#faecb9" stroke="none" stroke-linecap="butt"/><path d="M254.28246,193.54116c0.05442,0.10392 0.0143,0.23228 -0.08963,0.2867c-0.10392,0.05442 -0.23228,0.0143 -0.2867,-0.08963c-0.05442,-0.10392 -0.0143,-0.23228 0.08963,-0.2867c0.10392,-0.05442 0.23228,-0.0143 0.2867,0.08963z" data-paper-data="{&quot;origPos&quot;:null}" fill="#faecb9" stroke="none" stroke-linecap="butt"/><path d="M253.87238,194.36972c0.05442,0.10392 0.0143,0.23228 -0.08963,0.2867c-0.10392,0.05442 -0.23228,0.0143 -0.2867,-0.08963c-0.05442,-0.10392 -0.0143,-0.23228 0.08963,-0.2867c0.10392,-0.05442 0.23228,-0.0143 0.2867,0.08963z" data-paper-data="{&quot;origPos&quot;:null}" fill="#faecb9" stroke="none" stroke-linecap="butt"/><path d="M248.98689,193.24531c0.05442,0.10392 0.0143,0.23228 -0.08963,0.2867c-0.10392,0.05442 -0.23228,0.0143 -0.2867,-0.08963c-0.05442,-0.10392 -0.0143,-0.23228 0.08963,-0.2867c0.10392,-0.05442 0.23228,-0.0143 0.2867,0.08963z" data-paper-data="{&quot;origPos&quot;:null}" fill="#faecb9" stroke="none" stroke-linecap="butt"/><path d="M250.81609,193.51501c0.05442,0.10392 0.0143,0.23228 -0.08963,0.2867c-0.10392,0.05442 -0.23229,0.0143 -0.2867,-0.08963c-0.05442,-0.10392 -0.0143,-0.23229 0.08963,-0.2867c0.10392,-0.05442 0.23228,-0.01429 0.2867,0.08963z" data-paper-data="{&quot;origPos&quot;:null}" fill="#faecb9" stroke="none" stroke-linecap="butt"/><path d="M248.99276,191.9379c0.05442,0.10392 0.0143,0.23228 -0.08963,0.2867c-0.10392,0.05442 -0.23228,0.0143 -0.2867,-0.08963c-0.05442,-0.10392 -0.0143,-0.23228 0.08963,-0.2867c0.10392,-0.05442 0.23228,-0.0143 0.2867,0.08963z" data-paper-data="{&quot;origPos&quot;:null}" fill="#faecb9" stroke="none" stroke-linecap="butt"/><path d="M248.31012,194.44371c0.05442,0.10392 0.0143,0.23228 -0.08963,0.2867c-0.10392,0.05442 -0.23228,0.0143 -0.2867,-0.08963c-0.05442,-0.10392 -0.0143,-0.23228 0.08963,-0.2867c0.10392,-0.05442 0.23228,-0.0143 0.2867,0.08963z" data-paper-data="{&quot;origPos&quot;:null}" fill="#faecb9" stroke="none" stroke-linecap="butt"/><path d="M248.00099,189.31148c0.05442,0.10392 0.0143,0.23228 -0.08963,0.2867c-0.10392,0.05442 -0.23228,0.0143 -0.2867,-0.08963c-0.05442,-0.10392 -0.0143,-0.23228 0.08963,-0.2867c0.10392,-0.05442 0.23229,-0.0143 0.2867,0.08963z" data-paper-data="{&quot;origPos&quot;:null}" fill="#faecb9" stroke="none" stroke-linecap="butt"/><path d="M249.74229,187.63874c0.05442,0.10392 0.0143,0.23228 -0.08963,0.2867c-0.10392,0.05442 -0.23228,0.0143 -0.2867,-0.08963c-0.05442,-0.10392 -0.0143,-0.23228 0.08963,-0.2867c0.10392,-0.05442 0.23228,-0.0143 0.2867,0.08963z" data-paper-data="{&quot;origPos&quot;:null}" fill="#faecb9" stroke="none" stroke-linecap="butt"/><path d="M247.0005,187.84054c0.05442,0.10392 0.0143,0.23228 -0.08963,0.2867c-0.10392,0.05442 -0.23229,0.0143 -0.2867,-0.08963c-0.05442,-0.10392 -0.0143,-0.23228 0.08963,-0.2867c0.10392,-0.05442 0.23228,-0.0143 0.2867,0.08963z" data-paper-data="{&quot;origPos&quot;:null}" fill="#faecb9" stroke="none" stroke-linecap="butt"/><path d="M251.75148,186.65689c0.05442,0.10392 0.0143,0.23228 -0.08963,0.2867c-0.10392,0.05442 -0.23228,0.0143 -0.2867,-0.08963c-0.05442,-0.10392 -0.0143,-0.23229 0.08963,-0.2867c0.10392,-0.05442 0.23228,-0.0143 0.2867,0.08963z" data-paper-data="{&quot;origPos&quot;:null}" fill="#faecb9" stroke="none" stroke-linecap="butt"/><path d="M252.42541,185.30654c0.05442,0.10392 0.0143,0.23228 -0.08963,0.2867c-0.10392,0.05442 -0.23229,0.0143 -0.2867,-0.08963c-0.05442,-0.10392 -0.0143,-0.23228 0.08963,-0.2867c0.10392,-0.05442 0.23228,-0.0143 0.2867,0.08963z" data-paper-data="{&quot;origPos&quot;:null}" fill="#faecb9" stroke="none" stroke-linecap="butt"/><path d="M253.07903,186.11513c0.05442,0.10392 0.0143,0.23229 -0.08963,0.2867c-0.10392,0.05442 -0.23228,0.0143 -0.2867,-0.08963c-0.05442,-0.10392 -0.0143,-0.23228 0.08963,-0.2867c0.10392,-0.05442 0.23229,-0.0143 0.2867,0.08963z" data-paper-data="{&quot;origPos&quot;:null}" fill="#faecb9" stroke="none" stroke-linecap="butt"/><path d="M256.86911,188.81064c0.05442,0.10392 0.0143,0.23228 -0.08963,0.2867c-0.10392,0.05442 -0.23229,0.0143 -0.2867,-0.08963c-0.05442,-0.10392 -0.0143,-0.23228 0.08963,-0.2867c0.10392,-0.05442 0.23228,-0.0143 0.2867,0.08963z" data-paper-data="{&quot;origPos&quot;:null}" fill="#faecb9" stroke="none" stroke-linecap="butt"/><path d="M255.10012,188.5094c0.05442,0.10392 0.0143,0.23228 -0.08963,0.2867c-0.10392,0.05442 -0.23228,0.0143 -0.2867,-0.08963c-0.05442,-0.10392 -0.0143,-0.23228 0.08963,-0.2867c0.10392,-0.05442 0.23229,-0.0143 0.2867,0.08963z" data-paper-data="{&quot;origPos&quot;:null}" fill="#faecb9" stroke="none" stroke-linecap="butt"/><path d="M255.73648,190.01759c0.05442,0.10392 0.0143,0.23229 -0.08963,0.2867c-0.10392,0.05442 -0.23228,0.0143 -0.2867,-0.08963c-0.05442,-0.10392 -0.0143,-0.23228 0.08963,-0.2867c0.10392,-0.05442 0.23228,-0.0143 0.2867,0.08963z" data-paper-data="{&quot;origPos&quot;:null}" fill="#faecb9" stroke="none" stroke-linecap="butt"/><path d="M256.2383,189.21771c0.05442,0.10392 0.0143,0.23229 -0.08963,0.2867c-0.10392,0.05442 -0.23228,0.0143 -0.2867,-0.08963c-0.05442,-0.10392 -0.0143,-0.23228 0.08963,-0.2867c0.10392,-0.05442 0.23228,-0.0143 0.2867,0.08963z" data-paper-data="{&quot;origPos&quot;:null}" fill="#faecb9" stroke="none" stroke-linecap="butt"/><path d="M253.61508,187.13876c0.05442,0.10392 0.0143,0.23228 -0.08963,0.2867c-0.10392,0.05442 -0.23228,0.0143 -0.2867,-0.08963c-0.05442,-0.10392 -0.0143,-0.23228 0.08963,-0.2867c0.10392,-0.05442 0.23228,-0.0143 0.2867,0.08963z" data-paper-data="{&quot;origPos&quot;:null}" fill="#faecb9" stroke="none" stroke-linecap="butt"/><path d="M251.07977,194.60455c0.05442,0.10392 0.0143,0.23228 -0.08963,0.2867c-0.10392,0.05442 -0.23228,0.0143 -0.2867,-0.08963c-0.05442,-0.10392 -0.0143,-0.23228 0.08963,-0.2867c0.10392,-0.05442 0.23229,-0.0143 0.2867,0.08963z" data-paper-data="{&quot;origPos&quot;:null}" fill="#4091b4" stroke="none" stroke-linecap="butt"/><path d="M247.36365,197.47131c0.05442,0.10392 0.0143,0.23228 -0.08963,0.2867c-0.10392,0.05442 -0.23228,0.0143 -0.2867,-0.08963c-0.05442,-0.10392 -0.0143,-0.23228 0.08963,-0.2867c0.10392,-0.05442 0.23228,-0.0143 0.2867,0.08963z" data-paper-data="{&quot;origPos&quot;:null}" fill="#4091b4" stroke="none" stroke-linecap="butt"/><path d="M246.03929,194.94236c0.05442,0.10392 0.0143,0.23228 -0.08963,0.2867c-0.10392,0.05442 -0.23228,0.0143 -0.2867,-0.08963c-0.05442,-0.10392 -0.0143,-0.23229 0.08963,-0.2867c0.10392,-0.05442 0.23228,-0.01429 0.2867,0.08963z" data-paper-data="{&quot;origPos&quot;:null}" fill="#4091b4" stroke="none" stroke-linecap="butt"/><path d="M248.56506,196.68871c0.05442,0.10392 0.0143,0.23229 -0.08963,0.2867c-0.10392,0.05442 -0.23228,0.0143 -0.2867,-0.08963c-0.05442,-0.10392 -0.0143,-0.23228 0.08963,-0.2867c0.10392,-0.05442 0.23228,-0.0143 0.2867,0.08963z" data-paper-data="{&quot;origPos&quot;:null}" fill="#4091b4" stroke="none" stroke-linecap="butt"/><path d="M246.91682,193.10175c0.05442,0.10392 0.0143,0.23228 -0.08963,0.2867c-0.10392,0.05442 -0.23228,0.0143 -0.2867,-0.08963c-0.05442,-0.10392 -0.0143,-0.23228 0.08963,-0.2867c0.10392,-0.05442 0.23228,-0.0143 0.2867,0.08963z" data-paper-data="{&quot;origPos&quot;:null}" fill="#4091b4" stroke="none" stroke-linecap="butt"/><path d="M243.77669,199.11956c0.05442,0.10392 0.0143,0.23228 -0.08963,0.2867c-0.10392,0.05442 -0.23228,0.0143 -0.2867,-0.08963c-0.05442,-0.10392 -0.0143,-0.23229 0.08963,-0.2867c0.10392,-0.05442 0.23228,-0.0143 0.2867,0.08963z" data-paper-data="{&quot;origPos&quot;:null}" fill="#4091b4" stroke="none" stroke-linecap="butt"/><path d="M240.28131,202.40783c0.05442,0.10392 0.0143,0.23228 -0.08963,0.2867c-0.10392,0.05442 -0.23228,0.0143 -0.2867,-0.08963c-0.05442,-0.10392 -0.0143,-0.23228 0.08963,-0.2867c0.10392,-0.05442 0.23228,-0.0143 0.2867,0.08963z" data-paper-data="{&quot;origPos&quot;:null}" fill="#4091b4" stroke="none" stroke-linecap="butt"/><path d="M239.90593,200.22588c0.05442,0.10392 0.0143,0.23228 -0.08963,0.2867c-0.10392,0.05442 -0.23228,0.0143 -0.2867,-0.08963c-0.05442,-0.10392 -0.0143,-0.23228 0.08963,-0.2867c0.10392,-0.05442 0.23228,-0.0143 0.2867,0.08963z" data-paper-data="{&quot;origPos&quot;:null}" fill="#4091b4" stroke="none" stroke-linecap="butt"/><path d="M244.7317,196.54783c0.05442,0.10392 0.0143,0.23228 -0.08963,0.2867c-0.10392,0.05442 -0.23228,0.0143 -0.2867,-0.08963c-0.05442,-0.10392 -0.0143,-0.23228 0.08963,-0.2867c0.10392,-0.05442 0.23229,-0.0143 0.2867,0.08963z" data-paper-data="{&quot;origPos&quot;:null}" fill="#4091b4" stroke="none" stroke-linecap="butt"/><path d="M245.08695,199.27739c0.05442,0.10392 0.0143,0.23228 -0.08963,0.2867c-0.10392,0.05442 -0.23228,0.0143 -0.2867,-0.08963c-0.05442,-0.10392 -0.0143,-0.23228 0.08963,-0.2867c0.10392,-0.05442 0.23228,-0.0143 0.2867,0.08963z" data-paper-data="{&quot;origPos&quot;:null}" fill="#4091b4" stroke="none" stroke-linecap="butt"/><path d="M242.3574,199.63263c0.05442,0.10392 0.0143,0.23228 -0.08963,0.2867c-0.10392,0.05442 -0.23228,0.0143 -0.2867,-0.08963c-0.05442,-0.10392 -0.0143,-0.23229 0.08963,-0.2867c0.10392,-0.05442 0.23228,-0.0143 0.2867,0.08963z" data-paper-data="{&quot;origPos&quot;:null}" fill="#4091b4" stroke="none" stroke-linecap="butt"/><path d="M238.13376,202.99536c0.05442,0.10392 0.0143,0.23228 -0.08963,0.2867c-0.10392,0.05442 -0.23228,0.0143 -0.2867,-0.08963c-0.05442,-0.10392 -0.0143,-0.23228 0.08963,-0.2867c0.10392,-0.05442 0.23228,-0.0143 0.2867,0.08963z" data-paper-data="{&quot;origPos&quot;:null}" fill="#4091b4" stroke="none" stroke-linecap="butt"/><path d="M238.68725,201.70807c0.05442,0.10392 0.0143,0.23229 -0.08963,0.2867c-0.10392,0.05442 -0.23228,0.0143 -0.2867,-0.08963c-0.05442,-0.10392 -0.0143,-0.23228 0.08963,-0.2867c0.10392,-0.05442 0.23228,-0.0143 0.2867,0.08963z" data-paper-data="{&quot;origPos&quot;:null}" fill="#4091b4" stroke="none" stroke-linecap="butt"/><path d="M235.84581,202.58227c0.05442,0.10392 0.0143,0.23228 -0.08963,0.2867c-0.10392,0.05442 -0.23228,0.0143 -0.2867,-0.08963c-0.05442,-0.10392 -0.0143,-0.23228 0.08963,-0.2867c0.10392,-0.05442 0.23228,-0.0143 0.2867,0.08963z" data-paper-data="{&quot;origPos&quot;:null}" fill="#4091b4" stroke="none" stroke-linecap="butt"/><path d="M232.83246,202.3956c0.05442,0.10392 0.0143,0.23228 -0.08963,0.2867c-0.10392,0.05442 -0.23228,0.0143 -0.2867,-0.08963c-0.05442,-0.10392 -0.0143,-0.23228 0.08963,-0.2867c0.10392,-0.05442 0.23228,-0.0143 0.2867,0.08963z" data-paper-data="{&quot;origPos&quot;:null}" fill="#4091b4" stroke="none" stroke-linecap="butt"/><path d="M234.94546,203.20721c0.05442,0.10392 0.0143,0.23228 -0.08963,0.2867c-0.10392,0.05442 -0.23228,0.0143 -0.2867,-0.08963c-0.05442,-0.10392 -0.0143,-0.23228 0.08963,-0.2867c0.10392,-0.05442 0.23228,-0.0143 0.2867,0.08963z" data-paper-data="{&quot;origPos&quot;:null}" fill="#4091b4" stroke="none" stroke-linecap="butt"/><path d="M237.23642,202.16094c0.05442,0.10392 0.0143,0.23228 -0.08963,0.2867c-0.10392,0.05442 -0.23228,0.0143 -0.2867,-0.08963c-0.05442,-0.10392 -0.0143,-0.23228 0.08963,-0.2867c0.10392,-0.05442 0.23228,-0.0143 0.2867,0.08963z" data-paper-data="{&quot;origPos&quot;:null}" fill="#4091b4" stroke="none" stroke-linecap="butt"/><path d="M242.1766,201.33856c0.05442,0.10392 0.0143,0.23228 -0.08963,0.2867c-0.10392,0.05442 -0.23228,0.0143 -0.2867,-0.08963c-0.05442,-0.10392 -0.0143,-0.23228 0.08963,-0.2867c0.10392,-0.05442 0.23228,-0.0143 0.2867,0.08963z" data-paper-data="{&quot;origPos&quot;:null}" fill="#4091b4" stroke="none" stroke-linecap="butt"/><path d="M243.27786,198.46006c0.05442,0.10392 0.0143,0.23228 -0.08963,0.2867c-0.10392,0.05442 -0.23229,0.0143 -0.2867,-0.08963c-0.05442,-0.10392 -0.0143,-0.23228 0.08963,-0.2867c0.10392,-0.05442 0.23228,-0.0143 0.2867,0.08963z" data-paper-data="{&quot;origPos&quot;:null}" fill="#4091b4" stroke="none" stroke-linecap="butt"/><path d="M245.65202,196.98659c0.05442,0.10392 0.0143,0.23229 -0.08963,0.2867c-0.10392,0.05442 -0.23228,0.0143 -0.2867,-0.08963c-0.05442,-0.10392 -0.0143,-0.23228 0.08963,-0.2867c0.10392,-0.05442 0.23229,-0.0143 0.2867,0.08963z" data-paper-data="{&quot;origPos&quot;:null}" fill="#4091b4" stroke="none" stroke-linecap="butt"/><path d="M243.62741,200.88571c0.05442,0.10392 0.0143,0.23228 -0.08963,0.2867c-0.10392,0.05442 -0.23229,0.0143 -0.2867,-0.08963c-0.05442,-0.10392 -0.0143,-0.23228 0.08963,-0.2867c0.10392,-0.05442 0.23228,-0.0143 0.2867,0.08963z" data-paper-data="{&quot;origPos&quot;:null}" fill="#4091b4" stroke="none" stroke-linecap="butt"/><path d="M236.61986,203.3278c0.05442,0.10392 0.0143,0.23228 -0.08963,0.2867c-0.10392,0.05442 -0.23228,0.0143 -0.2867,-0.08963c-0.05442,-0.10392 -0.0143,-0.23228 0.08963,-0.2867c0.10392,-0.05442 0.23228,-0.0143 0.2867,0.08963z" data-paper-data="{&quot;origPos&quot;:null}" fill="#4091b4" stroke="none" stroke-linecap="butt"/><path d="M240.19827,201.22368c0.05442,0.10392 0.0143,0.23229 -0.08963,0.2867c-0.10392,0.05442 -0.23228,0.0143 -0.2867,-0.08963c-0.05442,-0.10392 -0.01429,-0.23228 0.08963,-0.2867c0.10392,-0.05442 0.23228,-0.0143 0.2867,0.08963z" data-paper-data="{&quot;origPos&quot;:null}" fill="#4091b4" stroke="none" stroke-linecap="butt"/><path d="M233.93626,202.89172c0.05442,0.10392 0.01429,0.23229 -0.08963,0.2867c-0.10392,0.05442 -0.23228,0.0143 -0.2867,-0.08963c-0.05442,-0.10392 -0.0143,-0.23229 0.08963,-0.2867c0.10392,-0.05442 0.23228,-0.0143 0.2867,0.08963z" data-paper-data="{&quot;origPos&quot;:null}" fill="#4091b4" stroke="none" stroke-linecap="butt"/></g><g fill-rule="nonzero" stroke="#000000"><path d="M257.66476,183.60458c-0.26144,-0.07801 -1.3133,-0.08995 -1.96786,-0.08199c-0.57162,-0.00796 -1.16221,0.01031 -1.69845,0.08199l-0.81994,0.23427l0.03514,-0.76138c0.01171,-0.25348 0.18812,-1.21819 0.37482,-1.81558c0.28299,-0.88976 0.64119,-1.75866 1.03077,-2.63553c0.20264,-0.45636 0.44183,-0.90404 0.72623,-1.31191l0.5271,-0.56224l0.50368,0.70281c0.18039,0.23942 0.57935,0.92982 0.7848,1.40562c0.20827,0.48377 0.33524,0.97245 0.50368,1.49932c0.2099,0.64378 0.40435,1.29714 0.55053,1.95615l0.28114,1.52275l-0.81994,-0.23427z" fill="#e11926" stroke-linecap="round"/><path d="M262.63956,185.73545c-0.19792,-0.18781 -1.13063,-0.67422 -1.71803,-0.96315c-0.5062,-0.26563 -1.04121,-0.51647 -1.55189,-0.69505l-0.83723,-0.16193l0.3757,-0.66315c0.1251,-0.22077 0.71876,-1.00142 1.15546,-1.44976c0.65483,-0.66553 1.36729,-1.27849 2.11135,-1.88434c0.38713,-0.31535 0.80294,-0.60647 1.24106,-0.84159l0.72441,-0.26306l0.13133,0.85464c0.05259,0.29511 0.09617,1.0913 0.06421,1.60859c-0.03305,0.52565 -0.14084,1.01892 -0.22891,1.56501c-0.10397,0.6691 -0.22605,1.33977 -0.39374,1.99363l-0.43799,1.48525l-0.62531,-0.57979z" fill="#e11926" stroke-linecap="round"/><path d="M248.8586,185.75592l-0.64372,0.55928l-0.38978,-1.49863c-0.14647,-0.65893 -0.24683,-1.3332 -0.32913,-2.00532c-0.07038,-0.54863 -0.16216,-1.04515 -0.17823,-1.57157c-0.01522,-0.51807 0.05405,-1.31242 0.11614,-1.60568l0.15889,-0.84992l0.71553,0.2863c0.43031,0.24917 0.83649,0.55355 1.21324,0.88125c0.7241,0.62957 1.41639,1.26522 2.04936,1.95158c0.42201,0.46222 0.99013,1.26161 1.10802,1.48632l0.35409,0.67493l-0.84204,0.13478c-0.51616,0.16202 -1.05899,0.39543 -1.57352,0.64457c-0.59641,0.26981 -1.54436,0.72584 -1.74823,0.90716z" fill="#e11926" stroke-linecap="round"/><path d="M264.13056,177.45501c0.29096,0 0.55451,0.11807 0.74521,0.309c0.19092,0.1907 0.309,0.45424 0.309,0.74521c0,0.29096 -0.11806,0.55451 -0.309,0.74521c-0.1907,0.19092 -0.45424,0.309 -0.74521,0.309c-0.29096,0 -0.55452,-0.11807 -0.74522,-0.309c-0.19092,-0.1907 -0.309,-0.45424 -0.309,-0.74521c0,-0.29096 0.11807,-0.55451 0.309,-0.74521c0.1907,-0.19092 0.45424,-0.309 0.74522,-0.309z" fill="#d8c513" stroke-linecap="butt"/><path d="M255.69688,175.22946c0.29096,0 0.55451,0.11807 0.74521,0.309c0.19092,0.1907 0.309,0.45424 0.309,0.74521c0,0.29096 -0.11807,0.55451 -0.309,0.74521c-0.1907,0.19092 -0.45424,0.309 -0.74521,0.309c-0.29096,0 -0.55452,-0.11807 -0.74521,-0.309c-0.19092,-0.1907 -0.309,-0.45424 -0.309,-0.74521c0,-0.29096 0.11806,-0.55451 0.309,-0.74521c0.1907,-0.19092 0.45424,-0.309 0.74521,-0.309z" fill="#d8c513" stroke-linecap="butt"/><path d="M247.26319,177.63073c0.29096,0 0.55451,0.11807 0.74521,0.309c0.19092,0.1907 0.309,0.45424 0.309,0.74521c0,0.29096 -0.11807,0.55451 -0.309,0.74521c-0.1907,0.19092 -0.45424,0.309 -0.74521,0.309c-0.29096,0 -0.55451,-0.11807 -0.74521,-0.309c-0.19092,-0.1907 -0.309,-0.45424 -0.309,-0.74521c0,-0.29096 0.11807,-0.55451 0.309,-0.74521c0.1907,-0.19092 0.45424,-0.309 0.74521,-0.309z" data-paper-data="{&quot;origPos&quot;:null}" fill="#d8c513" stroke-linecap="butt"/></g><g data-paper-data="{&quot;index&quot;:null}" fill-rule="nonzero" stroke="#000000" stroke-linecap="round"><path d="M263.07103,194.81453c0.15574,-0.0439 0.37213,0.00792 0.46458,0.14017c0.11631,0.16667 0.1358,0.43261 0.03634,0.61121c-0.14536,0.29463 -0.40466,0.5552 -0.70584,0.68308c-0.63908,0.27104 -1.30312,0.44609 -1.98092,0.47815c-0.44409,0.02095 -0.93718,-0.08734 -1.32061,-0.34153c-0.1562,-0.09964 -0.35354,-0.35813 -0.29882,-0.62685c0.05471,-0.26872 0.31381,-0.29155 0.49165,-0.32018c0.17784,-0.02861 1.09716,0.08349 1.63333,-0.05621c0.53617,-0.13971 1.12717,-0.4139 1.68028,-0.56781z" data-paper-data="{&quot;origPos&quot;:null}" fill="#ed737e"/><path d="M262.98317,195.45952c0,0 -0.48418,0.23568 -0.83499,0.3508c-0.35083,0.11513 -0.77622,0.22705 -1.26157,0.27323c-0.48535,0.04617 -0.85596,-0.07435 -0.85596,-0.07435" data-paper-data="{&quot;origPos&quot;:null}" fill="none"/></g><g data-paper-data="{&quot;index&quot;:null}" fill-rule="nonzero" stroke="none" stroke-linecap="butt"><path d="M252.94541,189.18686c0.29718,0 0.56628,0.12784 0.76131,0.33415c0.19483,0.20651 0.31554,0.49149 0.31554,0.80618c0,0.31469 -0.12072,0.59966 -0.31554,0.80618c-0.19502,0.20631 -0.46413,0.33415 -0.76131,0.33415c-0.29718,0 -0.56629,-0.12784 -0.76131,-0.33415c-0.19483,-0.20651 -0.31554,-0.49149 -0.31554,-0.80618c0,-0.31469 0.12072,-0.59966 0.31554,-0.80618c0.19502,-0.20631 0.46413,-0.33415 0.76131,-0.33415z" data-paper-data="{&quot;origPos&quot;:null}" fill="#000000"/><path d="M252.7083,189.52163c0.0818,0 0.15589,0.03515 0.20945,0.09206c0.05375,0.0567 0.08694,0.13517 0.08694,0.22179c0,0.08663 -0.03319,0.16509 -0.08694,0.22179c-0.05354,0.05692 -0.12764,0.09206 -0.20945,0.09206c-0.0818,0 -0.15589,-0.03514 -0.20945,-0.09206c-0.05375,-0.0567 -0.08694,-0.13517 -0.08694,-0.22179c0,-0.08663 0.03319,-0.16509 0.08694,-0.22179c0.05354,-0.05692 0.12764,-0.09206 0.20945,-0.09206z" data-paper-data="{&quot;origPos&quot;:null}" fill="#ffffff"/></g><g data-paper-data="{&quot;index&quot;:null}" fill-rule="nonzero" stroke="#000000" stroke-linecap="round"><path d="M261.70421,186.57403c0.55309,0.02011 1.10161,0.13018 1.66714,0.24883c0.15995,0.03354 0.33991,0.07684 0.44789,0.19906c0.11237,0.13407 0.14214,0.31711 0.17418,0.49765c0.0846,0.53548 0.16502,2.50636 0.17418,3.07209c0.00776,0.49128 -0.07186,2.18693 -0.1493,2.67214c-0.04011,0.25092 -0.04817,0.53 -0.19906,0.7216c-0.11596,0.15806 -0.3377,0.18673 -0.52254,0.22394c-0.57459,0.11536 -1.15794,0.19348 -1.74179,0.19905c-0.54971,0.00895 -1.12111,-0.05693 -1.66714,-0.17418c-0.17348,-0.03733 -0.35393,-0.15447 -0.47277,-0.2986c-0.1484,-0.18164 -0.2754,-0.41087 -0.32348,-0.64694c-0.10202,-0.51816 -0.12411,-2.26437 -0.12441,-2.79657c0.01692,-0.54085 0.07116,-2.51153 0.17418,-3.0472c0.03822,-0.20155 0.09018,-0.43823 0.24883,-0.5723c0.17309,-0.14631 0.42588,-0.14432 0.64695,-0.17418c0.53577,-0.07216 1.103,-0.14602 1.66714,-0.12441z" fill="#296645"/><path d="M261.65559,187.13011c0.43549,0.01583 0.86736,0.10251 1.31256,0.19588c0.12601,0.02648 0.26764,0.06052 0.35264,0.15676c0.08849,0.10551 0.11197,0.24963 0.13715,0.39175c0.06659,0.42161 0.12988,2.27744 0.13715,2.72283c0.00607,0.38687 -0.05663,1.97792 -0.11754,2.36001c-0.03155,0.19747 -0.03792,0.41724 -0.15677,0.56812c-0.09127,0.12441 -0.26584,0.14701 -0.41136,0.17626c-0.45247,0.09087 -0.9117,0.15239 -1.37138,0.15676c-0.4328,0.00707 -0.88269,-0.04479 -1.31259,-0.13715c-0.13659,-0.02936 -0.27865,-0.12163 -0.37222,-0.23509c-0.11684,-0.14303 -0.21683,-0.32348 -0.25467,-0.50939c-0.08034,-0.40798 -0.09772,-2.03883 -0.09796,-2.45786c0.01332,-0.42579 0.05603,-2.28151 0.13713,-2.70323c0.0301,-0.15866 0.071,-0.34507 0.19591,-0.45058c0.13628,-0.11525 0.33532,-0.11367 0.50937,-0.13715c0.42183,-0.05683 0.86842,-0.11496 1.31259,-0.09793z" fill="#ffffff"/></g><path d="M264.05975,184.91719c0.10299,0.11507 0.06154,0.80451 -0.38615,0.87511c-0.44769,0.07061 -0.99996,-0.29066 -1.64209,-0.41741c-0.79529,-0.15698 -2.10407,0.1925 -2.49309,0.06535c-0.38902,-0.12716 -0.3673,-0.87353 -0.13131,-0.97699c0.72858,-0.31941 1.70084,-0.37146 2.56369,-0.28727c0.86284,0.08419 1.94472,0.58004 2.08895,0.74121z" data-paper-data="{&quot;origRot&quot;:0,&quot;index&quot;:null}" fill="#296645" fill-rule="nonzero" stroke="#000000" stroke-linecap="round"/><g data-paper-data="{&quot;index&quot;:null}" fill-rule="nonzero" stroke="none" stroke-linecap="butt"><path d="M261.36472,190.1766c0.10417,0.11042 0.16872,0.26279 0.16872,0.43105c0,0.16825 -0.06455,0.32062 -0.16872,0.43105c-0.10428,0.11031 -0.24816,0.17866 -0.40705,0.17866c-0.15889,0 -0.30278,-0.06835 -0.40705,-0.17866c-0.10417,-0.11042 -0.16872,-0.26279 -0.16872,-0.43105c0,-0.16825 0.06455,-0.32062 0.16872,-0.43105c0.10428,-0.11031 0.24816,-0.17867 0.40705,-0.17867c0.15889,0 0.30277,0.06835 0.40705,0.17867z" data-paper-data="{&quot;origPos&quot;:null}" fill="#000000"/><path d="M261.19641,190.22615c0.02874,0.03032 0.04648,0.07227 0.04648,0.11859c0,0.04632 -0.01775,0.08827 -0.04648,0.11858c-0.02863,0.03043 -0.06824,0.04922 -0.11199,0.04922c-0.04374,0 -0.08335,-0.01879 -0.11199,-0.04922c-0.02874,-0.03032 -0.04648,-0.07227 -0.04648,-0.11858c0,-0.04632 0.01774,-0.08827 0.04648,-0.11859c0.02863,-0.03043 0.06824,-0.04922 0.11199,-0.04922c0.04374,0 0.08335,0.01879 0.11199,0.04922z" data-paper-data="{&quot;origPos&quot;:null}" fill="#ffffff"/></g><g fill-rule="nonzero"><path d="M256.10519,156.62394c0,0 2.34936,-0.54295 2.52802,1.16968c0.17866,1.71264 -2.50571,1.44093 -2.46413,1.67504c0.03672,0.20675 2.56916,-0.57911 2.74783,1.13353c0.17866,1.71264 -2.23717,1.61829 -2.23717,1.61829" data-paper-data="{&quot;origRot&quot;:0}" fill="none" stroke="#000000" stroke-linecap="round"/><g fill="none" stroke="#000000" stroke-linecap="round"><path d="M251.63192,156.61251h2.82787" data-paper-data="{&quot;origPos&quot;:null}"/><path d="M251.57045,158.88709v-2.27459" data-paper-data="{&quot;origPos&quot;:null}"/><path d="M251.57045,159.01005c0,0 3.07377,-1.34938 3.07377,1.53689c0,2.88627 -3.07377,1.35246 -3.07377,1.35246" data-paper-data="{&quot;origPos&quot;:null}"/></g><path d="M260.01495,161.90256c0,-0.24829 0.18211,-0.44956 0.40675,-0.44956c0.22464,0 0.40675,0.20128 0.40675,0.44956c0,0.24829 -0.18211,0.44956 -0.40675,0.44956c-0.22464,0 -0.40675,-0.20128 -0.40675,-0.44956z" fill="#000000" stroke="none" stroke-linecap="butt"/><g fill="none" stroke="#000000" stroke-linecap="round"><path d="M262.28339,156.41727h2.82787" data-paper-data="{&quot;origPos&quot;:null}"/><path d="M262.22192,156.41727v2.27459" data-paper-data="{&quot;origPos&quot;:null}"/><path d="M262.22192,158.81481c0,0 3.07377,-1.34938 3.07377,1.53689c0,2.88627 -3.07377,1.35246 -3.07377,1.35246" data-paper-data="{&quot;origPos&quot;:null}"/></g></g><g fill-rule="nonzero" stroke="none"><path d="M242.17133,192.62567v-4.02251h29.43459v4.02251z" fill="#000000" stroke-linecap="butt"/><path d="M244.27836,193.9665v-6.89573h10.9821v6.89573z" fill="#000000" stroke-linecap="butt"/><path d="M245.30043,193.15221v-5.2995h8.43995v5.2995z" fill="#404040" stroke-linecap="butt"/><path d="M251.39648,187.82293l2.35227,2.32172v0.91647l-3.51313,-3.20764z" fill="#ffffff" stroke-linecap="round"/><path d="M248.17356,187.82412l0.82482,0.01527l4.71981,3.84917v0.70262z" fill="#ffffff" stroke-linecap="round"/><path d="M258.83232,193.90118v-6.89574h10.98209v6.89574z" fill="#000000" stroke-linecap="butt"/><path d="M259.85437,193.08688v-5.2995h8.43995v5.2995z" fill="#404040" stroke-linecap="butt"/><path d="M265.95043,187.7576l2.35227,2.32172v0.91646l-3.51312,-3.20763z" fill="#ffffff" stroke-linecap="round"/><path d="M262.72751,187.7588l0.82482,0.01527l4.71981,3.84917v0.70262z" fill="#ffffff" stroke-linecap="round"/></g><g data-paper-data="{&quot;index&quot;:null}" fill-rule="nonzero" stroke="#000000" stroke-linecap="butt"><path d="M240.75821,184.4274l-3.3606,12.38592l-12.38592,-3.36059l3.3606,-12.38592z" fill="#9b9b9b"/><path d="M237.07649,186.43735c1.39213,2.42885 0.63604,5.21375 -1.79224,6.60555c-2.42828,1.3918 -5.21808,0.62847 -6.60555,-1.79223c-1.38747,-2.42071 -0.52519,-5.27728 1.79224,-6.60555c2.31743,-1.32827 5.21342,-0.6366 6.60555,1.79224z" fill="#606060"/></g><path d="M230.41402,190.34158c-0.83756,-1.46129 -0.38267,-3.1368 1.07829,-3.97418c1.46095,-0.83737 3.13942,-0.37811 3.97418,1.07829c0.83476,1.4564 0.31597,3.17503 -1.07829,3.97417c-1.39426,0.79914 -3.13662,0.38301 -3.97417,-1.07829z" data-paper-data="{&quot;index&quot;:null}" fill="#9b9b9b" fill-rule="nonzero" stroke="#000000" stroke-linecap="butt"/><g data-paper-data="{&quot;index&quot;:null}" fill-rule="nonzero" stroke="#000000" stroke-linecap="butt"><path d="M285.16199,182.10416l3.36059,12.38592l-12.38592,3.3606l-3.36059,-12.38592z" fill="#9b9b9b"/><path d="M283.06332,185.68245c2.31743,1.32827 3.1797,4.18483 1.79224,6.60555c-1.38747,2.42071 -4.17727,3.18404 -6.60555,1.79223c-2.42828,-1.3918 -3.18436,-4.1767 -1.79224,-6.60555c1.39213,-2.42885 4.28811,-3.12051 6.60555,-1.79224z" fill="#606060"/></g><path d="M279.14607,192.4572c-1.39426,-0.79914 -1.91305,-2.51777 -1.07829,-3.97417c0.83476,-1.4564 2.51323,-1.91566 3.97418,-1.07829c1.46095,0.83737 1.91585,2.51287 1.07829,3.97417c-0.83756,1.46129 -2.57991,1.87743 -3.97417,1.07829z" data-paper-data="{&quot;index&quot;:null}" fill="#9b9b9b" fill-rule="nonzero" stroke="#000000" stroke-linecap="butt"/><path d="M237.82491,175.79687v1.45837h-8.03882v-1.45837z" data-paper-data="{&quot;index&quot;:null}" fill="#42633b" fill-rule="nonzero" stroke="#000000" stroke-linecap="butt"/><path d="M237.82714,177.25794v1.45837h-8.03882v-1.45837z" data-paper-data="{&quot;index&quot;:null}" fill="#42633b" fill-rule="nonzero" stroke="#000000" stroke-linecap="butt"/><path d="M237.82221,172.87403v1.45837h-8.03882v-1.45837z" data-paper-data="{&quot;index&quot;:null}" fill="#63633a" fill-rule="nonzero" stroke="#000000" stroke-linecap="butt"/><path d="M237.82445,174.3351v1.45837h-8.03882v-1.45837z" data-paper-data="{&quot;index&quot;:null}" fill="#63633a" fill-rule="nonzero" stroke="#000000" stroke-linecap="butt"/><path d="M237.82342,171.41582v1.45837h-8.03882v-1.45837z" data-paper-data="{&quot;index&quot;:null}" fill="#63633a" fill-rule="nonzero" stroke="#000000" stroke-linecap="butt"/><path d="M237.82352,168.49983v1.45837h-8.03882v-1.45837z" data-paper-data="{&quot;index&quot;:null}" fill="#633939" fill-rule="nonzero" stroke="#000000" stroke-linecap="butt"/><path d="M237.82575,169.9609v1.45837h-8.03882v-1.45837z" data-paper-data="{&quot;index&quot;:null}" fill="#633939" fill-rule="nonzero" stroke="#000000" stroke-linecap="butt"/><path d="M237.82473,167.04162v1.45837h-8.03882v-1.45837z" data-paper-data="{&quot;index&quot;:null}" fill="#633939" fill-rule="nonzero" stroke="#000000" stroke-linecap="butt"/><path d="M283.72019,176.52269v1.45837h-8.03882v-1.45837z" data-paper-data="{&quot;index&quot;:null}" fill="#42633b" fill-rule="nonzero" stroke="#000000" stroke-linecap="butt"/><path d="M283.72242,177.98376v1.45837h-8.03882v-1.45837z" data-paper-data="{&quot;index&quot;:null}" fill="#42633b" fill-rule="nonzero" stroke="#000000" stroke-linecap="butt"/><path d="M283.7175,173.59986v1.45837h-8.03882v-1.45837z" data-paper-data="{&quot;index&quot;:null}" fill="#63633a" fill-rule="nonzero" stroke="#000000" stroke-linecap="butt"/><path d="M283.71974,175.06093v1.45837h-8.03882v-1.45837z" data-paper-data="{&quot;index&quot;:null}" fill="#63633a" fill-rule="nonzero" stroke="#000000" stroke-linecap="butt"/><path d="M283.71871,172.14165v1.45837h-8.03882v-1.45837z" data-paper-data="{&quot;index&quot;:null}" fill="#63633a" fill-rule="nonzero" stroke="#000000" stroke-linecap="butt"/><path d="M283.71881,169.22565v1.45837h-8.03882v-1.45837z" data-paper-data="{&quot;index&quot;:null}" fill="#633939" fill-rule="nonzero" stroke="#000000" stroke-linecap="butt"/><path d="M283.72105,170.68672v1.45837h-8.03882v-1.45837z" data-paper-data="{&quot;index&quot;:null}" fill="#633939" fill-rule="nonzero" stroke="#000000" stroke-linecap="butt"/><path d="M283.72001,167.76744v1.45837h-8.03882v-1.45837z" data-paper-data="{&quot;index&quot;:null}" fill="#633939" fill-rule="nonzero" stroke="#000000" stroke-linecap="butt"/></g></g></svg>